# UnrealEd OBJ exporter (_Internal)



v -39.546356 -15.431854 1.203645

v 39.546295 -15.431854 1.203645

v -39.546356 -22.668852 1.203645

v 39.546295 -22.668852 1.203645

v 39.546295 -15.431854 5.203645

v -39.546356 -15.431854 5.203645

v -39.546356 -22.668852 5.203645

v 39.546295 -22.668852 5.203645

v 39.546295 -22.668852 5.203645

v -39.546356 -22.668852 5.203645

v -39.546356 -22.668852 1.203645

v 39.546295 -22.668852 1.203645

v 39.546295 -22.668852 5.203645

v 39.546295 -15.431854 1.203645

v 39.546295 -15.431854 5.203645

v 39.546295 -22.668852 1.203645

v -39.546356 -15.431854 5.203645

v 39.546295 -15.431854 5.203645

v 39.546295 -15.431854 1.203645

v -39.546356 -15.431854 1.203645

v -39.546356 -22.668852 5.203645

v -39.546356 -15.431854 5.203645

v -39.546356 -15.431854 1.203645

v -39.546356 -22.668852 1.203645

v -37.971771 -16.890808 3.025178

v -0.000031 1.233307 3.025178

v -0.000031 2.689972 3.025178

v -37.971771 -18.347473 3.025177

v 37.971710 -16.890808 3.025178

v -0.000031 2.689972 3.025178

v -0.000031 1.233307 3.025178

v 37.971710 -18.347473 3.025177

v 1.210236 -1.330292 -1.061304

v -1.210297 -1.330292 -1.061304

v 1.210236 1.350677 -1.061304

v -1.210297 1.350677 -1.061304

v -1.210297 -1.330292 8.176970

v -1.210297 -1.330292 -1.061304

v 1.210236 -1.330292 8.176970

v 1.210236 -1.330292 -1.061304

v 1.210236 -1.330292 8.176970

v 1.210236 -1.330292 -1.061304

v 1.210236 1.350677 6.094939

v 1.210236 1.350677 -1.061304

v 1.210236 1.350677 6.094939

v 1.210236 1.350677 -1.061304

v -1.210297 1.350677 6.094939

v -1.210297 1.350677 -1.061304

v -1.210297 1.350677 6.094939

v -1.210297 -1.330292 -1.061304

v -1.210297 -1.330292 8.176970

v -1.210297 1.350677 -1.061304

v -1.210297 6.110260 8.176971

v 1.210236 6.110260 8.176971

v 1.210236 6.110260 6.094940

v -1.210297 6.110260 6.094940

v -1.210297 1.350677 6.094939

v -1.210297 6.110260 6.094940

v 1.210236 1.350677 6.094939

v 1.210236 6.110260 6.094940

v -1.210297 -1.330292 8.176970

v -1.210297 6.110260 8.176971

v -1.210297 1.350677 6.094939

v -1.210297 6.110260 6.094940

v -1.210297 6.110260 8.176971

v -1.210297 -1.330292 8.176970

v 1.210236 6.110260 8.176971

v 1.210236 -1.330292 8.176970

v 1.210236 1.350677 6.094939

v 1.210236 6.110260 8.176971

v 1.210236 -1.330292 8.176970

v 1.210236 6.110260 6.094940

v 37.195831 -22.715271 3.203670

v -36.743011 -180.126617 3.203645

v 37.195831 -180.194260 3.203645

v -36.743011 -22.715271 3.203670

v 18.711090 -358.487061 3.203619

v 37.195831 -338.812378 3.203619

v 37.195831 -180.194260 3.203645

v -36.743011 -180.126617 3.203645

v 0.226349 -370.324341 3.203619

v -18.258392 -358.487061 3.203619

v -36.743011 -338.812378 3.203619



vt 0.069397 0.007324

vt 0.103027 0.007324

vt 0.069397 0.010254

vt 0.103027 0.010254

vt 0.103027 0.005371

vt 0.069397 0.005371

vt 0.069397 0.002441

vt 0.103027 0.002441

vt 0.103027 0.002441

vt 0.069397 0.002441

vt 0.069397 0.000488

vt 0.103027 0.000488

vt 0.104675 0.010254

vt 0.103027 0.007324

vt 0.104675 0.007324

vt 0.103027 0.010254

vt 0.069397 0.005371

vt 0.103027 0.005371

vt 0.103027 0.007324

vt 0.069397 0.007324

vt 0.067688 0.010254

vt 0.067688 0.007324

vt 0.069397 0.007324

vt 0.069397 0.010254

vt 0.001090 0.249023

vt 0.017212 0.248535

vt 0.017212 0.249023

vt 0.001090 0.248535

vt 0.033356 0.249023

vt 0.017212 0.249023

vt 0.017212 0.248535

vt 0.033356 0.248535

vt 0.038818 0.143066

vt 0.037048 0.143066

vt 0.038818 0.141113

vt 0.037048 0.141113

vt 0.037048 0.149902

vt 0.037048 0.143066

vt 0.038818 0.149902

vt 0.038818 0.143066

vt 0.038818 0.149902

vt 0.038818 0.143066

vt 0.040771 0.148438

vt 0.040771 0.143066

vt 0.033295 0.148438

vt 0.033295 0.143066

vt 0.035065 0.148438

vt 0.035065 0.143066

vt 0.035065 0.148438

vt 0.037048 0.143066

vt 0.037048 0.149902

vt 0.035065 0.143066

vt 0.037048 0.155273

vt 0.038818 0.155273

vt 0.038818 0.156738

vt 0.037048 0.156738

vt 0.035522 0.151855

vt 0.035522 0.155273

vt 0.033752 0.151855

vt 0.033752 0.155273

vt 0.037048 0.149902

vt 0.037048 0.155273

vt 0.035522 0.151855

vt 0.035522 0.155273

vt 0.037048 0.155273

vt 0.037048 0.149902

vt 0.038818 0.155273

vt 0.038818 0.149902

vt 0.040314 0.151855

vt 0.038818 0.155273

vt 0.038818 0.149902

vt 0.040314 0.155273

vt 0.032318 0.148438

vt 0.000914 0.081543

vt 0.032318 0.081543

vt 0.000914 0.148438

vt 0.024475 0.005859

vt 0.032318 0.014160

vt 0.032318 0.081543

vt 0.000914 0.081543

vt 0.016617 0.000977

vt 0.008766 0.005859

vt 0.000914 0.014160



vn -0.003922 -0.003922 -1.000000

vn -0.003922 -0.003922 -1.000000

vn -0.003922 -0.003922 -1.000000

vn -0.003922 -0.003922 -1.000000

vn -0.003922 -0.003922 1.000000

vn -0.003922 -0.003922 1.000000

vn -0.003922 -0.003922 1.000000

vn -0.003922 -0.003922 1.000000

vn -0.003922 -1.000000 -0.003922

vn -0.003922 -1.000000 -0.003922

vn -0.003922 -1.000000 -0.003922

vn -0.003922 -1.000000 -0.003922

vn 1.000000 -0.003922 -0.003922

vn 1.000000 -0.003922 -0.003922

vn 1.000000 -0.003922 -0.003922

vn 1.000000 -0.003922 -0.003922

vn -0.003922 1.000000 -0.003922

vn -0.003922 1.000000 -0.003922

vn -0.003922 1.000000 -0.003922

vn -0.003922 1.000000 -0.003922

vn -1.000000 -0.003922 -0.003922

vn -1.000000 -0.003922 -0.003922

vn -1.000000 -0.003922 -0.003922

vn -1.000000 -0.003922 -0.003922

vn -0.003922 -0.003922 1.000000

vn -0.003922 -0.003922 1.000000

vn -0.003922 -0.003922 1.000000

vn -0.003922 -0.003922 1.000000

vn -0.003922 -0.003922 1.000000

vn -0.003922 -0.003922 1.000000

vn -0.003922 -0.003922 1.000000

vn -0.003922 -0.003922 1.000000

vn -0.003922 -0.003922 -1.000000

vn -0.003922 -0.003922 -1.000000

vn -0.003922 -0.003922 -1.000000

vn -0.003922 -0.003922 -1.000000

vn -0.003922 -1.000000 -0.003922

vn -0.003922 -1.000000 -0.003922

vn -0.003922 -1.000000 -0.003922

vn -0.003922 -1.000000 -0.003922

vn 1.000000 -0.003922 -0.003922

vn 1.000000 -0.003922 -0.003922

vn 1.000000 -0.003922 -0.003922

vn 1.000000 -0.003922 -0.003922

vn -0.003922 1.000000 -0.003922

vn -0.003922 1.000000 -0.003922

vn -0.003922 1.000000 -0.003922

vn -0.003922 1.000000 -0.003922

vn -1.000000 -0.003922 -0.003922

vn -1.000000 -0.003922 -0.003922

vn -1.000000 -0.003922 -0.003922

vn -1.000000 -0.003922 -0.003922

vn -0.003922 1.000000 -0.003922

vn -0.003922 1.000000 -0.003922

vn -0.003922 1.000000 -0.003922

vn -0.003922 1.000000 -0.003922

vn -0.003922 -0.003922 -1.000000

vn -0.003922 -0.003922 -1.000000

vn -0.003922 -0.003922 -1.000000

vn -0.003922 -0.003922 -1.000000

vn -1.000000 -0.003922 -0.003922

vn -1.000000 -0.003922 -0.003922

vn -1.000000 -0.003922 -0.003922

vn -1.000000 -0.003922 -0.003922

vn -0.003922 -0.003922 1.000000

vn -0.003922 -0.003922 1.000000

vn -0.003922 -0.003922 1.000000

vn -0.003922 -0.003922 1.000000

vn 1.000000 -0.003922 -0.003922

vn 1.000000 -0.003922 -0.003922

vn 1.000000 -0.003922 -0.003922

vn 1.000000 -0.003922 -0.003922

vn -0.003922 -0.003922 1.000000

vn -0.003922 -0.003922 1.000000

vn -0.003922 -0.003922 1.000000

vn -0.003922 -0.003922 1.000000

vn -0.003922 -0.003922 1.000000

vn -0.003922 -0.003922 1.000000

vn -0.003922 -0.003922 1.000000

vn -0.003922 -0.003922 1.000000

vn -0.003922 -0.003922 1.000000

vn -0.003922 -0.003922 1.000000

vn -0.003922 -0.003922 1.000000

f 1/1/1 2/2/2 3/3/3

f 4/4/4 3/3/3 2/2/2

f 5/5/5 6/6/6 7/7/7

f 5/5/5 7/7/7 8/8/8

f 9/9/9 10/10/10 11/11/11

f 9/9/9 11/11/11 12/12/12

f 13/13/13 14/14/14 15/15/15

f 14/14/14 13/13/13 16/16/16

f 17/17/17 18/18/18 19/19/19

f 17/17/17 19/19/19 20/20/20

f 21/21/21 22/22/22 23/23/23

f 21/21/21 23/23/23 24/24/24

f 25/25/25 26/26/26 27/27/27

f 26/26/26 25/25/25 28/28/28

f 29/29/29 30/30/30 31/31/31

f 29/29/29 31/31/31 32/32/32

f 33/33/33 34/34/34 35/35/35

f 34/34/34 36/36/36 35/35/35

f 37/37/37 38/38/38 39/39/39

f 39/39/39 38/38/38 40/40/40

f 41/41/41 42/42/42 43/43/43

f 43/43/43 42/42/42 44/44/44

f 45/45/45 46/46/46 47/47/47

f 47/47/47 46/46/46 48/48/48

f 49/49/49 50/50/50 51/51/51

f 50/50/50 49/49/49 52/52/52

f 53/53/53 54/54/54 55/55/55

f 53/53/53 55/55/55 56/56/56

f 57/57/57 58/58/58 59/59/59

f 59/59/59 58/58/58 60/60/60

f 61/61/61 62/62/62 63/63/63

f 63/63/63 62/62/62 64/64/64

f 65/65/65 66/66/66 67/67/67

f 67/67/67 66/66/66 68/68/68

f 69/69/69 70/70/70 71/71/71

f 70/70/70 69/69/69 72/72/72

f 73/73/73 74/74/74 75/75/75

f 74/74/74 73/73/73 76/76/76

f 77/77/77 78/78/78 79/79/79

f 80/80/80 77/77/77 79/79/79

f 77/77/77 80/80/80 81/81/81

f 82/82/82 81/81/81 80/80/80

f 82/82/82 80/80/80 83/83/83

