# UnrealEd OBJ exporter (_Internal)



v 20.562500 387.010437 159.658630

v 27.113770 380.204193 159.658936

v 33.680664 387.010406 159.658630

v 27.113770 393.639404 159.658752

v 27.113770 393.639435 -160.126678

v 33.680664 387.010406 -160.126587

v 20.562500 387.010437 -160.126587

v 27.113770 380.204163 -160.126892

v 6.143066 388.934967 126.246826

v 28.980957 386.963379 132.065979

v 28.980957 388.934967 126.246826

v 6.143066 386.963379 132.065979

v 28.980957 382.945892 128.193726

v 6.143066 382.945892 128.193726

v 6.143066 388.934967 126.246826

v 28.980957 388.934967 126.246826

v 6.143066 388.934967 -134.550323

v 28.980957 386.963379 -128.731171

v 28.980957 388.934967 -134.550323

v 6.143066 386.963379 -128.731171

v 28.980957 382.945892 -132.603394

v 6.143066 382.945892 -132.603394

v 6.143066 388.934967 -134.550323

v 28.980957 388.934967 -134.550323

v 27.115479 392.238007 40.133423

v 20.562500 387.010437 159.658630

v 27.113770 393.639404 159.658752

v 21.931152 386.992371 40.133484

v 33.680664 387.010406 159.658630

v 27.115479 392.237976 -45.256531

v 21.931152 386.992371 -45.256622

v 20.562500 387.010437 -160.126587

v 27.113770 393.639435 -160.126678

v 33.680664 387.010406 -160.126587

v 32.312012 386.992371 40.133484

v 32.312012 386.992371 -45.256622

v 27.115479 381.605469 40.133362

v 27.113770 380.204193 159.658936

v 20.562500 387.010437 159.658630

v 21.931152 386.992371 40.133484

v 21.931152 386.992371 -45.256622

v 27.115479 381.605438 -45.256531

v 20.562500 387.010437 -160.126587

v 27.113770 380.204163 -160.126892



vt 0.151733 0.418945

vt 0.151489 0.412109

vt 0.158447 0.412109

vt 0.158569 0.418945

vt 0.341064 0.417480

vt 0.334717 0.417480

vt 0.340820 0.411133

vt 0.334473 0.411133

vt 0.251465 0.426758

vt 0.264648 0.420898

vt 0.264648 0.426758

vt 0.251465 0.420898

vt 0.264648 0.415527

vt 0.251465 0.415527

vt 0.251465 0.412598

vt 0.264648 0.412598

vt 0.251465 0.426758

vt 0.264648 0.420898

vt 0.264648 0.426758

vt 0.251465 0.420898

vt 0.264648 0.415527

vt 0.251465 0.415527

vt 0.251465 0.412598

vt 0.264648 0.412598

vt 0.224609 0.425293

vt 0.155396 0.427734

vt 0.155396 0.425293

vt 0.224609 0.427734

vt 0.155396 0.420898

vt 0.274170 0.425293

vt 0.274170 0.427734

vt 0.340576 0.427734

vt 0.340576 0.425293

vt 0.340576 0.420898

vt 0.224609 0.420898

vt 0.274170 0.420898

vt 0.224609 0.415527

vt 0.155396 0.415527

vt 0.155396 0.412598

vt 0.224609 0.412598

vt 0.274170 0.412598

vt 0.274170 0.415527

vt 0.340576 0.412598

vt 0.340576 0.415527



vn -0.003922 -0.003922 1.000000

vn -0.003922 -0.003922 1.000000

vn -0.003922 -0.003922 1.000000

vn -0.003922 -0.003922 1.000000

vn -0.003922 -0.003922 -1.000000

vn -0.003922 -0.003922 -1.000000

vn -0.003922 -0.003922 -1.000000

vn -0.003922 -0.003922 -1.000000

vn -0.003922 0.686275 -0.725490

vn -0.003922 0.301961 0.945098

vn -0.003922 0.686275 -0.725490

vn -0.003922 0.301961 0.945098

vn -0.003922 -0.952941 -0.325490

vn -0.003922 -0.952941 -0.325490

vn -0.003922 0.686275 -0.725490

vn -0.003922 0.686275 -0.725490

vn -0.003922 0.686275 -0.725490

vn -0.003922 0.301961 0.945098

vn -0.003922 0.686275 -0.725490

vn -0.003922 0.301961 0.945098

vn -0.003922 -0.952941 -0.325490

vn -0.003922 -0.952941 -0.325490

vn -0.003922 0.686275 -0.725490

vn -0.003922 0.686275 -0.725490

vn -0.003922 0.992157 -0.011765

vn -1.000000 -0.003922 -0.011765

vn -0.003922 0.992157 -0.011765

vn -1.000000 -0.003922 -0.011765

vn 0.992157 -0.003922 -0.011765

vn -0.003922 0.992157 0.003922

vn -1.000000 -0.003922 0.003922

vn -1.000000 -0.003922 0.011765

vn -0.003922 0.992157 0.011765

vn 0.992157 -0.003922 0.011765

vn 0.992157 -0.003922 -0.011765

vn 0.992157 -0.003922 0.003922

vn -0.003922 -1.000000 -0.011765

vn -0.003922 -1.000000 -0.011765

vn -1.000000 -0.003922 -0.011765

vn -1.000000 -0.003922 -0.011765

vn -1.000000 -0.003922 0.003922

vn -0.003922 -1.000000 0.003922

vn -1.000000 -0.003922 0.011765

vn -0.003922 -1.000000 0.011765

f 1/1/1 2/2/2 3/3/3

f 3/3/3 4/4/4 1/1/1

f 5/5/5 6/6/6 7/7/7

f 6/6/6 8/8/8 7/7/7

f 9/9/9 10/10/10 11/11/11

f 10/10/10 9/9/9 12/12/12

f 10/10/10 12/12/12 13/13/13

f 14/14/14 13/13/13 12/12/12

f 13/13/13 14/14/14 15/15/15

f 13/13/13 15/15/15 16/16/16

f 17/17/17 18/18/18 19/19/19

f 18/18/18 17/17/17 20/20/20

f 18/18/18 20/20/20 21/21/21

f 22/22/22 21/21/21 20/20/20

f 21/21/21 22/22/22 23/23/23

f 21/21/21 23/23/23 24/24/24

f 25/25/25 26/26/26 27/27/27

f 26/26/26 25/25/25 28/28/28

f 29/29/29 25/25/25 27/27/27

f 30/30/30 28/28/28 25/25/25

f 28/28/28 30/30/30 31/31/31

f 30/30/30 32/32/32 31/31/31

f 32/32/32 30/30/30 33/33/33

f 30/30/30 34/34/34 33/33/33

f 25/25/25 29/29/29 35/35/35

f 35/35/35 30/30/30 25/25/25

f 36/36/36 34/34/34 30/30/30

f 30/30/30 35/35/35 36/36/36

f 29/29/29 37/37/37 35/35/35

f 37/37/37 36/36/36 35/35/35

f 38/38/38 37/37/37 29/29/29

f 37/37/37 38/38/38 39/39/39

f 39/39/39 40/40/40 37/37/37

f 40/40/40 41/41/41 37/37/37

f 36/36/36 37/37/37 42/42/42

f 37/37/37 41/41/41 42/42/42

f 42/42/42 34/34/34 36/36/36

f 41/41/41 43/43/43 42/42/42

f 34/34/34 42/42/42 44/44/44

f 42/42/42 43/43/43 44/44/44

