# UnrealEd OBJ exporter (_Internal)



v 0.998137 -375.597961 65.829369

v 10.091887 -375.597961 41.667019

v 0.998137 0.000000 65.829369

v 6.183196 -367.395538 10.423244

v 0.998137 0.000000 -68.991066

v 0.000090 0.000000 65.829369

v 0.000090 0.000000 -68.991066

v 5.185149 -367.395538 10.423244

v 9.093840 -375.597961 41.667019

v 0.000090 -375.597961 65.829369



vt 0.313965 0.437988

vt 0.334229 0.437988

vt 0.313965 0.772827

vt 0.360107 0.445313

vt 0.426270 0.772705

vt 0.313965 0.772827

vt 0.426270 0.772705

vt 0.360107 0.445313

vt 0.334229 0.437988

vt 0.313965 0.437988



vn 0.929412 -0.003922 0.349020

vn 0.992157 0.011765 0.105882

vn 0.992157 0.011765 -0.003922

vn 0.992157 0.019608 -0.066667

vn 0.992157 0.011765 -0.003922

vn -1.000000 -0.019608 -0.003922

vn -1.000000 -0.019608 -0.003922

vn -1.000000 -0.027451 0.058824

vn -1.000000 -0.019608 -0.113725

vn -0.937255 -0.003922 -0.356863

f 1/1/1 2/2/2 3/3/3

f 3/3/3 2/2/2 4/4/4

f 3/3/3 4/4/4 5/5/5

f 6/6/6 7/7/7 8/8/8

f 9/9/9 6/6/6 8/8/8

f 10/10/10 6/6/6 9/9/9

