# UnrealEd OBJ exporter (_Internal)



v 14.294434 -183.199677 14.831421

v -3.507080 -0.000000 59.287964

v -3.507080 -371.849609 59.287964

v 0.000000 -0.000000 -9.146851

v 2.569580 -371.849609 -24.028320

v 14.294189 -181.368607 -40.647583

v 2.569580 -0.000000 -59.287964

v 2.569580 -371.849609 -59.287964

v 12.356934 -183.199677 14.831421

v -5.444580 -371.849609 59.287964

v -5.444580 -0.000000 59.287964

v -1.937500 -0.000000 -9.146851

v 0.632080 -371.849609 -24.028320

v 12.356689 -181.368607 -40.647583

v 0.632080 -0.000000 -59.287964

v 0.632080 -371.849609 -59.287964



vt 0.457764 0.612061

vt 0.422119 0.772827

vt 0.422119 0.453125

vt 0.477051 0.772217

vt 0.489014 0.451660

vt 0.501953 0.613525

vt 0.517090 0.771729

vt 0.517090 0.451660

vt 0.457764 0.612061

vt 0.422119 0.453125

vt 0.422119 0.772827

vt 0.477051 0.772217

vt 0.489014 0.451660

vt 0.501953 0.613525

vt 0.517090 0.771729

vt 0.517090 0.451660



vn 0.976471 -0.003922 0.207843

vn 0.984314 0.066667 0.113726

vn 0.984314 -0.066667 0.121569

vn 0.992157 0.074510 0.043137

vn 0.992157 -0.074510 0.043137

vn 0.968628 0.003922 -0.231372

vn 0.992157 0.058824 0.003922

vn 0.992157 -0.058823 -0.050980

vn -0.984314 -0.003922 -0.215686

vn -0.992157 0.058824 -0.129412

vn -0.992157 -0.074510 -0.121569

vn -1.000000 -0.082353 -0.050980

vn -1.000000 0.066667 -0.050980

vn -0.976471 -0.011765 0.223529

vn -1.000000 -0.066667 -0.011765

vn -1.000000 0.050980 0.043137

f 1/1/1 2/2/2 3/3/3

f 2/2/2 1/1/1 4/4/4

f 5/5/5 1/1/1 3/3/3

f 1/1/1 6/6/6 4/4/4

f 6/6/6 1/1/1 5/5/5

f 6/6/6 7/7/7 4/4/4

f 8/8/8 6/6/6 5/5/5

f 7/7/7 6/6/6 8/8/8

f 9/9/9 10/10/10 11/11/11

f 11/11/11 12/12/12 9/9/9

f 13/13/13 10/10/10 9/9/9

f 9/9/9 12/12/12 14/14/14

f 14/14/14 13/13/13 9/9/9

f 14/14/14 12/12/12 15/15/15

f 16/16/16 13/13/13 14/14/14

f 15/15/15 16/16/16 14/14/14

