# UnrealEd OBJ exporter (_Internal)



v 0.000000 -395.438599 44.006138

v 0.000000 -0.000063 44.006138

v 28.165672 -395.438599 -11.747838

v 0.000000 -0.000063 -44.006138

v 0.000000 -395.438599 -44.006138

v 28.740124 -395.438599 -11.747838

v 0.574453 -395.438599 -44.006138

v 0.574453 -0.000000 -44.006138

v 0.574453 -0.000000 44.006012

v 0.574453 -395.438599 44.006012



vt 0.915527 0.424316

vt 0.915039 0.763794

vt 0.961914 0.424316

vt 0.988770 0.763794

vt 0.988770 0.424316

vt 0.961914 0.424316

vt 0.988770 0.424316

vt 0.988770 0.763794

vt 0.915039 0.763794

vt 0.915527 0.424316



vn -0.898039 -0.003922 -0.450980

vn -1.000000 -0.066667 -0.035294

vn -1.000000 -0.011765 0.003922

vn -1.000000 -0.074510 0.019608

vn -0.756863 -0.003922 0.654902

vn 0.992157 0.003922 -0.011765

vn 0.749020 -0.003922 -0.662745

vn 0.992157 0.066667 -0.027451

vn 0.992157 0.058824 0.027451

vn 0.890196 -0.003922 0.443137

f 1/1/1 2/2/2 3/3/3

f 2/2/2 4/4/4 3/3/3

f 3/3/3 4/4/4 5/5/5

f 6/6/6 7/7/7 8/8/8

f 9/9/9 6/6/6 8/8/8

f 10/10/10 6/6/6 9/9/9

