# UnrealEd OBJ exporter (_Internal)



v 2.141724 -57.682838 -75.688530

v -9.501343 -99.835258 -236.845749

v -9.501343 99.835258 -236.845993

v -9.501343 -99.835258 236.845901

v 2.141724 -55.778023 77.154488

v -9.501343 99.835258 236.845657

v 1.437134 -57.682838 -75.688530

v -10.205933 99.835258 -236.845993

v -10.205933 -99.835258 -236.845749

v -10.205933 -99.835258 236.845901

v 1.437134 -55.778023 77.154488

v -10.205933 99.835258 236.845657



vt 0.913574 0.807739

vt 0.998535 0.785278

vt 0.998535 0.891174

vt 0.749512 0.785278

vt 0.833496 0.808716

vt 0.749512 0.891174

vt 0.913574 0.807739

vt 0.998535 0.891174

vt 0.998535 0.785278

vt 0.749512 0.785278

vt 0.833496 0.808716

vt 0.749512 0.891174



vn 0.992157 -0.011765 -0.011765

vn 0.992157 -0.043137 -0.066667

vn 0.992157 0.050980 -0.019608

vn 0.992157 -0.043137 0.058824

vn 0.992157 -0.011765 0.003922

vn 0.992157 0.050980 0.011765

vn -1.000000 0.003922 0.003922

vn -1.000000 -0.058823 0.011765

vn -1.000000 0.035294 0.058824

vn -1.000000 0.035294 -0.066667

vn -1.000000 0.003922 -0.011765

vn -1.000000 -0.058823 -0.019608

f 1/1/1 2/2/2 3/3/3

f 1/1/1 4/4/4 2/2/2

f 3/3/3 5/5/5 1/1/1

f 4/4/4 1/1/1 5/5/5

f 5/5/5 3/3/3 6/6/6

f 4/4/4 5/5/5 6/6/6

f 7/7/7 8/8/8 9/9/9

f 10/10/10 7/7/7 9/9/9

f 11/11/11 8/8/8 7/7/7

f 7/7/7 10/10/10 11/11/11

f 8/8/8 11/11/11 12/12/12

f 10/10/10 12/12/12 11/11/11

