# UnrealEd OBJ exporter (_Internal)



v -36.740379 23.286665 0.998117

v 36.747803 -23.286697 0.998107

v 36.747803 23.286665 0.998117

v -36.740379 -23.286697 0.998107

v 46.749805 33.271099 3.009104

v 37.780281 -24.246330 2.370575

v 46.749805 -33.271133 3.009092

v 37.780281 24.246344 2.370581

v -46.749680 33.271099 3.009104

v -46.749680 -33.271133 3.009092

v -37.772797 -24.246330 2.370575

v -37.772797 24.246344 2.370581

v 46.749805 33.271099 3.009104

v -37.772797 24.246344 2.370581

v 37.780281 24.246344 2.370581

v -46.749680 33.271099 3.009104

v -46.749680 -33.271133 3.009092

v 46.749805 -33.271133 3.009092

v -37.772797 -24.246330 2.370575

v 37.780281 -24.246330 2.370575

v -46.749680 33.271099 3.009104

v 46.749805 33.271099 3.009104

v 46.749802 33.271103 -1.702826

v -46.749802 33.271107 -1.702837

v -46.749680 33.271099 3.009104

v -46.749802 -33.271130 -1.702833

v -46.749680 -33.271133 3.009092

v -46.749802 33.271107 -1.702837

v -46.749680 -33.271133 3.009092

v 46.749802 -33.271133 -1.702829

v 46.749805 -33.271133 3.009092

v -46.749802 -33.271130 -1.702833

v 46.749805 33.271099 3.009104

v 46.749805 -33.271133 3.009092

v 46.749802 -33.271133 -1.702829

v 46.749802 33.271103 -1.702826

v 37.780281 -24.246330 2.370575

v 37.780281 24.246344 2.370581

v 36.747803 23.286665 0.998117

v 36.747803 -23.286697 0.998107

v -37.772797 -24.246330 2.370575

v 37.780281 -24.246330 2.370575

v 36.747803 -23.286697 0.998107

v -36.740379 -23.286697 0.998107

v -37.772797 -24.246330 2.370575

v -36.740379 23.286665 0.998117

v -37.772797 24.246344 2.370581

v -36.740379 -23.286697 0.998107

v -37.772797 24.246344 2.370581

v 36.747803 23.286665 0.998117

v 37.780281 24.246344 2.370581

v -36.740379 23.286665 0.998117

v -46.749802 -33.271130 -1.702833

v 46.749802 33.271103 -1.702826

v 46.749802 -33.271133 -1.702829

v -46.749802 33.271107 -1.702837



vt 0.767578 0.663818

vt 0.817383 0.632080

vt 0.817383 0.663818

vt 0.767578 0.632080

vt 0.823242 0.669678

vt 0.817383 0.631836

vt 0.823242 0.625977

vt 0.817383 0.664063

vt 0.761719 0.669678

vt 0.761719 0.625977

vt 0.767578 0.631836

vt 0.767578 0.664063

vt 0.823242 0.669678

vt 0.767578 0.664063

vt 0.817383 0.664063

vt 0.761719 0.669678

vt 0.761719 0.625977

vt 0.823242 0.625977

vt 0.767578 0.631836

vt 0.817383 0.631836

vt 0.761719 0.669678

vt 0.823242 0.669678

vt 0.823730 0.670166

vt 0.761230 0.670166

vt 0.761719 0.669678

vt 0.761230 0.625488

vt 0.761719 0.625977

vt 0.761230 0.670166

vt 0.761719 0.625977

vt 0.823730 0.625488

vt 0.823242 0.625977

vt 0.761230 0.625488

vt 0.823242 0.669678

vt 0.823242 0.625977

vt 0.823730 0.625488

vt 0.823730 0.670166

vt 0.817383 0.631836

vt 0.817383 0.664063

vt 0.817383 0.663818

vt 0.817383 0.632080

vt 0.767578 0.631836

vt 0.817383 0.631836

vt 0.817383 0.632080

vt 0.767578 0.632080

vt 0.767578 0.631836

vt 0.767578 0.663818

vt 0.767578 0.664063

vt 0.767578 0.632080

vt 0.767578 0.664063

vt 0.817383 0.663818

vt 0.817383 0.664063

vt 0.767578 0.663818

vt 0.823242 0.625977

vt 0.761719 0.669678

vt 0.761719 0.625977

vt 0.823242 0.669678



vn -0.003922 -0.003922 1.000000

vn -0.003922 -0.003922 1.000000

vn -0.003922 -0.003922 1.000000

vn -0.003922 -0.003922 1.000000

vn -0.043137 -0.043137 0.992157

vn -0.043137 0.027451 0.992157

vn -0.043137 0.035294 0.992157

vn -0.043137 -0.035294 0.992157

vn 0.035294 -0.043137 0.992157

vn 0.035294 0.035294 0.992157

vn 0.035294 0.027451 0.992157

vn 0.035294 -0.035294 0.992157

vn -0.043137 -0.043137 0.992157

vn 0.035294 -0.035294 0.992157

vn -0.043137 -0.035294 0.992157

vn 0.035294 -0.043137 0.992157

vn 0.035294 0.035294 0.992157

vn -0.043137 0.035294 0.992157

vn 0.035294 0.027451 0.992157

vn -0.043137 0.027451 0.992157

vn -0.003922 1.000000 -0.003922

vn -0.003922 1.000000 -0.003922

vn -0.003922 1.000000 -0.003922

vn -0.003922 1.000000 -0.003922

vn -1.000000 -0.003922 -0.003922

vn -1.000000 -0.003922 -0.003922

vn -1.000000 -0.003922 -0.003922

vn -1.000000 -0.003922 -0.003922

vn -0.003922 -1.000000 -0.003922

vn -0.003922 -1.000000 -0.003922

vn -0.003922 -1.000000 -0.003922

vn -0.003922 -1.000000 -0.003922

vn 1.000000 -0.003922 -0.003922

vn 1.000000 -0.003922 -0.003922

vn 1.000000 -0.003922 -0.003922

vn 1.000000 -0.003922 -0.003922

vn -0.803922 -0.003922 0.600000

vn -0.803922 -0.003922 0.600000

vn -0.803922 -0.003922 0.600000

vn -0.803922 -0.003922 0.600000

vn -0.003922 0.811765 0.568628

vn -0.003922 0.811765 0.568628

vn -0.003922 0.811765 0.568628

vn -0.003922 0.811765 0.568628

vn 0.796079 -0.003922 0.600000

vn 0.796079 -0.003922 0.600000

vn 0.796079 -0.003922 0.600000

vn 0.796079 -0.003922 0.600000

vn -0.003922 -0.819608 0.568628

vn -0.003922 -0.819608 0.568628

vn -0.003922 -0.819608 0.568628

vn -0.003922 -0.819608 0.568628

vn -0.003922 -0.003922 -1.000000

vn -0.003922 -0.003922 -1.000000

vn -0.003922 -0.003922 -1.000000

vn -0.003922 -0.003922 -1.000000

f 1/1/1 2/2/2 3/3/3

f 2/2/2 1/1/1 4/4/4

f 5/5/5 6/6/6 7/7/7

f 6/6/6 5/5/5 8/8/8

f 9/9/9 10/10/10 11/11/11

f 9/9/9 11/11/11 12/12/12

f 13/13/13 14/14/14 15/15/15

f 14/14/14 13/13/13 16/16/16

f 17/17/17 18/18/18 19/19/19

f 19/19/19 18/18/18 20/20/20

f 21/21/21 22/22/22 23/23/23

f 21/21/21 23/23/23 24/24/24

f 25/25/25 26/26/26 27/27/27

f 26/26/26 25/25/25 28/28/28

f 29/29/29 30/30/30 31/31/31

f 30/30/30 29/29/29 32/32/32

f 33/33/33 34/34/34 35/35/35

f 33/33/33 35/35/35 36/36/36

f 37/37/37 38/38/38 39/39/39

f 37/37/37 39/39/39 40/40/40

f 41/41/41 42/42/42 43/43/43

f 41/41/41 43/43/43 44/44/44

f 45/45/45 46/46/46 47/47/47

f 46/46/46 45/45/45 48/48/48

f 49/49/49 50/50/50 51/51/51

f 50/50/50 49/49/49 52/52/52

f 53/53/53 54/54/54 55/55/55

f 54/54/54 53/53/53 56/56/56

