# UnrealEd OBJ exporter (_Internal)



v -23.342945 36.888901 0.345284

v 23.342945 -36.881485 0.345276

v 23.342941 36.888962 0.345276

v -23.342941 -36.881485 0.345284

v -24.246338 37.780277 2.370586

v 33.271149 46.749802 3.009094

v -33.271091 46.749676 3.009098

v 24.246336 37.780281 2.370577

v 24.246338 -37.772820 2.370573

v 33.271149 46.749802 3.009094

v 33.271091 -46.749710 3.009094

v -33.271149 -46.749714 3.009098

v -33.271091 46.749676 3.009098

v -33.271088 46.749695 -1.796148

v -33.271088 -46.749817 -1.796148

v 33.271091 -46.749710 3.009094

v -33.271149 -46.749714 3.009098

v -33.271088 -46.749817 -1.796148

v 33.271088 -46.749813 -1.796152

v 33.271091 -46.749710 3.009094

v 33.271088 46.749699 -1.796152

v 33.271149 46.749802 3.009094

v 33.271088 -46.749813 -1.796152

v -33.271091 46.749676 3.009098

v 33.271149 46.749802 3.009094

v 33.271088 46.749699 -1.796152

v -33.271088 46.749695 -1.796148

v -24.246338 37.780277 2.370586

v 23.342941 36.888962 0.345276

v 24.246336 37.780281 2.370577

v -23.342945 36.888901 0.345284

v 24.246336 37.780281 2.370577

v 23.342945 -36.881485 0.345276

v 24.246338 -37.772820 2.370573

v 23.342941 36.888962 0.345276

v -24.246334 -37.772823 2.370586

v 24.246338 -37.772820 2.370573

v 23.342945 -36.881485 0.345276

v -23.342941 -36.881485 0.345284

v -24.246334 -37.772823 2.370586

v -23.342945 36.888901 0.345284

v -24.246338 37.780277 2.370586

v -23.342941 -36.881485 0.345284

v 33.271088 -46.749813 -1.796152

v -33.271088 46.749695 -1.796148

v 33.271088 46.749699 -1.796152

v -33.271088 -46.749817 -1.796148

v 33.271091 -46.749710 3.009094

v -24.246334 -37.772823 2.370586

v -33.271149 -46.749714 3.009098

v 24.246338 -37.772820 2.370573

v -33.271091 46.749676 3.009098

v -33.271149 -46.749714 3.009098

v -24.246338 37.780277 2.370586



vt 0.952637 0.694824

vt 0.991699 0.633301

vt 0.991699 0.694824

vt 0.952637 0.633301

vt 0.952148 0.695068

vt 0.999023 0.702148

vt 0.944824 0.702148

vt 0.992188 0.695068

vt 0.992188 0.633057

vt 0.999023 0.702148

vt 0.999023 0.625977

vt 0.944824 0.625977

vt 0.944824 0.702148

vt 0.944336 0.702881

vt 0.944336 0.625244

vt 0.999023 0.625977

vt 0.944824 0.625977

vt 0.944336 0.625244

vt 1.000000 0.625244

vt 0.999023 0.625977

vt 1.000000 0.702881

vt 0.999023 0.702148

vt 1.000000 0.625244

vt 0.944824 0.702148

vt 0.999023 0.702148

vt 1.000000 0.702881

vt 0.944336 0.702881

vt 0.952148 0.695068

vt 0.991699 0.694824

vt 0.992188 0.695068

vt 0.952637 0.694824

vt 0.992188 0.695068

vt 0.991699 0.633301

vt 0.992188 0.633057

vt 0.991699 0.694824

vt 0.952148 0.633057

vt 0.992188 0.633057

vt 0.991699 0.633301

vt 0.952637 0.633301

vt 0.952148 0.633057

vt 0.952637 0.694824

vt 0.952148 0.695068

vt 0.952637 0.633301

vt 0.944824 0.625977

vt 0.999023 0.702148

vt 0.944824 0.702148

vt 0.999023 0.625977

vt 0.999023 0.625977

vt 0.952148 0.633057

vt 0.944824 0.625977

vt 0.992188 0.633057

vt 0.944824 0.702148

vt 0.944824 0.625977

vt 0.952148 0.695068



vn -0.003922 -0.003922 1.000000

vn -0.003922 -0.003922 1.000000

vn -0.003922 -0.003922 1.000000

vn -0.003922 -0.003922 1.000000

vn 0.027451 -0.043137 0.992157

vn -0.043137 -0.043137 0.992157

vn 0.035294 -0.043137 0.992157

vn -0.035294 -0.043137 0.992157

vn -0.035294 0.035294 0.992157

vn -0.043137 -0.043137 0.992157

vn -0.043137 0.035294 0.992157

vn -1.000000 -0.003922 -0.003922

vn -1.000000 -0.003922 -0.003922

vn -1.000000 -0.003922 -0.003922

vn -1.000000 -0.003922 -0.003922

vn -0.003922 -1.000000 -0.003922

vn -0.003922 -1.000000 -0.003922

vn -0.003922 -1.000000 -0.003922

vn -0.003922 -1.000000 -0.003922

vn 1.000000 -0.003922 -0.003922

vn 1.000000 -0.003922 -0.003922

vn 1.000000 -0.003922 -0.003922

vn 1.000000 -0.003922 -0.003922

vn -0.003922 1.000000 -0.003922

vn -0.003922 1.000000 -0.003922

vn -0.003922 1.000000 -0.003922

vn -0.003922 1.000000 -0.003922

vn -0.003922 -0.921569 0.396078

vn -0.003922 -0.921569 0.396078

vn -0.003922 -0.921569 0.396078

vn -0.003922 -0.921569 0.396078

vn -0.913725 -0.003922 0.403922

vn -0.913725 -0.003922 0.403922

vn -0.913725 -0.003922 0.403922

vn -0.913725 -0.003922 0.403922

vn -0.003922 0.913726 0.396078

vn -0.003922 0.913726 0.396078

vn -0.003922 0.913726 0.396078

vn -0.003922 0.913726 0.396078

vn 0.905882 -0.003922 0.403922

vn 0.905882 -0.003922 0.403922

vn 0.905882 -0.003922 0.403922

vn 0.905882 -0.003922 0.403922

vn -0.003922 -0.003922 -1.000000

vn -0.003922 -0.003922 -1.000000

vn -0.003922 -0.003922 -1.000000

vn -0.003922 -0.003922 -1.000000

vn -0.043137 0.035294 0.992157

vn 0.027451 0.035294 0.992157

vn 0.035294 0.035294 0.992157

vn -0.035294 0.035294 0.992157

vn 0.035294 -0.043137 0.992157

vn 0.035294 0.035294 0.992157

vn 0.027451 -0.043137 0.992157

f 1/1/1 2/2/2 3/3/3

f 2/2/2 1/1/1 4/4/4

f 5/5/5 6/6/6 7/7/7

f 6/6/6 5/5/5 8/8/8

f 9/9/9 10/10/10 8/8/8

f 10/10/10 9/9/9 11/11/11

f 12/12/12 13/13/13 14/14/14

f 12/12/12 14/14/14 15/15/15

f 16/16/16 17/17/17 18/18/18

f 16/16/16 18/18/18 19/19/19

f 20/20/20 21/21/21 22/22/22

f 21/21/21 20/20/20 23/23/23

f 24/24/24 25/25/25 26/26/26

f 24/24/24 26/26/26 27/27/27

f 28/28/28 29/29/29 30/30/30

f 29/29/29 28/28/28 31/31/31

f 32/32/32 33/33/33 34/34/34

f 33/33/33 32/32/32 35/35/35

f 36/36/36 37/37/37 38/38/38

f 36/36/36 38/38/38 39/39/39

f 40/40/40 41/41/41 42/42/42

f 41/41/41 40/40/40 43/43/43

f 44/44/44 45/45/45 46/46/46

f 45/45/45 44/44/44 47/47/47

f 48/48/48 49/49/49 50/50/50

f 49/49/49 48/48/48 51/51/51

f 49/49/49 52/52/52 53/53/53

f 52/52/52 49/49/49 54/54/54

