# UnrealEd OBJ exporter (_Internal)



v -10.552246 -301.236969 168.014648

v -10.552246 -301.236969 -0.000000

v 2.372314 -80.378204 -0.000000

v -10.552246 0.608673 168.014648

v 0.000000 -0.000000 -0.000000

v -12.369873 0.608673 168.014648

v -1.817627 -0.000000 -0.000000

v 0.554688 -80.378204 -0.000000

v -12.369873 -301.236969 168.014648

v -12.369873 -301.236969 -0.000000

v 2.372314 -80.378204 -0.000000

v -10.552246 -301.236969 -0.000000

v -10.552002 -301.236969 -168.014648

v -10.552002 0.608673 -168.014648

v 0.000000 -0.000000 -0.000000

v 0.554688 -80.378204 -0.000000

v -12.369629 -301.236969 -168.014648

v -12.369873 -301.236969 -0.000000

v -12.369629 0.608673 -168.014648

v -1.817627 -0.000000 -0.000000



vt 0.151489 0.004883

vt 0.289307 0.004883

vt 0.289063 0.187500

vt 0.151367 0.253906

vt 0.289063 0.253906

vt 0.151367 0.253906

vt 0.289063 0.253906

vt 0.289063 0.187500

vt 0.151489 0.004883

vt 0.289307 0.004883

vt 0.289063 0.187500

vt 0.289307 0.004883

vt 0.151489 0.004883

vt 0.151367 0.253906

vt 0.289063 0.253906

vt 0.289063 0.187500

vt 0.151489 0.004883

vt 0.289307 0.004883

vt 0.151367 0.253906

vt 0.289063 0.253906



vn 0.992157 -0.027451 0.043137

vn 0.992157 -0.027451 -0.003922

vn 0.992157 -0.027451 -0.003922

vn 0.992157 -0.027451 0.043137

vn 0.992157 0.027451 -0.003922

vn -1.000000 0.019608 -0.050980

vn -1.000000 -0.035294 -0.003922

vn -1.000000 0.019608 -0.003922

vn -1.000000 0.019608 -0.050980

vn -1.000000 0.019608 -0.003922

vn 0.992157 -0.027451 -0.003922

vn 0.992157 -0.027451 -0.003922

vn 0.992157 -0.027451 -0.050980

vn 0.992157 -0.027451 -0.050980

vn 0.992157 0.027451 -0.003922

vn -1.000000 0.019608 -0.003922

vn -1.000000 0.019608 0.043137

vn -1.000000 0.019608 -0.003922

vn -1.000000 0.019608 0.043137

vn -1.000000 -0.035294 -0.003922

f 1/1/1 2/2/2 3/3/3

f 4/4/4 1/1/1 3/3/3

f 4/4/4 3/3/3 5/5/5

f 6/6/6 7/7/7 8/8/8

f 6/6/6 8/8/8 9/9/9

f 9/9/9 8/8/8 10/10/10

f 11/11/11 12/12/12 13/13/13

f 13/13/13 14/14/14 11/11/11

f 11/11/11 14/14/14 15/15/15

f 16/16/16 17/17/17 18/18/18

f 17/17/17 16/16/16 19/19/19

f 16/16/16 20/20/20 19/19/19

