# UnrealEd OBJ exporter (_Internal)



v -7.010271 53.945114 0.932373

v 3.996898 54.099884 -6.167542

v -4.539034 55.373642 -6.498535

v -4.602014 52.473923 7.150635

v 7.243260 52.494247 0.612000

v 3.201752 51.881805 7.625549

v 7.243260 52.494247 0.612000

v 4.793115 49.768234 -7.014099

v 3.996898 54.099884 -6.167542

v 8.382161 48.908737 0.827148

v 4.874633 12.607666 -8.195618

v 3.201752 51.881805 7.625549

v 9.185800 12.517426 1.117981

v 3.116778 47.241089 8.035278

v 10.873278 6.567490 1.260254

v 5.925787 6.915314 -9.364258

v 4.169221 12.326279 8.195190

v 14.902920 0.771515 1.889465

v 8.792425 0.834961 -12.398132

v 5.025086 6.613419 10.362183

v 6.921335 0.676559 13.416931

v -7.347952 0.981674 13.428833

v -5.148424 12.332367 8.044067

v -6.275913 6.650055 10.003418

v -14.490461 1.062195 0.780884

v -5.103590 48.141006 7.288574

v -4.602014 52.473923 7.150635

v -11.226774 6.575928 0.249878

v -9.048242 12.308258 0.596924

v -8.078617 50.487259 0.465942

v -7.010271 53.945114 0.932373

v -4.539034 55.373642 -6.498535

v -4.287632 12.473862 -7.504639

v -4.464841 50.737854 -7.224426

v 3.996898 54.099884 -6.167542

v 4.793115 49.768234 -7.014099

v 4.874633 12.607666 -8.195618

v 5.925787 6.915314 -9.364258

v -5.197519 6.374817 -8.776917

v -7.474210 0.553696 -12.574707

v 8.792425 0.834961 -12.398132



vt 0.343994 0.389160

vt 0.346191 0.379395

vt 0.348877 0.385254

vt 0.338867 0.389160

vt 0.340332 0.378906

vt 0.336426 0.383789

vt 0.381592 0.383301

vt 0.388672 0.381348

vt 0.387939 0.384766

vt 0.381836 0.380371

vt 0.391113 0.352051

vt 0.374756 0.382324

vt 0.383057 0.351074

vt 0.374756 0.378906

vt 0.383545 0.346680

vt 0.391602 0.347656

vt 0.376221 0.350586

vt 0.383789 0.342285

vt 0.392822 0.343262

vt 0.376465 0.346191

vt 0.376465 0.342285

vt 0.369385 0.342285

vt 0.368652 0.350586

vt 0.368652 0.346191

vt 0.361572 0.342285

vt 0.368164 0.379395

vt 0.368164 0.382813

vt 0.361328 0.345703

vt 0.361816 0.350586

vt 0.362305 0.380859

vt 0.362549 0.383789

vt 0.355957 0.384766

vt 0.354248 0.351074

vt 0.355713 0.381348

vt 0.349365 0.384277

vt 0.348389 0.380859

vt 0.347412 0.351563

vt 0.346436 0.348145

vt 0.353760 0.346191

vt 0.352783 0.341797

vt 0.343994 0.344727



vn -0.333333 0.921569 0.168628

vn 0.309804 0.898039 -0.309804

vn -0.176471 0.945098 -0.278431

vn -0.168627 0.819608 0.529412

vn 0.505883 0.843137 0.152941

vn 0.270588 0.788235 0.545098

vn 0.505883 0.843137 0.152941

vn 0.498039 0.035294 -0.866667

vn 0.309804 0.898039 -0.309804

vn 0.992157 0.035294 0.027451

vn 0.513726 0.058824 -0.858824

vn 0.270588 0.788235 0.545098

vn 0.992157 0.066667 0.066667

vn 0.435294 0.027451 0.898039

vn 0.874510 0.474510 0.043137

vn 0.450980 0.482353 -0.756863

vn 0.435294 0.074510 0.890196

vn 0.819608 0.560784 0.058824

vn 0.458824 0.576471 -0.670588

vn 0.388235 0.474510 0.780392

vn 0.396078 0.545098 0.733333

vn -0.396078 0.521569 0.749020

vn -0.537255 0.082353 0.843137

vn -0.466667 0.466667 0.741177

vn -0.850980 0.521569 -0.011765

vn -0.592157 0.019608 0.803922

vn -0.168627 0.819608 0.529412

vn -0.890196 0.458824 -0.066667

vn -1.000000 0.066667 -0.058823

vn -1.000000 0.027451 -0.105882

vn -0.333333 0.921569 0.168628

vn -0.176471 0.945098 -0.278431

vn -0.521569 0.058824 -0.858824

vn -0.529412 0.035294 -0.850980

vn 0.309804 0.898039 -0.309804

vn 0.498039 0.035294 -0.866667

vn 0.513726 0.058824 -0.858824

vn 0.450980 0.482353 -0.756863

vn -0.443137 0.450980 -0.780392

vn -0.403922 0.537255 -0.741176

vn 0.458824 0.576471 -0.670588

f 1/1/1 2/2/2 3/3/3

f 2/2/2 1/1/1 4/4/4

f 4/4/4 5/5/5 2/2/2

f 5/5/5 4/4/4 6/6/6

f 7/7/7 8/8/8 9/9/9

f 10/10/10 8/8/8 7/7/7

f 10/10/10 11/11/11 8/8/8

f 12/12/12 10/10/10 7/7/7

f 11/11/11 10/10/10 13/13/13

f 10/10/10 12/12/12 14/14/14

f 14/14/14 13/13/13 10/10/10

f 15/15/15 11/11/11 13/13/13

f 11/11/11 15/15/15 16/16/16

f 13/13/13 14/14/14 17/17/17

f 17/17/17 15/15/15 13/13/13

f 16/16/16 18/18/18 19/19/19

f 18/18/18 16/16/16 15/15/15

f 20/20/20 18/18/18 15/15/15

f 15/15/15 17/17/17 20/20/20

f 18/18/18 20/20/20 21/21/21

f 20/20/20 22/22/22 21/21/21

f 23/23/23 20/20/20 17/17/17

f 14/14/14 23/23/23 17/17/17

f 20/20/20 24/24/24 22/22/22

f 20/20/20 23/23/23 24/24/24

f 25/25/25 22/22/22 24/24/24

f 26/26/26 23/23/23 14/14/14

f 12/12/12 26/26/26 14/14/14

f 12/12/12 27/27/27 26/26/26

f 24/24/24 23/23/23 28/28/28

f 24/24/24 28/28/28 25/25/25

f 26/26/26 29/29/29 23/23/23

f 23/23/23 29/29/29 28/28/28

f 27/27/27 30/30/30 26/26/26

f 29/29/29 26/26/26 30/30/30

f 30/30/30 27/27/27 31/31/31

f 32/32/32 30/30/30 31/31/31

f 33/33/33 28/28/28 29/29/29

f 30/30/30 33/33/33 29/29/29

f 30/30/30 32/32/32 34/34/34

f 33/33/33 30/30/30 34/34/34

f 35/35/35 34/34/34 32/32/32

f 34/34/34 35/35/35 36/36/36

f 36/36/36 33/33/33 34/34/34

f 33/33/33 36/36/36 37/37/37

f 38/38/38 33/33/33 37/37/37

f 28/28/28 33/33/33 39/39/39

f 38/38/38 39/39/39 33/33/33

f 39/39/39 25/25/25 28/28/28

f 25/25/25 39/39/39 40/40/40

f 38/38/38 40/40/40 39/39/39

f 40/40/40 38/38/38 41/41/41

