# UnrealEd OBJ exporter (_Internal)



v 0.000000 11.376531 3.190308

v 0.000000 6.406291 5.104553

v 3.308856 11.376531 -0.118530

v 5.223105 6.406291 -0.118530

v 0.000000 0.000000 10.910248

v 0.000000 0.000000 -11.147308

v 11.410653 0.000000 -0.118530

v -11.410653 0.000000 -0.118530

v 0.000000 6.406290 -5.341583

v 3.308856 11.376531 -0.118530

v 5.223105 6.406291 -0.118530

v 0.000000 11.376531 -3.427429

v 0.000000 0.000000 10.910248

v 5.223105 6.406291 -0.118530

v 0.000000 6.406291 5.104553

v 11.410653 0.000000 -0.118530

v 11.410653 0.000000 -0.118530

v 0.000000 0.000000 -11.147308

v 5.223105 6.406291 -0.118530

v 0.000000 6.406290 -5.341583

v 0.000000 48.288963 7.594849

v 4.724483 44.854046 -0.118530

v 7.713424 48.288963 -0.118530

v 0.000000 44.854046 4.605957

v 0.000000 44.854046 -4.842987

v 0.000000 48.288963 -7.831940

v 4.724483 44.854046 -0.118530

v 7.713424 48.288963 -0.118530

v 0.000000 44.854046 4.605957

v 2.981208 40.392651 -0.118500

v 4.724483 44.854046 -0.118530

v 0.000000 40.392651 2.862701

v 0.000000 40.392651 -3.099731

v 0.000000 44.854046 -4.842987

v 2.981208 40.392651 -0.118500

v 4.724483 44.854046 -0.118530

v 2.224192 36.505310 -0.118530

v 0.000000 14.923017 2.818848

v 2.937421 14.923017 -0.118530

v 0.000000 36.505310 2.105652

v 0.000000 14.923017 -3.055939

v 2.224192 36.505310 -0.118530

v 2.937421 14.923017 -0.118530

v 0.000000 36.505310 -2.342712

v 0.000000 13.400725 5.457764

v 5.576314 13.400725 -0.118530

v 2.937421 14.923017 -0.118530

v 0.000000 14.923017 2.818848

v 0.000000 13.400725 -5.694824

v 2.937421 14.923017 -0.118530

v 5.576314 13.400725 -0.118530

v 0.000000 14.923017 -3.055939

v 0.000000 13.400725 5.457764

v 3.308856 11.376531 -0.118530

v 5.576314 13.400725 -0.118530

v 0.000000 11.376531 3.190308

v 5.576314 13.400725 -0.118530

v 0.000000 11.376531 -3.427429

v 0.000000 13.400725 -5.694824

v 3.308856 11.376531 -0.118530

v 0.000000 38.595901 4.469849

v 2.224192 36.505310 -0.118530

v 4.588367 38.595901 -0.118530

v 0.000000 36.505310 2.105652

v 4.588367 38.595901 -0.118530

v 0.000000 36.505310 -2.342712

v 0.000000 38.595901 -4.706940

v 2.224192 36.505310 -0.118530

v 0.000000 38.595901 4.469849

v 4.588367 38.595901 -0.118530

v 0.000000 40.392651 2.862701

v 2.981208 40.392651 -0.118500

v 4.588367 38.595901 -0.118530

v 0.000000 40.392651 -3.099731

v 2.981208 40.392651 -0.118500

v 0.000000 38.595901 -4.706940

v 0.000000 6.406291 -5.341614

v -5.223105 6.406291 -0.118530

v -3.308856 11.376531 -0.118530

v 0.000000 11.376531 -3.427368

v -3.308856 11.376531 -0.118530

v 0.000000 6.406290 5.104523

v 0.000000 11.376531 3.190369

v -5.223105 6.406291 -0.118530

v 0.000000 0.000000 -11.147308

v -5.223105 6.406291 -0.118530

v 0.000000 6.406291 -5.341614

v -11.410653 0.000000 -0.118530

v -5.223105 6.406291 -0.118530

v -0.000000 0.000000 10.910248

v 0.000000 6.406290 5.104523

v -11.410653 0.000000 -0.118530

v -4.724483 44.854046 -0.118530

v 0.000000 48.288963 -7.831909

v 0.000000 44.854046 -4.843018

v -7.713424 48.288963 -0.118530

v 0.000000 48.288963 7.594879

v -7.713424 48.288963 -0.118530

v -4.724483 44.854046 -0.118530

v 0.000000 44.854046 4.605927

v -2.981208 40.392651 -0.118561

v 0.000000 44.854046 -4.843018

v 0.000000 40.392651 -3.099762

v -4.724483 44.854046 -0.118530

v 0.000000 44.854046 4.605927

v -4.724483 44.854046 -0.118530

v -2.981208 40.392651 -0.118561

v 0.000000 40.392651 2.862671

v 0.000000 14.923017 -3.055908

v -2.224192 36.505310 -0.118530

v 0.000000 36.505310 -2.342712

v -2.937421 14.923017 -0.118530

v -2.224192 36.505310 -0.118530

v 0.000000 14.923017 2.818878

v 0.000000 36.505310 2.105652

v -2.937421 14.923017 -0.118530

v 0.000000 13.400725 -5.694824

v -5.576314 13.400725 -0.118530

v -2.937421 14.923017 -0.118530

v 0.000000 14.923017 -3.055908

v -2.937421 14.923017 -0.118530

v 0.000000 13.400725 5.457764

v 0.000000 14.923017 2.818878

v -5.576314 13.400725 -0.118530

v 0.000000 13.400725 -5.694824

v -3.308856 11.376531 -0.118530

v -5.576314 13.400725 -0.118530

v 0.000000 11.376531 -3.427368

v -5.576314 13.400725 -0.118530

v 0.000000 11.376531 3.190369

v 0.000000 13.400725 5.457764

v -3.308856 11.376531 -0.118530

v -2.224192 36.505310 -0.118530

v 0.000000 38.595901 -4.706909

v 0.000000 36.505310 -2.342712

v -4.588367 38.595901 -0.118530

v -4.588367 38.595901 -0.118530

v 0.000000 36.505310 2.105652

v 0.000000 38.595901 4.469879

v -2.224192 36.505310 -0.118530

v -4.588367 38.595901 -0.118530

v 0.000000 40.392651 -3.099762

v 0.000000 38.595901 -4.706909

v -2.981208 40.392651 -0.118561

v -4.588367 38.595901 -0.118530

v 0.000000 40.392651 2.862671

v -2.981208 40.392651 -0.118561

v 0.000000 38.595901 4.469879

v -0.342377 51.040287 9.726929

v -8.587646 51.040287 4.571228

v -8.587646 48.646450 4.571228

v -0.342377 48.646450 9.726929

v 0.000031 45.988354 0.008484

v 8.245270 51.040287 5.164246

v -0.342377 51.040287 9.726929

v -0.342377 48.646450 9.726929

v 8.245270 48.646450 5.164246

v 0.000031 45.988354 0.008484

v 8.587708 51.040287 -4.554321

v 8.245270 51.040287 5.164246

v 8.245270 48.646450 5.164246

v 8.587708 48.646450 -4.554321

v 0.000031 45.988354 0.008484

v -3.663862 82.338707 0.326630

v 2.082399 82.430046 -3.379883

v -2.373760 83.181793 -3.552673

v -2.406638 81.470436 3.572845

v 3.777154 81.482430 0.159363

v 1.667296 81.120972 3.820770

v 8.587708 48.646450 -4.554321

v 0.342407 51.040287 -9.710022

v 8.587708 51.040287 -4.554321

v 0.342407 48.646450 -9.710022

v 0.000031 45.988354 0.008484

v 0.342407 48.646450 -9.710022

v -8.245209 51.040287 -5.147339

v 0.342407 51.040287 -9.710022

v -8.245209 48.646450 -5.147339

v 0.000031 45.988354 0.008484

v -8.245209 48.646450 -5.147339

v -8.587646 51.040287 4.571228

v -8.245209 51.040287 -5.147339

v -8.587646 48.646450 4.571228

v 0.000031 45.988354 0.008484

v 0.342407 51.040287 -9.710022

v 8.245270 51.040287 5.164246

v 8.587708 51.040287 -4.554321

v -8.245209 51.040287 -5.147339

v -0.342377 51.040287 9.726929

v -8.587646 51.040287 4.571228

v 3.777154 81.482430 0.159363

v 2.498062 79.873581 -3.821808

v 2.082399 82.430046 -3.379883

v 4.371714 79.366325 0.271698

v 2.540618 57.942066 -4.438629

v 1.667296 81.120972 3.820770

v 4.791251 57.888809 0.423523

v 1.622936 78.382111 4.034668

v 5.672194 54.377262 0.497803

v 3.089370 54.582542 -5.048706

v 2.172360 57.775997 4.118164

v 7.775857 50.956577 0.826263

v 4.585891 50.994022 -6.632538

v 2.619162 54.404366 5.249420

v 3.609094 50.900536 6.844147

v -3.840147 51.080612 6.850372

v -2.691890 57.779591 4.039246

v -3.280492 54.425991 5.062134

v -7.568874 51.128132 0.247528

v -2.668484 78.913223 3.644867

v -2.406638 81.470436 3.572845

v -5.865075 54.382240 -0.029663

v -4.727778 57.765362 0.151489

v -4.221589 80.297943 0.083130

v -3.663862 82.338707 0.326630

v -2.373760 83.181793 -3.552673

v -2.242516 57.863098 -4.077911

v -2.335027 80.445839 -3.931610

v 2.082399 82.430046 -3.379883

v 2.498062 79.873581 -3.821808

v 2.540618 57.942066 -4.438629

v 3.089370 54.582542 -5.048706

v -2.717520 54.263550 -4.742096

v 4.585891 50.994022 -6.632538

v -3.906060 50.828026 -6.724701



vt 0.786621 0.273926

vt 0.785645 0.270508

vt 0.790039 0.273926

vt 0.791016 0.270508

vt 0.729980 0.261719

vt 0.741699 0.250488

vt 0.741699 0.261719

vt 0.729980 0.250488

vt 0.772949 0.269531

vt 0.768555 0.272949

vt 0.767578 0.269531

vt 0.771973 0.272949

vt 0.782715 0.264648

vt 0.791016 0.270508

vt 0.785645 0.270508

vt 0.793945 0.264648

vt 0.764648 0.263672

vt 0.775879 0.263672

vt 0.767578 0.269531

vt 0.772949 0.269531

vt 0.784180 0.303223

vt 0.790039 0.300293

vt 0.791992 0.303223

vt 0.785156 0.300293

vt 0.771973 0.298828

vt 0.773438 0.302246

vt 0.767090 0.298828

vt 0.765625 0.302246

vt 0.785156 0.300293

vt 0.789551 0.296875

vt 0.790039 0.300293

vt 0.786133 0.296875

vt 0.771484 0.295898

vt 0.771973 0.298828

vt 0.768066 0.295898

vt 0.767090 0.298828

vt 0.789063 0.292969

vt 0.786621 0.277832

vt 0.789551 0.277832

vt 0.787109 0.292969

vt 0.771484 0.276367

vt 0.768555 0.291992

vt 0.768555 0.276367

vt 0.770996 0.291992

vt 0.785156 0.275879

vt 0.791016 0.275879

vt 0.789551 0.277832

vt 0.786621 0.277832

vt 0.772949 0.274902

vt 0.768555 0.276367

vt 0.767090 0.274902

vt 0.771484 0.276367

vt 0.785156 0.275879

vt 0.790039 0.273926

vt 0.791016 0.275879

vt 0.786621 0.273926

vt 0.767090 0.274902

vt 0.771973 0.272949

vt 0.772949 0.274902

vt 0.768555 0.272949

vt 0.785645 0.294922

vt 0.789063 0.292969

vt 0.790039 0.294922

vt 0.787109 0.292969

vt 0.767578 0.293945

vt 0.770996 0.291992

vt 0.771973 0.293945

vt 0.768555 0.291992

vt 0.785645 0.294922

vt 0.790039 0.294922

vt 0.786133 0.296875

vt 0.789551 0.296875

vt 0.767578 0.293945

vt 0.771484 0.295898

vt 0.768066 0.295898

vt 0.771973 0.293945

vt 0.785645 0.270508

vt 0.791016 0.270508

vt 0.790039 0.273926

vt 0.786621 0.273926

vt 0.768555 0.272949

vt 0.772949 0.269531

vt 0.771973 0.272949

vt 0.767578 0.269531

vt 0.782715 0.264648

vt 0.791016 0.270508

vt 0.785645 0.270508

vt 0.793945 0.264648

vt 0.767578 0.269531

vt 0.775879 0.263672

vt 0.772949 0.269531

vt 0.764648 0.263672

vt 0.790039 0.300293

vt 0.784180 0.303223

vt 0.785156 0.300293

vt 0.791992 0.303223

vt 0.773438 0.302246

vt 0.765625 0.302246

vt 0.767090 0.298828

vt 0.771973 0.298828

vt 0.789551 0.296875

vt 0.785156 0.300293

vt 0.786133 0.296875

vt 0.790039 0.300293

vt 0.771973 0.298828

vt 0.767090 0.298828

vt 0.768066 0.295898

vt 0.771484 0.295898

vt 0.786621 0.277832

vt 0.789063 0.292969

vt 0.787109 0.292969

vt 0.789551 0.277832

vt 0.768555 0.291992

vt 0.771484 0.276367

vt 0.770996 0.291992

vt 0.768555 0.276367

vt 0.785156 0.275879

vt 0.791016 0.275879

vt 0.789551 0.277832

vt 0.786621 0.277832

vt 0.768555 0.276367

vt 0.772949 0.274902

vt 0.771484 0.276367

vt 0.767090 0.274902

vt 0.785156 0.275879

vt 0.790039 0.273926

vt 0.791016 0.275879

vt 0.786621 0.273926

vt 0.767090 0.274902

vt 0.771973 0.272949

vt 0.772949 0.274902

vt 0.768555 0.272949

vt 0.789063 0.292969

vt 0.785645 0.294922

vt 0.787109 0.292969

vt 0.790039 0.294922

vt 0.767578 0.293945

vt 0.770996 0.291992

vt 0.771973 0.293945

vt 0.768555 0.291992

vt 0.790039 0.294922

vt 0.786133 0.296875

vt 0.785645 0.294922

vt 0.789551 0.296875

vt 0.767578 0.293945

vt 0.771484 0.295898

vt 0.768066 0.295898

vt 0.771973 0.293945

vt 0.470703 0.498535

vt 0.457275 0.498535

vt 0.457275 0.495605

vt 0.470703 0.495605

vt 0.463867 0.489258

vt 0.484375 0.498535

vt 0.470947 0.498535

vt 0.470947 0.495605

vt 0.484375 0.495605

vt 0.477783 0.489258

vt 0.498047 0.498535

vt 0.484619 0.498535

vt 0.484619 0.495605

vt 0.498047 0.495605

vt 0.491455 0.489258

vt 0.343994 0.389160

vt 0.346191 0.379395

vt 0.348877 0.385254

vt 0.338867 0.389160

vt 0.340332 0.378906

vt 0.336426 0.383789

vt 0.457275 0.495605

vt 0.470703 0.498535

vt 0.457275 0.498535

vt 0.470703 0.495605

vt 0.463867 0.489258

vt 0.470947 0.495605

vt 0.484375 0.498535

vt 0.470947 0.498535

vt 0.484375 0.495605

vt 0.477783 0.489258

vt 0.484619 0.495605

vt 0.498047 0.498535

vt 0.484619 0.498535

vt 0.498047 0.495605

vt 0.491455 0.489258

vt 0.453125 0.443359

vt 0.464355 0.463379

vt 0.452881 0.456543

vt 0.464600 0.437012

vt 0.476074 0.457031

vt 0.476318 0.443359

vt 0.381592 0.383301

vt 0.388672 0.381348

vt 0.387939 0.384766

vt 0.381836 0.380371

vt 0.391113 0.352051

vt 0.374756 0.382324

vt 0.383057 0.351074

vt 0.374756 0.378906

vt 0.383545 0.346680

vt 0.391602 0.347656

vt 0.376221 0.350586

vt 0.383789 0.342285

vt 0.392822 0.343262

vt 0.376465 0.346191

vt 0.376465 0.342285

vt 0.369385 0.342285

vt 0.368652 0.350586

vt 0.368652 0.346191

vt 0.361572 0.342285

vt 0.368164 0.379395

vt 0.368164 0.382813

vt 0.361328 0.345703

vt 0.361816 0.350586

vt 0.362305 0.380859

vt 0.362549 0.383789

vt 0.355957 0.384766

vt 0.354248 0.351074

vt 0.355713 0.381348

vt 0.349365 0.384277

vt 0.348389 0.380859

vt 0.347412 0.351563

vt 0.346436 0.348145

vt 0.353760 0.346191

vt 0.343994 0.344727

vt 0.352783 0.341797



vn 0.678432 0.262745 0.678432

vn 0.678432 0.262745 0.678432

vn 0.678432 0.262745 0.678432

vn 0.678432 0.262745 0.678432

vn -0.003922 -1.000000 -0.003922

vn -0.003922 -1.000000 -0.003922

vn -0.003922 -1.000000 -0.003922

vn -0.003922 -1.000000 -0.003922

vn 0.678432 0.262745 -0.686275

vn 0.678432 0.262745 -0.686275

vn 0.678432 0.262745 -0.686275

vn 0.678432 0.262745 -0.686275

vn 0.576471 0.545098 0.592157

vn 0.576471 0.545098 0.592157

vn 0.576471 0.545098 0.592157

vn 0.576471 0.545098 0.592157

vn 0.576471 0.545098 -0.600000

vn 0.576471 0.545098 -0.600000

vn 0.576471 0.545098 -0.600000

vn 0.576471 0.545098 -0.600000

vn 0.600000 -0.529412 0.600000

vn 0.600000 -0.529412 0.600000

vn 0.600000 -0.529412 0.600000

vn 0.600000 -0.529412 0.600000

vn 0.600000 -0.529412 -0.607843

vn 0.600000 -0.529412 -0.607843

vn 0.600000 -0.529412 -0.607843

vn 0.600000 -0.529412 -0.607843

vn 0.678432 -0.270588 0.678432

vn 0.678432 -0.270588 0.678432

vn 0.678432 -0.270588 0.678432

vn 0.678432 -0.270588 0.678432

vn 0.678432 -0.270588 -0.686275

vn 0.678432 -0.270588 -0.686275

vn 0.678432 -0.270588 -0.686275

vn 0.678432 -0.270588 -0.686275

vn 0.701961 0.019608 0.701961

vn 0.701961 0.019608 0.701961

vn 0.701961 0.019608 0.701961

vn 0.701961 0.019608 0.701961

vn 0.701961 0.019608 -0.709804

vn 0.701961 0.019608 -0.709804

vn 0.701961 0.019608 -0.709804

vn 0.701961 0.019608 -0.709804

vn 0.443137 0.772549 0.443137

vn 0.443137 0.772549 0.443137

vn 0.443137 0.772549 0.443137

vn 0.443137 0.772549 0.443137

vn 0.443137 0.772549 -0.450980

vn 0.443137 0.772549 -0.450980

vn 0.443137 0.772549 -0.450980

vn 0.443137 0.772549 -0.450980

vn 0.552941 -0.623529 0.552941

vn 0.552941 -0.623529 0.552941

vn 0.552941 -0.623529 0.552941

vn 0.552941 -0.623529 0.552941

vn 0.552941 -0.623529 -0.560784

vn 0.552941 -0.623529 -0.560784

vn 0.552941 -0.623529 -0.560784

vn 0.552941 -0.623529 -0.560784

vn 0.545098 -0.631373 0.545098

vn 0.545098 -0.631373 0.545098

vn 0.545098 -0.631373 0.545098

vn 0.545098 -0.631373 0.545098

vn 0.545098 -0.631373 -0.552941

vn 0.545098 -0.631373 -0.552941

vn 0.545098 -0.631373 -0.552941

vn 0.545098 -0.631373 -0.552941

vn 0.592157 0.529412 0.592157

vn 0.592157 0.529412 0.592157

vn 0.592157 0.529412 0.592157

vn 0.592157 0.529412 0.592157

vn 0.592157 0.529412 -0.600000

vn 0.592157 0.529412 -0.600000

vn 0.592157 0.529412 -0.600000

vn 0.592157 0.529412 -0.600000

vn -0.686275 0.262745 -0.686275

vn -0.686275 0.262745 -0.686275

vn -0.686275 0.262745 -0.686275

vn -0.686275 0.262745 -0.686275

vn -0.686275 0.262745 0.678432

vn -0.686275 0.262745 0.678432

vn -0.686275 0.262745 0.678432

vn -0.686275 0.262745 0.678432

vn -0.584314 0.545098 -0.600000

vn -0.584314 0.545098 -0.600000

vn -0.584314 0.545098 -0.600000

vn -0.584314 0.545098 -0.600000

vn -0.584314 0.545098 0.592157

vn -0.584314 0.545098 0.592157

vn -0.584314 0.545098 0.592157

vn -0.584314 0.545098 0.592157

vn -0.607843 -0.529412 -0.607843

vn -0.607843 -0.529412 -0.607843

vn -0.607843 -0.529412 -0.607843

vn -0.607843 -0.529412 -0.607843

vn -0.607843 -0.529412 0.600000

vn -0.607843 -0.529412 0.600000

vn -0.607843 -0.529412 0.600000

vn -0.607843 -0.529412 0.600000

vn -0.686275 -0.270588 -0.686275

vn -0.686275 -0.270588 -0.686275

vn -0.686275 -0.270588 -0.686275

vn -0.686275 -0.270588 -0.686275

vn -0.686275 -0.270588 0.678432

vn -0.686275 -0.270588 0.678432

vn -0.686275 -0.270588 0.678432

vn -0.686275 -0.270588 0.678432

vn -0.709804 0.019608 -0.709804

vn -0.709804 0.019608 -0.709804

vn -0.709804 0.019608 -0.709804

vn -0.709804 0.019608 -0.709804

vn -0.709804 0.019608 0.701961

vn -0.709804 0.019608 0.701961

vn -0.709804 0.019608 0.701961

vn -0.709804 0.019608 0.701961

vn -0.450980 0.772549 -0.450980

vn -0.450980 0.772549 -0.450980

vn -0.450980 0.772549 -0.450980

vn -0.450980 0.772549 -0.450980

vn -0.450980 0.772549 0.443137

vn -0.450980 0.772549 0.443137

vn -0.450980 0.772549 0.443137

vn -0.450980 0.772549 0.443137

vn -0.560784 -0.623529 -0.560784

vn -0.560784 -0.623529 -0.560784

vn -0.560784 -0.623529 -0.560784

vn -0.560784 -0.623529 -0.560784

vn -0.560784 -0.623529 0.552941

vn -0.560784 -0.623529 0.552941

vn -0.560784 -0.623529 0.552941

vn -0.560784 -0.623529 0.552941

vn -0.552941 -0.631373 -0.552941

vn -0.552941 -0.631373 -0.552941

vn -0.552941 -0.631373 -0.552941

vn -0.552941 -0.631373 -0.552941

vn -0.552941 -0.631373 0.545098

vn -0.552941 -0.631373 0.545098

vn -0.552941 -0.631373 0.545098

vn -0.552941 -0.631373 0.545098

vn -0.600000 0.529412 -0.600000

vn -0.600000 0.529412 -0.600000

vn -0.600000 0.529412 -0.600000

vn -0.600000 0.529412 -0.600000

vn -0.600000 0.529412 0.592157

vn -0.600000 0.529412 0.592157

vn -0.600000 0.529412 0.592157

vn -0.600000 0.529412 0.592157

vn -0.035294 -0.003922 0.992157

vn -0.890196 -0.003922 0.466667

vn -0.631373 -0.709804 0.325490

vn -0.027451 -0.709804 0.701961

vn -0.003922 -1.000000 -0.003922

vn 0.843137 -0.003922 0.529412

vn -0.035294 -0.003922 0.992157

vn -0.027451 -0.709804 0.701961

vn 0.592157 -0.709804 0.372549

vn -0.003922 -1.000000 -0.003922

vn 0.882353 -0.003922 -0.474510

vn 0.843137 -0.003922 0.529412

vn 0.592157 -0.709804 0.372549

vn 0.623530 -0.709804 -0.333333

vn -0.003922 -1.000000 -0.003922

vn -0.364706 0.905882 0.184314

vn 0.333333 0.874510 -0.333333

vn -0.192157 0.929412 -0.309804

vn -0.184314 0.788235 0.576471

vn 0.552941 0.811765 0.160784

vn 0.294118 0.749020 0.584314

vn 0.623530 -0.709804 -0.333333

vn 0.027451 -0.003922 -1.000000

vn 0.882353 -0.003922 -0.474510

vn 0.019608 -0.709804 -0.709804

vn -0.003922 -1.000000 -0.003922

vn 0.019608 -0.709804 -0.709804

vn -0.850980 -0.003922 -0.537255

vn 0.027451 -0.003922 -1.000000

vn -0.600000 -0.709804 -0.380392

vn -0.003922 -1.000000 -0.003922

vn -0.600000 -0.709804 -0.380392

vn -0.890196 -0.003922 0.466667

vn -0.850980 -0.003922 -0.537255

vn -0.631373 -0.709804 0.325490

vn -0.003922 -1.000000 -0.003922

vn -0.003922 1.000000 -0.003922

vn -0.003922 1.000000 -0.003922

vn -0.003922 1.000000 -0.003922

vn -0.003922 1.000000 -0.003922

vn -0.003922 1.000000 -0.003922

vn -0.003922 1.000000 -0.003922

vn 0.552941 0.811765 0.160784

vn 0.498039 0.035294 -0.866667

vn 0.333333 0.874510 -0.333333

vn 0.992157 0.035294 0.019608

vn 0.521569 0.050980 -0.858824

vn 0.294118 0.749020 0.584314

vn 0.992157 0.058824 0.066667

vn 0.435294 0.019608 0.898039

vn 0.898039 0.427451 0.043137

vn 0.466667 0.435294 -0.772549

vn 0.435294 0.066667 0.890196

vn 0.850981 0.513726 0.058824

vn 0.474510 0.529412 -0.701961

vn 0.403922 0.435294 0.803922

vn 0.411765 0.498039 0.756863

vn -0.411765 0.474510 0.772549

vn -0.537255 0.066667 0.843137

vn -0.482353 0.427451 0.764706

vn -0.882353 0.474510 -0.011765

vn -0.600000 0.019608 0.803922

vn -0.184314 0.788235 0.576471

vn -0.913725 0.411765 -0.066667

vn -1.000000 0.058824 -0.058823

vn -1.000000 0.027451 -0.113725

vn -0.364706 0.905882 0.184314

vn -0.192157 0.929412 -0.309804

vn -0.529412 0.050980 -0.858824

vn -0.529412 0.027451 -0.850980

vn 0.333333 0.874510 -0.333333

vn 0.498039 0.035294 -0.866667

vn 0.521569 0.050980 -0.858824

vn 0.466667 0.435294 -0.772549

vn -0.450980 0.403922 -0.796078

vn 0.474510 0.529412 -0.701961

vn -0.419608 0.490196 -0.764706

f 1/1/1 2/2/2 3/3/3

f 3/3/3 2/2/2 4/4/4

f 5/5/5 6/6/6 7/7/7

f 6/6/6 5/5/5 8/8/8

f 9/9/9 10/10/10 11/11/11

f 10/10/10 9/9/9 12/12/12

f 13/13/13 14/14/14 15/15/15

f 14/14/14 13/13/13 16/16/16

f 17/17/17 18/18/18 19/19/19

f 18/18/18 20/20/20 19/19/19

f 21/21/21 22/22/22 23/23/23

f 22/22/22 21/21/21 24/24/24

f 25/25/25 26/26/26 27/27/27

f 27/27/27 26/26/26 28/28/28

f 29/29/29 30/30/30 31/31/31

f 30/30/30 29/29/29 32/32/32

f 33/33/33 34/34/34 35/35/35

f 35/35/35 34/34/34 36/36/36

f 37/37/37 38/38/38 39/39/39

f 38/38/38 37/37/37 40/40/40

f 41/41/41 42/42/42 43/43/43

f 42/42/42 41/41/41 44/44/44

f 45/45/45 46/46/46 47/47/47

f 45/45/45 47/47/47 48/48/48

f 49/49/49 50/50/50 51/51/51

f 50/50/50 49/49/49 52/52/52

f 53/53/53 54/54/54 55/55/55

f 54/54/54 53/53/53 56/56/56

f 57/57/57 58/58/58 59/59/59

f 58/58/58 57/57/57 60/60/60

f 61/61/61 62/62/62 63/63/63

f 62/62/62 61/61/61 64/64/64

f 65/65/65 66/66/66 67/67/67

f 66/66/66 65/65/65 68/68/68

f 69/69/69 70/70/70 71/71/71

f 71/71/71 70/70/70 72/72/72

f 73/73/73 74/74/74 75/75/75

f 74/74/74 73/73/73 76/76/76

f 77/77/77 78/78/78 79/79/79

f 77/77/77 79/79/79 80/80/80

f 81/81/81 82/82/82 83/83/83

f 82/82/82 81/81/81 84/84/84

f 85/85/85 86/86/86 87/87/87

f 86/86/86 85/85/85 88/88/88

f 89/89/89 90/90/90 91/91/91

f 90/90/90 89/89/89 92/92/92

f 93/93/93 94/94/94 95/95/95

f 94/94/94 93/93/93 96/96/96

f 97/97/97 98/98/98 99/99/99

f 97/97/97 99/99/99 100/100/100

f 101/101/101 102/102/102 103/103/103

f 102/102/102 101/101/101 104/104/104

f 105/105/105 106/106/106 107/107/107

f 105/105/105 107/107/107 108/108/108

f 109/109/109 110/110/110 111/111/111

f 110/110/110 109/109/109 112/112/112

f 113/113/113 114/114/114 115/115/115

f 114/114/114 113/113/113 116/116/116

f 117/117/117 118/118/118 119/119/119

f 117/117/117 119/119/119 120/120/120

f 121/121/121 122/122/122 123/123/123

f 122/122/122 121/121/121 124/124/124

f 125/125/125 126/126/126 127/127/127

f 126/126/126 125/125/125 128/128/128

f 129/129/129 130/130/130 131/131/131

f 130/130/130 129/129/129 132/132/132

f 133/133/133 134/134/134 135/135/135

f 136/136/136 134/134/134 133/133/133

f 137/137/137 138/138/138 139/139/139

f 138/138/138 137/137/137 140/140/140

f 141/141/141 142/142/142 143/143/143

f 141/141/141 144/144/144 142/142/142

f 145/145/145 146/146/146 147/147/147

f 146/146/146 145/145/145 148/148/148

f 149/149/149 150/150/150 151/151/151

f 149/149/149 151/151/151 152/152/152

f 152/152/152 151/151/151 153/153/153

f 154/154/154 155/155/155 156/156/156

f 154/154/154 156/156/156 157/157/157

f 157/157/157 156/156/156 158/158/158

f 159/159/159 160/160/160 161/161/161

f 161/161/161 162/162/162 159/159/159

f 162/162/162 161/161/161 163/163/163

f 164/164/164 165/165/165 166/166/166

f 165/165/165 164/164/164 167/167/167

f 167/167/167 168/168/168 165/165/165

f 168/168/168 167/167/167 169/169/169

f 170/170/170 171/171/171 172/172/172

f 171/171/171 170/170/170 173/173/173

f 173/173/173 170/170/170 174/174/174

f 175/175/175 176/176/176 177/177/177

f 176/176/176 175/175/175 178/178/178

f 178/178/178 175/175/175 179/179/179

f 180/180/180 181/181/181 182/182/182

f 181/181/181 180/180/180 183/183/183

f 183/183/183 180/180/180 184/184/184

f 185/185/185 186/186/186 187/187/187

f 188/188/188 186/186/186 185/185/185

f 188/188/188 189/189/189 186/186/186

f 189/189/189 188/188/188 190/190/190

f 191/191/191 192/192/192 193/193/193

f 194/194/194 192/192/192 191/191/191

f 194/194/194 195/195/195 192/192/192

f 196/196/196 194/194/194 191/191/191

f 195/195/195 194/194/194 197/197/197

f 194/194/194 196/196/196 198/198/198

f 198/198/198 197/197/197 194/194/194

f 199/199/199 195/195/195 197/197/197

f 195/195/195 199/199/199 200/200/200

f 197/197/197 198/198/198 201/201/201

f 201/201/201 199/199/199 197/197/197

f 200/200/200 202/202/202 203/203/203

f 202/202/202 200/200/200 199/199/199

f 204/204/204 202/202/202 199/199/199

f 199/199/199 201/201/201 204/204/204

f 202/202/202 204/204/204 205/205/205

f 204/204/204 206/206/206 205/205/205

f 207/207/207 204/204/204 201/201/201

f 198/198/198 207/207/207 201/201/201

f 204/204/204 208/208/208 206/206/206

f 204/204/204 207/207/207 208/208/208

f 206/206/206 208/208/208 209/209/209

f 210/210/210 207/207/207 198/198/198

f 196/196/196 210/210/210 198/198/198

f 196/196/196 211/211/211 210/210/210

f 208/208/208 207/207/207 212/212/212

f 208/208/208 212/212/212 209/209/209

f 210/210/210 213/213/213 207/207/207

f 207/207/207 213/213/213 212/212/212

f 211/211/211 214/214/214 210/210/210

f 213/213/213 210/210/210 214/214/214

f 214/214/214 211/211/211 215/215/215

f 216/216/216 214/214/214 215/215/215

f 217/217/217 212/212/212 213/213/213

f 214/214/214 217/217/217 213/213/213

f 214/214/214 216/216/216 218/218/218

f 217/217/217 214/214/214 218/218/218

f 219/219/219 218/218/218 216/216/216

f 218/218/218 219/219/219 220/220/220

f 220/220/220 217/217/217 218/218/218

f 217/217/217 220/220/220 221/221/221

f 222/222/222 217/217/217 221/221/221

f 222/222/222 223/223/223 217/217/217

f 212/212/212 217/217/217 223/223/223

f 223/223/223 209/209/209 212/212/212

f 224/224/224 223/223/223 222/222/222

f 209/209/209 223/223/223 225/225/225

f 224/224/224 225/225/225 223/223/223

