# UnrealEd OBJ exporter (_Internal)



v 25.321289 330.567078 9.394836

v 25.321289 338.037872 -0.000000

v 18.010742 330.567078 9.394836

v 18.010742 338.037872 -0.000000

v 25.321289 338.037872 -0.000000

v 25.321289 330.567078 -9.394836

v 18.010742 338.037872 -0.000000

v 18.010742 330.567078 -9.394836

v 25.321289 330.567078 -9.394836

v 25.321289 309.965210 -4.672119

v 18.010742 309.965210 -4.672119

v 18.010742 330.567078 -9.394836

v 18.010742 330.567078 9.394836

v 18.010742 309.965210 4.672119

v 25.321289 330.567078 9.394836

v 25.321289 309.965210 4.672119

v 18.010742 294.924988 -6.477783

v 18.010742 309.965210 -4.672119

v 25.321289 294.924988 -6.477783

v 25.321289 309.965210 -4.672119

v 18.010742 309.965210 4.672119

v 18.010742 294.924988 6.477783

v 25.321289 309.965210 4.672119

v 25.321289 294.924988 6.477783

v 25.321289 291.168762 -0.000000

v 18.010742 291.168762 -0.000000

v 18.010742 294.924988 -6.477783

v 25.321289 294.924988 -6.477783

v 25.321289 294.924988 6.477783

v 18.010742 294.924988 6.477783

v 18.010742 291.168762 -0.000000

v 25.321289 291.168762 -0.000000

v 32.731934 318.256927 -0.000000

v 24.071045 317.744446 2.496552

v 31.741699 314.388580 2.130310

v 23.789063 322.148926 -0.000000

v 23.789063 322.148926 -0.000000

v 32.731934 318.256927 -0.000000

v 24.071045 317.744446 -2.496582

v 31.741699 314.388580 -2.130310

v 31.741699 314.388580 2.130310

v 24.071045 317.744446 2.496552

v 31.741699 314.388580 -2.130310

v 24.071045 317.744446 -2.496582

v 25.321289 330.567078 9.394836

v 25.321289 330.567078 -9.394836

v 25.321289 338.037872 -0.000000

v 25.321289 309.965210 -4.672119

v 25.321289 309.965210 4.672119

v 25.321289 294.924988 -6.477783

v 25.321289 309.965210 -4.672119

v 25.321289 294.924988 6.477783

v 25.321289 291.168762 -0.000000

v 31.741699 314.388580 -2.130310

v 47.324951 313.869110 2.186127

v 31.741699 314.388580 2.130310

v 47.324951 313.869110 -2.186157

v 53.943848 319.917786 -0.000000

v 32.731934 318.256927 -0.000000

v 47.324951 313.869110 -2.186157

v 31.741699 314.388580 -2.130310

v 47.148438 317.482849 -0.000000

v 53.943848 319.917786 -0.000000

v 31.741699 314.388580 2.130310

v 47.324951 313.869110 2.186127

v 32.731934 318.256927 -0.000000

v 47.148438 317.482849 -0.000000

v 53.943848 319.917786 -0.000000



vt 0.450195 0.488281

vt 0.450195 0.498535

vt 0.444824 0.488281

vt 0.444824 0.498535

vt 0.438477 0.498535

vt 0.438477 0.488281

vt 0.444092 0.498535

vt 0.444092 0.488281

vt 0.438477 0.488281

vt 0.438477 0.468750

vt 0.444092 0.468750

vt 0.444092 0.488281

vt 0.444824 0.488281

vt 0.444824 0.468750

vt 0.450195 0.488281

vt 0.450439 0.468750

vt 0.444092 0.454590

vt 0.444092 0.468750

vt 0.438477 0.454590

vt 0.438477 0.468750

vt 0.444824 0.468750

vt 0.444824 0.454590

vt 0.450439 0.468750

vt 0.450439 0.454590

vt 0.438477 0.448242

vt 0.444092 0.448242

vt 0.444092 0.454590

vt 0.438477 0.454590

vt 0.450439 0.454590

vt 0.444824 0.454590

vt 0.444824 0.448242

vt 0.450439 0.448242

vt 0.482666 0.344727

vt 0.475586 0.356934

vt 0.475586 0.344727

vt 0.482666 0.356934

vt 0.475586 0.356934

vt 0.475586 0.344727

vt 0.482666 0.356934

vt 0.482666 0.344727

vt 0.482666 0.344727

vt 0.482666 0.356934

vt 0.475586 0.344727

vt 0.475586 0.356934

vt 0.440186 0.439941

vt 0.454590 0.439941

vt 0.447510 0.447266

vt 0.450928 0.420898

vt 0.443848 0.420898

vt 0.452148 0.406738

vt 0.450928 0.420898

vt 0.442383 0.406738

vt 0.447266 0.403320

vt 0.475586 0.344727

vt 0.482666 0.328613

vt 0.482666 0.344727

vt 0.475586 0.328613

vt 0.479004 0.308594

vt 0.475586 0.344727

vt 0.482666 0.328613

vt 0.482666 0.344727

vt 0.475586 0.328613

vt 0.479004 0.308594

vt 0.475586 0.344727

vt 0.475586 0.328613

vt 0.482666 0.344727

vt 0.482666 0.328613

vt 0.479248 0.308594



vn -0.003922 0.780392 0.615686

vn -0.003922 0.780392 0.615686

vn -0.003922 0.780392 0.615686

vn -0.003922 0.780392 0.615686

vn -0.003922 0.780392 -0.623529

vn -0.003922 0.780392 -0.623529

vn -0.003922 0.780392 -0.623529

vn -0.003922 0.780392 -0.623529

vn -0.003922 -0.223529 -0.976471

vn -0.003922 -0.223529 -0.976471

vn -0.003922 -0.223529 -0.976471

vn -0.003922 -0.223529 -0.976471

vn -0.003922 -0.223529 0.968628

vn -0.003922 -0.223529 0.968628

vn -0.003922 -0.223529 0.968628

vn -0.003922 -0.223529 0.968628

vn -0.003922 0.113726 -1.000000

vn -0.003922 0.113726 -1.000000

vn -0.003922 0.113726 -1.000000

vn -0.003922 0.113726 -1.000000

vn -0.003922 0.113726 0.992157

vn -0.003922 0.113726 0.992157

vn -0.003922 0.113726 0.992157

vn -0.003922 0.113726 0.992157

vn -0.003922 -0.866667 -0.505882

vn -0.003922 -0.866667 -0.505882

vn -0.003922 -0.866667 -0.505882

vn -0.003922 -0.866667 -0.505882

vn -0.003922 -0.866667 0.498039

vn -0.003922 -0.866667 0.498039

vn -0.003922 -0.866667 0.498039

vn -0.003922 -0.866667 0.498039

vn 0.215686 0.458824 0.858824

vn 0.215686 0.458824 0.858824

vn 0.215686 0.458824 0.858824

vn 0.215686 0.458824 0.858824

vn 0.215686 0.458824 -0.866667

vn 0.215686 0.458824 -0.866667

vn 0.215686 0.458824 -0.866667

vn 0.215686 0.458824 -0.866667

vn -0.403922 -0.921569 -0.003922

vn -0.403922 -0.921569 -0.003922

vn -0.403922 -0.921569 -0.003922

vn -0.403922 -0.921569 -0.003922

vn 1.000000 -0.003922 -0.003922

vn 1.000000 -0.003922 -0.003922

vn 1.000000 -0.003922 -0.003922

vn 1.000000 -0.003922 -0.003922

vn 1.000000 -0.003922 -0.003922

vn 1.000000 -0.003922 -0.003922

vn 1.000000 -0.003922 -0.003922

vn 1.000000 -0.003922 -0.003922

vn 1.000000 -0.003922 -0.003922

vn -0.035294 -1.000000 -0.003922

vn 0.105882 -1.000000 -0.003922

vn -0.035294 -1.000000 -0.003922

vn 0.105882 -1.000000 -0.003922

vn 0.670588 -0.741176 -0.003922

vn 0.019608 0.490196 -0.874510

vn -0.003922 0.498039 -0.866667

vn 0.019608 0.490196 -0.874510

vn -0.027451 0.498039 -0.866667

vn -0.184314 0.498039 -0.850980

vn 0.019608 0.490196 0.866667

vn -0.003922 0.498039 0.858824

vn 0.019608 0.490196 0.866667

vn -0.027451 0.498039 0.858824

vn -0.184314 0.498039 0.843137

f 1/1/1 2/2/2 3/3/3

f 3/3/3 2/2/2 4/4/4

f 5/5/5 6/6/6 7/7/7

f 7/7/7 6/6/6 8/8/8

f 9/9/9 10/10/10 11/11/11

f 11/11/11 12/12/12 9/9/9

f 13/13/13 14/14/14 15/15/15

f 15/15/15 14/14/14 16/16/16

f 17/17/17 18/18/18 19/19/19

f 19/19/19 18/18/18 20/20/20

f 21/21/21 22/22/22 23/23/23

f 23/23/23 22/22/22 24/24/24

f 25/25/25 26/26/26 27/27/27

f 25/25/25 27/27/27 28/28/28

f 29/29/29 30/30/30 31/31/31

f 29/29/29 31/31/31 32/32/32

f 33/33/33 34/34/34 35/35/35

f 34/34/34 33/33/33 36/36/36

f 37/37/37 38/38/38 39/39/39

f 39/39/39 38/38/38 40/40/40

f 41/41/41 42/42/42 43/43/43

f 42/42/42 44/44/44 43/43/43

f 45/45/45 46/46/46 47/47/47

f 45/45/45 48/48/48 46/46/46

f 45/45/45 49/49/49 48/48/48

f 49/49/49 50/50/50 51/51/51

f 49/49/49 52/52/52 50/50/50

f 53/53/53 50/50/50 52/52/52

f 54/54/54 55/55/55 56/56/56

f 55/55/55 54/54/54 57/57/57

f 55/55/55 57/57/57 58/58/58

f 59/59/59 60/60/60 61/61/61

f 60/60/60 59/59/59 62/62/62

f 60/60/60 62/62/62 63/63/63

f 64/64/64 65/65/65 66/66/66

f 67/67/67 66/66/66 65/65/65

f 67/67/67 65/65/65 68/68/68

