# UnrealEd OBJ exporter (_Internal)



v 154.415527 41.073448 1.432129

v 151.981934 66.810852 -112.609375

v 147.628906 66.810852 1.354004

v 158.768555 42.216885 -113.821289

v 155.717285 42.216885 117.282227

v 154.415527 41.073448 1.432129

v 148.930664 66.810852 115.897095

v 147.628906 66.810852 1.354004

v 84.651123 128.296432 0.335571

v 89.164795 95.333694 -112.355957

v 84.651123 128.296432 -112.657471

v 89.164795 92.100922 0.728760

v 89.164795 95.333694 114.471436

v 84.651123 128.296432 0.335571

v 84.651123 128.296432 114.471436

v 89.164795 92.100922 0.728760

v 23.508057 185.546051 115.335693

v 6.786621 187.756317 3.109497

v 2.222168 185.546051 115.822632

v 25.352295 187.756317 2.459717

v 2.222168 187.530289 -108.799805

v 6.786621 187.756317 3.109497

v 25.352295 187.756317 2.459717

v 30.981201 187.530289 -110.031250

v 24.701904 158.577438 1.476929

v 30.981201 187.530289 -110.031250

v 25.352295 187.756317 2.459717

v 32.175049 159.783676 -111.253540

v 24.701904 158.449219 114.829102

v 25.352295 187.756317 2.459717

v 23.508057 185.546051 115.335693

v 24.701904 158.577438 1.476929

v -141.734863 369.049225 -1.325562

v -170.144043 368.476929 108.341553

v -137.297852 368.476929 108.259766

v -170.144043 369.049225 -1.562500

v -170.144043 368.476929 -113.374268

v -170.144043 369.049225 -1.562500

v -141.734863 369.049225 -1.325562

v -137.297852 368.476929 -112.593872

v -114.961426 333.028290 0.267944

v -113.989014 302.823151 -110.604004

v -105.794678 335.115723 -111.339600

v -123.155762 302.823151 1.485962

v -119.106445 302.823151 112.072510

v -123.155762 302.823151 1.485962

v -110.912109 335.115723 110.208618

v -114.961426 333.028290 0.267944

v -53.870361 275.962616 116.313477

v -58.538818 275.962616 3.953979

v -80.774902 275.962585 115.353027

v -80.774902 275.962585 3.353027

v -80.774902 275.962585 3.353027

v -56.511475 275.962616 -108.274292

v -80.774902 275.962585 -109.036255

v -58.538818 275.962616 3.953979

v -35.873291 247.588608 4.813965

v -33.593506 220.224670 -107.356812

v -33.969482 247.588608 -107.291870

v -33.593506 218.300476 4.664795

v -33.593506 215.654755 116.888672

v -35.873291 247.588608 4.813965

v -33.969482 250.149185 116.996460

v -33.593506 218.300476 4.664795

v -173.250000 401.292023 -1.347412

v -170.144043 368.476929 -113.374268

v -173.250000 401.292023 -113.998169

v -170.144043 369.049225 -1.562500

v -170.144043 368.476929 108.341553

v -173.250000 401.292023 -1.347412

v -173.250000 401.292023 109.380615

v -170.144043 369.049225 -1.562500

v -141.734863 369.049225 -1.325562

v -134.239502 335.115723 -111.812744

v -137.297852 368.476929 -112.593872

v -138.676514 333.028290 -0.441895

v -134.239502 335.115723 109.194458

v -138.676514 333.028290 -0.441895

v -137.297852 368.476929 108.259766

v -141.734863 369.049225 -1.325562

v -114.961426 333.028290 0.267944

v -134.239502 335.115723 -111.812744

v -138.676514 333.028290 -0.441895

v -105.794678 335.115723 -111.339600

v -110.912109 335.115723 110.208618

v -114.961426 333.028290 0.267944

v -134.239502 335.115723 109.194458

v -138.676514 333.028290 -0.441895

v -113.989014 302.823151 -110.604004

v -123.155762 302.823151 1.485962

v -78.839111 302.823151 2.714966

v -78.839111 302.823151 -109.764404

v -78.839111 302.823151 114.158203

v -78.839111 302.823151 2.714966

v -119.106445 302.823151 112.072510

v -123.155762 302.823151 1.485962

v -78.839111 302.823151 2.714966

v -80.774902 275.962585 -109.036255

v -78.839111 302.823151 -109.764404

v -80.774902 275.962585 3.353027

v -80.774902 275.962585 115.353027

v -80.774902 275.962585 3.353027

v -78.839111 302.823151 114.158203

v -78.839111 302.823151 2.714966

v -58.538818 275.962616 3.953979

v -54.803467 247.588608 -107.547119

v -56.511475 275.962616 -108.274292

v -54.803467 247.588608 4.617432

v -52.162354 250.149185 116.825317

v -54.803467 247.588608 4.617432

v -53.870361 275.962616 116.313477

v -58.538818 275.962616 3.953979

v -54.803467 247.588608 4.617432

v -33.969482 247.588608 -107.291870

v -54.803467 247.588608 -107.547119

v -35.873291 247.588608 4.813965

v -33.969482 250.149185 116.996460

v -35.873291 247.588608 4.813965

v -52.162354 250.149185 116.825317

v -54.803467 247.588608 4.617432

v -33.593506 220.224670 -107.356812

v -33.593506 218.300476 4.664795

v 1.425293 218.300476 4.087646

v -1.294922 220.224670 -107.760742

v -1.294922 215.654755 116.532959

v -33.593506 218.300476 4.664795

v -33.593506 215.654755 116.888672

v 1.425293 218.300476 4.087646

v -1.294922 220.224670 -107.760742

v 1.425293 218.300476 4.087646

v 6.786621 187.756317 3.109497

v 2.222168 187.530289 -108.799805

v 2.222168 185.546051 115.822632

v 1.425293 218.300476 4.087646

v -1.294922 215.654755 116.532959

v 6.786621 187.756317 3.109497

v 48.062012 158.449219 114.555664

v 24.701904 158.577438 1.476929

v 24.701904 158.449219 114.829102

v 48.062012 158.577438 0.810547

v 48.062012 158.577438 0.810547

v 32.175049 159.783676 -111.253540

v 24.701904 158.577438 1.476929

v 55.246094 159.783676 -112.028442

v 50.816895 128.296432 114.471436

v 48.062012 158.577438 0.810547

v 48.062012 158.449219 114.555664

v 50.816895 128.296432 0.324097

v 50.816895 128.296432 0.324097

v 55.246094 159.783676 -112.028442

v 48.062012 158.577438 0.810547

v 58.000977 128.296432 -112.556152

v 84.651123 128.296432 0.335571

v 50.816895 128.296432 114.471436

v 84.651123 128.296432 114.471436

v 50.816895 128.296432 0.324097

v 84.651123 128.296432 0.335571

v 58.000977 128.296432 -112.556152

v 50.816895 128.296432 0.324097

v 84.651123 128.296432 -112.657471

v 120.339600 95.333694 114.471436

v 110.876465 92.100922 0.975708

v 89.164795 95.333694 114.471436

v 89.164795 92.100922 0.728760

v 89.164795 92.100922 0.728760

v 111.727539 95.333694 -111.937744

v 89.164795 95.333694 -112.355957

v 110.876465 92.100922 0.975708

v 122.261963 66.810852 114.888916

v 110.876465 92.100922 0.975708

v 120.339600 95.333694 114.471436

v 112.798828 66.810852 1.193481

v 110.876465 92.100922 0.975708

v 113.649902 66.810852 -111.683105

v 111.727539 95.333694 -111.937744

v 112.798828 66.810852 1.193481

v 148.930664 66.810852 115.897095

v 147.628906 66.810852 1.354004

v 122.261963 66.810852 114.888916

v 112.798828 66.810852 1.193481

v 147.628906 66.810852 1.354004

v 113.649902 66.810852 -111.683105

v 112.798828 66.810852 1.193481

v 151.981934 66.810852 -112.609375

v 200.279053 42.216885 120.100586

v 196.723145 41.073448 1.580811

v 155.717285 42.216885 117.282227

v 154.415527 41.073448 1.432129

v 196.723145 41.073448 1.580811

v 158.768555 42.216885 -113.821289

v 154.415527 41.073448 1.432129

v 200.279053 42.216885 -116.065918

v 210.379150 1.474309 122.331543

v 206.823242 1.474309 1.509155

v 200.279053 42.216885 120.100586

v 196.723145 41.073448 1.580811

v 206.823242 1.474309 1.509155

v 200.279053 42.216885 -116.065918

v 196.723145 41.073448 1.580811

v 210.379150 1.474309 -118.243408

v 257.681152 1.474304 123.339233

v 254.125244 1.474304 1.110840

v 222.559570 1.474306 122.773682

v 219.003662 1.474306 1.473389

v 210.379150 1.474309 122.331543

v 206.823242 1.474309 1.509155

v -220.711426 401.292023 111.965820

v -254.743408 401.292023 -0.006592

v -255.967285 401.292023 113.678711

v -219.487549 401.292023 -0.446289

v -173.250000 401.292023 109.380615

v -173.250000 401.292023 -1.347412

v 219.003662 1.474306 1.473389

v 210.379150 1.474309 -118.243408

v 206.823242 1.474309 1.509155

v 222.559570 1.474306 -118.716797

v 254.125244 1.474304 1.110840

v 257.681152 1.474304 -119.835327

v -254.743408 401.292023 -0.006592

v -220.711426 401.292023 -114.328247

v -255.967285 401.292023 -114.328247

v -219.487549 401.292023 -0.446289

v -173.250000 401.292023 -1.347412

v -173.250000 401.292023 -113.998169



vt 0.595703 0.059082

vt 0.448242 0.011230

vt 0.595703 0.011230

vt 0.448242 0.059082

vt 0.448242 0.058594

vt 0.595703 0.059082

vt 0.448242 0.011230

vt 0.595703 0.011230

vt 0.595703 0.011230

vt 0.448242 0.066406

vt 0.448242 0.011230

vt 0.595703 0.067383

vt 0.448242 0.065430

vt 0.595703 0.011230

vt 0.448242 0.011230

vt 0.595703 0.067383

vt 0.448242 0.011230

vt 0.595703 0.069824

vt 0.448242 0.071777

vt 0.595703 0.011230

vt 0.448242 0.072266

vt 0.595703 0.069824

vt 0.595703 0.011230

vt 0.448242 0.011230

vt 0.595703 0.045410

vt 0.448242 0.011230

vt 0.595703 0.011230

vt 0.448242 0.045898

vt 0.448242 0.045410

vt 0.595703 0.011230

vt 0.448242 0.011230

vt 0.595703 0.045410

vt 0.595703 0.011230

vt 0.448242 0.066895

vt 0.448242 0.011230

vt 0.595703 0.065918

vt 0.448242 0.066895

vt 0.595703 0.065918

vt 0.595703 0.011230

vt 0.448242 0.011230

vt 0.595703 0.119629

vt 0.448242 0.173340

vt 0.448242 0.120605

vt 0.595703 0.173340

vt 0.448242 0.173340

vt 0.595703 0.173340

vt 0.448242 0.119141

vt 0.595703 0.119629

vt 0.448242 0.011230

vt 0.595703 0.011230

vt 0.448242 0.065918

vt 0.595703 0.064941

vt 0.595703 0.064941

vt 0.448242 0.011230

vt 0.448242 0.065430

vt 0.595703 0.011230

vt 0.595703 0.115234

vt 0.448242 0.173340

vt 0.448242 0.117188

vt 0.595703 0.173340

vt 0.448242 0.173340

vt 0.595703 0.115234

vt 0.448242 0.114746

vt 0.595703 0.173340

vt 0.595703 0.111816

vt 0.448242 0.066895

vt 0.448242 0.111816

vt 0.595703 0.065918

vt 0.448242 0.066895

vt 0.595703 0.111816

vt 0.448242 0.111816

vt 0.595703 0.065918

vt 0.595703 0.011230

vt 0.448242 0.063965

vt 0.448242 0.011230

vt 0.595703 0.064941

vt 0.448242 0.064941

vt 0.595703 0.064941

vt 0.448242 0.011230

vt 0.595703 0.011230

vt 0.595703 0.119629

vt 0.448242 0.063965

vt 0.595703 0.064941

vt 0.448242 0.120605

vt 0.448242 0.119141

vt 0.595703 0.119629

vt 0.448242 0.064941

vt 0.595703 0.064941

vt 0.448242 0.173340

vt 0.595703 0.173340

vt 0.595703 0.123535

vt 0.448242 0.125000

vt 0.448242 0.124023

vt 0.595703 0.123535

vt 0.448242 0.173340

vt 0.595703 0.173340

vt 0.595703 0.123535

vt 0.448242 0.065430

vt 0.448242 0.125000

vt 0.595703 0.064941

vt 0.448242 0.065918

vt 0.595703 0.064941

vt 0.448242 0.124023

vt 0.595703 0.123535

vt 0.595703 0.011230

vt 0.448242 0.058594

vt 0.448242 0.011230

vt 0.595703 0.059570

vt 0.448242 0.059082

vt 0.595703 0.059570

vt 0.448242 0.011230

vt 0.595703 0.011230

vt 0.595703 0.059570

vt 0.448242 0.117188

vt 0.448242 0.058594

vt 0.595703 0.115234

vt 0.448242 0.114746

vt 0.595703 0.115234

vt 0.448242 0.059082

vt 0.595703 0.059570

vt 0.448242 0.173340

vt 0.595703 0.173340

vt 0.595703 0.125977

vt 0.448242 0.126953

vt 0.448242 0.125977

vt 0.595703 0.173340

vt 0.448242 0.173340

vt 0.595703 0.125977

vt 0.448242 0.126953

vt 0.595703 0.125977

vt 0.595703 0.069824

vt 0.448242 0.072266

vt 0.448242 0.071777

vt 0.595703 0.125977

vt 0.448242 0.125977

vt 0.595703 0.069824

vt 0.448242 0.086914

vt 0.595703 0.045410

vt 0.448242 0.045410

vt 0.595703 0.086426

vt 0.595703 0.086426

vt 0.448242 0.045898

vt 0.595703 0.045410

vt 0.448242 0.086914

vt 0.448242 0.111328

vt 0.595703 0.086426

vt 0.448242 0.086914

vt 0.595703 0.111328

vt 0.595703 0.111328

vt 0.448242 0.086914

vt 0.595703 0.086426

vt 0.448242 0.113770

vt 0.595703 0.173340

vt 0.448242 0.111328

vt 0.448242 0.173340

vt 0.595703 0.111328

vt 0.595703 0.173340

vt 0.448242 0.113770

vt 0.595703 0.111328

vt 0.448242 0.173340

vt 0.448242 0.101074

vt 0.595703 0.100586

vt 0.448242 0.065430

vt 0.595703 0.067383

vt 0.595703 0.067383

vt 0.448242 0.100098

vt 0.448242 0.066406

vt 0.595703 0.100586

vt 0.448242 0.141113

vt 0.595703 0.100586

vt 0.448242 0.101074

vt 0.595703 0.141113

vt 0.595703 0.100586

vt 0.448242 0.141113

vt 0.448242 0.100098

vt 0.595703 0.141113

vt 0.448242 0.173340

vt 0.595703 0.173340

vt 0.448242 0.141113

vt 0.595703 0.141113

vt 0.595703 0.173340

vt 0.448242 0.141113

vt 0.595703 0.141113

vt 0.448242 0.173340

vt 0.448242 0.127930

vt 0.595703 0.127441

vt 0.448242 0.058594

vt 0.595703 0.059082

vt 0.595703 0.127441

vt 0.448242 0.059082

vt 0.595703 0.059082

vt 0.448242 0.127441

vt 0.448242 0.162598

vt 0.595703 0.162598

vt 0.448242 0.127930

vt 0.595703 0.127441

vt 0.595703 0.162598

vt 0.448242 0.127441

vt 0.595703 0.127441

vt 0.448242 0.162598

vt 0.448242 0.218750

vt 0.595703 0.218750

vt 0.448242 0.173340

vt 0.595703 0.173340

vt 0.448242 0.162598

vt 0.595703 0.162598

vt 0.448242 0.173340

vt 0.595703 0.218750

vt 0.448242 0.218750

vt 0.595703 0.173340

vt 0.448242 0.111816

vt 0.595703 0.111816

vt 0.595703 0.173340

vt 0.448242 0.162598

vt 0.595703 0.162598

vt 0.448242 0.173340

vt 0.595703 0.218750

vt 0.448242 0.218750

vt 0.595703 0.218750

vt 0.448242 0.173340

vt 0.448242 0.218750

vt 0.595703 0.173340

vt 0.595703 0.111816

vt 0.448242 0.111816



vn 0.960784 0.254902 0.035294

vn 0.960784 0.254902 0.035294

vn 0.960784 0.254902 0.035294

vn 0.960784 0.254902 0.035294

vn 0.960784 0.254902 -0.019608

vn 0.960784 0.254902 -0.019608

vn 0.960784 0.254902 -0.019608

vn 0.960784 0.254902 -0.019608

vn 0.984314 0.129412 -0.003922

vn 0.984314 0.129412 -0.003922

vn 0.984314 0.129412 -0.003922

vn 0.984314 0.129412 -0.003922

vn 0.984314 0.129412 -0.003922

vn 0.984314 0.129412 -0.003922

vn 0.984314 0.129412 -0.003922

vn 0.984314 0.129412 -0.003922

vn -0.003922 0.992157 0.011765

vn -0.003922 0.992157 0.011765

vn -0.003922 0.992157 0.011765

vn -0.003922 0.992157 0.011765

vn -0.003922 0.992157 -0.003922

vn -0.003922 0.992157 -0.003922

vn -0.003922 0.992157 -0.003922

vn -0.003922 0.992157 -0.003922

vn 0.992157 0.003922 0.050980

vn 0.992157 0.003922 0.050980

vn 0.992157 0.003922 0.050980

vn 0.992157 0.003922 0.050980

vn 0.992157 0.003922 0.003922

vn 0.992157 0.003922 0.003922

vn 0.992157 0.003922 0.003922

vn 0.992157 0.003922 0.003922

vn -0.003922 0.992157 0.003922

vn -0.003922 0.992157 0.003922

vn -0.003922 0.992157 0.003922

vn -0.003922 0.992157 0.003922

vn -0.003922 0.992157 -0.011765

vn -0.003922 0.992157 -0.011765

vn -0.003922 0.992157 -0.011765

vn -0.003922 0.992157 -0.011765

vn 0.960784 -0.254902 0.074510

vn 0.960784 -0.254902 0.074510

vn 0.960784 -0.254902 0.074510

vn 0.960784 -0.254902 0.074510

vn 0.960784 -0.262745 -0.035294

vn 0.960784 -0.262745 -0.035294

vn 0.960784 -0.262745 -0.035294

vn 0.960784 -0.262745 -0.035294

vn -0.003922 1.000000 -0.003922

vn -0.003922 1.000000 -0.003922

vn -0.003922 1.000000 -0.003922

vn -0.003922 1.000000 -0.003922

vn -0.003922 1.000000 -0.003922

vn -0.003922 1.000000 -0.003922

vn -0.003922 1.000000 -0.003922

vn -0.003922 1.000000 -0.003922

vn 0.992157 0.043137 0.003922

vn 0.992157 0.043137 0.003922

vn 0.992157 0.043137 0.003922

vn 0.992157 0.043137 0.003922

vn 0.992157 0.035294 -0.011765

vn 0.992157 0.035294 -0.011765

vn 0.992157 0.035294 -0.011765

vn 0.992157 0.035294 -0.011765

vn 0.992157 0.090196 -0.003922

vn 0.992157 0.090196 -0.003922

vn 0.992157 0.090196 -0.003922

vn 0.992157 0.090196 -0.003922

vn 0.992157 0.090196 -0.003922

vn 0.992157 0.090196 -0.003922

vn 0.992157 0.090196 -0.003922

vn 0.992157 0.090196 -0.003922

vn 0.992157 0.082353 0.035294

vn 0.992157 0.082353 0.035294

vn 0.992157 0.082353 0.035294

vn 0.992157 0.082353 0.035294

vn 0.992157 0.082353 -0.043137

vn 0.992157 0.082353 -0.043137

vn 0.992157 0.082353 -0.043137

vn 0.992157 0.082353 -0.043137

vn -0.003922 0.992157 0.011765

vn -0.003922 0.992157 0.011765

vn -0.003922 0.992157 0.011765

vn -0.003922 0.992157 0.011765

vn -0.003922 0.992157 -0.019608

vn -0.003922 0.992157 -0.019608

vn -0.003922 0.992157 -0.019608

vn -0.003922 0.992157 -0.019608

vn -0.003922 1.000000 -0.003922

vn -0.003922 1.000000 -0.003922

vn -0.003922 1.000000 -0.003922

vn -0.003922 1.000000 -0.003922

vn -0.003922 1.000000 -0.003922

vn -0.003922 1.000000 -0.003922

vn -0.003922 1.000000 -0.003922

vn -0.003922 1.000000 -0.003922

vn 0.992157 -0.074510 -0.003922

vn 0.992157 -0.074510 -0.003922

vn 0.992157 -0.074510 -0.003922

vn 0.992157 -0.074510 -0.003922

vn 0.992157 -0.074510 -0.003922

vn 0.992157 -0.074510 -0.003922

vn 0.992157 -0.074510 -0.003922

vn 0.992157 -0.074510 -0.003922

vn 0.992157 0.090196 0.003922

vn 0.992157 0.090196 0.003922

vn 0.992157 0.090196 0.003922

vn 0.992157 0.090196 0.003922

vn 0.992157 0.098039 -0.035294

vn 0.992157 0.098039 -0.035294

vn 0.992157 0.098039 -0.035294

vn 0.992157 0.098039 -0.035294

vn -0.003922 1.000000 -0.003922

vn -0.003922 1.000000 -0.003922

vn -0.003922 1.000000 -0.003922

vn -0.003922 1.000000 -0.003922

vn -0.003922 0.992157 -0.027451

vn -0.003922 0.992157 -0.027451

vn -0.003922 0.992157 -0.027451

vn -0.003922 0.992157 -0.027451

vn -0.003922 0.992157 0.011765

vn -0.003922 0.992157 0.011765

vn -0.003922 0.992157 0.011765

vn -0.003922 0.992157 0.011765

vn -0.003922 0.992157 0.019608

vn -0.003922 0.992157 0.019608

vn -0.003922 0.992157 0.019608

vn -0.003922 0.992157 0.019608

vn 0.984314 0.137255 -0.035294

vn 0.984314 0.137255 -0.035294

vn 0.984314 0.137255 -0.035294

vn 0.984314 0.137255 -0.035294

vn 0.984314 0.137255 0.027451

vn 0.984314 0.137255 0.027451

vn 0.984314 0.137255 0.027451

vn 0.984314 0.137255 0.027451

vn -0.003922 0.992157 -0.003922

vn -0.003922 0.992157 -0.003922

vn -0.003922 0.992157 -0.003922

vn -0.003922 0.992157 -0.003922

vn -0.003922 0.992157 0.003922

vn -0.003922 0.992157 0.003922

vn -0.003922 0.992157 0.003922

vn -0.003922 0.992157 0.003922

vn 0.992157 0.090196 -0.003922

vn 0.992157 0.090196 -0.003922

vn 0.992157 0.090196 -0.003922

vn 0.992157 0.090196 -0.003922

vn 0.992157 0.082353 0.058824

vn 0.992157 0.082353 0.058824

vn 0.992157 0.082353 0.058824

vn 0.992157 0.082353 0.058824

vn -0.003922 1.000000 -0.003922

vn -0.003922 1.000000 -0.003922

vn -0.003922 1.000000 -0.003922

vn -0.003922 1.000000 -0.003922

vn -0.003922 1.000000 -0.003922

vn -0.003922 1.000000 -0.003922

vn -0.003922 1.000000 -0.003922

vn -0.003922 1.000000 -0.003922

vn -0.003922 0.992157 -0.035294

vn -0.003922 0.992157 -0.035294

vn -0.003922 0.992157 -0.035294

vn -0.003922 0.992157 -0.035294

vn -0.003922 0.992157 0.027451

vn -0.003922 0.992157 0.027451

vn -0.003922 0.992157 0.027451

vn -0.003922 0.992157 0.027451

vn 0.992157 0.066667 -0.090196

vn 0.992157 0.066667 -0.090196

vn 0.992157 0.066667 -0.090196

vn 0.992157 0.066667 -0.090196

vn 0.992157 0.066667 0.003922

vn 0.992157 0.066667 0.003922

vn 0.992157 0.066667 0.003922

vn 0.992157 0.066667 0.003922

vn -0.003922 1.000000 -0.003922

vn -0.003922 1.000000 -0.003922

vn -0.003922 1.000000 -0.003922

vn -0.003922 1.000000 -0.003922

vn -0.003922 1.000000 -0.003922

vn -0.003922 1.000000 -0.003922

vn -0.003922 1.000000 -0.003922

vn -0.003922 1.000000 -0.003922

vn -0.003922 0.992157 -0.011765

vn -0.003922 0.992157 -0.011765

vn -0.003922 0.992157 -0.011765

vn -0.003922 0.992157 -0.011765

vn -0.003922 0.992157 0.003922

vn -0.003922 0.992157 0.003922

vn -0.003922 0.992157 0.003922

vn -0.003922 0.992157 0.003922

vn 0.968628 0.239216 -0.035294

vn 0.968628 0.239216 -0.035294

vn 0.968628 0.239216 -0.035294

vn 0.968628 0.239216 -0.035294

vn 0.968628 0.239216 0.027451

vn 0.968628 0.239216 0.027451

vn 0.968628 0.239216 0.027451

vn 0.968628 0.239216 0.027451

vn -0.003922 1.000000 -0.003922

vn -0.003922 1.000000 -0.003922

vn -0.003922 1.000000 -0.003922

vn -0.003922 1.000000 -0.003922

vn -0.003922 1.000000 -0.003922

vn -0.003922 1.000000 -0.003922

vn -0.003922 1.000000 -0.003922

vn -0.003922 1.000000 -0.003922

vn -0.003922 1.000000 -0.003922

vn -0.003922 1.000000 -0.003922

vn -0.003922 1.000000 -0.003922

vn -0.003922 1.000000 -0.003922

vn -0.003922 1.000000 -0.003922

vn -0.003922 1.000000 -0.003922

vn -0.003922 1.000000 -0.003922

vn -0.003922 1.000000 -0.003922

vn -0.003922 1.000000 -0.003922

vn -0.003922 1.000000 -0.003922

vn -0.003922 1.000000 -0.003922

vn -0.003922 1.000000 -0.003922

vn -0.003922 1.000000 -0.003922

vn -0.003922 1.000000 -0.003922

vn -0.003922 1.000000 -0.003922

vn -0.003922 1.000000 -0.003922

f 1/1/1 2/2/2 3/3/3

f 2/2/2 1/1/1 4/4/4

f 5/5/5 6/6/6 7/7/7

f 7/7/7 6/6/6 8/8/8

f 9/9/9 10/10/10 11/11/11

f 10/10/10 9/9/9 12/12/12

f 13/13/13 14/14/14 15/15/15

f 14/14/14 13/13/13 16/16/16

f 17/17/17 18/18/18 19/19/19

f 18/18/18 17/17/17 20/20/20

f 21/21/21 22/22/22 23/23/23

f 23/23/23 24/24/24 21/21/21

f 25/25/25 26/26/26 27/27/27

f 26/26/26 25/25/25 28/28/28

f 29/29/29 30/30/30 31/31/31

f 30/30/30 29/29/29 32/32/32

f 33/33/33 34/34/34 35/35/35

f 34/34/34 33/33/33 36/36/36

f 37/37/37 38/38/38 39/39/39

f 39/39/39 40/40/40 37/37/37

f 41/41/41 42/42/42 43/43/43

f 42/42/42 41/41/41 44/44/44

f 45/45/45 46/46/46 47/47/47

f 47/47/47 46/46/46 48/48/48

f 49/49/49 50/50/50 51/51/51

f 51/51/51 50/50/50 52/52/52

f 53/53/53 54/54/54 55/55/55

f 54/54/54 53/53/53 56/56/56

f 57/57/57 58/58/58 59/59/59

f 58/58/58 57/57/57 60/60/60

f 61/61/61 62/62/62 63/63/63

f 62/62/62 61/61/61 64/64/64

f 65/65/65 66/66/66 67/67/67

f 66/66/66 65/65/65 68/68/68

f 69/69/69 70/70/70 71/71/71

f 70/70/70 69/69/69 72/72/72

f 73/73/73 74/74/74 75/75/75

f 74/74/74 73/73/73 76/76/76

f 77/77/77 78/78/78 79/79/79

f 79/79/79 78/78/78 80/80/80

f 81/81/81 82/82/82 83/83/83

f 82/82/82 81/81/81 84/84/84

f 85/85/85 86/86/86 87/87/87

f 87/87/87 86/86/86 88/88/88

f 89/89/89 90/90/90 91/91/91

f 91/91/91 92/92/92 89/89/89

f 93/93/93 94/94/94 95/95/95

f 95/95/95 94/94/94 96/96/96

f 97/97/97 98/98/98 99/99/99

f 98/98/98 97/97/97 100/100/100

f 101/101/101 102/102/102 103/103/103

f 103/103/103 102/102/102 104/104/104

f 105/105/105 106/106/106 107/107/107

f 106/106/106 105/105/105 108/108/108

f 109/109/109 110/110/110 111/111/111

f 111/111/111 110/110/110 112/112/112

f 113/113/113 114/114/114 115/115/115

f 114/114/114 113/113/113 116/116/116

f 117/117/117 118/118/118 119/119/119

f 119/119/119 118/118/118 120/120/120

f 121/121/121 122/122/122 123/123/123

f 123/123/123 124/124/124 121/121/121

f 125/125/125 126/126/126 127/127/127

f 126/126/126 125/125/125 128/128/128

f 129/129/129 130/130/130 131/131/131

f 131/131/131 132/132/132 129/129/129

f 133/133/133 134/134/134 135/135/135

f 134/134/134 133/133/133 136/136/136

f 137/137/137 138/138/138 139/139/139

f 138/138/138 137/137/137 140/140/140

f 141/141/141 142/142/142 143/143/143

f 142/142/142 141/141/141 144/144/144

f 145/145/145 146/146/146 147/147/147

f 146/146/146 145/145/145 148/148/148

f 149/149/149 150/150/150 151/151/151

f 150/150/150 149/149/149 152/152/152

f 153/153/153 154/154/154 155/155/155

f 154/154/154 153/153/153 156/156/156

f 157/157/157 158/158/158 159/159/159

f 158/158/158 157/157/157 160/160/160

f 161/161/161 162/162/162 163/163/163

f 163/163/163 162/162/162 164/164/164

f 165/165/165 166/166/166 167/167/167

f 166/166/166 165/165/165 168/168/168

f 169/169/169 170/170/170 171/171/171

f 170/170/170 169/169/169 172/172/172

f 173/173/173 174/174/174 175/175/175

f 174/174/174 173/173/173 176/176/176

f 177/177/177 178/178/178 179/179/179

f 179/179/179 178/178/178 180/180/180

f 181/181/181 182/182/182 183/183/183

f 182/182/182 181/181/181 184/184/184

f 185/185/185 186/186/186 187/187/187

f 187/187/187 186/186/186 188/188/188

f 189/189/189 190/190/190 191/191/191

f 190/190/190 189/189/189 192/192/192

f 193/193/193 194/194/194 195/195/195

f 195/195/195 194/194/194 196/196/196

f 197/197/197 198/198/198 199/199/199

f 198/198/198 197/197/197 200/200/200

f 201/201/201 202/202/202 203/203/203

f 203/203/203 202/202/202 204/204/204

f 203/203/203 204/204/204 205/205/205

f 205/205/205 204/204/204 206/206/206

f 207/207/207 208/208/208 209/209/209

f 208/208/208 207/207/207 210/210/210

f 211/211/211 210/210/210 207/207/207

f 210/210/210 211/211/211 212/212/212

f 213/213/213 214/214/214 215/215/215

f 214/214/214 213/213/213 216/216/216

f 217/217/217 216/216/216 213/213/213

f 216/216/216 217/217/217 218/218/218

f 219/219/219 220/220/220 221/221/221

f 220/220/220 219/219/219 222/222/222

f 220/220/220 222/222/222 223/223/223

f 223/223/223 224/224/224 220/220/220

