# UnrealEd OBJ exporter (_Internal)



v 155.774780 -0.000000 -80.280884

v 158.669800 -0.000000 -222.622437

v 0.000122 -0.000000 -222.622437

v 0.000122 -0.000000 -46.980103

v 155.192749 9.499842 -60.731323

v 154.831177 -0.000000 -48.580688

v 153.931641 -0.000000 -0.000122

v 0.000122 -0.000000 -0.000122

v 0.000122 -0.000000 97.402710

v 158.669800 -0.000000 222.622437

v 0.000122 -0.000000 222.622437

v -158.669800 -0.000000 -222.622437

v 0.000122 -0.000000 -46.980103

v 0.000122 -0.000000 -222.622437

v -153.931519 -0.000000 -0.000122

v 0.000122 -0.000000 -0.000122

v -153.931519 -0.000000 -0.000122

v 0.000122 -0.000000 97.402710

v -156.155273 -0.000000 218.250854

v -30.520142 -0.000000 222.622437

v -14.160278 4.188577 222.622437

v 0.000122 -0.000000 222.622437



vt 0.294189 0.299805

vt 0.293701 0.432129

vt 0.439453 0.432129

vt 0.439453 0.269043

vt 0.293701 0.281738

vt 0.293457 0.270508

vt 0.293701 0.225586

vt 0.439453 0.225586

vt 0.438965 0.315918

vt 0.293701 0.432129

vt 0.439453 0.432129

vt 0.293701 0.432129

vt 0.439453 0.269043

vt 0.439453 0.432129

vt 0.293701 0.225586

vt 0.439453 0.225586

vt 0.293701 0.225586

vt 0.438965 0.315918

vt 0.293701 0.432129

vt 0.411377 0.432129

vt 0.426514 0.432129

vt 0.439453 0.432129



vn -0.011765 0.992157 -0.027451

vn -0.003922 1.000000 -0.003922

vn -0.003922 1.000000 -0.003922

vn -0.003922 0.992157 -0.003922

vn -0.066667 0.992157 -0.043137

vn -0.003922 0.992157 0.090196

vn -0.003922 1.000000 -0.003922

vn -0.003922 1.000000 -0.003922

vn -0.003922 1.000000 -0.003922

vn -0.003922 1.000000 -0.003922

vn 0.019608 0.992157 -0.003922

vn -0.003922 1.000000 -0.003922

vn -0.003922 0.992157 -0.003922

vn -0.003922 1.000000 -0.003922

vn -0.003922 1.000000 -0.003922

vn -0.003922 1.000000 -0.003922

vn -0.003922 1.000000 -0.003922

vn -0.003922 1.000000 -0.003922

vn -0.003922 1.000000 -0.003922

vn -0.011765 0.992157 -0.003922

vn -0.019608 0.992157 -0.043137

vn 0.019608 0.992157 -0.003922

f 1/1/1 2/2/2 3/3/3

f 4/4/4 1/1/1 3/3/3

f 5/5/5 1/1/1 4/4/4

f 6/6/6 5/5/5 4/4/4

f 6/6/6 4/4/4 7/7/7

f 8/8/8 7/7/7 4/4/4

f 9/9/9 7/7/7 8/8/8

f 9/9/9 10/10/10 7/7/7

f 10/10/10 9/9/9 11/11/11

f 12/12/12 13/13/13 14/14/14

f 13/13/13 12/12/12 15/15/15

f 15/15/15 16/16/16 13/13/13

f 17/17/17 18/18/18 16/16/16

f 17/17/17 19/19/19 18/18/18

f 20/20/20 18/18/18 19/19/19

f 20/20/20 21/21/21 18/18/18

f 21/21/21 22/22/22 18/18/18

