# UnrealEd OBJ exporter (_Internal)



v -3.087585 -0.000000 224.046265

v -155.900085 -0.000000 -0.000122

v -162.075378 -0.000000 224.046265

v 3.158264 -0.000000 0.108765

v -3.087585 -0.000000 224.046265

v 155.900085 -0.000000 224.046265

v 160.334412 -0.000000 63.161255

v 3.158264 -0.000000 0.108765

v 161.154602 11.647919 33.401733

v 161.756531 -0.000000 11.565308

v 162.075378 -0.000000 -0.000122

v 1.068665 -0.000000 -73.252808

v 155.900085 -0.000000 -224.046265

v -3.087585 -0.000000 -224.046265

v 3.158264 -0.000000 0.108765

v -157.587097 -0.000000 -61.206177

v -155.900085 -0.000000 -0.000122

v 1.068665 -0.000000 -73.252808

v -158.197937 12.438777 -83.367310

v -159.156433 -0.000000 -118.140259

v -3.087585 -0.000000 -224.046265

v -162.075378 -0.000000 -224.046265



vt 0.593750 0.215820

vt 0.448730 0.011719

vt 0.448730 0.215820

vt 0.593750 0.011719

vt 0.593750 0.215820

vt 0.448730 0.215820

vt 0.448730 0.069336

vt 0.593750 0.011719

vt 0.448730 0.041992

vt 0.448730 0.022461

vt 0.448730 0.011719

vt 0.593750 0.078613

vt 0.448730 0.215820

vt 0.593750 0.215820

vt 0.593750 0.011719

vt 0.448730 0.067383

vt 0.448730 0.011719

vt 0.593750 0.078613

vt 0.448730 0.087891

vt 0.448730 0.119141

vt 0.593750 0.215820

vt 0.448730 0.215820



vn -0.003922 1.000000 -0.003922

vn -0.003922 1.000000 -0.003922

vn -0.003922 1.000000 -0.003922

vn -0.003922 0.992157 -0.003922

vn -0.003922 1.000000 -0.003922

vn -0.003922 1.000000 -0.003922

vn -0.011765 0.992157 0.011765

vn -0.003922 0.992157 -0.003922

vn -0.090196 0.992157 0.043137

vn 0.019608 0.937255 -0.341176

vn -0.003922 1.000000 -0.003922

vn -0.003922 0.992157 -0.003922

vn -0.003922 1.000000 -0.003922

vn -0.003922 1.000000 -0.003922

vn -0.003922 0.992157 -0.003922

vn 0.003922 0.992157 0.074510

vn -0.003922 1.000000 -0.003922

vn -0.003922 0.992157 -0.003922

vn 0.074510 0.992157 -0.027451

vn 0.003922 0.992157 -0.035294

vn -0.003922 1.000000 -0.003922

vn -0.003922 1.000000 -0.003922

f 1/1/1 2/2/2 3/3/3

f 2/2/2 1/1/1 4/4/4

f 5/5/5 6/6/6 7/7/7

f 5/5/5 7/7/7 8/8/8

f 9/9/9 8/8/8 7/7/7

f 10/10/10 8/8/8 9/9/9

f 11/11/11 8/8/8 10/10/10

f 11/11/11 12/12/12 8/8/8

f 13/13/13 12/12/12 11/11/11

f 12/12/12 13/13/13 14/14/14

f 15/15/15 16/16/16 17/17/17

f 16/16/16 15/15/15 18/18/18

f 16/16/16 18/18/18 19/19/19

f 19/19/19 18/18/18 20/20/20

f 18/18/18 21/21/21 20/20/20

f 20/20/20 21/21/21 22/22/22

