# UnrealEd OBJ exporter (_Internal)



v 0.000031 -0.000000 206.545288

v 206.775116 -0.000000 206.545288

v 206.775116 -0.000000 -0.000122

v 0.000031 -0.000000 -0.000122

v 206.775116 6.712901 -18.917603

v 206.775116 -0.000000 -40.722046

v 0.000031 -0.000000 -206.545288

v 206.775116 -0.000000 -206.545288

v -206.775116 -0.000000 -0.000122

v 0.000031 -0.000000 -206.545288

v -206.775116 -0.000000 -206.545288

v 0.000031 -0.000000 -0.000122

v -206.775116 -0.000000 154.927856

v -206.775116 10.603400 206.545288

v -163.253876 -0.000000 206.545288

v 0.000031 -0.000000 206.545288



vt 0.794434 0.199707

vt 0.604492 0.199707

vt 0.604492 0.008301

vt 0.794434 0.008301

vt 0.604492 0.025879

vt 0.604492 0.045898

vt 0.794434 0.199707

vt 0.604492 0.199707

vt 0.604492 0.008301

vt 0.794434 0.199707

vt 0.604492 0.199707

vt 0.794434 0.008301

vt 0.604492 0.151855

vt 0.604492 0.199707

vt 0.644531 0.199707

vt 0.794434 0.199707



vn -0.003922 1.000000 -0.003922

vn -0.003922 1.000000 -0.003922

vn -0.003922 0.992157 0.011765

vn -0.003922 1.000000 -0.003922

vn -0.035294 0.992157 -0.019608

vn -0.003922 0.992157 -0.019608

vn -0.003922 1.000000 -0.003922

vn -0.003922 1.000000 -0.003922

vn -0.003922 1.000000 -0.003922

vn -0.003922 1.000000 -0.003922

vn -0.003922 1.000000 -0.003922

vn -0.003922 1.000000 -0.003922

vn -0.074510 0.992157 -0.090196

vn 0.027451 0.992157 -0.027451

vn 0.090196 0.992157 0.074510

vn -0.003922 1.000000 -0.003922

f 1/1/1 2/2/2 3/3/3

f 1/1/1 3/3/3 4/4/4

f 3/3/3 5/5/5 4/4/4

f 5/5/5 6/6/6 4/4/4

f 4/4/4 6/6/6 7/7/7

f 6/6/6 8/8/8 7/7/7

f 9/9/9 10/10/10 11/11/11

f 12/12/12 10/10/10 9/9/9

f 9/9/9 13/13/13 12/12/12

f 13/13/13 14/14/14 12/12/12

f 12/12/12 14/14/14 15/15/15

f 12/12/12 15/15/15 16/16/16

