# UnrealEd OBJ exporter (_Internal)



v -151.460449 3.597421 116.330078

v -151.460449 -0.000000 -0.000000

v -160.232422 -0.000000 116.329834

v -210.088867 -0.000000 -0.000000

v -219.188232 -0.000000 116.330078

v -222.448975 2.197327 -0.000000

v -232.812744 -0.000000 -0.000000

v -348.539551 -0.000000 116.330078

v -348.539551 -0.000000 -0.000000

v -151.460449 -0.000000 -0.000000

v -151.460449 -0.000000 -116.330078

v -210.088867 -0.000000 -0.000000

v -211.761475 -0.000000 -116.330078

v -222.448975 2.197327 -0.000000

v -232.026123 6.613634 -116.330078

v -232.812744 -0.000000 -0.000000

v -253.042969 -0.000000 -116.330078

v -348.539551 -0.000000 -0.000000

v -348.539551 -0.000000 -116.330078

v -139.675293 -0.000000 116.330078

v -151.460449 -0.000000 -0.000000

v -151.460449 3.597421 116.330078

v -51.460449 -0.000000 -0.000000

v -51.460449 -0.000000 116.330078

v 0.821533 -0.000000 0.010742

v 14.129883 -0.000000 116.330078

v 27.305420 2.853304 116.330078

v 48.539551 -0.000000 116.330078

v 48.539551 -0.000000 -0.000000

v 148.539551 -0.000000 116.330078

v 148.539551 -0.000000 -0.000000

v 148.539551 -0.000000 -0.000000

v 207.812012 -0.000000 30.291992

v 227.777344 -0.000000 116.330078

v 235.894775 4.117323 116.330078

v 348.539551 -0.000000 -0.000000

v 250.554688 -0.000000 116.330078

v 348.539551 -0.000000 116.330078

v 282.652344 -0.000000 -116.330078

v 348.539551 -0.000000 -0.000000

v 348.539551 -0.000000 -116.330078

v 247.712402 -0.000000 -37.691162

v 148.539551 -0.000000 -0.000000

v 275.471680 5.949552 -116.330078

v 263.298096 -0.000000 -116.330078

v 148.539551 -0.000000 -116.330078

v 48.539551 -0.000000 -0.000000

v 148.539551 -0.000000 -0.000000

v 48.539551 -0.000000 -116.330078

v 12.739502 -0.000000 -116.330078

v 0.821533 -0.000000 0.010742

v 0.650391 4.448000 -116.330078

v -13.020996 -0.000000 -116.330078

v -51.460449 -0.000000 -51.405273

v -51.460449 -0.000000 -116.330078

v -51.460449 -0.000000 -0.000000

v -58.999023 3.885972 -116.330078

v -151.460449 -0.000000 -0.000000

v -69.790039 -0.000000 -116.330078

v -151.460449 -0.000000 -116.330078



vt 0.448242 0.011230

vt 0.595703 0.011230

vt 0.448242 0.020508

vt 0.595703 0.072754

vt 0.448242 0.082031

vt 0.595703 0.085449

vt 0.595703 0.096680

vt 0.448242 0.218750

vt 0.595703 0.218750

vt 0.595703 0.011230

vt 0.448242 0.011230

vt 0.595703 0.072754

vt 0.448242 0.074219

vt 0.595703 0.085449

vt 0.448242 0.095703

vt 0.595703 0.096680

vt 0.448242 0.117676

vt 0.595703 0.218750

vt 0.448242 0.218750

vt 0.448242 0.102539

vt 0.595703 0.114258

vt 0.448242 0.114258

vt 0.595703 0.011230

vt 0.448242 0.011230

vt 0.595703 0.065430

vt 0.448242 0.079102

vt 0.448242 0.092773

vt 0.448242 0.114258

vt 0.595703 0.114258

vt 0.448242 0.011230

vt 0.595703 0.011230

vt 0.595703 0.011230

vt 0.557129 0.072266

vt 0.448242 0.093262

vt 0.448242 0.101563

vt 0.595703 0.218750

vt 0.448242 0.116699

vt 0.448242 0.218750

vt 0.448242 0.149902

vt 0.595703 0.218750

vt 0.448242 0.218750

vt 0.547852 0.113770

vt 0.595703 0.011230

vt 0.448242 0.142090

vt 0.448242 0.129883

vt 0.448242 0.011230

vt 0.595703 0.114258

vt 0.595703 0.011230

vt 0.448242 0.114258

vt 0.448242 0.077637

vt 0.595703 0.064941

vt 0.448242 0.064941

vt 0.448242 0.050781

vt 0.530762 0.011230

vt 0.448242 0.011230

vt 0.595703 0.011230

vt 0.448242 0.019043

vt 0.595703 0.114258

vt 0.448242 0.030273

vt 0.448242 0.114258



vn -0.003922 0.992157 -0.035294

vn -0.003922 1.000000 -0.003922

vn -0.027451 0.992157 -0.003922

vn 0.035294 0.992157 -0.003922

vn -0.003922 1.000000 -0.003922

vn 0.003922 0.992157 0.019608

vn -0.027451 0.992157 0.003922

vn -0.003922 1.000000 -0.003922

vn -0.003922 1.000000 -0.003922

vn -0.003922 1.000000 -0.003922

vn -0.003922 1.000000 -0.003922

vn 0.035294 0.992157 -0.003922

vn 0.058824 0.992157 -0.003922

vn 0.003922 0.992157 0.019608

vn -0.019608 0.992157 0.027451

vn -0.027451 0.992157 0.003922

vn -0.035294 0.992157 0.003922

vn -0.003922 1.000000 -0.003922

vn -0.003922 1.000000 -0.003922

vn 0.011765 0.992157 -0.003922

vn -0.003922 1.000000 -0.003922

vn -0.003922 0.992157 -0.035294

vn -0.003922 1.000000 -0.003922

vn -0.003922 1.000000 -0.003922

vn -0.003922 0.992157 -0.003922

vn -0.043137 0.992157 0.003922

vn 0.019608 0.992157 -0.035294

vn 0.003922 0.992157 -0.003922

vn -0.003922 1.000000 -0.003922

vn -0.003922 1.000000 -0.003922

vn -0.003922 1.000000 -0.003922

vn -0.003922 1.000000 -0.003922

vn -0.003922 0.992157 -0.003922

vn -0.035294 0.992157 0.003922

vn 0.058824 0.992157 -0.074510

vn -0.003922 1.000000 -0.003922

vn 0.003922 0.992157 -0.003922

vn -0.003922 1.000000 -0.003922

vn 0.011765 0.992157 0.003922

vn -0.003922 1.000000 -0.003922

vn -0.003922 1.000000 -0.003922

vn -0.003922 1.000000 -0.003922

vn -0.003922 1.000000 -0.003922

vn 0.113726 0.984314 0.113726

vn -0.027451 0.992157 -0.011765

vn -0.003922 1.000000 -0.003922

vn -0.003922 1.000000 -0.003922

vn -0.003922 1.000000 -0.003922

vn -0.003922 1.000000 -0.003922

vn 0.035294 0.992157 0.003922

vn -0.003922 0.992157 -0.003922

vn -0.003922 0.992157 0.035294

vn -0.050980 0.992157 0.003922

vn -0.003922 1.000000 -0.003922

vn 0.027451 0.992157 -0.003922

vn -0.003922 1.000000 -0.003922

vn -0.035294 0.992157 0.058824

vn -0.003922 1.000000 -0.003922

vn -0.011765 0.992157 -0.003922

vn -0.003922 1.000000 -0.003922

f 1/1/1 2/2/2 3/3/3

f 3/3/3 2/2/2 4/4/4

f 4/4/4 5/5/5 3/3/3

f 5/5/5 4/4/4 6/6/6

f 5/5/5 6/6/6 7/7/7

f 7/7/7 8/8/8 5/5/5

f 8/8/8 7/7/7 9/9/9

f 10/10/10 11/11/11 12/12/12

f 12/12/12 11/11/11 13/13/13

f 12/12/12 13/13/13 14/14/14

f 13/13/13 15/15/15 14/14/14

f 14/14/14 15/15/15 16/16/16

f 17/17/17 16/16/16 15/15/15

f 18/18/18 16/16/16 17/17/17

f 18/18/18 17/17/17 19/19/19

f 20/20/20 21/21/21 22/22/22

f 20/20/20 23/23/23 21/21/21

f 23/23/23 20/20/20 24/24/24

f 24/24/24 25/25/25 23/23/23

f 24/24/24 26/26/26 25/25/25

f 26/26/26 27/27/27 25/25/25

f 27/27/27 28/28/28 25/25/25

f 29/29/29 25/25/25 28/28/28

f 28/28/28 30/30/30 29/29/29

f 30/30/30 31/31/31 29/29/29

f 32/32/32 30/30/30 33/33/33

f 34/34/34 33/33/33 30/30/30

f 34/34/34 35/35/35 33/33/33

f 33/33/33 36/36/36 32/32/32

f 35/35/35 37/37/37 33/33/33

f 37/37/37 36/36/36 33/33/33

f 38/38/38 36/36/36 37/37/37

f 39/39/39 40/40/40 41/41/41

f 40/40/40 39/39/39 42/42/42

f 42/42/42 43/43/43 40/40/40

f 44/44/44 42/42/42 39/39/39

f 45/45/45 42/42/42 44/44/44

f 42/42/42 46/46/46 43/43/43

f 46/46/46 42/42/42 45/45/45

f 47/47/47 48/48/48 46/46/46

f 47/47/47 46/46/46 49/49/49

f 50/50/50 47/47/47 49/49/49

f 47/47/47 50/50/50 51/51/51

f 52/52/52 51/51/51 50/50/50

f 53/53/53 51/51/51 52/52/52

f 53/53/53 54/54/54 51/51/51

f 54/54/54 53/53/53 55/55/55

f 51/51/51 54/54/54 56/56/56

f 55/55/55 57/57/57 54/54/54

f 54/54/54 58/58/58 56/56/56

f 57/57/57 59/59/59 54/54/54

f 54/54/54 60/60/60 58/58/58

f 60/60/60 54/54/54 59/59/59

