# UnrealEd OBJ exporter (_Internal)



v -172.415771 203.044922 -0.000000

v -138.383789 203.044922 -119.282227

v -173.639648 203.044922 -119.282227

v -137.159912 203.044922 -0.000000

v -138.383789 203.044922 113.950867

v -172.415771 203.044922 -0.000000

v -173.639648 203.044922 113.950867

v -137.159912 203.044922 -0.000000

v -137.159912 203.044922 -0.000000

v -87.330322 203.648041 -118.713867

v -138.383789 203.044922 -119.282227

v -90.922363 203.044922 0.511353

v -90.922363 202.980835 114.597900

v -90.922363 203.044922 0.511353

v -138.383789 203.044922 113.950867

v -137.159912 203.044922 -0.000000

v -83.801514 158.437042 117.418640

v -85.092529 156.121506 3.393768

v -90.922363 202.980835 114.597900

v -90.922363 203.044922 0.511353

v -90.922363 203.044922 0.511353

v -80.194092 158.437042 -115.895813

v -87.330322 203.648041 -118.713867

v -85.092529 156.121506 3.393768

v 44.090332 62.645359 -1.582764

v 55.229980 42.696419 -121.620422

v 48.443359 66.330147 -121.033997

v 50.876953 38.921040 -2.260040

v 52.178711 42.696419 109.979828

v 44.090332 62.645359 -1.582764

v 45.392090 66.330147 110.477325

v 50.876953 38.921040 -2.260040

v -15.855225 93.895348 4.026825

v -20.368896 128.296432 -114.192688

v -20.368896 126.121269 5.108948

v -15.855225 97.128120 -115.242065

v -15.855225 97.128120 118.750000

v -20.368896 126.121269 5.108948

v -20.368896 128.296432 119.726929

v -15.855225 93.895348 4.026825

v -85.092529 156.121506 3.393768

v -52.983154 159.180557 -114.243988

v -80.194092 158.437042 -115.895813

v -56.575195 156.121506 5.104370

v -56.575195 158.513336 119.045105

v -56.575195 156.121506 5.104370

v -83.801514 158.437042 117.418640

v -85.092529 156.121506 3.393768

v -53.820313 128.296432 119.783813

v -53.820313 126.121269 5.710968

v -56.575195 158.513336 119.045105

v -56.575195 156.121506 5.104370

v -56.575195 156.121506 5.104370

v -46.636230 128.296432 -113.678009

v -52.983154 159.180557 -114.243988

v -53.820313 126.121269 5.710968

v -20.368896 128.296432 119.726929

v -53.820313 126.121269 5.710968

v -53.820313 128.296432 119.783813

v -20.368896 126.121269 5.108948

v -20.368896 126.121269 5.108948

v -46.636230 128.296432 -113.678009

v -53.820313 126.121269 5.710968

v -20.368896 128.296432 -114.192688

v 16.801025 97.128120 116.128784

v -15.855225 93.895348 4.026825

v -15.855225 97.128120 118.750000

v 7.337891 93.895348 2.911926

v 7.337891 93.895348 2.911926

v -15.855225 97.128120 -115.242065

v -15.855225 93.895348 4.026825

v 8.188965 97.128120 -116.412781

v 18.723389 66.330147 112.710632

v 7.337891 93.895348 2.911926

v 16.801025 97.128120 116.128784

v 9.260254 62.645359 0.785004

v 9.260254 62.645359 0.785004

v 8.188965 97.128120 -116.412781

v 7.337891 93.895348 2.911926

v 10.111328 66.330147 -118.500732

v 45.392090 66.330147 110.477325

v 9.260254 62.645359 0.785004

v 18.723389 66.330147 112.710632

v 44.090332 62.645359 -1.582764

v 44.090332 62.645359 -1.582764

v 10.111328 66.330147 -118.500732

v 9.260254 62.645359 0.785004

v 48.443359 66.330147 -121.033997

v 96.740479 42.696419 111.804443

v 93.184570 38.921040 -1.383575

v 52.178711 42.696419 109.979828

v 50.876953 38.921040 -2.260040

v 93.184570 38.921040 -1.383575

v 55.229980 42.696419 -121.620422

v 50.876953 38.921040 -2.260040

v 96.740479 42.696419 -120.695129

v 106.840576 1.474309 112.972412

v 103.284668 1.474309 -0.718689

v 96.740479 42.696419 111.804443

v 93.184570 38.921040 -1.383575

v 93.184570 38.921040 -1.383575

v 106.840576 1.474309 -119.935883

v 96.740479 42.696419 -120.695129

v 103.284668 1.474309 -0.718689

v 154.142578 1.474304 113.950867

v 150.586670 1.474304 -0.013733

v 119.020996 1.474306 113.333862

v 115.465088 1.474306 -0.477264

v 106.840576 1.474309 112.972412

v 103.284668 1.474309 -0.718689

v 115.465088 1.474306 -0.477264

v 106.840576 1.474309 -119.935883

v 103.284668 1.474309 -0.718689

v 119.020996 1.474306 -119.711304

v 150.586670 1.474304 -0.013733

v 154.142578 1.474304 -119.286743



vt 0.440918 0.218750

vt 0.293457 0.173340

vt 0.293457 0.218750

vt 0.440918 0.173340

vt 0.293457 0.173340

vt 0.440918 0.218750

vt 0.293457 0.218750

vt 0.440918 0.173340

vt 0.440918 0.173340

vt 0.293457 0.111816

vt 0.293457 0.173340

vt 0.440918 0.111816

vt 0.293457 0.111816

vt 0.440918 0.111816

vt 0.293457 0.173340

vt 0.440918 0.173340

vt 0.293457 0.111328

vt 0.440918 0.111328

vt 0.293457 0.086914

vt 0.440918 0.086914

vt 0.440918 0.086914

vt 0.293457 0.111328

vt 0.293457 0.086914

vt 0.440918 0.111328

vt 0.440918 0.010742

vt 0.293457 0.059082

vt 0.293457 0.010742

vt 0.440918 0.059082

vt 0.293457 0.059082

vt 0.440918 0.010742

vt 0.293457 0.010742

vt 0.440918 0.059082

vt 0.440918 0.067383

vt 0.293457 0.010742

vt 0.440918 0.010742

vt 0.293457 0.067383

vt 0.293457 0.067383

vt 0.440918 0.010742

vt 0.293457 0.010742

vt 0.440918 0.067383

vt 0.440918 0.173340

vt 0.293457 0.111816

vt 0.293457 0.173340

vt 0.440918 0.111816

vt 0.293457 0.111816

vt 0.440918 0.111816

vt 0.293457 0.173340

vt 0.440918 0.173340

vt 0.293457 0.111328

vt 0.440918 0.111328

vt 0.293457 0.086914

vt 0.440918 0.086914

vt 0.440918 0.086914

vt 0.293457 0.111328

vt 0.293457 0.086914

vt 0.440918 0.111328

vt 0.293457 0.173340

vt 0.440918 0.111328

vt 0.293457 0.111328

vt 0.440918 0.173340

vt 0.440918 0.173340

vt 0.293457 0.111328

vt 0.440918 0.111328

vt 0.293457 0.173340

vt 0.293457 0.100586

vt 0.440918 0.067383

vt 0.293457 0.067383

vt 0.440918 0.100586

vt 0.440918 0.100586

vt 0.293457 0.067383

vt 0.440918 0.067383

vt 0.293457 0.100586

vt 0.293457 0.141113

vt 0.440918 0.100586

vt 0.293457 0.100586

vt 0.440918 0.141113

vt 0.440918 0.141113

vt 0.293457 0.100586

vt 0.440918 0.100586

vt 0.293457 0.141113

vt 0.293457 0.173340

vt 0.440918 0.141113

vt 0.293457 0.141113

vt 0.440918 0.173340

vt 0.440918 0.173340

vt 0.293457 0.141113

vt 0.440918 0.141113

vt 0.293457 0.173340

vt 0.293457 0.127441

vt 0.440918 0.127441

vt 0.293457 0.059082

vt 0.440918 0.059082

vt 0.440918 0.127441

vt 0.293457 0.059082

vt 0.440918 0.059082

vt 0.293457 0.127441

vt 0.293457 0.162598

vt 0.440918 0.162598

vt 0.293457 0.127441

vt 0.440918 0.127441

vt 0.440918 0.127441

vt 0.293457 0.162598

vt 0.293457 0.127441

vt 0.440918 0.162598

vt 0.293457 0.218750

vt 0.440918 0.218750

vt 0.293457 0.173340

vt 0.440918 0.173340

vt 0.293457 0.162598

vt 0.440918 0.162598

vt 0.440918 0.173340

vt 0.293457 0.162598

vt 0.440918 0.162598

vt 0.293457 0.173340

vt 0.440918 0.218750

vt 0.293457 0.218750



vn -0.003922 1.000000 -0.003922

vn -0.003922 1.000000 -0.003922

vn -0.003922 1.000000 -0.003922

vn -0.003922 1.000000 -0.003922

vn -0.003922 1.000000 -0.003922

vn -0.003922 1.000000 -0.003922

vn -0.003922 1.000000 -0.003922

vn -0.003922 1.000000 -0.003922

vn -0.011765 0.992157 -0.003922

vn -0.011765 0.992157 -0.003922

vn -0.011765 0.992157 -0.003922

vn -0.011765 0.992157 -0.003922

vn -0.003922 0.992157 -0.003922

vn -0.003922 0.992157 -0.003922

vn -0.003922 0.992157 -0.003922

vn -0.003922 0.992157 -0.003922

vn 0.984314 0.137255 -0.011765

vn 0.984314 0.137255 -0.011765

vn 0.984314 0.137255 -0.011765

vn 0.984314 0.137255 -0.011765

vn 0.984314 0.137255 0.035294

vn 0.984314 0.137255 0.035294

vn 0.984314 0.137255 0.035294

vn 0.984314 0.137255 0.035294

vn 0.952941 0.270588 0.043137

vn 0.952941 0.270588 0.043137

vn 0.952941 0.270588 0.043137

vn 0.952941 0.270588 0.043137

vn 0.960784 0.270588 -0.027451

vn 0.960784 0.270588 -0.027451

vn 0.960784 0.270588 -0.027451

vn 0.960784 0.270588 -0.027451

vn 0.984314 0.137255 -0.003922

vn 0.984314 0.137255 -0.003922

vn 0.984314 0.137255 -0.003922

vn 0.984314 0.137255 -0.003922

vn 0.984314 0.137255 -0.003922

vn 0.984314 0.137255 -0.003922

vn 0.984314 0.137255 -0.003922

vn 0.984314 0.137255 -0.003922

vn -0.019608 0.992157 0.019608

vn -0.019608 0.992157 0.019608

vn -0.019608 0.992157 0.019608

vn -0.019608 0.992157 0.019608

vn -0.003922 0.992157 -0.027451

vn -0.003922 0.992157 -0.027451

vn -0.003922 0.992157 -0.027451

vn -0.003922 0.992157 -0.027451

vn 0.992157 0.090196 -0.003922

vn 0.992157 0.090196 -0.003922

vn 0.992157 0.090196 -0.003922

vn 0.992157 0.090196 -0.003922

vn 0.984314 0.145098 0.043137

vn 0.984314 0.145098 0.043137

vn 0.984314 0.145098 0.043137

vn 0.984314 0.145098 0.043137

vn -0.003922 0.992157 -0.019608

vn -0.003922 0.992157 -0.019608

vn -0.003922 0.992157 -0.019608

vn -0.003922 0.992157 -0.019608

vn -0.003922 0.992157 0.011765

vn -0.003922 0.992157 0.011765

vn -0.003922 0.992157 0.011765

vn -0.003922 0.992157 0.011765

vn -0.003922 0.992157 -0.035294

vn -0.003922 0.992157 -0.035294

vn -0.003922 0.992157 -0.035294

vn -0.003922 0.992157 -0.035294

vn -0.003922 0.992157 0.019608

vn -0.003922 0.992157 0.019608

vn -0.003922 0.992157 0.019608

vn -0.003922 0.992157 0.019608

vn 0.992157 0.066667 -0.090196

vn 0.992157 0.066667 -0.090196

vn 0.992157 0.066667 -0.090196

vn 0.992157 0.066667 -0.090196

vn 0.992157 0.058824 0.003922

vn 0.992157 0.058824 0.003922

vn 0.992157 0.058824 0.003922

vn 0.992157 0.058824 0.003922

vn -0.003922 0.992157 -0.035294

vn -0.003922 0.992157 -0.035294

vn -0.003922 0.992157 -0.035294

vn -0.003922 0.992157 -0.035294

vn -0.003922 0.992157 0.027451

vn -0.003922 0.992157 0.027451

vn -0.003922 0.992157 0.027451

vn -0.003922 0.992157 0.027451

vn -0.003922 0.992157 -0.035294

vn -0.003922 0.992157 -0.035294

vn -0.003922 0.992157 -0.035294

vn -0.003922 0.992157 -0.035294

vn -0.003922 0.992157 0.027451

vn -0.003922 0.992157 0.027451

vn -0.003922 0.992157 0.027451

vn -0.003922 0.992157 0.027451

vn 0.960784 0.247059 -0.035294

vn 0.960784 0.247059 -0.035294

vn 0.960784 0.247059 -0.035294

vn 0.960784 0.247059 -0.035294

vn 0.960784 0.247059 0.027451

vn 0.960784 0.247059 0.027451

vn 0.960784 0.247059 0.027451

vn 0.960784 0.247059 0.027451

vn -0.003922 1.000000 -0.003922

vn -0.003922 1.000000 -0.003922

vn -0.003922 1.000000 -0.003922

vn -0.003922 1.000000 -0.003922

vn -0.003922 1.000000 -0.003922

vn -0.003922 1.000000 -0.003922

vn -0.003922 1.000000 -0.003922

vn -0.003922 1.000000 -0.003922

vn -0.003922 1.000000 -0.003922

vn -0.003922 1.000000 -0.003922

vn -0.003922 1.000000 -0.003922

vn -0.003922 1.000000 -0.003922

f 1/1/1 2/2/2 3/3/3

f 2/2/2 1/1/1 4/4/4

f 5/5/5 6/6/6 7/7/7

f 6/6/6 5/5/5 8/8/8

f 9/9/9 10/10/10 11/11/11

f 10/10/10 9/9/9 12/12/12

f 13/13/13 14/14/14 15/15/15

f 15/15/15 14/14/14 16/16/16

f 17/17/17 18/18/18 19/19/19

f 19/19/19 18/18/18 20/20/20

f 21/21/21 22/22/22 23/23/23

f 22/22/22 21/21/21 24/24/24

f 25/25/25 26/26/26 27/27/27

f 26/26/26 25/25/25 28/28/28

f 29/29/29 30/30/30 31/31/31

f 30/30/30 29/29/29 32/32/32

f 33/33/33 34/34/34 35/35/35

f 34/34/34 33/33/33 36/36/36

f 37/37/37 38/38/38 39/39/39

f 38/38/38 37/37/37 40/40/40

f 41/41/41 42/42/42 43/43/43

f 42/42/42 41/41/41 44/44/44

f 45/45/45 46/46/46 47/47/47

f 47/47/47 46/46/46 48/48/48

f 49/49/49 50/50/50 51/51/51

f 51/51/51 50/50/50 52/52/52

f 53/53/53 54/54/54 55/55/55

f 54/54/54 53/53/53 56/56/56

f 57/57/57 58/58/58 59/59/59

f 58/58/58 57/57/57 60/60/60

f 61/61/61 62/62/62 63/63/63

f 62/62/62 61/61/61 64/64/64

f 65/65/65 66/66/66 67/67/67

f 66/66/66 65/65/65 68/68/68

f 69/69/69 70/70/70 71/71/71

f 70/70/70 69/69/69 72/72/72

f 73/73/73 74/74/74 75/75/75

f 74/74/74 73/73/73 76/76/76

f 77/77/77 78/78/78 79/79/79

f 78/78/78 77/77/77 80/80/80

f 81/81/81 82/82/82 83/83/83

f 82/82/82 81/81/81 84/84/84

f 85/85/85 86/86/86 87/87/87

f 86/86/86 85/85/85 88/88/88

f 89/89/89 90/90/90 91/91/91

f 91/91/91 90/90/90 92/92/92

f 93/93/93 94/94/94 95/95/95

f 94/94/94 93/93/93 96/96/96

f 97/97/97 98/98/98 99/99/99

f 99/99/99 98/98/98 100/100/100

f 101/101/101 102/102/102 103/103/103

f 102/102/102 101/101/101 104/104/104

f 105/105/105 106/106/106 107/107/107

f 107/107/107 106/106/106 108/108/108

f 107/107/107 108/108/108 109/109/109

f 109/109/109 108/108/108 110/110/110

f 111/111/111 112/112/112 113/113/113

f 112/112/112 111/111/111 114/114/114

f 115/115/115 114/114/114 111/111/111

f 114/114/114 115/115/115 116/116/116

