# UnrealEd OBJ exporter (_Internal)



v 183.759277 0.000000 203.906738

v 0.000000 0.000000 -0.000000

v 0.000000 -0.000003 206.545654

v 197.269287 0.000000 -0.000000

v 0.000000 -0.000003 206.545654

v 0.000000 0.000000 -0.000000

v -206.775146 0.000000 206.545654

v -206.775146 0.000000 -0.000000

v 0.000000 0.000000 -206.545410

v -206.775146 0.000000 -0.000000

v 0.000000 0.000000 -0.000000

v -206.775146 0.000000 -206.545410

v 0.000000 0.000000 -0.000000

v 117.852295 0.000000 -206.545410

v 0.000000 0.000000 -206.545410

v 152.147949 10.229731 -206.545410

v 206.775146 0.000000 -206.545410

v 197.269287 0.000000 -0.000000



vt 0.795410 0.415527

vt 0.985352 0.223633

vt 0.985352 0.415527

vt 0.795410 0.223633

vt 0.985352 0.415527

vt 0.985352 0.223633

vt 0.795410 0.415527

vt 0.795410 0.223633

vt 0.985352 0.415527

vt 0.795410 0.223633

vt 0.985352 0.223633

vt 0.795410 0.415527

vt 0.985352 0.223633

vt 0.877441 0.415527

vt 0.985352 0.415527

vt 0.845703 0.415527

vt 0.795410 0.415527

vt 0.795410 0.223633



vn -0.003922 1.000000 -0.003922

vn -0.003922 0.992157 -0.003922

vn -0.003922 1.000000 -0.003922

vn -0.003922 1.000000 -0.003922

vn -0.003922 1.000000 -0.003922

vn -0.003922 0.992157 -0.003922

vn -0.003922 1.000000 -0.003922

vn -0.003922 1.000000 -0.003922

vn -0.003922 1.000000 -0.003922

vn -0.003922 1.000000 -0.003922

vn -0.003922 0.992157 -0.003922

vn -0.003922 1.000000 -0.003922

vn -0.003922 0.992157 -0.003922

vn -0.113725 0.992157 -0.066667

vn -0.003922 1.000000 -0.003922

vn 0.074510 0.984314 0.105882

vn 0.043137 0.992157 0.043137

vn -0.003922 1.000000 -0.003922

f 1/1/1 2/2/2 3/3/3

f 2/2/2 1/1/1 4/4/4

f 5/5/5 6/6/6 7/7/7

f 7/7/7 6/6/6 8/8/8

f 9/9/9 10/10/10 11/11/11

f 10/10/10 9/9/9 12/12/12

f 13/13/13 14/14/14 15/15/15

f 13/13/13 16/16/16 14/14/14

f 13/13/13 17/17/17 16/16/16

f 18/18/18 17/17/17 13/13/13

