# UnrealEd OBJ exporter (_Internal)



v -7.273499 -0.000004 229.298218

v 157.349426 -0.000004 229.298218

v 157.349426 -0.000004 5.241821

v -7.273499 -0.000004 5.241821

v 157.349426 -0.000004 5.241821

v -6.344910 0.000004 -230.089233

v 171.896423 -0.000004 -221.088257

v -7.273499 -0.000004 229.298218

v -162.320618 -0.000004 7.296997

v -159.958801 -0.000004 230.089233

v -7.273499 -0.000004 5.241821

v -7.273499 -0.000004 5.241821

v -171.896423 -0.000004 -218.814819

v -162.320618 -0.000004 7.296997

v -6.344910 0.000004 -230.089233



vt 0.150146 0.999535

vt -0.001711 0.999547

vt -0.001595 0.791138

vt 0.150391 0.791138

vt -0.001595 0.791138

vt 0.150146 0.999535

vt -0.001711 0.999547

vt 0.150146 0.999535

vt -0.001595 0.791138

vt -0.001711 0.999547

vt 0.150391 0.791138

vt 0.150391 0.791138

vt -0.001711 0.999547

vt -0.001595 0.791138

vt 0.150146 0.999535



vn -0.003922 1.000000 -0.003922

vn -0.003922 1.000000 -0.003922

vn -0.003922 1.000000 -0.003922

vn -0.003922 1.000000 -0.003922

vn -0.003922 1.000000 -0.003922

vn -0.003922 1.000000 -0.003922

vn -0.003922 1.000000 -0.003922

vn -0.003922 1.000000 -0.003922

vn -0.003922 1.000000 -0.003922

vn -0.003922 1.000000 -0.003922

vn -0.003922 1.000000 -0.003922

vn -0.003922 1.000000 -0.003922

vn -0.003922 1.000000 -0.003922

vn -0.003922 1.000000 -0.003922

vn -0.003922 1.000000 -0.003922

f 1/1/1 2/2/2 3/3/3

f 1/1/1 3/3/3 4/4/4

f 4/4/4 5/5/5 6/6/6

f 5/5/5 7/7/7 6/6/6

f 8/8/8 9/9/9 10/10/10

f 9/9/9 8/8/8 11/11/11

f 12/12/12 13/13/13 14/14/14

f 13/13/13 12/12/12 15/15/15

