# UnrealEd OBJ exporter (_Internal)



v 26.094587 44.571392 -219.499359

v 30.384888 114.628265 -213.137772

v 56.107601 44.571396 -213.063828

v 56.107601 114.624245 -213.063766

v 26.492676 114.627106 -213.063782

v 26.094587 44.571392 -219.499359

v 17.500778 44.571392 -213.063812

v 30.384888 114.628265 -213.137772

v 27.079605 116.603020 -212.307770

v 26.492676 114.627106 -213.063782

v 30.862000 116.603340 -212.293823

v 27.079605 116.603020 -212.307770

v 56.107601 117.635208 -143.299789

v 56.107601 116.604446 -212.244965

v 56.107601 114.624245 -213.063766

v 30.862000 116.603340 -212.293823

v 30.384888 114.628265 -213.137772

v -54.353760 44.571392 -213.063782

v -54.353760 114.624245 -213.063766

v -38.179657 114.625320 -213.105881

v -37.916901 44.571392 -216.711243

v -27.486496 114.624306 -213.074417

v -27.525496 44.571392 -213.984192

v -38.179657 114.625320 -213.105881

v -38.179657 114.625320 -213.105881

v -27.930679 116.603233 -212.298050

v -38.461746 116.603973 -212.265442

v -54.353760 114.624245 -213.063766

v -38.461746 116.603973 -212.265442

v -54.353760 116.604446 -212.244965

v -54.353760 117.635178 -143.299789

v -27.930679 116.603233 -212.298050

v -14.653153 116.602020 -212.351929

v -27.486496 114.624306 -213.074417

v -14.017975 114.624886 -213.033218

v -27.525496 44.571392 -213.984192

v -14.017975 114.624886 -213.033218

v -12.745986 44.571392 -210.416840

v -14.017975 114.624886 -213.033218

v 17.500778 44.571392 -213.063812

v 26.492676 114.627106 -213.063782

v 27.079605 116.603020 -212.307770

v 56.107601 117.635208 -143.299789

v -54.353760 117.635178 -143.299789

v 56.107601 118.913025 -137.888794

v 56.107601 117.635208 -143.299789

v -54.353760 118.913025 -137.888794

v 56.107601 118.913025 -124.747162

v -54.353760 118.913025 -124.747162

v -54.353760 118.913040 138.046341

v 56.107601 118.913040 124.542053

v -54.353760 118.913040 124.542053

v 56.107601 118.913040 138.046356

v -54.353760 116.492607 142.653870

v 56.107601 116.492607 142.653870

v 20.441803 116.492615 212.395248

v -28.566208 116.492615 212.355209

v 19.766052 115.675957 213.121536

v -28.166977 115.674919 213.084412

v -28.166977 115.674919 213.084412

v 11.446075 44.571388 213.121567

v -31.975281 44.571388 209.854965

v -54.353760 115.673584 213.121567

v -54.353760 44.571388 213.121567

v -28.566208 116.492615 212.355209

v -54.353760 115.673584 213.121567

v -54.353760 116.492615 212.302505

v -54.353760 116.492607 142.653870

v 29.056213 44.571388 216.210434

v 19.766052 115.675957 213.121536

v 31.509720 115.674538 213.156677

v 20.441803 116.492615 212.395248

v 56.107601 44.571388 213.121567

v 31.509720 115.674538 213.156677

v 56.107601 115.673584 213.121567

v 31.956131 116.492615 212.349304

v 56.107601 116.492607 142.653870

v 56.107601 116.492615 212.302505

v 56.107601 116.492607 119.531219

v -54.353760 118.913040 124.542053

v 56.107601 118.913040 124.542053

v -54.353760 116.492615 119.531212

v 56.107601 116.492607 -117.994423

v -54.353760 116.492607 -117.994423

v -54.353760 118.913025 -124.747162

v 56.107601 118.913025 -124.747162



vt 0.786621 0.249512

vt 0.787598 0.218750

vt 0.799805 0.249023

vt 0.798828 0.218750

vt 0.786133 0.218750

vt 0.786621 0.249512

vt 0.781738 0.249512

vt 0.787598 0.218750

vt 0.786133 0.217773

vt 0.786133 0.218750

vt 0.787598 0.217773

vt 0.786133 0.217773

vt 0.798828 0.187988

vt 0.798828 0.217773

vt 0.798828 0.218750

vt 0.787598 0.217773

vt 0.787598 0.218750

vt 0.750000 0.249512

vt 0.750488 0.218750

vt 0.757813 0.218750

vt 0.757324 0.249512

vt 0.762207 0.218750

vt 0.762207 0.249512

vt 0.757813 0.218750

vt 0.757813 0.218750

vt 0.762207 0.217773

vt 0.757324 0.217773

vt 0.750488 0.218750

vt 0.757324 0.217773

vt 0.750488 0.217773

vt 0.750488 0.187988

vt 0.762207 0.217773

vt 0.768066 0.217773

vt 0.762207 0.218750

vt 0.768066 0.218750

vt 0.762207 0.249512

vt 0.768066 0.218750

vt 0.768555 0.249512

vt 0.768066 0.218750

vt 0.781738 0.249512

vt 0.786133 0.218750

vt 0.786133 0.217773

vt 0.798828 0.187988

vt 0.750488 0.187988

vt 0.798828 0.185547

vt 0.798828 0.187988

vt 0.750488 0.185547

vt 0.798828 0.179688

vt 0.750488 0.179688

vt 0.750488 0.064453

vt 0.798828 0.070313

vt 0.750488 0.070313

vt 0.798828 0.064453

vt 0.750488 0.062500

vt 0.798828 0.062500

vt 0.783203 0.032227

vt 0.761719 0.032227

vt 0.782715 0.031738

vt 0.762207 0.031738

vt 0.762207 0.031738

vt 0.779297 0.000977

vt 0.760254 0.000977

vt 0.750488 0.031738

vt 0.750488 0.000977

vt 0.761719 0.032227

vt 0.750488 0.031738

vt 0.750488 0.032227

vt 0.750488 0.062500

vt 0.787109 0.000977

vt 0.782715 0.031738

vt 0.788086 0.031738

vt 0.783203 0.032227

vt 0.798828 0.000977

vt 0.788086 0.031738

vt 0.798828 0.031738

vt 0.788086 0.032227

vt 0.798828 0.062500

vt 0.798828 0.032227

vt 0.798828 0.072754

vt 0.750488 0.070313

vt 0.798828 0.070313

vt 0.750488 0.072754

vt 0.798828 0.176758

vt 0.750488 0.176758

vt 0.750488 0.179688

vt 0.798828 0.179688



vn -0.192157 0.058824 -0.984314

vn -0.090196 0.223529 -0.976471

vn 0.113726 0.035294 -1.000000

vn 0.058824 0.215686 -0.976471

vn -0.145098 0.200000 -0.976471

vn -0.192157 0.058824 -0.984314

vn -0.247059 0.027451 -0.976471

vn -0.090196 0.223529 -0.976471

vn -0.003922 0.819608 -0.576471

vn -0.145098 0.200000 -0.976471

vn -0.003922 0.827451 -0.568627

vn -0.003922 0.819608 -0.576471

vn -0.003922 0.992157 -0.129412

vn -0.003922 0.827451 -0.560784

vn 0.058824 0.215686 -0.976471

vn -0.003922 0.827451 -0.568627

vn -0.090196 0.223529 -0.976471

vn -0.113725 0.019608 -1.000000

vn -0.058823 0.207843 -0.976471

vn -0.003922 0.207843 -0.984314

vn 0.003922 0.027451 -1.000000

vn 0.058824 0.184314 -0.984314

vn 0.121569 0.003922 -0.992157

vn -0.003922 0.207843 -0.984314

vn -0.003922 0.207843 -0.984314

vn -0.003922 0.819608 -0.576471

vn -0.003922 0.819608 -0.568627

vn -0.058823 0.207843 -0.976471

vn -0.003922 0.819608 -0.568627

vn -0.003922 0.827451 -0.560784

vn -0.003922 0.992157 -0.129412

vn -0.003922 0.819608 -0.576471

vn -0.003922 0.811765 -0.584314

vn 0.058824 0.184314 -0.984314

vn 0.019608 0.160784 -0.992157

vn 0.121569 0.003922 -0.992157

vn 0.019608 0.160784 -0.992157

vn 0.043137 -0.019608 -1.000000

vn 0.019608 0.160784 -0.992157

vn -0.247059 0.027451 -0.976471

vn -0.145098 0.200000 -0.976471

vn -0.003922 0.819608 -0.576471

vn -0.003922 0.992157 -0.129412

vn -0.003922 0.992157 -0.129412

vn -0.003922 0.992157 -0.121569

vn -0.003922 0.992157 -0.129412

vn -0.003922 0.992157 -0.121569

vn -0.003922 0.984314 0.168628

vn -0.003922 0.984314 0.168628

vn -0.003922 0.968628 0.239216

vn -0.003922 0.968628 -0.223529

vn -0.003922 0.968628 -0.223529

vn -0.003922 0.968628 0.239216

vn -0.003922 0.968628 0.239216

vn -0.003922 0.968628 0.239216

vn -0.003922 0.913726 0.396078

vn -0.003922 0.913726 0.396078

vn -0.043137 0.356863 0.929412

vn 0.003922 0.349020 0.929412

vn 0.003922 0.349020 0.929412

vn -0.074510 -0.003922 0.992157

vn 0.011765 -0.027451 0.992157

vn 0.035294 0.356863 0.929412

vn 0.066667 -0.027451 0.992157

vn -0.003922 0.913726 0.396078

vn 0.035294 0.356863 0.929412

vn -0.003922 0.913726 0.388235

vn -0.003922 0.968628 0.239216

vn -0.027451 0.019608 0.992157

vn -0.043137 0.356863 0.929412

vn -0.011765 0.380392 0.921569

vn -0.003922 0.913726 0.396078

vn 0.058824 0.019608 0.992157

vn -0.011765 0.380392 0.921569

vn 0.027451 0.388235 0.913726

vn -0.003922 0.913726 0.388235

vn -0.003922 0.968628 0.239216

vn -0.003922 0.921569 0.380392

vn -0.003922 0.968628 -0.223529

vn -0.003922 0.968628 -0.223529

vn -0.003922 0.968628 -0.223529

vn -0.003922 0.968628 -0.223529

vn -0.003922 0.984314 0.168628

vn -0.003922 0.984314 0.168628

vn -0.003922 0.984314 0.168628

vn -0.003922 0.984314 0.168628

f 1/1/1 2/2/2 3/3/3

f 3/3/3 2/2/2 4/4/4

f 5/5/5 6/6/6 7/7/7

f 6/6/6 5/5/5 8/8/8

f 9/9/9 8/8/8 10/10/10

f 8/8/8 9/9/9 11/11/11

f 11/11/11 12/12/12 13/13/13

f 14/14/14 11/11/11 13/13/13

f 15/15/15 16/16/16 14/14/14

f 16/16/16 15/15/15 17/17/17

f 18/18/18 19/19/19 20/20/20

f 20/20/20 21/21/21 18/18/18

f 22/22/22 23/23/23 21/21/21

f 21/21/21 24/24/24 22/22/22

f 25/25/25 26/26/26 22/22/22

f 26/26/26 25/25/25 27/27/27

f 28/28/28 29/29/29 25/25/25

f 29/29/29 28/28/28 30/30/30

f 27/27/27 30/30/30 31/31/31

f 32/32/32 27/27/27 31/31/31

f 33/33/33 32/32/32 31/31/31

f 33/33/33 34/34/34 32/32/32

f 34/34/34 33/33/33 35/35/35

f 36/36/36 34/34/34 37/37/37

f 37/37/37 38/38/38 36/36/36

f 38/38/38 39/39/39 40/40/40

f 40/40/40 39/39/39 41/41/41

f 35/35/35 42/42/42 41/41/41

f 42/42/42 35/35/35 33/33/33

f 33/33/33 43/43/43 42/42/42

f 44/44/44 43/43/43 33/33/33

f 44/44/44 45/45/45 46/46/46

f 45/45/45 44/44/44 47/47/47

f 47/47/47 48/48/48 45/45/45

f 48/48/48 47/47/47 49/49/49

f 50/50/50 51/51/51 52/52/52

f 51/51/51 50/50/50 53/53/53

f 54/54/54 53/53/53 50/50/50

f 53/53/53 54/54/54 55/55/55

f 56/56/56 55/55/55 54/54/54

f 56/56/56 54/54/54 57/57/57

f 56/56/56 57/57/57 58/58/58

f 58/58/58 57/57/57 59/59/59

f 60/60/60 61/61/61 58/58/58

f 61/61/61 60/60/60 62/62/62

f 63/63/63 62/62/62 59/59/59

f 62/62/62 63/63/63 64/64/64

f 65/65/65 66/66/66 59/59/59

f 66/66/66 65/65/65 67/67/67

f 67/67/67 65/65/65 68/68/68

f 69/69/69 70/70/70 61/61/61

f 70/70/70 69/69/69 71/71/71

f 58/58/58 71/71/71 72/72/72

f 73/73/73 74/74/74 69/69/69

f 74/74/74 73/73/73 75/75/75

f 76/76/76 72/72/72 71/71/71

f 71/71/71 75/75/75 76/76/76

f 72/72/72 76/76/76 77/77/77

f 78/78/78 76/76/76 75/75/75

f 76/76/76 78/78/78 77/77/77

f 79/79/79 80/80/80 81/81/81

f 80/80/80 79/79/79 82/82/82

f 79/79/79 83/83/83 82/82/82

f 82/82/82 83/83/83 84/84/84

f 83/83/83 85/85/85 84/84/84

f 85/85/85 83/83/83 86/86/86

