# UnrealEd OBJ exporter (_Internal)



v -118.761368 108.533417 53.236115

v -115.487930 37.190269 39.624458

v -118.761368 37.190269 53.236118

v -118.761368 108.533417 53.236115

v -122.550919 37.190269 31.549232

v -115.487930 37.190269 39.624458

v 119.582138 108.533409 24.944920

v 122.100204 37.190269 24.122515

v 114.351669 37.190269 7.561387

v 119.582138 108.533417 -46.763885

v 123.197372 37.190269 -26.254431

v 119.582138 37.190269 -46.763882

v 119.582138 108.533409 24.944920

v 114.351669 37.190269 7.561387

v 119.582138 108.533417 -46.763885

v 118.073593 109.166336 -46.763882

v 119.582138 108.533409 24.944920

v 118.073593 109.166351 25.283159

v 118.073593 109.166336 53.236118

v 119.582138 108.533417 53.236115

v 119.582138 108.533409 24.944920

v 119.582138 37.190269 53.236118

v 119.582138 108.533409 24.944920

v 122.100204 37.190269 24.122515

v -118.761368 108.533417 -46.763885

v -118.761368 37.190269 -46.763882

v -112.305313 37.190269 -16.449139

v -122.550919 37.190269 31.549232

v -118.761368 108.533417 53.236115

v -118.761368 108.533417 -46.763885

v -118.761368 108.533417 53.236115

v -117.252823 109.166336 -46.763882

v -117.252823 109.166336 53.236118

v -117.252823 109.166336 53.236118

v 118.073593 109.166336 53.236118

v 118.073593 109.166351 25.283159

v -117.252823 109.166336 -46.763882

v 118.073593 109.166336 -46.763882



vt 0.800293 0.387207

vt 0.806152 0.418945

vt 0.800293 0.418457

vt 0.800293 0.387207

vt 0.810547 0.418457

vt 0.806152 0.418945

vt 0.812988 0.282227

vt 0.812988 0.250488

vt 0.820801 0.250488

vt 0.844727 0.282227

vt 0.835449 0.250488

vt 0.844727 0.250488

vt 0.812988 0.282227

vt 0.820801 0.250488

vt 0.844727 0.282227

vt 0.844727 0.282715

vt 0.812988 0.282227

vt 0.812988 0.282715

vt 0.800293 0.282715

vt 0.800293 0.282227

vt 0.812988 0.282227

vt 0.800293 0.250488

vt 0.812988 0.282227

vt 0.812988 0.250488

vt 0.844727 0.387207

vt 0.844727 0.418457

vt 0.831543 0.418457

vt 0.810547 0.418457

vt 0.800293 0.387207

vt 0.844727 0.387207

vt 0.800293 0.387207

vt 0.844727 0.386230

vt 0.800781 0.386719

vt 0.800781 0.386719

vt 0.800293 0.282715

vt 0.812988 0.282715

vt 0.844727 0.386230

vt 0.844727 0.282715



vn -0.843137 0.537255 -0.019608

vn -0.960784 -0.098039 0.278431

vn -0.976471 -0.003922 -0.239216

vn -0.843137 0.537255 -0.019608

vn -0.968627 -0.090196 0.247059

vn -0.960784 -0.098039 0.278431

vn 0.827451 0.552941 0.011765

vn 0.976471 0.027451 -0.200000

vn 0.984314 0.003922 -0.137255

vn 0.827451 0.545098 0.019608

vn 0.992157 -0.011765 -0.027451

vn 0.984314 -0.003922 -0.176471

vn 0.827451 0.552941 0.011765

vn 0.984314 0.003922 -0.137255

vn 0.827451 0.545098 0.019608

vn 0.192157 0.976471 -0.003922

vn 0.827451 0.552941 0.011765

vn 0.192157 0.976471 -0.003922

vn 0.192157 0.976471 -0.003922

vn 0.819608 0.560784 0.019608

vn 0.827451 0.552941 0.011765

vn 0.992157 0.011765 0.043137

vn 0.827451 0.552941 0.011765

vn 0.976471 0.027451 -0.200000

vn -0.843137 0.545098 -0.003922

vn -0.984314 -0.003922 0.207843

vn -1.000000 -0.019608 0.027451

vn -0.968627 -0.090196 0.247059

vn -0.843137 0.537255 -0.019608

vn -0.843137 0.545098 -0.003922

vn -0.843137 0.537255 -0.019608

vn -0.200000 0.976471 -0.003922

vn -0.200000 0.976471 -0.003922

vn -0.200000 0.976471 -0.003922

vn 0.192157 0.976471 -0.003922

vn 0.192157 0.976471 -0.003922

vn -0.200000 0.976471 -0.003922

vn 0.192157 0.976471 -0.003922

f 1/1/1 2/2/2 3/3/3

f 4/4/4 5/5/5 6/6/6

f 7/7/7 8/8/8 9/9/9

f 10/10/10 11/11/11 12/12/12

f 11/11/11 13/13/13 14/14/14

f 13/13/13 11/11/11 15/15/15

f 16/16/16 17/17/17 15/15/15

f 17/17/17 16/16/16 18/18/18

f 18/18/18 19/19/19 20/20/20

f 20/20/20 21/21/21 18/18/18

f 22/22/22 23/23/23 20/20/20

f 23/23/23 22/22/22 24/24/24

f 25/25/25 26/26/26 27/27/27

f 28/28/28 29/29/29 27/27/27

f 29/29/29 30/30/30 27/27/27

f 31/31/31 32/32/32 30/30/30

f 33/33/33 32/32/32 31/31/31

f 34/34/34 35/35/35 36/36/36

f 36/36/36 37/37/37 34/34/34

f 37/37/37 36/36/36 38/38/38

