# UnrealEd OBJ exporter (_Internal)



v 80.226089 115.974586 30.874929

v 78.516228 82.618652 -0.000023

v 80.226074 115.974586 -30.874973

v -82.183945 116.655762 -39.053406

v 79.604202 116.655762 -32.162266

v -4.307831 116.655762 -116.074257

v -82.844032 115.978050 -37.765072

v -82.825195 75.683846 0.000023

v -82.844002 115.978058 37.765106

v -82.183929 116.655762 39.053444

v -4.307770 116.655762 116.074257

v 79.604225 116.655762 32.162224

v 80.226089 115.974586 30.874929

v 79.604202 116.655762 -32.162266

v 79.604225 116.655762 32.162224

v 80.226074 115.974586 -30.874973

v -82.183929 116.655762 39.053444

v -82.183945 116.655762 -39.053406

v -82.844002 115.978058 37.765106

v -82.844032 115.978050 -37.765072

v -82.183929 116.655762 39.053444

v 79.604202 116.655762 -32.162266

v -82.183945 116.655762 -39.053406

v 79.604225 116.655762 32.162224



vt 0.916504 0.154785

vt 0.916504 0.172852

vt 0.898438 0.172852

vt 0.848633 0.127441

vt 0.897949 0.172852

vt 0.848633 0.172852

vt 0.848633 0.126953

vt 0.848633 0.104980

vt 0.871094 0.104980

vt 0.871582 0.104980

vt 0.916504 0.104980

vt 0.916504 0.153809

vt 0.916504 0.154785

vt 0.897949 0.172852

vt 0.916504 0.153809

vt 0.898438 0.172852

vt 0.871582 0.104980

vt 0.848633 0.127441

vt 0.871094 0.104980

vt 0.848633 0.126953

vt 0.871582 0.104980

vt 0.897949 0.172852

vt 0.848633 0.127441

vt 0.916504 0.153809



vn 0.850981 0.521569 -0.003922

vn 0.992157 -0.058823 -0.003922

vn 0.850981 0.521569 -0.003922

vn -0.160784 0.984314 -0.003922

vn 0.160784 0.984314 -0.003922

vn -0.003922 1.000000 -0.003922

vn -0.835294 0.552941 -0.003922

vn -1.000000 -0.003922 -0.003922

vn -0.835294 0.552941 -0.003922

vn -0.160784 0.984314 -0.003922

vn -0.003922 1.000000 -0.003922

vn 0.160784 0.984314 -0.003922

vn 0.850981 0.521569 -0.003922

vn 0.160784 0.984314 -0.003922

vn 0.160784 0.984314 -0.003922

vn 0.850981 0.521569 -0.003922

vn -0.160784 0.984314 -0.003922

vn -0.160784 0.984314 -0.003922

vn -0.835294 0.552941 -0.003922

vn -0.835294 0.552941 -0.003922

vn -0.160784 0.984314 -0.003922

vn 0.160784 0.984314 -0.003922

vn -0.160784 0.984314 -0.003922

vn 0.160784 0.984314 -0.003922

f 1/1/1 2/2/2 3/3/3

f 4/4/4 5/5/5 6/6/6

f 7/7/7 8/8/8 9/9/9

f 10/10/10 11/11/11 12/12/12

f 13/13/13 14/14/14 15/15/15

f 14/14/14 13/13/13 16/16/16

f 17/17/17 18/18/18 19/19/19

f 19/19/19 18/18/18 20/20/20

f 21/21/21 22/22/22 23/23/23

f 22/22/22 21/21/21 24/24/24

