# UnrealEd OBJ exporter (_Internal)



v 17.801952 -35.595703 151.362549

v -17.801952 -35.588379 151.362549

v 17.801952 -35.595703 114.802490

v -17.801952 -35.588379 114.802490

v -14.520117 -32.321777 106.414795

v 14.519531 -32.321777 106.414795

v -17.801952 -35.588379 114.802490

v 17.801952 -35.595703 114.802490

v 14.519531 -32.321777 -106.414795

v 14.519531 -32.321777 106.414795

v -14.520117 -32.321777 106.414795

v -14.520117 -32.321777 -106.414795

v 17.801952 -35.606689 200.000000

v -17.801952 -35.606689 200.000000

v 17.801952 -35.606689 164.297485

v -17.801952 -35.606689 164.297485

v -17.801952 -35.588379 151.362549

v 14.536524 -32.340088 156.434570

v -14.537109 -32.340088 156.434570

v 17.801952 -35.595703 151.362549

v 14.536524 -32.340088 158.767700

v -17.801952 -35.606689 164.297485

v -14.537109 -32.340088 158.767700

v 17.801952 -35.606689 164.297485

v -14.537109 -32.340088 156.434570

v 14.536524 -32.340088 156.434570

v -14.537109 -32.340088 158.767700

v 14.536524 -32.340088 158.767700

v -17.801952 -35.606689 -114.802490

v 17.801952 -35.606689 -151.362671

v 17.801952 -35.606689 -114.801758

v -17.801952 -35.606689 -151.362671

v -17.801952 -35.606689 -114.802490

v 17.801952 -35.606689 -114.801758

v 14.519531 -32.321777 -106.414795

v -14.520117 -32.321777 -106.414795

v 17.801952 -35.606689 -164.297485

v -17.801952 -35.606689 -164.297485

v -17.801952 -35.606689 -200.000000

v 17.801952 -35.606689 -200.000000

v -17.801952 -35.606689 -151.362671

v 14.536524 -32.340088 -156.434692

v 17.801952 -35.606689 -151.362671

v -14.537109 -32.340088 -156.434692

v -17.801952 -35.606689 -164.297485

v 17.801952 -35.606689 -164.297485

v 14.536524 -32.329102 -158.767700

v -14.537109 -32.321777 -158.767700

v 14.536524 -32.340088 -156.434692

v -14.537109 -32.340088 -156.434692

v -14.537109 -32.321777 -158.767700

v 14.536524 -32.329102 -158.767700

v 17.801952 -0.000000 200.000000

v 17.801952 -35.606689 200.000000

v 17.801952 -35.606689 164.297485

v 17.801952 -0.000000 164.297485

v 14.536524 -32.340088 158.767700

v 14.536524 -3.262939 158.767700

v 14.536524 -32.340088 156.434570

v 14.536524 -3.262939 156.434570

v 17.801952 -35.595703 151.362549

v 17.801952 -0.000000 151.362549

v 17.801952 -35.595703 114.802490

v 17.801952 -0.000000 114.802490

v 14.519531 -32.321777 106.414795

v 14.519531 -0.000000 106.414795

v 14.519531 -32.321777 -106.414795

v 14.519531 -0.000000 -106.414795

v 17.801952 -0.000000 -114.802490

v 17.801952 -35.606689 -114.801758

v 17.801952 -35.606689 -151.362671

v 17.801952 -0.000000 -151.362671

v 14.536524 -32.340088 -156.434692

v 14.536524 -3.262939 -156.434692

v 14.536524 -32.329102 -158.767700

v 14.536524 -3.262939 -158.767700

v 17.801952 -0.000000 -164.297485

v 17.801952 -35.606689 -164.297485

v 17.801952 -0.000000 -200.000000

v 17.801952 -35.606689 -200.000000

v -17.801952 -35.606689 -164.297485

v -17.801952 -0.000000 -200.000000

v -17.801952 -35.606689 -200.000000

v -17.801952 -0.000000 -164.297485

v -14.537109 -32.340088 -158.767700

v -14.537109 -3.262939 -158.767700

v -14.537109 -32.340088 -156.434692

v -14.537109 -3.262939 -156.434692

v -17.801952 -35.595703 -151.362671

v -17.801952 -0.000000 -151.362671

v -17.801952 -35.595703 -114.802490

v -17.801952 -0.000000 -114.802490

v -14.520117 -32.321777 -106.414795

v -14.520117 -0.000000 -106.414795

v -14.520117 -32.321777 106.414795

v -14.520117 -0.000000 106.414795

v -17.801952 -0.000000 114.802490

v -17.801952 -35.606689 114.801758

v -17.801952 -35.606689 151.362549

v -17.801952 -0.000000 151.362549

v -14.537109 -32.340088 156.434570

v -14.537109 -3.262939 156.434570

v -14.537109 -32.329102 158.767700

v -14.537109 -3.262939 158.767700

v -17.801952 -0.000000 164.297485

v -17.801952 -35.606689 164.297485

v -17.801952 -0.000000 200.000000

v -17.801952 -35.606689 200.000000

v 17.801952 -0.000000 200.000000

v 17.801952 -0.000000 164.297485

v -17.801952 -0.000000 200.000000

v -17.801952 -0.000000 164.297485

v 14.536524 -3.262939 158.767700

v -14.537109 -3.262939 158.767700

v 14.536524 -3.262939 156.434570

v -14.537109 -3.262939 156.434570

v -17.801952 -0.000000 151.362549

v 17.801952 -0.000000 151.362549

v 17.801952 -0.000000 114.802490

v -17.801952 -0.000000 114.802490

v 14.519531 -0.000000 106.414795

v -14.520117 -0.000000 106.414795

v 14.519531 -0.000000 -106.414795

v -14.520117 -0.000000 -106.414795

v -17.801952 -0.000000 -114.802490

v 17.801952 -0.000000 -114.802490

v -17.801952 -0.000000 -151.362671

v 17.801952 -0.000000 -151.362671

v 14.536524 -3.262939 -156.434692

v -14.537109 -3.262939 -156.434692

v -14.537109 -3.262939 -158.767700

v 14.536524 -3.262939 -158.767700

v -17.801952 -0.000000 -164.297485

v 17.801952 -0.000000 -164.297485

v -17.801952 -0.000000 -200.000000

v 17.801952 -0.000000 -200.000000



vt 0.459717 0.968857

vt 0.478027 0.968857

vt 0.459717 0.946259

vt 0.478027 0.946259

vt 0.476318 0.941071

vt 0.461426 0.941071

vt 0.478027 0.946259

vt 0.459717 0.946259

vt 0.461182 0.809448

vt 0.461426 0.941071

vt 0.476318 0.941071

vt 0.476074 0.809448

vt 0.459717 0.999750

vt 0.478027 0.999750

vt 0.459717 0.977676

vt 0.478027 0.977676

vt 0.478027 0.968857

vt 0.461426 0.972427

vt 0.476318 0.972427

vt 0.459717 0.968857

vt 0.461426 0.973862

vt 0.478027 0.977676

vt 0.476318 0.973862

vt 0.459717 0.977676

vt 0.476318 0.972427

vt 0.461426 0.972427

vt 0.476318 0.973862

vt 0.461426 0.973862

vt 0.477783 0.804199

vt 0.459473 0.781616

vt 0.459473 0.804199

vt 0.477783 0.781616

vt 0.477783 0.804199

vt 0.459473 0.804199

vt 0.461182 0.809448

vt 0.476074 0.809448

vt 0.459229 0.772827

vt 0.477783 0.772827

vt 0.477539 0.750732

vt 0.459229 0.750732

vt 0.477783 0.781616

vt 0.460938 0.778076

vt 0.459473 0.781616

vt 0.476074 0.778076

vt 0.477783 0.772827

vt 0.459229 0.772827

vt 0.460938 0.776611

vt 0.476074 0.776611

vt 0.460938 0.778076

vt 0.476074 0.778076

vt 0.476074 0.776611

vt 0.460938 0.776611

vt 0.457275 0.999750

vt 0.438965 0.999750

vt 0.438965 0.977219

vt 0.457275 0.977219

vt 0.440674 0.973785

vt 0.455811 0.973785

vt 0.440674 0.972580

vt 0.455811 0.972580

vt 0.438965 0.969360

vt 0.457520 0.969360

vt 0.439209 0.946228

vt 0.457520 0.946228

vt 0.440918 0.941071

vt 0.457520 0.941071

vt 0.441650 0.809570

vt 0.458496 0.809570

vt 0.458496 0.804321

vt 0.439941 0.804321

vt 0.440186 0.781128

vt 0.458496 0.781128

vt 0.441895 0.777832

vt 0.456787 0.777832

vt 0.441895 0.776733

vt 0.456787 0.776733

vt 0.458496 0.773193

vt 0.440186 0.773193

vt 0.458740 0.750732

vt 0.440430 0.750732

vt 0.438965 0.977219

vt 0.457275 0.999750

vt 0.438965 0.999750

vt 0.457275 0.977219

vt 0.440674 0.973785

vt 0.455811 0.973785

vt 0.440674 0.972580

vt 0.455811 0.972580

vt 0.438965 0.969360

vt 0.457520 0.969360

vt 0.439209 0.946228

vt 0.457520 0.946228

vt 0.440918 0.941071

vt 0.457520 0.941071

vt 0.441650 0.809570

vt 0.458496 0.809570

vt 0.458496 0.804321

vt 0.439941 0.804321

vt 0.440186 0.781128

vt 0.458496 0.781128

vt 0.441895 0.777832

vt 0.456787 0.777832

vt 0.441895 0.776733

vt 0.456787 0.776733

vt 0.458496 0.773193

vt 0.440186 0.773193

vt 0.458740 0.750732

vt 0.440430 0.750732

vt 0.459717 0.999750

vt 0.459717 0.977676

vt 0.478027 0.999750

vt 0.478027 0.977676

vt 0.461426 0.973862

vt 0.476318 0.973862

vt 0.461426 0.972427

vt 0.476318 0.972427

vt 0.478027 0.968857

vt 0.459717 0.968857

vt 0.459717 0.946259

vt 0.478027 0.946259

vt 0.461426 0.941071

vt 0.476318 0.941071

vt 0.461182 0.809448

vt 0.476074 0.809448

vt 0.477783 0.804199

vt 0.459473 0.804199

vt 0.477783 0.781616

vt 0.459473 0.781616

vt 0.460938 0.778076

vt 0.476074 0.778076

vt 0.476074 0.776611

vt 0.460938 0.776611

vt 0.477783 0.772827

vt 0.459229 0.772827

vt 0.477539 0.750732

vt 0.459229 0.750732



vn -0.003922 -1.000000 -0.003922

vn -0.003922 -1.000000 -0.003922

vn -0.003922 -1.000000 -0.003922

vn -0.003922 -1.000000 -0.003922

vn -0.003922 -0.937255 -0.364706

vn -0.003922 -0.937255 -0.364706

vn -0.003922 -0.937255 -0.364706

vn -0.003922 -0.937255 -0.364706

vn -0.003922 -1.000000 -0.003922

vn -0.003922 -1.000000 -0.003922

vn -0.003922 -1.000000 -0.003922

vn -0.003922 -1.000000 -0.003922

vn -0.003922 -1.000000 -0.003922

vn -0.003922 -1.000000 -0.003922

vn -0.003922 -1.000000 -0.003922

vn -0.003922 -1.000000 -0.003922

vn -0.003922 -0.843137 0.537255

vn -0.003922 -0.843137 0.537255

vn -0.003922 -0.843137 0.537255

vn -0.003922 -0.843137 0.537255

vn -0.003922 -0.866667 -0.513725

vn -0.003922 -0.866667 -0.513725

vn -0.003922 -0.866667 -0.513725

vn -0.003922 -0.866667 -0.513725

vn -0.003922 -1.000000 -0.003922

vn -0.003922 -1.000000 -0.003922

vn -0.003922 -1.000000 -0.003922

vn -0.003922 -1.000000 -0.003922

vn -0.003922 -1.000000 -0.003922

vn -0.003922 -1.000000 -0.003922

vn -0.003922 -1.000000 -0.003922

vn -0.003922 -1.000000 -0.003922

vn -0.003922 -0.937255 0.356863

vn -0.003922 -0.937255 0.356863

vn -0.003922 -0.937255 0.356863

vn -0.003922 -0.937255 0.356863

vn -0.003922 -1.000000 -0.003922

vn -0.003922 -1.000000 -0.003922

vn -0.003922 -1.000000 -0.003922

vn -0.003922 -1.000000 -0.003922

vn -0.003922 -0.843137 -0.545098

vn -0.003922 -0.843137 -0.545098

vn -0.003922 -0.843137 -0.545098

vn -0.003922 -0.843137 -0.545098

vn -0.003922 -0.866667 0.505883

vn -0.003922 -0.866667 0.505883

vn -0.003922 -0.866667 0.505883

vn -0.003922 -0.866667 0.505883

vn -0.003922 -1.000000 -0.011765

vn -0.003922 -1.000000 -0.011765

vn -0.003922 -1.000000 -0.011765

vn -0.003922 -1.000000 -0.011765

vn 1.000000 -0.003922 -0.003922

vn 1.000000 -0.003922 -0.003922

vn 0.992157 -0.003922 -0.058823

vn 0.992157 -0.003922 -0.058823

vn 0.905882 -0.003922 -0.419608

vn 0.905882 -0.003922 -0.419608

vn 0.898039 -0.003922 0.435294

vn 0.898039 -0.003922 0.435294

vn 0.992157 -0.003922 0.050980

vn 0.992157 -0.003922 0.050980

vn 0.992157 -0.003922 -0.058823

vn 0.992157 -0.003922 -0.074510

vn 0.992157 -0.003922 -0.019608

vn 0.992157 -0.003922 -0.019608

vn 0.992157 -0.003922 0.011765

vn 0.992157 -0.003922 0.011765

vn 0.992157 -0.003922 0.066667

vn 0.992157 -0.003922 0.050980

vn 0.992157 -0.003922 -0.058823

vn 0.992157 -0.003922 -0.058823

vn 0.898039 -0.003922 -0.443137

vn 0.898039 -0.003922 -0.443137

vn 0.905882 -0.003922 0.411765

vn 0.905882 -0.003922 0.411765

vn 0.992157 -0.003922 0.050980

vn 0.992157 -0.003922 0.050980

vn 1.000000 -0.003922 -0.003922

vn 1.000000 -0.003922 -0.003922

vn -1.000000 -0.003922 0.050980

vn -1.000000 -0.003922 -0.003922

vn -1.000000 -0.003922 -0.003922

vn -1.000000 -0.003922 0.050980

vn -0.913725 -0.003922 0.411765

vn -0.913725 -0.003922 0.411765

vn -0.905882 -0.003922 -0.443137

vn -0.905882 -0.003922 -0.443137

vn -1.000000 -0.003922 -0.058823

vn -1.000000 -0.003922 -0.058823

vn -1.000000 -0.003922 0.050980

vn -1.000000 -0.003922 0.066667

vn -1.000000 -0.003922 0.011765

vn -1.000000 -0.003922 0.011765

vn -1.000000 -0.003922 -0.019608

vn -1.000000 -0.003922 -0.019608

vn -1.000000 -0.003922 -0.074510

vn -1.000000 -0.003922 -0.058823

vn -1.000000 -0.003922 0.050980

vn -1.000000 -0.003922 0.050980

vn -0.905882 -0.003922 0.435294

vn -0.905882 -0.003922 0.435294

vn -0.913725 -0.003922 -0.419608

vn -0.913725 -0.003922 -0.419608

vn -1.000000 -0.003922 -0.058823

vn -1.000000 -0.003922 -0.058823

vn -1.000000 -0.003922 -0.003922

vn -1.000000 -0.003922 -0.003922

vn -0.003922 1.000000 -0.003922

vn -0.003922 0.992157 -0.058823

vn -0.003922 1.000000 -0.003922

vn -0.003922 0.992157 -0.058823

vn -0.003922 0.905882 -0.419608

vn -0.003922 0.905882 -0.419608

vn -0.003922 0.898039 0.435294

vn -0.003922 0.898039 0.435294

vn -0.003922 0.992157 0.050980

vn -0.003922 0.992157 0.050980

vn -0.003922 1.000000 -0.003922

vn -0.003922 1.000000 -0.003922

vn -0.003922 1.000000 -0.003922

vn -0.003922 1.000000 -0.003922

vn -0.003922 1.000000 -0.003922

vn -0.003922 1.000000 -0.003922

vn -0.003922 1.000000 -0.003922

vn -0.003922 1.000000 -0.003922

vn -0.003922 0.992157 -0.058823

vn -0.003922 0.992157 -0.058823

vn -0.003922 0.898039 -0.443137

vn -0.003922 0.898039 -0.443137

vn -0.003922 0.905882 0.411765

vn -0.003922 0.905882 0.411765

vn -0.003922 0.992157 0.050980

vn -0.003922 0.992157 0.050980

vn -0.003922 1.000000 -0.003922

vn -0.003922 1.000000 -0.003922

f 1/1/1 2/2/2 3/3/3

f 2/2/2 4/4/4 3/3/3

f 5/5/5 6/6/6 7/7/7

f 8/8/8 7/7/7 6/6/6

f 9/9/9 10/10/10 11/11/11

f 11/11/11 12/12/12 9/9/9

f 13/13/13 14/14/14 15/15/15

f 14/14/14 16/16/16 15/15/15

f 17/17/17 18/18/18 19/19/19

f 18/18/18 17/17/17 20/20/20

f 21/21/21 22/22/22 23/23/23

f 24/24/24 22/22/22 21/21/21

f 25/25/25 26/26/26 27/27/27

f 28/28/28 27/27/27 26/26/26

f 29/29/29 30/30/30 31/31/31

f 30/30/30 29/29/29 32/32/32

f 33/33/33 34/34/34 35/35/35

f 33/33/33 35/35/35 36/36/36

f 37/37/37 38/38/38 39/39/39

f 37/37/37 39/39/39 40/40/40

f 41/41/41 42/42/42 43/43/43

f 42/42/42 41/41/41 44/44/44

f 45/45/45 46/46/46 47/47/47

f 45/45/45 47/47/47 48/48/48

f 49/49/49 50/50/50 51/51/51

f 49/49/49 51/51/51 52/52/52

f 53/53/53 54/54/54 55/55/55

f 53/53/53 55/55/55 56/56/56

f 56/56/56 55/55/55 57/57/57

f 56/56/56 57/57/57 58/58/58

f 58/58/58 57/57/57 59/59/59

f 58/58/58 59/59/59 60/60/60

f 61/61/61 60/60/60 59/59/59

f 61/61/61 62/62/62 60/60/60

f 62/62/62 61/61/61 63/63/63

f 62/62/62 63/63/63 64/64/64

f 64/64/64 63/63/63 65/65/65

f 64/64/64 65/65/65 66/66/66

f 65/65/65 67/67/67 66/66/66

f 66/66/66 67/67/67 68/68/68

f 68/68/68 67/67/67 69/69/69

f 70/70/70 69/69/69 67/67/67

f 71/71/71 69/69/69 70/70/70

f 69/69/69 71/71/71 72/72/72

f 73/73/73 72/72/72 71/71/71

f 72/72/72 73/73/73 74/74/74

f 75/75/75 74/74/74 73/73/73

f 74/74/74 75/75/75 76/76/76

f 75/75/75 77/77/77 76/76/76

f 78/78/78 77/77/77 75/75/75

f 77/77/77 78/78/78 79/79/79

f 78/78/78 80/80/80 79/79/79

f 81/81/81 82/82/82 83/83/83

f 82/82/82 81/81/81 84/84/84

f 85/85/85 84/84/84 81/81/81

f 85/85/85 86/86/86 84/84/84

f 87/87/87 86/86/86 85/85/85

f 87/87/87 88/88/88 86/86/86

f 89/89/89 88/88/88 87/87/87

f 89/89/89 90/90/90 88/88/88

f 91/91/91 90/90/90 89/89/89

f 92/92/92 90/90/90 91/91/91

f 93/93/93 92/92/92 91/91/91

f 93/93/93 94/94/94 92/92/92

f 95/95/95 94/94/94 93/93/93

f 96/96/96 94/94/94 95/95/95

f 95/95/95 97/97/97 96/96/96

f 97/97/97 95/95/95 98/98/98

f 99/99/99 97/97/97 98/98/98

f 97/97/97 99/99/99 100/100/100

f 101/101/101 100/100/100 99/99/99

f 100/100/100 101/101/101 102/102/102

f 103/103/103 102/102/102 101/101/101

f 102/102/102 103/103/103 104/104/104

f 103/103/103 105/105/105 104/104/104

f 106/106/106 105/105/105 103/103/103

f 106/106/106 107/107/107 105/105/105

f 107/107/107 106/106/106 108/108/108

f 109/109/109 110/110/110 111/111/111

f 111/111/111 110/110/110 112/112/112

f 112/112/112 110/110/110 113/113/113

f 112/112/112 113/113/113 114/114/114

f 114/114/114 113/113/113 115/115/115

f 114/114/114 115/115/115 116/116/116

f 115/115/115 117/117/117 116/116/116

f 117/117/117 115/115/115 118/118/118

f 118/118/118 119/119/119 117/117/117

f 117/117/117 119/119/119 120/120/120

f 120/120/120 119/119/119 121/121/121

f 120/120/120 121/121/121 122/122/122

f 121/121/121 123/123/123 122/122/122

f 122/122/122 123/123/123 124/124/124

f 123/123/123 125/125/125 124/124/124

f 125/125/125 123/123/123 126/126/126

f 126/126/126 127/127/127 125/125/125

f 127/127/127 126/126/126 128/128/128

f 129/129/129 127/127/127 128/128/128

f 127/127/127 129/129/129 130/130/130

f 129/129/129 131/131/131 130/130/130

f 131/131/131 129/129/129 132/132/132

f 132/132/132 133/133/133 131/131/131

f 133/133/133 132/132/132 134/134/134

f 134/134/134 135/135/135 133/133/133

f 135/135/135 134/134/134 136/136/136

