# UnrealEd OBJ exporter (_Internal)



v -2.739229 591.372437 -86.675537

v -2.739229 580.969910 -86.675537

v -2.739229 580.969910 -73.897949

v -2.739229 591.372437 86.711426

v -2.739229 580.969910 73.934082

v -2.739229 580.969910 86.711426

v -2.739229 594.203430 -85.605469

v -2.739229 591.372437 -86.675537

v -2.739229 594.203430 85.641602

v -2.739229 606.848083 -89.645508

v -2.739229 606.848083 89.681641

v -2.739229 612.931458 95.620605

v -2.739229 612.931458 -95.584717

v -2.836641 620.091064 97.168213

v -2.836641 620.091064 -97.168457

v 144.791779 612.931458 -95.584717

v -2.739229 612.931458 -95.584717

v -2.836641 620.091064 -97.168457

v 145.316925 620.091064 -97.168457

v 145.316925 620.091064 97.168213

v 144.791779 612.931458 -95.584717

v 145.316925 620.091064 -97.168457

v 144.791779 612.931458 95.620605

v -2.836641 620.091064 97.168213

v 144.791779 612.931458 95.620605

v 145.316925 620.091064 97.168213

v -2.739229 612.931458 95.620605

v 139.042755 606.848083 -89.645508

v -2.739229 606.848083 -89.645508

v -2.739229 612.931458 -95.584717

v 144.791779 612.931458 -95.584717

v 144.791779 612.931458 95.620605

v 139.042755 606.848083 -89.645508

v 144.791779 612.931458 -95.584717

v 139.042755 606.848083 89.681641

v -2.739229 612.931458 95.620605

v 139.042755 606.848083 89.681641

v 144.791779 612.931458 95.620605

v -2.739229 606.848083 89.681641

v 133.168732 594.203430 -85.605469

v -2.739229 594.203430 -85.605469

v -2.739229 606.848083 -89.645508

v 139.042755 606.848083 -89.645508

v 133.168732 594.203430 85.641602

v 139.042755 606.848083 -89.645508

v 139.042755 606.848083 89.681641

v 133.168732 594.203430 -85.605469

v -2.739229 606.848083 89.681641

v 133.168732 594.203430 85.641602

v 139.042755 606.848083 89.681641

v -2.739229 594.203430 85.641602

v -2.739229 591.372437 -86.675537

v 133.168732 594.203430 -85.605469

v 135.528595 591.372437 -86.675537

v -2.739229 594.203430 -85.605469

v 135.528595 591.372437 86.711426

v 133.168732 594.203430 -85.605469

v 133.168732 594.203430 85.641602

v 135.528595 591.372437 -86.675537

v 133.168732 594.203430 85.641602

v -2.739229 594.203430 85.641602

v -2.739229 591.372437 86.711426

v 135.528595 591.372437 86.711426

v 135.528595 580.969910 -86.675537

v -2.739229 580.969910 -86.675537

v -2.739229 591.372437 -86.675537

v 135.528595 591.372437 -86.675537

v 135.528595 580.969910 86.711426

v 135.528595 591.372437 -86.675537

v 135.528595 591.372437 86.711426

v 135.528595 580.969910 -86.675537

v 135.528595 591.372437 86.711426

v -2.739229 591.372437 86.711426

v -2.739229 580.969910 86.711426

v 135.528595 580.969910 86.711426

v 122.871613 580.969910 -73.897949

v -2.739229 580.969910 -73.897949

v -2.739229 580.969910 -86.675537

v 135.528595 580.969910 -86.675537

v 135.528595 580.969910 86.711426

v 122.871613 580.969910 -73.897949

v 135.528595 580.969910 -86.675537

v 122.871613 580.969910 73.934082

v -2.739229 580.969910 86.711426

v 122.871613 580.969910 73.934082

v 135.528595 580.969910 86.711426

v -2.739229 580.969910 73.934082

v -2.836641 620.091064 97.168213

v 145.316925 620.091064 97.168213

v -2.836641 620.091064 -97.168457

v 145.316925 620.091064 -97.168457

v -2.586885 609.123901 78.801514

v -1.860323 609.106140 -76.972412

v -4.566378 532.457458 75.746582

v -2.901339 532.414429 -74.178223

v -3.764132 550.762817 78.055420

v -3.764132 548.039978 -80.950439

v -3.764132 548.039978 84.308105

v -3.764132 550.762817 -74.697998

v -3.764132 531.488647 76.158691

v -3.764132 536.994324 -80.950439

v -3.764132 531.488647 -75.208496

v -3.764132 536.994324 84.308105

v -3.764132 548.039978 84.308105

v -3.764132 548.039978 -80.950439

v -3.764132 536.994324 -80.950439

v -2.739229 591.372437 86.711426

v -2.739229 580.969910 -73.897949

v -2.739229 580.969910 73.934082

v -2.739229 591.372437 -86.675537

v 126.731964 531.488647 -75.208496

v -3.764132 531.488647 -75.208496

v -3.764132 536.994324 -80.950439

v 134.290314 536.994324 -80.950439

v -3.764132 548.039978 -80.950439

v 134.290314 548.039978 -80.950439

v 123.996613 550.762817 -74.697998

v -3.764132 550.762817 -74.697998

v 128.159210 460.842468 -74.070068

v 125.391388 390.018341 75.002686

v 127.413116 388.688110 -73.640869

v 129.122345 460.561096 75.562988

v 127.496857 532.412720 -70.913086

v 131.093536 532.957092 72.730957

v 127.453888 609.074829 -73.604248

v 128.565704 610.194519 76.530518

v 125.391388 390.018341 75.002686

v 122.982452 460.473450 81.201172

v 122.484650 389.085602 78.222412

v 129.122345 460.561096 75.562988

v 122.787872 532.356140 81.336670

v 131.093536 532.957092 72.730957

v 122.953156 609.474915 80.079834

v 128.565704 610.194519 76.530518

v 122.947784 388.792847 -78.971436

v 128.159210 460.842468 -74.070068

v 127.413116 388.688110 -73.640869

v 123.119659 461.349487 -79.095947

v 127.496857 532.412720 -70.913086

v 127.356232 532.498108 -74.685059

v 127.453888 609.074829 -73.604248

v 122.794708 609.122314 -78.104736

v -3.764132 548.039978 84.308105

v 126.121857 550.762817 77.155273

v -3.764132 550.762817 78.055420

v 136.415314 548.039978 83.408203

v -3.764132 536.994324 84.308105

v 136.415314 536.994324 83.408203

v 128.856720 531.488647 75.258545

v -3.764132 531.488647 76.158691

v 134.290314 536.994324 -80.950439

v 128.856720 531.488647 75.258545

v 126.731964 531.488647 -75.208496

v 136.415314 536.994324 83.408203

v 134.290314 548.039978 -80.950439

v 136.415314 548.039978 83.408203

v 126.121857 550.762817 77.155273

v 123.996613 550.762817 -74.697998

v 122.484650 389.085602 78.222412

v -3.661592 460.462036 80.915771

v -3.176729 388.697784 78.693115

v 122.982452 460.473450 81.201172

v 122.787872 532.356140 81.336670

v -4.566378 532.457458 75.746582

v -2.586885 609.123901 78.801514

v 122.953156 609.474915 80.079834

v -1.612764 388.691284 -76.939453

v 123.119659 461.349487 -79.095947

v 122.947784 388.792847 -78.971436

v -2.791475 460.774231 -77.458252

v -2.901339 532.414429 -74.178223

v 127.356232 532.498108 -74.685059

v 122.794708 609.122314 -78.104736

v -1.860323 609.106140 -76.972412

v -2.791475 460.774231 -77.458252

v -4.566378 532.457458 75.746582

v -2.901339 532.414429 -74.178223

v -3.661592 460.462036 80.915771

v -3.176729 388.697784 78.693115

v -1.612764 388.691284 -76.939453



vt 0.322998 0.867554

vt 0.322021 0.867554

vt 0.322021 0.866455

vt 0.322754 0.852783

vt 0.321777 0.854004

vt 0.321777 0.852905

vt 0.323242 0.867554

vt 0.322998 0.867554

vt 0.322998 0.852905

vt 0.324219 0.867920

vt 0.323975 0.852539

vt 0.324707 0.852051

vt 0.324707 0.868408

vt 0.325195 0.851807

vt 0.325439 0.868530

vt 0.159180 0.671875

vt 0.159302 0.765503

vt 0.152954 0.765503

vt 0.153320 0.667236

vt 0.395020 0.772583

vt 0.246094 0.772949

vt 0.244995 0.772095

vt 0.394043 0.773315

vt 0.489990 0.818970

vt 0.396484 0.823730

vt 0.394531 0.819824

vt 0.490234 0.823608

vt 0.163940 0.675781

vt 0.164063 0.765503

vt 0.159302 0.765503

vt 0.159180 0.671875

vt 0.394043 0.773315

vt 0.249878 0.777710

vt 0.246094 0.772949

vt 0.390137 0.778198

vt 0.490234 0.823608

vt 0.400391 0.828491

vt 0.396484 0.823730

vt 0.490234 0.828369

vt 0.170532 0.679688

vt 0.170776 0.765503

vt 0.164063 0.765503

vt 0.163940 0.675781

vt 0.387451 0.785278

vt 0.249878 0.777710

vt 0.390137 0.778198

vt 0.252441 0.784912

vt 0.490234 0.828369

vt 0.404297 0.835083

vt 0.400391 0.828491

vt 0.490234 0.835083

vt 0.172119 0.765503

vt 0.170532 0.679688

vt 0.172119 0.677979

vt 0.170776 0.765503

vt 0.388184 0.787354

vt 0.252441 0.784912

vt 0.387451 0.785278

vt 0.251709 0.786987

vt 0.404297 0.835083

vt 0.490234 0.835083

vt 0.490234 0.836426

vt 0.402832 0.836670

vt 0.177002 0.677979

vt 0.177124 0.765503

vt 0.172119 0.765503

vt 0.172119 0.677979

vt 0.388184 0.792358

vt 0.251709 0.786987

vt 0.388184 0.787354

vt 0.251709 0.791992

vt 0.402832 0.836670

vt 0.490234 0.836426

vt 0.490234 0.841431

vt 0.402832 0.841553

vt 0.185303 0.686523

vt 0.185303 0.765503

vt 0.177124 0.765503

vt 0.177002 0.677979

vt 0.388184 0.792358

vt 0.260010 0.800415

vt 0.251709 0.791992

vt 0.379883 0.800781

vt 0.490234 0.841431

vt 0.411133 0.849854

vt 0.402832 0.841553

vt 0.490234 0.849609

vt 0.309814 0.854248

vt 0.319824 0.854126

vt 0.310059 0.867188

vt 0.319824 0.867065

vt 0.324219 0.853516

vt 0.324463 0.866821

vt 0.317627 0.853882

vt 0.317871 0.866455

vt 0.319336 0.853638

vt 0.319336 0.867065

vt 0.319092 0.853149

vt 0.319580 0.866577

vt 0.317627 0.853882

vt 0.318359 0.867065

vt 0.317871 0.866577

vt 0.318115 0.853149

vt 0.319092 0.853149

vt 0.319336 0.867065

vt 0.318359 0.867065

vt 0.322754 0.852783

vt 0.322021 0.866455

vt 0.321777 0.854004

vt 0.322998 0.867554

vt 0.393311 0.788940

vt 0.462402 0.788940

vt 0.462402 0.793335

vt 0.389160 0.793457

vt 0.462402 0.800537

vt 0.389160 0.800659

vt 0.394775 0.804077

vt 0.462402 0.804077

vt 0.040405 0.844482

vt 0.001019 0.926941

vt 0.000520 0.844971

vt 0.040466 0.926208

vt 0.080078 0.844971

vt 0.080322 0.924438

vt 0.122620 0.844604

vt 0.122864 0.926575

vt 0.001019 0.926941

vt 0.040405 0.930542

vt 0.000496 0.929565

vt 0.040466 0.926208

vt 0.079956 0.931152

vt 0.080322 0.924438

vt 0.122375 0.930298

vt 0.122864 0.926575

vt 0.000595 0.841064

vt 0.040405 0.844482

vt 0.000520 0.844971

vt 0.040588 0.840942

vt 0.080078 0.844971

vt 0.080139 0.842896

vt 0.122620 0.844604

vt 0.122681 0.840942

vt 0.484375 0.756348

vt 0.416748 0.752808

vt 0.484375 0.752930

vt 0.411133 0.756348

vt 0.484375 0.763550

vt 0.411133 0.763550

vt 0.415283 0.769043

vt 0.484375 0.769043

vt 0.394287 0.782715

vt 0.481201 0.787842

vt 0.397461 0.787842

vt 0.485596 0.782715

vt 0.394287 0.775391

vt 0.485596 0.775513

vt 0.482178 0.769775

vt 0.397705 0.769775

vt 0.000496 0.929565

vt 0.040436 0.998760

vt 0.000474 0.998760

vt 0.040405 0.930542

vt 0.079956 0.931152

vt 0.080139 0.998759

vt 0.122742 0.998759

vt 0.122375 0.930298

vt 0.000497 0.772583

vt 0.040588 0.840942

vt 0.000595 0.841064

vt 0.040466 0.772583

vt 0.080200 0.772583

vt 0.080139 0.842896

vt 0.122681 0.840942

vt 0.122742 0.772583

vt 0.312012 0.866699

vt 0.317627 0.853882

vt 0.317871 0.866455

vt 0.311768 0.853638

vt 0.306152 0.854004

vt 0.306396 0.866577



vn -1.000000 -0.003922 -0.003922

vn -1.000000 -0.003922 -0.003922

vn -1.000000 -0.003922 -0.003922

vn -1.000000 -0.003922 -0.003922

vn -1.000000 -0.003922 -0.003922

vn -1.000000 -0.003922 -0.003922

vn -1.000000 -0.003922 -0.003922

vn -1.000000 -0.003922 -0.003922

vn -1.000000 -0.003922 -0.003922

vn -1.000000 -0.003922 -0.003922

vn -1.000000 -0.003922 -0.003922

vn -1.000000 -0.011765 -0.003922

vn -1.000000 -0.011765 -0.003922

vn -1.000000 -0.019608 -0.003922

vn -1.000000 -0.019608 -0.003922

vn -0.003922 -0.223529 -0.976471

vn -0.003922 -0.223529 -0.976471

vn -0.003922 -0.223529 -0.976471

vn -0.003922 -0.223529 -0.976471

vn 0.992157 -0.074510 -0.003922

vn 0.992157 -0.074510 -0.003922

vn 0.992157 -0.074510 -0.003922

vn 0.992157 -0.074510 -0.003922

vn -0.003922 -0.215686 0.976471

vn -0.003922 -0.215686 0.976471

vn -0.003922 -0.215686 0.976471

vn -0.003922 -0.215686 0.976471

vn -0.003922 -0.701961 -0.717647

vn -0.003922 -0.701961 -0.717647

vn -0.003922 -0.701961 -0.717647

vn -0.003922 -0.701961 -0.717647

vn 0.725490 -0.694118 -0.003922

vn 0.725490 -0.694118 -0.003922

vn 0.725490 -0.694118 -0.003922

vn 0.725490 -0.694118 -0.003922

vn -0.003922 -0.701961 0.709804

vn -0.003922 -0.701961 0.709804

vn -0.003922 -0.701961 0.709804

vn -0.003922 -0.701961 0.709804

vn -0.003922 -0.309804 -0.952941

vn -0.003922 -0.309804 -0.952941

vn -0.003922 -0.309804 -0.952941

vn -0.003922 -0.309804 -0.952941

vn 0.905882 -0.427451 -0.003922

vn 0.905882 -0.427451 -0.003922

vn 0.905882 -0.427451 -0.003922

vn 0.905882 -0.427451 -0.003922

vn -0.003922 -0.309804 0.945098

vn -0.003922 -0.309804 0.945098

vn -0.003922 -0.309804 0.945098

vn -0.003922 -0.309804 0.945098

vn -0.003922 0.349020 -0.937255

vn -0.003922 0.349020 -0.937255

vn -0.003922 0.349020 -0.937255

vn -0.003922 0.349020 -0.937255

vn 0.764706 0.639216 -0.003922

vn 0.764706 0.639216 -0.003922

vn 0.764706 0.639216 -0.003922

vn 0.764706 0.639216 -0.003922

vn -0.003922 0.349020 0.929412

vn -0.003922 0.349020 0.929412

vn -0.003922 0.349020 0.929412

vn -0.003922 0.349020 0.929412

vn -0.003922 -0.003922 -1.000000

vn -0.003922 -0.003922 -1.000000

vn -0.003922 -0.003922 -1.000000

vn -0.003922 -0.003922 -1.000000

vn 1.000000 -0.003922 -0.003922

vn 1.000000 -0.003922 -0.003922

vn 1.000000 -0.003922 -0.003922

vn 1.000000 -0.003922 -0.003922

vn -0.003922 -0.003922 1.000000

vn -0.003922 -0.003922 1.000000

vn -0.003922 -0.003922 1.000000

vn -0.003922 -0.003922 1.000000

vn -0.003922 -1.000000 -0.003922

vn -0.003922 -1.000000 -0.003922

vn -0.003922 -1.000000 -0.003922

vn -0.003922 -1.000000 -0.003922

vn -0.003922 -1.000000 -0.003922

vn -0.003922 -1.000000 -0.003922

vn -0.003922 -1.000000 -0.003922

vn -0.003922 -1.000000 -0.003922

vn -0.003922 -1.000000 -0.003922

vn -0.003922 -1.000000 -0.003922

vn -0.003922 -1.000000 -0.003922

vn -0.003922 -1.000000 -0.003922

vn -0.003922 1.000000 -0.003922

vn -0.003922 1.000000 -0.003922

vn -0.003922 1.000000 -0.003922

vn -0.003922 1.000000 -0.003922

vn -1.000000 0.019608 -0.011765

vn -1.000000 0.019608 -0.011765

vn -1.000000 0.019608 -0.011765

vn -1.000000 0.019608 -0.011765

vn -1.000000 -0.003922 -0.003922

vn -1.000000 -0.003922 -0.003922

vn -1.000000 -0.003922 -0.003922

vn -1.000000 -0.003922 -0.003922

vn -1.000000 -0.003922 -0.003922

vn -1.000000 -0.003922 -0.003922

vn -1.000000 -0.003922 -0.003922

vn -1.000000 -0.003922 -0.003922

vn -1.000000 -0.003922 -0.003922

vn -1.000000 -0.003922 -0.003922

vn -1.000000 -0.003922 -0.003922

vn -1.000000 -0.003922 -0.003922

vn -1.000000 -0.003922 -0.003922

vn -1.000000 -0.003922 -0.003922

vn -1.000000 -0.003922 -0.003922

vn -0.003922 -0.725490 -0.694118

vn -0.003922 -0.725490 -0.694118

vn -0.003922 -0.325490 -0.952941

vn -0.003922 -0.207843 -0.984314

vn -0.003922 0.396078 -0.921569

vn -0.003922 0.176471 -0.984314

vn -0.003922 0.913726 -0.403922

vn -0.003922 0.913726 -0.403922

vn 0.992157 -0.027451 -0.011765

vn 0.992157 -0.035294 -0.003922

vn 0.992157 -0.035294 -0.003922

vn 0.992157 -0.027451 -0.011765

vn 0.992157 0.003922 -0.019608

vn 0.992157 0.003922 -0.019608

vn 0.992157 0.011765 -0.019608

vn 0.992157 0.011765 -0.019608

vn 0.694118 -0.043137 0.709804

vn 0.694118 -0.019608 0.709804

vn 0.694118 -0.043137 0.709804

vn 0.694118 -0.011765 0.709804

vn 0.678432 -0.003922 0.725490

vn 0.678432 -0.003922 0.725490

vn 0.654902 -0.003922 0.749020

vn 0.654902 -0.003922 0.749020

vn 0.733333 -0.011765 -0.678431

vn 0.788235 -0.003922 -0.615686

vn 0.733333 -0.011765 -0.678431

vn 0.788235 -0.003922 -0.607843

vn 0.858824 0.003922 -0.505882

vn 0.858824 0.003922 -0.505882

vn 0.858824 0.003922 -0.505882

vn 0.858824 0.003922 -0.505882

vn 0.003922 0.403922 0.913726

vn -0.003922 0.913726 0.396078

vn -0.003922 0.913726 0.396078

vn 0.003922 0.184314 0.976471

vn 0.003922 -0.443137 0.898039

vn 0.003922 -0.317647 0.945098

vn -0.003922 -0.835294 0.552941

vn -0.003922 -0.835294 0.552941

vn 0.945098 -0.317647 -0.019608

vn 0.584314 -0.811765 -0.011765

vn 0.584314 -0.811765 -0.011765

vn 0.960784 -0.270588 -0.019608

vn 0.882353 0.458824 -0.011765

vn 0.890196 0.450980 -0.011765

vn 0.254902 0.960784 -0.003922

vn 0.254902 0.960784 -0.003922

vn -0.003922 -0.043137 0.992157

vn -0.011765 -0.003922 0.992157

vn -0.003922 -0.043137 0.992157

vn -0.011765 -0.003922 0.992157

vn -0.027451 0.003922 0.992157

vn -0.027451 0.003922 0.992157

vn -0.027451 -0.011765 0.992157

vn -0.027451 -0.011765 0.992157

vn -0.019608 -0.011765 -1.000000

vn -0.011765 0.019608 -1.000000

vn -0.019608 -0.011765 -1.000000

vn -0.011765 0.019608 -1.000000

vn -0.011765 0.003922 -1.000000

vn -0.011765 0.003922 -1.000000

vn -0.011765 -0.043137 -1.000000

vn -0.011765 -0.043137 -1.000000

vn -1.000000 -0.011765 -0.011765

vn -1.000000 -0.011765 -0.011765

vn -1.000000 -0.011765 -0.011765

vn -1.000000 -0.011765 -0.011765

vn -1.000000 -0.011765 -0.011765

vn -1.000000 -0.011765 -0.011765

f 1/1/1 2/2/2 3/3/3

f 4/4/4 5/5/5 6/6/6

f 4/4/4 7/7/7 8/8/8

f 9/9/9 7/7/7 4/4/4

f 9/9/9 10/10/10 7/7/7

f 11/11/11 10/10/10 9/9/9

f 12/12/12 10/10/10 11/11/11

f 10/10/10 12/12/12 13/13/13

f 14/14/14 13/13/13 12/12/12

f 13/13/13 14/14/14 15/15/15

f 16/16/16 17/17/17 18/18/18

f 16/16/16 18/18/18 19/19/19

f 20/20/20 21/21/21 22/22/22

f 21/21/21 20/20/20 23/23/23

f 24/24/24 25/25/25 26/26/26

f 25/25/25 24/24/24 27/27/27

f 28/28/28 29/29/29 30/30/30

f 30/30/30 31/31/31 28/28/28

f 32/32/32 33/33/33 34/34/34

f 33/33/33 32/32/32 35/35/35

f 36/36/36 37/37/37 38/38/38

f 37/37/37 36/36/36 39/39/39

f 40/40/40 41/41/41 42/42/42

f 42/42/42 43/43/43 40/40/40

f 44/44/44 45/45/45 46/46/46

f 45/45/45 44/44/44 47/47/47

f 48/48/48 49/49/49 50/50/50

f 49/49/49 48/48/48 51/51/51

f 52/52/52 53/53/53 54/54/54

f 53/53/53 52/52/52 55/55/55

f 56/56/56 57/57/57 58/58/58

f 56/56/56 59/59/59 57/57/57

f 60/60/60 61/61/61 62/62/62

f 60/60/60 62/62/62 63/63/63

f 64/64/64 65/65/65 66/66/66

f 64/64/64 66/66/66 67/67/67

f 68/68/68 69/69/69 70/70/70

f 69/69/69 68/68/68 71/71/71

f 72/72/72 73/73/73 74/74/74

f 72/72/72 74/74/74 75/75/75

f 76/76/76 77/77/77 78/78/78

f 78/78/78 79/79/79 76/76/76

f 80/80/80 81/81/81 82/82/82

f 81/81/81 80/80/80 83/83/83

f 84/84/84 85/85/85 86/86/86

f 85/85/85 84/84/84 87/87/87

f 88/88/88 89/89/89 90/90/90

f 89/89/89 91/91/91 90/90/90

f 92/92/92 93/93/93 94/94/94

f 94/94/94 93/93/93 95/95/95

f 96/96/96 97/97/97 98/98/98

f 97/97/97 96/96/96 99/99/99

f 100/100/100 101/101/101 102/102/102

f 103/103/103 101/101/101 100/100/100

f 104/104/104 105/105/105 103/103/103

f 103/103/103 105/105/105 106/106/106

f 107/107/107 108/108/108 109/109/109

f 108/108/108 107/107/107 110/110/110

f 111/111/111 112/112/112 113/113/113

f 113/113/113 114/114/114 111/111/111

f 114/114/114 113/113/113 115/115/115

f 114/114/114 115/115/115 116/116/116

f 115/115/115 117/117/117 116/116/116

f 117/117/117 115/115/115 118/118/118

f 119/119/119 120/120/120 121/121/121

f 120/120/120 119/119/119 122/122/122

f 123/123/123 122/122/122 119/119/119

f 122/122/122 123/123/123 124/124/124

f 125/125/125 124/124/124 123/123/123

f 124/124/124 125/125/125 126/126/126

f 127/127/127 128/128/128 129/129/129

f 128/128/128 127/127/127 130/130/130

f 130/130/130 131/131/131 128/128/128

f 131/131/131 130/130/130 132/132/132

f 132/132/132 133/133/133 131/131/131

f 133/133/133 132/132/132 134/134/134

f 135/135/135 136/136/136 137/137/137

f 136/136/136 135/135/135 138/138/138

f 138/138/138 139/139/139 136/136/136

f 139/139/139 138/138/138 140/140/140

f 140/140/140 141/141/141 139/139/139

f 141/141/141 140/140/140 142/142/142

f 143/143/143 144/144/144 145/145/145

f 143/143/143 146/146/146 144/144/144

f 146/146/146 143/143/143 147/147/147

f 146/146/146 147/147/147 148/148/148

f 147/147/147 149/149/149 148/148/148

f 149/149/149 147/147/147 150/150/150

f 151/151/151 152/152/152 153/153/153

f 151/151/151 154/154/154 152/152/152

f 155/155/155 154/154/154 151/151/151

f 154/154/154 155/155/155 156/156/156

f 155/155/155 157/157/157 156/156/156

f 157/157/157 155/155/155 158/158/158

f 159/159/159 160/160/160 161/161/161

f 160/160/160 159/159/159 162/162/162

f 163/163/163 160/160/160 162/162/162

f 163/163/163 164/164/164 160/160/160

f 163/163/163 165/165/165 164/164/164

f 165/165/165 163/163/163 166/166/166

f 167/167/167 168/168/168 169/169/169

f 168/168/168 167/167/167 170/170/170

f 171/171/171 168/168/168 170/170/170

f 168/168/168 171/171/171 172/172/172

f 171/171/171 173/173/173 172/172/172

f 173/173/173 171/171/171 174/174/174

f 175/175/175 176/176/176 177/177/177

f 176/176/176 175/175/175 178/178/178

f 178/178/178 175/175/175 179/179/179

f 179/179/179 175/175/175 180/180/180

