# UnrealEd OBJ exporter (_Internal)



v 25.818115 4.887371 200.000000

v 25.818115 4.887371 -200.000000

v -25.818115 4.887371 200.000000

v -25.818115 4.887371 -200.000000

v 25.818115 -4.887371 -200.000000

v 25.818115 -4.887371 200.000000

v -25.818115 -4.887371 200.000000

v -25.818115 -4.887371 -200.000000

v 25.818115 4.887371 200.000000

v -25.818115 4.887371 200.000000

v -25.818115 -4.887371 200.000000

v 25.818115 -4.887371 200.000000

v 25.818115 4.887371 200.000000

v 25.818115 -4.887371 -200.000000

v 25.818115 4.887371 -200.000000

v 25.818115 -4.887371 200.000000

v 25.818115 -4.887371 -200.000000

v -25.818115 -4.887371 -200.000000

v -25.818115 4.887371 -200.000000

v 25.818115 4.887371 -200.000000

v -25.818115 4.887371 200.000000

v -25.818115 -4.887371 -200.000000

v -25.818115 -4.887371 200.000000

v -25.818115 4.887371 -200.000000



vt 0.159668 0.468750

vt 0.343018 0.468750

vt 0.159668 0.492676

vt 0.343018 0.492676

vt 0.159668 0.442871

vt 0.343018 0.442871

vt 0.343018 0.466797

vt 0.159668 0.466797

vt 0.101807 0.427246

vt 0.125122 0.427246

vt 0.125122 0.432617

vt 0.101807 0.432617

vt 0.343018 0.435547

vt 0.159668 0.439941

vt 0.159668 0.435547

vt 0.343018 0.439941

vt 0.101807 0.418457

vt 0.125122 0.418457

vt 0.125122 0.423828

vt 0.101807 0.423828

vt 0.159668 0.494629

vt 0.343018 0.499023

vt 0.159668 0.499023

vt 0.343018 0.494629



vn -0.003922 1.000000 -0.003922

vn -0.003922 1.000000 -0.003922

vn -0.003922 1.000000 -0.003922

vn -0.003922 1.000000 -0.003922

vn -0.003922 -1.000000 -0.003922

vn -0.003922 -1.000000 -0.003922

vn -0.003922 -1.000000 -0.003922

vn -0.003922 -1.000000 -0.003922

vn -0.003922 -0.003922 1.000000

vn -0.003922 -0.003922 1.000000

vn -0.003922 -0.003922 1.000000

vn -0.003922 -0.003922 1.000000

vn 1.000000 -0.003922 -0.003922

vn 1.000000 -0.003922 -0.003922

vn 1.000000 -0.003922 -0.003922

vn 1.000000 -0.003922 -0.003922

vn -0.003922 -0.003922 -1.000000

vn -0.003922 -0.003922 -1.000000

vn -0.003922 -0.003922 -1.000000

vn -0.003922 -0.003922 -1.000000

vn -1.000000 -0.003922 -0.003922

vn -1.000000 -0.003922 -0.003922

vn -1.000000 -0.003922 -0.003922

vn -1.000000 -0.003922 -0.003922

f 1/1/1 2/2/2 3/3/3

f 3/3/3 2/2/2 4/4/4

f 5/5/5 6/6/6 7/7/7

f 7/7/7 8/8/8 5/5/5

f 9/9/9 10/10/10 11/11/11

f 9/9/9 11/11/11 12/12/12

f 13/13/13 14/14/14 15/15/15

f 14/14/14 13/13/13 16/16/16

f 17/17/17 18/18/18 19/19/19

f 17/17/17 19/19/19 20/20/20

f 21/21/21 22/22/22 23/23/23

f 22/22/22 21/21/21 24/24/24

