# UnrealEd OBJ exporter (_Internal)



v -13.158691 121.935181 200.000000

v -13.158691 121.935181 -236.767578

v 13.158691 121.935181 200.000000

v 13.158691 121.935181 -236.767578

v 7.189453 118.919250 -207.189453

v -7.189453 129.263916 -207.189453

v 7.189453 129.263916 -207.189453

v -7.189453 118.919250 -207.189453

v 4.193359 112.123657 -204.193359

v -4.193359 112.123657 -204.193359

v 6.870605 22.449677 -206.870605

v -6.870605 22.449677 -206.870605

v -9.641357 7.112869 -209.641602

v 9.641602 7.112869 -209.641602

v 7.242188 -4.613388 -207.242188

v -7.242188 -4.613388 -207.242188

v -7.189453 118.919250 -192.810547

v 7.189453 129.263916 -192.810547

v -7.189453 129.263916 -192.810547

v 7.189453 118.919250 -192.810547

v -4.193359 112.123657 -195.806641

v 4.193359 112.123657 -195.806641

v -6.870605 22.449677 -193.129395

v 6.870605 22.449677 -193.129395

v 9.641357 7.112869 -190.358398

v -9.641602 7.112869 -190.358398

v -7.242188 -4.613388 -192.757813

v 7.242188 -4.613388 -192.757813

v 7.189453 118.919250 -7.189453

v -7.189453 129.263916 -7.189453

v 7.189453 129.263916 -7.189453

v -7.189453 118.919250 -7.189453

v 4.193359 112.123657 -4.193359

v -4.193359 112.123657 -4.193359

v 6.870605 22.449677 -6.870605

v -6.870605 22.449677 -6.870605

v -9.641357 7.112869 -9.641602

v 9.641602 7.112869 -9.641602

v 7.242188 -4.613388 -7.242188

v -7.242188 -4.613388 -7.242188

v -7.189453 118.919250 7.189453

v 7.189453 129.263916 7.189453

v -7.189453 129.263916 7.189453

v 7.189453 118.919250 7.189453

v -4.193359 112.123657 4.193359

v 4.193359 112.123657 4.193359

v -6.870605 22.449677 6.870605

v 6.870605 22.449677 6.870605

v 9.641357 7.112869 9.641602

v -9.641602 7.112869 9.641602

v -7.242188 -4.613388 7.242188

v 7.242188 -4.613388 7.242188

v 7.189453 118.919250 -107.189453

v -7.189453 129.263916 -107.189453

v 7.189453 129.263916 -107.189453

v -7.189453 118.919250 -107.189453

v 4.193359 112.123657 -104.193359

v -4.193359 112.123657 -104.193359

v 6.870605 22.449677 -106.870605

v -6.870605 22.449677 -106.870605

v -9.641357 7.112869 -109.641602

v 9.641602 7.112869 -109.641602

v 7.242188 -4.613388 -107.242188

v -7.242188 -4.613388 -107.242188

v -7.189453 118.919250 -92.810547

v 7.189453 129.263916 -92.810547

v -7.189453 129.263916 -92.810547

v 7.189453 118.919250 -92.810547

v -4.193359 112.123657 -95.806641

v 4.193359 112.123657 -95.806641

v -6.870605 22.449677 -93.129395

v 6.870605 22.449677 -93.129395

v 9.641357 7.112869 -90.358398

v -9.641602 7.112869 -90.358398

v -7.242188 -4.613388 -92.757813

v 7.242188 -4.613388 -92.757813

v 7.189453 118.919250 92.810547

v -7.189453 129.263916 92.810547

v 7.189453 129.263916 92.810547

v -7.189453 118.919250 92.810547

v 4.193359 112.123657 95.806641

v -4.193359 112.123657 95.806641

v 6.870605 22.449677 93.129395

v -6.870605 22.449677 93.129395

v -9.641357 7.112869 90.358398

v 9.641602 7.112869 90.358398

v 7.242188 -4.613388 92.757813

v -7.242188 -4.613388 92.757813

v -7.189453 118.919250 107.189453

v 7.189453 129.263916 107.189453

v -7.189453 129.263916 107.189453

v 7.189453 118.919250 107.189453

v -4.193359 112.123657 104.193359

v 4.193359 112.123657 104.193359

v -6.870605 22.449677 106.870605

v 6.870605 22.449677 106.870605

v 9.641357 7.112869 109.641602

v -9.641602 7.112869 109.641602

v -7.242188 -4.613388 107.242188

v 7.242188 -4.613388 107.242188

v -7.189453 129.263916 -192.810547

v -7.189453 129.263916 -207.189453

v -7.189453 118.919250 -192.810547

v -7.189453 118.919250 -207.189453

v -4.193359 112.123657 -204.193359

v -4.193359 112.123657 -195.806641

v -6.870605 22.449677 -193.129395

v -6.870605 22.449677 -206.870605

v -9.641357 7.112869 -209.641602

v -9.641602 7.112869 -190.358398

v -7.242188 -4.613388 -192.757813

v -7.242188 -4.613388 -207.242188

v 7.189453 129.263916 -192.810547

v 7.189453 118.919250 -207.189453

v 7.189453 129.263916 -207.189453

v 7.189453 118.919250 -192.810547

v 4.193359 112.123657 -195.806641

v 4.193359 112.123657 -204.193359

v 6.870605 22.449677 -206.870605

v 6.870605 22.449677 -193.129395

v 9.641357 7.112869 -190.358398

v 9.641602 7.112869 -209.641602

v 7.242188 -4.613388 -207.242188

v 7.242188 -4.613388 -192.757813

v -7.189453 129.263916 7.189453

v -7.189453 129.263916 -7.189453

v -7.189453 118.919250 7.189453

v -7.189453 118.919250 -7.189453

v -4.193359 112.123657 -4.193359

v -4.193359 112.123657 4.193359

v -6.870605 22.449677 6.870605

v -6.870605 22.449677 -6.870605

v -9.641357 7.112869 -9.641602

v -9.641602 7.112869 9.641602

v -7.242188 -4.613388 7.242188

v -7.242188 -4.613388 -7.242188

v 7.189453 129.263916 7.189453

v 7.189453 118.919250 -7.189453

v 7.189453 129.263916 -7.189453

v 7.189453 118.919250 7.189453

v 4.193359 112.123657 4.193359

v 4.193359 112.123657 -4.193359

v 6.870605 22.449677 -6.870605

v 6.870605 22.449677 6.870605

v 9.641357 7.112869 9.641602

v 9.641602 7.112869 -9.641602

v 7.242188 -4.613388 -7.242188

v 7.242188 -4.613388 7.242188

v -7.189453 129.263916 -92.810547

v -7.189453 129.263916 -107.189453

v -7.189453 118.919250 -92.810547

v -7.189453 118.919250 -107.189453

v -4.193359 112.123657 -104.193359

v -4.193359 112.123657 -95.806641

v -6.870605 22.449677 -93.129395

v -6.870605 22.449677 -106.870605

v -9.641357 7.112869 -109.641602

v -9.641602 7.112869 -90.358398

v -7.242188 -4.613388 -92.757813

v -7.242188 -4.613388 -107.242188

v 7.189453 129.263916 -92.810547

v 7.189453 118.919250 -107.189453

v 7.189453 129.263916 -107.189453

v 7.189453 118.919250 -92.810547

v 4.193359 112.123657 -95.806641

v 4.193359 112.123657 -104.193359

v 6.870605 22.449677 -106.870605

v 6.870605 22.449677 -93.129395

v 9.641357 7.112869 -90.358398

v 9.641602 7.112869 -109.641602

v 7.242188 -4.613388 -107.242188

v 7.242188 -4.613388 -92.757813

v -7.189453 129.263916 107.189453

v -7.189453 129.263916 92.810547

v -7.189453 118.919250 107.189453

v -7.189453 118.919250 92.810547

v -4.193359 112.123657 95.806641

v -4.193359 112.123657 104.193359

v -6.870605 22.449677 106.870605

v -6.870605 22.449677 93.129395

v -9.641357 7.112869 90.358398

v -9.641602 7.112869 109.641602

v -7.242188 -4.613388 107.242188

v -7.242188 -4.613388 92.757813

v 7.189453 129.263916 107.189453

v 7.189453 118.919250 92.810547

v 7.189453 129.263916 92.810547

v 7.189453 118.919250 107.189453

v 4.193359 112.123657 104.193359

v 4.193359 112.123657 95.806641

v 6.870605 22.449677 93.129395

v 6.870605 22.449677 106.870605

v 9.641357 7.112869 109.641602

v 9.641602 7.112869 90.358398

v 7.242188 -4.613388 92.757813

v 7.242188 -4.613388 107.242188

v 13.158691 121.935181 200.000000

v 13.158691 121.935181 -236.767578

v 13.158691 135.890808 200.000000

v 13.158691 135.890808 -236.767578

v 10.477295 140.837646 -236.767578

v 10.477295 140.837646 200.000000

v -10.477295 140.837646 200.000000

v -10.477295 140.837646 -236.767578

v -13.158691 135.890808 -236.767578

v -13.158691 135.890808 200.000000

v -13.158691 121.935181 200.000000

v -13.158691 121.935181 -236.767578



vt 0.330811 0.405273

vt 0.128418 0.405273

vt 0.330811 0.393066

vt 0.128418 0.393066

vt 0.112915 0.496094

vt 0.119751 0.500488

vt 0.112976 0.500732

vt 0.119751 0.495605

vt 0.114319 0.492188

vt 0.118286 0.492188

vt 0.113159 0.449707

vt 0.119629 0.449707

vt 0.120850 0.442383

vt 0.111816 0.442383

vt 0.112854 0.437012

vt 0.119629 0.437012

vt 0.112915 0.496094

vt 0.119751 0.500488

vt 0.112976 0.500732

vt 0.119751 0.495605

vt 0.114319 0.492188

vt 0.118286 0.492188

vt 0.113159 0.449707

vt 0.119629 0.449707

vt 0.120850 0.442383

vt 0.111816 0.442383

vt 0.112854 0.437012

vt 0.119629 0.437012

vt 0.112915 0.496094

vt 0.119751 0.500488

vt 0.112976 0.500732

vt 0.119751 0.495605

vt 0.114319 0.492188

vt 0.118286 0.492188

vt 0.113159 0.449707

vt 0.119629 0.449707

vt 0.120850 0.442383

vt 0.111816 0.442383

vt 0.112854 0.437012

vt 0.119629 0.437012

vt 0.112915 0.496094

vt 0.119751 0.500488

vt 0.112976 0.500732

vt 0.119751 0.495605

vt 0.114319 0.492188

vt 0.118286 0.492188

vt 0.113159 0.449707

vt 0.119629 0.449707

vt 0.120850 0.442383

vt 0.111816 0.442383

vt 0.112854 0.437012

vt 0.119629 0.437012

vt 0.112915 0.496094

vt 0.119751 0.500488

vt 0.112976 0.500732

vt 0.119751 0.495605

vt 0.114319 0.492188

vt 0.118286 0.492188

vt 0.113159 0.449707

vt 0.119629 0.449707

vt 0.120850 0.442383

vt 0.111816 0.442383

vt 0.112854 0.437012

vt 0.119629 0.437012

vt 0.112915 0.496094

vt 0.119751 0.500488

vt 0.112976 0.500732

vt 0.119751 0.495605

vt 0.114319 0.492188

vt 0.118286 0.492188

vt 0.113159 0.449707

vt 0.119629 0.449707

vt 0.120850 0.442383

vt 0.111816 0.442383

vt 0.112854 0.437012

vt 0.119629 0.437012

vt 0.112915 0.496094

vt 0.119751 0.500488

vt 0.112976 0.500732

vt 0.119751 0.495605

vt 0.114319 0.492188

vt 0.118286 0.492188

vt 0.113159 0.449707

vt 0.119629 0.449707

vt 0.120850 0.442383

vt 0.111816 0.442383

vt 0.112854 0.437012

vt 0.119629 0.437012

vt 0.112915 0.496094

vt 0.119751 0.500488

vt 0.112976 0.500732

vt 0.119751 0.495605

vt 0.114319 0.492188

vt 0.118286 0.492188

vt 0.113159 0.449707

vt 0.119629 0.449707

vt 0.120850 0.442383

vt 0.111816 0.442383

vt 0.112854 0.437012

vt 0.119629 0.437012

vt 0.108093 0.500488

vt 0.101440 0.500488

vt 0.108093 0.495605

vt 0.101440 0.495605

vt 0.102783 0.492188

vt 0.106750 0.492188

vt 0.107971 0.450195

vt 0.101501 0.450195

vt 0.100098 0.442871

vt 0.109314 0.442871

vt 0.108154 0.437012

vt 0.101257 0.437012

vt 0.101440 0.500488

vt 0.108093 0.495605

vt 0.108093 0.500488

vt 0.101440 0.495605

vt 0.102783 0.492188

vt 0.106750 0.492188

vt 0.107971 0.450195

vt 0.101501 0.450195

vt 0.100098 0.442871

vt 0.109314 0.442871

vt 0.108154 0.437012

vt 0.101257 0.437012

vt 0.108093 0.500488

vt 0.101440 0.500488

vt 0.108093 0.495605

vt 0.101440 0.495605

vt 0.102783 0.492188

vt 0.106750 0.492188

vt 0.107971 0.450195

vt 0.101501 0.450195

vt 0.100098 0.442871

vt 0.109314 0.442871

vt 0.108154 0.437012

vt 0.101257 0.437012

vt 0.101440 0.500488

vt 0.108093 0.495605

vt 0.108093 0.500488

vt 0.101440 0.495605

vt 0.102783 0.492188

vt 0.106750 0.492188

vt 0.107971 0.450195

vt 0.101501 0.450195

vt 0.100098 0.442871

vt 0.109314 0.442871

vt 0.108154 0.437012

vt 0.101257 0.437012

vt 0.108093 0.500488

vt 0.101440 0.500488

vt 0.108093 0.495605

vt 0.101440 0.495605

vt 0.102783 0.492188

vt 0.106750 0.492188

vt 0.107971 0.450195

vt 0.101501 0.450195

vt 0.100098 0.442871

vt 0.109314 0.442871

vt 0.108154 0.437012

vt 0.101257 0.437012

vt 0.101440 0.500488

vt 0.108093 0.495605

vt 0.108093 0.500488

vt 0.101440 0.495605

vt 0.102783 0.492188

vt 0.106750 0.492188

vt 0.107971 0.450195

vt 0.101501 0.450195

vt 0.100098 0.442871

vt 0.109314 0.442871

vt 0.108154 0.437012

vt 0.101257 0.437012

vt 0.108093 0.500488

vt 0.101440 0.500488

vt 0.108093 0.495605

vt 0.101440 0.495605

vt 0.102783 0.492188

vt 0.106750 0.492188

vt 0.107971 0.450195

vt 0.101501 0.450195

vt 0.100098 0.442871

vt 0.109314 0.442871

vt 0.108154 0.437012

vt 0.101257 0.437012

vt 0.101440 0.500488

vt 0.108093 0.495605

vt 0.108093 0.500488

vt 0.101440 0.495605

vt 0.102783 0.492188

vt 0.106750 0.492188

vt 0.107971 0.450195

vt 0.101501 0.450195

vt 0.100098 0.442871

vt 0.109314 0.442871

vt 0.108154 0.437012

vt 0.101257 0.437012

vt 0.149780 0.406250

vt 0.352051 0.406250

vt 0.149780 0.412598

vt 0.352295 0.412598

vt 0.352295 0.415527

vt 0.149780 0.415527

vt 0.149780 0.425293

vt 0.352295 0.425293

vt 0.352295 0.427734

vt 0.149780 0.427734

vt 0.149780 0.434570

vt 0.352051 0.434570



vn -0.003922 -1.000000 -0.003922

vn -0.003922 -1.000000 -0.003922

vn -0.003922 -1.000000 -0.003922

vn -0.003922 -1.000000 -0.003922

vn -0.003922 -0.129412 -1.000000

vn -0.003922 -0.003922 -1.000000

vn -0.003922 -0.003922 -1.000000

vn -0.003922 -0.129412 -1.000000

vn -0.003922 -0.011765 -1.000000

vn -0.003922 -0.011765 -1.000000

vn -0.003922 0.058824 -1.000000

vn -0.003922 0.058824 -1.000000

vn -0.003922 0.011765 -1.000000

vn -0.003922 0.011765 -1.000000

vn -0.003922 -0.207843 -0.984314

vn -0.003922 -0.207843 -0.984314

vn -0.003922 -0.129412 0.992157

vn -0.003922 -0.003922 1.000000

vn -0.003922 -0.003922 1.000000

vn -0.003922 -0.129412 0.992157

vn -0.003922 -0.011765 0.992157

vn -0.003922 -0.011765 0.992157

vn -0.003922 0.058824 0.992157

vn -0.003922 0.058824 0.992157

vn -0.003922 0.011765 0.992157

vn -0.003922 0.011765 0.992157

vn -0.003922 -0.207843 0.976471

vn -0.003922 -0.207843 0.976471

vn -0.003922 -0.129412 -1.000000

vn -0.003922 -0.003922 -1.000000

vn -0.003922 -0.003922 -1.000000

vn -0.003922 -0.129412 -1.000000

vn -0.003922 -0.011765 -1.000000

vn -0.003922 -0.011765 -1.000000

vn -0.003922 0.058824 -1.000000

vn -0.003922 0.058824 -1.000000

vn -0.003922 0.011765 -1.000000

vn -0.003922 0.011765 -1.000000

vn -0.003922 -0.207843 -0.984314

vn -0.003922 -0.207843 -0.984314

vn -0.003922 -0.129412 0.992157

vn -0.003922 -0.003922 1.000000

vn -0.003922 -0.003922 1.000000

vn -0.003922 -0.129412 0.992157

vn -0.003922 -0.011765 0.992157

vn -0.003922 -0.011765 0.992157

vn -0.003922 0.058824 0.992157

vn -0.003922 0.058824 0.992157

vn -0.003922 0.011765 0.992157

vn -0.003922 0.011765 0.992157

vn -0.003922 -0.207843 0.976471

vn -0.003922 -0.207843 0.976471

vn -0.003922 -0.129412 -1.000000

vn -0.003922 -0.003922 -1.000000

vn -0.003922 -0.003922 -1.000000

vn -0.003922 -0.129412 -1.000000

vn -0.003922 -0.011765 -1.000000

vn -0.003922 -0.011765 -1.000000

vn -0.003922 0.058824 -1.000000

vn -0.003922 0.058824 -1.000000

vn -0.003922 0.011765 -1.000000

vn -0.003922 0.011765 -1.000000

vn -0.003922 -0.207843 -0.984314

vn -0.003922 -0.207843 -0.984314

vn -0.003922 -0.129412 0.992157

vn -0.003922 -0.003922 1.000000

vn -0.003922 -0.003922 1.000000

vn -0.003922 -0.129412 0.992157

vn -0.003922 -0.011765 0.992157

vn -0.003922 -0.011765 0.992157

vn -0.003922 0.058824 0.992157

vn -0.003922 0.058824 0.992157

vn -0.003922 0.011765 0.992157

vn -0.003922 0.011765 0.992157

vn -0.003922 -0.207843 0.976471

vn -0.003922 -0.207843 0.976471

vn -0.003922 -0.129412 -1.000000

vn -0.003922 -0.003922 -1.000000

vn -0.003922 -0.003922 -1.000000

vn -0.003922 -0.129412 -1.000000

vn -0.003922 -0.011765 -1.000000

vn -0.003922 -0.011765 -1.000000

vn -0.003922 0.058824 -1.000000

vn -0.003922 0.058824 -1.000000

vn -0.003922 0.011765 -1.000000

vn -0.003922 0.011765 -1.000000

vn -0.003922 -0.207843 -0.984314

vn -0.003922 -0.207843 -0.984314

vn -0.003922 -0.129412 0.992157

vn -0.003922 -0.003922 1.000000

vn -0.003922 -0.003922 1.000000

vn -0.003922 -0.129412 0.992157

vn -0.003922 -0.011765 0.992157

vn -0.003922 -0.011765 0.992157

vn -0.003922 0.058824 0.992157

vn -0.003922 0.058824 0.992157

vn -0.003922 0.011765 0.992157

vn -0.003922 0.011765 0.992157

vn -0.003922 -0.207843 0.976471

vn -0.003922 -0.207843 0.976471

vn -1.000000 -0.003922 -0.003922

vn -1.000000 -0.003922 -0.003922

vn -1.000000 -0.129412 -0.003922

vn -1.000000 -0.129412 -0.003922

vn -1.000000 -0.011765 -0.003922

vn -1.000000 -0.011765 -0.003922

vn -1.000000 0.058824 -0.003922

vn -1.000000 0.058824 -0.003922

vn -1.000000 0.011765 -0.003922

vn -1.000000 0.011765 -0.003922

vn -0.984314 -0.207843 -0.003922

vn -0.984314 -0.207843 -0.003922

vn 1.000000 -0.003922 -0.003922

vn 0.992157 -0.129412 -0.003922

vn 1.000000 -0.003922 -0.003922

vn 0.992157 -0.129412 -0.003922

vn 0.992157 -0.011765 -0.003922

vn 0.992157 -0.011765 -0.003922

vn 0.992157 0.058824 -0.003922

vn 0.992157 0.058824 -0.003922

vn 0.992157 0.011765 -0.003922

vn 0.992157 0.011765 -0.003922

vn 0.976471 -0.207843 -0.003922

vn 0.976471 -0.207843 -0.003922

vn -1.000000 -0.003922 -0.003922

vn -1.000000 -0.003922 -0.003922

vn -1.000000 -0.129412 -0.003922

vn -1.000000 -0.129412 -0.003922

vn -1.000000 -0.011765 -0.003922

vn -1.000000 -0.011765 -0.003922

vn -1.000000 0.058824 -0.003922

vn -1.000000 0.058824 -0.003922

vn -1.000000 0.011765 -0.003922

vn -1.000000 0.011765 -0.003922

vn -0.984314 -0.207843 -0.003922

vn -0.984314 -0.207843 -0.003922

vn 1.000000 -0.003922 -0.003922

vn 0.992157 -0.129412 -0.003922

vn 1.000000 -0.003922 -0.003922

vn 0.992157 -0.129412 -0.003922

vn 0.992157 -0.011765 -0.003922

vn 0.992157 -0.011765 -0.003922

vn 0.992157 0.058824 -0.003922

vn 0.992157 0.058824 -0.003922

vn 0.992157 0.011765 -0.003922

vn 0.992157 0.011765 -0.003922

vn 0.976471 -0.207843 -0.003922

vn 0.976471 -0.207843 -0.003922

vn -1.000000 -0.003922 -0.003922

vn -1.000000 -0.003922 -0.003922

vn -1.000000 -0.129412 -0.003922

vn -1.000000 -0.129412 -0.003922

vn -1.000000 -0.011765 -0.003922

vn -1.000000 -0.011765 -0.003922

vn -1.000000 0.058824 -0.003922

vn -1.000000 0.058824 -0.003922

vn -1.000000 0.011765 -0.003922

vn -1.000000 0.011765 -0.003922

vn -0.984314 -0.207843 -0.003922

vn -0.984314 -0.207843 -0.003922

vn 1.000000 -0.003922 -0.003922

vn 0.992157 -0.129412 -0.003922

vn 1.000000 -0.003922 -0.003922

vn 0.992157 -0.129412 -0.003922

vn 0.992157 -0.011765 -0.003922

vn 0.992157 -0.011765 -0.003922

vn 0.992157 0.058824 -0.003922

vn 0.992157 0.058824 -0.003922

vn 0.992157 0.011765 -0.003922

vn 0.992157 0.011765 -0.003922

vn 0.976471 -0.207843 -0.003922

vn 0.976471 -0.207843 -0.003922

vn -1.000000 -0.003922 -0.003922

vn -1.000000 -0.003922 -0.003922

vn -1.000000 -0.129412 -0.003922

vn -1.000000 -0.129412 -0.003922

vn -1.000000 -0.011765 -0.003922

vn -1.000000 -0.011765 -0.003922

vn -1.000000 0.058824 -0.003922

vn -1.000000 0.058824 -0.003922

vn -1.000000 0.011765 -0.003922

vn -1.000000 0.011765 -0.003922

vn -0.984314 -0.207843 -0.003922

vn -0.984314 -0.207843 -0.003922

vn 1.000000 -0.003922 -0.003922

vn 0.992157 -0.129412 -0.003922

vn 1.000000 -0.003922 -0.003922

vn 0.992157 -0.129412 -0.003922

vn 0.992157 -0.011765 -0.003922

vn 0.992157 -0.011765 -0.003922

vn 0.992157 0.058824 -0.003922

vn 0.992157 0.058824 -0.003922

vn 0.992157 0.011765 -0.003922

vn 0.992157 0.011765 -0.003922

vn 0.976471 -0.207843 -0.003922

vn 0.976471 -0.207843 -0.003922

vn 1.000000 -0.003922 -0.003922

vn 1.000000 -0.003922 -0.003922

vn 0.984314 0.137255 -0.003922

vn 0.984314 0.137255 -0.003922

vn 0.200000 0.976471 -0.003922

vn 0.200000 0.976471 -0.003922

vn -0.207843 0.976471 -0.003922

vn -0.207843 0.976471 -0.003922

vn -0.992157 0.137255 -0.003922

vn -0.992157 0.137255 -0.003922

vn -1.000000 -0.003922 -0.003922

vn -1.000000 -0.003922 -0.003922

f 1/1/1 2/2/2 3/3/3

f 3/3/3 2/2/2 4/4/4

f 5/5/5 6/6/6 7/7/7

f 5/5/5 8/8/8 6/6/6

f 9/9/9 8/8/8 5/5/5

f 9/9/9 10/10/10 8/8/8

f 11/11/11 10/10/10 9/9/9

f 12/12/12 10/10/10 11/11/11

f 11/11/11 13/13/13 12/12/12

f 13/13/13 11/11/11 14/14/14

f 15/15/15 13/13/13 14/14/14

f 16/16/16 13/13/13 15/15/15

f 17/17/17 18/18/18 19/19/19

f 18/18/18 17/17/17 20/20/20

f 20/20/20 17/17/17 21/21/21

f 20/20/20 21/21/21 22/22/22

f 21/21/21 23/23/23 22/22/22

f 22/22/22 23/23/23 24/24/24

f 23/23/23 25/25/25 24/24/24

f 25/25/25 23/23/23 26/26/26

f 25/25/25 26/26/26 27/27/27

f 25/25/25 27/27/27 28/28/28

f 29/29/29 30/30/30 31/31/31

f 29/29/29 32/32/32 30/30/30

f 33/33/33 32/32/32 29/29/29

f 33/33/33 34/34/34 32/32/32

f 35/35/35 34/34/34 33/33/33

f 36/36/36 34/34/34 35/35/35

f 35/35/35 37/37/37 36/36/36

f 37/37/37 35/35/35 38/38/38

f 39/39/39 37/37/37 38/38/38

f 40/40/40 37/37/37 39/39/39

f 41/41/41 42/42/42 43/43/43

f 42/42/42 41/41/41 44/44/44

f 44/44/44 41/41/41 45/45/45

f 44/44/44 45/45/45 46/46/46

f 45/45/45 47/47/47 46/46/46

f 46/46/46 47/47/47 48/48/48

f 47/47/47 49/49/49 48/48/48

f 49/49/49 47/47/47 50/50/50

f 49/49/49 50/50/50 51/51/51

f 49/49/49 51/51/51 52/52/52

f 53/53/53 54/54/54 55/55/55

f 53/53/53 56/56/56 54/54/54

f 57/57/57 56/56/56 53/53/53

f 57/57/57 58/58/58 56/56/56

f 59/59/59 58/58/58 57/57/57

f 60/60/60 58/58/58 59/59/59

f 59/59/59 61/61/61 60/60/60

f 61/61/61 59/59/59 62/62/62

f 63/63/63 61/61/61 62/62/62

f 64/64/64 61/61/61 63/63/63

f 65/65/65 66/66/66 67/67/67

f 66/66/66 65/65/65 68/68/68

f 68/68/68 65/65/65 69/69/69

f 68/68/68 69/69/69 70/70/70

f 69/69/69 71/71/71 70/70/70

f 70/70/70 71/71/71 72/72/72

f 71/71/71 73/73/73 72/72/72

f 73/73/73 71/71/71 74/74/74

f 73/73/73 74/74/74 75/75/75

f 73/73/73 75/75/75 76/76/76

f 77/77/77 78/78/78 79/79/79

f 77/77/77 80/80/80 78/78/78

f 81/81/81 80/80/80 77/77/77

f 81/81/81 82/82/82 80/80/80

f 83/83/83 82/82/82 81/81/81

f 84/84/84 82/82/82 83/83/83

f 83/83/83 85/85/85 84/84/84

f 85/85/85 83/83/83 86/86/86

f 87/87/87 85/85/85 86/86/86

f 88/88/88 85/85/85 87/87/87

f 89/89/89 90/90/90 91/91/91

f 90/90/90 89/89/89 92/92/92

f 92/92/92 89/89/89 93/93/93

f 92/92/92 93/93/93 94/94/94

f 93/93/93 95/95/95 94/94/94

f 94/94/94 95/95/95 96/96/96

f 95/95/95 97/97/97 96/96/96

f 97/97/97 95/95/95 98/98/98

f 97/97/97 98/98/98 99/99/99

f 97/97/97 99/99/99 100/100/100

f 101/101/101 102/102/102 103/103/103

f 103/103/103 102/102/102 104/104/104

f 103/103/103 104/104/104 105/105/105

f 103/103/103 105/105/105 106/106/106

f 107/107/107 106/106/106 105/105/105

f 107/107/107 105/105/105 108/108/108

f 107/107/107 108/108/108 109/109/109

f 110/110/110 107/107/107 109/109/109

f 111/111/111 110/110/110 109/109/109

f 111/111/111 109/109/109 112/112/112

f 113/113/113 114/114/114 115/115/115

f 113/113/113 116/116/116 114/114/114

f 114/114/114 116/116/116 117/117/117

f 114/114/114 117/117/117 118/118/118

f 117/117/117 119/119/119 118/118/118

f 117/117/117 120/120/120 119/119/119

f 121/121/121 119/119/119 120/120/120

f 119/119/119 121/121/121 122/122/122

f 121/121/121 123/123/123 122/122/122

f 123/123/123 121/121/121 124/124/124

f 125/125/125 126/126/126 127/127/127

f 127/127/127 126/126/126 128/128/128

f 127/127/127 128/128/128 129/129/129

f 127/127/127 129/129/129 130/130/130

f 131/131/131 130/130/130 129/129/129

f 131/131/131 129/129/129 132/132/132

f 131/131/131 132/132/132 133/133/133

f 134/134/134 131/131/131 133/133/133

f 135/135/135 134/134/134 133/133/133

f 135/135/135 133/133/133 136/136/136

f 137/137/137 138/138/138 139/139/139

f 137/137/137 140/140/140 138/138/138

f 138/138/138 140/140/140 141/141/141

f 138/138/138 141/141/141 142/142/142

f 141/141/141 143/143/143 142/142/142

f 141/141/141 144/144/144 143/143/143

f 145/145/145 143/143/143 144/144/144

f 143/143/143 145/145/145 146/146/146

f 145/145/145 147/147/147 146/146/146

f 147/147/147 145/145/145 148/148/148

f 149/149/149 150/150/150 151/151/151

f 151/151/151 150/150/150 152/152/152

f 151/151/151 152/152/152 153/153/153

f 151/151/151 153/153/153 154/154/154

f 155/155/155 154/154/154 153/153/153

f 155/155/155 153/153/153 156/156/156

f 155/155/155 156/156/156 157/157/157

f 158/158/158 155/155/155 157/157/157

f 159/159/159 158/158/158 157/157/157

f 159/159/159 157/157/157 160/160/160

f 161/161/161 162/162/162 163/163/163

f 161/161/161 164/164/164 162/162/162

f 162/162/162 164/164/164 165/165/165

f 162/162/162 165/165/165 166/166/166

f 165/165/165 167/167/167 166/166/166

f 165/165/165 168/168/168 167/167/167

f 169/169/169 167/167/167 168/168/168

f 167/167/167 169/169/169 170/170/170

f 169/169/169 171/171/171 170/170/170

f 171/171/171 169/169/169 172/172/172

f 173/173/173 174/174/174 175/175/175

f 175/175/175 174/174/174 176/176/176

f 175/175/175 176/176/176 177/177/177

f 175/175/175 177/177/177 178/178/178

f 179/179/179 178/178/178 177/177/177

f 179/179/179 177/177/177 180/180/180

f 179/179/179 180/180/180 181/181/181

f 182/182/182 179/179/179 181/181/181

f 183/183/183 182/182/182 181/181/181

f 183/183/183 181/181/181 184/184/184

f 185/185/185 186/186/186 187/187/187

f 185/185/185 188/188/188 186/186/186

f 186/186/186 188/188/188 189/189/189

f 186/186/186 189/189/189 190/190/190

f 189/189/189 191/191/191 190/190/190

f 189/189/189 192/192/192 191/191/191

f 193/193/193 191/191/191 192/192/192

f 191/191/191 193/193/193 194/194/194

f 193/193/193 195/195/195 194/194/194

f 195/195/195 193/193/193 196/196/196

f 197/197/197 198/198/198 199/199/199

f 199/199/199 198/198/198 200/200/200

f 199/199/199 200/200/200 201/201/201

f 201/201/201 202/202/202 199/199/199

f 202/202/202 201/201/201 203/203/203

f 203/203/203 201/201/201 204/204/204

f 205/205/205 203/203/203 204/204/204

f 203/203/203 205/205/205 206/206/206

f 206/206/206 205/205/205 207/207/207

f 207/207/207 205/205/205 208/208/208

