# UnrealEd OBJ exporter (_Internal)



v -13.158691 121.935181 200.000000

v -13.158691 121.935181 -200.000000

v 13.158691 121.935181 200.000000

v 13.158691 121.935181 -200.000000

v -7.189453 129.263916 107.189484

v -7.189453 129.263916 92.810547

v -7.189453 118.919250 107.189423

v -7.189453 118.919250 92.810547

v -4.193359 112.123657 104.193329

v -4.193359 112.123657 95.806610

v -6.870605 22.449677 93.129456

v -6.870605 22.449677 106.870636

v -9.641602 7.112869 109.641632

v -9.641357 7.112869 90.358368

v -7.242188 -4.613388 107.242188

v -7.242188 -4.613388 92.757813

v 7.189453 118.919250 -7.189423

v -7.189453 129.263916 -7.189453

v 7.189453 129.263916 -7.189423

v -7.189453 118.919250 -7.189453

v 4.193359 112.123657 -4.193359

v -4.193359 112.123657 -4.193329

v 6.870605 22.449677 -6.870636

v -6.870605 22.449677 -6.870636

v -9.641357 7.112869 -9.641510

v 9.641602 7.112869 -9.641510

v 7.242188 -4.613388 -7.242188

v -7.242188 -4.613388 -7.242218

v -7.189453 118.919250 7.189423

v 7.189453 129.263916 7.189514

v -7.189453 129.263916 7.189545

v 7.189453 118.919250 7.189423

v -4.193359 112.123657 4.193481

v 4.193359 112.123657 4.193451

v -6.870605 22.449677 6.870605

v 6.870605 22.449677 6.870544

v 9.641357 7.112869 9.641571

v -9.641602 7.112869 9.641571

v -7.242188 -4.613388 7.242188

v 7.242188 -4.613388 7.242218

v 7.189453 118.919250 -107.189453

v -7.189453 129.263916 -107.189453

v 7.189453 129.263916 -107.189453

v -7.189453 118.919250 -107.189453

v 4.193359 112.123657 -104.193359

v -4.193359 112.123657 -104.193359

v 6.870605 22.449677 -106.870605

v -6.870605 22.449677 -106.870605

v -9.641357 7.112869 -109.641602

v 9.641602 7.112869 -109.641602

v 7.242188 -4.613388 -107.242188

v -7.242188 -4.613388 -107.242188

v -7.189453 118.919250 -107.189453

v -7.189453 129.263916 -92.810547

v -7.189453 129.263916 -107.189453

v -7.189453 118.919250 -92.810486

v -4.193359 112.123657 -104.193359

v -4.193359 112.123657 -95.806580

v -6.870605 22.449677 -93.129333

v -6.870605 22.449677 -106.870605

v -9.641602 7.112869 -90.358398

v -9.641357 7.112869 -109.641602

v -7.242188 -4.613388 -92.757813

v -7.242188 -4.613388 -107.242188

v -7.189453 118.919250 -92.810486

v 7.189453 129.263916 -92.810547

v -7.189453 129.263916 -92.810547

v 7.189453 118.919250 -92.810486

v -4.193359 112.123657 -95.806580

v 4.193359 112.123657 -95.806580

v -6.870605 22.449677 -93.129333

v 6.870605 22.449677 -93.129395

v 9.641357 7.112869 -90.358398

v -9.641602 7.112869 -90.358398

v -7.242188 -4.613388 -92.757813

v 7.242188 -4.613388 -92.757813

v 7.189453 118.919250 92.810547

v -7.189453 129.263916 92.810547

v 7.189453 129.263916 92.810547

v -7.189453 118.919250 92.810547

v 4.193359 112.123657 95.806610

v -4.193359 112.123657 95.806610

v 6.870605 22.449677 93.129456

v -6.870605 22.449677 93.129456

v -9.641357 7.112869 90.358368

v 9.641602 7.112869 90.358368

v 7.242188 -4.613388 92.757813

v -7.242188 -4.613388 92.757813

v -7.189453 118.919250 107.189423

v 7.189453 129.263916 107.189484

v -7.189453 129.263916 107.189484

v 7.189453 118.919250 107.189423

v -4.193359 112.123657 104.193329

v 4.193359 112.123657 104.193329

v -6.870605 22.449677 106.870636

v 6.870605 22.449677 106.870636

v 9.641357 7.112869 109.641632

v -9.641602 7.112869 109.641632

v -7.242188 -4.613388 107.242188

v 7.242188 -4.613388 107.242188

v 7.189453 118.919250 107.189423

v 7.189453 129.263916 92.810547

v 7.189453 129.263916 107.189484

v 7.189453 118.919250 92.810547

v 4.193359 112.123657 104.193329

v 4.193359 112.123657 95.806610

v 6.870605 22.449677 93.129456

v 6.870605 22.449677 106.870636

v 9.641357 7.112869 109.641632

v 9.641602 7.112869 90.358368

v 7.242188 -4.613388 92.757813

v 7.242188 -4.613388 107.242188

v -7.189453 129.263916 7.189545

v -7.189453 129.263916 -7.189453

v -7.189453 118.919250 7.189423

v -7.189453 118.919250 -7.189453

v -4.193359 112.123657 -4.193329

v -4.193359 112.123657 4.193481

v -6.870605 22.449677 6.870605

v -6.870605 22.449677 -6.870636

v -9.641357 7.112869 -9.641510

v -9.641602 7.112869 9.641571

v -7.242188 -4.613388 7.242188

v -7.242188 -4.613388 -7.242218

v 7.189453 118.919250 7.189423

v 7.189453 129.263916 -7.189423

v 7.189453 129.263916 7.189514

v 7.189453 118.919250 -7.189423

v 4.193359 112.123657 -4.193359

v 4.193359 112.123657 4.193451

v 6.870605 22.449677 6.870544

v 6.870605 22.449677 -6.870636

v 9.641602 7.112869 -9.641510

v 9.641357 7.112869 9.641571

v 7.242188 -4.613388 7.242218

v 7.242188 -4.613388 -7.242188

v 7.189453 129.263916 -92.810547

v 7.189453 118.919250 -107.189453

v 7.189453 129.263916 -107.189453

v 7.189453 118.919250 -92.810486

v 4.193359 112.123657 -95.806580

v 4.193359 112.123657 -104.193359

v 6.870605 22.449677 -93.129395

v 6.870605 22.449677 -106.870605

v 9.641357 7.112869 -90.358398

v 9.641602 7.112869 -109.641602

v 7.242188 -4.613388 -107.242188

v 7.242188 -4.613388 -92.757813

v 13.158691 121.935181 200.000000

v 13.158691 121.935181 -200.000000

v 13.158691 135.890808 200.000000

v 13.158691 135.890808 -200.000000

v 10.477295 140.837646 -200.000000

v 10.477295 140.837646 200.000000

v -10.477295 140.837646 200.000000

v -10.477295 140.837646 -200.000000

v -13.158691 135.890808 -200.000000

v -13.158691 135.890808 200.000000

v -13.158691 121.935181 200.000000

v -13.158691 121.935181 -200.000000



vt 0.313721 0.405273

vt 0.128418 0.405273

vt 0.313721 0.393066

vt 0.128418 0.393066

vt 0.108093 0.500488

vt 0.101440 0.500488

vt 0.108093 0.495605

vt 0.101440 0.495605

vt 0.106750 0.492188

vt 0.102783 0.492188

vt 0.101501 0.450195

vt 0.107971 0.450195

vt 0.109314 0.442871

vt 0.100098 0.442871

vt 0.108154 0.437012

vt 0.101257 0.437012

vt 0.112915 0.496094

vt 0.119751 0.500488

vt 0.112976 0.500732

vt 0.119751 0.495605

vt 0.114319 0.492188

vt 0.118286 0.492188

vt 0.113159 0.449707

vt 0.119629 0.449707

vt 0.120850 0.442383

vt 0.111816 0.442383

vt 0.112854 0.437012

vt 0.119629 0.437012

vt 0.112915 0.496094

vt 0.119751 0.500488

vt 0.112976 0.500732

vt 0.119751 0.495605

vt 0.114319 0.492188

vt 0.118286 0.492188

vt 0.113159 0.449707

vt 0.119629 0.449707

vt 0.120850 0.442383

vt 0.111816 0.442383

vt 0.112854 0.437012

vt 0.119629 0.437012

vt 0.112915 0.496094

vt 0.119751 0.500488

vt 0.112976 0.500732

vt 0.119751 0.495605

vt 0.114319 0.492188

vt 0.118286 0.492188

vt 0.113159 0.449707

vt 0.119629 0.449707

vt 0.120850 0.442383

vt 0.111816 0.442383

vt 0.112854 0.437012

vt 0.119629 0.437012

vt 0.101440 0.495605

vt 0.108093 0.500488

vt 0.101440 0.500488

vt 0.108093 0.495605

vt 0.102783 0.492188

vt 0.106750 0.492188

vt 0.107971 0.450195

vt 0.101501 0.450195

vt 0.109314 0.442871

vt 0.100098 0.442871

vt 0.108154 0.437012

vt 0.101257 0.437012

vt 0.112915 0.496094

vt 0.119751 0.500488

vt 0.112976 0.500732

vt 0.119751 0.495605

vt 0.114319 0.492188

vt 0.118286 0.492188

vt 0.113159 0.449707

vt 0.119629 0.449707

vt 0.120850 0.442383

vt 0.111816 0.442383

vt 0.112854 0.437012

vt 0.119629 0.437012

vt 0.112915 0.496094

vt 0.119751 0.500488

vt 0.112976 0.500732

vt 0.119751 0.495605

vt 0.114319 0.492188

vt 0.118286 0.492188

vt 0.113159 0.449707

vt 0.119629 0.449707

vt 0.120850 0.442383

vt 0.111816 0.442383

vt 0.112854 0.437012

vt 0.119629 0.437012

vt 0.112915 0.496094

vt 0.119751 0.500488

vt 0.112976 0.500732

vt 0.119751 0.495605

vt 0.114319 0.492188

vt 0.118286 0.492188

vt 0.113159 0.449707

vt 0.119629 0.449707

vt 0.120850 0.442383

vt 0.111816 0.442383

vt 0.112854 0.437012

vt 0.119629 0.437012

vt 0.101440 0.495605

vt 0.108093 0.500488

vt 0.101440 0.500488

vt 0.108093 0.495605

vt 0.102783 0.492188

vt 0.106750 0.492188

vt 0.107971 0.450195

vt 0.101501 0.450195

vt 0.100098 0.442871

vt 0.109314 0.442871

vt 0.108154 0.437012

vt 0.101257 0.437012

vt 0.108093 0.500488

vt 0.101440 0.500488

vt 0.108093 0.495605

vt 0.101440 0.495605

vt 0.102783 0.492188

vt 0.106750 0.492188

vt 0.107971 0.450195

vt 0.101501 0.450195

vt 0.100098 0.442871

vt 0.109314 0.442871

vt 0.108154 0.437012

vt 0.101257 0.437012

vt 0.101440 0.495605

vt 0.108093 0.500488

vt 0.101440 0.500488

vt 0.108093 0.495605

vt 0.106750 0.492188

vt 0.102783 0.492188

vt 0.101501 0.450195

vt 0.107971 0.450195

vt 0.109314 0.442871

vt 0.100098 0.442871

vt 0.101257 0.437012

vt 0.108154 0.437012

vt 0.101440 0.500488

vt 0.108093 0.495605

vt 0.108093 0.500488

vt 0.101440 0.495605

vt 0.102783 0.492188

vt 0.106750 0.492188

vt 0.101501 0.450195

vt 0.107971 0.450195

vt 0.100098 0.442871

vt 0.109314 0.442871

vt 0.108154 0.437012

vt 0.101257 0.437012

vt 0.166870 0.406250

vt 0.352051 0.406250

vt 0.166870 0.412598

vt 0.352295 0.412598

vt 0.352295 0.415527

vt 0.166870 0.415527

vt 0.166870 0.425293

vt 0.352295 0.425293

vt 0.352295 0.427734

vt 0.166870 0.427734

vt 0.166870 0.434570

vt 0.352051 0.434570



vn -0.003922 -1.000000 -0.003922

vn -0.003922 -1.000000 -0.003922

vn -0.003922 -1.000000 -0.003922

vn -0.003922 -1.000000 -0.003922

vn -1.000000 -0.003922 -0.003922

vn -1.000000 -0.003922 -0.003922

vn -1.000000 -0.129412 -0.003922

vn -1.000000 -0.129412 -0.003922

vn -1.000000 -0.011765 -0.003922

vn -1.000000 -0.011765 -0.003922

vn -1.000000 0.058824 -0.003922

vn -1.000000 0.058824 -0.003922

vn -1.000000 0.011765 -0.003922

vn -1.000000 0.011765 -0.003922

vn -0.984314 -0.207843 -0.003922

vn -0.984314 -0.207843 -0.003922

vn -0.003922 -0.129412 -1.000000

vn -0.003922 -0.003922 -1.000000

vn -0.003922 -0.003922 -1.000000

vn -0.003922 -0.129412 -1.000000

vn -0.003922 -0.011765 -1.000000

vn -0.003922 -0.011765 -1.000000

vn -0.003922 0.058824 -1.000000

vn -0.003922 0.058824 -1.000000

vn -0.003922 0.011765 -1.000000

vn -0.003922 0.011765 -1.000000

vn -0.003922 -0.207843 -0.984314

vn -0.003922 -0.207843 -0.984314

vn -0.003922 -0.129412 0.992157

vn -0.003922 -0.003922 1.000000

vn -0.003922 -0.003922 1.000000

vn -0.003922 -0.129412 0.992157

vn -0.003922 -0.011765 0.992157

vn -0.003922 -0.011765 0.992157

vn -0.003922 0.058824 0.992157

vn -0.003922 0.058824 0.992157

vn -0.003922 0.011765 0.992157

vn -0.003922 0.011765 0.992157

vn -0.003922 -0.207843 0.976471

vn -0.003922 -0.207843 0.976471

vn -0.003922 -0.129412 -1.000000

vn -0.003922 -0.003922 -1.000000

vn -0.003922 -0.003922 -1.000000

vn -0.003922 -0.129412 -1.000000

vn -0.003922 -0.011765 -1.000000

vn -0.003922 -0.011765 -1.000000

vn -0.003922 0.058824 -1.000000

vn -0.003922 0.058824 -1.000000

vn -0.003922 0.011765 -1.000000

vn -0.003922 0.011765 -1.000000

vn -0.003922 -0.207843 -0.984314

vn -0.003922 -0.207843 -0.984314

vn -1.000000 -0.129412 -0.003922

vn -1.000000 -0.003922 -0.003922

vn -1.000000 -0.003922 -0.003922

vn -1.000000 -0.129412 -0.003922

vn -1.000000 -0.011765 -0.003922

vn -1.000000 -0.011765 -0.003922

vn -1.000000 0.058824 -0.003922

vn -1.000000 0.058824 -0.003922

vn -1.000000 0.011765 -0.003922

vn -1.000000 0.011765 -0.003922

vn -0.984314 -0.207843 -0.003922

vn -0.984314 -0.207843 -0.003922

vn -0.003922 -0.129412 0.992157

vn -0.003922 -0.003922 1.000000

vn -0.003922 -0.003922 1.000000

vn -0.003922 -0.129412 0.992157

vn -0.003922 -0.011765 0.992157

vn -0.003922 -0.011765 0.992157

vn -0.003922 0.058824 0.992157

vn -0.003922 0.058824 0.992157

vn -0.003922 0.011765 0.992157

vn -0.003922 0.011765 0.992157

vn -0.003922 -0.207843 0.976471

vn -0.003922 -0.207843 0.976471

vn -0.003922 -0.129412 -1.000000

vn -0.003922 -0.003922 -1.000000

vn -0.003922 -0.003922 -1.000000

vn -0.003922 -0.129412 -1.000000

vn -0.003922 -0.011765 -1.000000

vn -0.003922 -0.011765 -1.000000

vn -0.003922 0.058824 -1.000000

vn -0.003922 0.058824 -1.000000

vn -0.003922 0.011765 -1.000000

vn -0.003922 0.011765 -1.000000

vn -0.003922 -0.207843 -0.984314

vn -0.003922 -0.207843 -0.984314

vn -0.003922 -0.129412 0.992157

vn -0.003922 -0.003922 1.000000

vn -0.003922 -0.003922 1.000000

vn -0.003922 -0.129412 0.992157

vn -0.003922 -0.011765 0.992157

vn -0.003922 -0.011765 0.992157

vn -0.003922 0.058824 0.992157

vn -0.003922 0.058824 0.992157

vn -0.003922 0.011765 0.992157

vn -0.003922 0.011765 0.992157

vn -0.003922 -0.207843 0.976471

vn -0.003922 -0.207843 0.976471

vn 0.992157 -0.129412 -0.003922

vn 1.000000 -0.003922 -0.003922

vn 1.000000 -0.003922 -0.003922

vn 0.992157 -0.129412 -0.003922

vn 0.992157 -0.011765 -0.003922

vn 0.992157 -0.011765 -0.003922

vn 0.992157 0.058824 -0.003922

vn 0.992157 0.058824 -0.003922

vn 0.992157 0.011765 -0.003922

vn 0.992157 0.011765 -0.003922

vn 0.976471 -0.207843 -0.003922

vn 0.976471 -0.207843 -0.003922

vn -1.000000 -0.003922 -0.003922

vn -1.000000 -0.003922 -0.003922

vn -1.000000 -0.129412 -0.003922

vn -1.000000 -0.129412 -0.003922

vn -1.000000 -0.011765 -0.003922

vn -1.000000 -0.011765 -0.003922

vn -1.000000 0.058824 -0.003922

vn -1.000000 0.058824 -0.003922

vn -1.000000 0.011765 -0.003922

vn -1.000000 0.011765 -0.003922

vn -0.984314 -0.207843 -0.003922

vn -0.984314 -0.207843 -0.003922

vn 0.992157 -0.129412 -0.003922

vn 1.000000 -0.003922 -0.003922

vn 1.000000 -0.003922 -0.003922

vn 0.992157 -0.129412 -0.003922

vn 0.992157 -0.011765 -0.003922

vn 0.992157 -0.011765 -0.003922

vn 0.992157 0.058824 -0.003922

vn 0.992157 0.058824 -0.003922

vn 0.992157 0.011765 -0.003922

vn 0.992157 0.011765 -0.003922

vn 0.976471 -0.207843 -0.003922

vn 0.976471 -0.207843 -0.003922

vn 1.000000 -0.003922 -0.003922

vn 0.992157 -0.129412 -0.003922

vn 1.000000 -0.003922 -0.003922

vn 0.992157 -0.129412 -0.003922

vn 0.992157 -0.011765 -0.003922

vn 0.992157 -0.011765 -0.003922

vn 0.992157 0.058824 -0.003922

vn 0.992157 0.058824 -0.003922

vn 0.992157 0.011765 -0.003922

vn 0.992157 0.011765 -0.003922

vn 0.976471 -0.207843 -0.003922

vn 0.976471 -0.207843 -0.003922

vn 1.000000 -0.003922 -0.003922

vn 1.000000 -0.003922 -0.003922

vn 0.984314 0.137255 -0.003922

vn 0.984314 0.137255 -0.003922

vn 0.200000 0.976471 -0.003922

vn 0.200000 0.976471 -0.003922

vn -0.207843 0.976471 -0.003922

vn -0.207843 0.976471 -0.003922

vn -0.992157 0.137255 -0.003922

vn -0.992157 0.137255 -0.003922

vn -1.000000 -0.003922 -0.003922

vn -1.000000 -0.003922 -0.003922

f 1/1/1 2/2/2 3/3/3

f 3/3/3 2/2/2 4/4/4

f 5/5/5 6/6/6 7/7/7

f 7/7/7 6/6/6 8/8/8

f 8/8/8 9/9/9 7/7/7

f 9/9/9 8/8/8 10/10/10

f 11/11/11 9/9/9 10/10/10

f 9/9/9 11/11/11 12/12/12

f 11/11/11 13/13/13 12/12/12

f 13/13/13 11/11/11 14/14/14

f 15/15/15 13/13/13 14/14/14

f 15/15/15 14/14/14 16/16/16

f 17/17/17 18/18/18 19/19/19

f 17/17/17 20/20/20 18/18/18

f 21/21/21 20/20/20 17/17/17

f 21/21/21 22/22/22 20/20/20

f 23/23/23 22/22/22 21/21/21

f 24/24/24 22/22/22 23/23/23

f 23/23/23 25/25/25 24/24/24

f 25/25/25 23/23/23 26/26/26

f 27/27/27 25/25/25 26/26/26

f 28/28/28 25/25/25 27/27/27

f 29/29/29 30/30/30 31/31/31

f 30/30/30 29/29/29 32/32/32

f 32/32/32 29/29/29 33/33/33

f 32/32/32 33/33/33 34/34/34

f 33/33/33 35/35/35 34/34/34

f 34/34/34 35/35/35 36/36/36

f 35/35/35 37/37/37 36/36/36

f 37/37/37 35/35/35 38/38/38

f 37/37/37 38/38/38 39/39/39

f 37/37/37 39/39/39 40/40/40

f 41/41/41 42/42/42 43/43/43

f 41/41/41 44/44/44 42/42/42

f 45/45/45 44/44/44 41/41/41

f 45/45/45 46/46/46 44/44/44

f 47/47/47 46/46/46 45/45/45

f 48/48/48 46/46/46 47/47/47

f 47/47/47 49/49/49 48/48/48

f 49/49/49 47/47/47 50/50/50

f 51/51/51 49/49/49 50/50/50

f 52/52/52 49/49/49 51/51/51

f 53/53/53 54/54/54 55/55/55

f 54/54/54 53/53/53 56/56/56

f 56/56/56 53/53/53 57/57/57

f 56/56/56 57/57/57 58/58/58

f 59/59/59 58/58/58 57/57/57

f 59/59/59 57/57/57 60/60/60

f 60/60/60 61/61/61 59/59/59

f 61/61/61 60/60/60 62/62/62

f 63/63/63 61/61/61 62/62/62

f 63/63/63 62/62/62 64/64/64

f 65/65/65 66/66/66 67/67/67

f 66/66/66 65/65/65 68/68/68

f 68/68/68 65/65/65 69/69/69

f 68/68/68 69/69/69 70/70/70

f 69/69/69 71/71/71 70/70/70

f 70/70/70 71/71/71 72/72/72

f 71/71/71 73/73/73 72/72/72

f 73/73/73 71/71/71 74/74/74

f 73/73/73 74/74/74 75/75/75

f 73/73/73 75/75/75 76/76/76

f 77/77/77 78/78/78 79/79/79

f 77/77/77 80/80/80 78/78/78

f 81/81/81 80/80/80 77/77/77

f 81/81/81 82/82/82 80/80/80

f 83/83/83 82/82/82 81/81/81

f 84/84/84 82/82/82 83/83/83

f 83/83/83 85/85/85 84/84/84

f 85/85/85 83/83/83 86/86/86

f 87/87/87 85/85/85 86/86/86

f 88/88/88 85/85/85 87/87/87

f 89/89/89 90/90/90 91/91/91

f 90/90/90 89/89/89 92/92/92

f 92/92/92 89/89/89 93/93/93

f 92/92/92 93/93/93 94/94/94

f 93/93/93 95/95/95 94/94/94

f 94/94/94 95/95/95 96/96/96

f 95/95/95 97/97/97 96/96/96

f 97/97/97 95/95/95 98/98/98

f 97/97/97 98/98/98 99/99/99

f 97/97/97 99/99/99 100/100/100

f 101/101/101 102/102/102 103/103/103

f 102/102/102 101/101/101 104/104/104

f 104/104/104 101/101/101 105/105/105

f 104/104/104 105/105/105 106/106/106

f 105/105/105 107/107/107 106/106/106

f 105/105/105 108/108/108 107/107/107

f 109/109/109 107/107/107 108/108/108

f 107/107/107 109/109/109 110/110/110

f 109/109/109 111/111/111 110/110/110

f 111/111/111 109/109/109 112/112/112

f 113/113/113 114/114/114 115/115/115

f 115/115/115 114/114/114 116/116/116

f 115/115/115 116/116/116 117/117/117

f 115/115/115 117/117/117 118/118/118

f 119/119/119 118/118/118 117/117/117

f 119/119/119 117/117/117 120/120/120

f 119/119/119 120/120/120 121/121/121

f 122/122/122 119/119/119 121/121/121

f 123/123/123 122/122/122 121/121/121

f 123/123/123 121/121/121 124/124/124

f 125/125/125 126/126/126 127/127/127

f 126/126/126 125/125/125 128/128/128

f 125/125/125 129/129/129 128/128/128

f 129/129/129 125/125/125 130/130/130

f 131/131/131 129/129/129 130/130/130

f 129/129/129 131/131/131 132/132/132

f 131/131/131 133/133/133 132/132/132

f 133/133/133 131/131/131 134/134/134

f 135/135/135 133/133/133 134/134/134

f 133/133/133 135/135/135 136/136/136

f 137/137/137 138/138/138 139/139/139

f 137/137/137 140/140/140 138/138/138

f 138/138/138 140/140/140 141/141/141

f 138/138/138 141/141/141 142/142/142

f 143/143/143 142/142/142 141/141/141

f 142/142/142 143/143/143 144/144/144

f 145/145/145 144/144/144 143/143/143

f 144/144/144 145/145/145 146/146/146

f 145/145/145 147/147/147 146/146/146

f 147/147/147 145/145/145 148/148/148

f 149/149/149 150/150/150 151/151/151

f 151/151/151 150/150/150 152/152/152

f 151/151/151 152/152/152 153/153/153

f 153/153/153 154/154/154 151/151/151

f 154/154/154 153/153/153 155/155/155

f 155/155/155 153/153/153 156/156/156

f 157/157/157 155/155/155 156/156/156

f 155/155/155 157/157/157 158/158/158

f 158/158/158 157/157/157 159/159/159

f 159/159/159 157/157/157 160/160/160

