# UnrealEd OBJ exporter (_Internal)



v 17.790771 -0.000000 17.789063

v 17.790771 -0.000000 -17.791992

v 17.790527 11.033752 -17.791992

v 17.790527 11.033752 17.789063

v 11.636963 16.425217 -11.638672

v 11.636963 16.425201 11.635742

v 11.921875 120.040344 11.920410

v -11.921875 120.040344 11.920898

v -13.010498 94.770630 13.008789

v 13.010498 94.770630 13.008789

v -16.276367 58.520203 16.274902

v 16.276367 58.520203 16.274902

v -21.089844 30.484741 21.088379

v 21.089844 30.484741 21.088379

v -11.636963 16.425217 11.635742

v 11.636963 16.425201 11.635742

v 17.790771 -0.000000 -17.791992

v -17.790771 -0.000000 -17.791992

v -17.790527 11.033752 -17.791992

v 17.790527 11.033752 -17.791992

v -11.636963 16.425201 -11.638672

v 11.636963 16.425217 -11.638672

v 9.858887 145.966370 -9.860352

v -9.858887 145.966370 -9.860352

v -13.078125 149.485046 -13.079590

v 13.078125 149.485046 -13.079590

v -11.670410 156.099670 -11.671875

v 11.670410 156.099670 -11.671875

v -2.144287 163.391479 -2.145508

v 2.144287 163.391479 -2.145508

v 11.636963 16.425217 -11.638672

v -11.636963 16.425201 -11.638672

v -21.089844 30.484741 -21.091309

v 21.089844 30.484741 -21.091309

v -16.276367 58.520203 -16.277832

v 16.276367 58.520203 -16.277832

v -13.010498 94.770630 -13.011719

v 13.010498 94.770630 -13.011719

v -11.921875 120.040344 -11.923340

v 11.921875 120.040344 -11.923828

v 11.921875 120.040344 -11.923828

v -11.921875 120.040344 -11.923340

v -17.434326 125.896545 -17.436035

v 17.434326 125.896545 -17.436035

v -15.363281 142.630188 -15.364746

v 15.363281 142.630188 -15.364746

v -9.858887 145.966370 -9.860352

v 9.858887 145.966370 -9.860352

v 17.790527 11.033752 17.789063

v -17.790771 -0.000000 17.789063

v 17.790771 -0.000000 17.789063

v -17.790527 11.033752 17.789063

v 11.636963 16.425201 11.635742

v -11.636963 16.425217 11.635742

v -11.670410 156.099670 11.668945

v 2.144287 163.391479 2.142578

v -2.144287 163.391479 2.142578

v 11.670410 156.099670 11.668945

v -13.078125 149.485046 13.076660

v 13.078125 149.485046 13.076660

v -9.858887 145.966370 9.857422

v 9.858887 145.966370 9.857422

v 13.078125 149.485046 -13.079590

v 9.858887 145.966370 9.857422

v 9.858887 145.966370 -9.860352

v 13.078125 149.485046 13.076660

v 11.670410 156.099670 -11.671875

v 11.670410 156.099670 11.668945

v 2.144287 163.391479 -2.145508

v 2.144287 163.391479 2.142578

v -2.144287 163.391479 2.142578

v -2.144287 163.391479 -2.145508

v -15.363281 142.630188 15.361816

v 9.858887 145.966370 9.857422

v -9.858887 145.966370 9.857422

v 15.363281 142.630188 15.361816

v -17.434326 125.896545 17.433105

v 17.434326 125.896545 17.433105

v -11.921875 120.040344 11.920898

v 11.921875 120.040344 11.920410

v 15.363281 142.630188 15.361816

v 9.858887 145.966370 -9.860352

v 9.858887 145.966370 9.857422

v 15.363281 142.630188 -15.364746

v 17.434326 125.896545 17.433105

v 17.434326 125.896545 -17.436035

v 11.921875 120.040344 11.920410

v 11.921875 120.040344 -11.923828

v -17.790527 11.033752 17.789063

v -17.790771 -0.000000 -17.791992

v -17.790771 -0.000000 17.789063

v -17.790527 11.033752 -17.791992

v -11.636963 16.425217 11.635742

v -11.636963 16.425201 -11.638672

v -11.670410 156.099670 -11.671875

v -2.144287 163.391479 2.142578

v -2.144287 163.391479 -2.145508

v -11.670410 156.099670 11.668945

v -13.078125 149.485046 -13.079590

v -13.078125 149.485046 13.076660

v -9.858887 145.966370 -9.860352

v -9.858887 145.966370 9.857422

v -15.363281 142.630188 -15.364746

v -9.858887 145.966370 9.857422

v -9.858887 145.966370 -9.860352

v -15.363281 142.630188 15.361816

v -17.434326 125.896545 -17.436035

v -17.434326 125.896545 17.433105

v -11.921875 120.040344 -11.923340

v -11.921875 120.040344 11.920898

v 11.636963 16.425217 -11.638672

v 21.089844 30.484741 21.088379

v 11.636963 16.425201 11.635742

v 21.089844 30.484741 -21.091309

v 16.276367 58.520203 -16.277832

v 16.276367 58.520203 16.274902

v 13.010498 94.770630 -13.011719

v 13.010498 94.770630 13.008789

v 11.921875 120.040344 11.920410

v 11.921875 120.040344 -11.923828

v -11.636963 16.425217 11.635742

v -21.089844 30.484741 -21.091309

v -11.636963 16.425201 -11.638672

v -21.089844 30.484741 21.088379

v -16.276367 58.520203 16.274902

v -16.276367 58.520203 -16.277832

v -13.010498 94.770630 13.008789

v -13.010498 94.770630 -13.011719

v -11.921875 120.040344 -11.923340

v -11.921875 120.040344 11.920898



vt 0.082336 0.411621

vt 0.098633 0.411621

vt 0.098633 0.416992

vt 0.082275 0.416992

vt 0.095825 0.420410

vt 0.085083 0.420410

vt 0.074646 0.473633

vt 0.063477 0.473633

vt 0.062927 0.461914

vt 0.075195 0.461914

vt 0.061493 0.444824

vt 0.076904 0.444824

vt 0.059326 0.431152

vt 0.079346 0.431152

vt 0.063904 0.422852

vt 0.074951 0.423340

vt 0.061127 0.414063

vt 0.078003 0.414063

vt 0.077942 0.419434

vt 0.061035 0.418945

vt 0.074951 0.423340

vt 0.063904 0.422852

vt 0.064575 0.488281

vt 0.073792 0.488281

vt 0.075317 0.490723

vt 0.063049 0.490723

vt 0.074646 0.493652

vt 0.063782 0.494141

vt 0.070251 0.499512

vt 0.068298 0.499512

vt 0.063904 0.422852

vt 0.074951 0.423340

vt 0.079346 0.431152

vt 0.059326 0.431152

vt 0.076904 0.444824

vt 0.061493 0.444824

vt 0.075195 0.461914

vt 0.062927 0.461914

vt 0.074646 0.473633

vt 0.063477 0.473633

vt 0.063477 0.473633

vt 0.074646 0.473633

vt 0.077271 0.477539

vt 0.060913 0.477539

vt 0.076355 0.485352

vt 0.061951 0.485352

vt 0.073792 0.488281

vt 0.064575 0.488281

vt 0.077942 0.419434

vt 0.061127 0.414063

vt 0.078003 0.414063

vt 0.061035 0.418945

vt 0.074951 0.423340

vt 0.063904 0.422852

vt 0.063782 0.494141

vt 0.070251 0.499512

vt 0.068298 0.499512

vt 0.074646 0.493652

vt 0.063049 0.490723

vt 0.075317 0.490723

vt 0.064575 0.488281

vt 0.073792 0.488281

vt 0.096741 0.488281

vt 0.085693 0.486328

vt 0.095215 0.486328

vt 0.084167 0.488281

vt 0.096069 0.491699

vt 0.084839 0.491699

vt 0.091492 0.497559

vt 0.089417 0.497559

vt 0.089478 0.499512

vt 0.091431 0.499512

vt 0.061951 0.485352

vt 0.073792 0.488281

vt 0.064575 0.488281

vt 0.076355 0.485352

vt 0.060913 0.477539

vt 0.077271 0.477539

vt 0.063477 0.473633

vt 0.074646 0.473633

vt 0.083069 0.482910

vt 0.095215 0.486328

vt 0.085693 0.486328

vt 0.097839 0.482910

vt 0.082092 0.475098

vt 0.098816 0.475098

vt 0.084717 0.471191

vt 0.096130 0.471191

vt 0.098633 0.416992

vt 0.082336 0.411621

vt 0.098633 0.411621

vt 0.082275 0.416992

vt 0.095825 0.420410

vt 0.085083 0.420410

vt 0.084839 0.491699

vt 0.091492 0.497559

vt 0.089417 0.497559

vt 0.096069 0.491699

vt 0.084167 0.488281

vt 0.096741 0.488281

vt 0.085693 0.486328

vt 0.095215 0.486328

vt 0.083069 0.482910

vt 0.095215 0.486328

vt 0.085693 0.486328

vt 0.097839 0.482910

vt 0.082092 0.475098

vt 0.098816 0.475098

vt 0.084717 0.471191

vt 0.096130 0.471191

vt 0.095825 0.420410

vt 0.080627 0.428223

vt 0.085083 0.420410

vt 0.100281 0.428223

vt 0.098083 0.441895

vt 0.082764 0.441895

vt 0.096619 0.458984

vt 0.084290 0.458984

vt 0.084717 0.471191

vt 0.096130 0.471191

vt 0.095825 0.420410

vt 0.080627 0.428223

vt 0.085083 0.420410

vt 0.100281 0.428223

vt 0.098083 0.441895

vt 0.082764 0.441895

vt 0.096619 0.458984

vt 0.084290 0.458984

vt 0.084717 0.471191

vt 0.096130 0.471191



vn 1.000000 -0.003922 -0.003922

vn 1.000000 -0.003922 -0.003922

vn 0.976471 0.207843 -0.003922

vn 0.976471 0.207843 -0.003922

vn 0.654902 0.749020 -0.003922

vn 0.654902 0.749020 -0.003922

vn -0.003922 0.035294 0.992157

vn -0.003922 0.035294 0.992157

vn -0.003922 0.066667 0.992157

vn -0.003922 0.066667 0.992157

vn -0.003922 0.129412 0.984314

vn -0.003922 0.129412 0.984314

vn -0.003922 -0.043137 0.992157

vn -0.003922 -0.043137 0.992157

vn -0.003922 -0.560784 0.827451

vn -0.003922 -0.560784 0.827451

vn -0.003922 -0.003922 -1.000000

vn -0.003922 -0.003922 -1.000000

vn -0.003922 0.207843 -0.984314

vn -0.003922 0.207843 -0.984314

vn -0.003922 0.749020 -0.662745

vn -0.003922 0.749020 -0.662745

vn -0.003922 -0.678431 -0.741176

vn -0.003922 -0.678431 -0.741176

vn -0.003922 -0.082353 -1.000000

vn -0.003922 -0.082353 -1.000000

vn -0.003922 0.419608 -0.905882

vn -0.003922 0.419608 -0.905882

vn -0.003922 0.788235 -0.607843

vn -0.003922 0.788235 -0.607843

vn -0.003922 -0.560784 -0.835294

vn -0.003922 -0.560784 -0.835294

vn -0.003922 -0.043137 -1.000000

vn -0.003922 -0.043137 -1.000000

vn -0.003922 0.129412 -0.992157

vn -0.003922 0.129412 -0.992157

vn -0.003922 0.066667 -1.000000

vn -0.003922 0.066667 -1.000000

vn -0.003922 0.035294 -1.000000

vn -0.003922 0.035294 -1.000000

vn -0.003922 -0.686275 -0.733333

vn -0.003922 -0.686275 -0.733333

vn -0.003922 -0.066667 -1.000000

vn -0.003922 -0.066667 -1.000000

vn -0.003922 0.223529 -0.976471

vn -0.003922 0.223529 -0.976471

vn -0.003922 0.850981 -0.521569

vn -0.003922 0.850981 -0.521569

vn -0.003922 0.207843 0.976471

vn -0.003922 -0.003922 1.000000

vn -0.003922 -0.003922 1.000000

vn -0.003922 0.207843 0.976471

vn -0.003922 0.749020 0.654902

vn -0.003922 0.749020 0.654902

vn -0.003922 0.419608 0.898039

vn 0.317647 0.882353 0.317647

vn -0.003922 0.819608 0.568628

vn -0.003922 0.419608 0.898039

vn -0.003922 -0.082353 0.992157

vn -0.003922 -0.082353 0.992157

vn -0.003922 -0.678431 0.733333

vn -0.003922 -0.678431 0.733333

vn 0.992157 -0.082353 -0.003922

vn 0.733333 -0.678431 -0.003922

vn 0.733333 -0.678431 -0.003922

vn 0.992157 -0.082353 -0.003922

vn 0.898039 0.419608 -0.003922

vn 0.898039 0.419608 -0.003922

vn 0.568628 0.819608 -0.003922

vn 0.317647 0.882353 0.317647

vn -0.003922 0.819608 0.568628

vn -0.003922 1.000000 -0.003922

vn -0.003922 0.223529 0.968628

vn -0.003922 0.850981 0.513726

vn -0.003922 0.850981 0.513726

vn -0.003922 0.223529 0.968628

vn -0.003922 -0.066667 0.992157

vn -0.003922 -0.066667 0.992157

vn -0.003922 -0.686275 0.725490

vn -0.003922 -0.686275 0.725490

vn 0.968628 0.223529 -0.003922

vn 0.513726 0.850981 -0.003922

vn 0.513726 0.850981 -0.003922

vn 0.968628 0.223529 -0.003922

vn 0.992157 -0.066667 -0.003922

vn 0.992157 -0.066667 -0.003922

vn 0.725490 -0.686275 -0.003922

vn 0.725490 -0.686275 -0.003922

vn -0.984314 0.207843 -0.003922

vn -1.000000 -0.003922 -0.003922

vn -1.000000 -0.003922 -0.003922

vn -0.984314 0.207843 -0.003922

vn -0.662745 0.749020 -0.003922

vn -0.662745 0.749020 -0.003922

vn -0.905882 0.419608 -0.003922

vn -0.607843 0.788235 -0.003922

vn -0.607843 0.788235 -0.003922

vn -0.905882 0.419608 -0.003922

vn -1.000000 -0.082353 -0.003922

vn -1.000000 -0.082353 -0.003922

vn -0.741176 -0.678431 -0.003922

vn -0.741176 -0.678431 -0.003922

vn -0.976471 0.223529 -0.003922

vn -0.521569 0.850981 -0.003922

vn -0.521569 0.850981 -0.003922

vn -0.976471 0.223529 -0.003922

vn -1.000000 -0.066667 -0.003922

vn -1.000000 -0.066667 -0.003922

vn -0.733333 -0.686275 -0.003922

vn -0.733333 -0.686275 -0.003922

vn 0.827451 -0.560784 -0.003922

vn 0.992157 -0.043137 -0.003922

vn 0.827451 -0.560784 -0.003922

vn 0.992157 -0.043137 -0.003922

vn 0.984314 0.129412 -0.003922

vn 0.984314 0.129412 -0.003922

vn 0.992157 0.066667 -0.003922

vn 0.992157 0.066667 -0.003922

vn 0.992157 0.035294 -0.003922

vn 0.992157 0.035294 -0.003922

vn -0.835294 -0.560784 -0.003922

vn -1.000000 -0.043137 -0.003922

vn -0.835294 -0.560784 -0.003922

vn -1.000000 -0.043137 -0.003922

vn -0.992157 0.129412 -0.003922

vn -0.992157 0.129412 -0.003922

vn -1.000000 0.066667 -0.003922

vn -1.000000 0.066667 -0.003922

vn -1.000000 0.035294 -0.003922

vn -1.000000 0.035294 -0.003922

f 1/1/1 2/2/2 3/3/3

f 3/3/3 4/4/4 1/1/1

f 4/4/4 3/3/3 5/5/5

f 4/4/4 5/5/5 6/6/6

f 7/7/7 8/8/8 9/9/9

f 7/7/7 9/9/9 10/10/10

f 10/10/10 9/9/9 11/11/11

f 10/10/10 11/11/11 12/12/12

f 12/12/12 11/11/11 13/13/13

f 12/12/12 13/13/13 14/14/14

f 14/14/14 13/13/13 15/15/15

f 14/14/14 15/15/15 16/16/16

f 17/17/17 18/18/18 19/19/19

f 17/17/17 19/19/19 20/20/20

f 20/20/20 19/19/19 21/21/21

f 20/20/20 21/21/21 22/22/22

f 23/23/23 24/24/24 25/25/25

f 23/23/23 25/25/25 26/26/26

f 26/26/26 25/25/25 27/27/27

f 26/26/26 27/27/27 28/28/28

f 28/28/28 27/27/27 29/29/29

f 28/28/28 29/29/29 30/30/30

f 31/31/31 32/32/32 33/33/33

f 31/31/31 33/33/33 34/34/34

f 33/33/33 35/35/35 34/34/34

f 34/34/34 35/35/35 36/36/36

f 35/35/35 37/37/37 36/36/36

f 36/36/36 37/37/37 38/38/38

f 39/39/39 38/38/38 37/37/37

f 38/38/38 39/39/39 40/40/40

f 41/41/41 42/42/42 43/43/43

f 41/41/41 43/43/43 44/44/44

f 44/44/44 43/43/43 45/45/45

f 44/44/44 45/45/45 46/46/46

f 46/46/46 45/45/45 47/47/47

f 46/46/46 47/47/47 48/48/48

f 49/49/49 50/50/50 51/51/51

f 49/49/49 52/52/52 50/50/50

f 52/52/52 49/49/49 53/53/53

f 52/52/52 53/53/53 54/54/54

f 55/55/55 56/56/56 57/57/57

f 58/58/58 56/56/56 55/55/55

f 58/58/58 55/55/55 59/59/59

f 58/58/58 59/59/59 60/60/60

f 60/60/60 59/59/59 61/61/61

f 60/60/60 61/61/61 62/62/62

f 63/63/63 64/64/64 65/65/65

f 63/63/63 66/66/66 64/64/64

f 66/66/66 63/63/63 67/67/67

f 67/67/67 68/68/68 66/66/66

f 68/68/68 67/67/67 69/69/69

f 70/70/70 68/68/68 69/69/69

f 70/70/70 69/69/69 71/71/71

f 71/71/71 69/69/69 72/72/72

f 73/73/73 74/74/74 75/75/75

f 73/73/73 76/76/76 74/74/74

f 76/76/76 73/73/73 77/77/77

f 76/76/76 77/77/77 78/78/78

f 78/78/78 77/77/77 79/79/79

f 78/78/78 79/79/79 80/80/80

f 81/81/81 82/82/82 83/83/83

f 81/81/81 84/84/84 82/82/82

f 84/84/84 81/81/81 85/85/85

f 85/85/85 86/86/86 84/84/84

f 86/86/86 85/85/85 87/87/87

f 86/86/86 87/87/87 88/88/88

f 89/89/89 90/90/90 91/91/91

f 90/90/90 89/89/89 92/92/92

f 92/92/92 89/89/89 93/93/93

f 92/92/92 93/93/93 94/94/94

f 95/95/95 96/96/96 97/97/97

f 95/95/95 98/98/98 96/96/96

f 99/99/99 98/98/98 95/95/95

f 98/98/98 99/99/99 100/100/100

f 100/100/100 99/99/99 101/101/101

f 100/100/100 101/101/101 102/102/102

f 103/103/103 104/104/104 105/105/105

f 103/103/103 106/106/106 104/104/104

f 107/107/107 106/106/106 103/103/103

f 106/106/106 107/107/107 108/108/108

f 108/108/108 107/107/107 109/109/109

f 108/108/108 109/109/109 110/110/110

f 111/111/111 112/112/112 113/113/113

f 112/112/112 111/111/111 114/114/114

f 112/112/112 114/114/114 115/115/115

f 116/116/116 112/112/112 115/115/115

f 116/116/116 115/115/115 117/117/117

f 118/118/118 116/116/116 117/117/117

f 117/117/117 119/119/119 118/118/118

f 119/119/119 117/117/117 120/120/120

f 121/121/121 122/122/122 123/123/123

f 122/122/122 121/121/121 124/124/124

f 125/125/125 122/122/122 124/124/124

f 122/122/122 125/125/125 126/126/126

f 127/127/127 126/126/126 125/125/125

f 126/126/126 127/127/127 128/128/128

f 127/127/127 129/129/129 128/128/128

f 129/129/129 127/127/127 130/130/130

