# UnrealEd OBJ exporter (_Internal)



v 12.217773 174.280167 183.364746

v -18.524902 174.285797 183.364746

v 12.217773 174.280167 139.075195

v -18.524902 174.285797 139.075195

v -15.690918 176.776672 128.914063

v 9.383789 176.776672 128.914063

v -18.524902 174.285797 139.075195

v 12.217773 174.280167 139.075195

v 9.383789 176.776672 -128.914063

v 9.383789 176.776672 128.914063

v -15.690918 176.776672 128.914063

v -15.690918 176.776672 -128.914063

v -18.524902 174.271805 -139.075195

v 12.217773 174.271805 -183.365234

v 12.217773 174.271805 -139.074219

v -18.524902 174.271805 -183.365234

v 12.217773 174.271805 -139.074219

v -15.690918 176.776672 -128.914063

v -18.524902 174.271805 -139.075195

v 9.383789 176.776672 -128.914063

v 6.998535 183.310791 198.366699

v 6.998535 40.770027 -198.739746

v 6.998535 183.310791 -198.739746

v 6.998535 40.770020 198.366699

v 12.217773 201.423096 183.364746

v 12.217773 174.280167 183.364746

v 12.217773 174.280167 139.075195

v 12.217773 201.423096 139.075195

v 9.383789 176.776672 128.914063

v 9.383789 201.423096 128.914063

v 9.383789 176.776672 -128.914063

v 9.383789 201.423096 -128.914063

v 12.217773 201.423096 -139.075195

v 12.217773 174.271805 -139.074219

v 12.217773 174.271805 -183.365234

v 12.217773 201.423096 -183.365234

v 16.340332 0.000000 189.833984

v 16.340332 0.000000 -189.833984

v 16.340332 37.807167 189.833984

v 16.340332 37.807167 -189.833984

v 15.218750 39.210079 189.833984

v 15.218750 39.210079 -189.833984

v 5.881592 42.681202 189.833984

v 5.881592 42.681202 -189.833984

v -18.524902 174.280167 -139.075195

v -18.524902 201.423096 -183.365234

v -18.524902 174.280167 -183.365234

v -18.524902 201.423096 -139.075195

v -15.690918 176.776672 -128.914063

v -15.690918 201.423096 -128.914063

v -15.690918 176.776672 128.914063

v -15.690918 201.423096 128.914063

v -18.524902 201.423096 139.075195

v -18.524902 174.271805 139.074219

v -18.524902 174.271805 183.364746

v -18.524902 201.423096 183.364746

v 12.217773 201.423096 183.364746

v 12.217773 201.423096 139.075195

v -18.524902 201.423096 183.364746

v -18.524902 201.423096 139.075195

v 9.383789 201.423096 128.914063

v -15.690918 201.423096 128.914063

v 9.383789 201.423096 -128.914063

v -15.690918 201.423096 -128.914063

v -18.524902 201.423096 -139.075195

v 12.217773 201.423096 -139.075195

v -18.524902 201.423096 -183.365234

v 12.217773 201.423096 -183.365234



vt 0.461670 0.968857

vt 0.479980 0.968857

vt 0.461670 0.946259

vt 0.479980 0.946259

vt 0.478271 0.941071

vt 0.463379 0.941071

vt 0.479980 0.946259

vt 0.461670 0.946259

vt 0.463135 0.809448

vt 0.463379 0.941071

vt 0.478271 0.941071

vt 0.478027 0.809448

vt 0.479736 0.804199

vt 0.461426 0.781616

vt 0.461426 0.804199

vt 0.479736 0.781616

vt 0.461426 0.804199

vt 0.478027 0.809448

vt 0.479736 0.804199

vt 0.463135 0.809448

vt 0.002522 0.328125

vt 0.190063 0.262695

vt 0.189941 0.328125

vt 0.002645 0.262695

vt 0.457520 0.969360

vt 0.438965 0.969360

vt 0.439209 0.946228

vt 0.457520 0.946228

vt 0.440918 0.941071

vt 0.457520 0.941071

vt 0.441650 0.809570

vt 0.458496 0.809570

vt 0.458496 0.804321

vt 0.439941 0.804321

vt 0.440186 0.781128

vt 0.458496 0.781128

vt 0.194092 0.304688

vt 0.373291 0.304688

vt 0.194092 0.322266

vt 0.373291 0.322266

vt 0.194092 0.322754

vt 0.373291 0.322754

vt 0.194092 0.327637

vt 0.373291 0.327637

vt 0.439209 0.946228

vt 0.457520 0.969360

vt 0.438965 0.969360

vt 0.457520 0.946228

vt 0.440918 0.941071

vt 0.457520 0.941071

vt 0.441650 0.809570

vt 0.458496 0.809570

vt 0.458496 0.804321

vt 0.439941 0.804321

vt 0.440186 0.781128

vt 0.458496 0.781128

vt 0.461670 0.968857

vt 0.461670 0.946259

vt 0.479980 0.968857

vt 0.479980 0.946259

vt 0.463379 0.941071

vt 0.478271 0.941071

vt 0.463135 0.809448

vt 0.478027 0.809448

vt 0.479736 0.804199

vt 0.461426 0.804199

vt 0.479736 0.781616

vt 0.461426 0.781616



vn -0.003922 -1.000000 -0.003922

vn -0.003922 -1.000000 -0.003922

vn -0.003922 -1.000000 -0.003922

vn -0.003922 -1.000000 -0.003922

vn -0.003922 -0.952941 -0.317647

vn -0.003922 -0.952941 -0.317647

vn -0.003922 -0.952941 -0.317647

vn -0.003922 -0.952941 -0.317647

vn -0.003922 -1.000000 -0.003922

vn -0.003922 -1.000000 -0.003922

vn -0.003922 -1.000000 -0.003922

vn -0.003922 -1.000000 -0.003922

vn -0.003922 -1.000000 -0.003922

vn -0.003922 -1.000000 -0.003922

vn -0.003922 -1.000000 -0.003922

vn -0.003922 -1.000000 -0.003922

vn -0.003922 -0.952941 0.309804

vn -0.003922 -0.952941 0.309804

vn -0.003922 -0.952941 0.309804

vn -0.003922 -0.952941 0.309804

vn 1.000000 -0.003922 -0.003922

vn 1.000000 -0.003922 -0.003922

vn 1.000000 -0.003922 -0.003922

vn 1.000000 -0.003922 -0.003922

vn 0.992157 -0.003922 0.043137

vn 0.992157 -0.003922 0.043137

vn 0.992157 -0.003922 -0.050980

vn 0.992157 -0.003922 -0.058823

vn 0.992157 -0.003922 -0.019608

vn 0.992157 -0.003922 -0.019608

vn 0.992157 -0.003922 0.011765

vn 0.992157 -0.003922 0.011765

vn 0.992157 -0.003922 0.050980

vn 0.992157 -0.003922 0.043137

vn 0.992157 -0.003922 -0.050980

vn 0.992157 -0.003922 -0.050980

vn 1.000000 -0.003922 -0.003922

vn 1.000000 -0.003922 -0.003922

vn 1.000000 -0.003922 -0.003922

vn 1.000000 -0.003922 -0.003922

vn 0.262745 0.960784 -0.003922

vn 0.262745 0.960784 -0.003922

vn 0.262745 0.960784 -0.003922

vn 0.262745 0.960784 -0.003922

vn -1.000000 -0.003922 0.043137

vn -1.000000 -0.003922 -0.050980

vn -1.000000 -0.003922 -0.050980

vn -1.000000 -0.003922 0.050980

vn -1.000000 -0.003922 0.011765

vn -1.000000 -0.003922 0.011765

vn -1.000000 -0.003922 -0.019608

vn -1.000000 -0.003922 -0.019608

vn -1.000000 -0.003922 -0.058823

vn -1.000000 -0.003922 -0.050980

vn -1.000000 -0.003922 0.043137

vn -1.000000 -0.003922 0.043137

vn -0.003922 0.992157 0.043137

vn -0.003922 1.000000 -0.003922

vn -0.003922 0.992157 0.043137

vn -0.003922 1.000000 -0.003922

vn -0.003922 1.000000 -0.003922

vn -0.003922 1.000000 -0.003922

vn -0.003922 1.000000 -0.003922

vn -0.003922 1.000000 -0.003922

vn -0.003922 1.000000 -0.003922

vn -0.003922 1.000000 -0.003922

vn -0.003922 0.992157 -0.050980

vn -0.003922 0.992157 -0.050980

f 1/1/1 2/2/2 3/3/3

f 2/2/2 4/4/4 3/3/3

f 5/5/5 6/6/6 7/7/7

f 8/8/8 7/7/7 6/6/6

f 9/9/9 10/10/10 11/11/11

f 11/11/11 12/12/12 9/9/9

f 13/13/13 14/14/14 15/15/15

f 14/14/14 13/13/13 16/16/16

f 17/17/17 18/18/18 19/19/19

f 18/18/18 17/17/17 20/20/20

f 21/21/21 22/22/22 23/23/23

f 22/22/22 21/21/21 24/24/24

f 25/25/25 26/26/26 27/27/27

f 25/25/25 27/27/27 28/28/28

f 28/28/28 27/27/27 29/29/29

f 28/28/28 29/29/29 30/30/30

f 29/29/29 31/31/31 30/30/30

f 30/30/30 31/31/31 32/32/32

f 32/32/32 31/31/31 33/33/33

f 34/34/34 33/33/33 31/31/31

f 35/35/35 33/33/33 34/34/34

f 33/33/33 35/35/35 36/36/36

f 37/37/37 38/38/38 39/39/39

f 39/39/39 38/38/38 40/40/40

f 39/39/39 40/40/40 41/41/41

f 41/41/41 40/40/40 42/42/42

f 41/41/41 42/42/42 43/43/43

f 43/43/43 42/42/42 44/44/44

f 45/45/45 46/46/46 47/47/47

f 48/48/48 46/46/46 45/45/45

f 49/49/49 48/48/48 45/45/45

f 49/49/49 50/50/50 48/48/48

f 51/51/51 50/50/50 49/49/49

f 52/52/52 50/50/50 51/51/51

f 51/51/51 53/53/53 52/52/52

f 53/53/53 51/51/51 54/54/54

f 55/55/55 53/53/53 54/54/54

f 53/53/53 55/55/55 56/56/56

f 57/57/57 58/58/58 59/59/59

f 59/59/59 58/58/58 60/60/60

f 60/60/60 58/58/58 61/61/61

f 60/60/60 61/61/61 62/62/62

f 61/61/61 63/63/63 62/62/62

f 62/62/62 63/63/63 64/64/64

f 63/63/63 65/65/65 64/64/64

f 65/65/65 63/63/63 66/66/66

f 66/66/66 67/67/67 65/65/65

f 67/67/67 66/66/66 68/68/68

