# UnrealEd OBJ exporter (_Internal)



v -15.964111 0.040160 179.873657

v -15.964111 130.401611 179.873657

v -15.964111 130.401611 26.805664

v -15.964111 0.040160 179.873657

v -15.964111 130.401611 26.805664

v -15.964111 132.836914 19.258911

v -15.964111 0.040160 179.873657

v -15.964111 132.836914 19.258911

v -15.964111 0.040160 -0.000000

v 11.605713 0.040160 179.873657

v 11.605713 132.836914 19.782227

v 11.605713 130.401611 27.329102

v 10.520508 349.301147 155.683594

v 10.520508 345.138550 133.583008

v 10.520508 348.318481 122.021484

v 11.605713 0.040160 179.873657

v 11.605713 130.401611 27.329102

v 11.605713 130.401611 179.873657

v 11.605713 0.040160 -0.000000

v 11.605713 132.836914 19.782227

v 11.605713 138.256836 -0.000000

v 11.605713 138.256836 12.643188

v 11.605713 0.040160 -0.000000

v -2.179199 130.401611 27.067383

v -15.964111 130.401611 179.873657

v -2.179199 130.401611 179.873657

v -15.964111 130.401611 26.805664

v -2.179199 132.836914 19.520569

v -2.179199 130.401611 27.067383

v -15.964111 132.836914 19.258911

v -2.179199 138.256836 12.381470

v -15.964111 138.256836 12.119751

v -2.179199 138.256836 -0.261688

v -15.964111 138.256836 -0.523376

v -15.267578 397.280884 157.601135

v -17.988525 370.327759 151.362549

v -15.267578 373.052216 158.184418

v -17.988525 400.000000 151.362549

v -17.988525 400.000000 114.802490

v -17.988525 370.327759 151.362549

v -17.988525 370.327759 114.801758

v -15.253662 373.065186 106.414795

v -15.253662 400.000000 106.414795

v -15.253662 400.000000 -0.210388

v -15.253662 373.065186 -0.210388

v -15.267578 373.052216 158.184418

v -17.988525 400.000000 164.297485

v -15.267578 397.280884 157.601135

v -17.988525 370.327759 164.297485

v -17.988525 400.000000 200.000000

v -17.988525 370.327759 200.000000

v -17.988525 400.000000 164.297485

v 5.411621 396.402588 184.520020

v 5.411621 130.401611 184.520020

v 5.411621 130.401611 -0.210388

v 5.411621 396.402588 -0.210388

v 11.605713 130.401611 179.873657

v 11.605713 130.401611 27.329102

v -2.179199 130.401611 179.873657

v -2.179199 130.401611 27.067383

v 11.605713 130.401611 27.329102

v 11.605713 132.836914 19.782227

v -2.179199 132.836914 19.520569

v 11.605713 138.256836 12.643188

v -2.179199 138.256836 12.381470

v 11.605713 138.256836 -0.000000

v -2.179199 138.256836 -0.261688

v 11.681641 370.336914 151.362549

v -17.988525 370.343018 151.362549

v 11.681641 370.336914 114.802490

v -17.988525 370.343018 114.802490

v -15.253662 373.065186 106.414795

v 8.946289 373.065186 106.414795

v -17.988525 370.343018 114.802490

v 11.681641 370.336914 114.802490

v 8.946289 373.065186 -0.210388

v 8.946289 373.065186 106.414795

v -15.253662 373.065186 106.414795

v -15.253662 373.065186 -0.210388

v 11.681641 370.327759 200.000000

v -17.988525 370.327759 200.000000

v 11.681641 370.327759 164.297485

v -17.988525 370.327759 164.297485

v -17.988525 370.343018 151.362549

v 8.960205 373.049927 157.601135

v -15.267578 373.052216 158.184418

v 11.681641 370.336914 151.362549

v -15.267578 373.052216 158.184418

v 11.681641 370.327759 164.297485

v -17.988525 370.327759 164.297485

v 8.960205 373.049927 157.601135

v -7.235596 396.402588 184.332275

v -7.235596 396.402588 -0.312988

v -7.235596 130.401611 184.332275

v -7.235596 130.401611 -0.312988

v -15.964111 132.836914 19.258911

v -15.964111 138.256836 -0.523376

v -15.964111 0.040160 -0.000000

v -15.964111 138.256836 12.119751

v 11.681641 400.000000 200.000000

v 11.681641 370.327759 200.000000

v 11.681641 370.327759 164.297485

v 11.681641 400.000000 164.297485

v 8.960205 373.049927 157.601135

v 8.960205 397.280884 157.601135

v 10.520508 311.193848 170.652832

v 10.520508 325.711060 158.801270

v 10.520508 330.224609 182.856445

v 10.520508 299.710083 176.212891

v 10.520508 288.369751 182.676758

v 10.520508 292.077637 177.460938

v 10.520508 371.032715 142.399414

v -16.212158 371.032715 142.399414

v -16.212158 361.325073 146.644531

v 10.520508 361.325073 146.644531

v -16.212158 349.301147 155.683594

v 10.520508 349.301147 155.683594

v -16.212158 339.163208 166.235352

v 10.520508 339.163208 166.235352

v -16.212158 330.224609 182.856445

v 10.520508 330.224609 182.856445

v 10.520508 288.369751 182.676758

v -16.212158 288.369751 182.676758

v -16.212158 292.077637 177.460938

v 10.520508 292.077637 177.460938

v -16.212158 299.710083 176.212891

v 10.520508 299.710083 176.212891

v -16.212158 311.193848 170.652832

v 10.520508 311.193848 170.652832

v -16.212158 325.711060 158.801270

v 10.520508 325.711060 158.801270

v -16.212158 335.519409 146.900879

v 10.520508 335.519409 146.900879

v -16.212158 345.138550 133.583008

v 10.520508 345.138550 133.583008

v -16.212158 348.318481 122.021484

v 10.520508 348.318481 122.021484

v -16.212158 355.322266 119.323242

v 10.520508 355.322266 119.323242

v -16.212158 370.748901 118.283203

v 10.520508 370.748901 118.283203

v -15.253662 400.000000 106.414795

v 8.946289 400.000000 -0.210388

v -15.253662 400.000000 -0.210388

v 8.946289 400.000000 106.414795

v -17.988525 400.000000 114.802490

v 11.681641 400.000000 114.802490

v -17.988525 400.000000 151.362549

v 11.681641 400.000000 151.362549

v 8.960205 397.280884 157.601135

v -15.267578 397.280884 157.601135

v 8.946289 400.000000 106.414795

v 8.946289 373.065186 -0.210388

v 8.946289 400.000000 -0.210388

v 8.946289 373.065186 106.414795

v 11.681641 400.000000 114.802490

v 11.681641 370.336914 114.802490

v 11.681641 400.000000 151.362549

v 11.681641 370.336914 151.362549

v 8.960205 397.280884 157.601135

v 8.960205 373.049927 157.601135

v 11.681641 400.000000 200.000000

v 11.681641 400.000000 164.297485

v -17.988525 400.000000 200.000000

v -17.988525 400.000000 164.297485

v 8.960205 397.280884 157.601135

v -15.267578 397.280884 157.601135

v -16.212158 288.369751 182.676758

v -16.212158 299.710083 176.212891

v -16.212158 292.077637 177.460938

v -16.212158 330.224609 182.856445

v -16.212158 311.193848 170.652832

v -16.212158 325.711060 158.801270

v -16.212158 339.163208 166.235352

v -16.212158 335.519409 146.900879

v -16.212158 349.301147 155.683594

v -16.212158 345.138550 133.583008

v -16.212158 348.318481 122.021484

v -16.212158 361.325073 146.644531

v -16.212158 355.322266 119.323242

v -16.212158 370.748901 118.283203

v -16.212158 371.032715 142.399414

v 10.520508 325.711060 158.801270

v 10.520508 339.163208 166.235352

v 10.520508 330.224609 182.856445

v 10.520508 335.519409 146.900879

v 10.520508 349.301147 155.683594

v 10.520508 345.138550 133.583008

v 10.520508 348.318481 122.021484

v 10.520508 361.325073 146.644531

v 10.520508 355.322266 119.323242

v 10.520508 370.748901 118.283203

v 10.520508 371.032715 142.399414



vt 0.318115 0.750366

vt 0.318115 0.819458

vt 0.237305 0.819580

vt 0.318115 0.750366

vt 0.237305 0.819580

vt 0.233398 0.820801

vt 0.318115 0.750366

vt 0.233398 0.820801

vt 0.223022 0.750488

vt 0.127563 0.750366

vt 0.212402 0.820801

vt 0.208374 0.819580

vt 0.386963 0.754028

vt 0.380371 0.763916

vt 0.375000 0.767090

vt 0.127563 0.750366

vt 0.208374 0.819580

vt 0.127441 0.819458

vt 0.222778 0.750488

vt 0.212402 0.820801

vt 0.222900 0.823608

vt 0.216187 0.823730

vt 0.222778 0.750488

vt 0.438477 0.887390

vt 0.431641 0.807739

vt 0.438477 0.807739

vt 0.431641 0.887390

vt 0.438477 0.891602

vt 0.438477 0.887390

vt 0.431641 0.891602

vt 0.438477 0.896301

vt 0.431641 0.896301

vt 0.438477 0.902954

vt 0.431641 0.902954

vt 0.456787 0.777344

vt 0.440186 0.781128

vt 0.441895 0.777344

vt 0.458496 0.781128

vt 0.458496 0.804321

vt 0.440186 0.781128

vt 0.439941 0.804321

vt 0.441650 0.809570

vt 0.458496 0.809570

vt 0.458008 0.875488

vt 0.441406 0.875488

vt 0.441895 0.777344

vt 0.458496 0.773193

vt 0.456787 0.777344

vt 0.440186 0.773193

vt 0.458740 0.750732

vt 0.440430 0.750732

vt 0.458496 0.773193

vt 0.255615 1.001000

vt 0.128052 1.001004

vt 0.128052 0.912476

vt 0.255371 0.912476

vt 0.431641 0.998612

vt 0.431641 0.918457

vt 0.438477 0.998611

vt 0.438477 0.918457

vt 0.431641 0.918457

vt 0.431641 0.914307

vt 0.438477 0.914307

vt 0.431641 0.909607

vt 0.438477 0.909607

vt 0.431641 0.902954

vt 0.438477 0.902954

vt 0.459961 0.968857

vt 0.478271 0.968857

vt 0.459717 0.946259

vt 0.478271 0.946259

vt 0.476563 0.941071

vt 0.461426 0.941071

vt 0.478271 0.946259

vt 0.459717 0.946259

vt 0.461426 0.875122

vt 0.461426 0.941071

vt 0.476563 0.941071

vt 0.476318 0.875122

vt 0.459961 0.999750

vt 0.478271 0.999750

vt 0.459961 0.977676

vt 0.478271 0.977676

vt 0.478271 0.968857

vt 0.461426 0.973145

vt 0.476563 0.973145

vt 0.459961 0.968857

vt 0.476563 0.973145

vt 0.459961 0.977676

vt 0.478271 0.977676

vt 0.461426 0.973145

vt 0.255371 0.823975

vt 0.255371 0.912476

vt 0.128052 0.824097

vt 0.128052 0.912537

vt 0.233398 0.820801

vt 0.222900 0.823608

vt 0.223022 0.750488

vt 0.229614 0.823730

vt 0.457275 0.999750

vt 0.438965 0.999750

vt 0.438965 0.977219

vt 0.457275 0.977219

vt 0.440674 0.973190

vt 0.455811 0.973190

vt 0.406982 0.762451

vt 0.397217 0.761597

vt 0.404297 0.750732

vt 0.413330 0.764648

vt 0.420166 0.766479

vt 0.416748 0.767090

vt 0.374756 0.819824

vt 0.375000 0.808472

vt 0.380615 0.808472

vt 0.380371 0.819824

vt 0.388428 0.808472

vt 0.388428 0.819824

vt 0.396240 0.808472

vt 0.396240 0.819824

vt 0.406250 0.808472

vt 0.406250 0.819824

vt 0.318604 0.819824

vt 0.318359 0.808472

vt 0.321533 0.808472

vt 0.321777 0.819824

vt 0.325439 0.808472

vt 0.325684 0.819824

vt 0.331787 0.808472

vt 0.332031 0.819824

vt 0.341309 0.808472

vt 0.341309 0.819824

vt 0.348877 0.808472

vt 0.349121 0.819824

vt 0.357178 0.808472

vt 0.357178 0.819824

vt 0.363037 0.808472

vt 0.363281 0.819824

vt 0.366943 0.808472

vt 0.366943 0.819824

vt 0.374512 0.808472

vt 0.374756 0.819824

vt 0.476563 0.941071

vt 0.461426 0.875122

vt 0.476318 0.875122

vt 0.461426 0.941071

vt 0.478271 0.946259

vt 0.459717 0.946259

vt 0.478271 0.968857

vt 0.459961 0.968857

vt 0.461426 0.973145

vt 0.476563 0.973145

vt 0.457520 0.941071

vt 0.441406 0.875244

vt 0.458008 0.875244

vt 0.440918 0.941071

vt 0.457520 0.946228

vt 0.439209 0.946228

vt 0.457520 0.969360

vt 0.438965 0.969360

vt 0.455811 0.973190

vt 0.440674 0.973190

vt 0.459961 0.999750

vt 0.459961 0.977676

vt 0.478271 0.999750

vt 0.478271 0.977676

vt 0.461426 0.973145

vt 0.476563 0.973145

vt 0.415771 0.753540

vt 0.418457 0.760010

vt 0.415771 0.756958

vt 0.433594 0.766968

vt 0.421631 0.765991

vt 0.423828 0.775635

vt 0.431885 0.776733

vt 0.424316 0.783813

vt 0.432861 0.784546

vt 0.424072 0.792480

vt 0.421631 0.798340

vt 0.435059 0.792114

vt 0.423828 0.801758

vt 0.429932 0.807129

vt 0.437744 0.796997

vt 0.397217 0.761597

vt 0.394775 0.753784

vt 0.404297 0.750732

vt 0.388916 0.762451

vt 0.386963 0.754028

vt 0.380371 0.763916

vt 0.375000 0.767090

vt 0.379150 0.752930

vt 0.371338 0.765503

vt 0.364990 0.760254

vt 0.374023 0.750977



vn -1.000000 -0.003922 -0.003922

vn -1.000000 -0.003922 -0.003922

vn -1.000000 -0.003922 -0.003922

vn -1.000000 -0.003922 -0.003922

vn -1.000000 -0.003922 -0.003922

vn -1.000000 -0.003922 -0.003922

vn -1.000000 -0.003922 -0.003922

vn -1.000000 -0.003922 -0.003922

vn -1.000000 -0.003922 -0.003922

vn 1.000000 -0.003922 -0.003922

vn 1.000000 -0.003922 -0.003922

vn 1.000000 -0.003922 -0.003922

vn 1.000000 -0.003922 -0.003922

vn 1.000000 -0.003922 -0.003922

vn 1.000000 -0.003922 -0.003922

vn 1.000000 -0.003922 -0.003922

vn 1.000000 -0.003922 -0.003922

vn 1.000000 -0.003922 -0.003922

vn 1.000000 -0.003922 -0.003922

vn 1.000000 -0.003922 -0.003922

vn 1.000000 -0.003922 -0.003922

vn 1.000000 -0.003922 -0.003922

vn 1.000000 -0.003922 -0.003922

vn -0.003922 0.992157 0.011765

vn -0.003922 1.000000 -0.003922

vn -0.003922 1.000000 -0.003922

vn -0.003922 0.992157 0.011765

vn -0.003922 0.874510 0.466667

vn -0.003922 0.992157 0.011765

vn -0.003922 0.874510 0.466667

vn -0.003922 0.960784 0.262745

vn -0.003922 0.960784 0.262745

vn -0.003922 1.000000 -0.003922

vn -0.003922 1.000000 -0.003922

vn -0.929412 -0.003922 0.372549

vn -1.000000 -0.003922 0.043137

vn -0.929412 -0.003922 0.372549

vn -1.000000 -0.003922 0.043137

vn -1.000000 -0.003922 -0.058823

vn -1.000000 -0.003922 0.043137

vn -1.000000 -0.003922 -0.050980

vn -1.000000 -0.003922 -0.019608

vn -1.000000 -0.003922 -0.019608

vn -1.000000 -0.003922 -0.003922

vn -1.000000 -0.003922 -0.003922

vn -0.937255 -0.003922 -0.356863

vn -1.000000 -0.003922 -0.050980

vn -0.937255 -0.003922 -0.356863

vn -1.000000 -0.003922 -0.050980

vn -1.000000 -0.003922 -0.003922

vn -1.000000 -0.003922 -0.003922

vn -1.000000 -0.003922 -0.050980

vn 1.000000 -0.003922 -0.003922

vn 1.000000 -0.003922 -0.003922

vn 1.000000 -0.003922 -0.003922

vn 1.000000 -0.003922 -0.003922

vn -0.003922 1.000000 -0.003922

vn -0.003922 0.992157 0.011765

vn -0.003922 1.000000 -0.003922

vn -0.003922 0.992157 0.011765

vn -0.003922 0.992157 0.011765

vn -0.003922 0.874510 0.466667

vn -0.003922 0.874510 0.466667

vn -0.003922 0.960784 0.262745

vn -0.003922 0.960784 0.262745

vn -0.003922 1.000000 -0.003922

vn -0.003922 1.000000 -0.003922

vn -0.003922 -1.000000 -0.003922

vn -0.003922 -1.000000 -0.003922

vn -0.003922 -1.000000 -0.003922

vn -0.003922 -1.000000 -0.003922

vn -0.003922 -0.952941 -0.309804

vn -0.003922 -0.952941 -0.309804

vn -0.003922 -0.952941 -0.309804

vn -0.003922 -0.952941 -0.309804

vn -0.003922 -1.000000 -0.003922

vn -0.003922 -1.000000 -0.003922

vn -0.003922 -1.000000 -0.003922

vn -0.003922 -1.000000 -0.003922

vn -0.003922 -1.000000 -0.003922

vn -0.003922 -1.000000 -0.003922

vn -0.003922 -1.000000 -0.003922

vn -0.003922 -1.000000 -0.003922

vn -0.003922 -0.882353 0.466667

vn -0.003922 -0.882353 0.466667

vn -0.003922 -0.882353 0.466667

vn -0.003922 -0.882353 0.466667

vn -0.003922 -0.898039 -0.443137

vn -0.003922 -0.898039 -0.443137

vn -0.003922 -0.898039 -0.443137

vn -0.003922 -0.898039 -0.443137

vn -1.000000 -0.003922 -0.003922

vn -1.000000 -0.003922 -0.003922

vn -1.000000 -0.003922 -0.003922

vn -1.000000 -0.003922 -0.003922

vn -1.000000 -0.003922 -0.003922

vn -1.000000 -0.003922 -0.003922

vn -1.000000 -0.003922 -0.003922

vn -1.000000 -0.003922 -0.003922

vn 1.000000 -0.003922 -0.003922

vn 1.000000 -0.003922 -0.003922

vn 0.992157 -0.003922 -0.050980

vn 0.992157 -0.003922 -0.050980

vn 0.929412 -0.003922 -0.356863

vn 0.929412 -0.003922 -0.356863

vn 1.000000 -0.003922 -0.003922

vn 1.000000 -0.003922 -0.003922

vn 1.000000 -0.003922 -0.003922

vn 1.000000 -0.003922 -0.003922

vn 1.000000 -0.003922 -0.003922

vn 1.000000 -0.003922 -0.003922

vn -0.003922 0.396078 0.913726

vn -0.003922 0.396078 0.913726

vn -0.003922 0.513726 0.850981

vn -0.003922 0.513726 0.850981

vn -0.003922 0.654902 0.749020

vn -0.003922 0.654902 0.749020

vn -0.003922 0.811765 0.568628

vn -0.003922 0.811765 0.568628

vn -0.003922 0.874510 0.466667

vn -0.003922 0.874510 0.466667

vn -0.003922 -0.819608 -0.584314

vn -0.003922 -0.819608 -0.584314

vn -0.003922 -0.498039 -0.874510

vn -0.003922 -0.498039 -0.874510

vn -0.003922 -0.341176 -0.945098

vn -0.003922 -0.341176 -0.945098

vn -0.003922 -0.560784 -0.835294

vn -0.003922 -0.560784 -0.835294

vn -0.003922 -0.701961 -0.717647

vn -0.003922 -0.701961 -0.717647

vn -0.003922 -0.796078 -0.615686

vn -0.003922 -0.796078 -0.615686

vn -0.003922 -0.890196 -0.458824

vn -0.003922 -0.890196 -0.458824

vn -0.003922 -0.819608 -0.584314

vn -0.003922 -0.819608 -0.584314

vn -0.003922 -0.168627 -0.992157

vn -0.003922 -0.168627 -0.992157

vn -0.003922 -0.074510 -1.000000

vn -0.003922 -0.074510 -1.000000

vn -0.003922 1.000000 -0.003922

vn -0.003922 1.000000 -0.003922

vn -0.003922 1.000000 -0.003922

vn -0.003922 1.000000 -0.003922

vn -0.003922 1.000000 -0.003922

vn -0.003922 1.000000 -0.003922

vn -0.003922 0.992157 0.043137

vn -0.003922 0.992157 0.043137

vn -0.003922 0.921569 0.372549

vn -0.003922 0.921569 0.372549

vn 0.992157 -0.003922 -0.019608

vn 1.000000 -0.003922 -0.003922

vn 1.000000 -0.003922 -0.003922

vn 0.992157 -0.003922 -0.019608

vn 0.992157 -0.003922 -0.058823

vn 0.992157 -0.003922 -0.050980

vn 0.992157 -0.003922 0.043137

vn 0.992157 -0.003922 0.043137

vn 0.921569 -0.003922 0.372549

vn 0.921569 -0.003922 0.372549

vn -0.003922 1.000000 -0.003922

vn -0.003922 0.992157 -0.050980

vn -0.003922 1.000000 -0.003922

vn -0.003922 0.992157 -0.050980

vn -0.003922 0.929412 -0.356863

vn -0.003922 0.929412 -0.356863

vn -1.000000 -0.003922 -0.003922

vn -1.000000 -0.003922 -0.003922

vn -1.000000 -0.003922 -0.003922

vn -1.000000 -0.003922 -0.003922

vn -1.000000 -0.003922 -0.003922

vn -1.000000 -0.003922 -0.003922

vn -1.000000 -0.003922 -0.003922

vn -1.000000 -0.003922 -0.003922

vn -1.000000 -0.003922 -0.003922

vn -1.000000 -0.003922 -0.003922

vn -1.000000 -0.003922 -0.003922

vn -1.000000 -0.003922 -0.003922

vn -1.000000 -0.003922 -0.003922

vn -1.000000 -0.003922 -0.003922

vn -1.000000 -0.003922 -0.003922

vn 1.000000 -0.003922 -0.003922

vn 1.000000 -0.003922 -0.003922

vn 1.000000 -0.003922 -0.003922

vn 1.000000 -0.003922 -0.003922

vn 1.000000 -0.003922 -0.003922

vn 1.000000 -0.003922 -0.003922

vn 1.000000 -0.003922 -0.003922

vn 1.000000 -0.003922 -0.003922

vn 1.000000 -0.003922 -0.003922

vn 1.000000 -0.003922 -0.003922

vn 1.000000 -0.003922 -0.003922

f 1/1/1 2/2/2 3/3/3

f 4/4/4 5/5/5 6/6/6

f 7/7/7 8/8/8 9/9/9

f 10/10/10 11/11/11 12/12/12

f 13/13/13 14/14/14 15/15/15

f 16/16/16 17/17/17 18/18/18

f 19/19/19 20/20/20 16/16/16

f 20/20/20 21/21/21 22/22/22

f 21/21/21 20/20/20 23/23/23

f 24/24/24 25/25/25 26/26/26

f 25/25/25 24/24/24 27/27/27

f 28/28/28 27/27/27 29/29/29

f 27/27/27 28/28/28 30/30/30

f 31/31/31 30/30/30 28/28/28

f 30/30/30 31/31/31 32/32/32

f 33/33/33 32/32/32 31/31/31

f 32/32/32 33/33/33 34/34/34

f 35/35/35 36/36/36 37/37/37

f 36/36/36 35/35/35 38/38/38

f 39/39/39 40/40/40 38/38/38

f 40/40/40 39/39/39 41/41/41

f 39/39/39 42/42/42 41/41/41

f 42/42/42 39/39/39 43/43/43

f 43/43/43 44/44/44 42/42/42

f 42/42/42 44/44/44 45/45/45

f 46/46/46 47/47/47 48/48/48

f 49/49/49 47/47/47 46/46/46

f 50/50/50 49/49/49 51/51/51

f 49/49/49 50/50/50 52/52/52

f 53/53/53 54/54/54 55/55/55

f 53/53/53 55/55/55 56/56/56

f 57/57/57 58/58/58 59/59/59

f 59/59/59 58/58/58 60/60/60

f 60/60/60 61/61/61 62/62/62

f 60/60/60 62/62/62 63/63/63

f 63/63/63 62/62/62 64/64/64

f 63/63/63 64/64/64 65/65/65

f 64/64/64 66/66/66 65/65/65

f 65/65/65 66/66/66 67/67/67

f 68/68/68 69/69/69 70/70/70

f 69/69/69 71/71/71 70/70/70

f 72/72/72 73/73/73 74/74/74

f 75/75/75 74/74/74 73/73/73

f 76/76/76 77/77/77 78/78/78

f 78/78/78 79/79/79 76/76/76

f 80/80/80 81/81/81 82/82/82

f 81/81/81 83/83/83 82/82/82

f 84/84/84 85/85/85 86/86/86

f 85/85/85 84/84/84 87/87/87

f 88/88/88 89/89/89 90/90/90

f 89/89/89 88/88/88 91/91/91

f 92/92/92 93/93/93 94/94/94

f 94/94/94 93/93/93 95/95/95

f 96/96/96 97/97/97 98/98/98

f 97/97/97 96/96/96 99/99/99

f 100/100/100 101/101/101 102/102/102

f 100/100/100 102/102/102 103/103/103

f 103/103/103 102/102/102 104/104/104

f 103/103/103 104/104/104 105/105/105

f 106/106/106 107/107/107 108/108/108

f 109/109/109 106/106/106 108/108/108

f 108/108/108 110/110/110 109/109/109

f 109/109/109 110/110/110 111/111/111

f 112/112/112 113/113/113 114/114/114

f 112/112/112 114/114/114 115/115/115

f 115/115/115 114/114/114 116/116/116

f 115/115/115 116/116/116 117/117/117

f 118/118/118 117/117/117 116/116/116

f 118/118/118 119/119/119 117/117/117

f 120/120/120 119/119/119 118/118/118

f 120/120/120 121/121/121 119/119/119

f 122/122/122 123/123/123 124/124/124

f 122/122/122 124/124/124 125/125/125

f 125/125/125 124/124/124 126/126/126

f 125/125/125 126/126/126 127/127/127

f 127/127/127 126/126/126 128/128/128

f 127/127/127 128/128/128 129/129/129

f 129/129/129 128/128/128 130/130/130

f 129/129/129 130/130/130 131/131/131

f 132/132/132 131/131/131 130/130/130

f 131/131/131 132/132/132 133/133/133

f 133/133/133 132/132/132 134/134/134

f 133/133/133 134/134/134 135/135/135

f 135/135/135 134/134/134 136/136/136

f 135/135/135 136/136/136 137/137/137

f 138/138/138 137/137/137 136/136/136

f 137/137/137 138/138/138 139/139/139

f 139/139/139 138/138/138 140/140/140

f 139/139/139 140/140/140 141/141/141

f 142/142/142 143/143/143 144/144/144

f 143/143/143 142/142/142 145/145/145

f 146/146/146 145/145/145 142/142/142

f 146/146/146 147/147/147 145/145/145

f 148/148/148 147/147/147 146/146/146

f 149/149/149 147/147/147 148/148/148

f 148/148/148 150/150/150 149/149/149

f 150/150/150 148/148/148 151/151/151

f 152/152/152 153/153/153 154/154/154

f 155/155/155 153/153/153 152/152/152

f 156/156/156 155/155/155 152/152/152

f 156/156/156 157/157/157 155/155/155

f 158/158/158 157/157/157 156/156/156

f 158/158/158 159/159/159 157/157/157

f 159/159/159 158/158/158 160/160/160

f 159/159/159 160/160/160 161/161/161

f 162/162/162 163/163/163 164/164/164

f 164/164/164 163/163/163 165/165/165

f 166/166/166 165/165/165 163/163/163

f 165/165/165 166/166/166 167/167/167

f 168/168/168 169/169/169 170/170/170

f 168/168/168 171/171/171 169/169/169

f 169/169/169 171/171/171 172/172/172

f 172/172/172 171/171/171 173/173/173

f 173/173/173 171/171/171 174/174/174

f 174/174/174 175/175/175 173/173/173

f 175/175/175 174/174/174 176/176/176

f 176/176/176 177/177/177 175/175/175

f 176/176/176 178/178/178 177/177/177

f 179/179/179 178/178/178 176/176/176

f 179/179/179 180/180/180 178/178/178

f 180/180/180 179/179/179 181/181/181

f 179/179/179 182/182/182 181/181/181

f 183/183/183 184/184/184 185/185/185

f 184/184/184 183/183/183 186/186/186

f 186/186/186 187/187/187 184/184/184

f 188/188/188 187/187/187 186/186/186

f 187/187/187 189/189/189 190/190/190

f 190/190/190 189/189/189 191/191/191

f 191/191/191 192/192/192 190/190/190

f 190/190/190 192/192/192 193/193/193

