# UnrealEd OBJ exporter (_Internal)



v 0.000000 -40.169666 4.563416

v -1.862793 -32.311493 17.343384

v 0.000000 -19.289024 -0.301819

v 6.111328 -26.745842 43.360535

v 4.248535 -27.801521 31.077209

v 0.000000 -19.289024 -0.301819

v 0.000000 -0.458572 -0.903885

v 0.000000 17.235065 1.963547

v 6.111328 13.332954 43.360596

v -6.111816 13.332954 43.360596

v 0.000000 17.235065 1.963547

v 0.000000 -0.458572 -0.903885

v 1.862793 -32.311493 17.343384

v 0.000000 -40.169666 4.563416

v 0.000000 -19.289024 -0.301819

v 4.248535 -27.801521 31.077209

v 1.862793 -32.311493 17.343384

v 0.000000 -19.289024 -0.301819

v -1.862793 -32.311493 17.343384

v -4.248535 -27.801521 31.077209

v 0.000000 -19.289024 -0.301819

v -4.248535 -27.801521 31.077209

v -6.111816 -26.745842 43.360535

v 0.000000 -19.289024 -0.301819

v -4.055664 -39.397179 46.761230

v -4.055664 -123.324608 53.600159

v -4.055664 -39.397217 55.700867

v -4.055664 -123.962166 46.541046

v -1.997559 15.656308 58.364624

v 1.997559 -39.397190 58.364563

v 1.997559 15.656308 58.364624

v -1.997559 -39.397190 58.364563

v -4.055664 15.656311 55.700928

v -4.055664 -39.397217 55.700867

v -1.997559 15.656308 58.364624

v 1.997559 15.656323 44.097595

v 1.997559 -39.397205 44.097534

v -1.997559 -39.397205 44.097534

v -1.997559 15.656323 44.097595

v -4.055664 15.656311 55.700928

v -4.055664 -39.397179 46.761230

v -4.055664 -39.397217 55.700867

v -4.055664 15.656322 46.761292

v -4.055664 -151.419189 52.353546

v -4.055664 -123.324608 53.600159

v -4.055664 -123.962166 46.541046

v -4.055664 -151.419113 44.805389

v 4.055664 -151.419189 52.353546

v 4.055664 -123.324608 53.600159

v 1.997559 -151.419113 55.017303

v 1.997559 -123.084274 56.263824

v 1.997559 -151.419205 42.141693

v 1.997559 -124.202744 43.877411

v 4.055664 -151.419113 44.805389

v 4.055664 -123.962166 46.541046

v -4.055664 -151.419113 44.805389

v -1.997559 -124.202744 43.877411

v -1.997559 -151.419205 42.141693

v -4.055664 -123.962166 46.541046

v 1.997559 -39.397190 58.364563

v 1.997559 -123.084274 56.263824

v 4.055664 -39.397217 55.700867

v 4.055664 -123.324608 53.600159

v 4.055664 -39.397179 46.761230

v 4.055664 -39.397217 55.700867

v 4.055664 -123.962166 46.541046

v 4.055664 -123.962166 46.541046

v 1.997559 -39.397205 44.097534

v 1.997559 -124.202744 43.877411

v 4.055664 -151.419189 52.353546

v 4.055664 -151.419113 44.805389

v 4.055664 -123.324608 53.600159

v 4.055664 -39.397217 55.700867

v 4.055664 15.656311 55.700928

v 1.997559 -39.397190 58.364563

v 1.997559 15.656308 58.364624

v -1.997559 -151.419113 55.017303

v -4.055664 -123.324608 53.600159

v -4.055664 -151.419189 52.353546

v -1.997559 -123.084274 56.263824

v 1.997559 -39.397190 58.364563

v 1.997559 -123.084274 56.263824

v -1.997559 -39.397190 58.364563

v -4.055664 -39.397217 55.700867

v -1.997559 -123.084274 56.263824

v -4.055664 -123.324608 53.600159

v 1.997559 -151.419113 55.017303

v 1.997559 -123.084274 56.263824

v -1.997559 -151.419113 55.017303

v -4.055664 -123.962166 46.541046

v -1.997559 -39.397205 44.097534

v -1.997559 -124.202744 43.877411

v -4.055664 -39.397179 46.761230

v -4.055664 -39.397179 46.761230

v -1.997559 15.656323 44.097595

v -1.997559 -39.397205 44.097534

v -4.055664 15.656322 46.761292

v -6.111816 13.332954 63.360596

v -6.111816 -26.745842 63.360535

v 6.111328 13.332954 63.360596

v 6.111328 -26.745842 63.360535

v 6.111328 -26.745842 43.360535

v 0.000000 -19.289024 -0.301819

v 0.000000 -0.458572 -0.903885

v 6.111328 13.332954 43.360596

v 6.111328 -26.745842 43.360535

v 6.111328 -26.745842 63.360535

v 6.111328 13.332954 63.360596

v -6.111816 -26.745842 43.360535

v 0.000000 -0.458572 -0.903885

v 0.000000 -19.289024 -0.301819

v -6.111816 13.332954 43.360596

v -6.111816 -26.745842 63.360535

v -6.111816 -26.745842 43.360535

v -6.111816 13.332954 63.360596

v -1.862793 -32.311493 17.343384

v 0.000000 -40.169666 4.563416

v 1.862793 -32.311493 17.343384

v -4.248535 -27.801521 31.077209

v 4.248535 -27.801521 31.077209

v 6.111328 -26.745842 43.360535

v -6.111816 -26.745842 43.360535

v -6.111816 -26.745842 63.360535

v 6.111328 -26.745842 63.360535

v -1.997559 -151.419113 55.017303

v 4.055664 -151.419189 52.353546

v 1.997559 -151.419113 55.017303

v -4.055664 -151.419189 52.353546

v 4.055664 -151.419113 44.805389

v -4.055664 -151.419113 44.805389

v -1.997559 -151.419205 42.141693

v 1.997559 -151.419205 42.141693

v 6.111328 13.332954 63.360596

v 6.111328 13.332954 43.360596

v -6.111816 13.332954 63.360596

v -6.111816 13.332954 43.360596

v 0.000000 17.235065 1.963547

v 1.997559 15.656308 58.364624

v -4.055664 15.656311 55.700928

v -1.997559 15.656308 58.364624

v 4.055664 15.656311 55.700928

v 4.055664 15.656322 46.761292

v -4.055664 15.656322 46.761292

v -1.997559 15.656323 44.097595

v 1.997559 15.656323 44.097595

v -1.997559 -124.202744 43.877411

v -1.997559 -39.397205 44.097534

v 1.997559 -124.202744 43.877411

v 1.997559 -39.397205 44.097534

v -1.997559 -151.419205 42.141693

v -1.997559 -124.202744 43.877411

v 1.997559 -151.419205 42.141693

v 4.055664 15.656311 55.700928

v 4.055664 -39.397217 55.700867

v 4.055664 -39.397179 46.761230

v 4.055664 15.656322 46.761292

v 1.997559 15.656323 44.097595

v 1.997559 -39.397205 44.097534



vt 0.441650 0.188477

vt 0.441650 0.193848

vt 0.435547 0.187500

vt 0.441650 0.226563

vt 0.441650 0.231934

vt 0.435547 0.244629

vt 0.428955 0.244629

vt 0.423340 0.243652

vt 0.423340 0.226563

vt 0.423340 0.205566

vt 0.423340 0.188477

vt 0.428955 0.187500

vt 0.441650 0.238281

vt 0.441650 0.243652

vt 0.435547 0.244629

vt 0.441650 0.231934

vt 0.441650 0.238281

vt 0.435547 0.244629

vt 0.441650 0.193848

vt 0.441650 0.200195

vt 0.435547 0.187500

vt 0.441650 0.200195

vt 0.441650 0.205566

vt 0.435547 0.187500

vt 0.357666 0.192871

vt 0.353760 0.231445

vt 0.354004 0.192871

vt 0.356689 0.231445

vt 0.352783 0.167969

vt 0.351074 0.192871

vt 0.351074 0.167969

vt 0.352783 0.192871

vt 0.354004 0.167969

vt 0.354004 0.192871

vt 0.352783 0.167969

vt 0.360596 0.167969

vt 0.360596 0.193359

vt 0.358887 0.193359

vt 0.358887 0.167969

vt 0.354004 0.167969

vt 0.357666 0.192871

vt 0.354004 0.192871

vt 0.357666 0.167969

vt 0.353760 0.244141

vt 0.353760 0.231445

vt 0.356689 0.231445

vt 0.356934 0.244141

vt 0.349854 0.244141

vt 0.347900 0.231445

vt 0.351074 0.244141

vt 0.349854 0.230957

vt 0.345459 0.244141

vt 0.343506 0.231445

vt 0.346924 0.244141

vt 0.344971 0.231445

vt 0.356934 0.244141

vt 0.357422 0.231445

vt 0.358154 0.244141

vt 0.356689 0.231445

vt 0.351074 0.192871

vt 0.349854 0.230957

vt 0.349854 0.192871

vt 0.347900 0.231445

vt 0.346191 0.192871

vt 0.349854 0.192871

vt 0.344971 0.231445

vt 0.344971 0.231445

vt 0.344971 0.192871

vt 0.343506 0.231445

vt 0.349854 0.244141

vt 0.346924 0.244141

vt 0.347900 0.231445

vt 0.349854 0.192871

vt 0.349854 0.167969

vt 0.351074 0.192871

vt 0.351074 0.167969

vt 0.352539 0.244141

vt 0.353760 0.231445

vt 0.353760 0.244141

vt 0.352051 0.230957

vt 0.351074 0.192871

vt 0.349854 0.230957

vt 0.352783 0.192871

vt 0.354004 0.192871

vt 0.352051 0.230957

vt 0.353760 0.231445

vt 0.351074 0.244141

vt 0.349854 0.230957

vt 0.352539 0.244141

vt 0.356689 0.231445

vt 0.358887 0.193359

vt 0.357422 0.231445

vt 0.357666 0.192871

vt 0.357666 0.192871

vt 0.358887 0.167969

vt 0.358887 0.193359

vt 0.357666 0.167969

vt 0.423340 0.213379

vt 0.441650 0.213379

vt 0.423340 0.218262

vt 0.441650 0.218262

vt 0.441650 0.226563

vt 0.435547 0.244629

vt 0.428955 0.244629

vt 0.423340 0.226563

vt 0.441650 0.226563

vt 0.441650 0.218262

vt 0.423340 0.218262

vt 0.441650 0.205566

vt 0.428955 0.187500

vt 0.435547 0.187500

vt 0.423340 0.205566

vt 0.441650 0.213379

vt 0.441650 0.205566

vt 0.423340 0.213379

vt 0.464600 0.224121

vt 0.463867 0.229492

vt 0.463135 0.224121

vt 0.465576 0.217285

vt 0.461914 0.217285

vt 0.461182 0.211426

vt 0.466309 0.211426

vt 0.466309 0.203125

vt 0.461182 0.203125

vt 0.351074 0.246582

vt 0.349854 0.244141

vt 0.351074 0.245117

vt 0.349854 0.247559

vt 0.346924 0.244141

vt 0.346924 0.247559

vt 0.345703 0.246582

vt 0.345703 0.245117

vt 0.376221 0.201660

vt 0.376221 0.193359

vt 0.381348 0.201660

vt 0.381348 0.193359

vt 0.378662 0.175293

vt 0.351074 0.166992

vt 0.349854 0.164551

vt 0.350830 0.165527

vt 0.349854 0.167969

vt 0.346191 0.167969

vt 0.346191 0.164551

vt 0.345215 0.165527

vt 0.345215 0.166992

vt 0.357422 0.231445

vt 0.358887 0.193359

vt 0.359131 0.231445

vt 0.360596 0.193359

vt 0.358154 0.244141

vt 0.357422 0.231445

vt 0.359863 0.244141

vt 0.349854 0.167969

vt 0.349854 0.192871

vt 0.346191 0.192871

vt 0.346191 0.167969

vt 0.344971 0.167969

vt 0.344971 0.192871



vn -0.992157 -0.035294 -0.129412

vn -0.992157 -0.058823 -0.145098

vn -0.992157 -0.019608 -0.137255

vn 0.992157 -0.011765 -0.074510

vn 0.984314 -0.050980 -0.152941

vn 0.984314 -0.019608 -0.137255

vn 0.984314 0.003922 -0.145098

vn 0.984314 0.019608 -0.145098

vn 0.992157 -0.003922 -0.074510

vn -1.000000 -0.003922 -0.074510

vn -0.992157 0.019608 -0.145098

vn -0.992157 0.003922 -0.145098

vn 0.984314 -0.058823 -0.145098

vn 0.984314 -0.035294 -0.129412

vn 0.984314 -0.019608 -0.137255

vn 0.984314 -0.050980 -0.152941

vn 0.984314 -0.058823 -0.145098

vn 0.984314 -0.019608 -0.137255

vn -0.992157 -0.058823 -0.145098

vn -0.992157 -0.050980 -0.152941

vn -0.992157 -0.019608 -0.137255

vn -0.992157 -0.050980 -0.152941

vn -1.000000 -0.011765 -0.074510

vn -0.992157 -0.019608 -0.137255

vn -0.952941 -0.003922 -0.325490

vn -0.952941 -0.011765 0.317647

vn -0.952941 -0.011765 0.317647

vn -0.952941 0.003922 -0.325490

vn -0.443137 -0.003922 0.890196

vn 0.435294 -0.011765 0.898039

vn 0.435294 -0.003922 0.890196

vn -0.443137 -0.011765 0.898039

vn -0.952941 -0.003922 0.317647

vn -0.952941 -0.011765 0.317647

vn -0.443137 -0.003922 0.890196

vn 0.435294 -0.003922 -0.898039

vn 0.435294 -0.003922 -0.898039

vn -0.443137 -0.003922 -0.898039

vn -0.443137 -0.003922 -0.898039

vn -0.952941 -0.003922 0.317647

vn -0.952941 -0.003922 -0.325490

vn -0.952941 -0.011765 0.317647

vn -0.952941 -0.003922 -0.325490

vn -0.952941 -0.019608 0.309804

vn -0.952941 -0.011765 0.317647

vn -0.952941 0.003922 -0.325490

vn -0.945098 0.019608 -0.341176

vn 0.945098 -0.019608 0.309804

vn 0.945098 -0.011765 0.317647

vn 0.443137 -0.043137 0.890196

vn 0.435294 -0.035294 0.890196

vn 0.427451 0.050980 -0.905882

vn 0.443137 0.027451 -0.898039

vn 0.937255 0.019608 -0.341176

vn 0.945098 0.003922 -0.325490

vn -0.945098 0.019608 -0.341176

vn -0.450980 0.027451 -0.898039

vn -0.435294 0.050980 -0.905882

vn -0.952941 0.003922 -0.325490

vn 0.435294 -0.011765 0.898039

vn 0.435294 -0.035294 0.890196

vn 0.945098 -0.011765 0.317647

vn 0.945098 -0.011765 0.317647

vn 0.945098 -0.003922 -0.325490

vn 0.945098 -0.011765 0.317647

vn 0.945098 0.003922 -0.325490

vn 0.945098 0.003922 -0.325490

vn 0.435294 -0.003922 -0.898039

vn 0.443137 0.027451 -0.898039

vn 0.945098 -0.019608 0.309804

vn 0.937255 0.019608 -0.341176

vn 0.945098 -0.011765 0.317647

vn 0.945098 -0.011765 0.317647

vn 0.945098 -0.003922 0.317647

vn 0.435294 -0.011765 0.898039

vn 0.435294 -0.003922 0.890196

vn -0.450980 -0.043137 0.890196

vn -0.952941 -0.011765 0.317647

vn -0.952941 -0.019608 0.309804

vn -0.443137 -0.035294 0.890196

vn 0.435294 -0.011765 0.898039

vn 0.435294 -0.035294 0.890196

vn -0.443137 -0.011765 0.898039

vn -0.952941 -0.011765 0.317647

vn -0.443137 -0.035294 0.890196

vn -0.952941 -0.011765 0.317647

vn 0.443137 -0.043137 0.890196

vn 0.435294 -0.035294 0.890196

vn -0.450980 -0.043137 0.890196

vn -0.952941 0.003922 -0.325490

vn -0.443137 -0.003922 -0.898039

vn -0.450980 0.027451 -0.898039

vn -0.952941 -0.003922 -0.325490

vn -0.952941 -0.003922 -0.325490

vn -0.443137 -0.003922 -0.898039

vn -0.443137 -0.003922 -0.898039

vn -0.952941 -0.003922 -0.325490

vn -0.003922 -0.003922 1.000000

vn -0.003922 -0.003922 1.000000

vn -0.003922 -0.003922 1.000000

vn -0.003922 -0.003922 1.000000

vn 0.992157 -0.011765 -0.074510

vn 0.984314 -0.019608 -0.137255

vn 0.984314 0.003922 -0.145098

vn 0.992157 -0.003922 -0.074510

vn 0.992157 -0.011765 -0.074510

vn 1.000000 -0.003922 -0.003922

vn 1.000000 -0.003922 -0.003922

vn -1.000000 -0.011765 -0.074510

vn -0.992157 0.003922 -0.145098

vn -0.992157 -0.019608 -0.137255

vn -1.000000 -0.003922 -0.074510

vn -1.000000 -0.003922 -0.003922

vn -1.000000 -0.011765 -0.074510

vn -1.000000 -0.003922 -0.003922

vn -0.003922 -0.913725 0.403922

vn -0.003922 -0.858824 0.521569

vn -0.003922 -0.913725 0.403922

vn -0.003922 -0.984314 0.184314

vn -0.003922 -0.984314 0.184314

vn -0.003922 -1.000000 0.035294

vn -0.003922 -1.000000 0.035294

vn -0.003922 -1.000000 -0.003922

vn -0.003922 -1.000000 -0.003922

vn -0.003922 -1.000000 -0.003922

vn -0.003922 -1.000000 -0.003922

vn -0.003922 -1.000000 -0.003922

vn -0.003922 -1.000000 -0.003922

vn -0.003922 -1.000000 -0.003922

vn -0.003922 -1.000000 -0.003922

vn -0.003922 -1.000000 -0.003922

vn -0.003922 -1.000000 -0.003922

vn -0.003922 1.000000 -0.003922

vn -0.003922 0.992157 0.043137

vn -0.003922 1.000000 -0.003922

vn -0.003922 0.992157 0.043137

vn -0.003922 0.992157 0.090196

vn -0.003922 1.000000 -0.003922

vn -0.003922 1.000000 -0.003922

vn -0.003922 1.000000 -0.003922

vn -0.003922 1.000000 -0.003922

vn -0.003922 1.000000 -0.003922

vn -0.003922 1.000000 -0.003922

vn -0.003922 1.000000 -0.003922

vn -0.003922 1.000000 -0.003922

vn -0.450980 0.027451 -0.898039

vn -0.443137 -0.003922 -0.898039

vn 0.443137 0.027451 -0.898039

vn 0.435294 -0.003922 -0.898039

vn -0.435294 0.050980 -0.905882

vn -0.450980 0.027451 -0.898039

vn 0.427451 0.050980 -0.905882

vn 0.945098 -0.003922 0.317647

vn 0.945098 -0.011765 0.317647

vn 0.945098 -0.003922 -0.325490

vn 0.945098 -0.003922 -0.325490

vn 0.435294 -0.003922 -0.898039

vn 0.435294 -0.003922 -0.898039

f 1/1/1 2/2/2 3/3/3

f 4/4/4 5/5/5 6/6/6

f 7/7/7 8/8/8 9/9/9

f 10/10/10 11/11/11 12/12/12

f 13/13/13 14/14/14 15/15/15

f 16/16/16 17/17/17 18/18/18

f 19/19/19 20/20/20 21/21/21

f 22/22/22 23/23/23 24/24/24

f 25/25/25 26/26/26 27/27/27

f 26/26/26 25/25/25 28/28/28

f 29/29/29 30/30/30 31/31/31

f 30/30/30 29/29/29 32/32/32

f 32/32/32 33/33/33 34/34/34

f 33/33/33 32/32/32 35/35/35

f 36/36/36 37/37/37 38/38/38

f 38/38/38 39/39/39 36/36/36

f 40/40/40 41/41/41 42/42/42

f 41/41/41 40/40/40 43/43/43

f 44/44/44 45/45/45 46/46/46

f 44/44/44 46/46/46 47/47/47

f 48/48/48 49/49/49 50/50/50

f 51/51/51 50/50/50 49/49/49

f 52/52/52 53/53/53 54/54/54

f 55/55/55 54/54/54 53/53/53

f 56/56/56 57/57/57 58/58/58

f 57/57/57 56/56/56 59/59/59

f 60/60/60 61/61/61 62/62/62

f 63/63/63 62/62/62 61/61/61

f 63/63/63 64/64/64 65/65/65

f 64/64/64 63/63/63 66/66/66

f 64/64/64 67/67/67 68/68/68

f 69/69/69 68/68/68 67/67/67

f 66/66/66 70/70/70 71/71/71

f 70/70/70 66/66/66 72/72/72

f 73/73/73 74/74/74 75/75/75

f 76/76/76 75/75/75 74/74/74

f 77/77/77 78/78/78 79/79/79

f 78/78/78 77/77/77 80/80/80

f 81/81/81 80/80/80 82/82/82

f 83/83/83 80/80/80 81/81/81

f 84/84/84 85/85/85 83/83/83

f 85/85/85 84/84/84 86/86/86

f 87/87/87 88/88/88 80/80/80

f 80/80/80 89/89/89 87/87/87

f 90/90/90 91/91/91 92/92/92

f 91/91/91 90/90/90 93/93/93

f 94/94/94 95/95/95 96/96/96

f 95/95/95 94/94/94 97/97/97

f 98/98/98 99/99/99 100/100/100

f 100/100/100 99/99/99 101/101/101

f 102/102/102 103/103/103 104/104/104

f 105/105/105 102/102/102 104/104/104

f 106/106/106 105/105/105 107/107/107

f 108/108/108 107/107/107 105/105/105

f 109/109/109 110/110/110 111/111/111

f 112/112/112 110/110/110 109/109/109

f 113/113/113 112/112/112 114/114/114

f 112/112/112 113/113/113 115/115/115

f 116/116/116 117/117/117 118/118/118

f 119/119/119 116/116/116 118/118/118

f 118/118/118 120/120/120 119/119/119

f 121/121/121 119/119/119 120/120/120

f 119/119/119 121/121/121 122/122/122

f 123/123/123 122/122/122 121/121/121

f 124/124/124 123/123/123 121/121/121

f 125/125/125 126/126/126 127/127/127

f 128/128/128 126/126/126 125/125/125

f 126/126/126 128/128/128 129/129/129

f 129/129/129 128/128/128 130/130/130

f 130/130/130 131/131/131 129/129/129

f 129/129/129 131/131/131 132/132/132

f 133/133/133 134/134/134 135/135/135

f 135/135/135 134/134/134 136/136/136

f 134/134/134 137/137/137 136/136/136

f 138/138/138 139/139/139 140/140/140

f 141/141/141 139/139/139 138/138/138

f 142/142/142 139/139/139 141/141/141

f 142/142/142 143/143/143 139/139/139

f 143/143/143 142/142/142 144/144/144

f 144/144/144 142/142/142 145/145/145

f 146/146/146 147/147/147 148/148/148

f 148/148/148 147/147/147 149/149/149

f 148/148/148 150/150/150 151/151/151

f 150/150/150 148/148/148 152/152/152

f 153/153/153 154/154/154 155/155/155

f 153/153/153 155/155/155 156/156/156

f 156/156/156 155/155/155 157/157/157

f 158/158/158 157/157/157 155/155/155

