# UnrealEd OBJ exporter (_Internal)



v -95.137199 79.712952 -39.407139

v -62.530209 -0.000000 -62.530220

v -81.699646 -0.000000 -33.841122

v -72.814865 79.712952 -72.814865

v -102.975761 79.712952 -0.000004

v -81.699646 -0.000000 -33.841122

v -88.431076 -0.000000 -0.000004

v -95.137199 79.712952 -39.407139

v -81.699661 0.000000 33.841122

v -102.975761 79.712952 -0.000004

v -88.431076 -0.000000 -0.000004

v -95.137207 79.712952 39.407135

v -62.530197 0.000000 62.530235

v -95.137207 79.712952 39.407135

v -81.699661 0.000000 33.841122

v -72.814842 79.712952 72.814880

v -72.814842 79.712952 72.814880

v -62.530197 0.000000 62.530235

v -39.407078 79.712952 95.137215

v -33.841068 0.000000 81.699669

v -39.407078 79.712952 95.137215

v -33.841068 0.000000 81.699669

v 0.000060 79.712952 102.975769

v 0.000053 0.000000 88.431076

v 0.000060 79.712952 102.975769

v 33.841167 0.000000 81.699631

v 39.407196 79.712952 95.137177

v 0.000053 0.000000 88.431076

v 39.407196 79.712952 95.137177

v 62.530239 0.000000 62.530186

v 72.814865 79.712952 72.814865

v 33.841167 0.000000 81.699631

v -72.814865 79.712952 -72.814865

v -95.137199 79.712952 -39.407139

v -88.126526 79.712952 -36.503223

v -67.449127 79.712952 -67.449142

v -95.387482 79.712952 -0.000004

v -95.137199 79.712952 -39.407139

v -102.975761 79.712952 -0.000004

v -88.126526 79.712952 -36.503223

v -102.975761 79.712952 -0.000004

v -88.126541 79.712952 36.503220

v -95.387482 79.712952 -0.000004

v -95.137207 79.712952 39.407135

v -88.126541 79.712952 36.503220

v -72.814842 79.712952 72.814880

v -67.449120 79.712952 67.449158

v -95.137207 79.712952 39.407135

v -67.449120 79.712952 67.449158

v -39.407078 79.712952 95.137215

v -36.503166 79.712952 88.126556

v -72.814842 79.712952 72.814880

v -36.503166 79.712952 88.126556

v 0.000060 79.712952 102.975769

v 0.000055 79.712952 95.387474

v -39.407078 79.712952 95.137215

v 36.503277 79.712952 88.126511

v 0.000060 79.712952 102.975769

v 39.407196 79.712952 95.137177

v 0.000055 79.712952 95.387474

v 36.503277 79.712952 88.126511

v 72.814865 79.712952 72.814865

v 67.449127 79.712952 67.449135

v 39.407196 79.712952 95.137177

v -88.126526 79.712952 -36.503223

v -62.603615 7.216607 -62.603622

v -67.449127 79.712952 -67.449142

v -81.795555 7.216607 -33.880856

v -95.387482 79.712952 -0.000004

v -81.795555 7.216607 -33.880856

v -88.126526 79.712952 -36.503223

v -88.534882 7.216607 -0.000006

v -81.795563 7.216606 33.880848

v -95.387482 79.712952 -0.000004

v -88.126541 79.712952 36.503220

v -88.534882 7.216607 -0.000006

v -62.603600 7.216607 62.603642

v -88.126541 79.712952 36.503220

v -67.449120 79.712952 67.449158

v -81.795563 7.216606 33.880848

v -62.603600 7.216607 62.603642

v -36.503166 79.712952 88.126556

v -33.880798 7.216607 81.795578

v -67.449120 79.712952 67.449158

v -33.880798 7.216607 81.795578

v 0.000055 79.712952 95.387474

v 0.000053 7.216607 88.534882

v -36.503166 79.712952 88.126556

v 0.000053 7.216607 88.534882

v 0.000055 79.712952 95.387474

v 33.880898 7.216606 81.795540

v 36.503277 79.712952 88.126511

v 33.880898 7.216606 81.795540

v 36.503277 79.712952 88.126511

v 62.603649 7.216606 62.603592

v 67.449127 79.712952 67.449135

v -39.407127 79.712952 -95.137199

v -33.841110 -0.000000 -81.699661

v -62.530209 -0.000000 -62.530220

v -72.814865 79.712952 -72.814865

v 0.000004 79.712952 -102.975769

v 0.000004 -0.000000 -88.431076

v -33.841110 -0.000000 -81.699661

v -39.407127 79.712952 -95.137199

v 33.841118 -0.000000 -81.699654

v 0.000004 79.712952 -102.975769

v 39.407143 79.712952 -95.137199

v 0.000004 -0.000000 -88.431076

v 62.530228 -0.000000 -62.530201

v 39.407143 79.712952 -95.137199

v 72.814888 79.712952 -72.814842

v 33.841118 -0.000000 -81.699654

v 95.137215 79.712952 -39.407070

v 81.699638 -0.000000 -33.841141

v 62.530228 -0.000000 -62.530201

v 72.814888 79.712952 -72.814842

v 102.975761 79.712952 0.000069

v 88.431076 -0.000000 -0.000023

v 81.699638 -0.000000 -33.841141

v 95.137215 79.712952 -39.407070

v 81.699661 0.000000 33.841095

v 102.975761 79.712952 0.000069

v 95.137177 79.712952 39.407204

v 88.431076 -0.000000 -0.000023

v 62.530239 0.000000 62.530186

v 95.137177 79.712952 39.407204

v 72.814865 79.712952 72.814865

v 81.699661 0.000000 33.841095

v -39.407127 79.712952 -95.137199

v -67.449127 79.712952 -67.449142

v -36.503216 79.712952 -88.126534

v -72.814865 79.712952 -72.814865

v 0.000004 79.712952 -102.975769

v -39.407127 79.712952 -95.137199

v 0.000004 79.712952 -95.387482

v -36.503216 79.712952 -88.126534

v 36.503227 79.712952 -88.126534

v 0.000004 79.712952 -102.975769

v 0.000004 79.712952 -95.387482

v 39.407143 79.712952 -95.137199

v 36.503227 79.712952 -88.126534

v 72.814888 79.712952 -72.814842

v 39.407143 79.712952 -95.137199

v 67.449165 79.712952 -67.449112

v 67.449165 79.712952 -67.449112

v 95.137215 79.712952 -39.407070

v 72.814888 79.712952 -72.814842

v 88.126564 79.712952 -36.503159

v 88.126564 79.712952 -36.503159

v 102.975761 79.712952 0.000069

v 95.137215 79.712952 -39.407070

v 95.387482 79.712952 0.000063

v 95.137177 79.712952 39.407204

v 95.387482 79.712952 0.000063

v 88.126503 79.712952 36.503284

v 102.975761 79.712952 0.000069

v 88.126503 79.712952 36.503284

v 72.814865 79.712952 72.814865

v 95.137177 79.712952 39.407204

v 67.449127 79.712952 67.449135

v -36.503216 79.712952 -88.126534

v -62.603615 7.216607 -62.603622

v -33.880836 7.216607 -81.795563

v -67.449127 79.712952 -67.449142

v 0.000004 79.712952 -95.387482

v -33.880836 7.216607 -81.795563

v 0.000006 7.216607 -88.534882

v -36.503216 79.712952 -88.126534

v 33.880844 7.216607 -81.795563

v 36.503227 79.712952 -88.126534

v 0.000004 79.712952 -95.387482

v 0.000006 7.216607 -88.534882

v 62.603634 7.216607 -62.603603

v 67.449165 79.712952 -67.449112

v 36.503227 79.712952 -88.126534

v 33.880844 7.216607 -81.795563

v 88.126564 79.712952 -36.503159

v 62.603634 7.216607 -62.603603

v 81.795555 7.216606 -33.880871

v 67.449165 79.712952 -67.449112

v 95.387482 79.712952 0.000063

v 81.795555 7.216606 -33.880871

v 88.534882 7.216607 -0.000029

v 88.126564 79.712952 -36.503159

v 81.795570 7.216607 33.880821

v 88.126503 79.712952 36.503284

v 95.387482 79.712952 0.000063

v 88.534882 7.216607 -0.000029

v 62.603649 7.216606 62.603592

v 67.449127 79.712952 67.449135

v 88.126503 79.712952 36.503284

v 81.795570 7.216607 33.880821

v -33.880798 7.216607 81.795578

v -81.795563 7.216606 33.880848

v -62.603600 7.216607 62.603642

v -88.534882 7.216607 -0.000006

v 0.000053 7.216607 88.534882

v -81.795555 7.216607 -33.880856

v -33.880836 7.216607 -81.795563

v -62.603615 7.216607 -62.603622

v 0.000006 7.216607 -88.534882

v 33.880844 7.216607 -81.795563

v 81.795555 7.216606 -33.880871

v 62.603634 7.216607 -62.603603

v 88.534882 7.216607 -0.000029

v 81.795570 7.216607 33.880821

v 33.880898 7.216606 81.795540

v 62.603649 7.216606 62.603592

v -33.841110 -0.000000 -81.699661

v -81.699646 -0.000000 -33.841122

v -62.530209 -0.000000 -62.530220

v 0.000004 -0.000000 -88.431076

v 33.841118 -0.000000 -81.699654

v 81.699638 -0.000000 -33.841141

v 62.530228 -0.000000 -62.530201

v 81.699661 0.000000 33.841095

v 88.431076 -0.000000 -0.000023

v -33.841068 0.000000 81.699669

v -88.431076 -0.000000 -0.000004

v -81.699661 0.000000 33.841122

v -62.530197 0.000000 62.530235

v 33.841167 0.000000 81.699631

v 62.530239 0.000000 62.530186

v 0.000053 0.000000 88.431076



vt 0.896973 0.899963

vt 0.854492 0.921143

vt 0.854492 0.899963

vt 0.896973 0.921143

vt 0.896973 0.878723

vt 0.854492 0.899963

vt 0.854492 0.878723

vt 0.896973 0.899963

vt 0.854492 0.857544

vt 0.896973 0.878723

vt 0.854492 0.878723

vt 0.896973 0.857544

vt 0.854492 0.836304

vt 0.896973 0.857544

vt 0.854492 0.857544

vt 0.896973 0.836304

vt 0.896973 0.836304

vt 0.854492 0.836304

vt 0.896973 0.815186

vt 0.854492 0.815186

vt 0.896973 0.815186

vt 0.854492 0.815186

vt 0.896973 0.793945

vt 0.854492 0.793945

vt 0.896973 0.793945

vt 0.854492 0.772705

vt 0.896973 0.772705

vt 0.854492 0.793945

vt 0.896973 0.772705

vt 0.854492 0.751587

vt 0.896973 0.751587

vt 0.854492 0.772705

vt 0.896973 0.921143

vt 0.896973 0.899963

vt 0.901367 0.899963

vt 0.901367 0.921143

vt 0.901367 0.878723

vt 0.896973 0.899963

vt 0.896973 0.878723

vt 0.901367 0.899963

vt 0.896973 0.878723

vt 0.901367 0.857544

vt 0.901367 0.878723

vt 0.896973 0.857544

vt 0.901367 0.857544

vt 0.896973 0.836304

vt 0.901367 0.836304

vt 0.896973 0.857544

vt 0.901367 0.836304

vt 0.896973 0.815186

vt 0.901367 0.815186

vt 0.896973 0.836304

vt 0.901367 0.815186

vt 0.896973 0.793945

vt 0.901367 0.793945

vt 0.896973 0.815186

vt 0.901367 0.772705

vt 0.896973 0.793945

vt 0.896973 0.772705

vt 0.901367 0.793945

vt 0.901367 0.772705

vt 0.896973 0.751587

vt 0.901367 0.751587

vt 0.896973 0.772705

vt 0.944336 0.771362

vt 0.906250 0.751587

vt 0.944336 0.751587

vt 0.906250 0.771362

vt 0.944336 0.791260

vt 0.906250 0.771362

vt 0.944336 0.771362

vt 0.906250 0.791260

vt 0.906250 0.811035

vt 0.944336 0.791260

vt 0.944336 0.811035

vt 0.906250 0.791260

vt 0.906250 0.830933

vt 0.944336 0.811035

vt 0.944336 0.830933

vt 0.906250 0.811035

vt 0.906250 0.830933

vt 0.944336 0.850830

vt 0.906250 0.850830

vt 0.944336 0.830933

vt 0.906250 0.850830

vt 0.944336 0.870605

vt 0.906250 0.870605

vt 0.944336 0.850830

vt 0.906250 0.870605

vt 0.944336 0.870605

vt 0.906250 0.890503

vt 0.944336 0.890503

vt 0.906250 0.890503

vt 0.944336 0.890503

vt 0.906250 0.910339

vt 0.944336 0.910339

vt 0.896973 0.899963

vt 0.854492 0.899963

vt 0.854492 0.921143

vt 0.896973 0.921143

vt 0.896973 0.878723

vt 0.854492 0.878723

vt 0.854492 0.899963

vt 0.896973 0.899963

vt 0.854492 0.857544

vt 0.896973 0.878723

vt 0.896973 0.857544

vt 0.854492 0.878723

vt 0.854492 0.836304

vt 0.896973 0.857544

vt 0.896973 0.836304

vt 0.854492 0.857544

vt 0.896973 0.815186

vt 0.854492 0.815186

vt 0.854492 0.836304

vt 0.896973 0.836304

vt 0.896973 0.793945

vt 0.854492 0.793945

vt 0.854492 0.815186

vt 0.896973 0.815186

vt 0.854492 0.772705

vt 0.896973 0.793945

vt 0.896973 0.772705

vt 0.854492 0.793945

vt 0.854492 0.751587

vt 0.896973 0.772705

vt 0.896973 0.751587

vt 0.854492 0.772705

vt 0.896973 0.899963

vt 0.901367 0.921143

vt 0.901367 0.899963

vt 0.896973 0.921143

vt 0.896973 0.878723

vt 0.896973 0.899963

vt 0.901367 0.878723

vt 0.901367 0.899963

vt 0.901367 0.857544

vt 0.896973 0.878723

vt 0.901367 0.878723

vt 0.896973 0.857544

vt 0.901367 0.857544

vt 0.896973 0.836304

vt 0.896973 0.857544

vt 0.901367 0.836304

vt 0.901367 0.836304

vt 0.896973 0.815186

vt 0.896973 0.836304

vt 0.901367 0.815186

vt 0.901367 0.815186

vt 0.896973 0.793945

vt 0.896973 0.815186

vt 0.901367 0.793945

vt 0.896973 0.772705

vt 0.901367 0.793945

vt 0.901367 0.772705

vt 0.896973 0.793945

vt 0.901367 0.772705

vt 0.896973 0.751587

vt 0.896973 0.772705

vt 0.901367 0.751587

vt 0.944336 0.771362

vt 0.906250 0.751587

vt 0.906250 0.771362

vt 0.944336 0.751587

vt 0.944336 0.791260

vt 0.906250 0.771362

vt 0.906250 0.791260

vt 0.944336 0.771362

vt 0.906250 0.811035

vt 0.944336 0.811035

vt 0.944336 0.791260

vt 0.906250 0.791260

vt 0.906250 0.830933

vt 0.944336 0.830933

vt 0.944336 0.811035

vt 0.906250 0.811035

vt 0.944336 0.850830

vt 0.906250 0.830933

vt 0.906250 0.850830

vt 0.944336 0.830933

vt 0.944336 0.870605

vt 0.906250 0.850830

vt 0.906250 0.870605

vt 0.944336 0.850830

vt 0.906250 0.890503

vt 0.944336 0.890503

vt 0.944336 0.870605

vt 0.906250 0.870605

vt 0.906250 0.910339

vt 0.944336 0.910339

vt 0.944336 0.890503

vt 0.906250 0.890503

vt 0.849121 0.890747

vt 0.824219 0.860840

vt 0.839844 0.873291

vt 0.805176 0.855103

vt 0.851074 0.910400

vt 0.785645 0.857178

vt 0.755859 0.881714

vt 0.768555 0.866455

vt 0.750000 0.900635

vt 0.751953 0.920288

vt 0.776855 0.950195

vt 0.761230 0.937714

vt 0.795898 0.955902

vt 0.815430 0.953918

vt 0.845215 0.929321

vt 0.832520 0.944580

vt 0.848633 0.787720

vt 0.824707 0.758301

vt 0.839355 0.770630

vt 0.850586 0.807007

vt 0.845215 0.825562

vt 0.815918 0.849854

vt 0.833008 0.840576

vt 0.777832 0.846191

vt 0.796387 0.851807

vt 0.757324 0.778931

vt 0.806152 0.752686

vt 0.786621 0.754639

vt 0.769531 0.763794

vt 0.753418 0.816772

vt 0.762695 0.833862

vt 0.751465 0.797485



vn -0.913725 -0.184314 -0.380392

vn -0.701961 -0.184314 -0.701961

vn -0.913725 -0.184314 -0.380392

vn -0.701961 -0.184314 -0.701961

vn -0.984314 -0.184314 -0.003922

vn -0.913725 -0.184314 -0.380392

vn -0.984314 -0.184314 -0.003922

vn -0.913725 -0.184314 -0.380392

vn -0.913725 -0.184314 0.372549

vn -0.984314 -0.184314 -0.003922

vn -0.984314 -0.184314 -0.003922

vn -0.913725 -0.184314 0.372549

vn -0.701961 -0.184314 0.694118

vn -0.913725 -0.184314 0.372549

vn -0.913725 -0.184314 0.372549

vn -0.701961 -0.184314 0.694118

vn -0.701961 -0.184314 0.694118

vn -0.701961 -0.184314 0.694118

vn -0.380392 -0.184314 0.905882

vn -0.380392 -0.184314 0.905882

vn -0.380392 -0.184314 0.905882

vn -0.380392 -0.184314 0.905882

vn -0.003922 -0.184314 0.976471

vn -0.003922 -0.184314 0.976471

vn -0.003922 -0.184314 0.976471

vn 0.372549 -0.184314 0.905882

vn 0.372549 -0.184314 0.905882

vn -0.003922 -0.184314 0.976471

vn 0.372549 -0.184314 0.905882

vn 0.694118 -0.184314 0.694118

vn 0.694118 -0.184314 0.694118

vn 0.372549 -0.184314 0.905882

vn -0.003922 1.000000 -0.003922

vn -0.003922 1.000000 -0.003922

vn -0.003922 1.000000 -0.003922

vn -0.003922 1.000000 -0.003922

vn -0.003922 1.000000 -0.003922

vn -0.003922 1.000000 -0.003922

vn -0.003922 1.000000 -0.003922

vn -0.003922 1.000000 -0.003922

vn -0.003922 1.000000 -0.003922

vn -0.003922 1.000000 -0.003922

vn -0.003922 1.000000 -0.003922

vn -0.003922 1.000000 -0.003922

vn -0.003922 1.000000 -0.003922

vn -0.003922 1.000000 -0.003922

vn -0.003922 1.000000 -0.003922

vn -0.003922 1.000000 -0.003922

vn -0.003922 1.000000 -0.003922

vn -0.003922 1.000000 -0.003922

vn -0.003922 1.000000 -0.003922

vn -0.003922 1.000000 -0.003922

vn -0.003922 1.000000 -0.003922

vn -0.003922 1.000000 -0.003922

vn -0.003922 1.000000 -0.003922

vn -0.003922 1.000000 -0.003922

vn -0.003922 1.000000 -0.003922

vn -0.003922 1.000000 -0.003922

vn -0.003922 1.000000 -0.003922

vn -0.003922 1.000000 -0.003922

vn -0.003922 1.000000 -0.003922

vn -0.003922 1.000000 -0.003922

vn -0.003922 1.000000 -0.003922

vn -0.003922 1.000000 -0.003922

vn 0.913726 0.090196 0.380392

vn 0.701961 0.090196 0.701961

vn 0.701961 0.090196 0.701961

vn 0.913726 0.090196 0.380392

vn 0.992157 0.090196 -0.003922

vn 0.913726 0.090196 0.380392

vn 0.913726 0.090196 0.380392

vn 0.992157 0.090196 -0.003922

vn 0.913726 0.090196 -0.388235

vn 0.992157 0.090196 -0.003922

vn 0.913726 0.090196 -0.388235

vn 0.992157 0.090196 -0.003922

vn 0.701961 0.090196 -0.709804

vn 0.913726 0.090196 -0.388235

vn 0.701961 0.090196 -0.709804

vn 0.913726 0.090196 -0.388235

vn 0.701961 0.090196 -0.709804

vn 0.380392 0.090196 -0.921569

vn 0.380392 0.090196 -0.921569

vn 0.701961 0.090196 -0.709804

vn 0.380392 0.090196 -0.921569

vn -0.003922 0.090196 -1.000000

vn -0.003922 0.090196 -1.000000

vn 0.380392 0.090196 -0.921569

vn -0.003922 0.090196 -1.000000

vn -0.003922 0.090196 -1.000000

vn -0.388235 0.090196 -0.921569

vn -0.388235 0.090196 -0.921569

vn -0.388235 0.090196 -0.921569

vn -0.388235 0.090196 -0.921569

vn -0.709804 0.090196 -0.709804

vn -0.709804 0.090196 -0.709804

vn -0.380392 -0.184314 -0.913725

vn -0.380392 -0.184314 -0.913725

vn -0.701961 -0.184314 -0.701961

vn -0.701961 -0.184314 -0.701961

vn -0.003922 -0.184314 -0.984314

vn -0.003922 -0.184314 -0.984314

vn -0.380392 -0.184314 -0.913725

vn -0.380392 -0.184314 -0.913725

vn 0.372549 -0.184314 -0.913725

vn -0.003922 -0.184314 -0.984314

vn 0.372549 -0.184314 -0.913725

vn -0.003922 -0.184314 -0.984314

vn 0.694118 -0.184314 -0.701961

vn 0.372549 -0.184314 -0.913725

vn 0.694118 -0.184314 -0.701961

vn 0.372549 -0.184314 -0.913725

vn 0.905882 -0.184314 -0.380392

vn 0.905882 -0.184314 -0.380392

vn 0.694118 -0.184314 -0.701961

vn 0.694118 -0.184314 -0.701961

vn 0.976471 -0.184314 -0.003922

vn 0.976471 -0.184314 -0.003922

vn 0.905882 -0.184314 -0.380392

vn 0.905882 -0.184314 -0.380392

vn 0.905882 -0.184314 0.372549

vn 0.976471 -0.184314 -0.003922

vn 0.905882 -0.184314 0.372549

vn 0.976471 -0.184314 -0.003922

vn 0.694118 -0.184314 0.694118

vn 0.905882 -0.184314 0.372549

vn 0.694118 -0.184314 0.694118

vn 0.905882 -0.184314 0.372549

vn -0.003922 1.000000 -0.003922

vn -0.003922 1.000000 -0.003922

vn -0.003922 1.000000 -0.003922

vn -0.003922 1.000000 -0.003922

vn -0.003922 1.000000 -0.003922

vn -0.003922 1.000000 -0.003922

vn -0.003922 1.000000 -0.003922

vn -0.003922 1.000000 -0.003922

vn -0.003922 1.000000 -0.003922

vn -0.003922 1.000000 -0.003922

vn -0.003922 1.000000 -0.003922

vn -0.003922 1.000000 -0.003922

vn -0.003922 1.000000 -0.003922

vn -0.003922 1.000000 -0.003922

vn -0.003922 1.000000 -0.003922

vn -0.003922 1.000000 -0.003922

vn -0.003922 1.000000 -0.003922

vn -0.003922 1.000000 -0.003922

vn -0.003922 1.000000 -0.003922

vn -0.003922 1.000000 -0.003922

vn -0.003922 1.000000 -0.003922

vn -0.003922 1.000000 -0.003922

vn -0.003922 1.000000 -0.003922

vn -0.003922 1.000000 -0.003922

vn -0.003922 1.000000 -0.003922

vn -0.003922 1.000000 -0.003922

vn -0.003922 1.000000 -0.003922

vn -0.003922 1.000000 -0.003922

vn -0.003922 1.000000 -0.003922

vn -0.003922 1.000000 -0.003922

vn -0.003922 1.000000 -0.003922

vn -0.003922 1.000000 -0.003922

vn 0.380392 0.090196 0.913726

vn 0.701961 0.090196 0.701961

vn 0.380392 0.090196 0.913726

vn 0.701961 0.090196 0.701961

vn -0.003922 0.090196 0.992157

vn 0.380392 0.090196 0.913726

vn -0.003922 0.090196 0.992157

vn 0.380392 0.090196 0.913726

vn -0.388235 0.090196 0.913726

vn -0.388235 0.090196 0.913726

vn -0.003922 0.090196 0.992157

vn -0.003922 0.090196 0.992157

vn -0.709804 0.090196 0.701961

vn -0.709804 0.090196 0.701961

vn -0.388235 0.090196 0.913726

vn -0.388235 0.090196 0.913726

vn -0.921569 0.090196 0.380392

vn -0.709804 0.090196 0.701961

vn -0.921569 0.090196 0.380392

vn -0.709804 0.090196 0.701961

vn -1.000000 0.090196 -0.003922

vn -0.921569 0.090196 0.380392

vn -1.000000 0.090196 -0.003922

vn -0.921569 0.090196 0.380392

vn -0.921569 0.090196 -0.388235

vn -0.921569 0.090196 -0.388235

vn -1.000000 0.090196 -0.003922

vn -1.000000 0.090196 -0.003922

vn -0.709804 0.090196 -0.709804

vn -0.709804 0.090196 -0.709804

vn -0.921569 0.090196 -0.388235

vn -0.921569 0.090196 -0.388235

vn -0.003922 1.000000 -0.003922

vn -0.003922 1.000000 -0.003922

vn -0.003922 1.000000 -0.003922

vn -0.003922 1.000000 -0.003922

vn -0.003922 1.000000 -0.003922

vn -0.003922 1.000000 -0.003922

vn -0.003922 1.000000 -0.003922

vn -0.003922 1.000000 -0.003922

vn -0.003922 1.000000 -0.003922

vn -0.003922 1.000000 -0.003922

vn -0.003922 1.000000 -0.003922

vn -0.003922 1.000000 -0.003922

vn -0.003922 1.000000 -0.003922

vn -0.003922 1.000000 -0.003922

vn -0.003922 1.000000 -0.003922

vn -0.003922 1.000000 -0.003922

vn -0.003922 -1.000000 -0.003922

vn -0.003922 -1.000000 -0.003922

vn -0.003922 -1.000000 -0.003922

vn -0.003922 -1.000000 -0.003922

vn -0.003922 -1.000000 -0.003922

vn -0.003922 -1.000000 -0.003922

vn -0.003922 -1.000000 -0.003922

vn -0.003922 -1.000000 -0.003922

vn -0.003922 -1.000000 -0.003922

vn -0.003922 -1.000000 -0.003922

vn -0.003922 -1.000000 -0.003922

vn -0.003922 -1.000000 -0.003922

vn -0.003922 -1.000000 -0.003922

vn -0.003922 -1.000000 -0.003922

vn -0.003922 -1.000000 -0.003922

vn -0.003922 -1.000000 -0.003922

f 1/1/1 2/2/2 3/3/3

f 2/2/2 1/1/1 4/4/4

f 5/5/5 6/6/6 7/7/7

f 6/6/6 5/5/5 8/8/8

f 9/9/9 10/10/10 11/11/11

f 10/10/10 9/9/9 12/12/12

f 13/13/13 14/14/14 15/15/15

f 14/14/14 13/13/13 16/16/16

f 17/17/17 18/18/18 19/19/19

f 19/19/19 18/18/18 20/20/20

f 21/21/21 22/22/22 23/23/23

f 23/23/23 22/22/22 24/24/24

f 25/25/25 26/26/26 27/27/27

f 26/26/26 25/25/25 28/28/28

f 29/29/29 30/30/30 31/31/31

f 30/30/30 29/29/29 32/32/32

f 33/33/33 34/34/34 35/35/35

f 33/33/33 35/35/35 36/36/36

f 37/37/37 38/38/38 39/39/39

f 38/38/38 37/37/37 40/40/40

f 41/41/41 42/42/42 43/43/43

f 42/42/42 41/41/41 44/44/44

f 45/45/45 46/46/46 47/47/47

f 46/46/46 45/45/45 48/48/48

f 49/49/49 50/50/50 51/51/51

f 50/50/50 49/49/49 52/52/52

f 53/53/53 54/54/54 55/55/55

f 54/54/54 53/53/53 56/56/56

f 57/57/57 58/58/58 59/59/59

f 58/58/58 57/57/57 60/60/60

f 61/61/61 62/62/62 63/63/63

f 62/62/62 61/61/61 64/64/64

f 65/65/65 66/66/66 67/67/67

f 66/66/66 65/65/65 68/68/68

f 69/69/69 70/70/70 71/71/71

f 70/70/70 69/69/69 72/72/72

f 73/73/73 74/74/74 75/75/75

f 74/74/74 73/73/73 76/76/76

f 77/77/77 78/78/78 79/79/79

f 78/78/78 77/77/77 80/80/80

f 81/81/81 82/82/82 83/83/83

f 82/82/82 81/81/81 84/84/84

f 85/85/85 86/86/86 87/87/87

f 86/86/86 85/85/85 88/88/88

f 89/89/89 90/90/90 91/91/91

f 91/91/91 90/90/90 92/92/92

f 93/93/93 94/94/94 95/95/95

f 95/95/95 94/94/94 96/96/96

f 97/97/97 98/98/98 99/99/99

f 99/99/99 100/100/100 97/97/97

f 101/101/101 102/102/102 103/103/103

f 103/103/103 104/104/104 101/101/101

f 105/105/105 106/106/106 107/107/107

f 106/106/106 105/105/105 108/108/108

f 109/109/109 110/110/110 111/111/111

f 110/110/110 109/109/109 112/112/112

f 113/113/113 114/114/114 115/115/115

f 113/113/113 115/115/115 116/116/116

f 117/117/117 118/118/118 119/119/119

f 117/117/117 119/119/119 120/120/120

f 121/121/121 122/122/122 123/123/123

f 122/122/122 121/121/121 124/124/124

f 125/125/125 126/126/126 127/127/127

f 126/126/126 125/125/125 128/128/128

f 129/129/129 130/130/130 131/131/131

f 130/130/130 129/129/129 132/132/132

f 133/133/133 134/134/134 135/135/135

f 135/135/135 134/134/134 136/136/136

f 137/137/137 138/138/138 139/139/139

f 138/138/138 137/137/137 140/140/140

f 141/141/141 142/142/142 143/143/143

f 142/142/142 141/141/141 144/144/144

f 145/145/145 146/146/146 147/147/147

f 146/146/146 145/145/145 148/148/148

f 149/149/149 150/150/150 151/151/151

f 150/150/150 149/149/149 152/152/152

f 153/153/153 154/154/154 155/155/155

f 154/154/154 153/153/153 156/156/156

f 157/157/157 158/158/158 159/159/159

f 158/158/158 157/157/157 160/160/160

f 161/161/161 162/162/162 163/163/163

f 162/162/162 161/161/161 164/164/164

f 165/165/165 166/166/166 167/167/167

f 166/166/166 165/165/165 168/168/168

f 169/169/169 170/170/170 171/171/171

f 171/171/171 172/172/172 169/169/169

f 173/173/173 174/174/174 175/175/175

f 175/175/175 176/176/176 173/173/173

f 177/177/177 178/178/178 179/179/179

f 178/178/178 177/177/177 180/180/180

f 181/181/181 182/182/182 183/183/183

f 182/182/182 181/181/181 184/184/184

f 185/185/185 186/186/186 187/187/187

f 185/185/185 187/187/187 188/188/188

f 189/189/189 190/190/190 191/191/191

f 189/189/189 191/191/191 192/192/192

f 193/193/193 194/194/194 195/195/195

f 193/193/193 196/196/196 194/194/194

f 197/197/197 196/196/196 193/193/193

f 196/196/196 197/197/197 198/198/198

f 198/198/198 199/199/199 200/200/200

f 198/198/198 201/201/201 199/199/199

f 198/198/198 202/202/202 201/201/201

f 197/197/197 202/202/202 198/198/198

f 202/202/202 203/203/203 204/204/204

f 202/202/202 205/205/205 203/203/203

f 202/202/202 197/197/197 205/205/205

f 197/197/197 206/206/206 205/205/205

f 206/206/206 197/197/197 207/207/207

f 206/206/206 207/207/207 208/208/208

f 209/209/209 210/210/210 211/211/211

f 210/210/210 209/209/209 212/212/212

f 213/213/213 210/210/210 212/212/212

f 214/214/214 213/213/213 215/215/215

f 210/210/210 213/213/213 214/214/214

f 216/216/216 214/214/214 217/217/217

f 210/210/210 214/214/214 218/218/218

f 218/218/218 214/214/214 216/216/216

f 210/210/210 218/218/218 219/219/219

f 219/219/219 218/218/218 220/220/220

f 220/220/220 218/218/218 221/221/221

f 222/222/222 218/218/218 216/216/216

f 222/222/222 216/216/216 223/223/223

f 218/218/218 222/222/222 224/224/224

