# UnrealEd OBJ exporter (_Internal)



v -13.567841 -5.618243 21.074600

v 13.567810 -5.618243 21.074600

v -13.567841 5.618245 21.074600

v 13.567810 5.618245 21.074600

v 13.567810 -5.618245 -21.074598

v -13.567841 -5.618245 -21.074598

v -13.567841 5.618243 -21.074598

v 13.567810 5.618243 -21.074598

v 13.567810 5.618245 21.074600

v 13.567810 5.618243 -21.074598

v -13.567841 5.618245 21.074600

v -13.567841 5.618243 -21.074598

v 13.567810 -5.618243 21.074600

v 13.567810 -5.618245 -21.074598

v 13.567810 5.618245 21.074600

v 13.567810 5.618243 -21.074598

v -13.567841 -5.618243 21.074600

v -13.567841 -5.618245 -21.074598

v 13.567810 -5.618243 21.074600

v 13.567810 -5.618245 -21.074598

v -13.567841 5.618245 21.074600

v -13.567841 -5.618245 -21.074598

v -13.567841 -5.618243 21.074600

v -13.567841 5.618243 -21.074598



vt 0.858887 0.934387

vt 0.858887 0.953094

vt 0.851074 0.934387

vt 0.851074 0.953094

vt 0.835449 0.862671

vt 0.835449 0.843750

vt 0.843262 0.843750

vt 0.843262 0.862671

vt 0.924316 0.946472

vt 0.903809 0.946472

vt 0.924316 0.933289

vt 0.903809 0.933289

vt 0.924316 0.951935

vt 0.903809 0.951935

vt 0.924316 0.946472

vt 0.903809 0.946472

vt 0.924316 0.927856

vt 0.903809 0.927856

vt 0.924316 0.914673

vt 0.903809 0.914673

vt 0.924316 0.933289

vt 0.903809 0.927856

vt 0.924316 0.927856

vt 0.903809 0.933289



vn -0.003922 -0.003922 1.000000

vn -0.003922 -0.003922 1.000000

vn -0.003922 -0.003922 1.000000

vn -0.003922 -0.003922 1.000000

vn -0.003922 -0.003922 -1.000000

vn -0.003922 -0.003922 -1.000000

vn -0.003922 -0.003922 -1.000000

vn -0.003922 -0.003922 -1.000000

vn -0.003922 1.000000 -0.003922

vn -0.003922 1.000000 -0.003922

vn -0.003922 1.000000 -0.003922

vn -0.003922 1.000000 -0.003922

vn 1.000000 -0.003922 -0.003922

vn 1.000000 -0.003922 -0.003922

vn 1.000000 -0.003922 -0.003922

vn 1.000000 -0.003922 -0.003922

vn -0.003922 -1.000000 -0.003922

vn -0.003922 -1.000000 -0.003922

vn -0.003922 -1.000000 -0.003922

vn -0.003922 -1.000000 -0.003922

vn -1.000000 -0.003922 -0.003922

vn -1.000000 -0.003922 -0.003922

vn -1.000000 -0.003922 -0.003922

vn -1.000000 -0.003922 -0.003922

f 1/1/1 2/2/2 3/3/3

f 4/4/4 3/3/3 2/2/2

f 5/5/5 6/6/6 7/7/7

f 5/5/5 7/7/7 8/8/8

f 9/9/9 10/10/10 11/11/11

f 11/11/11 10/10/10 12/12/12

f 13/13/13 14/14/14 15/15/15

f 15/15/15 14/14/14 16/16/16

f 17/17/17 18/18/18 19/19/19

f 19/19/19 18/18/18 20/20/20

f 21/21/21 22/22/22 23/23/23

f 22/22/22 21/21/21 24/24/24

