# UnrealEd OBJ exporter (_Internal)



v -13.567841 -4.216007 21.074598

v 13.567841 -4.216007 21.074598

v -13.567841 4.216008 21.074598

v 13.567841 4.216008 21.074598

v 13.567841 -4.216009 -21.074600

v -13.567841 -4.216009 -21.074600

v -13.567841 4.216006 -21.074600

v 13.567841 4.216006 -21.074600

v 13.567841 4.216008 21.074598

v 13.567841 4.216006 -21.074600

v -13.567841 4.216008 21.074598

v -13.567841 4.216006 -21.074600

v 13.567841 -4.216007 21.074598

v 13.567841 -4.216009 -21.074600

v 13.567841 4.216008 21.074598

v 13.567841 4.216006 -21.074600

v -13.567841 -4.216007 21.074598

v -13.567841 -4.216009 -21.074600

v 13.567841 -4.216007 21.074598

v 13.567841 -4.216009 -21.074600

v -13.567841 4.216008 21.074598

v -13.567841 -4.216009 -21.074600

v -13.567841 -4.216007 21.074598

v -13.567841 4.216006 -21.074600



vt 0.945313 0.921265

vt 0.929199 0.921265

vt 0.945313 0.914429

vt 0.929199 0.914429

vt 0.845703 0.775879

vt 0.845703 0.757935

vt 0.853027 0.757935

vt 0.853027 0.775879

vt 0.807129 0.992725

vt 0.785156 0.992725

vt 0.807129 0.978500

vt 0.785156 0.978500

vt 0.807129 0.998612

vt 0.785156 0.998612

vt 0.807129 0.992725

vt 0.785156 0.992725

vt 0.807129 0.972610

vt 0.785156 0.972610

vt 0.807129 0.958405

vt 0.785156 0.958405

vt 0.807129 0.978500

vt 0.785156 0.972610

vt 0.807129 0.972610

vt 0.785156 0.978500



vn -0.003922 -0.003922 1.000000

vn -0.003922 -0.003922 1.000000

vn -0.003922 -0.003922 1.000000

vn -0.003922 -0.003922 1.000000

vn -0.003922 -0.003922 -1.000000

vn -0.003922 -0.003922 -1.000000

vn -0.003922 -0.003922 -1.000000

vn -0.003922 -0.003922 -1.000000

vn -0.003922 1.000000 -0.003922

vn -0.003922 1.000000 -0.003922

vn -0.003922 1.000000 -0.003922

vn -0.003922 1.000000 -0.003922

vn 1.000000 -0.003922 -0.003922

vn 1.000000 -0.003922 -0.003922

vn 1.000000 -0.003922 -0.003922

vn 1.000000 -0.003922 -0.003922

vn -0.003922 -1.000000 -0.003922

vn -0.003922 -1.000000 -0.003922

vn -0.003922 -1.000000 -0.003922

vn -0.003922 -1.000000 -0.003922

vn -1.000000 -0.003922 -0.003922

vn -1.000000 -0.003922 -0.003922

vn -1.000000 -0.003922 -0.003922

vn -1.000000 -0.003922 -0.003922

f 1/1/1 2/2/2 3/3/3

f 4/4/4 3/3/3 2/2/2

f 5/5/5 6/6/6 7/7/7

f 5/5/5 7/7/7 8/8/8

f 9/9/9 10/10/10 11/11/11

f 11/11/11 10/10/10 12/12/12

f 13/13/13 14/14/14 15/15/15

f 15/15/15 14/14/14 16/16/16

f 17/17/17 18/18/18 19/19/19

f 19/19/19 18/18/18 20/20/20

f 21/21/21 22/22/22 23/23/23

f 22/22/22 21/21/21 24/24/24

