# UnrealEd OBJ exporter (_Internal)



v -9.702148 -2.388686 23.110458

v 17.021280 -2.388686 18.398397

v -9.702148 2.388688 23.110458

v 17.021280 2.388688 18.398397

v 9.702148 -2.388688 -23.110460

v -17.021280 -2.388688 -18.398399

v -17.021280 2.388686 -18.398399

v 9.702148 2.388686 -23.110460

v 9.702148 2.388686 -23.110460

v -9.702148 2.388688 23.110458

v 17.021280 2.388688 18.398397

v -17.021280 2.388686 -18.398399

v 17.021280 -2.388686 18.398397

v 9.702148 2.388686 -23.110460

v 17.021280 2.388688 18.398397

v 9.702148 -2.388688 -23.110460

v -9.702148 -2.388686 23.110458

v 9.702148 -2.388688 -23.110460

v 17.021280 -2.388686 18.398397

v -17.021280 -2.388688 -18.398399

v -9.702148 2.388688 23.110458

v -17.021280 2.388686 -18.398399

v -9.702148 -2.388686 23.110458

v -17.021280 -2.388688 -18.398399

v 1.795646 2.558580 23.901997

v 24.023909 2.558580 8.337607

v 1.795646 7.335953 23.901997

v 24.023909 7.335953 8.337607

v -22.380142 2.558578 -10.624610

v -0.151908 7.335951 -26.188995

v -0.151907 2.558578 -26.188995

v -22.380142 7.335951 -10.624610

v -0.151908 7.335951 -26.188995

v 1.795646 7.335953 23.901997

v 24.023909 7.335953 8.337607

v -22.380142 7.335951 -10.624610

v 24.023909 2.558580 8.337607

v -0.151908 7.335951 -26.188995

v 24.023909 7.335953 8.337607

v -0.151907 2.558578 -26.188995

v -0.151907 2.558578 -26.188995

v 1.795646 2.558580 23.901997

v -22.380142 2.558578 -10.624610

v 24.023909 2.558580 8.337607

v 1.795646 7.335953 23.901997

v -22.380142 7.335951 -10.624610

v 1.795646 2.558580 23.901997

v -22.380142 2.558578 -10.624610

v 25.867361 7.115219 -0.169703

v 10.302991 11.892592 22.058540

v 10.302991 7.115220 22.058540

v 25.867361 11.892592 -0.169703

v -8.659242 7.115218 -24.345476

v -24.223644 7.115218 -2.117244

v -24.223644 11.892590 -2.117244

v -8.659242 11.892591 -24.345476

v -8.659242 11.892591 -24.345476

v -24.223644 11.892590 -2.117244

v 10.302991 11.892592 22.058540

v 25.867361 11.892592 -0.169703

v 25.867361 7.115219 -0.169703

v -8.659242 11.892591 -24.345476

v 25.867361 11.892592 -0.169703

v -8.659242 7.115218 -24.345476

v -8.659242 7.115218 -24.345476

v 10.302991 7.115220 22.058540

v -24.223644 7.115218 -2.117244

v 25.867361 7.115219 -0.169703

v -24.223644 11.892590 -2.117244

v 10.302991 7.115220 22.058540

v 10.302991 11.892592 22.058540

v -24.223644 7.115218 -2.117244

v 24.689985 11.671860 -8.794512

v 17.666775 16.449232 17.416553

v 17.666775 11.671860 17.416553

v 24.689985 16.449232 -8.794512

v -16.023005 11.671859 -19.703558

v -23.046213 11.671859 6.507539

v -23.046213 16.449232 6.507539

v -16.023005 16.449232 -19.703558

v -23.046213 16.449232 6.507539

v 24.689985 16.449232 -8.794512

v -16.023005 16.449232 -19.703558

v 17.666775 16.449232 17.416553

v 24.689985 11.671860 -8.794512

v -16.023005 16.449232 -19.703558

v 24.689985 16.449232 -8.794512

v -16.023005 11.671859 -19.703558

v 24.689985 11.671860 -8.794512

v -23.046213 11.671859 6.507539

v -16.023005 11.671859 -19.703558

v 17.666775 11.671860 17.416553

v -23.046213 16.449232 6.507539

v 17.666775 11.671860 17.416553

v 17.666775 16.449232 17.416553

v -23.046213 11.671859 6.507539

v 22.998846 16.228498 10.535990

v 20.633806 16.228498 -16.496418

v 22.998846 21.005873 10.535990

v 20.633806 21.005873 -16.496418

v -21.354996 16.228497 -12.822884

v -18.989986 16.228497 14.209531

v -18.989986 21.005869 14.209530

v -21.354996 21.005873 -12.822884

v 20.633806 21.005873 -16.496418

v -21.354996 21.005873 -12.822884

v 22.998846 21.005873 10.535990

v -18.989986 21.005869 14.209530

v 20.633806 16.228498 -16.496418

v -21.354996 21.005873 -12.822884

v 20.633806 21.005873 -16.496418

v -21.354996 16.228497 -12.822884

v 22.998846 16.228498 10.535990

v -21.354996 16.228497 -12.822884

v 20.633806 16.228498 -16.496418

v -18.989986 16.228497 14.209531

v -18.989986 21.005869 14.209530

v 22.998846 16.228498 10.535990

v 22.998846 21.005873 10.535990

v -18.989986 16.228497 14.209531

v 25.856949 20.937971 0.069302

v 12.289080 20.937975 -23.430889

v 25.856949 25.715347 0.069302

v 12.289080 25.715347 -23.430889

v -24.213173 20.937971 -2.356276

v -10.645334 20.937971 21.143921

v -10.645334 25.715345 21.143921

v -24.213173 25.715347 -2.356276

v -24.213173 25.715347 -2.356276

v 25.856949 25.715347 0.069302

v 12.289080 25.715347 -23.430889

v -10.645334 25.715345 21.143921

v 12.289080 20.937975 -23.430889

v -24.213173 25.715347 -2.356276

v 12.289080 25.715347 -23.430889

v -24.213173 20.937971 -2.356276

v 25.856949 20.937971 0.069302

v -24.213173 20.937971 -2.356276

v 12.289080 20.937975 -23.430889

v -10.645334 20.937971 21.143921

v -10.645334 25.715345 21.143921

v 25.856949 20.937971 0.069302

v 25.856949 25.715347 0.069302

v -10.645334 20.937971 21.143921

v -1.916787 23.577574 -29.455536

v -12.532951 23.577576 19.536268

v 17.271042 23.577576 -10.267712

v -31.720779 23.577579 0.348452



vt 0.945313 0.921265

vt 0.929199 0.921265

vt 0.945313 0.914429

vt 0.929199 0.914429

vt 0.845703 0.775879

vt 0.845703 0.757935

vt 0.853027 0.757935

vt 0.853027 0.775879

vt 0.785156 0.992725

vt 0.807129 0.978500

vt 0.807129 0.992725

vt 0.785156 0.978500

vt 0.807129 0.998612

vt 0.785156 0.992725

vt 0.807129 0.992725

vt 0.785156 0.998612

vt 0.807129 0.972610

vt 0.785156 0.958405

vt 0.807129 0.958405

vt 0.785156 0.972610

vt 0.807129 0.978500

vt 0.785156 0.978500

vt 0.807129 0.972610

vt 0.785156 0.972610

vt 0.945313 0.921265

vt 0.929199 0.921265

vt 0.945313 0.914429

vt 0.929199 0.914429

vt 0.845703 0.757935

vt 0.853027 0.775879

vt 0.845703 0.775879

vt 0.853027 0.757935

vt 0.785156 0.992725

vt 0.807129 0.978500

vt 0.807129 0.992725

vt 0.785156 0.978500

vt 0.807129 0.998612

vt 0.785156 0.992725

vt 0.807129 0.992725

vt 0.785156 0.998612

vt 0.785156 0.958405

vt 0.807129 0.972610

vt 0.785156 0.972610

vt 0.807129 0.958405

vt 0.807129 0.978500

vt 0.785156 0.978500

vt 0.807129 0.972610

vt 0.785156 0.972610

vt 0.929199 0.921265

vt 0.945313 0.914429

vt 0.945313 0.921265

vt 0.929199 0.914429

vt 0.845703 0.775879

vt 0.845703 0.757935

vt 0.853027 0.757935

vt 0.853027 0.775879

vt 0.785156 0.992725

vt 0.785156 0.978500

vt 0.807129 0.978500

vt 0.807129 0.992725

vt 0.807129 0.998612

vt 0.785156 0.992725

vt 0.807129 0.992725

vt 0.785156 0.998612

vt 0.785156 0.958405

vt 0.807129 0.972610

vt 0.785156 0.972610

vt 0.807129 0.958405

vt 0.785156 0.978500

vt 0.807129 0.972610

vt 0.807129 0.978500

vt 0.785156 0.972610

vt 0.929199 0.921265

vt 0.945313 0.914429

vt 0.945313 0.921265

vt 0.929199 0.914429

vt 0.845703 0.775879

vt 0.845703 0.757935

vt 0.853027 0.757935

vt 0.853027 0.775879

vt 0.785156 0.978500

vt 0.807129 0.992725

vt 0.785156 0.992725

vt 0.807129 0.978500

vt 0.807129 0.998612

vt 0.785156 0.992725

vt 0.807129 0.992725

vt 0.785156 0.998612

vt 0.807129 0.958405

vt 0.785156 0.972610

vt 0.785156 0.958405

vt 0.807129 0.972610

vt 0.785156 0.978500

vt 0.807129 0.972610

vt 0.807129 0.978500

vt 0.785156 0.972610

vt 0.945313 0.921265

vt 0.929199 0.921265

vt 0.945313 0.914429

vt 0.929199 0.914429

vt 0.845703 0.775879

vt 0.845703 0.757935

vt 0.853027 0.757935

vt 0.853027 0.775879

vt 0.807129 0.992725

vt 0.785156 0.992725

vt 0.807129 0.978500

vt 0.785156 0.978500

vt 0.807129 0.998612

vt 0.785156 0.992725

vt 0.807129 0.992725

vt 0.785156 0.998612

vt 0.807129 0.972610

vt 0.785156 0.958405

vt 0.807129 0.958405

vt 0.785156 0.972610

vt 0.785156 0.978500

vt 0.807129 0.972610

vt 0.807129 0.978500

vt 0.785156 0.972610

vt 0.945313 0.921265

vt 0.929199 0.921265

vt 0.945313 0.914429

vt 0.929199 0.914429

vt 0.845703 0.775879

vt 0.845703 0.757935

vt 0.853027 0.757935

vt 0.853027 0.775879

vt 0.785156 0.992725

vt 0.807129 0.978500

vt 0.807129 0.992725

vt 0.785156 0.978500

vt 0.807129 0.998612

vt 0.785156 0.992725

vt 0.807129 0.992725

vt 0.785156 0.998612

vt 0.807129 0.972610

vt 0.785156 0.958405

vt 0.807129 0.958405

vt 0.785156 0.972610

vt 0.785156 0.978500

vt 0.807129 0.972610

vt 0.807129 0.978500

vt 0.785156 0.972610

vt 0.888184 0.947235

vt 0.901367 0.926819

vt 0.901367 0.947235

vt 0.888184 0.926819



vn 0.168628 -0.003922 0.984314

vn 0.168628 -0.003922 0.984314

vn 0.168628 -0.003922 0.984314

vn 0.168628 -0.003922 0.984314

vn -0.176471 -0.003922 -0.992157

vn -0.176471 -0.003922 -0.992157

vn -0.176471 -0.003922 -0.992157

vn -0.176471 -0.003922 -0.992157

vn -0.003922 1.000000 -0.003922

vn -0.003922 1.000000 -0.003922

vn -0.003922 1.000000 -0.003922

vn -0.003922 1.000000 -0.003922

vn 0.984314 -0.003922 -0.176471

vn 0.984314 -0.003922 -0.176471

vn 0.984314 -0.003922 -0.176471

vn 0.984314 -0.003922 -0.176471

vn -0.003922 -1.000000 -0.003922

vn -0.003922 -1.000000 -0.003922

vn -0.003922 -1.000000 -0.003922

vn -0.003922 -1.000000 -0.003922

vn -0.992157 -0.003922 0.168628

vn -0.992157 -0.003922 0.168628

vn -0.992157 -0.003922 0.168628

vn -0.992157 -0.003922 0.168628

vn 0.568628 -0.003922 0.811765

vn 0.568628 -0.003922 0.811765

vn 0.568628 -0.003922 0.811765

vn 0.568628 -0.003922 0.811765

vn -0.576471 -0.003922 -0.819608

vn -0.576471 -0.003922 -0.819608

vn -0.576471 -0.003922 -0.819608

vn -0.576471 -0.003922 -0.819608

vn -0.003922 1.000000 -0.003922

vn -0.003922 1.000000 -0.003922

vn -0.003922 1.000000 -0.003922

vn -0.003922 1.000000 -0.003922

vn 0.811765 -0.003922 -0.576471

vn 0.811765 -0.003922 -0.576471

vn 0.811765 -0.003922 -0.576471

vn 0.811765 -0.003922 -0.576471

vn -0.003922 -1.000000 -0.003922

vn -0.003922 -1.000000 -0.003922

vn -0.003922 -1.000000 -0.003922

vn -0.003922 -1.000000 -0.003922

vn -0.819608 -0.003922 0.568628

vn -0.819608 -0.003922 0.568628

vn -0.819608 -0.003922 0.568628

vn -0.819608 -0.003922 0.568628

vn 0.811765 -0.003922 0.568628

vn 0.811765 -0.003922 0.568628

vn 0.811765 -0.003922 0.568628

vn 0.811765 -0.003922 0.568628

vn -0.819608 -0.003922 -0.576471

vn -0.819608 -0.003922 -0.576471

vn -0.819608 -0.003922 -0.576471

vn -0.819608 -0.003922 -0.576471

vn -0.003922 1.000000 -0.003922

vn -0.003922 1.000000 -0.003922

vn -0.003922 1.000000 -0.003922

vn -0.003922 1.000000 -0.003922

vn 0.568628 -0.003922 -0.819608

vn 0.568628 -0.003922 -0.819608

vn 0.568628 -0.003922 -0.819608

vn 0.568628 -0.003922 -0.819608

vn -0.003922 -1.000000 -0.003922

vn -0.003922 -1.000000 -0.003922

vn -0.003922 -1.000000 -0.003922

vn -0.003922 -1.000000 -0.003922

vn -0.576471 -0.003922 0.811765

vn -0.576471 -0.003922 0.811765

vn -0.576471 -0.003922 0.811765

vn -0.576471 -0.003922 0.811765

vn 0.960784 -0.003922 0.254902

vn 0.960784 -0.003922 0.254902

vn 0.960784 -0.003922 0.254902

vn 0.960784 -0.003922 0.254902

vn -0.968627 -0.003922 -0.262745

vn -0.968627 -0.003922 -0.262745

vn -0.968627 -0.003922 -0.262745

vn -0.968627 -0.003922 -0.262745

vn -0.003922 1.000000 -0.003922

vn -0.003922 1.000000 -0.003922

vn -0.003922 1.000000 -0.003922

vn -0.003922 1.000000 -0.003922

vn 0.254902 -0.003922 -0.968627

vn 0.254902 -0.003922 -0.968627

vn 0.254902 -0.003922 -0.968627

vn 0.254902 -0.003922 -0.968627

vn -0.003922 -1.000000 -0.003922

vn -0.003922 -1.000000 -0.003922

vn -0.003922 -1.000000 -0.003922

vn -0.003922 -1.000000 -0.003922

vn -0.262745 -0.003922 0.960784

vn -0.262745 -0.003922 0.960784

vn -0.262745 -0.003922 0.960784

vn -0.262745 -0.003922 0.960784

vn 0.992157 -0.003922 -0.090196

vn 0.992157 -0.003922 -0.090196

vn 0.992157 -0.003922 -0.090196

vn 0.992157 -0.003922 -0.090196

vn -1.000000 -0.003922 0.082353

vn -1.000000 -0.003922 0.082353

vn -1.000000 -0.003922 0.082353

vn -1.000000 -0.003922 0.082353

vn -0.003922 1.000000 -0.003922

vn -0.003922 1.000000 -0.003922

vn -0.003922 1.000000 -0.003922

vn -0.003922 1.000000 -0.003922

vn -0.090196 -0.003922 -1.000000

vn -0.090196 -0.003922 -1.000000

vn -0.090196 -0.003922 -1.000000

vn -0.090196 -0.003922 -1.000000

vn -0.003922 -1.000000 -0.003922

vn -0.003922 -1.000000 -0.003922

vn -0.003922 -1.000000 -0.003922

vn -0.003922 -1.000000 -0.003922

vn 0.082353 -0.003922 0.992157

vn 0.082353 -0.003922 0.992157

vn 0.082353 -0.003922 0.992157

vn 0.082353 -0.003922 0.992157

vn 0.858824 -0.003922 -0.505882

vn 0.858824 -0.003922 -0.505882

vn 0.858824 -0.003922 -0.505882

vn 0.858824 -0.003922 -0.505882

vn -0.866667 -0.003922 0.498039

vn -0.866667 -0.003922 0.498039

vn -0.866667 -0.003922 0.498039

vn -0.866667 -0.003922 0.498039

vn -0.003922 1.000000 -0.003922

vn -0.003922 1.000000 -0.003922

vn -0.003922 1.000000 -0.003922

vn -0.003922 1.000000 -0.003922

vn -0.505882 -0.003922 -0.866667

vn -0.505882 -0.003922 -0.866667

vn -0.505882 -0.003922 -0.866667

vn -0.505882 -0.003922 -0.866667

vn -0.003922 -1.000000 -0.003922

vn -0.003922 -1.000000 -0.003922

vn -0.003922 -1.000000 -0.003922

vn -0.003922 -1.000000 -0.003922

vn 0.498039 -0.003922 0.858824

vn 0.498039 -0.003922 0.858824

vn 0.498039 -0.003922 0.858824

vn 0.498039 -0.003922 0.858824

vn -0.003922 1.000000 -0.003922

vn -0.003922 1.000000 -0.003922

vn -0.003922 1.000000 -0.003922

vn -0.003922 1.000000 -0.003922

f 1/1/1 2/2/2 3/3/3

f 4/4/4 3/3/3 2/2/2

f 5/5/5 6/6/6 7/7/7

f 5/5/5 7/7/7 8/8/8

f 9/9/9 10/10/10 11/11/11

f 10/10/10 9/9/9 12/12/12

f 13/13/13 14/14/14 15/15/15

f 14/14/14 13/13/13 16/16/16

f 17/17/17 18/18/18 19/19/19

f 18/18/18 17/17/17 20/20/20

f 21/21/21 22/22/22 23/23/23

f 23/23/23 22/22/22 24/24/24

f 25/25/25 26/26/26 27/27/27

f 28/28/28 27/27/27 26/26/26

f 29/29/29 30/30/30 31/31/31

f 30/30/30 29/29/29 32/32/32

f 33/33/33 34/34/34 35/35/35

f 34/34/34 33/33/33 36/36/36

f 37/37/37 38/38/38 39/39/39

f 38/38/38 37/37/37 40/40/40

f 41/41/41 42/42/42 43/43/43

f 42/42/42 41/41/41 44/44/44

f 45/45/45 46/46/46 47/47/47

f 47/47/47 46/46/46 48/48/48

f 49/49/49 50/50/50 51/51/51

f 50/50/50 49/49/49 52/52/52

f 53/53/53 54/54/54 55/55/55

f 55/55/55 56/56/56 53/53/53

f 57/57/57 58/58/58 59/59/59

f 57/57/57 59/59/59 60/60/60

f 61/61/61 62/62/62 63/63/63

f 62/62/62 61/61/61 64/64/64

f 65/65/65 66/66/66 67/67/67

f 66/66/66 65/65/65 68/68/68

f 69/69/69 70/70/70 71/71/71

f 70/70/70 69/69/69 72/72/72

f 73/73/73 74/74/74 75/75/75

f 74/74/74 73/73/73 76/76/76

f 77/77/77 78/78/78 79/79/79

f 79/79/79 80/80/80 77/77/77

f 81/81/81 82/82/82 83/83/83

f 82/82/82 81/81/81 84/84/84

f 85/85/85 86/86/86 87/87/87

f 86/86/86 85/85/85 88/88/88

f 89/89/89 90/90/90 91/91/91

f 90/90/90 89/89/89 92/92/92

f 93/93/93 94/94/94 95/95/95

f 94/94/94 93/93/93 96/96/96

f 97/97/97 98/98/98 99/99/99

f 99/99/99 98/98/98 100/100/100

f 101/101/101 102/102/102 103/103/103

f 103/103/103 104/104/104 101/101/101

f 105/105/105 106/106/106 107/107/107

f 108/108/108 107/107/107 106/106/106

f 109/109/109 110/110/110 111/111/111

f 110/110/110 109/109/109 112/112/112

f 113/113/113 114/114/114 115/115/115

f 114/114/114 113/113/113 116/116/116

f 117/117/117 118/118/118 119/119/119

f 118/118/118 117/117/117 120/120/120

f 121/121/121 122/122/122 123/123/123

f 123/123/123 122/122/122 124/124/124

f 125/125/125 126/126/126 127/127/127

f 127/127/127 128/128/128 125/125/125

f 129/129/129 130/130/130 131/131/131

f 130/130/130 129/129/129 132/132/132

f 133/133/133 134/134/134 135/135/135

f 134/134/134 133/133/133 136/136/136

f 137/137/137 138/138/138 139/139/139

f 138/138/138 137/137/137 140/140/140

f 141/141/141 142/142/142 143/143/143

f 142/142/142 141/141/141 144/144/144

f 145/145/145 146/146/146 147/147/147

f 146/146/146 145/145/145 148/148/148

