# UnrealEd OBJ exporter (_Internal)



v -15.445759 194.468338 13.567841

v -4.209271 194.468338 -13.567841

v -4.209270 194.468338 13.567841

v -15.445761 194.468338 -13.567841

v -15.445759 236.617538 13.567841

v -4.209271 236.617538 -13.567841

v -15.445761 236.617538 -13.567841

v -4.209270 236.617538 13.567841

v -4.209270 236.617538 13.567841

v -4.209270 194.468338 13.567841

v -4.209271 236.617538 -13.567841

v -4.209271 194.468338 -13.567841

v -15.445761 194.468338 -13.567841

v -15.445761 236.617538 -13.567841

v -4.209271 194.468338 -13.567841

v -4.209271 236.617538 -13.567841

v -15.445759 236.617538 13.567841

v -15.445761 194.468338 -13.567841

v -15.445759 194.468338 13.567841

v -15.445761 236.617538 -13.567841

v -15.445759 236.617538 13.567841

v -15.445759 194.468338 13.567841

v -4.209270 236.617538 13.567841

v -4.209270 194.468338 13.567841

v -3.674823 194.496658 13.567841

v 7.561665 194.496658 -13.567810

v 7.561665 194.496658 13.567841

v -3.674825 194.496658 -13.567810

v -3.674823 236.645859 13.567841

v 7.561665 236.645859 -13.567810

v -3.674825 236.645859 -13.567810

v 7.561665 236.645859 13.567841

v 7.561665 236.645859 13.567841

v 7.561665 194.496658 13.567841

v 7.561665 236.645859 -13.567810

v 7.561665 194.496658 -13.567810

v -3.674825 194.496658 -13.567810

v -3.674825 236.645859 -13.567810

v 7.561665 194.496658 -13.567810

v 7.561665 236.645859 -13.567810

v -3.674823 236.645859 13.567841

v -3.674825 194.496658 -13.567810

v -3.674823 194.496658 13.567841

v -3.674825 236.645859 -13.567810

v -3.674823 236.645859 13.567841

v -3.674823 194.496658 13.567841

v 7.561665 236.645859 13.567841

v 7.561665 194.496658 13.567841

v 7.818905 195.086090 13.567841

v 7.818905 195.086121 -13.567841

v 16.250921 195.086090 13.567841

v 16.250921 195.086121 -13.567841

v 7.818905 237.235306 -13.567841

v 7.818905 237.235291 13.567841

v 16.250921 237.235291 13.567841

v 16.250921 237.235306 -13.567841

v 16.250921 237.235291 13.567841

v 16.250921 195.086121 -13.567841

v 16.250921 237.235306 -13.567841

v 16.250921 195.086090 13.567841

v 7.818905 195.086121 -13.567841

v 7.818905 237.235306 -13.567841

v 16.250921 195.086121 -13.567841

v 16.250921 237.235306 -13.567841

v 7.818905 237.235291 13.567841

v 7.818905 195.086121 -13.567841

v 7.818905 195.086090 13.567841

v 7.818905 237.235306 -13.567841

v 7.818905 237.235291 13.567841

v 7.818905 195.086090 13.567841

v 16.250921 237.235291 13.567841

v 16.250921 195.086090 13.567841

v 19.718290 195.420227 13.567871

v 19.718290 195.420258 -13.567810

v 27.711397 195.420227 13.567871

v 27.711397 195.420258 -13.567810

v 19.718290 237.569458 -13.567810

v 19.718290 237.569427 13.567871

v 27.711397 237.569427 13.567871

v 27.711397 237.569458 -13.567810

v 27.711397 237.569427 13.567871

v 27.711397 195.420258 -13.567810

v 27.711397 237.569458 -13.567810

v 27.711397 195.420227 13.567871

v 19.718290 237.569458 -13.567810

v 27.711397 195.420258 -13.567810

v 19.718290 195.420258 -13.567810

v 27.711397 237.569458 -13.567810

v 19.718290 237.569427 13.567871

v 19.718290 195.420258 -13.567810

v 19.718290 195.420227 13.567871

v 19.718290 237.569458 -13.567810

v 19.718290 237.569427 13.567871

v 19.718290 195.420227 13.567871

v 27.711397 237.569427 13.567871

v 27.711397 195.420227 13.567871

v 57.176479 194.450333 13.567871

v 57.176479 194.450333 -13.567810

v 62.828461 200.102310 13.567871

v 62.828461 200.102325 -13.567810

v 27.372498 224.254318 -13.567810

v 27.372498 224.254318 13.567871

v 33.024475 229.906296 13.567871

v 33.024475 229.906311 -13.567810

v 33.024475 229.906296 13.567871

v 62.828461 200.102310 13.567871

v 33.024475 229.906311 -13.567810

v 62.828461 200.102325 -13.567810

v 57.176479 194.450333 -13.567810

v 27.372498 224.254318 -13.567810

v 62.828461 200.102325 -13.567810

v 33.024475 229.906311 -13.567810

v 27.372498 224.254318 13.567871

v 57.176479 194.450333 -13.567810

v 57.176479 194.450333 13.567871

v 27.372498 224.254318 -13.567810

v 62.828461 200.102310 13.567871

v 33.024475 229.906296 13.567871

v 57.176479 194.450333 13.567871

v 27.372498 224.254318 13.567871

v -31.368690 110.904060 26.784636

v -31.368694 110.904053 -0.351044

v -28.747654 102.889763 26.784636

v -28.747656 102.889755 -0.351044

v 8.692478 124.005859 -0.351044

v 8.692480 124.005867 26.784636

v 11.313520 115.991562 26.784636

v 11.313519 115.991554 -0.351044

v 11.313520 115.991562 26.784636

v -28.747654 102.889763 26.784636

v 11.313519 115.991554 -0.351044

v -28.747656 102.889755 -0.351044

v -31.368694 110.904053 -0.351044

v 8.692478 124.005859 -0.351044

v -28.747656 102.889755 -0.351044

v 11.313519 115.991554 -0.351044

v -31.368690 110.904060 26.784636

v 8.692478 124.005859 -0.351044

v -31.368694 110.904053 -0.351044

v 8.692480 124.005867 26.784636

v -28.747654 102.889763 26.784636

v 8.692480 124.005867 26.784636

v -31.368690 110.904060 26.784636

v 11.313520 115.991562 26.784636

v -38.490631 99.367012 -5.947723

v -29.286240 105.812012 21.187956

v -38.490631 99.367020 21.187956

v -29.286240 105.812004 -5.947723

v -62.666420 133.893616 -5.947723

v -62.666420 133.893616 21.187960

v -53.462025 140.338608 21.187956

v -53.462025 140.338608 -5.947723

v -53.462025 140.338608 21.187956

v -29.286240 105.812012 21.187956

v -53.462025 140.338608 -5.947723

v -29.286240 105.812004 -5.947723

v -38.490631 99.367012 -5.947723

v -62.666420 133.893616 -5.947723

v -29.286240 105.812004 -5.947723

v -53.462025 140.338608 -5.947723

v -38.490631 99.367020 21.187956

v -62.666420 133.893616 -5.947723

v -38.490631 99.367012 -5.947723

v -62.666420 133.893616 21.187960

v -29.286240 105.812012 21.187956

v -62.666420 133.893616 21.187960

v -38.490631 99.367020 21.187956

v -53.462025 140.338608 21.187956



vt 0.758789 0.832031

vt 0.750977 0.850708

vt 0.750977 0.832031

vt 0.758789 0.850708

vt 0.750977 0.938446

vt 0.758301 0.955841

vt 0.750977 0.955841

vt 0.758301 0.938446

vt 0.811035 0.978653

vt 0.833008 0.978653

vt 0.811035 0.992870

vt 0.833008 0.992870

vt 0.833008 0.998757

vt 0.811035 0.998757

vt 0.833008 0.992870

vt 0.811035 0.992870

vt 0.811035 0.972763

vt 0.833008 0.958557

vt 0.833008 0.972763

vt 0.811035 0.958557

vt 0.811035 0.972763

vt 0.833008 0.972763

vt 0.811035 0.978653

vt 0.833008 0.978653

vt 0.858887 0.934387

vt 0.851074 0.953094

vt 0.851074 0.934387

vt 0.858887 0.953094

vt 0.835449 0.843750

vt 0.843262 0.862671

vt 0.835449 0.862671

vt 0.843262 0.843750

vt 0.903809 0.933289

vt 0.924316 0.933289

vt 0.903809 0.946472

vt 0.924316 0.946472

vt 0.924316 0.951935

vt 0.903809 0.951935

vt 0.924316 0.946472

vt 0.903809 0.946472

vt 0.903809 0.927856

vt 0.924316 0.914673

vt 0.924316 0.927856

vt 0.903809 0.914673

vt 0.903809 0.927856

vt 0.924316 0.927856

vt 0.903809 0.933289

vt 0.924316 0.933289

vt 0.945313 0.921265

vt 0.929199 0.921265

vt 0.945313 0.914429

vt 0.929199 0.914429

vt 0.845703 0.775879

vt 0.845703 0.757935

vt 0.853027 0.757935

vt 0.853027 0.775879

vt 0.785156 0.978500

vt 0.807129 0.992725

vt 0.785156 0.992725

vt 0.807129 0.978500

vt 0.807129 0.998612

vt 0.785156 0.998612

vt 0.807129 0.992725

vt 0.785156 0.992725

vt 0.785156 0.972610

vt 0.807129 0.958405

vt 0.807129 0.972610

vt 0.785156 0.958405

vt 0.785156 0.972610

vt 0.807129 0.972610

vt 0.785156 0.978500

vt 0.807129 0.978500

vt 0.770996 0.843994

vt 0.770996 0.861572

vt 0.763672 0.843994

vt 0.763672 0.861572

vt 0.842285 0.954834

vt 0.842285 0.940735

vt 0.848145 0.940735

vt 0.848145 0.954834

vt 0.837402 0.977982

vt 0.859375 0.992203

vt 0.837402 0.992203

vt 0.859375 0.977982

vt 0.837402 0.998092

vt 0.859375 0.992203

vt 0.859375 0.998092

vt 0.837402 0.992203

vt 0.837402 0.972092

vt 0.859375 0.957886

vt 0.859375 0.972092

vt 0.837402 0.957886

vt 0.837402 0.972092

vt 0.859375 0.972092

vt 0.837402 0.977982

vt 0.859375 0.977982

vt 0.770996 0.843994

vt 0.770996 0.861572

vt 0.763672 0.843994

vt 0.763672 0.861572

vt 0.842285 0.954834

vt 0.842285 0.940735

vt 0.848145 0.940735

vt 0.848145 0.954834

vt 0.837402 0.977982

vt 0.859375 0.977982

vt 0.837402 0.992203

vt 0.859375 0.992203

vt 0.859375 0.998092

vt 0.837402 0.998092

vt 0.859375 0.992203

vt 0.837402 0.992203

vt 0.837402 0.972092

vt 0.859375 0.957886

vt 0.859375 0.972092

vt 0.837402 0.957886

vt 0.859375 0.977982

vt 0.837402 0.977982

vt 0.859375 0.972092

vt 0.837402 0.972092

vt 0.945313 0.921265

vt 0.929199 0.921265

vt 0.945313 0.914429

vt 0.929199 0.914429

vt 0.845703 0.775879

vt 0.845703 0.757935

vt 0.853027 0.757935

vt 0.853027 0.775879

vt 0.785156 0.978500

vt 0.807129 0.978500

vt 0.785156 0.992725

vt 0.807129 0.992725

vt 0.807129 0.998612

vt 0.785156 0.998612

vt 0.807129 0.992725

vt 0.785156 0.992725

vt 0.807129 0.972610

vt 0.785156 0.958405

vt 0.807129 0.958405

vt 0.785156 0.972610

vt 0.807129 0.978500

vt 0.785156 0.972610

vt 0.807129 0.972610

vt 0.785156 0.978500

vt 0.758789 0.850708

vt 0.750977 0.832031

vt 0.758789 0.832031

vt 0.750977 0.850708

vt 0.750977 0.955841

vt 0.750977 0.938446

vt 0.758301 0.938446

vt 0.758301 0.955841

vt 0.811035 0.978653

vt 0.833008 0.978653

vt 0.811035 0.992870

vt 0.833008 0.992870

vt 0.833008 0.998757

vt 0.811035 0.998757

vt 0.833008 0.992870

vt 0.811035 0.992870

vt 0.833008 0.972763

vt 0.811035 0.958557

vt 0.833008 0.958557

vt 0.811035 0.972763

vt 0.833008 0.978653

vt 0.811035 0.972763

vt 0.833008 0.972763

vt 0.811035 0.978653



vn -0.003922 -1.000000 -0.003922

vn -0.003922 -1.000000 -0.003922

vn -0.003922 -1.000000 -0.003922

vn -0.003922 -1.000000 -0.003922

vn -0.003922 1.000000 -0.003922

vn -0.003922 1.000000 -0.003922

vn -0.003922 1.000000 -0.003922

vn -0.003922 1.000000 -0.003922

vn 1.000000 -0.003922 -0.003922

vn 1.000000 -0.003922 -0.003922

vn 1.000000 -0.003922 -0.003922

vn 1.000000 -0.003922 -0.003922

vn -0.003922 -0.003922 -1.000000

vn -0.003922 -0.003922 -1.000000

vn -0.003922 -0.003922 -1.000000

vn -0.003922 -0.003922 -1.000000

vn -1.000000 -0.003922 -0.003922

vn -1.000000 -0.003922 -0.003922

vn -1.000000 -0.003922 -0.003922

vn -1.000000 -0.003922 -0.003922

vn -0.003922 -0.003922 1.000000

vn -0.003922 -0.003922 1.000000

vn -0.003922 -0.003922 1.000000

vn -0.003922 -0.003922 1.000000

vn -0.003922 -1.000000 -0.003922

vn -0.003922 -1.000000 -0.003922

vn -0.003922 -1.000000 -0.003922

vn -0.003922 -1.000000 -0.003922

vn -0.003922 1.000000 -0.003922

vn -0.003922 1.000000 -0.003922

vn -0.003922 1.000000 -0.003922

vn -0.003922 1.000000 -0.003922

vn 1.000000 -0.003922 -0.003922

vn 1.000000 -0.003922 -0.003922

vn 1.000000 -0.003922 -0.003922

vn 1.000000 -0.003922 -0.003922

vn -0.003922 -0.003922 -1.000000

vn -0.003922 -0.003922 -1.000000

vn -0.003922 -0.003922 -1.000000

vn -0.003922 -0.003922 -1.000000

vn -1.000000 -0.003922 -0.003922

vn -1.000000 -0.003922 -0.003922

vn -1.000000 -0.003922 -0.003922

vn -1.000000 -0.003922 -0.003922

vn -0.003922 -0.003922 1.000000

vn -0.003922 -0.003922 1.000000

vn -0.003922 -0.003922 1.000000

vn -0.003922 -0.003922 1.000000

vn -0.003922 -1.000000 -0.003922

vn -0.003922 -1.000000 -0.003922

vn -0.003922 -1.000000 -0.003922

vn -0.003922 -1.000000 -0.003922

vn -0.003922 1.000000 -0.003922

vn -0.003922 1.000000 -0.003922

vn -0.003922 1.000000 -0.003922

vn -0.003922 1.000000 -0.003922

vn 1.000000 -0.003922 -0.003922

vn 1.000000 -0.003922 -0.003922

vn 1.000000 -0.003922 -0.003922

vn 1.000000 -0.003922 -0.003922

vn -0.003922 -0.003922 -1.000000

vn -0.003922 -0.003922 -1.000000

vn -0.003922 -0.003922 -1.000000

vn -0.003922 -0.003922 -1.000000

vn -1.000000 -0.003922 -0.003922

vn -1.000000 -0.003922 -0.003922

vn -1.000000 -0.003922 -0.003922

vn -1.000000 -0.003922 -0.003922

vn -0.003922 -0.003922 1.000000

vn -0.003922 -0.003922 1.000000

vn -0.003922 -0.003922 1.000000

vn -0.003922 -0.003922 1.000000

vn -0.003922 -1.000000 -0.003922

vn -0.003922 -1.000000 -0.003922

vn -0.003922 -1.000000 -0.003922

vn -0.003922 -1.000000 -0.003922

vn -0.003922 1.000000 -0.003922

vn -0.003922 1.000000 -0.003922

vn -0.003922 1.000000 -0.003922

vn -0.003922 1.000000 -0.003922

vn 1.000000 -0.003922 -0.003922

vn 1.000000 -0.003922 -0.003922

vn 1.000000 -0.003922 -0.003922

vn 1.000000 -0.003922 -0.003922

vn -0.003922 -0.003922 -1.000000

vn -0.003922 -0.003922 -1.000000

vn -0.003922 -0.003922 -1.000000

vn -0.003922 -0.003922 -1.000000

vn -1.000000 -0.003922 -0.003922

vn -1.000000 -0.003922 -0.003922

vn -1.000000 -0.003922 -0.003922

vn -1.000000 -0.003922 -0.003922

vn -0.003922 -0.003922 1.000000

vn -0.003922 -0.003922 1.000000

vn -0.003922 -0.003922 1.000000

vn -0.003922 -0.003922 1.000000

vn 0.701961 -0.709804 -0.003922

vn 0.701961 -0.709804 -0.003922

vn 0.701961 -0.709804 -0.003922

vn 0.701961 -0.709804 -0.003922

vn -0.709804 0.701961 -0.003922

vn -0.709804 0.701961 -0.003922

vn -0.709804 0.701961 -0.003922

vn -0.709804 0.701961 -0.003922

vn 0.701961 0.701961 -0.003922

vn 0.701961 0.701961 -0.003922

vn 0.701961 0.701961 -0.003922

vn 0.701961 0.701961 -0.003922

vn -0.003922 -0.003922 -1.000000

vn -0.003922 -0.003922 -1.000000

vn -0.003922 -0.003922 -1.000000

vn -0.003922 -0.003922 -1.000000

vn -0.709804 -0.709804 -0.003922

vn -0.709804 -0.709804 -0.003922

vn -0.709804 -0.709804 -0.003922

vn -0.709804 -0.709804 -0.003922

vn -0.003922 -0.003922 1.000000

vn -0.003922 -0.003922 1.000000

vn -0.003922 -0.003922 1.000000

vn -0.003922 -0.003922 1.000000

vn -0.952941 -0.317647 -0.003922

vn -0.952941 -0.317647 -0.003922

vn -0.952941 -0.317647 -0.003922

vn -0.952941 -0.317647 -0.003922

vn 0.945098 0.309804 -0.003922

vn 0.945098 0.309804 -0.003922

vn 0.945098 0.309804 -0.003922

vn 0.945098 0.309804 -0.003922

vn 0.309804 -0.952941 -0.003922

vn 0.309804 -0.952941 -0.003922

vn 0.309804 -0.952941 -0.003922

vn 0.309804 -0.952941 -0.003922

vn -0.003922 -0.003922 -1.000000

vn -0.003922 -0.003922 -1.000000

vn -0.003922 -0.003922 -1.000000

vn -0.003922 -0.003922 -1.000000

vn -0.317647 0.945098 -0.003922

vn -0.317647 0.945098 -0.003922

vn -0.317647 0.945098 -0.003922

vn -0.317647 0.945098 -0.003922

vn -0.003922 -0.003922 1.000000

vn -0.003922 -0.003922 1.000000

vn -0.003922 -0.003922 1.000000

vn -0.003922 -0.003922 1.000000

vn 0.568628 -0.819608 -0.003922

vn 0.568628 -0.819608 -0.003922

vn 0.568628 -0.819608 -0.003922

vn 0.568628 -0.819608 -0.003922

vn -0.576471 0.811765 -0.003922

vn -0.576471 0.811765 -0.003922

vn -0.576471 0.811765 -0.003922

vn -0.576471 0.811765 -0.003922

vn 0.811765 0.568628 -0.003922

vn 0.811765 0.568628 -0.003922

vn 0.811765 0.568628 -0.003922

vn 0.811765 0.568628 -0.003922

vn -0.003922 -0.003922 -1.000000

vn -0.003922 -0.003922 -1.000000

vn -0.003922 -0.003922 -1.000000

vn -0.003922 -0.003922 -1.000000

vn -0.819608 -0.576471 -0.003922

vn -0.819608 -0.576471 -0.003922

vn -0.819608 -0.576471 -0.003922

vn -0.819608 -0.576471 -0.003922

vn -0.003922 -0.003922 1.000000

vn -0.003922 -0.003922 1.000000

vn -0.003922 -0.003922 1.000000

vn -0.003922 -0.003922 1.000000

f 1/1/1 2/2/2 3/3/3

f 2/2/2 1/1/1 4/4/4

f 5/5/5 6/6/6 7/7/7

f 6/6/6 5/5/5 8/8/8

f 9/9/9 10/10/10 11/11/11

f 10/10/10 12/12/12 11/11/11

f 13/13/13 14/14/14 15/15/15

f 15/15/15 14/14/14 16/16/16

f 17/17/17 18/18/18 19/19/19

f 18/18/18 17/17/17 20/20/20

f 21/21/21 22/22/22 23/23/23

f 23/23/23 22/22/22 24/24/24

f 25/25/25 26/26/26 27/27/27

f 26/26/26 25/25/25 28/28/28

f 29/29/29 30/30/30 31/31/31

f 30/30/30 29/29/29 32/32/32

f 33/33/33 34/34/34 35/35/35

f 34/34/34 36/36/36 35/35/35

f 37/37/37 38/38/38 39/39/39

f 39/39/39 38/38/38 40/40/40

f 41/41/41 42/42/42 43/43/43

f 42/42/42 41/41/41 44/44/44

f 45/45/45 46/46/46 47/47/47

f 47/47/47 46/46/46 48/48/48

f 49/49/49 50/50/50 51/51/51

f 51/51/51 50/50/50 52/52/52

f 53/53/53 54/54/54 55/55/55

f 55/55/55 56/56/56 53/53/53

f 57/57/57 58/58/58 59/59/59

f 58/58/58 57/57/57 60/60/60

f 61/61/61 62/62/62 63/63/63

f 63/63/63 62/62/62 64/64/64

f 65/65/65 66/66/66 67/67/67

f 66/66/66 65/65/65 68/68/68

f 69/69/69 70/70/70 71/71/71

f 71/71/71 70/70/70 72/72/72

f 73/73/73 74/74/74 75/75/75

f 75/75/75 74/74/74 76/76/76

f 77/77/77 78/78/78 79/79/79

f 79/79/79 80/80/80 77/77/77

f 81/81/81 82/82/82 83/83/83

f 82/82/82 81/81/81 84/84/84

f 85/85/85 86/86/86 87/87/87

f 86/86/86 85/85/85 88/88/88

f 89/89/89 90/90/90 91/91/91

f 90/90/90 89/89/89 92/92/92

f 93/93/93 94/94/94 95/95/95

f 95/95/95 94/94/94 96/96/96

f 97/97/97 98/98/98 99/99/99

f 99/99/99 98/98/98 100/100/100

f 101/101/101 102/102/102 103/103/103

f 103/103/103 104/104/104 101/101/101

f 105/105/105 106/106/106 107/107/107

f 106/106/106 108/108/108 107/107/107

f 109/109/109 110/110/110 111/111/111

f 112/112/112 111/111/111 110/110/110

f 113/113/113 114/114/114 115/115/115

f 114/114/114 113/113/113 116/116/116

f 117/117/117 118/118/118 119/119/119

f 119/119/119 118/118/118 120/120/120

f 121/121/121 122/122/122 123/123/123

f 123/123/123 122/122/122 124/124/124

f 125/125/125 126/126/126 127/127/127

f 127/127/127 128/128/128 125/125/125

f 129/129/129 130/130/130 131/131/131

f 130/130/130 132/132/132 131/131/131

f 133/133/133 134/134/134 135/135/135

f 136/136/136 135/135/135 134/134/134

f 137/137/137 138/138/138 139/139/139

f 138/138/138 137/137/137 140/140/140

f 141/141/141 142/142/142 143/143/143

f 142/142/142 141/141/141 144/144/144

f 145/145/145 146/146/146 147/147/147

f 146/146/146 145/145/145 148/148/148

f 149/149/149 150/150/150 151/151/151

f 151/151/151 152/152/152 149/149/149

f 153/153/153 154/154/154 155/155/155

f 154/154/154 156/156/156 155/155/155

f 157/157/157 158/158/158 159/159/159

f 160/160/160 159/159/159 158/158/158

f 161/161/161 162/162/162 163/163/163

f 162/162/162 161/161/161 164/164/164

f 165/165/165 166/166/166 167/167/167

f 166/166/166 165/165/165 168/168/168

