# UnrealEd OBJ exporter (_Internal)



v -33.778076 0.519302 11.133362

v -33.778076 0.519302 -18.291504

v -29.082520 -0.738861 11.133301

v -29.082520 -0.738861 -18.291504

v -18.551514 38.563995 11.133362

v -23.246826 39.822159 -18.291504

v -23.246826 39.822144 11.133362

v -18.551514 38.563995 -18.291504

v -23.246826 39.822144 11.133362

v -33.778076 0.519302 -18.291504

v -33.778076 0.519302 11.133362

v -23.246826 39.822159 -18.291504

v -23.246826 39.822144 11.133362

v -33.778076 0.519302 11.133362

v -18.551514 38.563995 11.133362

v -29.082520 -0.738861 11.133301

v -18.551514 38.563995 11.133362

v -29.082520 -0.738861 11.133301

v -18.551514 38.563995 -18.291504

v -29.082520 -0.738861 -18.291504

v -33.778076 0.519302 -18.291504

v -18.551514 38.563995 -18.291504

v -29.082520 -0.738861 -18.291504

v -23.246826 39.822159 -18.291504

v 23.696777 27.802597 13.567871

v 23.696777 39.039078 -13.567810

v 23.696777 39.039093 13.567871

v 23.696777 27.802597 -13.567810

v -18.452393 27.802597 13.567871

v -18.452393 39.039078 -13.567810

v -18.452393 27.802597 -13.567810

v -18.452393 39.039093 13.567871

v -18.452393 39.039093 13.567871

v 23.696777 39.039093 13.567871

v -18.452393 39.039078 -13.567810

v 23.696777 39.039078 -13.567810

v -18.452393 27.802597 -13.567810

v 23.696777 39.039078 -13.567810

v 23.696777 27.802597 -13.567810

v -18.452393 39.039078 -13.567810

v -18.452393 27.802597 13.567871

v 23.696777 27.802597 -13.567810

v 23.696777 27.802597 13.567871

v -18.452393 27.802597 -13.567810

v -18.452393 39.039093 13.567871

v 23.696777 27.802597 13.567871

v 23.696777 39.039093 13.567871

v -18.452393 27.802597 13.567871

v 30.874023 19.488617 11.679443

v 28.508789 27.920609 -15.352966

v 30.874023 27.920609 11.679443

v 28.508789 19.488571 -15.352966

v -11.114990 19.488586 15.353027

v -13.479980 27.920609 -11.679382

v -13.479980 19.488571 -11.679382

v -11.114990 27.920609 15.353027

v 28.508789 27.920609 -15.352966

v -11.114990 27.920609 15.353027

v 30.874023 27.920609 11.679443

v -13.479980 27.920609 -11.679382

v -13.479980 19.488571 -11.679382

v 28.508789 27.920609 -15.352966

v 28.508789 19.488571 -15.352966

v -13.479980 27.920609 -11.679382

v -11.114990 19.488586 15.353027

v 28.508789 19.488571 -15.352966

v 30.874023 19.488617 11.679443

v -13.479980 19.488571 -11.679382

v -11.114990 27.920609 15.353027

v 30.874023 19.488617 11.679443

v 30.874023 27.920609 11.679443

v -11.114990 19.488586 15.353027

v 29.066162 8.207123 17.021301

v 33.778076 19.443619 -9.702087

v 29.066162 19.443634 17.021301

v 33.778076 8.207123 -9.702087

v -7.730713 8.207108 -17.021240

v -12.442871 8.207108 9.702148

v -12.442871 19.443588 9.702148

v -7.730713 19.443588 -17.021240

v -12.442871 19.443588 9.702148

v 33.778076 19.443619 -9.702087

v -7.730713 19.443588 -17.021240

v 29.066162 19.443634 17.021301

v 33.778076 8.207123 -9.702087

v -7.730713 19.443588 -17.021240

v 33.778076 19.443619 -9.702087

v -7.730713 8.207108 -17.021240

v -12.442871 8.207108 9.702148

v 33.778076 8.207123 -9.702087

v 29.066162 8.207123 17.021301

v -7.730713 8.207108 -17.021240

v -12.442871 19.443588 9.702148

v 29.066162 8.207123 17.021301

v 29.066162 19.443634 17.021301

v -12.442871 8.207108 9.702148

v -16.137207 7.993088 3.390137

v -4.669189 -0.000000 -21.203125

v -16.137207 -0.000015 3.390137

v -4.669189 7.993088 -21.203125

v 22.062988 7.993073 21.203125

v 33.531006 -0.000015 -3.390137

v 33.531006 7.993088 -3.390137

v 22.062988 -0.000015 21.203125

v 22.062988 7.993073 21.203125

v -4.669189 7.993088 -21.203125

v -16.137207 7.993088 3.390137

v 33.531006 7.993088 -3.390137

v -16.137207 -0.000015 3.390137

v 22.062988 7.993073 21.203125

v -16.137207 7.993088 3.390137

v 22.062988 -0.000015 21.203125

v -4.669189 -0.000000 -21.203125

v 22.062988 -0.000015 21.203125

v -16.137207 -0.000015 3.390137

v 33.531006 -0.000015 -3.390137

v -4.669189 7.993088 -21.203125

v 33.531006 7.993088 -3.390137

v -4.669189 -0.000000 -21.203125

v 33.531006 -0.000015 -3.390137



vt 0.874023 0.925842

vt 0.863770 0.925842

vt 0.874023 0.924133

vt 0.863770 0.924133

vt 0.874023 0.942261

vt 0.863770 0.940491

vt 0.874023 0.940491

vt 0.863770 0.942261

vt 0.874023 0.940491

vt 0.863770 0.925842

vt 0.874023 0.925842

vt 0.863770 0.940491

vt 0.874023 0.940491

vt 0.874023 0.925842

vt 0.875977 0.940491

vt 0.875977 0.925842

vt 0.875977 0.940491

vt 0.875977 0.925842

vt 0.886719 0.940491

vt 0.886719 0.925842

vt 0.863770 0.925842

vt 0.861816 0.940491

vt 0.861816 0.925842

vt 0.863770 0.940491

vt 0.758789 0.832031

vt 0.750977 0.850708

vt 0.750977 0.832031

vt 0.758789 0.850708

vt 0.750977 0.938446

vt 0.758301 0.955841

vt 0.750977 0.955841

vt 0.758301 0.938446

vt 0.811035 0.978653

vt 0.833008 0.978653

vt 0.811035 0.992870

vt 0.833008 0.992870

vt 0.811035 0.998757

vt 0.833008 0.992870

vt 0.833008 0.998757

vt 0.811035 0.992870

vt 0.811035 0.972763

vt 0.833008 0.958557

vt 0.833008 0.972763

vt 0.811035 0.958557

vt 0.811035 0.978653

vt 0.833008 0.972763

vt 0.833008 0.978653

vt 0.811035 0.972763

vt 0.945313 0.921265

vt 0.929199 0.914429

vt 0.945313 0.914429

vt 0.929199 0.921265

vt 0.845703 0.757935

vt 0.853027 0.775879

vt 0.845703 0.775879

vt 0.853027 0.757935

vt 0.807129 0.992725

vt 0.785156 0.978500

vt 0.807129 0.978500

vt 0.785156 0.992725

vt 0.785156 0.998612

vt 0.807129 0.992725

vt 0.807129 0.998612

vt 0.785156 0.992725

vt 0.785156 0.972610

vt 0.807129 0.958405

vt 0.807129 0.972610

vt 0.785156 0.958405

vt 0.785156 0.978500

vt 0.807129 0.972610

vt 0.807129 0.978500

vt 0.785156 0.972610

vt 0.858887 0.934387

vt 0.851074 0.953094

vt 0.851074 0.934387

vt 0.858887 0.953094

vt 0.835449 0.862671

vt 0.835449 0.843750

vt 0.843262 0.843750

vt 0.843262 0.862671

vt 0.903809 0.933289

vt 0.924316 0.946472

vt 0.903809 0.946472

vt 0.924316 0.933289

vt 0.924316 0.951935

vt 0.903809 0.946472

vt 0.924316 0.946472

vt 0.903809 0.951935

vt 0.903809 0.927856

vt 0.924316 0.914673

vt 0.924316 0.927856

vt 0.903809 0.914673

vt 0.903809 0.933289

vt 0.924316 0.927856

vt 0.924316 0.933289

vt 0.903809 0.927856

vt 0.763672 0.861572

vt 0.770996 0.843994

vt 0.770996 0.861572

vt 0.763672 0.843994

vt 0.848145 0.954834

vt 0.842285 0.940735

vt 0.848145 0.940735

vt 0.842285 0.954834

vt 0.837402 0.992203

vt 0.859375 0.977982

vt 0.859375 0.992203

vt 0.837402 0.977982

vt 0.859375 0.998092

vt 0.837402 0.992203

vt 0.859375 0.992203

vt 0.837402 0.998092

vt 0.859375 0.972092

vt 0.837402 0.957886

vt 0.859375 0.957886

vt 0.837402 0.972092

vt 0.859375 0.977982

vt 0.837402 0.977982

vt 0.859375 0.972092

vt 0.837402 0.972092



vn -0.262745 -0.968627 -0.003922

vn -0.262745 -0.968627 -0.003922

vn -0.262745 -0.968627 -0.003922

vn -0.262745 -0.968627 -0.003922

vn 0.254902 0.960784 -0.003922

vn 0.254902 0.960784 -0.003922

vn 0.254902 0.960784 -0.003922

vn 0.254902 0.960784 -0.003922

vn -0.968627 0.254902 -0.003922

vn -0.968627 0.254902 -0.003922

vn -0.968627 0.254902 -0.003922

vn -0.968627 0.254902 -0.003922

vn -0.003922 -0.003922 1.000000

vn -0.003922 -0.003922 1.000000

vn -0.003922 -0.003922 1.000000

vn -0.003922 -0.003922 1.000000

vn 0.960784 -0.262745 -0.003922

vn 0.960784 -0.262745 -0.003922

vn 0.960784 -0.262745 -0.003922

vn 0.960784 -0.262745 -0.003922

vn -0.003922 -0.003922 -1.000000

vn -0.003922 -0.003922 -1.000000

vn -0.003922 -0.003922 -1.000000

vn -0.003922 -0.003922 -1.000000

vn 1.000000 -0.003922 -0.003922

vn 1.000000 -0.003922 -0.003922

vn 1.000000 -0.003922 -0.003922

vn 1.000000 -0.003922 -0.003922

vn -1.000000 -0.003922 -0.003922

vn -1.000000 -0.003922 -0.003922

vn -1.000000 -0.003922 -0.003922

vn -1.000000 -0.003922 -0.003922

vn -0.003922 1.000000 -0.003922

vn -0.003922 1.000000 -0.003922

vn -0.003922 1.000000 -0.003922

vn -0.003922 1.000000 -0.003922

vn -0.003922 -0.003922 -1.000000

vn -0.003922 -0.003922 -1.000000

vn -0.003922 -0.003922 -1.000000

vn -0.003922 -0.003922 -1.000000

vn -0.003922 -1.000000 -0.003922

vn -0.003922 -1.000000 -0.003922

vn -0.003922 -1.000000 -0.003922

vn -0.003922 -1.000000 -0.003922

vn -0.003922 -0.003922 1.000000

vn -0.003922 -0.003922 1.000000

vn -0.003922 -0.003922 1.000000

vn -0.003922 -0.003922 1.000000

vn 0.992157 -0.003922 -0.090196

vn 0.992157 -0.003922 -0.090196

vn 0.992157 -0.003922 -0.090196

vn 0.992157 -0.003922 -0.090196

vn -1.000000 -0.003922 0.082353

vn -1.000000 -0.003922 0.082353

vn -1.000000 -0.003922 0.082353

vn -1.000000 -0.003922 0.082353

vn -0.003922 1.000000 -0.003922

vn -0.003922 1.000000 -0.003922

vn -0.003922 1.000000 -0.003922

vn -0.003922 1.000000 -0.003922

vn -0.090196 -0.003922 -1.000000

vn -0.090196 -0.003922 -1.000000

vn -0.090196 -0.003922 -1.000000

vn -0.090196 -0.003922 -1.000000

vn -0.003922 -1.000000 -0.003922

vn -0.003922 -1.000000 -0.003922

vn -0.003922 -1.000000 -0.003922

vn -0.003922 -1.000000 -0.003922

vn 0.082353 -0.003922 0.992157

vn 0.082353 -0.003922 0.992157

vn 0.082353 -0.003922 0.992157

vn 0.082353 -0.003922 0.992157

vn 0.984314 -0.003922 0.168628

vn 0.984314 -0.003922 0.168628

vn 0.984314 -0.003922 0.168628

vn 0.984314 -0.003922 0.168628

vn -0.992157 -0.003922 -0.176471

vn -0.992157 -0.003922 -0.176471

vn -0.992157 -0.003922 -0.176471

vn -0.992157 -0.003922 -0.176471

vn -0.003922 1.000000 -0.003922

vn -0.003922 1.000000 -0.003922

vn -0.003922 1.000000 -0.003922

vn -0.003922 1.000000 -0.003922

vn 0.168628 -0.003922 -0.992157

vn 0.168628 -0.003922 -0.992157

vn 0.168628 -0.003922 -0.992157

vn 0.168628 -0.003922 -0.992157

vn -0.003922 -1.000000 -0.003922

vn -0.003922 -1.000000 -0.003922

vn -0.003922 -1.000000 -0.003922

vn -0.003922 -1.000000 -0.003922

vn -0.176471 -0.003922 0.984314

vn -0.176471 -0.003922 0.984314

vn -0.176471 -0.003922 0.984314

vn -0.176471 -0.003922 0.984314

vn -0.913725 -0.003922 -0.427451

vn -0.913725 -0.003922 -0.427451

vn -0.913725 -0.003922 -0.427451

vn -0.913725 -0.003922 -0.427451

vn 0.905882 -0.003922 0.419608

vn 0.905882 -0.003922 0.419608

vn 0.905882 -0.003922 0.419608

vn 0.905882 -0.003922 0.419608

vn -0.003922 1.000000 -0.003922

vn -0.003922 1.000000 -0.003922

vn -0.003922 1.000000 -0.003922

vn -0.003922 1.000000 -0.003922

vn -0.427451 -0.003922 0.905882

vn -0.427451 -0.003922 0.905882

vn -0.427451 -0.003922 0.905882

vn -0.427451 -0.003922 0.905882

vn -0.003922 -1.000000 -0.003922

vn -0.003922 -1.000000 -0.003922

vn -0.003922 -1.000000 -0.003922

vn -0.003922 -1.000000 -0.003922

vn 0.419608 -0.003922 -0.913725

vn 0.419608 -0.003922 -0.913725

vn 0.419608 -0.003922 -0.913725

vn 0.419608 -0.003922 -0.913725

f 1/1/1 2/2/2 3/3/3

f 3/3/3 2/2/2 4/4/4

f 5/5/5 6/6/6 7/7/7

f 6/6/6 5/5/5 8/8/8

f 9/9/9 10/10/10 11/11/11

f 10/10/10 9/9/9 12/12/12

f 13/13/13 14/14/14 15/15/15

f 15/15/15 14/14/14 16/16/16

f 17/17/17 18/18/18 19/19/19

f 18/18/18 20/20/20 19/19/19

f 21/21/21 22/22/22 23/23/23

f 22/22/22 21/21/21 24/24/24

f 25/25/25 26/26/26 27/27/27

f 26/26/26 25/25/25 28/28/28

f 29/29/29 30/30/30 31/31/31

f 30/30/30 29/29/29 32/32/32

f 33/33/33 34/34/34 35/35/35

f 34/34/34 36/36/36 35/35/35

f 37/37/37 38/38/38 39/39/39

f 38/38/38 37/37/37 40/40/40

f 41/41/41 42/42/42 43/43/43

f 42/42/42 41/41/41 44/44/44

f 45/45/45 46/46/46 47/47/47

f 46/46/46 45/45/45 48/48/48

f 49/49/49 50/50/50 51/51/51

f 50/50/50 49/49/49 52/52/52

f 53/53/53 54/54/54 55/55/55

f 54/54/54 53/53/53 56/56/56

f 57/57/57 58/58/58 59/59/59

f 58/58/58 57/57/57 60/60/60

f 61/61/61 62/62/62 63/63/63

f 62/62/62 61/61/61 64/64/64

f 65/65/65 66/66/66 67/67/67

f 66/66/66 65/65/65 68/68/68

f 69/69/69 70/70/70 71/71/71

f 70/70/70 69/69/69 72/72/72

f 73/73/73 74/74/74 75/75/75

f 74/74/74 73/73/73 76/76/76

f 77/77/77 78/78/78 79/79/79

f 79/79/79 80/80/80 77/77/77

f 81/81/81 82/82/82 83/83/83

f 82/82/82 81/81/81 84/84/84

f 85/85/85 86/86/86 87/87/87

f 86/86/86 85/85/85 88/88/88

f 89/89/89 90/90/90 91/91/91

f 90/90/90 89/89/89 92/92/92

f 93/93/93 94/94/94 95/95/95

f 94/94/94 93/93/93 96/96/96

f 97/97/97 98/98/98 99/99/99

f 98/98/98 97/97/97 100/100/100

f 101/101/101 102/102/102 103/103/103

f 102/102/102 101/101/101 104/104/104

f 105/105/105 106/106/106 107/107/107

f 106/106/106 105/105/105 108/108/108

f 109/109/109 110/110/110 111/111/111

f 110/110/110 109/109/109 112/112/112

f 113/113/113 114/114/114 115/115/115

f 114/114/114 113/113/113 116/116/116

f 117/117/117 118/118/118 119/119/119

f 120/120/120 119/119/119 118/118/118

