# UnrealEd OBJ exporter (_Internal)



v 3.301147 33.215385 12.925716

v 1.476074 36.090370 13.589984

v -2.880859 38.913536 15.175779

v 9.483154 38.913536 10.675646

v 5.126190 36.090370 12.261446

v 3.301147 33.215385 12.925716

v -11.114746 33.215385 -26.681576

v -9.289673 36.090370 -27.345835

v -4.932739 38.913528 -28.931644

v -17.296738 38.913528 -24.431517

v -12.939805 36.090370 -26.017298

v -23.478731 39.029037 -22.181454

v -35.842743 33.215385 -17.681324

v -29.660734 37.180058 -19.931385

v -35.333374 35.012920 -17.866709

v -13.567841 -5.618243 21.074600

v 13.567810 -5.618243 21.074600

v -13.567841 5.618245 21.074600

v 13.567810 5.618245 21.074600

v 13.567810 -5.618245 -21.074598

v -13.567841 -5.618245 -21.074598

v -13.567841 5.618242 -21.074598

v 13.567810 5.618242 -21.074598

v 13.567810 5.618245 21.074600

v 13.567810 5.618242 -21.074598

v -13.567841 5.618245 21.074600

v -13.567841 5.618242 -21.074598

v 13.567810 -5.618243 21.074600

v 13.567810 5.618242 -21.074598

v 13.567810 5.618245 21.074600

v 13.567810 -5.618245 -21.074598

v -13.567841 -5.618243 21.074600

v -13.567841 -5.618245 -21.074598

v 13.567810 -5.618243 21.074600

v 13.567810 -5.618245 -21.074598

v -13.567841 5.618245 21.074600

v -13.567841 5.618242 -21.074598

v -13.567841 -5.618243 21.074600

v -13.567841 -5.618245 -21.074598

v -5.982162 -1.366699 29.364122

v -5.982162 -1.366700 -0.032091

v -10.596757 -1.366699 29.364122

v -10.596757 -1.366700 -0.032091

v -30.407761 5.600616 7.154045

v -9.620636 5.600616 24.596510

v -30.407761 13.593722 7.154044

v -9.620636 13.593722 24.596510

v 17.472351 5.600614 -7.691648

v -3.314789 5.600614 -25.134111

v -3.314789 13.593719 -25.134111

v 17.472351 13.593721 -7.691649

v -3.314789 13.593719 -25.134111

v -9.620636 13.593722 24.596510

v 17.472351 13.593721 -7.691649

v -30.407761 13.593722 7.154044

v 17.472351 5.600614 -7.691648

v -9.620636 13.593722 24.596510

v -9.620636 5.600616 24.596510

v 17.472351 13.593721 -7.691649

v -9.620636 5.600616 24.596510

v -3.314789 5.600614 -25.134111

v 17.472351 5.600614 -7.691648

v -30.407761 5.600616 7.154045

v -3.314789 13.593719 -25.134111

v -30.407761 5.600616 7.154045

v -30.407761 13.593722 7.154044

v -3.314789 5.600614 -25.134111

v 1.309357 8.784040 -24.873194

v -4.996490 8.784043 24.857447

v 22.096497 8.784042 -7.430712

v -25.783630 8.784043 7.414964

v 6.278992 13.769102 17.382908

v 27.066162 13.769102 -0.059565

v 6.278992 22.201115 17.382908

v 27.066162 22.201117 -0.059566

v -0.026855 13.769099 -32.347725

v -20.813980 13.769100 -14.905253

v -20.813980 22.201113 -14.905253

v -0.026855 22.201115 -32.347729

v 6.278992 22.201115 17.382908

v -0.026855 22.201115 -32.347729

v -20.813980 22.201113 -14.905253

v 27.066162 22.201117 -0.059566

v 27.066162 13.769102 -0.059565

v -0.026855 13.769099 -32.347725

v 27.066162 22.201117 -0.059566

v -0.026855 22.201115 -32.347729

v -0.026855 13.769099 -32.347725

v 6.278992 13.769102 17.382908

v -20.813980 13.769100 -14.905253

v 27.066162 13.769102 -0.059565

v 6.278992 22.201115 17.382908

v -20.813980 22.201113 -14.905253

v 6.278992 13.769102 17.382908

v -20.813980 13.769100 -14.905253

v -18.316803 19.200912 -24.178814

v 5.859009 19.200914 10.347783

v 3.911438 19.200912 -39.743191

v 28.087248 19.200914 -5.216609

v -16.456451 22.028727 11.457414

v 10.679230 22.028727 11.457414

v -16.456451 33.265213 11.457414

v 10.679230 33.265213 11.457414

v 10.679230 22.028725 -30.691782

v -16.456451 22.028725 -30.691782

v -16.456451 33.265213 -30.691782

v 10.679230 33.265213 -30.691782

v 10.679230 33.265213 11.457414

v 10.679230 33.265213 -30.691782

v -16.456451 33.265213 11.457414

v -16.456451 33.265213 -30.691782

v 10.679230 22.028727 11.457414

v 10.679230 33.265213 -30.691782

v 10.679230 33.265213 11.457414

v 10.679230 22.028725 -30.691782

v -16.456451 22.028727 11.457414

v -16.456451 22.028725 -30.691782

v 10.679230 22.028727 11.457414

v 10.679230 22.028725 -30.691782

v -16.456451 33.265213 -30.691782

v -16.456451 22.028727 11.457414

v -16.456451 33.265213 11.457414

v -16.456451 22.028725 -30.691782

v 11.191162 28.370571 24.462082

v -17.235931 21.903488 25.709257

v 8.975128 21.903488 32.732483

v -15.019897 28.370571 17.438854

v 11.191162 28.370571 24.462082

v -12.825165 31.240236 9.248030

v 14.409729 31.240236 12.450257

v -6.326935 31.240238 -15.003749

v 19.884125 31.240238 -7.980522

v 28.029142 33.215385 3.925459

v 13.103882 35.012920 -35.496426

v 27.519775 35.012920 4.110857

v 13.613251 33.215385 -35.681831

v -20.917496 35.012920 21.740572

v -35.842743 33.215385 -17.681324

v -21.426863 33.215385 21.925970

v -35.333374 35.012920 -17.866709

v 28.029142 33.215385 3.925459

v 27.519775 35.012920 4.110857

v 21.847139 37.180061 6.175524

v 15.665161 39.029037 8.425581

v 3.301147 33.215385 12.925716

v 28.029142 33.215385 3.925459

v 9.483154 38.913536 10.675646

v 7.431274 37.180058 -33.431763

v 13.103882 35.012920 -35.496426

v 13.613251 33.215385 -35.681831

v 1.249268 39.029034 -31.181715

v -11.114746 33.215385 -26.681576

v 13.613251 33.215385 -35.681831

v -4.932739 38.913528 -28.931644

v 3.301147 33.215385 12.925716

v 3.301147 34.665218 12.925714

v 1.476074 36.090370 13.589984

v 5.126190 36.090370 12.261446

v -12.939805 36.090370 -26.017298

v -11.114746 34.665215 -26.681576

v -11.114746 33.215385 -26.681576

v -9.289673 36.090370 -27.345835

v -15.244873 37.180061 19.675905

v -20.917496 35.012920 21.740572

v -21.426863 33.215385 21.925970

v -9.062866 39.029037 17.425838

v 3.301147 33.215385 12.925716

v -2.880859 38.913536 15.175779

v -11.114746 33.215385 -26.681576

v -21.426863 33.215385 21.925970

v -35.842743 33.215385 -17.681324

v 3.301147 33.215385 12.925716

v 13.613251 33.215385 -35.681831

v 28.029142 33.215385 3.925459

v -15.244873 37.180061 19.675905

v -35.333374 35.012920 -17.866709

v -20.917496 35.012920 21.740572

v -29.660734 37.180058 -19.931385

v -9.062866 39.029037 17.425838

v -23.478731 39.029037 -22.181454

v -17.296738 38.913528 -24.431517

v -2.880859 38.913536 15.175779

v -12.939805 36.090370 -26.017298

v 1.476074 36.090370 13.589984

v 3.301147 34.665218 12.925714

v -11.114746 34.665215 -26.681576

v 13.103882 35.012920 -35.496426

v 21.847139 37.180061 6.175524

v 27.519775 35.012920 4.110857

v 7.431274 37.180058 -33.431763

v 15.665161 39.029037 8.425581

v 1.249268 39.029034 -31.181715

v 9.483154 38.913536 10.675646

v -4.932739 38.913528 -28.931644

v -9.289673 36.090370 -27.345835

v 5.126190 36.090370 12.261446

v 3.301147 34.665218 12.925714

v -11.114746 34.665215 -26.681576



vt 0.846191 0.854248

vt 0.848633 0.855835

vt 0.850586 0.859619

vt 0.851074 0.849121

vt 0.848633 0.852783

vt 0.846191 0.854248

vt 0.754395 0.765259

vt 0.752930 0.764282

vt 0.751953 0.762085

vt 0.751953 0.768433

vt 0.752930 0.766113

vt 0.751953 0.771606

vt 0.754395 0.777954

vt 0.752441 0.774780

vt 0.753418 0.777588

vt 0.858887 0.934387

vt 0.858887 0.953094

vt 0.851074 0.934387

vt 0.851074 0.953094

vt 0.835449 0.862671

vt 0.835449 0.843750

vt 0.843262 0.843750

vt 0.843262 0.862671

vt 0.924316 0.946472

vt 0.903809 0.946472

vt 0.924316 0.933289

vt 0.903809 0.933289

vt 0.924316 0.951935

vt 0.903809 0.946472

vt 0.924316 0.946472

vt 0.903809 0.951935

vt 0.924316 0.927856

vt 0.903809 0.927856

vt 0.924316 0.914673

vt 0.903809 0.914673

vt 0.924316 0.933289

vt 0.903809 0.933289

vt 0.924316 0.927856

vt 0.903809 0.927856

vt 0.995117 0.876831

vt 0.995117 0.856445

vt 0.997070 0.876831

vt 0.997070 0.856445

vt 0.770996 0.843994

vt 0.770996 0.861572

vt 0.763672 0.843994

vt 0.763672 0.861572

vt 0.842285 0.954834

vt 0.842285 0.940735

vt 0.848145 0.940735

vt 0.848145 0.954834

vt 0.837402 0.977982

vt 0.859375 0.992203

vt 0.837402 0.992203

vt 0.859375 0.977982

vt 0.837402 0.998092

vt 0.859375 0.992203

vt 0.859375 0.998092

vt 0.837402 0.992203

vt 0.859375 0.957886

vt 0.837402 0.972092

vt 0.837402 0.957886

vt 0.859375 0.972092

vt 0.837402 0.977982

vt 0.859375 0.972092

vt 0.859375 0.977982

vt 0.837402 0.972092

vt 0.888184 0.947235

vt 0.901367 0.926819

vt 0.901367 0.947235

vt 0.888184 0.926819

vt 0.945313 0.921265

vt 0.929199 0.921265

vt 0.945313 0.914429

vt 0.929199 0.914429

vt 0.845703 0.775879

vt 0.845703 0.757935

vt 0.853027 0.757935

vt 0.853027 0.775879

vt 0.807129 0.978500

vt 0.785156 0.992725

vt 0.785156 0.978500

vt 0.807129 0.992725

vt 0.807129 0.998612

vt 0.785156 0.998612

vt 0.807129 0.992725

vt 0.785156 0.992725

vt 0.785156 0.958405

vt 0.807129 0.972610

vt 0.785156 0.972610

vt 0.807129 0.958405

vt 0.807129 0.978500

vt 0.785156 0.978500

vt 0.807129 0.972610

vt 0.785156 0.972610

vt 0.888184 0.947235

vt 0.888184 0.926819

vt 0.901367 0.947235

vt 0.901367 0.926819

vt 0.758789 0.832031

vt 0.758789 0.850708

vt 0.750977 0.832031

vt 0.750977 0.850708

vt 0.750977 0.955841

vt 0.750977 0.938446

vt 0.758301 0.938446

vt 0.758301 0.955841

vt 0.833008 0.992870

vt 0.811035 0.992870

vt 0.833008 0.978653

vt 0.811035 0.978653

vt 0.833008 0.998757

vt 0.811035 0.992870

vt 0.833008 0.992870

vt 0.811035 0.998757

vt 0.833008 0.972763

vt 0.811035 0.972763

vt 0.833008 0.958557

vt 0.811035 0.958557

vt 0.811035 0.978653

vt 0.833008 0.972763

vt 0.833008 0.978653

vt 0.811035 0.972763

vt 0.974609 0.880310

vt 0.992676 0.887207

vt 0.974609 0.887390

vt 0.992188 0.880127

vt 0.974609 0.880310

vt 0.992188 0.874268

vt 0.974609 0.871948

vt 0.992188 0.857788

vt 0.974121 0.858032

vt 0.864746 0.945313

vt 0.885254 0.946228

vt 0.864746 0.946228

vt 0.885254 0.945313

vt 0.864746 0.972900

vt 0.885254 0.973801

vt 0.864746 0.973801

vt 0.885254 0.972900

vt 0.846680 0.833130

vt 0.848145 0.833618

vt 0.849609 0.838501

vt 0.851074 0.843872

vt 0.846191 0.854248

vt 0.846680 0.833130

vt 0.851074 0.849121

vt 0.752441 0.755737

vt 0.753418 0.752808

vt 0.754395 0.752563

vt 0.751465 0.758911

vt 0.754395 0.765259

vt 0.754395 0.752563

vt 0.751953 0.762085

vt 0.846191 0.854248

vt 0.847168 0.854248

vt 0.848633 0.855835

vt 0.848633 0.852783

vt 0.752930 0.766113

vt 0.753906 0.765259

vt 0.754395 0.765259

vt 0.752930 0.764282

vt 0.849609 0.870117

vt 0.847656 0.875000

vt 0.846191 0.875427

vt 0.851074 0.864868

vt 0.846191 0.854248

vt 0.850586 0.859619

vt 0.885254 0.986488

vt 0.864746 0.973801

vt 0.885254 0.973801

vt 0.864746 0.986488

vt 0.885254 0.999166

vt 0.864746 0.999164

vt 0.864746 0.969803

vt 0.885254 0.972900

vt 0.864746 0.972900

vt 0.885254 0.969803

vt 0.864746 0.966522

vt 0.885254 0.966522

vt 0.885254 0.963348

vt 0.864746 0.963348

vt 0.885254 0.960724

vt 0.864746 0.960724

vt 0.864746 0.959564

vt 0.885254 0.959564

vt 0.885254 0.946228

vt 0.864746 0.949310

vt 0.864746 0.946228

vt 0.885254 0.949310

vt 0.864746 0.952606

vt 0.885254 0.952606

vt 0.864746 0.955780

vt 0.885254 0.955780

vt 0.885254 0.958405

vt 0.864746 0.958405

vt 0.864746 0.959564

vt 0.885254 0.959564



vn 0.341177 -0.003922 0.937255

vn 0.341177 -0.003922 0.937255

vn 0.341177 -0.003922 0.937255

vn 0.341177 -0.003922 0.937255

vn 0.341177 -0.003922 0.937255

vn 0.341177 -0.003922 0.937255

vn -0.349020 -0.003922 -0.945098

vn -0.349020 -0.003922 -0.945098

vn -0.349020 -0.003922 -0.945098

vn -0.349020 -0.003922 -0.945098

vn -0.349020 -0.003922 -0.945098

vn -0.349020 -0.003922 -0.945098

vn -0.349020 -0.003922 -0.945098

vn -0.349020 -0.003922 -0.945098

vn -0.349020 -0.003922 -0.945098

vn -0.003922 -0.003922 1.000000

vn -0.003922 -0.003922 1.000000

vn -0.003922 -0.003922 1.000000

vn -0.003922 -0.003922 1.000000

vn -0.003922 -0.003922 -1.000000

vn -0.003922 -0.003922 -1.000000

vn -0.003922 -0.003922 -1.000000

vn -0.003922 -0.003922 -1.000000

vn -0.003922 1.000000 -0.003922

vn -0.003922 1.000000 -0.003922

vn -0.003922 1.000000 -0.003922

vn -0.003922 1.000000 -0.003922

vn 1.000000 -0.003922 -0.003922

vn 1.000000 -0.003922 -0.003922

vn 1.000000 -0.003922 -0.003922

vn 1.000000 -0.003922 -0.003922

vn -0.003922 -1.000000 -0.003922

vn -0.003922 -1.000000 -0.003922

vn -0.003922 -1.000000 -0.003922

vn -0.003922 -1.000000 -0.003922

vn -1.000000 -0.003922 -0.003922

vn -1.000000 -0.003922 -0.003922

vn -1.000000 -0.003922 -0.003922

vn -1.000000 -0.003922 -0.003922

vn -0.003922 1.000000 -0.003922

vn -0.003922 1.000000 -0.003922

vn -0.003922 1.000000 -0.003922

vn -0.003922 1.000000 -0.003922

vn -0.647059 -0.003922 0.764706

vn -0.647059 -0.003922 0.764706

vn -0.647059 -0.003922 0.764706

vn -0.647059 -0.003922 0.764706

vn 0.639216 -0.003922 -0.772549

vn 0.639216 -0.003922 -0.772549

vn 0.639216 -0.003922 -0.772549

vn 0.639216 -0.003922 -0.772549

vn -0.003922 1.000000 -0.003922

vn -0.003922 1.000000 -0.003922

vn -0.003922 1.000000 -0.003922

vn -0.003922 1.000000 -0.003922

vn 0.764706 -0.003922 0.639216

vn 0.764706 -0.003922 0.639216

vn 0.764706 -0.003922 0.639216

vn 0.764706 -0.003922 0.639216

vn -0.003922 -1.000000 -0.003922

vn -0.003922 -1.000000 -0.003922

vn -0.003922 -1.000000 -0.003922

vn -0.003922 -1.000000 -0.003922

vn -0.772549 -0.003922 -0.647059

vn -0.772549 -0.003922 -0.647059

vn -0.772549 -0.003922 -0.647059

vn -0.772549 -0.003922 -0.647059

vn -0.003922 1.000000 -0.003922

vn -0.003922 1.000000 -0.003922

vn -0.003922 1.000000 -0.003922

vn -0.003922 1.000000 -0.003922

vn 0.639216 -0.003922 0.764706

vn 0.639216 -0.003922 0.764706

vn 0.639216 -0.003922 0.764706

vn 0.639216 -0.003922 0.764706

vn -0.647059 -0.003922 -0.772549

vn -0.647059 -0.003922 -0.772549

vn -0.647059 -0.003922 -0.772549

vn -0.647059 -0.003922 -0.772549

vn -0.003922 1.000000 -0.003922

vn -0.003922 1.000000 -0.003922

vn -0.003922 1.000000 -0.003922

vn -0.003922 1.000000 -0.003922

vn 0.764706 -0.003922 -0.647059

vn 0.764706 -0.003922 -0.647059

vn 0.764706 -0.003922 -0.647059

vn 0.764706 -0.003922 -0.647059

vn -0.003922 -1.000000 -0.003922

vn -0.003922 -1.000000 -0.003922

vn -0.003922 -1.000000 -0.003922

vn -0.003922 -1.000000 -0.003922

vn -0.772549 -0.003922 0.639216

vn -0.772549 -0.003922 0.639216

vn -0.772549 -0.003922 0.639216

vn -0.772549 -0.003922 0.639216

vn -0.003922 1.000000 -0.003922

vn -0.003922 1.000000 -0.003922

vn -0.003922 1.000000 -0.003922

vn -0.003922 1.000000 -0.003922

vn -0.003922 -0.003922 1.000000

vn -0.003922 -0.003922 1.000000

vn -0.003922 -0.003922 1.000000

vn -0.003922 -0.003922 1.000000

vn -0.003922 -0.003922 -1.000000

vn -0.003922 -0.003922 -1.000000

vn -0.003922 -0.003922 -1.000000

vn -0.003922 -0.003922 -1.000000

vn -0.003922 1.000000 -0.003922

vn -0.003922 1.000000 -0.003922

vn -0.003922 1.000000 -0.003922

vn -0.003922 1.000000 -0.003922

vn 1.000000 -0.003922 -0.003922

vn 1.000000 -0.003922 -0.003922

vn 1.000000 -0.003922 -0.003922

vn 1.000000 -0.003922 -0.003922

vn -0.003922 -1.000000 -0.003922

vn -0.003922 -1.000000 -0.003922

vn -0.003922 -1.000000 -0.003922

vn -0.003922 -1.000000 -0.003922

vn -1.000000 -0.003922 -0.003922

vn -1.000000 -0.003922 -0.003922

vn -1.000000 -0.003922 -0.003922

vn -1.000000 -0.003922 -0.003922

vn -0.105882 0.890196 0.427451

vn -0.160784 0.796079 0.576471

vn -0.160784 0.796079 0.576471

vn -0.105882 0.890196 0.427451

vn -0.105882 0.890196 0.427451

vn -0.027451 0.984314 0.137255

vn -0.027451 0.992157 0.113726

vn -0.003922 1.000000 -0.003922

vn -0.003922 1.000000 -0.003922

vn 0.898039 0.286275 -0.333333

vn 0.898039 0.286275 -0.333333

vn 0.898039 0.286275 -0.333333

vn 0.898039 0.286275 -0.333333

vn -0.905882 0.286275 0.325490

vn -0.905882 0.286275 0.325490

vn -0.905882 0.286275 0.325490

vn -0.905882 0.286275 0.325490

vn 0.341177 -0.003922 0.937255

vn 0.341177 -0.003922 0.937255

vn 0.341177 -0.003922 0.937255

vn 0.341177 -0.003922 0.937255

vn 0.341177 -0.003922 0.937255

vn 0.341177 -0.003922 0.937255

vn 0.341177 -0.003922 0.937255

vn -0.349020 -0.003922 -0.945098

vn -0.349020 -0.003922 -0.945098

vn -0.349020 -0.003922 -0.945098

vn -0.349020 -0.003922 -0.945098

vn -0.349020 -0.003922 -0.945098

vn -0.349020 -0.003922 -0.945098

vn -0.349020 -0.003922 -0.945098

vn 0.341177 -0.003922 0.937255

vn 0.341177 -0.003922 0.937255

vn 0.341177 -0.003922 0.937255

vn 0.341177 -0.003922 0.937255

vn -0.349020 -0.003922 -0.945098

vn -0.349020 -0.003922 -0.945098

vn -0.349020 -0.003922 -0.945098

vn -0.349020 -0.003922 -0.945098

vn 0.341177 -0.003922 0.937255

vn 0.341177 -0.003922 0.937255

vn 0.341177 -0.003922 0.937255

vn 0.341177 -0.003922 0.937255

vn 0.341177 -0.003922 0.937255

vn 0.341177 -0.003922 0.937255

vn -0.003922 -1.000000 -0.003922

vn -0.003922 -1.000000 -0.003922

vn -0.003922 -1.000000 -0.003922

vn -0.003922 -1.000000 -0.003922

vn -0.003922 -1.000000 -0.003922

vn -0.003922 -1.000000 -0.003922

vn -0.286274 0.945098 0.098039

vn -0.317647 0.937255 0.113726

vn -0.317647 0.937255 0.113726

vn -0.286274 0.945098 0.098039

vn -0.121569 0.984314 0.043137

vn -0.121569 0.984314 0.043137

vn 0.254902 0.952941 -0.098039

vn 0.254902 0.952941 -0.098039

vn 0.521569 0.827451 -0.192157

vn 0.521569 0.827451 -0.192157

vn 0.552941 0.803922 -0.207843

vn 0.552941 0.803922 -0.207843

vn 0.309804 0.937255 -0.121569

vn 0.278431 0.945098 -0.105882

vn 0.309804 0.937255 -0.121569

vn 0.278431 0.945098 -0.105882

vn 0.113726 0.984314 -0.050980

vn 0.113726 0.984314 -0.050980

vn -0.262745 0.952941 0.090196

vn -0.262745 0.952941 0.090196

vn -0.529412 0.827451 0.184314

vn -0.529412 0.827451 0.184314

vn -0.560784 0.803922 0.200000

vn -0.560784 0.803922 0.200000

f 1/1/1 2/2/2 3/3/3

f 4/4/4 5/5/5 6/6/6

f 7/7/7 8/8/8 9/9/9

f 10/10/10 11/11/11 7/7/7

f 7/7/7 12/12/12 10/10/10

f 7/7/7 13/13/13 12/12/12

f 14/14/14 12/12/12 13/13/13

f 13/13/13 15/15/15 14/14/14

f 16/16/16 17/17/17 18/18/18

f 19/19/19 18/18/18 17/17/17

f 20/20/20 21/21/21 22/22/22

f 20/20/20 22/22/22 23/23/23

f 24/24/24 25/25/25 26/26/26

f 26/26/26 25/25/25 27/27/27

f 28/28/28 29/29/29 30/30/30

f 29/29/29 28/28/28 31/31/31

f 32/32/32 33/33/33 34/34/34

f 34/34/34 33/33/33 35/35/35

f 36/36/36 37/37/37 38/38/38

f 38/38/38 37/37/37 39/39/39

f 40/40/40 41/41/41 42/42/42

f 42/42/42 41/41/41 43/43/43

f 44/44/44 45/45/45 46/46/46

f 47/47/47 46/46/46 45/45/45

f 48/48/48 49/49/49 50/50/50

f 48/48/48 50/50/50 51/51/51

f 52/52/52 53/53/53 54/54/54

f 53/53/53 52/52/52 55/55/55

f 56/56/56 57/57/57 58/58/58

f 57/57/57 56/56/56 59/59/59

f 60/60/60 61/61/61 62/62/62

f 61/61/61 60/60/60 63/63/63

f 64/64/64 65/65/65 66/66/66

f 65/65/65 64/64/64 67/67/67

f 68/68/68 69/69/69 70/70/70

f 69/69/69 68/68/68 71/71/71

f 72/72/72 73/73/73 74/74/74

f 75/75/75 74/74/74 73/73/73

f 76/76/76 77/77/77 78/78/78

f 76/76/76 78/78/78 79/79/79

f 80/80/80 81/81/81 82/82/82

f 81/81/81 80/80/80 83/83/83

f 84/84/84 85/85/85 86/86/86

f 86/86/86 85/85/85 87/87/87

f 88/88/88 89/89/89 90/90/90

f 89/89/89 88/88/88 91/91/91

f 92/92/92 93/93/93 94/94/94

f 94/94/94 93/93/93 95/95/95

f 96/96/96 97/97/97 98/98/98

f 99/99/99 98/98/98 97/97/97

f 100/100/100 101/101/101 102/102/102

f 103/103/103 102/102/102 101/101/101

f 104/104/104 105/105/105 106/106/106

f 104/104/104 106/106/106 107/107/107

f 108/108/108 109/109/109 110/110/110

f 110/110/110 109/109/109 111/111/111

f 112/112/112 113/113/113 114/114/114

f 113/113/113 112/112/112 115/115/115

f 116/116/116 117/117/117 118/118/118

f 118/118/118 117/117/117 119/119/119

f 120/120/120 121/121/121 122/122/122

f 121/121/121 120/120/120 123/123/123

f 124/124/124 125/125/125 126/126/126

f 125/125/125 124/124/124 127/127/127

f 127/127/127 128/128/128 129/129/129

f 128/128/128 130/130/130 129/129/129

f 129/129/129 130/130/130 131/131/131

f 130/130/130 132/132/132 131/131/131

f 133/133/133 134/134/134 135/135/135

f 134/134/134 133/133/133 136/136/136

f 137/137/137 138/138/138 139/139/139

f 138/138/138 137/137/137 140/140/140

f 141/141/141 142/142/142 143/143/143

f 141/141/141 143/143/143 144/144/144

f 145/145/145 146/146/146 144/144/144

f 145/145/145 144/144/144 147/147/147

f 148/148/148 149/149/149 150/150/150

f 151/151/151 148/148/148 150/150/150

f 152/152/152 151/151/151 153/153/153

f 151/151/151 152/152/152 154/154/154

f 155/155/155 156/156/156 157/157/157

f 158/158/158 156/156/156 155/155/155

f 159/159/159 160/160/160 161/161/161

f 161/161/161 160/160/160 162/162/162

f 163/163/163 164/164/164 165/165/165

f 165/165/165 166/166/166 163/163/163

f 167/167/167 166/166/166 165/165/165

f 166/166/166 167/167/167 168/168/168

f 169/169/169 170/170/170 171/171/171

f 170/170/170 169/169/169 172/172/172

f 173/173/173 172/172/172 169/169/169

f 172/172/172 173/173/173 174/174/174

f 175/175/175 176/176/176 177/177/177

f 176/176/176 175/175/175 178/178/178

f 179/179/179 178/178/178 175/175/175

f 178/178/178 179/179/179 180/180/180

f 179/179/179 181/181/181 180/180/180

f 181/181/181 179/179/179 182/182/182

f 182/182/182 183/183/183 181/181/181

f 183/183/183 182/182/182 184/184/184

f 185/185/185 183/183/183 184/184/184

f 183/183/183 185/185/185 186/186/186

f 187/187/187 188/188/188 189/189/189

f 188/188/188 187/187/187 190/190/190

f 190/190/190 191/191/191 188/188/188

f 191/191/191 190/190/190 192/192/192

f 192/192/192 193/193/193 191/191/191

f 193/193/193 192/192/192 194/194/194

f 195/195/195 193/193/193 194/194/194

f 193/193/193 195/195/195 196/196/196

f 196/196/196 195/195/195 197/197/197

f 198/198/198 197/197/197 195/195/195

