# UnrealEd OBJ exporter (_Internal)



v -11.679439 -4.216007 22.176916

v 15.352983 -4.216007 19.811888

v -11.679439 4.216008 22.176916

v 15.352983 4.216008 19.811888

v 11.679439 -4.216009 -22.176920

v -15.352983 -4.216009 -19.811888

v -15.352983 4.216006 -19.811890

v 11.679439 4.216006 -22.176920

v 11.679439 4.216006 -22.176920

v -11.679439 4.216008 22.176916

v 15.352983 4.216008 19.811888

v -15.352983 4.216006 -19.811890

v 15.352983 -4.216007 19.811888

v 11.679439 4.216006 -22.176920

v 15.352983 4.216008 19.811888

v 11.679439 -4.216009 -22.176920

v -11.679439 -4.216007 22.176916

v 11.679439 -4.216009 -22.176920

v 15.352983 -4.216007 19.811888

v -15.352983 -4.216009 -19.811888

v -11.679439 4.216008 22.176916

v -15.352983 -4.216009 -19.811888

v -11.679439 -4.216007 22.176916

v -15.352983 4.216006 -19.811890

v -15.582089 15.838449 21.961426

v 11.450332 15.838449 19.596395

v -15.582089 27.074936 21.961426

v 11.450332 27.074936 19.596395

v 7.776788 15.838447 -22.392412

v -19.255634 15.838447 -20.027380

v -19.255634 27.074936 -20.027384

v 7.776788 27.074936 -22.392412

v 7.776788 27.074936 -22.392412

v -15.582089 27.074936 21.961426

v 11.450332 27.074936 19.596395

v -19.255634 27.074936 -20.027384

v 11.450332 15.838449 19.596395

v 7.776788 27.074936 -22.392412

v 11.450332 27.074936 19.596395

v 7.776788 15.838447 -22.392412

v -15.582089 15.838449 21.961426

v -19.255634 15.838447 -20.027380

v 11.450332 15.838449 19.596395

v 7.776788 15.838447 -22.392412

v -15.582089 27.074936 21.961426

v -19.255634 15.838447 -20.027380

v -15.582089 15.838449 21.961426

v -19.255634 27.074936 -20.027384

v -7.305705 24.036770 26.650486

v -14.464757 24.036770 -2.231682

v -11.902707 24.036770 27.052673

v -9.867753 24.036770 -2.633868

v -17.100279 4.363691 18.398396

v 9.623153 4.363691 23.110437

v -17.100279 15.600180 18.398396

v 9.623153 15.600180 23.110437

v 16.942266 4.363688 -18.398411

v -9.781136 4.363688 -23.110460

v -9.781136 15.600178 -23.110462

v 16.942266 15.600178 -18.398411

v 9.623153 15.600180 23.110437

v -9.781136 15.600178 -23.110462

v -17.100279 15.600180 18.398396

v 16.942266 15.600178 -18.398411

v 9.623153 4.363691 23.110437

v 16.942266 15.600178 -18.398411

v 9.623153 15.600180 23.110437

v 16.942266 4.363688 -18.398411

v -9.781136 4.363688 -23.110460

v 9.623153 4.363691 23.110437

v -17.100279 4.363691 18.398396

v 16.942266 4.363688 -18.398411

v -17.100279 15.600180 18.398396

v -9.781136 4.363688 -23.110460

v -17.100279 4.363691 18.398396

v -9.781136 15.600178 -23.110462

v -20.572979 26.885916 20.859100

v 6.562690 26.885916 20.859100

v -20.572979 34.879025 20.859100

v 6.562690 34.879025 20.859100

v 6.562668 26.885916 -21.290092

v -20.572971 26.885916 -21.290100

v -20.572971 34.879025 -21.290100

v 6.562668 34.879025 -21.290092

v 6.562690 34.879025 20.859100

v 6.562668 34.879025 -21.290092

v -20.572979 34.879025 20.859100

v -20.572971 34.879025 -21.290100

v 6.562690 26.885916 20.859100

v 6.562668 26.885916 -21.290092

v 6.562690 34.879025 20.859100

v 6.562668 34.879025 -21.290092

v -20.572979 26.885916 20.859100

v 6.562668 26.885916 -21.290092

v 6.562690 26.885916 20.859100

v -20.572971 26.885916 -21.290100

v -20.572979 34.879025 20.859100

v -20.572971 34.879025 -21.290100

v -20.572979 26.885916 20.859100

v -20.572971 26.885916 -21.290100

v 10.272702 30.069345 18.086643

v -16.862959 30.069344 -24.062559

v -16.862967 30.069345 18.086639

v 10.272711 30.069344 -24.062557

v -30.055439 35.485760 7.422853

v -9.268322 35.485760 24.865314

v -30.055439 46.722252 7.422853

v -9.268322 46.722252 24.865314

v 17.824663 35.485760 -7.422845

v -2.962454 35.485756 -24.865309

v -2.962454 46.722244 -24.865309

v 17.824663 46.722252 -7.422846

v -2.962454 46.722244 -24.865309

v -9.268322 46.722252 24.865314

v 17.824663 46.722252 -7.422846

v -30.055439 46.722252 7.422853

v -9.268322 35.485760 24.865314

v 17.824663 35.485760 -7.422845

v -9.268322 46.722252 24.865314

v 17.824663 46.722252 -7.422846

v -9.268322 35.485760 24.865314

v -2.962454 35.485756 -24.865309

v 17.824663 35.485760 -7.422845

v -30.055439 35.485760 7.422853

v -2.962454 46.722244 -24.865309

v -30.055439 35.485760 7.422853

v -30.055439 46.722252 7.422853

v -2.962454 35.485756 -24.865309

v -6.000646 46.671455 -24.659634

v 19.498568 57.907944 -15.378690

v 19.498568 46.671455 -15.378690

v -6.000646 57.907944 -24.659637

v 5.082663 57.907940 24.228607

v -20.416550 57.907944 14.947659

v -20.416550 46.671455 14.947660

v 5.082663 46.671448 24.228607

v 5.082663 57.907940 24.228607

v -6.000646 57.907944 -24.659637

v -20.416550 57.907944 14.947659

v 19.498568 57.907944 -15.378690

v -20.416550 57.907944 14.947659

v -6.000646 46.671455 -24.659634

v -20.416550 46.671455 14.947660

v -6.000646 57.907944 -24.659637

v -20.416550 46.671455 14.947660

v -6.000646 46.671455 -24.659634

v 5.082663 46.671448 24.228607

v 19.498568 46.671455 -15.378690

v 5.082663 46.671448 24.228607

v 19.498568 46.671455 -15.378690

v 5.082663 57.907940 24.228607

v 19.498568 57.907944 -15.378690

v 8.261423 54.869774 6.075521

v 18.315544 54.869774 -21.547899

v 3.925178 54.869774 4.497248

v 13.979298 54.869774 -23.126169

v -15.833715 58.082222 20.890345

v 5.989961 58.082222 20.890347

v -15.833715 61.687622 20.890345

v 5.989961 61.687622 20.890347

v 5.989943 58.082222 -9.287891

v -15.833735 58.082222 -9.287894

v -15.833735 61.687618 -9.287894

v 5.989943 61.687622 -9.287892

v 5.989961 61.687622 20.890347

v 5.989943 61.687622 -9.287892

v -15.833715 61.687622 20.890345

v -15.833735 61.687618 -9.287894

v 5.989961 58.082222 20.890347

v 5.989943 58.082222 -9.287891

v 5.989961 61.687622 20.890347

v 5.989943 61.687622 -9.287892

v -15.833715 58.082222 20.890345

v 5.989943 58.082222 -9.287891

v 5.989961 58.082222 20.890347

v -15.833735 58.082222 -9.287894

v -15.833715 61.687622 20.890345

v -15.833735 61.687618 -9.287894

v -15.833715 58.082222 20.890345

v -15.833735 58.082222 -9.287894

v 2.163658 60.561646 0.804280

v -2.624680 60.561646 -12.351624

v -16.089012 60.561646 -5.103636

v -12.055093 60.561646 5.979481

v -2.624680 60.561646 -12.351624

v -18.460688 58.961475 -11.619709

v -4.241908 58.961475 -16.794910

v -5.874861 55.355331 -21.281370

v -20.093609 55.355331 -16.106159



vt 0.945313 0.921265

vt 0.929199 0.921265

vt 0.945313 0.914429

vt 0.929199 0.914429

vt 0.845703 0.775879

vt 0.845703 0.757935

vt 0.853027 0.757935

vt 0.853027 0.775879

vt 0.785156 0.992725

vt 0.807129 0.978500

vt 0.807129 0.992725

vt 0.785156 0.978500

vt 0.807129 0.998612

vt 0.785156 0.992725

vt 0.807129 0.992725

vt 0.785156 0.998612

vt 0.807129 0.972610

vt 0.785156 0.958405

vt 0.807129 0.958405

vt 0.785156 0.972610

vt 0.807129 0.978500

vt 0.785156 0.972610

vt 0.807129 0.972610

vt 0.785156 0.978500

vt 0.758789 0.832031

vt 0.758789 0.850708

vt 0.750977 0.832031

vt 0.750977 0.850708

vt 0.750977 0.955841

vt 0.750977 0.938446

vt 0.758301 0.938446

vt 0.758301 0.955841

vt 0.811035 0.992870

vt 0.833008 0.978653

vt 0.833008 0.992870

vt 0.811035 0.978653

vt 0.833008 0.998757

vt 0.811035 0.992870

vt 0.833008 0.992870

vt 0.811035 0.998757

vt 0.833008 0.972763

vt 0.811035 0.972763

vt 0.833008 0.958557

vt 0.811035 0.958557

vt 0.833008 0.978653

vt 0.811035 0.972763

vt 0.833008 0.972763

vt 0.811035 0.978653

vt 0.995117 0.876831

vt 0.997070 0.856445

vt 0.997070 0.876831

vt 0.995117 0.856445

vt 0.858887 0.934387

vt 0.858887 0.953094

vt 0.851074 0.934387

vt 0.851074 0.953094

vt 0.835449 0.862671

vt 0.835449 0.843750

vt 0.843262 0.843750

vt 0.843262 0.862671

vt 0.924316 0.946472

vt 0.903809 0.933289

vt 0.924316 0.933289

vt 0.903809 0.946472

vt 0.924316 0.951935

vt 0.903809 0.946472

vt 0.924316 0.946472

vt 0.903809 0.951935

vt 0.903809 0.927856

vt 0.924316 0.914673

vt 0.924316 0.927856

vt 0.903809 0.914673

vt 0.924316 0.933289

vt 0.903809 0.927856

vt 0.924316 0.927856

vt 0.903809 0.933289

vt 0.770996 0.843994

vt 0.770996 0.861572

vt 0.763672 0.843994

vt 0.763672 0.861572

vt 0.842285 0.954834

vt 0.842285 0.940735

vt 0.848145 0.940735

vt 0.848145 0.954834

vt 0.859375 0.992203

vt 0.837402 0.992203

vt 0.859375 0.977982

vt 0.837402 0.977982

vt 0.859375 0.998092

vt 0.837402 0.998092

vt 0.859375 0.992203

vt 0.837402 0.992203

vt 0.859375 0.972092

vt 0.837402 0.957886

vt 0.859375 0.957886

vt 0.837402 0.972092

vt 0.859375 0.977982

vt 0.837402 0.977982

vt 0.859375 0.972092

vt 0.837402 0.972092

vt 0.901367 0.926819

vt 0.888184 0.947235

vt 0.888184 0.926819

vt 0.901367 0.947235

vt 0.858887 0.934387

vt 0.858887 0.953094

vt 0.851074 0.934387

vt 0.851074 0.953094

vt 0.835449 0.862671

vt 0.835449 0.843750

vt 0.843262 0.843750

vt 0.843262 0.862671

vt 0.903809 0.933289

vt 0.924316 0.946472

vt 0.903809 0.946472

vt 0.924316 0.933289

vt 0.924316 0.951935

vt 0.903809 0.951935

vt 0.924316 0.946472

vt 0.903809 0.946472

vt 0.924316 0.914673

vt 0.903809 0.927856

vt 0.903809 0.914673

vt 0.924316 0.927856

vt 0.903809 0.933289

vt 0.924316 0.927856

vt 0.924316 0.933289

vt 0.903809 0.927856

vt 0.758789 0.850708

vt 0.750977 0.832031

vt 0.758789 0.832031

vt 0.750977 0.850708

vt 0.758301 0.938446

vt 0.758301 0.955841

vt 0.750977 0.955841

vt 0.750977 0.938446

vt 0.811035 0.978653

vt 0.833008 0.992870

vt 0.811035 0.992870

vt 0.833008 0.978653

vt 0.811035 0.992870

vt 0.833008 0.998757

vt 0.811035 0.998757

vt 0.833008 0.992870

vt 0.811035 0.958557

vt 0.833008 0.958557

vt 0.811035 0.972763

vt 0.833008 0.972763

vt 0.811035 0.972763

vt 0.833008 0.972763

vt 0.811035 0.978653

vt 0.833008 0.978653

vt 0.997070 0.856445

vt 0.997070 0.876831

vt 0.995117 0.856445

vt 0.995117 0.876831

vt 0.863770 0.924133

vt 0.874023 0.924133

vt 0.863770 0.925842

vt 0.874023 0.925842

vt 0.874023 0.942261

vt 0.863770 0.942261

vt 0.863770 0.940491

vt 0.874023 0.940491

vt 0.874023 0.925842

vt 0.874023 0.940491

vt 0.863770 0.925842

vt 0.863770 0.940491

vt 0.875977 0.925842

vt 0.875977 0.940491

vt 0.874023 0.925842

vt 0.874023 0.940491

vt 0.886719 0.925842

vt 0.875977 0.940491

vt 0.875977 0.925842

vt 0.886719 0.940491

vt 0.863770 0.925842

vt 0.863770 0.940491

vt 0.861816 0.925842

vt 0.861816 0.940491

vt 0.992188 0.857788

vt 0.992188 0.874268

vt 0.974609 0.871948

vt 0.974121 0.858032

vt 0.992188 0.874268

vt 0.974609 0.880310

vt 0.992188 0.880127

vt 0.992676 0.887207

vt 0.974609 0.887390



vn 0.082353 -0.003922 0.992157

vn 0.082353 -0.003922 0.992157

vn 0.082353 -0.003922 0.992157

vn 0.082353 -0.003922 0.992157

vn -0.090196 -0.003922 -1.000000

vn -0.090196 -0.003922 -1.000000

vn -0.090196 -0.003922 -1.000000

vn -0.090196 -0.003922 -1.000000

vn -0.003922 1.000000 -0.003922

vn -0.003922 1.000000 -0.003922

vn -0.003922 1.000000 -0.003922

vn -0.003922 1.000000 -0.003922

vn 0.992157 -0.003922 -0.090196

vn 0.992157 -0.003922 -0.090196

vn 0.992157 -0.003922 -0.090196

vn 0.992157 -0.003922 -0.090196

vn -0.003922 -1.000000 -0.003922

vn -0.003922 -1.000000 -0.003922

vn -0.003922 -1.000000 -0.003922

vn -0.003922 -1.000000 -0.003922

vn -1.000000 -0.003922 0.082353

vn -1.000000 -0.003922 0.082353

vn -1.000000 -0.003922 0.082353

vn -1.000000 -0.003922 0.082353

vn 0.082353 -0.003922 0.992157

vn 0.082353 -0.003922 0.992157

vn 0.082353 -0.003922 0.992157

vn 0.082353 -0.003922 0.992157

vn -0.090196 -0.003922 -1.000000

vn -0.090196 -0.003922 -1.000000

vn -0.090196 -0.003922 -1.000000

vn -0.090196 -0.003922 -1.000000

vn -0.003922 1.000000 -0.003922

vn -0.003922 1.000000 -0.003922

vn -0.003922 1.000000 -0.003922

vn -0.003922 1.000000 -0.003922

vn 0.992157 -0.003922 -0.090196

vn 0.992157 -0.003922 -0.090196

vn 0.992157 -0.003922 -0.090196

vn 0.992157 -0.003922 -0.090196

vn -0.003922 -1.000000 -0.003922

vn -0.003922 -1.000000 -0.003922

vn -0.003922 -1.000000 -0.003922

vn -0.003922 -1.000000 -0.003922

vn -1.000000 -0.003922 0.082353

vn -1.000000 -0.003922 0.082353

vn -1.000000 -0.003922 0.082353

vn -1.000000 -0.003922 0.082353

vn -0.003922 1.000000 -0.003922

vn -0.003922 1.000000 -0.003922

vn -0.003922 1.000000 -0.003922

vn -0.003922 1.000000 -0.003922

vn -0.176471 -0.003922 0.984314

vn -0.176471 -0.003922 0.984314

vn -0.176471 -0.003922 0.984314

vn -0.176471 -0.003922 0.984314

vn 0.168628 -0.003922 -0.992157

vn 0.168628 -0.003922 -0.992157

vn 0.168628 -0.003922 -0.992157

vn 0.168628 -0.003922 -0.992157

vn -0.003922 1.000000 -0.003922

vn -0.003922 1.000000 -0.003922

vn -0.003922 1.000000 -0.003922

vn -0.003922 1.000000 -0.003922

vn 0.984314 -0.003922 0.168628

vn 0.984314 -0.003922 0.168628

vn 0.984314 -0.003922 0.168628

vn 0.984314 -0.003922 0.168628

vn -0.003922 -1.000000 -0.003922

vn -0.003922 -1.000000 -0.003922

vn -0.003922 -1.000000 -0.003922

vn -0.003922 -1.000000 -0.003922

vn -0.992157 -0.003922 -0.176471

vn -0.992157 -0.003922 -0.176471

vn -0.992157 -0.003922 -0.176471

vn -0.992157 -0.003922 -0.176471

vn -0.003922 -0.003922 1.000000

vn -0.003922 -0.003922 1.000000

vn -0.003922 -0.003922 1.000000

vn -0.003922 -0.003922 1.000000

vn -0.003922 -0.003922 -1.000000

vn -0.003922 -0.003922 -1.000000

vn -0.003922 -0.003922 -1.000000

vn -0.003922 -0.003922 -1.000000

vn -0.003922 1.000000 -0.003922

vn -0.003922 1.000000 -0.003922

vn -0.003922 1.000000 -0.003922

vn -0.003922 1.000000 -0.003922

vn 1.000000 -0.003922 -0.003922

vn 1.000000 -0.003922 -0.003922

vn 1.000000 -0.003922 -0.003922

vn 1.000000 -0.003922 -0.003922

vn -0.003922 -1.000000 -0.003922

vn -0.003922 -1.000000 -0.003922

vn -0.003922 -1.000000 -0.003922

vn -0.003922 -1.000000 -0.003922

vn -1.000000 -0.003922 -0.003922

vn -1.000000 -0.003922 -0.003922

vn -1.000000 -0.003922 -0.003922

vn -1.000000 -0.003922 -0.003922

vn -0.003922 1.000000 -0.003922

vn -0.003922 1.000000 -0.003922

vn -0.003922 1.000000 -0.003922

vn -0.003922 1.000000 -0.003922

vn -0.647059 -0.003922 0.764706

vn -0.647059 -0.003922 0.764706

vn -0.647059 -0.003922 0.764706

vn -0.647059 -0.003922 0.764706

vn 0.639216 -0.003922 -0.772549

vn 0.639216 -0.003922 -0.772549

vn 0.639216 -0.003922 -0.772549

vn 0.639216 -0.003922 -0.772549

vn -0.003922 1.000000 -0.003922

vn -0.003922 1.000000 -0.003922

vn -0.003922 1.000000 -0.003922

vn -0.003922 1.000000 -0.003922

vn 0.764706 -0.003922 0.639216

vn 0.764706 -0.003922 0.639216

vn 0.764706 -0.003922 0.639216

vn 0.764706 -0.003922 0.639216

vn -0.003922 -1.000000 -0.003922

vn -0.003922 -1.000000 -0.003922

vn -0.003922 -1.000000 -0.003922

vn -0.003922 -1.000000 -0.003922

vn -0.772549 -0.003922 -0.647059

vn -0.772549 -0.003922 -0.647059

vn -0.772549 -0.003922 -0.647059

vn -0.772549 -0.003922 -0.647059

vn 0.341177 -0.003922 -0.945098

vn 0.341177 -0.003922 -0.945098

vn 0.341177 -0.003922 -0.945098

vn 0.341177 -0.003922 -0.945098

vn -0.349020 -0.003922 0.937255

vn -0.349020 -0.003922 0.937255

vn -0.349020 -0.003922 0.937255

vn -0.349020 -0.003922 0.937255

vn -0.003922 1.000000 -0.003922

vn -0.003922 1.000000 -0.003922

vn -0.003922 1.000000 -0.003922

vn -0.003922 1.000000 -0.003922

vn -0.945098 -0.003922 -0.349020

vn -0.945098 -0.003922 -0.349020

vn -0.945098 -0.003922 -0.349020

vn -0.945098 -0.003922 -0.349020

vn -0.003922 -1.000000 -0.003922

vn -0.003922 -1.000000 -0.003922

vn -0.003922 -1.000000 -0.003922

vn -0.003922 -1.000000 -0.003922

vn 0.937255 -0.003922 0.341177

vn 0.937255 -0.003922 0.341177

vn 0.937255 -0.003922 0.341177

vn 0.937255 -0.003922 0.341177

vn -0.003922 1.000000 -0.003922

vn -0.003922 1.000000 -0.003922

vn -0.003922 1.000000 -0.003922

vn -0.003922 1.000000 -0.003922

vn -0.003922 -0.003922 1.000000

vn -0.003922 -0.003922 1.000000

vn -0.003922 -0.003922 1.000000

vn -0.003922 -0.003922 1.000000

vn -0.003922 -0.003922 -1.000000

vn -0.003922 -0.003922 -1.000000

vn -0.003922 -0.003922 -1.000000

vn -0.003922 -0.003922 -1.000000

vn -0.003922 1.000000 -0.003922

vn -0.003922 1.000000 -0.003922

vn -0.003922 1.000000 -0.003922

vn -0.003922 1.000000 -0.003922

vn 1.000000 -0.003922 -0.003922

vn 1.000000 -0.003922 -0.003922

vn 1.000000 -0.003922 -0.003922

vn 1.000000 -0.003922 -0.003922

vn -0.003922 -1.000000 -0.003922

vn -0.003922 -1.000000 -0.003922

vn -0.003922 -1.000000 -0.003922

vn -0.003922 -1.000000 -0.003922

vn -1.000000 -0.003922 -0.003922

vn -1.000000 -0.003922 -0.003922

vn -1.000000 -0.003922 -0.003922

vn -1.000000 -0.003922 -0.003922

vn -0.003922 1.000000 -0.003922

vn -0.066667 0.984314 -0.137255

vn -0.050980 0.992157 -0.113725

vn -0.003922 1.000000 -0.003922

vn -0.066667 0.984314 -0.137255

vn -0.160784 0.890196 -0.411765

vn -0.160784 0.890196 -0.411765

vn -0.207843 0.796079 -0.568627

vn -0.207843 0.796079 -0.568627

f 1/1/1 2/2/2 3/3/3

f 4/4/4 3/3/3 2/2/2

f 5/5/5 6/6/6 7/7/7

f 5/5/5 7/7/7 8/8/8

f 9/9/9 10/10/10 11/11/11

f 10/10/10 9/9/9 12/12/12

f 13/13/13 14/14/14 15/15/15

f 14/14/14 13/13/13 16/16/16

f 17/17/17 18/18/18 19/19/19

f 18/18/18 17/17/17 20/20/20

f 21/21/21 22/22/22 23/23/23

f 22/22/22 21/21/21 24/24/24

f 25/25/25 26/26/26 27/27/27

f 28/28/28 27/27/27 26/26/26

f 29/29/29 30/30/30 31/31/31

f 29/29/29 31/31/31 32/32/32

f 33/33/33 34/34/34 35/35/35

f 34/34/34 33/33/33 36/36/36

f 37/37/37 38/38/38 39/39/39

f 38/38/38 37/37/37 40/40/40

f 41/41/41 42/42/42 43/43/43

f 43/43/43 42/42/42 44/44/44

f 45/45/45 46/46/46 47/47/47

f 46/46/46 45/45/45 48/48/48

f 49/49/49 50/50/50 51/51/51

f 50/50/50 49/49/49 52/52/52

f 53/53/53 54/54/54 55/55/55

f 56/56/56 55/55/55 54/54/54

f 57/57/57 58/58/58 59/59/59

f 57/57/57 59/59/59 60/60/60

f 61/61/61 62/62/62 63/63/63

f 62/62/62 61/61/61 64/64/64

f 65/65/65 66/66/66 67/67/67

f 66/66/66 65/65/65 68/68/68

f 69/69/69 70/70/70 71/71/71

f 70/70/70 69/69/69 72/72/72

f 73/73/73 74/74/74 75/75/75

f 74/74/74 73/73/73 76/76/76

f 77/77/77 78/78/78 79/79/79

f 80/80/80 79/79/79 78/78/78

f 81/81/81 82/82/82 83/83/83

f 81/81/81 83/83/83 84/84/84

f 85/85/85 86/86/86 87/87/87

f 87/87/87 86/86/86 88/88/88

f 89/89/89 90/90/90 91/91/91

f 91/91/91 90/90/90 92/92/92

f 93/93/93 94/94/94 95/95/95

f 94/94/94 93/93/93 96/96/96

f 97/97/97 98/98/98 99/99/99

f 99/99/99 98/98/98 100/100/100

f 101/101/101 102/102/102 103/103/103

f 102/102/102 101/101/101 104/104/104

f 105/105/105 106/106/106 107/107/107

f 108/108/108 107/107/107 106/106/106

f 109/109/109 110/110/110 111/111/111

f 109/109/109 111/111/111 112/112/112

f 113/113/113 114/114/114 115/115/115

f 114/114/114 113/113/113 116/116/116

f 117/117/117 118/118/118 119/119/119

f 119/119/119 118/118/118 120/120/120

f 121/121/121 122/122/122 123/123/123

f 122/122/122 121/121/121 124/124/124

f 125/125/125 126/126/126 127/127/127

f 126/126/126 125/125/125 128/128/128

f 129/129/129 130/130/130 131/131/131

f 130/130/130 129/129/129 132/132/132

f 133/133/133 134/134/134 135/135/135

f 133/133/133 135/135/135 136/136/136

f 137/137/137 138/138/138 139/139/139

f 138/138/138 137/137/137 140/140/140

f 141/141/141 142/142/142 143/143/143

f 142/142/142 141/141/141 144/144/144

f 145/145/145 146/146/146 147/147/147

f 146/146/146 148/148/148 147/147/147

f 149/149/149 150/150/150 151/151/151

f 151/151/151 150/150/150 152/152/152

f 153/153/153 154/154/154 155/155/155

f 155/155/155 154/154/154 156/156/156

f 157/157/157 158/158/158 159/159/159

f 160/160/160 159/159/159 158/158/158

f 161/161/161 162/162/162 163/163/163

f 161/161/161 163/163/163 164/164/164

f 165/165/165 166/166/166 167/167/167

f 167/167/167 166/166/166 168/168/168

f 169/169/169 170/170/170 171/171/171

f 171/171/171 170/170/170 172/172/172

f 173/173/173 174/174/174 175/175/175

f 174/174/174 173/173/173 176/176/176

f 177/177/177 178/178/178 179/179/179

f 179/179/179 178/178/178 180/180/180

f 181/181/181 182/182/182 183/183/183

f 181/181/181 183/183/183 184/184/184

f 185/185/185 186/186/186 183/183/183

f 187/187/187 186/186/186 185/185/185

f 188/188/188 186/186/186 187/187/187

f 186/186/186 188/188/188 189/189/189

