# UnrealEd OBJ exporter (_Internal)



v 35.405273 66.691193 34.450066

v -35.405518 66.691193 34.450066

v 35.405273 66.691132 -34.450081

v -35.405518 66.691132 -34.450081

v 35.405273 74.423920 -34.450089

v -35.405518 74.423981 34.450058

v 35.405273 74.423981 34.450058

v -35.405518 74.423920 -34.450089

v 35.405273 74.423981 34.450058

v -35.405518 74.423981 34.450058

v -35.405518 66.691193 34.450066

v 35.405273 66.691193 34.450066

v 35.405273 74.423981 34.450058

v 35.405273 66.691132 -34.450081

v 35.405273 74.423920 -34.450089

v 35.405273 66.691193 34.450066

v -35.405518 74.423920 -34.450089

v 35.405273 66.691132 -34.450081

v -35.405518 66.691132 -34.450081

v 35.405273 74.423920 -34.450089

v -35.405518 74.423981 34.450058

v -35.405518 66.691132 -34.450081

v -35.405518 66.691193 34.450066

v -35.405518 74.423920 -34.450089

v -7.277344 -0.165582 -26.569593

v 7.277344 7.081839 -20.695576

v 7.277344 -0.165582 -26.569593

v -7.277344 7.081839 -20.695576

v -7.277344 -0.165582 26.569567

v 7.277344 -0.165582 26.569567

v -7.277344 7.081827 20.695599

v 7.277344 7.081827 20.695599

v -7.277344 -0.165582 26.569567

v -7.277344 -0.165582 -26.569593

v 7.277344 -0.165582 26.569567

v 7.277344 -0.165582 -26.569593

v 4.415283 25.499201 -11.601058

v 4.415283 7.081828 -14.593831

v -4.415283 7.081828 -14.593831

v -4.415283 25.499201 -11.601058

v -4.415283 25.499212 11.601029

v 4.415283 7.081838 14.593852

v 4.415283 25.499212 11.601029

v -4.415283 7.081838 14.593852

v 4.415283 67.481224 -26.225704

v 4.415283 50.757195 -16.326141

v -4.415283 50.757195 -16.326141

v -4.415283 67.481224 -26.225704

v 4.415283 50.757195 -16.326141

v 4.415283 25.499201 -11.601058

v -4.415283 25.499201 -11.601058

v -4.415283 50.757195 -16.326141

v -4.415283 67.481178 26.225712

v 4.415283 50.757210 16.326141

v 4.415283 67.481178 26.225712

v -4.415283 50.757210 16.326141

v -4.415283 50.757210 16.326141

v 4.415283 25.499212 11.601029

v 4.415283 50.757210 16.326141

v -4.415283 25.499212 11.601029

v 26.569580 -0.165582 7.277345

v 26.569580 -0.165582 -7.277342

v 20.695557 7.081835 7.277324

v 20.695557 7.081831 -7.277333

v -20.695557 7.081835 7.277324

v -26.569580 -0.165582 -7.277342

v -26.569580 -0.165582 7.277345

v -20.695557 7.081831 -7.277333

v -26.569580 -0.165582 -7.277342

v 26.569580 -0.165582 -7.277342

v -26.569580 -0.165582 7.277345

v 26.569580 -0.165582 7.277345

v 14.593750 7.081827 4.415493

v 11.601074 25.499197 -4.415488

v 11.601074 25.499216 4.415490

v 14.593750 7.081839 -4.415486

v -11.600830 25.499197 -4.415488

v -14.593750 7.081827 4.415493

v -11.600830 25.499216 4.415490

v -14.593750 7.081839 -4.415486

v 16.326172 50.757210 4.415489

v 26.225830 67.481194 -4.415493

v 26.225830 67.481209 4.415485

v 16.326172 50.757195 -4.415489

v 11.601074 25.499216 4.415490

v 16.326172 50.757195 -4.415489

v 16.326172 50.757210 4.415489

v 11.601074 25.499197 -4.415488

v -16.326172 50.757210 4.415489

v -26.225586 67.481209 4.415493

v -26.225586 67.481194 -4.415493

v -16.326172 50.757195 -4.415489

v -11.600830 25.499216 4.415490

v -16.326172 50.757210 4.415489

v -16.326172 50.757195 -4.415489

v -11.600830 25.499197 -4.415488

v -4.415283 67.481178 26.225712

v -4.415283 67.481224 -26.225704

v -4.415283 50.757210 16.326141

v -4.415283 50.757195 -16.326141

v -4.415283 25.499212 11.601029

v -4.415283 25.499201 -11.601058

v -4.415283 7.081828 -14.593831

v -4.415283 7.081838 14.593852

v 7.277344 7.081827 20.695599

v 7.277344 -0.165582 26.569567

v 7.277344 7.081838 14.593852

v 7.277344 7.081828 -14.593831

v 7.277344 -0.165582 -26.569593

v 7.277344 7.081839 -20.695576

v -7.277344 7.081838 14.593852

v -7.277344 -0.165582 26.569567

v -7.277344 7.081827 20.695599

v -7.277344 7.081828 -14.593831

v -7.277344 -0.165582 -26.569593

v -7.277344 7.081839 -20.695576

v -7.277344 7.081839 -20.695576

v 7.277344 7.081828 -14.593831

v 7.277344 7.081839 -20.695576

v -7.277344 7.081828 -14.593831

v 7.277344 7.081838 14.593852

v -7.277344 7.081838 14.593852

v -7.277344 7.081827 20.695599

v 7.277344 7.081827 20.695599

v 4.415283 50.757210 16.326141

v 4.415283 67.481224 -26.225704

v 4.415283 67.481178 26.225712

v 4.415283 50.757195 -16.326141

v 4.415283 25.499212 11.601029

v 4.415283 25.499201 -11.601058

v 4.415283 7.081828 -14.593831

v 4.415283 7.081838 14.593852

v 14.593750 7.081835 7.277339

v 26.569580 -0.165582 7.277345

v 20.695557 7.081835 7.277324

v -26.569580 -0.165582 7.277345

v -14.593750 7.081835 7.277339

v -20.695557 7.081835 7.277324

v -14.593750 7.081831 -7.277333

v -26.569580 -0.165582 -7.277342

v -20.695557 7.081831 -7.277333

v 26.569580 -0.165582 -7.277342

v 14.593750 7.081831 -7.277333

v 20.695557 7.081831 -7.277333

v -20.695557 7.081835 7.277324

v -14.593750 7.081831 -7.277333

v -20.695557 7.081831 -7.277333

v -14.593750 7.081835 7.277339

v 14.593750 7.081831 -7.277333

v 14.593750 7.081835 7.277339

v 20.695557 7.081835 7.277324

v 20.695557 7.081831 -7.277333

v 14.593750 7.081827 4.415493

v -11.600830 25.499216 4.415490

v -14.593750 7.081827 4.415493

v 11.601074 25.499216 4.415490

v 16.326172 50.757210 4.415489

v -16.326172 50.757210 4.415489

v -26.225586 67.481209 4.415493

v 26.225830 67.481209 4.415485

v -11.600830 25.499197 -4.415488

v 14.593750 7.081839 -4.415486

v -14.593750 7.081839 -4.415486

v 11.601074 25.499197 -4.415488

v 16.326172 50.757195 -4.415489

v -16.326172 50.757195 -4.415489

v -26.225586 67.481194 -4.415493

v 26.225830 67.481194 -4.415493



vt 0.454834 0.500977

vt 0.482178 0.500977

vt 0.454834 0.527588

vt 0.482178 0.527588

vt 0.453613 0.526367

vt 0.428711 0.502197

vt 0.453613 0.502197

vt 0.428711 0.526367

vt 0.453613 0.502197

vt 0.428711 0.502197

vt 0.427490 0.500977

vt 0.454834 0.500977

vt 0.453613 0.502197

vt 0.454834 0.527588

vt 0.453613 0.526367

vt 0.454834 0.500977

vt 0.428711 0.526367

vt 0.454834 0.527588

vt 0.427490 0.527588

vt 0.453613 0.526367

vt 0.428711 0.502197

vt 0.427490 0.527588

vt 0.427490 0.500977

vt 0.428711 0.526367

vt 0.401367 0.651123

vt 0.394531 0.654297

vt 0.393066 0.651123

vt 0.399902 0.654297

vt 0.401367 0.674072

vt 0.393066 0.674072

vt 0.399902 0.670898

vt 0.394531 0.670898

vt 0.309082 0.680664

vt 0.327637 0.680664

vt 0.309082 0.685791

vt 0.327637 0.685791

vt 0.436279 0.679688

vt 0.437012 0.673096

vt 0.439941 0.673340

vt 0.439209 0.679443

vt 0.425049 0.679443

vt 0.427246 0.673096

vt 0.427979 0.679688

vt 0.424316 0.673340

vt 0.441162 0.694824

vt 0.437744 0.688721

vt 0.440674 0.687744

vt 0.443848 0.693359

vt 0.437744 0.688721

vt 0.436279 0.679688

vt 0.439209 0.679443

vt 0.440674 0.687744

vt 0.420410 0.693359

vt 0.426270 0.688721

vt 0.423096 0.694824

vt 0.423340 0.687744

vt 0.423340 0.687744

vt 0.427979 0.679688

vt 0.426270 0.688721

vt 0.425049 0.679443

vt 0.393066 0.651123

vt 0.401367 0.651123

vt 0.394531 0.654297

vt 0.399902 0.654297

vt 0.394531 0.670898

vt 0.401367 0.674072

vt 0.393066 0.674072

vt 0.399902 0.670898

vt 0.309082 0.680664

vt 0.327637 0.680664

vt 0.309082 0.685791

vt 0.327637 0.685791

vt 0.437012 0.673096

vt 0.439209 0.679443

vt 0.436279 0.679688

vt 0.439941 0.673340

vt 0.425049 0.679443

vt 0.427246 0.673096

vt 0.427979 0.679688

vt 0.424316 0.673340

vt 0.437744 0.688721

vt 0.443848 0.693359

vt 0.441162 0.694824

vt 0.440674 0.687744

vt 0.436279 0.679688

vt 0.440674 0.687744

vt 0.437744 0.688721

vt 0.439209 0.679443

vt 0.426270 0.688721

vt 0.423096 0.694824

vt 0.420410 0.693359

vt 0.423340 0.687744

vt 0.427979 0.679688

vt 0.426270 0.688721

vt 0.423340 0.687744

vt 0.425049 0.679443

vt 0.418701 0.693604

vt 0.400391 0.693604

vt 0.415283 0.687744

vt 0.403809 0.687744

vt 0.413574 0.678955

vt 0.405518 0.678955

vt 0.404297 0.672363

vt 0.414551 0.672363

vt 0.394531 0.670898

vt 0.393066 0.674072

vt 0.394775 0.668701

vt 0.394775 0.656494

vt 0.393066 0.651123

vt 0.394531 0.654297

vt 0.399902 0.668701

vt 0.401367 0.674072

vt 0.399902 0.670898

vt 0.399902 0.656494

vt 0.401367 0.651123

vt 0.399902 0.654297

vt 0.399902 0.654297

vt 0.394775 0.656494

vt 0.394531 0.654297

vt 0.399902 0.656494

vt 0.394775 0.668701

vt 0.399902 0.668701

vt 0.399902 0.670898

vt 0.394531 0.670898

vt 0.426270 0.688721

vt 0.441162 0.694824

vt 0.423096 0.694824

vt 0.437744 0.688721

vt 0.427979 0.679688

vt 0.436279 0.679688

vt 0.437012 0.673096

vt 0.427246 0.673096

vt 0.394775 0.656494

vt 0.393066 0.651123

vt 0.394531 0.654297

vt 0.393066 0.674072

vt 0.394775 0.668701

vt 0.394531 0.670898

vt 0.399902 0.668701

vt 0.401367 0.674072

vt 0.399902 0.670898

vt 0.401367 0.651123

vt 0.399902 0.656494

vt 0.399902 0.654297

vt 0.394531 0.670898

vt 0.399902 0.668701

vt 0.399902 0.670898

vt 0.394775 0.668701

vt 0.399902 0.656494

vt 0.394775 0.656494

vt 0.394531 0.654297

vt 0.399902 0.654297

vt 0.437012 0.673096

vt 0.427979 0.679688

vt 0.427246 0.673096

vt 0.436279 0.679688

vt 0.437744 0.688721

vt 0.426270 0.688721

vt 0.423096 0.694824

vt 0.441162 0.694824

vt 0.413574 0.678955

vt 0.404297 0.672363

vt 0.414551 0.672363

vt 0.405518 0.678955

vt 0.403809 0.687744

vt 0.415283 0.687744

vt 0.418701 0.693604

vt 0.400391 0.693604



vn -0.003922 -1.000000 -0.003922

vn -0.003922 -1.000000 -0.003922

vn -0.003922 -1.000000 -0.003922

vn -0.003922 -1.000000 -0.003922

vn -0.003922 1.000000 -0.003922

vn -0.003922 1.000000 -0.003922

vn -0.003922 1.000000 -0.003922

vn -0.003922 1.000000 -0.003922

vn -0.003922 -0.003922 1.000000

vn -0.003922 -0.003922 1.000000

vn -0.003922 -0.003922 1.000000

vn -0.003922 -0.003922 1.000000

vn 1.000000 -0.003922 -0.003922

vn 1.000000 -0.003922 -0.003922

vn 1.000000 -0.003922 -0.003922

vn 1.000000 -0.003922 -0.003922

vn -0.003922 -0.003922 -1.000000

vn -0.003922 -0.003922 -1.000000

vn -0.003922 -0.003922 -1.000000

vn -0.003922 -0.003922 -1.000000

vn -1.000000 -0.003922 -0.003922

vn -1.000000 -0.003922 -0.003922

vn -1.000000 -0.003922 -0.003922

vn -1.000000 -0.003922 -0.003922

vn -0.003922 0.623530 -0.780392

vn -0.003922 0.623530 -0.780392

vn -0.003922 0.623530 -0.780392

vn -0.003922 0.623530 -0.780392

vn -0.003922 0.623530 0.772549

vn -0.003922 0.623530 0.772549

vn -0.003922 0.623530 0.772549

vn -0.003922 0.623530 0.772549

vn -0.003922 -1.000000 -0.003922

vn -0.003922 -1.000000 -0.003922

vn -0.003922 -1.000000 -0.003922

vn -0.003922 -1.000000 -0.003922

vn -0.003922 -0.019608 -1.000000

vn -0.003922 0.152941 -0.992157

vn -0.003922 0.152941 -0.992157

vn -0.003922 -0.019608 -1.000000

vn -0.003922 -0.019608 0.992157

vn -0.003922 0.152941 0.984314

vn -0.003922 -0.019608 0.992157

vn -0.003922 0.152941 0.984314

vn -0.003922 -0.513725 -0.866667

vn -0.003922 -0.356863 -0.937255

vn -0.003922 -0.356863 -0.937255

vn -0.003922 -0.513725 -0.866667

vn -0.003922 -0.356863 -0.937255

vn -0.003922 -0.019608 -1.000000

vn -0.003922 -0.019608 -1.000000

vn -0.003922 -0.356863 -0.937255

vn -0.003922 -0.513725 0.858824

vn -0.003922 -0.356863 0.929412

vn -0.003922 -0.513725 0.858824

vn -0.003922 -0.356863 0.929412

vn -0.003922 -0.356863 0.929412

vn -0.003922 -0.019608 0.992157

vn -0.003922 -0.356863 0.929412

vn -0.003922 -0.019608 0.992157

vn 0.772549 0.623530 -0.003922

vn 0.772549 0.623530 -0.003922

vn 0.772549 0.623530 -0.003922

vn 0.772549 0.623530 -0.003922

vn -0.780392 0.623530 -0.003922

vn -0.780392 0.623530 -0.003922

vn -0.780392 0.623530 -0.003922

vn -0.780392 0.623530 -0.003922

vn -0.003922 -1.000000 -0.003922

vn -0.003922 -1.000000 -0.003922

vn -0.003922 -1.000000 -0.003922

vn -0.003922 -1.000000 -0.003922

vn 0.984314 0.152941 -0.003922

vn 0.992157 -0.019608 -0.003922

vn 0.992157 -0.019608 -0.003922

vn 0.984314 0.152941 -0.003922

vn -1.000000 -0.019608 -0.003922

vn -0.992157 0.152941 -0.003922

vn -1.000000 -0.019608 -0.003922

vn -0.992157 0.152941 -0.003922

vn 0.929412 -0.356863 -0.003922

vn 0.858824 -0.513725 -0.003922

vn 0.858824 -0.513725 -0.003922

vn 0.929412 -0.356863 -0.003922

vn 0.992157 -0.019608 -0.003922

vn 0.929412 -0.356863 -0.003922

vn 0.929412 -0.356863 -0.003922

vn 0.992157 -0.019608 -0.003922

vn -0.937255 -0.356863 -0.003922

vn -0.866667 -0.513725 -0.003922

vn -0.866667 -0.513725 -0.003922

vn -0.937255 -0.356863 -0.003922

vn -1.000000 -0.019608 -0.003922

vn -0.937255 -0.356863 -0.003922

vn -0.937255 -0.356863 -0.003922

vn -1.000000 -0.019608 -0.003922

vn -1.000000 -0.003922 -0.003922

vn -1.000000 -0.003922 -0.003922

vn -1.000000 -0.003922 -0.003922

vn -1.000000 -0.003922 -0.003922

vn -1.000000 -0.003922 -0.003922

vn -1.000000 -0.003922 -0.003922

vn -1.000000 -0.003922 -0.003922

vn -1.000000 -0.003922 -0.003922

vn 1.000000 -0.003922 -0.003922

vn 1.000000 -0.003922 -0.003922

vn 1.000000 -0.003922 -0.003922

vn 1.000000 -0.003922 -0.003922

vn 1.000000 -0.003922 -0.003922

vn 1.000000 -0.003922 -0.003922

vn -1.000000 -0.003922 -0.003922

vn -1.000000 -0.003922 -0.003922

vn -1.000000 -0.003922 -0.003922

vn -1.000000 -0.003922 -0.003922

vn -1.000000 -0.003922 -0.003922

vn -1.000000 -0.003922 -0.003922

vn -0.003922 1.000000 -0.003922

vn -0.003922 1.000000 -0.003922

vn -0.003922 1.000000 -0.003922

vn -0.003922 1.000000 -0.003922

vn -0.003922 1.000000 -0.003922

vn -0.003922 1.000000 -0.003922

vn -0.003922 1.000000 -0.003922

vn -0.003922 1.000000 -0.003922

vn 1.000000 -0.003922 -0.003922

vn 1.000000 -0.003922 -0.003922

vn 1.000000 -0.003922 -0.003922

vn 1.000000 -0.003922 -0.003922

vn 1.000000 -0.003922 -0.003922

vn 1.000000 -0.003922 -0.003922

vn 1.000000 -0.003922 -0.003922

vn 1.000000 -0.003922 -0.003922

vn -0.003922 -0.003922 1.000000

vn -0.003922 -0.003922 1.000000

vn -0.003922 -0.003922 1.000000

vn -0.003922 -0.003922 1.000000

vn -0.003922 -0.003922 1.000000

vn -0.003922 -0.003922 1.000000

vn -0.003922 -0.003922 -1.000000

vn -0.003922 -0.003922 -1.000000

vn -0.003922 -0.003922 -1.000000

vn -0.003922 -0.003922 -1.000000

vn -0.003922 -0.003922 -1.000000

vn -0.003922 -0.003922 -1.000000

vn -0.003922 1.000000 -0.003922

vn -0.003922 1.000000 -0.003922

vn -0.003922 1.000000 -0.003922

vn -0.003922 1.000000 -0.003922

vn -0.003922 1.000000 -0.003922

vn -0.003922 1.000000 -0.003922

vn -0.003922 1.000000 -0.003922

vn -0.003922 1.000000 -0.003922

vn -0.003922 -0.003922 1.000000

vn -0.003922 -0.003922 1.000000

vn -0.003922 -0.003922 1.000000

vn -0.003922 -0.003922 1.000000

vn -0.003922 -0.003922 1.000000

vn -0.003922 -0.003922 1.000000

vn -0.003922 -0.003922 1.000000

vn -0.003922 -0.003922 1.000000

vn -0.003922 -0.003922 -1.000000

vn -0.003922 -0.003922 -1.000000

vn -0.003922 -0.003922 -1.000000

vn -0.003922 -0.003922 -1.000000

vn -0.003922 -0.003922 -1.000000

vn -0.003922 -0.003922 -1.000000

vn -0.003922 -0.003922 -1.000000

vn -0.003922 -0.003922 -1.000000

f 1/1/1 2/2/2 3/3/3

f 2/2/2 4/4/4 3/3/3

f 5/5/5 6/6/6 7/7/7

f 6/6/6 5/5/5 8/8/8

f 9/9/9 10/10/10 11/11/11

f 9/9/9 11/11/11 12/12/12

f 13/13/13 14/14/14 15/15/15

f 14/14/14 13/13/13 16/16/16

f 17/17/17 18/18/18 19/19/19

f 18/18/18 17/17/17 20/20/20

f 21/21/21 22/22/22 23/23/23

f 22/22/22 21/21/21 24/24/24

f 25/25/25 26/26/26 27/27/27

f 26/26/26 25/25/25 28/28/28

f 29/29/29 30/30/30 31/31/31

f 32/32/32 31/31/31 30/30/30

f 33/33/33 34/34/34 35/35/35

f 35/35/35 34/34/34 36/36/36

f 37/37/37 38/38/38 39/39/39

f 39/39/39 40/40/40 37/37/37

f 41/41/41 42/42/42 43/43/43

f 42/42/42 41/41/41 44/44/44

f 45/45/45 46/46/46 47/47/47

f 47/47/47 48/48/48 45/45/45

f 49/49/49 50/50/50 51/51/51

f 51/51/51 52/52/52 49/49/49

f 53/53/53 54/54/54 55/55/55

f 54/54/54 53/53/53 56/56/56

f 57/57/57 58/58/58 59/59/59

f 58/58/58 57/57/57 60/60/60

f 61/61/61 62/62/62 63/63/63

f 63/63/63 62/62/62 64/64/64

f 65/65/65 66/66/66 67/67/67

f 66/66/66 65/65/65 68/68/68

f 69/69/69 70/70/70 71/71/71

f 72/72/72 71/71/71 70/70/70

f 73/73/73 74/74/74 75/75/75

f 74/74/74 73/73/73 76/76/76

f 77/77/77 78/78/78 79/79/79

f 78/78/78 77/77/77 80/80/80

f 81/81/81 82/82/82 83/83/83

f 82/82/82 81/81/81 84/84/84

f 85/85/85 86/86/86 87/87/87

f 86/86/86 85/85/85 88/88/88

f 89/89/89 90/90/90 91/91/91

f 89/89/89 91/91/91 92/92/92

f 93/93/93 94/94/94 95/95/95

f 93/93/93 95/95/95 96/96/96

f 97/97/97 98/98/98 99/99/99

f 99/99/99 98/98/98 100/100/100

f 99/99/99 100/100/100 101/101/101

f 101/101/101 100/100/100 102/102/102

f 103/103/103 101/101/101 102/102/102

f 101/101/101 103/103/103 104/104/104

f 105/105/105 106/106/106 107/107/107

f 106/106/106 108/108/108 107/107/107

f 109/109/109 108/108/108 106/106/106

f 108/108/108 109/109/109 110/110/110

f 111/111/111 112/112/112 113/113/113

f 114/114/114 112/112/112 111/111/111

f 112/112/112 114/114/114 115/115/115

f 115/115/115 114/114/114 116/116/116

f 117/117/117 118/118/118 119/119/119

f 120/120/120 118/118/118 117/117/117

f 118/118/118 120/120/120 121/121/121

f 120/120/120 122/122/122 121/121/121

f 123/123/123 121/121/121 122/122/122

f 123/123/123 124/124/124 121/121/121

f 125/125/125 126/126/126 127/127/127

f 126/126/126 125/125/125 128/128/128

f 129/129/129 128/128/128 125/125/125

f 128/128/128 129/129/129 130/130/130

f 129/129/129 131/131/131 130/130/130

f 129/129/129 132/132/132 131/131/131

f 133/133/133 134/134/134 135/135/135

f 134/134/134 133/133/133 136/136/136

f 136/136/136 133/133/133 137/137/137

f 136/136/136 137/137/137 138/138/138

f 139/139/139 140/140/140 141/141/141

f 142/142/142 140/140/140 139/139/139

f 142/142/142 139/139/139 143/143/143

f 142/142/142 143/143/143 144/144/144

f 145/145/145 146/146/146 147/147/147

f 146/146/146 145/145/145 148/148/148

f 148/148/148 149/149/149 146/146/146

f 150/150/150 149/149/149 148/148/148

f 151/151/151 149/149/149 150/150/150

f 149/149/149 151/151/151 152/152/152

f 153/153/153 154/154/154 155/155/155

f 154/154/154 153/153/153 156/156/156

f 157/157/157 154/154/154 156/156/156

f 154/154/154 157/157/157 158/158/158

f 157/157/157 159/159/159 158/158/158

f 160/160/160 159/159/159 157/157/157

f 161/161/161 162/162/162 163/163/163

f 162/162/162 161/161/161 164/164/164

f 161/161/161 165/165/165 164/164/164

f 161/161/161 166/166/166 165/165/165

f 167/167/167 165/165/165 166/166/166

f 165/165/165 167/167/167 168/168/168

