# UnrealEd OBJ exporter (_Internal)



v -66.066536 30.000704 26.047260

v 66.066536 30.000715 26.047260

v -66.066536 36.686790 26.047260

v 66.066536 36.686806 26.047260

v -66.066536 30.000706 -26.047260

v 66.066536 30.000717 -26.047260

v -66.066536 30.000704 26.047260

v 66.066536 30.000715 26.047260

v -66.066536 36.686790 -26.047260

v 66.066536 30.000717 -26.047260

v -66.066536 30.000706 -26.047260

v 66.066536 36.686806 -26.047260

v 66.066536 36.686806 26.047260

v -66.066536 36.686790 -26.047260

v -66.066536 36.686790 26.047260

v 66.066536 36.686806 -26.047260

v 74.876686 -0.000000 -37.387691

v 74.876686 0.000000 37.387691

v 64.321083 0.000000 37.387691

v 64.321083 -0.000000 -37.387691

v 74.876686 290.265167 37.387691

v 74.876686 290.265167 -37.387691

v 64.321083 290.265167 37.387691

v 64.321083 290.265167 -37.387691

v 74.876686 236.873932 32.145370

v 64.321083 53.391247 32.145370

v 74.876686 53.391235 32.145370

v 64.321083 236.873932 32.145370

v 74.876686 236.873901 -32.145370

v 74.876686 53.391239 -32.145370

v 64.321083 53.391239 -32.145370

v 64.321083 236.873901 -32.145370

v 64.321083 290.265167 37.387691

v 74.876686 252.614746 37.387691

v 74.876686 290.265167 37.387691

v 64.321083 252.614746 37.387691

v 74.876686 0.000000 37.387691

v 74.876686 37.650436 37.387691

v 64.321083 37.650436 37.387691

v 64.321083 0.000000 37.387691

v 74.876686 290.265167 -37.387691

v 74.876686 252.614731 -37.387691

v 64.321083 252.614731 -37.387691

v 64.321083 290.265167 -37.387691

v 64.321083 -0.000000 -37.387691

v 74.876686 37.650436 -37.387691

v 74.876686 -0.000000 -37.387691

v 64.321083 37.650436 -37.387691

v 64.321083 252.614746 37.387691

v 74.876686 236.873932 32.145370

v 74.876686 252.614746 37.387691

v 64.321083 236.873932 32.145370

v 74.876686 53.391235 32.145370

v 64.321083 37.650436 37.387691

v 74.876686 37.650436 37.387691

v 64.321083 53.391247 32.145370

v 74.876686 236.873901 -32.145370

v 64.321083 236.873901 -32.145370

v 74.876686 252.614731 -37.387691

v 64.321083 252.614731 -37.387691

v 64.321083 37.650436 -37.387691

v 74.876686 53.391239 -32.145370

v 74.876686 37.650436 -37.387691

v 64.321083 53.391239 -32.145370

v -66.066536 106.480011 -26.047260

v 66.066536 106.479988 -26.047260

v -66.066536 99.793922 -26.047260

v 66.066536 99.793907 -26.047260

v 66.066536 106.480003 26.047260

v -66.066536 106.480011 -26.047260

v -66.066536 106.480011 26.047260

v 66.066536 106.479988 -26.047260

v -66.066536 99.793915 26.047260

v 66.066536 106.480003 26.047260

v -66.066536 106.480011 26.047260

v 66.066536 99.793907 26.047260

v -66.066536 99.793922 -26.047260

v 66.066536 99.793907 -26.047260

v -66.066536 99.793915 26.047260

v 66.066536 99.793907 26.047260

v -74.876678 0.000000 37.387703

v -64.321091 -0.000000 -37.387680

v -64.321075 0.000000 37.387703

v -74.876686 -0.000000 -37.387680

v -64.321075 290.265167 37.387703

v -64.321091 290.265167 -37.387680

v -74.876678 290.265167 37.387703

v -74.876686 290.265167 -37.387680

v -64.321091 53.391251 -32.145359

v -74.876686 236.873901 -32.145359

v -64.321091 236.873901 -32.145359

v -74.876686 53.391239 -32.145359

v -74.876678 236.873932 32.145382

v -64.321075 53.391239 32.145382

v -64.321075 236.873932 32.145382

v -74.876678 53.391239 32.145382

v -64.321091 290.265167 -37.387680

v -64.321091 252.614731 -37.387680

v -74.876686 252.614731 -37.387680

v -74.876686 290.265167 -37.387680

v -74.876686 -0.000000 -37.387680

v -64.321091 37.650436 -37.387680

v -64.321091 -0.000000 -37.387680

v -74.876686 37.650436 -37.387680

v -74.876678 290.265167 37.387703

v -64.321075 252.614731 37.387703

v -64.321075 290.265167 37.387703

v -74.876678 252.614731 37.387703

v -64.321075 0.000000 37.387703

v -64.321075 37.650436 37.387703

v -74.876678 37.650436 37.387703

v -74.876678 0.000000 37.387703

v -64.321091 236.873901 -32.145359

v -74.876686 236.873901 -32.145359

v -64.321091 252.614731 -37.387680

v -74.876686 252.614731 -37.387680

v -64.321091 37.650436 -37.387680

v -74.876686 53.391239 -32.145359

v -64.321091 53.391251 -32.145359

v -74.876686 37.650436 -37.387680

v -74.876678 252.614731 37.387703

v -64.321075 236.873932 32.145382

v -64.321075 252.614731 37.387703

v -74.876678 236.873932 32.145382

v -64.321075 53.391239 32.145382

v -74.876678 53.391239 32.145382

v -64.321075 37.650436 37.387703

v -74.876678 37.650436 37.387703

v -66.066528 172.161362 -26.047270

v 66.066544 178.847443 -26.047251

v 66.066544 172.161346 -26.047251

v -66.066528 178.847443 -26.047270

v 66.066528 172.161346 26.047270

v -66.066528 172.161362 -26.047270

v 66.066544 172.161346 -26.047251

v -66.066544 172.161362 26.047251

v 66.066528 178.847443 26.047270

v -66.066544 172.161362 26.047251

v 66.066528 172.161346 26.047270

v -66.066544 178.847443 26.047251

v 66.066544 178.847443 -26.047251

v -66.066528 178.847443 -26.047270

v 66.066528 178.847443 26.047270

v -66.066544 178.847443 26.047251

v -66.066528 260.916016 26.047270

v 66.066544 254.229965 26.047251

v 66.066544 260.916046 26.047251

v -66.066528 254.229965 26.047270

v 66.066528 260.916046 -26.047270

v -66.066528 260.916016 26.047270

v 66.066544 260.916046 26.047251

v -66.066544 260.916016 -26.047251

v 66.066528 254.229935 -26.047270

v -66.066544 260.916016 -26.047251

v 66.066528 260.916046 -26.047270

v -66.066544 254.229919 -26.047251

v -66.066528 254.229965 26.047270

v 66.066528 254.229935 -26.047270

v 66.066544 254.229965 26.047251

v -66.066544 254.229919 -26.047251

v 64.321083 290.265167 37.387691

v 64.321083 290.265167 -37.387691

v 64.321083 252.614746 37.387691

v 64.321083 252.614731 -37.387691

v 64.321083 236.873932 32.145370

v 64.321083 236.873901 -32.145370

v 64.321083 53.391247 32.145370

v 64.321083 53.391239 -32.145370

v 64.321083 37.650436 37.387691

v 64.321083 37.650436 -37.387691

v 64.321083 -0.000000 -37.387691

v 64.321083 0.000000 37.387691

v -74.876678 290.265167 37.387703

v -74.876686 290.265167 -37.387680

v -74.876678 252.614731 37.387703

v -74.876686 252.614731 -37.387680

v -74.876678 236.873932 32.145382

v -74.876686 236.873901 -32.145359

v -74.876678 53.391239 32.145382

v -74.876686 53.391239 -32.145359

v -74.876678 37.650436 37.387703

v -74.876686 37.650436 -37.387680

v -74.876678 0.000000 37.387703

v -74.876686 -0.000000 -37.387680

v -64.321075 0.000000 37.387703

v -64.321091 -0.000000 -37.387680

v -64.321075 37.650436 37.387703

v -64.321091 37.650436 -37.387680

v -64.321075 53.391239 32.145382

v -64.321091 53.391251 -32.145359

v -64.321091 236.873901 -32.145359

v -64.321075 236.873932 32.145382

v -64.321091 252.614731 -37.387680

v -64.321075 252.614731 37.387703

v -64.321075 290.265167 37.387703

v -64.321091 290.265167 -37.387680

v 74.876686 252.614746 37.387691

v 74.876686 290.265167 -37.387691

v 74.876686 290.265167 37.387691

v 74.876686 252.614731 -37.387691

v 74.876686 236.873932 32.145370

v 74.876686 236.873901 -32.145370

v 74.876686 53.391235 32.145370

v 74.876686 53.391239 -32.145370

v 74.876686 37.650436 37.387691

v 74.876686 37.650436 -37.387691

v 74.876686 -0.000000 -37.387691

v 74.876686 0.000000 37.387691



vt 0.073059 0.180664

vt 0.073059 0.248047

vt 0.069641 0.180664

vt 0.069641 0.248047

vt 0.099670 0.180664

vt 0.099670 0.248047

vt 0.073059 0.180664

vt 0.073059 0.248047

vt 0.103027 0.180664

vt 0.099670 0.248047

vt 0.099670 0.180664

vt 0.103027 0.248047

vt 0.169189 0.249023

vt 0.249634 0.217285

vt 0.249634 0.249023

vt 0.169189 0.217285

vt 0.146118 0.146484

vt 0.111694 0.146484

vt 0.111694 0.141602

vt 0.146118 0.141602

vt 0.146362 0.158691

vt 0.112000 0.158691

vt 0.146362 0.153809

vt 0.112000 0.153809

vt 0.156738 0.131836

vt 0.151001 0.030273

vt 0.156738 0.030273

vt 0.151001 0.131836

vt 0.157837 0.131348

vt 0.157837 0.030273

vt 0.163696 0.030273

vt 0.163696 0.131348

vt 0.151001 0.161621

vt 0.156738 0.141113

vt 0.156738 0.161621

vt 0.151001 0.141113

vt 0.156738 0.000488

vt 0.156738 0.021484

vt 0.151001 0.021484

vt 0.151001 0.000488

vt 0.157837 0.161621

vt 0.157837 0.140625

vt 0.163696 0.140625

vt 0.163696 0.161621

vt 0.163696 0.000488

vt 0.157837 0.020996

vt 0.157837 0.000488

vt 0.163696 0.020996

vt 0.151001 0.141113

vt 0.156738 0.131836

vt 0.156738 0.141113

vt 0.151001 0.131836

vt 0.156738 0.030273

vt 0.151001 0.021484

vt 0.156738 0.021484

vt 0.151001 0.030273

vt 0.157837 0.131348

vt 0.163696 0.131348

vt 0.157837 0.140625

vt 0.163696 0.140625

vt 0.163696 0.020996

vt 0.157837 0.030273

vt 0.157837 0.020996

vt 0.163696 0.030273

vt 0.073059 0.180664

vt 0.073059 0.248047

vt 0.069641 0.180664

vt 0.069641 0.248047

vt 0.099670 0.248047

vt 0.073059 0.180664

vt 0.099670 0.180664

vt 0.073059 0.248047

vt 0.103027 0.180664

vt 0.099670 0.248047

vt 0.099670 0.180664

vt 0.103027 0.248047

vt 0.249634 0.249023

vt 0.169189 0.249023

vt 0.249634 0.217285

vt 0.169189 0.217285

vt 0.146118 0.146484

vt 0.111694 0.141602

vt 0.146118 0.141602

vt 0.111694 0.146484

vt 0.112000 0.153809

vt 0.146362 0.153809

vt 0.112000 0.158691

vt 0.146362 0.158691

vt 0.151001 0.030273

vt 0.156738 0.131836

vt 0.151001 0.131836

vt 0.156738 0.030273

vt 0.157837 0.131348

vt 0.163696 0.030273

vt 0.163696 0.131348

vt 0.157837 0.030273

vt 0.151001 0.161621

vt 0.151001 0.141113

vt 0.156738 0.141113

vt 0.156738 0.161621

vt 0.156738 0.000488

vt 0.151001 0.021484

vt 0.151001 0.000488

vt 0.156738 0.021484

vt 0.157837 0.161621

vt 0.163696 0.140625

vt 0.163696 0.161621

vt 0.157837 0.140625

vt 0.163696 0.000488

vt 0.163696 0.020996

vt 0.157837 0.020996

vt 0.157837 0.000488

vt 0.151001 0.131836

vt 0.156738 0.131836

vt 0.151001 0.141113

vt 0.156738 0.141113

vt 0.151001 0.021484

vt 0.156738 0.030273

vt 0.151001 0.030273

vt 0.156738 0.021484

vt 0.157837 0.140625

vt 0.163696 0.131348

vt 0.163696 0.140625

vt 0.157837 0.131348

vt 0.163696 0.030273

vt 0.157837 0.030273

vt 0.163696 0.020996

vt 0.157837 0.020996

vt 0.073059 0.248047

vt 0.069641 0.180664

vt 0.073059 0.180664

vt 0.069641 0.248047

vt 0.099670 0.180664

vt 0.073059 0.248047

vt 0.073059 0.180664

vt 0.099670 0.248047

vt 0.103027 0.180664

vt 0.099670 0.248047

vt 0.099670 0.180664

vt 0.103027 0.248047

vt 0.249634 0.249023

vt 0.169189 0.249023

vt 0.249634 0.217285

vt 0.169189 0.217285

vt 0.073059 0.248047

vt 0.069641 0.180664

vt 0.073059 0.180664

vt 0.069641 0.248047

vt 0.099670 0.180664

vt 0.073059 0.248047

vt 0.073059 0.180664

vt 0.099670 0.248047

vt 0.103027 0.180664

vt 0.099670 0.248047

vt 0.099670 0.180664

vt 0.103027 0.248047

vt 0.169189 0.249023

vt 0.249634 0.217285

vt 0.249634 0.249023

vt 0.169189 0.217285

vt 0.206665 0.162598

vt 0.165039 0.162598

vt 0.206665 0.141602

vt 0.165039 0.141602

vt 0.203735 0.132813

vt 0.167969 0.132813

vt 0.203735 0.030273

vt 0.167969 0.030273

vt 0.206665 0.021484

vt 0.165039 0.021484

vt 0.165039 0.000488

vt 0.206665 0.000488

vt 0.249512 0.162598

vt 0.207886 0.162598

vt 0.249512 0.141602

vt 0.207886 0.141602

vt 0.246582 0.132813

vt 0.210693 0.132813

vt 0.246582 0.030273

vt 0.210693 0.030273

vt 0.249512 0.021973

vt 0.207886 0.021973

vt 0.249512 0.000977

vt 0.207886 0.000977

vt 0.165039 0.000488

vt 0.206665 0.000488

vt 0.165039 0.021484

vt 0.206665 0.021484

vt 0.167969 0.030273

vt 0.203735 0.030273

vt 0.203735 0.132813

vt 0.167969 0.132813

vt 0.206665 0.141602

vt 0.165039 0.141602

vt 0.165039 0.162598

vt 0.206665 0.162598

vt 0.207886 0.141602

vt 0.249512 0.162598

vt 0.207886 0.162598

vt 0.249512 0.141602

vt 0.210693 0.132813

vt 0.246582 0.132813

vt 0.210693 0.030273

vt 0.246582 0.030273

vt 0.207886 0.021973

vt 0.249512 0.021973

vt 0.249512 0.000977

vt 0.207886 0.000977



vn -0.003922 -0.003922 1.000000

vn -0.003922 -0.003922 1.000000

vn -0.003922 -0.003922 1.000000

vn -0.003922 -0.003922 1.000000

vn -0.003922 -1.000000 -0.003922

vn -0.003922 -1.000000 -0.003922

vn -0.003922 -1.000000 -0.003922

vn -0.003922 -1.000000 -0.003922

vn -0.003922 -0.003922 -1.000000

vn -0.003922 -0.003922 -1.000000

vn -0.003922 -0.003922 -1.000000

vn -0.003922 -0.003922 -1.000000

vn -0.003922 1.000000 -0.003922

vn -0.003922 1.000000 -0.003922

vn -0.003922 1.000000 -0.003922

vn -0.003922 1.000000 -0.003922

vn -0.003922 -1.000000 -0.003922

vn -0.003922 -1.000000 -0.003922

vn -0.003922 -1.000000 -0.003922

vn -0.003922 -1.000000 -0.003922

vn -0.003922 1.000000 -0.003922

vn -0.003922 1.000000 -0.003922

vn -0.003922 1.000000 -0.003922

vn -0.003922 1.000000 -0.003922

vn -0.003922 -0.003922 1.000000

vn -0.003922 -0.003922 1.000000

vn -0.003922 -0.003922 1.000000

vn -0.003922 -0.003922 1.000000

vn -0.003922 -0.003922 -1.000000

vn -0.003922 -0.003922 -1.000000

vn -0.003922 -0.003922 -1.000000

vn -0.003922 -0.003922 -1.000000

vn -0.003922 -0.003922 1.000000

vn -0.003922 -0.003922 1.000000

vn -0.003922 -0.003922 1.000000

vn -0.003922 -0.003922 1.000000

vn -0.003922 -0.003922 1.000000

vn -0.003922 -0.003922 1.000000

vn -0.003922 -0.003922 1.000000

vn -0.003922 -0.003922 1.000000

vn -0.003922 -0.003922 -1.000000

vn -0.003922 -0.003922 -1.000000

vn -0.003922 -0.003922 -1.000000

vn -0.003922 -0.003922 -1.000000

vn -0.003922 -0.003922 -1.000000

vn -0.003922 -0.003922 -1.000000

vn -0.003922 -0.003922 -1.000000

vn -0.003922 -0.003922 -1.000000

vn -0.003922 -0.317647 0.945098

vn -0.003922 -0.317647 0.945098

vn -0.003922 -0.317647 0.945098

vn -0.003922 -0.317647 0.945098

vn -0.003922 0.309804 0.945098

vn -0.003922 0.309804 0.945098

vn -0.003922 0.309804 0.945098

vn -0.003922 0.309804 0.945098

vn -0.003922 -0.317647 -0.952941

vn -0.003922 -0.317647 -0.952941

vn -0.003922 -0.317647 -0.952941

vn -0.003922 -0.317647 -0.952941

vn -0.003922 0.309804 -0.952941

vn -0.003922 0.309804 -0.952941

vn -0.003922 0.309804 -0.952941

vn -0.003922 0.309804 -0.952941

vn -0.003922 -0.003922 -1.000000

vn -0.003922 -0.003922 -1.000000

vn -0.003922 -0.003922 -1.000000

vn -0.003922 -0.003922 -1.000000

vn -0.003922 1.000000 -0.003922

vn -0.003922 1.000000 -0.003922

vn -0.003922 1.000000 -0.003922

vn -0.003922 1.000000 -0.003922

vn -0.003922 -0.003922 1.000000

vn -0.003922 -0.003922 1.000000

vn -0.003922 -0.003922 1.000000

vn -0.003922 -0.003922 1.000000

vn -0.003922 -1.000000 -0.003922

vn -0.003922 -1.000000 -0.003922

vn -0.003922 -1.000000 -0.003922

vn -0.003922 -1.000000 -0.003922

vn -0.003922 -1.000000 -0.003922

vn -0.003922 -1.000000 -0.003922

vn -0.003922 -1.000000 -0.003922

vn -0.003922 -1.000000 -0.003922

vn -0.003922 1.000000 -0.003922

vn -0.003922 1.000000 -0.003922

vn -0.003922 1.000000 -0.003922

vn -0.003922 1.000000 -0.003922

vn -0.003922 -0.003922 -1.000000

vn -0.003922 -0.003922 -1.000000

vn -0.003922 -0.003922 -1.000000

vn -0.003922 -0.003922 -1.000000

vn -0.003922 -0.003922 1.000000

vn -0.003922 -0.003922 1.000000

vn -0.003922 -0.003922 1.000000

vn -0.003922 -0.003922 1.000000

vn -0.003922 -0.003922 -1.000000

vn -0.003922 -0.003922 -1.000000

vn -0.003922 -0.003922 -1.000000

vn -0.003922 -0.003922 -1.000000

vn -0.003922 -0.003922 -1.000000

vn -0.003922 -0.003922 -1.000000

vn -0.003922 -0.003922 -1.000000

vn -0.003922 -0.003922 -1.000000

vn -0.003922 -0.003922 1.000000

vn -0.003922 -0.003922 1.000000

vn -0.003922 -0.003922 1.000000

vn -0.003922 -0.003922 1.000000

vn -0.003922 -0.003922 1.000000

vn -0.003922 -0.003922 1.000000

vn -0.003922 -0.003922 1.000000

vn -0.003922 -0.003922 1.000000

vn -0.003922 -0.317647 -0.952941

vn -0.003922 -0.317647 -0.952941

vn -0.003922 -0.317647 -0.952941

vn -0.003922 -0.317647 -0.952941

vn -0.003922 0.309804 -0.952941

vn -0.003922 0.309804 -0.952941

vn -0.003922 0.309804 -0.952941

vn -0.003922 0.309804 -0.952941

vn -0.003922 -0.317647 0.945098

vn -0.003922 -0.317647 0.945098

vn -0.003922 -0.317647 0.945098

vn -0.003922 -0.317647 0.945098

vn -0.003922 0.309804 0.945098

vn -0.003922 0.309804 0.945098

vn -0.003922 0.309804 0.945098

vn -0.003922 0.309804 0.945098

vn -0.003922 -0.003922 -1.000000

vn -0.003922 -0.003922 -1.000000

vn -0.003922 -0.003922 -1.000000

vn -0.003922 -0.003922 -1.000000

vn -0.003922 -1.000000 -0.003922

vn -0.003922 -1.000000 -0.003922

vn -0.003922 -1.000000 -0.003922

vn -0.003922 -1.000000 -0.003922

vn -0.003922 -0.003922 1.000000

vn -0.003922 -0.003922 1.000000

vn -0.003922 -0.003922 1.000000

vn -0.003922 -0.003922 1.000000

vn -0.003922 1.000000 -0.003922

vn -0.003922 1.000000 -0.003922

vn -0.003922 1.000000 -0.003922

vn -0.003922 1.000000 -0.003922

vn -0.003922 -0.003922 1.000000

vn -0.003922 -0.003922 1.000000

vn -0.003922 -0.003922 1.000000

vn -0.003922 -0.003922 1.000000

vn -0.003922 1.000000 -0.003922

vn -0.003922 1.000000 -0.003922

vn -0.003922 1.000000 -0.003922

vn -0.003922 1.000000 -0.003922

vn -0.003922 -0.003922 -1.000000

vn -0.003922 -0.003922 -1.000000

vn -0.003922 -0.003922 -1.000000

vn -0.003922 -0.003922 -1.000000

vn -0.003922 -1.000000 -0.003922

vn -0.003922 -1.000000 -0.003922

vn -0.003922 -1.000000 -0.003922

vn -0.003922 -1.000000 -0.003922

vn -1.000000 -0.003922 -0.003922

vn -1.000000 -0.003922 -0.003922

vn -1.000000 -0.003922 -0.003922

vn -1.000000 -0.003922 -0.003922

vn -1.000000 -0.003922 -0.003922

vn -1.000000 -0.003922 -0.003922

vn -1.000000 -0.003922 -0.003922

vn -1.000000 -0.003922 -0.003922

vn -1.000000 -0.003922 -0.003922

vn -1.000000 -0.003922 -0.003922

vn -1.000000 -0.003922 -0.003922

vn -1.000000 -0.003922 -0.003922

vn -1.000000 -0.003922 -0.003922

vn -1.000000 -0.003922 -0.003922

vn -1.000000 -0.003922 -0.003922

vn -1.000000 -0.003922 -0.003922

vn -1.000000 -0.003922 -0.003922

vn -1.000000 -0.003922 -0.003922

vn -1.000000 -0.003922 -0.003922

vn -1.000000 -0.003922 -0.003922

vn -1.000000 -0.003922 -0.003922

vn -1.000000 -0.003922 -0.003922

vn -1.000000 -0.003922 -0.003922

vn -1.000000 -0.003922 -0.003922

vn 1.000000 -0.003922 -0.003922

vn 1.000000 -0.003922 -0.003922

vn 1.000000 -0.003922 -0.003922

vn 1.000000 -0.003922 -0.003922

vn 1.000000 -0.003922 -0.003922

vn 1.000000 -0.003922 -0.003922

vn 1.000000 -0.003922 -0.003922

vn 1.000000 -0.003922 -0.003922

vn 1.000000 -0.003922 -0.003922

vn 1.000000 -0.003922 -0.003922

vn 1.000000 -0.003922 -0.003922

vn 1.000000 -0.003922 -0.003922

vn 1.000000 -0.003922 -0.003922

vn 1.000000 -0.003922 -0.003922

vn 1.000000 -0.003922 -0.003922

vn 1.000000 -0.003922 -0.003922

vn 1.000000 -0.003922 -0.003922

vn 1.000000 -0.003922 -0.003922

vn 1.000000 -0.003922 -0.003922

vn 1.000000 -0.003922 -0.003922

vn 1.000000 -0.003922 -0.003922

vn 1.000000 -0.003922 -0.003922

vn 1.000000 -0.003922 -0.003922

vn 1.000000 -0.003922 -0.003922

f 1/1/1 2/2/2 3/3/3

f 4/4/4 3/3/3 2/2/2

f 5/5/5 6/6/6 7/7/7

f 8/8/8 7/7/7 6/6/6

f 9/9/9 10/10/10 11/11/11

f 10/10/10 9/9/9 12/12/12

f 13/13/13 14/14/14 15/15/15

f 14/14/14 13/13/13 16/16/16

f 17/17/17 18/18/18 19/19/19

f 19/19/19 20/20/20 17/17/17

f 21/21/21 22/22/22 23/23/23

f 23/23/23 22/22/22 24/24/24

f 25/25/25 26/26/26 27/27/27

f 26/26/26 25/25/25 28/28/28

f 29/29/29 30/30/30 31/31/31

f 31/31/31 32/32/32 29/29/29

f 33/33/33 34/34/34 35/35/35

f 34/34/34 33/33/33 36/36/36

f 37/37/37 38/38/38 39/39/39

f 39/39/39 40/40/40 37/37/37

f 41/41/41 42/42/42 43/43/43

f 43/43/43 44/44/44 41/41/41

f 45/45/45 46/46/46 47/47/47

f 46/46/46 45/45/45 48/48/48

f 49/49/49 50/50/50 51/51/51

f 50/50/50 49/49/49 52/52/52

f 53/53/53 54/54/54 55/55/55

f 54/54/54 53/53/53 56/56/56

f 57/57/57 58/58/58 59/59/59

f 58/58/58 60/60/60 59/59/59

f 61/61/61 62/62/62 63/63/63

f 62/62/62 61/61/61 64/64/64

f 65/65/65 66/66/66 67/67/67

f 68/68/68 67/67/67 66/66/66

f 69/69/69 70/70/70 71/71/71

f 70/70/70 69/69/69 72/72/72

f 73/73/73 74/74/74 75/75/75

f 74/74/74 73/73/73 76/76/76

f 77/77/77 78/78/78 79/79/79

f 80/80/80 79/79/79 78/78/78

f 81/81/81 82/82/82 83/83/83

f 82/82/82 81/81/81 84/84/84

f 85/85/85 86/86/86 87/87/87

f 87/87/87 86/86/86 88/88/88

f 89/89/89 90/90/90 91/91/91

f 90/90/90 89/89/89 92/92/92

f 93/93/93 94/94/94 95/95/95

f 94/94/94 93/93/93 96/96/96

f 97/97/97 98/98/98 99/99/99

f 99/99/99 100/100/100 97/97/97

f 101/101/101 102/102/102 103/103/103

f 102/102/102 101/101/101 104/104/104

f 105/105/105 106/106/106 107/107/107

f 106/106/106 105/105/105 108/108/108

f 109/109/109 110/110/110 111/111/111

f 111/111/111 112/112/112 109/109/109

f 113/113/113 114/114/114 115/115/115

f 114/114/114 116/116/116 115/115/115

f 117/117/117 118/118/118 119/119/119

f 118/118/118 117/117/117 120/120/120

f 121/121/121 122/122/122 123/123/123

f 122/122/122 121/121/121 124/124/124

f 125/125/125 126/126/126 127/127/127

f 126/126/126 128/128/128 127/127/127

f 129/129/129 130/130/130 131/131/131

f 130/130/130 129/129/129 132/132/132

f 133/133/133 134/134/134 135/135/135

f 134/134/134 133/133/133 136/136/136

f 137/137/137 138/138/138 139/139/139

f 138/138/138 137/137/137 140/140/140

f 141/141/141 142/142/142 143/143/143

f 144/144/144 143/143/143 142/142/142

f 145/145/145 146/146/146 147/147/147

f 146/146/146 145/145/145 148/148/148

f 149/149/149 150/150/150 151/151/151

f 150/150/150 149/149/149 152/152/152

f 153/153/153 154/154/154 155/155/155

f 154/154/154 153/153/153 156/156/156

f 157/157/157 158/158/158 159/159/159

f 158/158/158 157/157/157 160/160/160

f 161/161/161 162/162/162 163/163/163

f 163/163/163 162/162/162 164/164/164

f 163/163/163 164/164/164 165/165/165

f 165/165/165 164/164/164 166/166/166

f 167/167/167 165/165/165 166/166/166

f 167/167/167 166/166/166 168/168/168

f 167/167/167 168/168/168 169/169/169

f 169/169/169 168/168/168 170/170/170

f 171/171/171 169/169/169 170/170/170

f 169/169/169 171/171/171 172/172/172

f 173/173/173 174/174/174 175/175/175

f 175/175/175 174/174/174 176/176/176

f 175/175/175 176/176/176 177/177/177

f 177/177/177 176/176/176 178/178/178

f 179/179/179 177/177/177 178/178/178

f 179/179/179 178/178/178 180/180/180

f 179/179/179 180/180/180 181/181/181

f 181/181/181 180/180/180 182/182/182

f 181/181/181 182/182/182 183/183/183

f 183/183/183 182/182/182 184/184/184

f 185/185/185 186/186/186 187/187/187

f 187/187/187 186/186/186 188/188/188

f 187/187/187 188/188/188 189/189/189

f 189/189/189 188/188/188 190/190/190

f 191/191/191 189/189/189 190/190/190

f 189/189/189 191/191/191 192/192/192

f 193/193/193 192/192/192 191/191/191

f 192/192/192 193/193/193 194/194/194

f 194/194/194 193/193/193 195/195/195

f 195/195/195 193/193/193 196/196/196

f 197/197/197 198/198/198 199/199/199

f 198/198/198 197/197/197 200/200/200

f 201/201/201 200/200/200 197/197/197

f 200/200/200 201/201/201 202/202/202

f 203/203/203 202/202/202 201/201/201

f 202/202/202 203/203/203 204/204/204

f 205/205/205 204/204/204 203/203/203

f 204/204/204 205/205/205 206/206/206

f 205/205/205 207/207/207 206/206/206

f 208/208/208 207/207/207 205/205/205

