# UnrealEd OBJ exporter (_Internal)



v 34.671875 37.648758 -20.772522

v 38.271484 0.000000 -21.513123

v 19.920410 36.996185 -36.541046

v 27.520020 0.000000 -42.313965

v -1.273438 0.000000 -47.521362

v 19.920410 36.996185 -36.541046

v -0.941895 36.169228 -44.137619

v -1.273438 0.000000 -47.521362

v -18.628906 35.503780 -34.379303

v -0.941895 36.169228 -44.137619

v -22.786133 0.000000 -41.756958

v -36.251953 0.000000 -21.513123

v -18.628906 35.503780 -34.379303

v -34.377930 34.897224 -18.630646

v -47.114258 0.000000 -0.067261

v -34.377930 34.897224 -18.630646

v -36.251953 0.000000 -21.513123

v -39.709961 34.682644 2.086304

v -39.922852 0.000000 22.200745

v -39.709961 34.682644 2.086304

v -47.114258 0.000000 -0.067261

v -36.251953 34.822521 21.513123

v -39.922852 0.000000 22.200745

v -20.503906 35.433010 37.261871

v -23.566406 0.000000 48.585449

v -2.052734 0.000000 54.349915

v -20.503906 35.433010 37.261871

v 1.009766 36.243671 43.026306

v 26.102051 0.000000 40.949829

v 1.009766 36.243671 43.026306

v -2.052734 0.000000 54.349915

v 22.522949 37.106102 37.261871

v 41.639160 0.000000 21.644653

v 38.271484 37.820255 21.513184

v 26.102051 0.000000 40.949829

v 47.114746 0.000000 -0.074921

v 38.271484 37.820255 21.513184

v 44.035645 38.106873 -0.000000

v 38.271484 0.000000 -21.513123

v 34.671875 37.648758 -20.772522

v 44.035645 38.106873 -0.000000

v 28.738281 83.210800 -0.036072

v 28.128418 34.332981 -10.752808

v 25.734863 83.210884 -10.729767

v 31.622559 34.333008 -0.000000

v 25.343750 83.210716 10.600006

v 28.738281 83.210800 -0.036072

v 28.132324 34.333012 10.663300

v 18.991699 34.333004 17.442871

v 25.343750 83.210716 10.600006

v 16.513184 83.210732 17.201508

v 8.143066 34.333038 19.526245

v 16.513184 83.210732 17.201508

v 7.562012 83.210823 17.256805

v 18.981934 34.333008 -17.398407

v 25.734863 83.210884 -10.729767

v 28.128418 34.332981 -10.752808

v 19.009277 83.210823 -17.333038

v 7.675293 34.333008 -17.398438

v 18.981934 34.333008 -17.398407

v 7.642578 83.210739 -17.392273

v 7.659668 132.088547 -17.496735

v 19.229004 132.088455 -18.444641

v 19.229004 132.088455 -18.444641

v 25.734863 83.210884 -10.729767

v 27.595703 132.088379 -11.028320

v 0.111328 83.210693 -10.688965

v 7.675293 34.333008 -17.398438

v -3.119141 34.333035 -11.516968

v 7.642578 83.210739 -17.392273

v 7.659668 132.088547 -17.496735

v 0.111328 83.210693 -10.688965

v -1.528320 132.088379 -10.762726

v 27.595703 132.088379 -11.028320

v 28.738281 83.210800 -0.036072

v 25.734863 83.210884 -10.729767

v 35.411621 132.088318 0.577423

v 25.343750 83.210716 10.600006

v 28.738281 83.210800 -0.036072

v 32.176270 132.088303 13.287445

v 0.064453 83.210724 10.717651

v 7.611328 132.088516 17.526764

v -1.546875 132.088623 10.657227

v 7.562012 83.210823 17.256805

v 16.513184 83.210732 17.201508

v 7.611328 132.088516 17.526764

v 16.940918 132.088486 20.504425

v 16.940918 132.088486 20.504425

v 25.343750 83.210716 10.600006

v 32.176270 132.088303 13.287445

v 16.513184 83.210732 17.201508

v 32.176270 132.088303 13.287445

v 35.411621 132.088318 0.577423

v 16.940918 132.088486 20.504425

v 27.595703 132.088379 -11.028320

v 7.611328 132.088516 17.526764

v -1.546875 132.088623 10.657227

v -5.038086 132.088425 -0.006073

v -1.528320 132.088379 -10.762726

v 7.659668 132.088547 -17.496735

v 19.229004 132.088455 -18.444641

v -0.941895 36.169228 -44.137619

v -18.628906 35.503780 -34.379303

v 19.920410 36.996185 -36.541046

v 34.671875 37.648758 -20.772522

v -34.377930 34.897224 -18.630646

v -39.709961 34.682644 2.086304

v -36.251953 34.822521 21.513123

v -20.503906 35.433010 37.261871

v 1.009766 36.243671 43.026306

v 22.522949 37.106102 37.261871

v 38.271484 37.820255 21.513184

v 44.035645 38.106873 -0.000000

v 0.111328 83.210693 -10.688965

v -5.038086 132.088425 -0.006073

v -1.528320 132.088379 -10.762726

v -2.688965 83.210831 0.020447

v -1.546875 132.088623 10.657227

v 0.064453 83.210724 10.717651

v 27.520020 0.000000 -42.313965

v 38.271484 0.000000 -21.513123

v -1.273438 0.000000 -47.521362

v -22.786133 0.000000 -41.756958

v -36.251953 0.000000 -21.513123

v 47.114746 0.000000 -0.074921

v 41.639160 0.000000 21.644653

v 26.102051 0.000000 40.949829

v -39.922852 0.000000 22.200745

v -47.114258 0.000000 -0.067261

v -2.052734 0.000000 54.349915

v -23.566406 0.000000 48.585449

v -8.032227 34.333008 -0.358124

v 0.111328 83.210693 -10.688965

v -3.119141 34.333035 -11.516968

v -2.688965 83.210831 0.020447

v 0.064453 83.210724 10.717651

v -2.688965 83.210831 0.020447

v -2.804199 34.333008 11.560059

v 8.143066 34.333038 19.526245

v 7.562012 83.210823 17.256805

v -2.804199 34.333008 11.560059



vt 0.343994 0.144531

vt 0.360840 0.144531

vt 0.343994 0.153320

vt 0.360840 0.153320

vt 0.360840 0.163574

vt 0.343994 0.153320

vt 0.343994 0.163574

vt 0.360840 0.049805

vt 0.343994 0.057617

vt 0.343994 0.049805

vt 0.360840 0.057617

vt 0.360840 0.066895

vt 0.343994 0.057617

vt 0.343994 0.066895

vt 0.360840 0.076172

vt 0.343994 0.066895

vt 0.360840 0.066895

vt 0.343994 0.076172

vt 0.360840 0.084961

vt 0.343994 0.076172

vt 0.360840 0.076172

vt 0.343994 0.084961

vt 0.360840 0.084961

vt 0.343994 0.096191

vt 0.360840 0.096191

vt 0.360840 0.105469

vt 0.343994 0.096191

vt 0.343994 0.105469

vt 0.360840 0.116211

vt 0.343994 0.105469

vt 0.360840 0.105469

vt 0.343994 0.116211

vt 0.360840 0.125977

vt 0.343994 0.125977

vt 0.360840 0.116211

vt 0.360840 0.134766

vt 0.343994 0.125977

vt 0.343994 0.134766

vt 0.360840 0.144531

vt 0.343994 0.144531

vt 0.343994 0.134766

vt 0.397949 0.032715

vt 0.420166 0.037109

vt 0.397949 0.037109

vt 0.420166 0.032715

vt 0.397949 0.028320

vt 0.397949 0.032715

vt 0.420166 0.028320

vt 0.420166 0.023438

vt 0.397949 0.028320

vt 0.397949 0.023438

vt 0.420166 0.019043

vt 0.397949 0.023438

vt 0.397949 0.019043

vt 0.420166 0.041992

vt 0.397949 0.037109

vt 0.420166 0.037109

vt 0.397949 0.041992

vt 0.420166 0.046387

vt 0.420166 0.041992

vt 0.397949 0.046387

vt 0.375732 0.046387

vt 0.375732 0.041992

vt 0.375732 0.041992

vt 0.397949 0.037109

vt 0.375732 0.037109

vt 0.397949 0.005371

vt 0.420166 0.000977

vt 0.420166 0.005371

vt 0.397949 0.000977

vt 0.375732 0.000977

vt 0.397949 0.005371

vt 0.375732 0.005371

vt 0.375732 0.037109

vt 0.397949 0.032715

vt 0.397949 0.037109

vt 0.375732 0.032715

vt 0.397949 0.028320

vt 0.397949 0.032715

vt 0.375732 0.028320

vt 0.397949 0.014648

vt 0.375732 0.019043

vt 0.375732 0.014648

vt 0.397949 0.019043

vt 0.397949 0.023438

vt 0.375732 0.019043

vt 0.375732 0.023438

vt 0.375732 0.023438

vt 0.397949 0.028320

vt 0.375732 0.028320

vt 0.397949 0.023438

vt 0.468018 0.096680

vt 0.472656 0.095215

vt 0.465088 0.100586

vt 0.477295 0.096680

vt 0.465088 0.105469

vt 0.468018 0.109375

vt 0.472656 0.110840

vt 0.477295 0.109375

vt 0.479980 0.105469

vt 0.479980 0.100586

vt 0.414307 0.125488

vt 0.411865 0.117188

vt 0.422852 0.129883

vt 0.432129 0.129395

vt 0.411865 0.107910

vt 0.416504 0.100098

vt 0.423340 0.095215

vt 0.432861 0.095215

vt 0.441162 0.100098

vt 0.446045 0.108398

vt 0.446045 0.117676

vt 0.441162 0.125977

vt 0.397949 0.005371

vt 0.375732 0.009766

vt 0.375732 0.005371

vt 0.397949 0.009766

vt 0.375732 0.014648

vt 0.397949 0.014648

vt 0.398682 0.164063

vt 0.398682 0.161133

vt 0.401855 0.166504

vt 0.404785 0.166992

vt 0.407471 0.165527

vt 0.398926 0.157715

vt 0.400879 0.155762

vt 0.403809 0.154297

vt 0.410645 0.160645

vt 0.410156 0.163574

vt 0.407959 0.154297

vt 0.410156 0.156250

vt 0.420166 0.009766

vt 0.397949 0.005371

vt 0.420166 0.005371

vt 0.397949 0.009766

vt 0.397949 0.014648

vt 0.397949 0.009766

vt 0.420166 0.014648

vt 0.420166 0.019043

vt 0.397949 0.019043

vt 0.420166 0.014648



vn 0.858824 0.121569 -0.490196

vn 0.866667 0.121569 -0.482353

vn 0.545098 0.160784 -0.819608

vn 0.568628 0.160784 -0.803922

vn -0.066667 0.152941 -0.992157

vn 0.545098 0.160784 -0.819608

vn -0.058823 0.152941 -0.992157

vn -0.066667 0.152941 -0.992157

vn -0.592157 0.160784 -0.796078

vn -0.058823 0.152941 -0.992157

vn -0.584314 0.160784 -0.803922

vn -0.858824 0.152941 -0.498039

vn -0.592157 0.160784 -0.796078

vn -0.858824 0.152941 -0.498039

vn -0.992157 0.152941 -0.066667

vn -0.858824 0.152941 -0.498039

vn -0.858824 0.152941 -0.498039

vn -0.992157 0.152941 -0.050980

vn -0.890196 0.160784 0.419608

vn -0.992157 0.152941 -0.050980

vn -0.992157 0.152941 -0.066667

vn -0.890196 0.160784 0.427451

vn -0.890196 0.160784 0.419608

vn -0.560784 0.254902 0.788235

vn -0.529412 0.254902 0.803922

vn 0.027451 0.262745 0.960784

vn -0.560784 0.254902 0.788235

vn 0.066667 0.254902 0.960784

vn 0.560784 0.145098 0.811765

vn 0.066667 0.254902 0.960784

vn 0.027451 0.262745 0.960784

vn 0.560784 0.145098 0.811765

vn 0.874510 0.090196 0.458824

vn 0.874510 0.090196 0.466667

vn 0.560784 0.145098 0.811765

vn 0.992157 0.082353 -0.082353

vn 0.874510 0.090196 0.466667

vn 0.992157 0.082353 -0.082353

vn 0.866667 0.121569 -0.482353

vn 0.858824 0.121569 -0.490196

vn 0.992157 0.082353 -0.082353

vn 0.992157 -0.035294 -0.043137

vn 0.835294 0.035294 -0.552941

vn 0.811765 -0.011765 -0.576471

vn 0.992157 0.050980 0.003922

vn 0.788235 -0.043137 0.600000

vn 0.992157 -0.035294 -0.043137

vn 0.811765 0.043137 0.576471

vn 0.364706 0.027451 0.921569

vn 0.788235 -0.043137 0.600000

vn 0.270588 -0.019608 0.960784

vn -0.270588 0.035294 0.960784

vn 0.270588 -0.019608 0.960784

vn -0.349020 0.003922 0.937255

vn 0.341177 0.003922 -0.945098

vn 0.811765 -0.011765 -0.576471

vn 0.835294 0.035294 -0.552941

vn 0.341177 -0.011765 -0.945098

vn -0.301961 0.011765 -0.960784

vn 0.341177 0.003922 -0.945098

vn -0.325490 -0.003922 -0.952941

vn -0.356863 -0.019608 -0.937255

vn 0.341177 -0.027451 -0.945098

vn 0.341177 -0.027451 -0.945098

vn 0.811765 -0.011765 -0.576471

vn 0.803922 -0.058823 -0.600000

vn -0.811765 0.011765 -0.592157

vn -0.301961 0.011765 -0.960784

vn -0.796078 0.058824 -0.607843

vn -0.325490 -0.003922 -0.952941

vn -0.356863 -0.019608 -0.937255

vn -0.811765 0.011765 -0.592157

vn -0.835294 -0.027451 -0.560784

vn 0.803922 -0.058823 -0.600000

vn 0.992157 -0.035294 -0.043137

vn 0.811765 -0.011765 -0.576471

vn 0.984314 -0.121569 -0.082353

vn 0.788235 -0.043137 0.600000

vn 0.992157 -0.035294 -0.043137

vn 0.780392 -0.129412 0.600000

vn -0.827451 0.011765 0.568628

vn -0.411765 -0.027451 0.913726

vn -0.835294 -0.027451 0.545098

vn -0.349020 0.003922 0.937255

vn 0.270588 -0.019608 0.960784

vn -0.411765 -0.027451 0.913726

vn 0.176471 -0.066667 0.976471

vn 0.176471 -0.066667 0.976471

vn 0.788235 -0.043137 0.600000

vn 0.780392 -0.129412 0.600000

vn 0.270588 -0.019608 0.960784

vn -0.003922 1.000000 -0.003922

vn -0.003922 1.000000 -0.003922

vn -0.003922 1.000000 -0.003922

vn -0.003922 1.000000 -0.003922

vn -0.003922 1.000000 -0.003922

vn -0.003922 1.000000 -0.003922

vn -0.003922 1.000000 -0.003922

vn -0.003922 1.000000 -0.003922

vn -0.003922 1.000000 -0.003922

vn -0.003922 1.000000 -0.003922

vn -0.043137 0.992157 -0.003922

vn -0.043137 0.992157 -0.003922

vn -0.043137 0.992157 -0.003922

vn -0.043137 0.992157 -0.003922

vn -0.043137 0.992157 -0.003922

vn -0.043137 0.992157 -0.003922

vn -0.043137 0.992157 -0.003922

vn -0.043137 0.992157 -0.003922

vn -0.043137 0.992157 -0.003922

vn -0.043137 0.992157 -0.003922

vn -0.043137 0.992157 -0.003922

vn -0.043137 0.992157 -0.003922

vn -0.811765 0.011765 -0.592157

vn -1.000000 -0.043137 -0.003922

vn -0.835294 -0.027451 -0.560784

vn -1.000000 0.019608 -0.003922

vn -0.835294 -0.027451 0.545098

vn -0.827451 0.011765 0.568628

vn -0.003922 -1.000000 -0.003922

vn -0.003922 -1.000000 -0.003922

vn -0.003922 -1.000000 -0.003922

vn -0.003922 -1.000000 -0.003922

vn -0.003922 -1.000000 -0.003922

vn -0.003922 -1.000000 -0.003922

vn -0.003922 -1.000000 -0.003922

vn -0.003922 -1.000000 -0.003922

vn -0.003922 -1.000000 -0.003922

vn -0.003922 -1.000000 -0.003922

vn -0.003922 -1.000000 -0.003922

vn -0.003922 -1.000000 -0.003922

vn -1.000000 0.082353 -0.003922

vn -0.811765 0.011765 -0.592157

vn -0.796078 0.058824 -0.607843

vn -1.000000 0.019608 -0.003922

vn -0.827451 0.011765 0.568628

vn -1.000000 0.019608 -0.003922

vn -0.819608 0.058824 0.576471

vn -0.270588 0.035294 0.960784

vn -0.349020 0.003922 0.937255

vn -0.819608 0.058824 0.576471

f 1/1/1 2/2/2 3/3/3

f 4/4/4 3/3/3 2/2/2

f 5/5/5 6/6/6 4/4/4

f 6/6/6 5/5/5 7/7/7

f 8/8/8 9/9/9 10/10/10

f 11/11/11 9/9/9 8/8/8

f 12/12/12 13/13/13 11/11/11

f 13/13/13 12/12/12 14/14/14

f 15/15/15 16/16/16 17/17/17

f 16/16/16 15/15/15 18/18/18

f 19/19/19 20/20/20 21/21/21

f 20/20/20 19/19/19 22/22/22

f 23/23/23 24/24/24 22/22/22

f 24/24/24 23/23/23 25/25/25

f 26/26/26 27/27/27 25/25/25

f 27/27/27 26/26/26 28/28/28

f 29/29/29 30/30/30 31/31/31

f 30/30/30 29/29/29 32/32/32

f 32/32/32 33/33/33 34/34/34

f 33/33/33 32/32/32 35/35/35

f 36/36/36 37/37/37 33/33/33

f 37/37/37 36/36/36 38/38/38

f 39/39/39 40/40/40 36/36/36

f 41/41/41 36/36/36 40/40/40

f 42/42/42 43/43/43 44/44/44

f 43/43/43 42/42/42 45/45/45

f 46/46/46 45/45/45 47/47/47

f 45/45/45 46/46/46 48/48/48

f 49/49/49 48/48/48 50/50/50

f 51/51/51 49/49/49 50/50/50

f 52/52/52 49/49/49 53/53/53

f 54/54/54 52/52/52 53/53/53

f 55/55/55 56/56/56 57/57/57

f 56/56/56 55/55/55 58/58/58

f 59/59/59 58/58/58 60/60/60

f 58/58/58 59/59/59 61/61/61

f 62/62/62 58/58/58 61/61/61

f 58/58/58 62/62/62 63/63/63

f 64/64/64 65/65/65 58/58/58

f 65/65/65 64/64/64 66/66/66

f 67/67/67 68/68/68 69/69/69

f 68/68/68 67/67/67 70/70/70

f 71/71/71 70/70/70 72/72/72

f 72/72/72 73/73/73 71/71/71

f 74/74/74 75/75/75 76/76/76

f 75/75/75 74/74/74 77/77/77

f 77/77/77 78/78/78 79/79/79

f 78/78/78 77/77/77 80/80/80

f 81/81/81 82/82/82 83/83/83

f 82/82/82 81/81/81 84/84/84

f 85/85/85 86/86/86 84/84/84

f 86/86/86 85/85/85 87/87/87

f 88/88/88 89/89/89 90/90/90

f 89/89/89 88/88/88 91/91/91

f 92/92/92 93/93/93 94/94/94

f 93/93/93 95/95/95 94/94/94

f 94/94/94 95/95/95 96/96/96

f 96/96/96 95/95/95 97/97/97

f 97/97/97 95/95/95 98/98/98

f 98/98/98 95/95/95 99/99/99

f 99/99/99 95/95/95 100/100/100

f 95/95/95 101/101/101 100/100/100

f 102/102/102 103/103/103 104/104/104

f 104/104/104 103/103/103 105/105/105

f 103/103/103 106/106/106 105/105/105

f 106/106/106 107/107/107 105/105/105

f 107/107/107 108/108/108 105/105/105

f 108/108/108 109/109/109 105/105/105

f 109/109/109 110/110/110 105/105/105

f 110/110/110 111/111/111 105/105/105

f 111/111/111 112/112/112 105/105/105

f 113/113/113 105/105/105 112/112/112

f 114/114/114 115/115/115 116/116/116

f 115/115/115 114/114/114 117/117/117

f 117/117/117 118/118/118 115/115/115

f 118/118/118 117/117/117 119/119/119

f 120/120/120 121/121/121 122/122/122

f 123/123/123 122/122/122 121/121/121

f 124/124/124 123/123/123 121/121/121

f 125/125/125 124/124/124 121/121/121

f 126/126/126 124/124/124 125/125/125

f 127/127/127 124/124/124 126/126/126

f 128/128/128 124/124/124 127/127/127

f 129/129/129 124/124/124 128/128/128

f 130/130/130 128/128/128 127/127/127

f 131/131/131 128/128/128 130/130/130

f 132/132/132 133/133/133 134/134/134

f 133/133/133 132/132/132 135/135/135

f 132/132/132 136/136/136 137/137/137

f 136/136/136 132/132/132 138/138/138

f 136/136/136 139/139/139 140/140/140

f 139/139/139 136/136/136 141/141/141

