# UnrealEd OBJ exporter (_Internal)



v 22.062500 -16.930008 95.720093

v 25.655273 -7.269806 95.720093

v 41.016602 -7.450592 95.720093

v 22.062500 -16.930008 112.747925

v 41.016602 -7.450592 112.747925

v 25.655273 -7.269806 112.747925

v 22.062500 -19.790024 -114.662231

v 25.655273 -10.129822 -114.662231

v 41.016602 -10.310608 -114.662231

v 22.062500 -19.790024 -97.634399

v 41.016602 -10.310608 -97.634399

v 25.655273 -10.129822 -97.634399

v 39.494629 -19.507401 95.720093

v 22.062500 -16.930008 95.720093

v 41.016602 -7.450592 95.720093

v 39.494629 -19.507401 95.720093

v 5.888184 -46.251053 95.720093

v -0.114258 -34.969513 95.720093

v 0.000000 -59.923203 95.720093

v 3.322510 -57.561401 95.720093

v 39.494629 -22.367416 -114.662231

v 22.062500 -19.790024 -114.662231

v 41.016602 -10.310608 -114.662231

v 39.494629 -22.367416 -114.662231

v 5.888184 -49.111069 -114.662231

v -0.114258 -37.829529 -114.662231

v 0.000000 -62.783218 -114.662231

v 3.322510 -60.421417 -114.662231

v 50.895020 0.000000 146.715881

v 0.087158 0.000000 146.715881

v 0.087158 -8.971558 146.715881

v 50.895020 -8.971558 146.715881

v 50.895020 -11.831573 -146.715881

v 0.087158 -11.831573 -146.715881

v 0.087158 -2.860016 -146.715881

v 50.895020 -2.860016 -146.715881

v 41.016602 -7.450592 112.747925

v 39.494629 -19.507401 112.747925

v 41.016602 -7.450592 95.720093

v 39.494629 -19.507401 95.720093

v 41.016602 -10.310608 -97.634399

v 39.494629 -22.367416 -97.634399

v 41.016602 -10.310608 -114.662231

v 39.494629 -22.367416 -114.662231

v 39.494629 -19.507401 112.747925

v 41.016602 -7.450592 112.747925

v 22.062500 -16.930008 112.747925

v 5.888184 -46.251053 112.747925

v -0.114258 -34.969513 112.747925

v 0.000000 -59.923203 112.747925

v 3.322510 -57.561401 112.747925

v 0.000000 -59.923203 112.747925

v 0.000000 -59.923203 95.720093

v 3.322510 -57.561401 95.720093

v 3.322510 -57.561401 112.747925

v 5.888184 -46.251053 95.720093

v 5.888184 -46.251053 112.747925

v 39.494629 -19.507401 112.747925

v 39.494629 -19.507401 95.720093

v 39.494629 -22.367416 -97.634399

v 41.016602 -10.310608 -97.634399

v 22.062500 -19.790024 -97.634399

v 5.888184 -49.111069 -97.634399

v -0.114258 -37.829529 -97.634399

v 0.000000 -62.783218 -97.634399

v 3.322510 -60.421417 -97.634399

v 0.000000 -62.783218 -97.634399

v 0.000000 -62.783218 -114.662231

v 3.322510 -60.421417 -114.662231

v 3.322510 -60.421417 -97.634399

v 5.888184 -49.111069 -114.662231

v 5.888184 -49.111069 -97.634399

v 39.494629 -22.367416 -97.634399

v 39.494629 -22.367416 -114.662231

v 50.895020 0.000000 146.715881

v 50.895020 -2.634430 53.902351

v 0.087158 0.000000 146.715881

v 0.086914 -2.634430 53.902351

v 50.895020 -2.634430 -50.916054

v 0.086914 -2.634430 -50.916054

v 0.087158 -2.860016 -146.715881

v 50.895020 -2.860016 -146.715881

v 0.087158 -8.971558 146.715881

v 0.087158 -11.605972 53.902359

v 50.895020 -8.971558 146.715881

v 50.895020 -11.605972 53.902359

v 0.087158 -11.605972 -50.916054

v 50.895020 -11.605972 -50.916054

v 0.087158 -11.831573 -146.715881

v 50.895020 -11.831573 -146.715881

v 50.895020 -2.634430 53.902351

v 50.895020 0.000000 146.715881

v 50.895020 -8.971558 146.715881

v 50.895020 -11.605972 53.902359

v 50.895020 -11.605972 -50.916054

v 50.895020 -2.634430 -50.916054

v 50.895020 -2.860016 -146.715881

v 50.895020 -11.831573 -146.715881

v 25.655273 -7.269806 112.747925

v 25.655273 -7.269806 95.720093

v 22.062500 -16.930008 95.720093

v 22.062500 -16.930008 112.747925

v -0.114258 -34.969513 112.747925

v -0.114258 -34.969513 95.720093

v 25.655273 -10.129822 -97.634399

v 25.655273 -10.129822 -114.662231

v 22.062500 -19.790024 -114.662231

v 22.062500 -19.790024 -97.634399

v -0.114258 -37.829529 -97.634399

v -0.114258 -37.829529 -114.662231



vt 0.433105 0.789673

vt 0.437744 0.796997

vt 0.429932 0.807129

vt 0.381592 0.754517

vt 0.364990 0.760254

vt 0.374023 0.750977

vt 0.433105 0.789673

vt 0.437744 0.796997

vt 0.429932 0.807129

vt 0.381592 0.754517

vt 0.364990 0.760254

vt 0.374023 0.750977

vt 0.422607 0.800049

vt 0.433105 0.789673

vt 0.429932 0.807129

vt 0.422607 0.800049

vt 0.421875 0.764404

vt 0.432373 0.766113

vt 0.415771 0.753540

vt 0.415771 0.756958

vt 0.422607 0.800049

vt 0.433105 0.789673

vt 0.429932 0.807129

vt 0.422607 0.800049

vt 0.421875 0.764404

vt 0.432373 0.766113

vt 0.415771 0.753540

vt 0.415771 0.756958

vt 0.106934 0.391113

vt 0.106934 0.413086

vt 0.102661 0.413086

vt 0.102661 0.391113

vt 0.111877 0.390625

vt 0.111877 0.412598

vt 0.107666 0.412598

vt 0.107666 0.390625

vt 0.374756 0.819824

vt 0.364990 0.819824

vt 0.374512 0.808472

vt 0.364990 0.808472

vt 0.374756 0.819824

vt 0.364990 0.819824

vt 0.374512 0.808472

vt 0.364990 0.808472

vt 0.373047 0.766235

vt 0.364990 0.760254

vt 0.381592 0.754517

vt 0.408691 0.761841

vt 0.405273 0.751709

vt 0.420166 0.766479

vt 0.416748 0.767090

vt 0.318604 0.819824

vt 0.318359 0.808472

vt 0.321533 0.808472

vt 0.321777 0.819824

vt 0.330566 0.808472

vt 0.330566 0.819824

vt 0.364990 0.819824

vt 0.364990 0.808472

vt 0.373047 0.766235

vt 0.364990 0.760254

vt 0.381592 0.754517

vt 0.408691 0.761841

vt 0.405273 0.751709

vt 0.420166 0.766479

vt 0.416748 0.767090

vt 0.318604 0.819824

vt 0.318359 0.808472

vt 0.321533 0.808472

vt 0.321777 0.819824

vt 0.330566 0.808472

vt 0.330566 0.819824

vt 0.364990 0.819824

vt 0.364990 0.808472

vt 0.001204 0.354004

vt 0.045013 0.354004

vt 0.001204 0.375977

vt 0.045013 0.375977

vt 0.094482 0.354004

vt 0.094482 0.375977

vt 0.139648 0.375977

vt 0.139648 0.354004

vt 0.139893 0.353027

vt 0.096069 0.353027

vt 0.139893 0.331055

vt 0.096069 0.331055

vt 0.046631 0.353027

vt 0.046631 0.331055

vt 0.001411 0.353027

vt 0.001411 0.331055

vt 0.075500 0.389648

vt 0.031677 0.389648

vt 0.031677 0.385254

vt 0.075500 0.385254

vt 0.124939 0.385254

vt 0.124939 0.389648

vt 0.170166 0.389648

vt 0.170166 0.385254

vt 0.374756 0.819824

vt 0.375000 0.808472

vt 0.383301 0.808472

vt 0.383301 0.819824

vt 0.406982 0.819824

vt 0.406982 0.808472

vt 0.374756 0.819824

vt 0.375000 0.808472

vt 0.383301 0.808472

vt 0.383301 0.819824

vt 0.406982 0.819824

vt 0.406982 0.808472



vn -0.003922 -0.003922 -1.000000

vn -0.003922 -0.003922 -1.000000

vn -0.003922 -0.003922 -1.000000

vn -0.003922 -0.003922 1.000000

vn -0.003922 -0.003922 1.000000

vn -0.003922 -0.003922 1.000000

vn -0.003922 -0.003922 -1.000000

vn -0.003922 -0.003922 -1.000000

vn -0.003922 -0.003922 -1.000000

vn -0.003922 -0.003922 1.000000

vn -0.003922 -0.003922 1.000000

vn -0.003922 -0.003922 1.000000

vn -0.003922 -0.003922 -1.000000

vn -0.003922 -0.003922 -1.000000

vn -0.003922 -0.003922 -1.000000

vn -0.003922 -0.003922 -1.000000

vn -0.003922 -0.003922 -1.000000

vn -0.003922 -0.003922 -1.000000

vn -0.003922 -0.003922 -1.000000

vn -0.003922 -0.003922 -1.000000

vn -0.003922 -0.003922 -1.000000

vn -0.003922 -0.003922 -1.000000

vn -0.003922 -0.003922 -1.000000

vn -0.003922 -0.003922 -1.000000

vn -0.003922 -0.003922 -1.000000

vn -0.003922 -0.003922 -1.000000

vn -0.003922 -0.003922 -1.000000

vn -0.003922 -0.003922 -1.000000

vn -0.003922 -0.003922 1.000000

vn -0.003922 -0.003922 1.000000

vn -0.003922 -0.003922 1.000000

vn -0.003922 -0.003922 1.000000

vn -0.003922 -0.003922 -1.000000

vn -0.003922 -0.003922 -1.000000

vn -0.003922 -0.003922 -1.000000

vn -0.003922 -0.003922 -1.000000

vn 0.992157 -0.074510 -0.003922

vn 0.984314 -0.168627 -0.003922

vn 0.992157 -0.074510 -0.003922

vn 0.984314 -0.168627 -0.003922

vn 0.992157 -0.074510 -0.003922

vn 0.984314 -0.168627 -0.003922

vn 0.992157 -0.074510 -0.003922

vn 0.984314 -0.168627 -0.003922

vn -0.003922 -0.003922 1.000000

vn -0.003922 -0.003922 1.000000

vn -0.003922 -0.003922 1.000000

vn -0.003922 -0.003922 1.000000

vn -0.003922 -0.003922 1.000000

vn -0.003922 -0.003922 1.000000

vn -0.003922 -0.003922 1.000000

vn 0.576471 -0.819608 -0.003922

vn 0.576471 -0.819608 -0.003922

vn 0.866667 -0.498039 -0.003922

vn 0.866667 -0.498039 -0.003922

vn 0.827451 -0.560784 -0.003922

vn 0.827451 -0.560784 -0.003922

vn 0.576471 -0.819608 -0.003922

vn 0.576471 -0.819608 -0.003922

vn -0.003922 -0.003922 1.000000

vn -0.003922 -0.003922 1.000000

vn -0.003922 -0.003922 1.000000

vn -0.003922 -0.003922 1.000000

vn -0.003922 -0.003922 1.000000

vn -0.003922 -0.003922 1.000000

vn -0.003922 -0.003922 1.000000

vn 0.576471 -0.819608 -0.003922

vn 0.576471 -0.819608 -0.003922

vn 0.866667 -0.498039 -0.003922

vn 0.866667 -0.498039 -0.003922

vn 0.827451 -0.560784 -0.003922

vn 0.827451 -0.560784 -0.003922

vn 0.576471 -0.819608 -0.003922

vn 0.576471 -0.819608 -0.003922

vn -0.003922 0.992157 -0.035294

vn -0.003922 0.992157 -0.019608

vn -0.003922 0.992157 -0.035294

vn -0.003922 0.992157 -0.019608

vn -0.003922 0.992157 -0.003922

vn -0.003922 0.992157 -0.003922

vn -0.003922 0.992157 -0.003922

vn -0.003922 0.992157 -0.003922

vn -0.003922 -1.000000 0.027451

vn -0.003922 -1.000000 0.011765

vn -0.003922 -1.000000 0.027451

vn -0.003922 -1.000000 0.011765

vn -0.003922 -1.000000 -0.003922

vn -0.003922 -1.000000 -0.003922

vn -0.003922 -1.000000 -0.003922

vn -0.003922 -1.000000 -0.003922

vn 1.000000 -0.003922 -0.003922

vn 1.000000 -0.003922 -0.003922

vn 1.000000 -0.003922 -0.003922

vn 1.000000 -0.003922 -0.003922

vn 1.000000 -0.003922 -0.003922

vn 1.000000 -0.003922 -0.003922

vn 1.000000 -0.003922 -0.003922

vn 1.000000 -0.003922 -0.003922

vn -0.921569 0.396078 -0.003922

vn -0.921569 0.396078 -0.003922

vn -0.858824 0.513726 -0.003922

vn -0.858824 0.513726 -0.003922

vn -0.474510 0.874510 -0.003922

vn -0.474510 0.874510 -0.003922

vn -0.921569 0.396078 -0.003922

vn -0.921569 0.396078 -0.003922

vn -0.858824 0.513726 -0.003922

vn -0.858824 0.513726 -0.003922

vn -0.474510 0.874510 -0.003922

vn -0.474510 0.874510 -0.003922

f 1/1/1 2/2/2 3/3/3

f 4/4/4 5/5/5 6/6/6

f 7/7/7 8/8/8 9/9/9

f 10/10/10 11/11/11 12/12/12

f 13/13/13 14/14/14 15/15/15

f 16/16/16 17/17/17 14/14/14

f 14/14/14 17/17/17 18/18/18

f 19/19/19 18/18/18 17/17/17

f 19/19/19 17/17/17 20/20/20

f 21/21/21 22/22/22 23/23/23

f 24/24/24 25/25/25 22/22/22

f 22/22/22 25/25/25 26/26/26

f 27/27/27 26/26/26 25/25/25

f 27/27/27 25/25/25 28/28/28

f 29/29/29 30/30/30 31/31/31

f 29/29/29 31/31/31 32/32/32

f 33/33/33 34/34/34 35/35/35

f 33/33/33 35/35/35 36/36/36

f 37/37/37 38/38/38 39/39/39

f 38/38/38 40/40/40 39/39/39

f 41/41/41 42/42/42 43/43/43

f 42/42/42 44/44/44 43/43/43

f 45/45/45 46/46/46 47/47/47

f 47/47/47 48/48/48 45/45/45

f 48/48/48 47/47/47 49/49/49

f 49/49/49 50/50/50 48/48/48

f 48/48/48 50/50/50 51/51/51

f 52/52/52 53/53/53 54/54/54

f 54/54/54 55/55/55 52/52/52

f 55/55/55 54/54/54 56/56/56

f 57/57/57 55/55/55 56/56/56

f 58/58/58 57/57/57 56/56/56

f 58/58/58 56/56/56 59/59/59

f 60/60/60 61/61/61 62/62/62

f 62/62/62 63/63/63 60/60/60

f 63/63/63 62/62/62 64/64/64

f 64/64/64 65/65/65 63/63/63

f 63/63/63 65/65/65 66/66/66

f 67/67/67 68/68/68 69/69/69

f 69/69/69 70/70/70 67/67/67

f 70/70/70 69/69/69 71/71/71

f 72/72/72 70/70/70 71/71/71

f 73/73/73 72/72/72 71/71/71

f 73/73/73 71/71/71 74/74/74

f 75/75/75 76/76/76 77/77/77

f 77/77/77 76/76/76 78/78/78

f 76/76/76 79/79/79 78/78/78

f 78/78/78 79/79/79 80/80/80

f 79/79/79 81/81/81 80/80/80

f 81/81/81 79/79/79 82/82/82

f 83/83/83 84/84/84 85/85/85

f 85/85/85 84/84/84 86/86/86

f 84/84/84 87/87/87 86/86/86

f 86/86/86 87/87/87 88/88/88

f 87/87/87 89/89/89 88/88/88

f 88/88/88 89/89/89 90/90/90

f 91/91/91 92/92/92 93/93/93

f 93/93/93 94/94/94 91/91/91

f 94/94/94 95/95/95 91/91/91

f 91/91/91 95/95/95 96/96/96

f 95/95/95 97/97/97 96/96/96

f 97/97/97 95/95/95 98/98/98

f 99/99/99 100/100/100 101/101/101

f 101/101/101 102/102/102 99/99/99

f 102/102/102 101/101/101 103/103/103

f 103/103/103 101/101/101 104/104/104

f 105/105/105 106/106/106 107/107/107

f 107/107/107 108/108/108 105/105/105

f 108/108/108 107/107/107 109/109/109

f 109/109/109 107/107/107 110/110/110

