# UnrealEd OBJ exporter (_Internal)



v 55.839855 49.637589 9.846132

v 53.281879 49.637554 -19.393003

v 55.839855 99.275047 9.846134

v 53.281879 99.275246 -19.393002

v 36.446938 49.637619 -43.435822

v 53.281879 99.275246 -19.393002

v 53.281879 49.637554 -19.393003

v 36.446938 99.275185 -43.435844

v 36.446938 49.637619 -43.435822

v 9.846070 99.275169 -55.839897

v 36.446938 99.275185 -43.435844

v 9.846070 49.637589 -55.839874

v 9.846070 49.637589 -55.839874

v -19.392979 99.275047 -53.281914

v 9.846070 99.275169 -55.839897

v -19.392979 49.637592 -53.281891

v -43.435707 49.637608 -36.446930

v -19.392979 99.275047 -53.281914

v -19.392979 49.637592 -53.281891

v -43.435707 99.275055 -36.446896

v -55.839855 49.637554 -9.846097

v -55.839855 99.275246 -9.846096

v -43.435707 99.275055 -36.446896

v -43.435707 49.637608 -36.446930

v -53.281750 99.275047 19.392979

v -55.839855 49.637554 -9.846097

v -53.281750 49.637592 19.392977

v -55.839855 99.275246 -9.846096

v -36.446938 99.275108 43.435616

v -53.281750 49.637592 19.392977

v -36.446938 49.637527 43.435638

v -53.281750 99.275047 19.392979

v -9.846070 49.637558 55.839935

v -9.846070 99.275124 55.839912

v -36.446938 99.275108 43.435616

v -36.446938 49.637527 43.435638

v 19.392979 99.275246 53.281807

v -9.846070 99.275124 55.839912

v 19.392979 49.637554 53.281830

v -9.846070 49.637558 55.839935

v 43.435707 99.275223 36.446964

v 19.392979 49.637554 53.281830

v 43.435707 49.637535 36.446930

v 19.392979 99.275246 53.281807

v 43.435707 49.637535 36.446930

v 55.839855 99.275047 9.846134

v 43.435707 99.275223 36.446964

v 55.839855 49.637589 9.846132

v 47.242870 -0.034645 -17.195032

v 55.839855 49.637589 9.846132

v 49.511089 -0.034645 8.730185

v 53.281879 49.637554 -19.393003

v 55.839855 99.275047 9.846134

v 47.242870 148.912766 -17.195034

v 49.511089 148.912918 8.730183

v 53.281879 99.275246 -19.393002

v 53.281879 49.637554 -19.393003

v 47.242870 -0.034645 -17.195032

v 32.316086 -0.034645 -38.512810

v 36.446938 49.637619 -43.435822

v 53.281879 99.275246 -19.393002

v 32.316086 148.912872 -38.512840

v 47.242870 148.912766 -17.195034

v 36.446938 99.275185 -43.435844

v 32.316086 -0.034645 -38.512810

v 9.846070 49.637589 -55.839874

v 36.446938 49.637619 -43.435822

v 8.730183 -0.034645 -49.511097

v 32.316086 148.912872 -38.512840

v 36.446938 99.275185 -43.435844

v 9.846070 99.275169 -55.839897

v 8.730183 148.912933 -49.511074

v -17.195026 -0.034645 -47.242908

v 9.846070 49.637589 -55.839874

v 8.730183 -0.034645 -49.511097

v -19.392979 49.637592 -53.281891

v 9.846070 99.275169 -55.839897

v -17.195026 148.912796 -47.242886

v 8.730183 148.912933 -49.511074

v -19.392979 99.275047 -53.281914

v -38.512787 -0.034645 -32.316093

v -19.392979 49.637592 -53.281891

v -17.195026 -0.034645 -47.242908

v -43.435707 49.637608 -36.446930

v -19.392979 99.275047 -53.281914

v -38.512787 148.912766 -32.316124

v -17.195026 148.912796 -47.242886

v -43.435707 99.275055 -36.446896

v -55.839855 49.637554 -9.846097

v -38.512787 -0.034645 -32.316093

v -49.511089 -0.034645 -8.730158

v -43.435707 49.637608 -36.446930

v -55.839855 99.275246 -9.846096

v -49.511089 148.912766 -8.730160

v -38.512787 148.912766 -32.316124

v -43.435707 99.275055 -36.446896

v -47.243004 -0.034645 17.195013

v -53.281750 49.637592 19.392977

v -55.839855 49.637554 -9.846097

v -49.511089 -0.034645 -8.730158

v -47.243004 148.912918 17.195011

v -55.839855 99.275246 -9.846096

v -53.281750 99.275047 19.392979

v -49.511089 148.912766 -8.730160

v -32.316086 -0.034645 38.512825

v -36.446938 49.637527 43.435638

v -53.281750 49.637592 19.392977

v -47.243004 -0.034645 17.195013

v -32.316086 148.912811 38.512794

v -53.281750 99.275047 19.392979

v -36.446938 99.275108 43.435616

v -47.243004 148.912918 17.195011

v -9.846070 49.637558 55.839935

v -32.316086 -0.034645 38.512825

v -8.730183 -0.034645 49.511120

v -36.446938 49.637527 43.435638

v -32.316086 148.912811 38.512794

v -9.846070 99.275124 55.839912

v -8.730183 148.912750 49.511143

v -36.446938 99.275108 43.435616

v 17.195026 -0.034645 47.242931

v 19.392979 49.637554 53.281830

v -9.846070 49.637558 55.839935

v -8.730183 -0.034645 49.511120

v 17.195026 148.912888 47.242954

v -9.846070 99.275124 55.839912

v 19.392979 99.275246 53.281807

v -8.730183 148.912750 49.511143

v 38.512787 -0.034645 32.316109

v 43.435707 49.637535 36.446930

v 19.392979 49.637554 53.281830

v 17.195026 -0.034645 47.242931

v 19.392979 99.275246 53.281807

v 38.512787 148.912918 32.316078

v 17.195026 148.912888 47.242954

v 43.435707 99.275223 36.446964

v 38.512787 -0.034645 32.316109

v 55.839855 49.637589 9.846132

v 43.435707 49.637535 36.446930

v 49.511089 -0.034645 8.730185

v 38.512787 148.912918 32.316078

v 43.435707 99.275223 36.446964

v 55.839855 99.275047 9.846134

v 49.511089 148.912918 8.730183

v 8.730183 148.912933 -49.511074

v 47.242870 148.912766 -17.195034

v 32.316086 148.912872 -38.512840

v -17.195026 148.912796 -47.242886

v -49.511089 148.912766 -8.730160

v -38.512787 148.912766 -32.316124

v 38.512787 148.912918 32.316078

v 49.511089 148.912918 8.730183

v -32.316086 148.912811 38.512794

v -47.243004 148.912918 17.195011

v 17.195026 148.912888 47.242954

v -8.730183 148.912750 49.511143

v 38.512787 -0.034645 32.316109

v 47.242870 -0.034645 -17.195032

v 49.511089 -0.034645 8.730185

v 17.195026 -0.034645 47.242931

v 8.730183 -0.034645 -49.511097

v 32.316086 -0.034645 -38.512810

v -17.195026 -0.034645 -47.242908

v -32.316086 -0.034645 38.512825

v -8.730183 -0.034645 49.511120

v -49.511089 -0.034645 -8.730158

v -38.512787 -0.034645 -32.316093

v -47.243004 -0.034645 17.195013



vt 0.210327 0.713135

vt 0.220093 0.713135

vt 0.210327 0.731445

vt 0.220093 0.731445

vt 0.229736 0.713135

vt 0.220093 0.731445

vt 0.220093 0.713135

vt 0.229736 0.731445

vt 0.229736 0.713135

vt 0.239380 0.731445

vt 0.229736 0.731445

vt 0.239380 0.713135

vt 0.239380 0.713135

vt 0.249023 0.731445

vt 0.239380 0.731445

vt 0.249023 0.713135

vt 0.142700 0.713135

vt 0.133057 0.731445

vt 0.133057 0.713135

vt 0.142700 0.731445

vt 0.152344 0.713135

vt 0.152344 0.731445

vt 0.142700 0.731445

vt 0.142700 0.713135

vt 0.161987 0.731445

vt 0.152344 0.713135

vt 0.161987 0.713135

vt 0.152344 0.731445

vt 0.171631 0.731445

vt 0.161987 0.713135

vt 0.171631 0.713135

vt 0.161987 0.731445

vt 0.181396 0.713135

vt 0.181396 0.731445

vt 0.171631 0.731445

vt 0.171631 0.713135

vt 0.191040 0.731445

vt 0.181396 0.731445

vt 0.191040 0.713135

vt 0.181396 0.713135

vt 0.200684 0.731445

vt 0.191040 0.713135

vt 0.200684 0.713135

vt 0.191040 0.731445

vt 0.200684 0.713135

vt 0.210327 0.731445

vt 0.200684 0.731445

vt 0.210327 0.713135

vt 0.220093 0.694824

vt 0.210327 0.713135

vt 0.210327 0.694824

vt 0.220093 0.713135

vt 0.210327 0.731445

vt 0.220093 0.749756

vt 0.210327 0.749756

vt 0.220093 0.731445

vt 0.220093 0.713135

vt 0.220093 0.694824

vt 0.229736 0.694824

vt 0.229736 0.713135

vt 0.220093 0.731445

vt 0.229736 0.749756

vt 0.220093 0.749756

vt 0.229736 0.731445

vt 0.229736 0.694824

vt 0.239380 0.713135

vt 0.229736 0.713135

vt 0.239380 0.694824

vt 0.229736 0.749756

vt 0.229736 0.731445

vt 0.239380 0.731445

vt 0.239380 0.749756

vt 0.249023 0.694824

vt 0.239380 0.713135

vt 0.239380 0.694824

vt 0.249023 0.713135

vt 0.239380 0.731445

vt 0.249023 0.749756

vt 0.239380 0.749756

vt 0.249023 0.731445

vt 0.142700 0.694824

vt 0.133057 0.713135

vt 0.133057 0.694824

vt 0.142700 0.713135

vt 0.133057 0.731445

vt 0.142700 0.749756

vt 0.133057 0.749756

vt 0.142700 0.731445

vt 0.152344 0.713135

vt 0.142700 0.694824

vt 0.152344 0.694824

vt 0.142700 0.713135

vt 0.152344 0.731445

vt 0.152344 0.749756

vt 0.142700 0.749756

vt 0.142700 0.731445

vt 0.161987 0.694824

vt 0.161987 0.713135

vt 0.152344 0.713135

vt 0.152344 0.694824

vt 0.161987 0.749756

vt 0.152344 0.731445

vt 0.161987 0.731445

vt 0.152344 0.749756

vt 0.171631 0.694824

vt 0.171631 0.713135

vt 0.161987 0.713135

vt 0.161987 0.694824

vt 0.171631 0.749756

vt 0.161987 0.731445

vt 0.171631 0.731445

vt 0.161987 0.749756

vt 0.181396 0.713135

vt 0.171631 0.694824

vt 0.181396 0.694824

vt 0.171631 0.713135

vt 0.171631 0.749756

vt 0.181396 0.731445

vt 0.181396 0.749756

vt 0.171631 0.731445

vt 0.191040 0.694824

vt 0.191040 0.713135

vt 0.181396 0.713135

vt 0.181396 0.694824

vt 0.191040 0.749756

vt 0.181396 0.731445

vt 0.191040 0.731445

vt 0.181396 0.749756

vt 0.200684 0.694824

vt 0.200684 0.713135

vt 0.191040 0.713135

vt 0.191040 0.694824

vt 0.191040 0.731445

vt 0.200684 0.749756

vt 0.191040 0.749756

vt 0.200684 0.731445

vt 0.200684 0.694824

vt 0.210327 0.713135

vt 0.200684 0.713135

vt 0.210327 0.694824

vt 0.200684 0.749756

vt 0.200684 0.731445

vt 0.210327 0.731445

vt 0.210327 0.749756

vt 0.201782 0.522949

vt 0.213623 0.537109

vt 0.205811 0.531494

vt 0.202637 0.513428

vt 0.216797 0.501465

vt 0.208130 0.505371

vt 0.231934 0.533691

vt 0.223267 0.537842

vt 0.234131 0.507813

vt 0.226318 0.502197

vt 0.237427 0.525879

vt 0.238159 0.516357

vt 0.231934 0.533691

vt 0.213623 0.537109

vt 0.223267 0.537842

vt 0.237427 0.525879

vt 0.201782 0.522949

vt 0.205811 0.531494

vt 0.202637 0.513428

vt 0.234131 0.507813

vt 0.238159 0.516357

vt 0.216797 0.501465

vt 0.208130 0.505371

vt 0.226318 0.502197



vn 0.976471 -0.066667 0.168628

vn 0.937255 -0.066667 -0.349020

vn 0.976471 0.058824 0.168628

vn 0.937255 0.058824 -0.349020

vn 0.639216 -0.066667 -0.764706

vn 0.937255 0.058824 -0.349020

vn 0.937255 -0.066667 -0.349020

vn 0.639216 0.058824 -0.764706

vn 0.639216 -0.066667 -0.764706

vn 0.168628 0.058824 -0.984314

vn 0.639216 0.058824 -0.764706

vn 0.168628 -0.066667 -0.984314

vn 0.168628 -0.066667 -0.984314

vn -0.349020 0.058824 -0.945098

vn 0.168628 0.058824 -0.984314

vn -0.349020 -0.066667 -0.945098

vn -0.764706 -0.066667 -0.647059

vn -0.349020 0.058824 -0.945098

vn -0.349020 -0.066667 -0.945098

vn -0.764706 0.058824 -0.647059

vn -0.984314 -0.066667 -0.176471

vn -0.984314 0.058824 -0.176471

vn -0.764706 0.058824 -0.647059

vn -0.764706 -0.066667 -0.647059

vn -0.945098 0.058824 0.341177

vn -0.984314 -0.066667 -0.176471

vn -0.945098 -0.066667 0.341177

vn -0.984314 0.058824 -0.176471

vn -0.647059 0.058824 0.756863

vn -0.945098 -0.066667 0.341177

vn -0.647059 -0.066667 0.756863

vn -0.945098 0.058824 0.341177

vn -0.176471 -0.066667 0.976471

vn -0.176471 0.058824 0.976471

vn -0.647059 0.058824 0.756863

vn -0.647059 -0.066667 0.756863

vn 0.341177 0.058824 0.937255

vn -0.176471 0.058824 0.976471

vn 0.341177 -0.066667 0.937255

vn -0.176471 -0.066667 0.976471

vn 0.756863 0.058824 0.639216

vn 0.341177 -0.066667 0.937255

vn 0.756863 -0.066667 0.639216

vn 0.341177 0.058824 0.937255

vn 0.756863 -0.066667 0.639216

vn 0.976471 0.058824 0.168628

vn 0.756863 0.058824 0.639216

vn 0.976471 -0.066667 0.168628

vn 0.929412 -0.129412 -0.341176

vn 0.976471 -0.066667 0.168628

vn 0.976471 -0.129412 0.168628

vn 0.937255 -0.066667 -0.349020

vn 0.976471 0.058824 0.168628

vn 0.929412 0.121569 -0.341176

vn 0.976471 0.121569 0.168628

vn 0.937255 0.058824 -0.349020

vn 0.937255 -0.066667 -0.349020

vn 0.929412 -0.129412 -0.341176

vn 0.631373 -0.129412 -0.764706

vn 0.639216 -0.066667 -0.764706

vn 0.937255 0.058824 -0.349020

vn 0.631373 0.121569 -0.764706

vn 0.929412 0.121569 -0.341176

vn 0.639216 0.058824 -0.764706

vn 0.631373 -0.129412 -0.764706

vn 0.168628 -0.066667 -0.984314

vn 0.639216 -0.066667 -0.764706

vn 0.168628 -0.129412 -0.984314

vn 0.631373 0.121569 -0.764706

vn 0.639216 0.058824 -0.764706

vn 0.168628 0.058824 -0.984314

vn 0.168628 0.121569 -0.984314

vn -0.341176 -0.129412 -0.937255

vn 0.168628 -0.066667 -0.984314

vn 0.168628 -0.129412 -0.984314

vn -0.349020 -0.066667 -0.945098

vn 0.168628 0.058824 -0.984314

vn -0.341176 0.121569 -0.937255

vn 0.168628 0.121569 -0.984314

vn -0.349020 0.058824 -0.945098

vn -0.764706 -0.129412 -0.639216

vn -0.349020 -0.066667 -0.945098

vn -0.341176 -0.129412 -0.937255

vn -0.764706 -0.066667 -0.647059

vn -0.349020 0.058824 -0.945098

vn -0.764706 0.121569 -0.639216

vn -0.341176 0.121569 -0.937255

vn -0.764706 0.058824 -0.647059

vn -0.984314 -0.066667 -0.176471

vn -0.764706 -0.129412 -0.639216

vn -0.984314 -0.129412 -0.176471

vn -0.764706 -0.066667 -0.647059

vn -0.984314 0.058824 -0.176471

vn -0.984314 0.121569 -0.176471

vn -0.764706 0.121569 -0.639216

vn -0.764706 0.058824 -0.647059

vn -0.937255 -0.129412 0.333333

vn -0.945098 -0.066667 0.341177

vn -0.984314 -0.066667 -0.176471

vn -0.984314 -0.129412 -0.176471

vn -0.937255 0.121569 0.333333

vn -0.984314 0.058824 -0.176471

vn -0.945098 0.058824 0.341177

vn -0.984314 0.121569 -0.176471

vn -0.639216 -0.129412 0.756863

vn -0.647059 -0.066667 0.756863

vn -0.945098 -0.066667 0.341177

vn -0.937255 -0.129412 0.333333

vn -0.639216 0.121569 0.756863

vn -0.945098 0.058824 0.341177

vn -0.647059 0.058824 0.756863

vn -0.937255 0.121569 0.333333

vn -0.176471 -0.066667 0.976471

vn -0.639216 -0.129412 0.756863

vn -0.176471 -0.129412 0.976471

vn -0.647059 -0.066667 0.756863

vn -0.639216 0.121569 0.756863

vn -0.176471 0.058824 0.976471

vn -0.176471 0.121569 0.976471

vn -0.647059 0.058824 0.756863

vn 0.333333 -0.129412 0.929412

vn 0.341177 -0.066667 0.937255

vn -0.176471 -0.066667 0.976471

vn -0.176471 -0.129412 0.976471

vn 0.333333 0.121569 0.929412

vn -0.176471 0.058824 0.976471

vn 0.341177 0.058824 0.937255

vn -0.176471 0.121569 0.976471

vn 0.756863 -0.129412 0.631373

vn 0.756863 -0.066667 0.639216

vn 0.341177 -0.066667 0.937255

vn 0.333333 -0.129412 0.929412

vn 0.341177 0.058824 0.937255

vn 0.756863 0.121569 0.631373

vn 0.333333 0.121569 0.929412

vn 0.756863 0.058824 0.639216

vn 0.756863 -0.129412 0.631373

vn 0.976471 -0.066667 0.168628

vn 0.756863 -0.066667 0.639216

vn 0.976471 -0.129412 0.168628

vn 0.756863 0.121569 0.631373

vn 0.756863 0.058824 0.639216

vn 0.976471 0.058824 0.168628

vn 0.976471 0.121569 0.168628

vn -0.003922 1.000000 -0.003922

vn -0.003922 1.000000 -0.003922

vn -0.003922 1.000000 -0.003922

vn -0.003922 1.000000 -0.003922

vn -0.003922 1.000000 -0.003922

vn -0.003922 1.000000 -0.003922

vn -0.003922 1.000000 -0.003922

vn -0.003922 1.000000 -0.003922

vn -0.003922 1.000000 -0.003922

vn -0.003922 1.000000 -0.003922

vn -0.003922 1.000000 -0.003922

vn -0.003922 1.000000 -0.003922

vn -0.003922 -1.000000 -0.003922

vn -0.003922 -1.000000 -0.003922

vn -0.003922 -1.000000 -0.003922

vn -0.003922 -1.000000 -0.003922

vn -0.003922 -1.000000 -0.003922

vn -0.003922 -1.000000 -0.003922

vn -0.003922 -1.000000 -0.003922

vn -0.003922 -1.000000 -0.003922

vn -0.003922 -1.000000 -0.003922

vn -0.003922 -1.000000 -0.003922

vn -0.003922 -1.000000 -0.003922

vn -0.003922 -1.000000 -0.003922

f 1/1/1 2/2/2 3/3/3

f 3/3/3 2/2/2 4/4/4

f 5/5/5 6/6/6 7/7/7

f 6/6/6 5/5/5 8/8/8

f 9/9/9 10/10/10 11/11/11

f 10/10/10 9/9/9 12/12/12

f 13/13/13 14/14/14 15/15/15

f 14/14/14 13/13/13 16/16/16

f 17/17/17 18/18/18 19/19/19

f 18/18/18 17/17/17 20/20/20

f 21/21/21 22/22/22 23/23/23

f 21/21/21 23/23/23 24/24/24

f 25/25/25 26/26/26 27/27/27

f 26/26/26 25/25/25 28/28/28

f 29/29/29 30/30/30 31/31/31

f 30/30/30 29/29/29 32/32/32

f 33/33/33 34/34/34 35/35/35

f 35/35/35 36/36/36 33/33/33

f 37/37/37 38/38/38 39/39/39

f 38/38/38 40/40/40 39/39/39

f 41/41/41 42/42/42 43/43/43

f 42/42/42 41/41/41 44/44/44

f 45/45/45 46/46/46 47/47/47

f 46/46/46 45/45/45 48/48/48

f 49/49/49 50/50/50 51/51/51

f 50/50/50 49/49/49 52/52/52

f 53/53/53 54/54/54 55/55/55

f 54/54/54 53/53/53 56/56/56

f 57/57/57 58/58/58 59/59/59

f 57/57/57 59/59/59 60/60/60

f 61/61/61 62/62/62 63/63/63

f 62/62/62 61/61/61 64/64/64

f 65/65/65 66/66/66 67/67/67

f 66/66/66 65/65/65 68/68/68

f 69/69/69 70/70/70 71/71/71

f 71/71/71 72/72/72 69/69/69

f 73/73/73 74/74/74 75/75/75

f 74/74/74 73/73/73 76/76/76

f 77/77/77 78/78/78 79/79/79

f 78/78/78 77/77/77 80/80/80

f 81/81/81 82/82/82 83/83/83

f 82/82/82 81/81/81 84/84/84

f 85/85/85 86/86/86 87/87/87

f 86/86/86 85/85/85 88/88/88

f 89/89/89 90/90/90 91/91/91

f 90/90/90 89/89/89 92/92/92

f 93/93/93 94/94/94 95/95/95

f 93/93/93 95/95/95 96/96/96

f 97/97/97 98/98/98 99/99/99

f 97/97/97 99/99/99 100/100/100

f 101/101/101 102/102/102 103/103/103

f 102/102/102 101/101/101 104/104/104

f 105/105/105 106/106/106 107/107/107

f 105/105/105 107/107/107 108/108/108

f 109/109/109 110/110/110 111/111/111

f 110/110/110 109/109/109 112/112/112

f 113/113/113 114/114/114 115/115/115

f 114/114/114 113/113/113 116/116/116

f 117/117/117 118/118/118 119/119/119

f 118/118/118 117/117/117 120/120/120

f 121/121/121 122/122/122 123/123/123

f 123/123/123 124/124/124 121/121/121

f 125/125/125 126/126/126 127/127/127

f 126/126/126 125/125/125 128/128/128

f 129/129/129 130/130/130 131/131/131

f 131/131/131 132/132/132 129/129/129

f 133/133/133 134/134/134 135/135/135

f 134/134/134 133/133/133 136/136/136

f 137/137/137 138/138/138 139/139/139

f 138/138/138 137/137/137 140/140/140

f 141/141/141 142/142/142 143/143/143

f 141/141/141 143/143/143 144/144/144

f 145/145/145 146/146/146 147/147/147

f 148/148/148 146/146/146 145/145/145

f 149/149/149 148/148/148 150/150/150

f 146/146/146 151/151/151 152/152/152

f 153/153/153 148/148/148 149/149/149

f 148/148/148 153/153/153 146/146/146

f 146/146/146 153/153/153 151/151/151

f 153/153/153 149/149/149 154/154/154

f 153/153/153 155/155/155 151/151/151

f 155/155/155 153/153/153 156/156/156

f 157/157/157 158/158/158 159/159/159

f 160/160/160 158/158/158 157/157/157

f 158/158/158 161/161/161 162/162/162

f 158/158/158 163/163/163 161/161/161

f 164/164/164 160/160/160 165/165/165

f 166/166/166 163/163/163 158/158/158

f 160/160/160 166/166/166 158/158/158

f 166/166/166 160/160/160 164/164/164

f 163/163/163 166/166/166 167/167/167

f 166/166/166 164/164/164 168/168/168

