# UnrealEd OBJ exporter (_Internal)



v 5.159464 0.144278 8.936432

v 5.159464 0.144278 -8.936432

v 10.319133 0.144278 -0.000000

v -5.159505 0.144278 -8.936432

v -5.159505 0.144278 8.936432

v -10.319051 0.144278 -0.000000

v 1.218424 62.995930 -2.109543

v 1.218424 62.995865 2.109612

v 2.436442 62.995865 -0.000000

v -1.218343 62.995930 -2.109543

v -1.218343 62.995865 2.109612

v -2.436361 62.995865 -0.000000

v -3.850179 33.570683 -0.000000

v -1.218343 62.995865 2.109612

v -2.436361 62.995865 -0.000000

v -1.925008 33.570686 3.335052

v -1.218343 62.995930 -2.109543

v -11.081624 25.003046 -0.000000

v -5.540731 25.003046 9.596848

v -1.925008 33.570683 -3.334930

v 1.924967 33.570683 -3.334930

v 1.218424 62.995930 -2.109543

v -5.540731 25.003038 -9.596809

v 3.850260 33.570683 -0.000000

v 2.436442 62.995865 -0.000000

v 1.218424 62.995865 2.109612

v 5.540690 25.003038 -9.596809

v 11.081706 25.003046 -0.000000

v 1.924967 33.570686 3.335052

v -1.218343 62.995865 2.109612

v -1.925008 33.570686 3.335052

v -5.540731 25.003046 9.596848

v 5.540690 25.003046 9.596848

v -7.084066 9.536126 12.269821

v 14.168132 9.536126 -0.000000

v 7.084025 9.536126 12.269821

v -5.159505 0.144278 8.936432

v 5.159464 0.144278 8.936432

v 10.319133 0.144278 -0.000000

v 5.159464 0.144278 -8.936432

v 7.084025 9.536123 -12.269775

v -7.084066 9.536123 -12.269775

v -5.159505 0.144278 -8.936432

v -14.168172 9.536126 -0.000000

v -10.319051 0.144278 -0.000000

v -5.159505 0.144278 8.936432

v -7.084066 9.536126 12.269821



vt 0.499268 0.093262

vt 0.496094 0.087402

vt 0.499268 0.089355

vt 0.492676 0.089355

vt 0.496094 0.095215

vt 0.492676 0.093262

vt 0.496582 0.085938

vt 0.496582 0.083008

vt 0.497559 0.084473

vt 0.494629 0.085938

vt 0.494629 0.083008

vt 0.493652 0.084473

vt 0.492188 0.076660

vt 0.491699 0.094238

vt 0.490234 0.094238

vt 0.494141 0.077148

vt 0.488770 0.093750

vt 0.493896 0.072754

vt 0.497070 0.073730

vt 0.489746 0.076660

vt 0.487549 0.076172

vt 0.487305 0.093750

vt 0.490723 0.072266

vt 0.485352 0.076660

vt 0.485840 0.093750

vt 0.484375 0.094238

vt 0.487549 0.072266

vt 0.484375 0.072266

vt 0.482910 0.076660

vt 0.483154 0.094238

vt 0.480957 0.077148

vt 0.478027 0.073730

vt 0.481445 0.072754

vt 0.477051 0.069336

vt 0.483887 0.068359

vt 0.480469 0.068848

vt 0.477295 0.066406

vt 0.480225 0.065918

vt 0.483643 0.065430

vt 0.487793 0.064941

vt 0.487549 0.067871

vt 0.491455 0.068359

vt 0.491699 0.065430

vt 0.494629 0.068848

vt 0.495117 0.066406

vt 0.498047 0.066895

vt 0.498291 0.069336



vn 0.498039 -0.003922 0.858824

vn 0.498039 -0.003922 -0.866667

vn 1.000000 -0.003922 -0.003922

vn -0.505882 -0.003922 -0.866667

vn -0.505882 -0.003922 0.858824

vn -1.000000 -0.003922 -0.003922

vn -0.003922 1.000000 -0.003922

vn -0.003922 1.000000 -0.003922

vn -0.003922 1.000000 -0.003922

vn -0.003922 1.000000 -0.003922

vn -0.003922 1.000000 -0.003922

vn -0.003922 1.000000 -0.003922

vn -0.945098 0.341177 -0.003922

vn -0.003922 1.000000 -0.003922

vn -0.003922 1.000000 -0.003922

vn -0.474510 0.341177 0.811765

vn -0.003922 1.000000 -0.003922

vn -0.968627 0.270588 -0.003922

vn -0.482353 0.270588 0.827451

vn -0.474510 0.341177 -0.819608

vn 0.466667 0.341177 -0.819608

vn -0.003922 1.000000 -0.003922

vn -0.482353 0.270588 -0.835294

vn 0.937255 0.341177 -0.003922

vn -0.003922 1.000000 -0.003922

vn -0.003922 1.000000 -0.003922

vn 0.474510 0.270588 -0.835294

vn 0.960784 0.270588 -0.003922

vn 0.466667 0.341177 0.811765

vn -0.003922 1.000000 -0.003922

vn -0.474510 0.341177 0.811765

vn -0.482353 0.270588 0.827451

vn 0.474510 0.270588 0.827451

vn -0.505882 -0.019608 0.858824

vn 0.992157 -0.019608 -0.003922

vn 0.498039 -0.019608 0.858824

vn -0.505882 -0.003922 0.858824

vn 0.498039 -0.003922 0.858824

vn 1.000000 -0.003922 -0.003922

vn 0.498039 -0.003922 -0.866667

vn 0.498039 -0.019608 -0.866667

vn -0.505882 -0.019608 -0.866667

vn -0.505882 -0.003922 -0.866667

vn -1.000000 -0.019608 -0.003922

vn -1.000000 -0.003922 -0.003922

vn -0.505882 -0.003922 0.858824

vn -0.505882 -0.019608 0.858824

f 1/1/1 2/2/2 3/3/3

f 2/2/2 1/1/1 4/4/4

f 5/5/5 4/4/4 1/1/1

f 4/4/4 5/5/5 6/6/6

f 7/7/7 8/8/8 9/9/9

f 8/8/8 7/7/7 10/10/10

f 10/10/10 11/11/11 8/8/8

f 11/11/11 10/10/10 12/12/12

f 13/13/13 14/14/14 15/15/15

f 14/14/14 13/13/13 16/16/16

f 17/17/17 13/13/13 15/15/15

f 18/18/18 16/16/16 13/13/13

f 18/18/18 19/19/19 16/16/16

f 13/13/13 17/17/17 20/20/20

f 20/20/20 18/18/18 13/13/13

f 20/20/20 17/17/17 21/21/21

f 21/21/21 17/17/17 22/22/22

f 18/18/18 20/20/20 23/23/23

f 21/21/21 22/22/22 24/24/24

f 25/25/25 24/24/24 22/22/22

f 26/26/26 24/24/24 25/25/25

f 27/27/27 20/20/20 21/21/21

f 23/23/23 20/20/20 27/27/27

f 24/24/24 28/28/28 21/21/21

f 27/27/27 21/21/21 28/28/28

f 24/24/24 26/26/26 29/29/29

f 29/29/29 28/28/28 24/24/24

f 30/30/30 29/29/29 26/26/26

f 29/29/29 30/30/30 31/31/31

f 32/32/32 29/29/29 31/31/31

f 32/32/32 33/33/33 29/29/29

f 28/28/28 29/29/29 33/33/33

f 33/33/33 32/32/32 34/34/34

f 33/33/33 35/35/35 28/28/28

f 28/28/28 35/35/35 27/27/27

f 33/33/33 34/34/34 36/36/36

f 35/35/35 33/33/33 36/36/36

f 36/36/36 34/34/34 37/37/37

f 36/36/36 37/37/37 38/38/38

f 36/36/36 38/38/38 35/35/35

f 38/38/38 39/39/39 35/35/35

f 40/40/40 35/35/35 39/39/39

f 35/35/35 41/41/41 27/27/27

f 35/35/35 40/40/40 41/41/41

f 41/41/41 23/23/23 27/27/27

f 40/40/40 42/42/42 41/41/41

f 42/42/42 23/23/23 41/41/41

f 43/43/43 42/42/42 40/40/40

f 44/44/44 23/23/23 42/42/42

f 43/43/43 44/44/44 42/42/42

f 23/23/23 44/44/44 18/18/18

f 44/44/44 43/43/43 45/45/45

f 44/44/44 19/19/19 18/18/18

f 46/46/46 44/44/44 45/45/45

f 19/19/19 44/44/44 47/47/47

f 44/44/44 46/46/46 47/47/47

