# UnrealEd OBJ exporter (_Internal)



v -9.814087 12.170654 -16.998596

v 9.814087 12.170654 -16.998596

v -9.033264 5.527661 -15.645988

v 9.033264 5.527661 -15.646072

v -19.628296 12.170654 -0.000000

v -9.033264 5.527661 -15.645988

v -18.066406 5.527661 -0.000000

v -9.814087 12.170654 -16.998596

v -9.814087 12.170654 16.998611

v -19.628296 12.170654 -0.000000

v -9.033264 5.527661 15.646095

v -18.066406 5.527661 -0.000000

v -9.814087 12.170654 16.998611

v 9.033264 5.527661 15.646095

v 9.814087 12.170654 16.998611

v -9.033264 5.527661 15.646095

v 9.033264 5.527661 15.646095

v 19.628296 12.170654 -0.000000

v 9.814087 12.170654 16.998611

v 18.066406 5.527661 -0.000000

v 9.615234 24.489552 -0.000000

v 8.531494 18.856289 -14.776978

v 4.807617 24.489552 -8.327072

v 17.062988 18.856289 -0.000000

v 4.865601 -0.148271 -8.427391

v 18.066406 5.527661 -0.000000

v 9.731079 -0.148271 -0.000000

v 9.033264 5.527661 -15.646072

v 18.066406 5.527661 -0.000000

v 19.628296 12.170654 -0.000000

v 9.814087 12.170654 -16.998596

v -8.531494 18.856289 -14.776978

v 4.807617 24.489552 -8.327072

v 8.531494 18.856289 -14.776978

v -4.807617 24.489552 -8.327072

v 9.033264 5.527661 -15.646072

v -4.865601 -0.148271 -8.427391

v -9.033264 5.527661 -15.645988

v 4.865601 -0.148271 -8.427391

v -9.615234 24.489552 -0.000000

v -8.531494 18.856289 -14.776978

v -17.062988 18.856289 -0.000000

v -4.807617 24.489552 -8.327072

v -4.865601 -0.148271 -8.427391

v -18.066406 5.527661 -0.000000

v -9.033264 5.527661 -15.645988

v -9.731079 -0.148271 -0.000000

v -8.531494 18.856289 14.776962

v -9.615234 24.489552 -0.000000

v -17.062988 18.856289 -0.000000

v -4.807617 24.489552 8.327072

v -18.066406 5.527661 -0.000000

v -4.865601 -0.148271 8.427391

v -9.033264 5.527661 15.646095

v -9.731079 -0.148271 -0.000000

v 4.865601 -0.148271 8.427391

v -9.033264 5.527661 15.646095

v -4.865601 -0.148271 8.427391

v 9.033264 5.527661 15.646095

v 8.531494 18.856289 14.776962

v 9.615234 24.489552 -0.000000

v 4.807617 24.489552 8.327072

v 17.062988 18.856289 -0.000000

v 18.066406 5.527661 -0.000000

v 4.865601 -0.148271 8.427391

v 9.731079 -0.148271 -0.000000

v 9.033264 5.527661 15.646095

v 19.628296 12.170654 -0.000000

v 8.531494 18.856289 -14.776978

v 17.062988 18.856289 -0.000000

v 9.814087 12.170654 -16.998596

v -8.531494 18.856289 -14.776978

v 8.531494 18.856289 -14.776978

v -9.814087 12.170654 -16.998596

v 9.814087 12.170654 -16.998596

v -17.062988 18.856289 -0.000000

v -8.531494 18.856289 -14.776978

v -19.628296 12.170654 -0.000000

v -9.814087 12.170654 -16.998596

v -8.531494 18.856289 14.776962

v -19.628296 12.170654 -0.000000

v -9.814087 12.170654 16.998611

v -17.062988 18.856289 -0.000000

v 9.814087 12.170654 16.998611

v -8.531494 18.856289 14.776962

v -9.814087 12.170654 16.998611

v 8.531494 18.856289 14.776962

v -4.807617 24.489552 8.327072

v 4.807617 24.489552 8.327072

v -8.531494 18.856289 14.776962

v 9.814087 12.170654 16.998611

v 19.628296 12.170654 -0.000000

v 8.531494 18.856289 14.776962

v 17.062988 18.856289 -0.000000

v 5.901794 28.762793 -0.000000

v 9.615234 24.489552 -0.000000

v 2.950806 28.762793 -5.111069

v 4.807617 24.489552 -8.327072

v -2.950806 28.762793 -5.111069

v 4.807617 24.489552 -8.327072

v -4.807617 24.489552 -8.327072

v 2.950806 28.762793 -5.111069

v -9.615234 24.489552 -0.000000

v -2.950806 28.762793 -5.111069

v -4.807617 24.489552 -8.327072

v -5.901794 28.762793 -0.000000

v -9.615234 24.489552 -0.000000

v -4.807617 24.489552 8.327072

v -2.950806 28.762793 5.111069

v -5.901794 28.762793 -0.000000

v -4.807617 24.489552 8.327072

v 4.807617 24.489552 8.327072

v 2.950806 28.762793 5.111069

v -2.950806 28.762793 5.111069

v 9.615234 24.489552 -0.000000

v 2.950806 28.762793 5.111069

v 4.807617 24.489552 8.327072

v 5.901794 28.762793 -0.000000

v 2.950806 28.762793 -5.111069

v 2.062866 52.633476 -3.572899

v 5.901794 28.762793 -0.000000

v 4.125732 52.633476 -0.000000

v -2.062866 52.633476 -3.572899

v 2.950806 28.762793 -5.111069

v -2.950806 28.762793 -5.111069

v 2.062866 52.633476 -3.572899

v -5.901794 28.762793 -0.000000

v -2.062866 52.633476 -3.572899

v -2.950806 28.762793 -5.111069

v -4.125732 52.633476 -0.000000

v -2.062866 52.633533 3.572975

v -5.901794 28.762793 -0.000000

v -2.950806 28.762793 5.111069

v -4.125732 52.633476 -0.000000

v -2.062866 52.633533 3.572975

v -2.950806 28.762793 5.111069

v 2.062866 52.633533 3.572975

v 2.950806 28.762793 5.111069

v 5.901794 28.762793 -0.000000

v 2.062866 52.633533 3.572975

v 2.950806 28.762793 5.111069

v 4.125732 52.633476 -0.000000

v 2.062866 52.633476 -3.572899

v 2.062866 52.633533 3.572975

v 4.125732 52.633476 -0.000000

v -2.062866 52.633476 -3.572899

v -2.062866 52.633533 3.572975

v -4.125732 52.633476 -0.000000

v -4.865601 -0.148271 8.427391

v 9.731079 -0.148271 -0.000000

v 4.865601 -0.148271 8.427391

v -9.731079 -0.148271 -0.000000

v -4.865601 -0.148271 -8.427391

v 4.865601 -0.148271 -8.427391



vt 0.700684 0.412598

vt 0.706543 0.417480

vt 0.699219 0.416504

vt 0.705566 0.419922

vt 0.731445 0.421875

vt 0.738770 0.423828

vt 0.731445 0.424316

vt 0.738770 0.419434

vt 0.725098 0.423828

vt 0.731445 0.421875

vt 0.725098 0.425781

vt 0.731445 0.424316

vt 0.725098 0.423828

vt 0.717773 0.425781

vt 0.718262 0.423340

vt 0.725098 0.425781

vt 0.717773 0.425781

vt 0.711914 0.421387

vt 0.718262 0.423340

vt 0.711426 0.423828

vt 0.715332 0.415527

vt 0.708008 0.415527

vt 0.711426 0.413574

vt 0.713379 0.418945

vt 0.704590 0.423340

vt 0.711426 0.423828

vt 0.710449 0.426758

vt 0.705566 0.419922

vt 0.711426 0.423828

vt 0.711914 0.421387

vt 0.706543 0.417480

vt 0.704590 0.410156

vt 0.711426 0.413574

vt 0.708008 0.415527

vt 0.709473 0.409668

vt 0.705566 0.419922

vt 0.699707 0.421387

vt 0.699219 0.416504

vt 0.704590 0.423340

vt 0.728516 0.416016

vt 0.735840 0.415527

vt 0.730469 0.419434

vt 0.731445 0.413574

vt 0.736328 0.428223

vt 0.731445 0.424316

vt 0.738770 0.423828

vt 0.731445 0.428223

vt 0.724609 0.420898

vt 0.728516 0.416016

vt 0.730469 0.419434

vt 0.724121 0.416992

vt 0.731445 0.424316

vt 0.725098 0.429199

vt 0.725098 0.425781

vt 0.731445 0.428223

vt 0.717285 0.429199

vt 0.725098 0.425781

vt 0.725098 0.429199

vt 0.717773 0.425781

vt 0.718750 0.420898

vt 0.715332 0.415527

vt 0.719727 0.416992

vt 0.713379 0.418945

vt 0.711426 0.423828

vt 0.717285 0.429199

vt 0.710449 0.426758

vt 0.717773 0.425781

vt 0.711914 0.421387

vt 0.708008 0.415527

vt 0.713379 0.418945

vt 0.706543 0.417480

vt 0.704590 0.410156

vt 0.708008 0.415527

vt 0.700684 0.412598

vt 0.706543 0.417480

vt 0.730469 0.419434

vt 0.735840 0.415527

vt 0.731445 0.421875

vt 0.738770 0.419434

vt 0.724609 0.420898

vt 0.731445 0.421875

vt 0.725098 0.423828

vt 0.730469 0.419434

vt 0.718262 0.423340

vt 0.724609 0.420898

vt 0.725098 0.423828

vt 0.718750 0.420898

vt 0.724121 0.416992

vt 0.719727 0.416992

vt 0.724609 0.420898

vt 0.718262 0.423340

vt 0.711914 0.421387

vt 0.718750 0.420898

vt 0.713379 0.418945

vt 0.716309 0.413574

vt 0.715332 0.415527

vt 0.713867 0.412109

vt 0.711426 0.413574

vt 0.711914 0.410156

vt 0.711426 0.413574

vt 0.709473 0.409668

vt 0.713867 0.412109

vt 0.728516 0.416016

vt 0.729004 0.413086

vt 0.731445 0.413574

vt 0.726563 0.414063

vt 0.728516 0.416016

vt 0.724121 0.416992

vt 0.723633 0.414551

vt 0.726563 0.414063

vt 0.724121 0.416992

vt 0.719727 0.416992

vt 0.719727 0.414551

vt 0.723633 0.414551

vt 0.715332 0.415527

vt 0.719727 0.414551

vt 0.719727 0.416992

vt 0.716309 0.413574

vt 0.713867 0.412109

vt 0.718750 0.403320

vt 0.716309 0.413574

vt 0.720215 0.404297

vt 0.717285 0.402344

vt 0.713867 0.412109

vt 0.711914 0.410156

vt 0.718750 0.403320

vt 0.726563 0.414063

vt 0.726074 0.403809

vt 0.729004 0.413086

vt 0.724609 0.404297

vt 0.723145 0.404785

vt 0.726563 0.414063

vt 0.723633 0.414551

vt 0.724609 0.404297

vt 0.723145 0.404785

vt 0.723633 0.414551

vt 0.721680 0.404785

vt 0.719727 0.414551

vt 0.716309 0.413574

vt 0.721680 0.404785

vt 0.719727 0.414551

vt 0.720215 0.404297

vt 0.721680 0.402344

vt 0.721680 0.404785

vt 0.720703 0.403320

vt 0.723145 0.402344

vt 0.723145 0.404785

vt 0.723633 0.403320

vt 0.629883 0.372070

vt 0.635742 0.368652

vt 0.633789 0.372070

vt 0.627930 0.368652

vt 0.629883 0.365234

vt 0.633789 0.365234



vn -0.505882 0.058824 -0.866667

vn 0.498039 0.058824 -0.866667

vn -0.435294 -0.521569 -0.741176

vn 0.427451 -0.521569 -0.741176

vn -1.000000 0.058824 -0.003922

vn -0.435294 -0.521569 -0.741176

vn -0.858824 -0.521569 -0.003922

vn -0.505882 0.058824 -0.866667

vn -0.505882 0.058824 0.858824

vn -1.000000 0.058824 -0.003922

vn -0.435294 -0.521569 0.733333

vn -0.858824 -0.521569 -0.003922

vn -0.505882 0.058824 0.858824

vn 0.427451 -0.521569 0.733333

vn 0.498039 0.058824 0.858824

vn -0.435294 -0.521569 0.733333

vn 0.427451 -0.521569 0.733333

vn 0.992157 0.058824 -0.003922

vn 0.498039 0.058824 0.858824

vn 0.850981 -0.521569 -0.003922

vn 0.662745 0.741177 -0.003922

vn 0.411765 0.560784 -0.717647

vn 0.325490 0.741177 -0.576471

vn 0.819608 0.560784 -0.003922

vn 0.184314 -0.929412 -0.333333

vn 0.850981 -0.521569 -0.003922

vn 0.372549 -0.929412 -0.003922

vn 0.427451 -0.521569 -0.741176

vn 0.850981 -0.521569 -0.003922

vn 0.992157 0.058824 -0.003922

vn 0.498039 0.058824 -0.866667

vn -0.419608 0.560784 -0.717647

vn 0.325490 0.741177 -0.576471

vn 0.411765 0.560784 -0.717647

vn -0.333333 0.741177 -0.576471

vn 0.427451 -0.521569 -0.741176

vn -0.192157 -0.929412 -0.333333

vn -0.435294 -0.521569 -0.741176

vn 0.184314 -0.929412 -0.333333

vn -0.670588 0.741177 -0.003922

vn -0.419608 0.560784 -0.717647

vn -0.827451 0.560784 -0.003922

vn -0.333333 0.741177 -0.576471

vn -0.192157 -0.929412 -0.333333

vn -0.858824 -0.521569 -0.003922

vn -0.435294 -0.521569 -0.741176

vn -0.380392 -0.929412 -0.003922

vn -0.419608 0.560784 0.709804

vn -0.670588 0.741177 -0.003922

vn -0.827451 0.560784 -0.003922

vn -0.333333 0.741177 0.568628

vn -0.858824 -0.521569 -0.003922

vn -0.192157 -0.929412 0.325490

vn -0.435294 -0.521569 0.733333

vn -0.380392 -0.929412 -0.003922

vn 0.184314 -0.929412 0.325490

vn -0.435294 -0.521569 0.733333

vn -0.192157 -0.929412 0.325490

vn 0.427451 -0.521569 0.733333

vn 0.411765 0.560784 0.709804

vn 0.662745 0.741177 -0.003922

vn 0.325490 0.741177 0.568628

vn 0.819608 0.560784 -0.003922

vn 0.850981 -0.521569 -0.003922

vn 0.184314 -0.929412 0.325490

vn 0.372549 -0.929412 -0.003922

vn 0.427451 -0.521569 0.733333

vn 0.992157 0.058824 -0.003922

vn 0.411765 0.560784 -0.717647

vn 0.819608 0.560784 -0.003922

vn 0.498039 0.058824 -0.866667

vn -0.419608 0.560784 -0.717647

vn 0.411765 0.560784 -0.717647

vn -0.505882 0.058824 -0.866667

vn 0.498039 0.058824 -0.866667

vn -0.827451 0.560784 -0.003922

vn -0.419608 0.560784 -0.717647

vn -1.000000 0.058824 -0.003922

vn -0.505882 0.058824 -0.866667

vn -0.419608 0.560784 0.709804

vn -1.000000 0.058824 -0.003922

vn -0.505882 0.058824 0.858824

vn -0.827451 0.560784 -0.003922

vn 0.498039 0.058824 0.858824

vn -0.419608 0.560784 0.709804

vn -0.505882 0.058824 0.858824

vn 0.411765 0.560784 0.709804

vn -0.333333 0.741177 0.568628

vn 0.325490 0.741177 0.568628

vn -0.419608 0.560784 0.709804

vn 0.498039 0.058824 0.858824

vn 0.992157 0.058824 -0.003922

vn 0.411765 0.560784 0.709804

vn 0.819608 0.560784 -0.003922

vn 0.898039 0.419608 -0.003922

vn 0.662745 0.741177 -0.003922

vn 0.450980 0.419608 -0.788235

vn 0.325490 0.741177 -0.576471

vn -0.458824 0.419608 -0.788235

vn 0.325490 0.741177 -0.576471

vn -0.333333 0.741177 -0.576471

vn 0.450980 0.419608 -0.788235

vn -0.670588 0.741177 -0.003922

vn -0.458824 0.419608 -0.788235

vn -0.333333 0.741177 -0.576471

vn -0.905882 0.419608 -0.003922

vn -0.670588 0.741177 -0.003922

vn -0.333333 0.741177 0.568628

vn -0.458824 0.419608 0.780392

vn -0.905882 0.419608 -0.003922

vn -0.333333 0.741177 0.568628

vn 0.325490 0.741177 0.568628

vn 0.450980 0.419608 0.780392

vn -0.458824 0.419608 0.780392

vn 0.662745 0.741177 -0.003922

vn 0.450980 0.419608 0.780392

vn 0.325490 0.741177 0.568628

vn 0.898039 0.419608 -0.003922

vn 0.450980 0.419608 -0.788235

vn 0.498039 0.066667 -0.866667

vn 0.898039 0.419608 -0.003922

vn 0.992157 0.066667 -0.003922

vn -0.505882 0.066667 -0.866667

vn 0.450980 0.419608 -0.788235

vn -0.458824 0.419608 -0.788235

vn 0.498039 0.066667 -0.866667

vn -0.905882 0.419608 -0.003922

vn -0.505882 0.066667 -0.866667

vn -0.458824 0.419608 -0.788235

vn -1.000000 0.066667 -0.003922

vn -0.505882 0.066667 0.858824

vn -0.905882 0.419608 -0.003922

vn -0.458824 0.419608 0.780392

vn -1.000000 0.066667 -0.003922

vn -0.505882 0.066667 0.858824

vn -0.458824 0.419608 0.780392

vn 0.498039 0.066667 0.858824

vn 0.450980 0.419608 0.780392

vn 0.898039 0.419608 -0.003922

vn 0.498039 0.066667 0.858824

vn 0.450980 0.419608 0.780392

vn 0.992157 0.066667 -0.003922

vn -0.003922 1.000000 -0.003922

vn -0.003922 1.000000 -0.003922

vn -0.003922 1.000000 -0.003922

vn -0.003922 1.000000 -0.003922

vn -0.003922 1.000000 -0.003922

vn -0.003922 1.000000 -0.003922

vn -0.192157 -0.929412 0.325490

vn 0.372549 -0.929412 -0.003922

vn 0.184314 -0.929412 0.325490

vn -0.380392 -0.929412 -0.003922

vn -0.192157 -0.929412 -0.333333

vn 0.184314 -0.929412 -0.333333

f 1/1/1 2/2/2 3/3/3

f 4/4/4 3/3/3 2/2/2

f 5/5/5 6/6/6 7/7/7

f 6/6/6 5/5/5 8/8/8

f 9/9/9 10/10/10 11/11/11

f 11/11/11 10/10/10 12/12/12

f 13/13/13 14/14/14 15/15/15

f 14/14/14 13/13/13 16/16/16

f 17/17/17 18/18/18 19/19/19

f 18/18/18 17/17/17 20/20/20

f 21/21/21 22/22/22 23/23/23

f 24/24/24 22/22/22 21/21/21

f 25/25/25 26/26/26 27/27/27

f 28/28/28 26/26/26 25/25/25

f 29/29/29 28/28/28 30/30/30

f 30/30/30 28/28/28 31/31/31

f 32/32/32 33/33/33 34/34/34

f 33/33/33 32/32/32 35/35/35

f 36/36/36 37/37/37 38/38/38

f 37/37/37 36/36/36 39/39/39

f 40/40/40 41/41/41 42/42/42

f 41/41/41 40/40/40 43/43/43

f 44/44/44 45/45/45 46/46/46

f 45/45/45 44/44/44 47/47/47

f 48/48/48 49/49/49 50/50/50

f 49/49/49 48/48/48 51/51/51

f 52/52/52 53/53/53 54/54/54

f 53/53/53 52/52/52 55/55/55

f 56/56/56 57/57/57 58/58/58

f 59/59/59 57/57/57 56/56/56

f 60/60/60 61/61/61 62/62/62

f 61/61/61 60/60/60 63/63/63

f 64/64/64 65/65/65 66/66/66

f 65/65/65 64/64/64 67/67/67

f 68/68/68 69/69/69 70/70/70

f 69/69/69 68/68/68 71/71/71

f 72/72/72 73/73/73 74/74/74

f 75/75/75 74/74/74 73/73/73

f 76/76/76 77/77/77 78/78/78

f 78/78/78 77/77/77 79/79/79

f 80/80/80 81/81/81 82/82/82

f 81/81/81 80/80/80 83/83/83

f 84/84/84 85/85/85 86/86/86

f 85/85/85 84/84/84 87/87/87

f 88/88/88 87/87/87 89/89/89

f 90/90/90 87/87/87 88/88/88

f 91/91/91 92/92/92 93/93/93

f 93/93/93 92/92/92 94/94/94

f 95/95/95 96/96/96 97/97/97

f 96/96/96 98/98/98 97/97/97

f 99/99/99 100/100/100 101/101/101

f 100/100/100 99/99/99 102/102/102

f 103/103/103 104/104/104 105/105/105

f 104/104/104 103/103/103 106/106/106

f 107/107/107 108/108/108 109/109/109

f 107/107/107 109/109/109 110/110/110

f 111/111/111 112/112/112 113/113/113

f 111/111/111 113/113/113 114/114/114

f 115/115/115 116/116/116 117/117/117

f 116/116/116 115/115/115 118/118/118

f 119/119/119 120/120/120 121/121/121

f 122/122/122 121/121/121 120/120/120

f 123/123/123 124/124/124 125/125/125

f 124/124/124 123/123/123 126/126/126

f 127/127/127 128/128/128 129/129/129

f 128/128/128 127/127/127 130/130/130

f 131/131/131 132/132/132 133/133/133

f 132/132/132 131/131/131 134/134/134

f 135/135/135 136/136/136 137/137/137

f 137/137/137 136/136/136 138/138/138

f 139/139/139 140/140/140 141/141/141

f 140/140/140 139/139/139 142/142/142

f 143/143/143 144/144/144 145/145/145

f 144/144/144 143/143/143 146/146/146

f 146/146/146 147/147/147 144/144/144

f 147/147/147 146/146/146 148/148/148

f 149/149/149 150/150/150 151/151/151

f 150/150/150 149/149/149 152/152/152

f 152/152/152 153/153/153 150/150/150

f 150/150/150 153/153/153 154/154/154

