# UnrealEd OBJ exporter (_Internal)



v 5.159424 0.144278 -8.936432

v 5.159424 40.632782 -8.936417

v 10.319092 0.144278 -0.000000

v 10.319092 40.632782 -0.000000

v -5.159424 0.144278 -8.936432

v -5.159424 40.632782 -8.936417

v 5.159424 0.144278 -8.936432

v 5.159424 40.632782 -8.936417

v -2.708130 47.692204 -4.690689

v 2.708130 47.692204 -4.690689

v -5.159424 40.632782 -8.936417

v -10.319092 0.144278 -0.000000

v -5.159424 40.632782 -8.936417

v -5.159424 0.144278 -8.936432

v -10.319092 40.632782 -0.000000

v -5.159424 0.144278 8.936432

v -10.319092 40.632782 -0.000000

v -10.319092 0.144278 -0.000000

v -5.159424 40.632782 8.936462

v -5.159424 40.632782 8.936462

v -5.159424 0.144278 8.936432

v 5.159424 40.632782 8.936462

v 5.159424 0.144278 8.936432

v 10.319092 0.144278 -0.000000

v 10.319092 40.632782 -0.000000

v 5.159424 0.144278 8.936432

v 5.159424 40.632782 8.936462

v 5.159424 40.632782 -8.936417

v 2.708130 47.692204 -4.690689

v 10.319092 40.632782 -0.000000

v 5.416382 47.692204 -0.000000

v 4.677979 67.438255 -0.000000

v 2.338989 67.438339 -4.051208

v 2.708130 47.692204 -4.690689

v -2.708130 47.692204 4.690811

v -10.319092 40.632782 -0.000000

v -5.159424 40.632782 8.936462

v -5.416382 47.692204 -0.000000

v -2.338989 67.438255 4.051270

v -4.677979 67.438255 -0.000000

v -2.708130 47.692204 4.690811

v -5.159424 40.632782 8.936462

v 5.159424 40.632782 8.936462

v 2.708130 47.692204 4.690811

v -2.708130 47.692204 4.690811

v 2.708130 47.692204 4.690811

v 10.319092 40.632782 -0.000000

v 5.416382 47.692204 -0.000000

v 5.159424 40.632782 8.936462

v -2.708130 47.692204 -4.690689

v -2.338989 67.438339 -4.051208

v 2.708130 47.692204 -4.690689

v 2.338989 67.438339 -4.051208

v -2.338989 67.438339 -4.051208

v -5.416382 47.692204 -0.000000

v -4.677979 67.438255 -0.000000

v -2.708130 47.692204 -4.690689

v -10.319092 40.632782 -0.000000

v -5.159424 40.632782 -8.936417

v -5.416382 47.692204 -0.000000

v -2.338989 67.438255 4.051270

v -2.708130 47.692204 4.690811

v 2.338989 67.438255 4.051270

v 2.708130 47.692204 4.690811

v 5.416382 47.692204 -0.000000

v 2.338989 67.438255 4.051270

v 2.708130 47.692204 4.690811

v 4.677979 67.438255 -0.000000

v 5.159424 0.144278 8.936432

v 5.159424 0.144278 -8.936432

v 10.319092 0.144278 -0.000000

v -5.159424 0.144278 -8.936432

v -5.159424 0.144278 8.936432

v -10.319092 0.144278 -0.000000

v 2.338989 67.438339 -4.051208

v 2.338989 67.438255 4.051270

v 4.677979 67.438255 -0.000000

v -2.338989 67.438339 -4.051208

v -2.338989 67.438255 4.051270

v -4.677979 67.438255 -0.000000



vt 0.453125 0.097656

vt 0.452881 0.110840

vt 0.449707 0.097656

vt 0.449951 0.110840

vt 0.456543 0.098145

vt 0.456055 0.110840

vt 0.453125 0.097656

vt 0.452881 0.110840

vt 0.455811 0.114258

vt 0.452881 0.114258

vt 0.456055 0.110840

vt 0.459961 0.098145

vt 0.456055 0.110840

vt 0.456543 0.098145

vt 0.459229 0.111328

vt 0.463379 0.098145

vt 0.459229 0.111328

vt 0.459961 0.098145

vt 0.462646 0.111816

vt 0.443115 0.111328

vt 0.442871 0.097656

vt 0.446777 0.111328

vt 0.446289 0.097656

vt 0.449707 0.097656

vt 0.449951 0.110840

vt 0.446289 0.097656

vt 0.446777 0.111328

vt 0.452881 0.110840

vt 0.452881 0.114258

vt 0.449951 0.110840

vt 0.450195 0.114258

vt 0.450439 0.124512

vt 0.452881 0.124512

vt 0.452881 0.114258

vt 0.461182 0.114746

vt 0.459229 0.111328

vt 0.462646 0.111816

vt 0.458496 0.114258

vt 0.459961 0.124512

vt 0.457520 0.124512

vt 0.461182 0.114746

vt 0.443115 0.111328

vt 0.446777 0.111328

vt 0.447266 0.114258

vt 0.444824 0.114746

vt 0.447266 0.114258

vt 0.449951 0.110840

vt 0.450195 0.114258

vt 0.446777 0.111328

vt 0.455811 0.114258

vt 0.455078 0.124512

vt 0.452881 0.114258

vt 0.452881 0.124512

vt 0.455078 0.124512

vt 0.458496 0.114258

vt 0.457520 0.124512

vt 0.455811 0.114258

vt 0.459229 0.111328

vt 0.456055 0.110840

vt 0.458496 0.114258

vt 0.445557 0.124512

vt 0.444824 0.114746

vt 0.447998 0.124512

vt 0.447266 0.114258

vt 0.450195 0.114258

vt 0.447998 0.124512

vt 0.447266 0.114258

vt 0.450439 0.124512

vt 0.466797 0.124512

vt 0.466797 0.118164

vt 0.468750 0.121582

vt 0.462891 0.118164

vt 0.462891 0.124512

vt 0.460938 0.121582

vt 0.464600 0.117188

vt 0.464600 0.114258

vt 0.465332 0.115723

vt 0.462891 0.117188

vt 0.462891 0.114258

vt 0.461914 0.115723



vn 0.498039 -0.003922 -0.866667

vn 0.474510 0.270588 -0.835294

vn 1.000000 -0.003922 -0.003922

vn 0.960784 0.270588 -0.003922

vn -0.505882 -0.003922 -0.866667

vn -0.482353 0.270588 -0.835294

vn 0.498039 -0.003922 -0.866667

vn 0.474510 0.270588 -0.835294

vn -0.474510 0.341177 -0.819608

vn 0.466667 0.341177 -0.819608

vn -0.482353 0.270588 -0.835294

vn -1.000000 -0.003922 -0.003922

vn -0.482353 0.270588 -0.835294

vn -0.505882 -0.003922 -0.866667

vn -0.968627 0.270588 -0.003922

vn -0.505882 -0.003922 0.858824

vn -0.968627 0.270588 -0.003922

vn -1.000000 -0.003922 -0.003922

vn -0.482353 0.270588 0.827451

vn -0.482353 0.270588 0.827451

vn -0.505882 -0.003922 0.858824

vn 0.474510 0.270588 0.827451

vn 0.498039 -0.003922 0.858824

vn 1.000000 -0.003922 -0.003922

vn 0.960784 0.270588 -0.003922

vn 0.498039 -0.003922 0.858824

vn 0.474510 0.270588 0.827451

vn 0.474510 0.270588 -0.835294

vn 0.466667 0.341177 -0.819608

vn 0.960784 0.270588 -0.003922

vn 0.937255 0.341177 -0.003922

vn 0.992157 0.035294 -0.003922

vn 0.498039 0.035294 -0.866667

vn 0.466667 0.341177 -0.819608

vn -0.474510 0.341177 0.811765

vn -0.968627 0.270588 -0.003922

vn -0.482353 0.270588 0.827451

vn -0.945098 0.341177 -0.003922

vn -0.505882 0.035294 0.858824

vn -1.000000 0.035294 -0.003922

vn -0.474510 0.341177 0.811765

vn -0.482353 0.270588 0.827451

vn 0.474510 0.270588 0.827451

vn 0.466667 0.341177 0.811765

vn -0.474510 0.341177 0.811765

vn 0.466667 0.341177 0.811765

vn 0.960784 0.270588 -0.003922

vn 0.937255 0.341177 -0.003922

vn 0.474510 0.270588 0.827451

vn -0.474510 0.341177 -0.819608

vn -0.505882 0.035294 -0.866667

vn 0.466667 0.341177 -0.819608

vn 0.498039 0.035294 -0.866667

vn -0.505882 0.035294 -0.866667

vn -0.945098 0.341177 -0.003922

vn -1.000000 0.035294 -0.003922

vn -0.474510 0.341177 -0.819608

vn -0.968627 0.270588 -0.003922

vn -0.482353 0.270588 -0.835294

vn -0.945098 0.341177 -0.003922

vn -0.505882 0.035294 0.858824

vn -0.474510 0.341177 0.811765

vn 0.498039 0.035294 0.858824

vn 0.466667 0.341177 0.811765

vn 0.937255 0.341177 -0.003922

vn 0.498039 0.035294 0.858824

vn 0.466667 0.341177 0.811765

vn 0.992157 0.035294 -0.003922

vn -0.003922 -1.000000 -0.003922

vn -0.003922 -1.000000 -0.003922

vn -0.003922 -1.000000 -0.003922

vn -0.003922 -1.000000 -0.003922

vn -0.003922 -1.000000 -0.003922

vn -0.003922 -1.000000 -0.003922

vn -0.003922 1.000000 -0.003922

vn -0.003922 1.000000 -0.003922

vn -0.003922 1.000000 -0.003922

vn -0.003922 1.000000 -0.003922

vn -0.003922 1.000000 -0.003922

vn -0.003922 1.000000 -0.003922

f 1/1/1 2/2/2 3/3/3

f 4/4/4 3/3/3 2/2/2

f 5/5/5 6/6/6 7/7/7

f 7/7/7 6/6/6 8/8/8

f 8/8/8 9/9/9 10/10/10

f 9/9/9 8/8/8 11/11/11

f 12/12/12 13/13/13 14/14/14

f 13/13/13 12/12/12 15/15/15

f 16/16/16 17/17/17 18/18/18

f 17/17/17 16/16/16 19/19/19

f 20/20/20 21/21/21 22/22/22

f 22/22/22 21/21/21 23/23/23

f 24/24/24 25/25/25 26/26/26

f 27/27/27 26/26/26 25/25/25

f 28/28/28 29/29/29 30/30/30

f 31/31/31 30/30/30 29/29/29

f 32/32/32 31/31/31 33/33/33

f 34/34/34 33/33/33 31/31/31

f 35/35/35 36/36/36 37/37/37

f 36/36/36 35/35/35 38/38/38

f 38/38/38 39/39/39 40/40/40

f 39/39/39 38/38/38 41/41/41

f 42/42/42 43/43/43 44/44/44

f 42/42/42 44/44/44 45/45/45

f 46/46/46 47/47/47 48/48/48

f 47/47/47 46/46/46 49/49/49

f 50/50/50 51/51/51 52/52/52

f 52/52/52 51/51/51 53/53/53

f 54/54/54 55/55/55 56/56/56

f 55/55/55 54/54/54 57/57/57

f 58/58/58 57/57/57 59/59/59

f 57/57/57 58/58/58 60/60/60

f 61/61/61 62/62/62 63/63/63

f 63/63/63 62/62/62 64/64/64

f 65/65/65 66/66/66 67/67/67

f 66/66/66 65/65/65 68/68/68

f 69/69/69 70/70/70 71/71/71

f 70/70/70 69/69/69 72/72/72

f 72/72/72 69/69/69 73/73/73

f 72/72/72 73/73/73 74/74/74

f 75/75/75 76/76/76 77/77/77

f 76/76/76 75/75/75 78/78/78

f 78/78/78 79/79/79 76/76/76

f 79/79/79 78/78/78 80/80/80

