# UnrealEd OBJ exporter (_Internal)



v 14.150391 12.861609 15.137451

v 14.288208 8.257177 18.394287

v 14.150391 0.170858 15.137451

v 13.820129 15.774189 7.329529

v 14.150391 12.861609 15.137451

v 14.150391 0.170858 15.137451

v 12.832397 0.170858 -16.020142

v 12.716736 8.257168 -18.755493

v 12.832397 12.861612 -16.020203

v 12.832397 0.170858 -16.020142

v 12.832397 12.861612 -16.020203

v 13.079468 15.774168 -10.180054

v -2.588318 12.861591 16.079895

v -2.899841 15.774160 7.414612

v -9.120667 11.288059 12.058350

v -11.114990 12.861614 7.001892

v -2.899841 15.774160 7.414612

v -10.148010 12.861607 -10.631897

v -1.935059 15.774206 -10.330322

v -13.210754 8.257166 -11.599915

v -7.666809 11.288090 -15.548035

v -9.932922 7.880715 -17.638855

v 13.820129 15.774189 7.329529

v -1.935059 15.774206 -10.330322

v -2.899841 15.774160 7.414612

v 13.079468 15.774168 -10.180054

v -0.923767 12.861605 -16.356689

v 12.832397 12.861612 -16.020203

v -1.935059 15.774206 -10.330322

v -10.148010 12.861607 -10.631897

v -1.935059 15.774206 -10.330322

v -7.666809 11.288090 -15.548035

v -0.923767 12.861605 -16.356689

v -1.740173 8.257160 -19.131287

v -7.666809 11.288090 -15.548035

v -9.932922 7.880715 -17.638855

v -3.620422 1.244947 19.111633

v -11.502075 1.387084 13.967346

v -9.120667 0.427076 12.058289

v -2.588318 0.170858 16.079895

v -11.502075 1.387084 13.967346

v -4.558655 3.908185 19.913574

v -12.435608 3.908187 14.791016

v -3.620422 1.244947 19.111633

v -3.620422 8.257174 19.111633

v 14.288208 8.257177 18.394287

v -2.588318 12.861591 16.079895

v 14.150391 12.861609 15.137451

v -2.588318 12.861591 16.079895

v 13.820129 15.774189 7.329529

v -2.899841 15.774160 7.414612

v -4.558655 3.908185 19.913574

v -11.502075 7.880736 13.967407

v -12.435608 3.908187 14.791016

v -3.620422 8.257174 19.111633

v -11.502075 7.880736 13.967407

v -9.120667 11.288059 12.058350

v -2.588318 12.861591 16.079895

v -1.740173 1.244948 -19.131287

v 12.716736 1.244948 -18.755493

v -0.923767 0.170858 -16.356689

v 12.832397 0.170858 -16.020142

v 14.150391 0.170858 15.137451

v -0.923767 0.170858 -16.356689

v -10.148010 0.170858 -10.631836

v -7.666809 0.427076 -15.547974

v -11.114990 0.170858 7.001892

v -2.588318 0.170858 16.079895

v -9.120667 0.427076 12.058289

v -0.923767 0.170858 -16.356689

v -7.666809 0.427076 -15.547974

v -1.740173 1.244948 -19.131287

v -9.932922 1.387084 -17.638794

v -9.932922 1.387084 -17.638794

v -2.597900 3.908190 -19.913574

v -1.740173 1.244948 -19.131287

v -10.901672 3.908206 -18.576660

v -9.932922 7.880715 -17.638855

v -2.597900 3.908190 -19.913574

v -10.901672 3.908206 -18.576660

v -1.740173 8.257160 -19.131287

v -13.210754 1.244947 -11.599915

v -9.932922 1.387084 -17.638794

v -7.666809 0.427076 -15.547974

v -10.148010 0.170858 -10.631836

v -13.916504 1.244948 7.879272

v -13.210754 1.244947 -11.599915

v -11.114990 0.170858 7.001892

v -10.148010 0.170858 -10.631836

v -13.210754 1.244947 -11.599915

v -14.325806 3.908190 8.602966

v -13.823242 3.908185 -12.380188

v -13.916504 1.244948 7.879272

v -11.502075 1.387084 13.967346

v -14.325806 3.908190 8.602966

v -12.435608 3.908187 14.791016

v -13.823242 3.908185 -12.380188

v -9.932922 1.387084 -17.638794

v -13.210754 1.244947 -11.599915

v -10.901672 3.908206 -18.576660

v -11.502075 1.387084 13.967346

v -13.916504 1.244948 7.879272

v -9.120667 0.427076 12.058289

v -11.114990 0.170858 7.001892

v -11.502075 7.880736 13.967407

v -9.120667 11.288059 12.058350

v -13.916504 8.257166 7.879272

v -11.114990 12.861614 7.001892

v -11.114990 12.861614 7.001892

v -10.148010 12.861607 -10.631897

v -13.916504 8.257166 7.879272

v -13.210754 8.257166 -11.599915

v -13.210754 8.257166 -11.599915

v -14.325806 3.908190 8.602966

v -13.916504 8.257166 7.879272

v -13.823242 3.908185 -12.380188

v -11.502075 7.880736 13.967407

v -14.325806 3.908190 8.602966

v -12.435608 3.908187 14.791016

v -13.916504 8.257166 7.879272

v -13.823242 3.908185 -12.380188

v -9.932922 7.880715 -17.638855

v -10.901672 3.908206 -18.576660

v -13.210754 8.257166 -11.599915

v 14.288208 1.244948 18.394287

v -2.588318 0.170858 16.079895

v 14.150391 0.170858 15.137451

v -3.620422 1.244947 19.111633

v 14.325806 3.908188 19.282227

v -4.558655 3.908185 19.913574

v 14.288208 1.244948 18.394287

v -3.620422 8.257174 19.111633

v 14.325806 3.908188 19.282227

v 14.288208 8.257177 18.394287

v -4.558655 3.908185 19.913574

v 12.716736 8.257168 -18.755493

v -0.923767 12.861605 -16.356689

v 12.832397 12.861612 -16.020203

v -1.740173 8.257160 -19.131287

v 12.683899 3.908186 -19.531372

v -2.597900 3.908190 -19.913574

v 12.716736 8.257168 -18.755493

v -1.740173 1.244948 -19.131287

v -2.597900 3.908190 -19.913574

v 12.716736 1.244948 -18.755493

v 13.820129 15.774189 7.329529

v 14.150391 0.170858 15.137451

v 12.832397 0.170858 -16.020142

v 13.079468 15.774168 -10.180054

v 14.150391 0.170858 15.137451

v 14.325806 3.908188 19.282227

v 14.288208 1.244948 18.394287

v 14.288208 8.257177 18.394287

v 12.716736 8.257168 -18.755493

v 12.832397 0.170858 -16.020142

v 12.683899 3.908186 -19.531372

v 12.716736 1.244948 -18.755493



vt 0.412354 0.422852

vt 0.414307 0.424805

vt 0.413574 0.429688

vt 0.409180 0.422363

vt 0.412354 0.422852

vt 0.413574 0.429688

vt 0.399170 0.429688

vt 0.397461 0.424805

vt 0.399170 0.423340

vt 0.399170 0.429688

vt 0.399170 0.423340

vt 0.401855 0.422363

vt 0.435547 0.360840

vt 0.435303 0.363770

vt 0.432617 0.361328

vt 0.431885 0.363770

vt 0.435303 0.363770

vt 0.431885 0.371582

vt 0.435547 0.371582

vt 0.429932 0.372070

vt 0.432861 0.374023

vt 0.431396 0.375000

vt 0.443115 0.363770

vt 0.435547 0.371582

vt 0.435303 0.363770

vt 0.442383 0.371582

vt 0.435791 0.374512

vt 0.442139 0.374512

vt 0.435547 0.371582

vt 0.431885 0.371582

vt 0.435547 0.371582

vt 0.432861 0.374023

vt 0.435791 0.374512

vt 0.435303 0.376465

vt 0.432861 0.374023

vt 0.431396 0.375000

vt 0.434814 0.355957

vt 0.430908 0.354492

vt 0.432129 0.353516

vt 0.435547 0.354492

vt 0.429688 0.358398

vt 0.434326 0.356934

vt 0.430176 0.359375

vt 0.434814 0.355957

vt 0.435059 0.358398

vt 0.443848 0.358887

vt 0.435547 0.360840

vt 0.443604 0.360840

vt 0.435547 0.360840

vt 0.443115 0.363770

vt 0.435303 0.363770

vt 0.434326 0.356934

vt 0.431152 0.360352

vt 0.430176 0.359375

vt 0.435059 0.358398

vt 0.431152 0.360352

vt 0.432617 0.361328

vt 0.435547 0.360840

vt 0.436035 0.337891

vt 0.443115 0.338379

vt 0.436279 0.339355

vt 0.443115 0.339844

vt 0.443848 0.354492

vt 0.436279 0.339355

vt 0.431885 0.342285

vt 0.433105 0.339844

vt 0.431152 0.351074

vt 0.435547 0.354492

vt 0.432129 0.353516

vt 0.436279 0.339355

vt 0.433105 0.339844

vt 0.436035 0.337891

vt 0.431885 0.338867

vt 0.429932 0.376953

vt 0.434570 0.377930

vt 0.434570 0.379395

vt 0.430420 0.375977

vt 0.431396 0.375000

vt 0.434570 0.377930

vt 0.430420 0.375977

vt 0.435303 0.376465

vt 0.430176 0.341797

vt 0.431885 0.338867

vt 0.433105 0.339844

vt 0.431885 0.342285

vt 0.429688 0.351074

vt 0.430176 0.341797

vt 0.431152 0.351074

vt 0.431885 0.342285

vt 0.427490 0.373047

vt 0.428467 0.362305

vt 0.428467 0.373047

vt 0.427490 0.362305

vt 0.429688 0.358398

vt 0.428467 0.362305

vt 0.430176 0.359375

vt 0.428467 0.373047

vt 0.429932 0.376953

vt 0.427490 0.373047

vt 0.430420 0.375977

vt 0.430908 0.354492

vt 0.429688 0.351074

vt 0.432129 0.353516

vt 0.431152 0.351074

vt 0.431152 0.360352

vt 0.432617 0.361328

vt 0.429932 0.362793

vt 0.431885 0.363770

vt 0.431885 0.363770

vt 0.431885 0.371582

vt 0.429932 0.362793

vt 0.429932 0.372070

vt 0.429932 0.372070

vt 0.428467 0.362305

vt 0.429932 0.362793

vt 0.428467 0.373047

vt 0.431152 0.360352

vt 0.428467 0.362305

vt 0.430176 0.359375

vt 0.429932 0.362793

vt 0.428467 0.373047

vt 0.431396 0.375000

vt 0.430420 0.375977

vt 0.429932 0.372070

vt 0.444092 0.356445

vt 0.435547 0.354492

vt 0.443848 0.354492

vt 0.434814 0.355957

vt 0.443848 0.357422

vt 0.434326 0.356934

vt 0.444092 0.356445

vt 0.435059 0.358398

vt 0.443848 0.357422

vt 0.443848 0.358887

vt 0.434326 0.356934

vt 0.442139 0.376465

vt 0.435791 0.374512

vt 0.442139 0.374512

vt 0.435303 0.376465

vt 0.442139 0.377930

vt 0.434570 0.377930

vt 0.442139 0.376465

vt 0.434570 0.379395

vt 0.434570 0.377930

vt 0.442383 0.378906

vt 0.409180 0.422363

vt 0.413574 0.429688

vt 0.399170 0.429688

vt 0.401855 0.422363

vt 0.413574 0.429688

vt 0.415039 0.426758

vt 0.414307 0.428711

vt 0.414307 0.424805

vt 0.397461 0.424805

vt 0.399170 0.429688

vt 0.396973 0.426758

vt 0.397461 0.428711



vn 0.992157 -0.003922 -0.043137

vn 0.992157 -0.003922 -0.043137

vn 0.992157 -0.003922 -0.043137

vn 0.992157 -0.003922 -0.043137

vn 0.992157 -0.003922 -0.043137

vn 0.992157 -0.003922 -0.043137

vn 0.992157 -0.003922 -0.043137

vn 0.992157 -0.003922 -0.043137

vn 0.992157 -0.003922 -0.043137

vn 0.992157 -0.003922 -0.043137

vn 0.992157 -0.003922 -0.043137

vn 0.992157 -0.003922 -0.043137

vn -0.192157 0.772549 0.592157

vn -0.184314 0.968628 0.168628

vn -0.529412 0.709804 0.458824

vn -0.615686 0.772549 0.152941

vn -0.184314 0.968628 0.168628

vn -0.584314 0.780392 -0.239216

vn -0.160784 0.960784 -0.231372

vn -0.890196 0.380392 -0.247059

vn -0.388235 0.701961 -0.600000

vn -0.537255 0.419608 -0.741176

vn 0.003922 0.984314 0.168628

vn -0.160784 0.960784 -0.231372

vn -0.184314 0.968628 0.168628

vn -0.003922 0.968628 -0.223529

vn -0.105882 0.741177 -0.670588

vn 0.011765 0.733333 -0.678431

vn -0.160784 0.960784 -0.231372

vn -0.584314 0.780392 -0.239216

vn -0.160784 0.960784 -0.231372

vn -0.388235 0.701961 -0.600000

vn -0.105882 0.741177 -0.670588

vn -0.082353 0.372549 -0.929412

vn -0.388235 0.701961 -0.600000

vn -0.537255 0.419608 -0.741176

vn -0.176471 -0.694118 0.701961

vn -0.568627 -0.694118 0.443137

vn -0.152941 -0.984314 0.121569

vn -0.058823 -0.984314 0.176471

vn -0.568627 -0.694118 0.443137

vn -0.301961 -0.074510 0.945098

vn -0.788235 -0.066667 0.615686

vn -0.176471 -0.694118 0.701961

vn -0.247059 0.411765 0.874510

vn 0.035294 0.380392 0.921569

vn -0.192157 0.772549 0.592157

vn 0.019608 0.788235 0.607843

vn -0.192157 0.772549 0.592157

vn 0.003922 0.984314 0.168628

vn -0.184314 0.968628 0.168628

vn -0.301961 -0.074510 0.945098

vn -0.709804 0.411765 0.568628

vn -0.788235 -0.066667 0.615686

vn -0.247059 0.411765 0.874510

vn -0.709804 0.411765 0.568628

vn -0.529412 0.709804 0.458824

vn -0.192157 0.772549 0.592157

vn -0.058823 -0.686275 -0.733333

vn 0.011765 -0.686275 -0.733333

vn -0.019608 -0.984314 -0.192157

vn -0.003922 -0.984314 -0.184314

vn 0.003922 -0.992157 0.160784

vn -0.019608 -0.984314 -0.192157

vn -0.176471 -0.984314 -0.058823

vn -0.113725 -0.984314 -0.184314

vn -0.192157 -0.984314 0.027451

vn -0.058823 -0.984314 0.176471

vn -0.152941 -0.984314 0.121569

vn -0.019608 -0.984314 -0.192157

vn -0.113725 -0.984314 -0.184314

vn -0.058823 -0.686275 -0.733333

vn -0.427451 -0.694118 -0.592157

vn -0.427451 -0.694118 -0.592157

vn -0.090196 -0.066667 -1.000000

vn -0.058823 -0.686275 -0.733333

vn -0.607843 -0.074510 -0.796078

vn -0.537255 0.419608 -0.741176

vn -0.090196 -0.066667 -1.000000

vn -0.607843 -0.074510 -0.796078

vn -0.082353 0.372549 -0.929412

vn -0.733333 -0.670588 -0.176471

vn -0.427451 -0.694118 -0.592157

vn -0.113725 -0.984314 -0.184314

vn -0.176471 -0.984314 -0.058823

vn -0.749020 -0.654902 0.105882

vn -0.733333 -0.670588 -0.176471

vn -0.192157 -0.984314 0.027451

vn -0.176471 -0.984314 -0.058823

vn -0.733333 -0.670588 -0.176471

vn -0.984314 -0.058823 0.168628

vn -0.968627 -0.058823 -0.270588

vn -0.749020 -0.654902 0.105882

vn -0.568627 -0.694118 0.443137

vn -0.984314 -0.058823 0.168628

vn -0.788235 -0.066667 0.615686

vn -0.968627 -0.058823 -0.270588

vn -0.427451 -0.694118 -0.592157

vn -0.733333 -0.670588 -0.176471

vn -0.607843 -0.074510 -0.796078

vn -0.568627 -0.694118 0.443137

vn -0.749020 -0.654902 0.105882

vn -0.152941 -0.984314 0.121569

vn -0.192157 -0.984314 0.027451

vn -0.709804 0.411765 0.568628

vn -0.529412 0.709804 0.458824

vn -0.913725 0.372549 0.160784

vn -0.615686 0.772549 0.152941

vn -0.615686 0.772549 0.152941

vn -0.584314 0.780392 -0.239216

vn -0.913725 0.372549 0.160784

vn -0.890196 0.380392 -0.247059

vn -0.890196 0.380392 -0.247059

vn -0.984314 -0.058823 0.168628

vn -0.913725 0.372549 0.160784

vn -0.968627 -0.058823 -0.270588

vn -0.709804 0.411765 0.568628

vn -0.984314 -0.058823 0.168628

vn -0.788235 -0.066667 0.615686

vn -0.913725 0.372549 0.160784

vn -0.968627 -0.058823 -0.270588

vn -0.537255 0.419608 -0.741176

vn -0.607843 -0.074510 -0.796078

vn -0.890196 0.380392 -0.247059

vn 0.027451 -0.701961 0.709804

vn -0.058823 -0.984314 0.176471

vn 0.003922 -0.992157 0.160784

vn -0.176471 -0.694118 0.701961

vn 0.035294 -0.058823 0.992157

vn -0.301961 -0.074510 0.945098

vn 0.027451 -0.701961 0.709804

vn -0.247059 0.411765 0.874510

vn 0.035294 -0.058823 0.992157

vn 0.035294 0.380392 0.921569

vn -0.301961 -0.074510 0.945098

vn 0.019608 0.349020 -0.937255

vn -0.105882 0.741177 -0.670588

vn 0.011765 0.733333 -0.678431

vn -0.082353 0.372549 -0.929412

vn 0.019608 -0.058823 -1.000000

vn -0.090196 -0.066667 -1.000000

vn 0.019608 0.349020 -0.937255

vn -0.058823 -0.686275 -0.733333

vn -0.090196 -0.066667 -1.000000

vn 0.011765 -0.686275 -0.733333

vn 0.992157 -0.003922 -0.043137

vn 0.992157 -0.003922 -0.043137

vn 0.992157 -0.003922 -0.043137

vn 0.992157 -0.003922 -0.043137

vn 0.992157 -0.003922 -0.043137

vn 0.992157 -0.003922 -0.043137

vn 0.992157 -0.003922 -0.043137

vn 0.992157 -0.003922 -0.043137

vn 0.992157 -0.003922 -0.043137

vn 0.992157 -0.003922 -0.043137

vn 0.992157 -0.003922 -0.043137

vn 0.992157 -0.003922 -0.043137

f 1/1/1 2/2/2 3/3/3

f 4/4/4 5/5/5 6/6/6

f 7/7/7 8/8/8 9/9/9

f 10/10/10 11/11/11 12/12/12

f 13/13/13 14/14/14 15/15/15

f 15/15/15 14/14/14 16/16/16

f 17/17/17 18/18/18 16/16/16

f 18/18/18 17/17/17 19/19/19

f 20/20/20 18/18/18 21/21/21

f 20/20/20 21/21/21 22/22/22

f 23/23/23 24/24/24 25/25/25

f 24/24/24 23/23/23 26/26/26

f 27/27/27 26/26/26 28/28/28

f 26/26/26 27/27/27 29/29/29

f 30/30/30 31/31/31 32/32/32

f 32/32/32 31/31/31 33/33/33

f 34/34/34 35/35/35 33/33/33

f 34/34/34 36/36/36 35/35/35

f 37/37/37 38/38/38 39/39/39

f 39/39/39 40/40/40 37/37/37

f 41/41/41 42/42/42 43/43/43

f 42/42/42 41/41/41 44/44/44

f 45/45/45 46/46/46 47/47/47

f 48/48/48 47/47/47 46/46/46

f 49/49/49 48/48/48 50/50/50

f 49/49/49 50/50/50 51/51/51

f 52/52/52 53/53/53 54/54/54

f 53/53/53 52/52/52 55/55/55

f 56/56/56 55/55/55 57/57/57

f 58/58/58 57/57/57 55/55/55

f 59/59/59 60/60/60 61/61/61

f 62/62/62 61/61/61 60/60/60

f 63/63/63 64/64/64 62/62/62

f 64/64/64 65/65/65 66/66/66

f 64/64/64 67/67/67 65/65/65

f 67/67/67 64/64/64 63/63/63

f 67/67/67 63/63/63 68/68/68

f 67/67/67 68/68/68 69/69/69

f 70/70/70 71/71/71 72/72/72

f 71/71/71 73/73/73 72/72/72

f 74/74/74 75/75/75 76/76/76

f 75/75/75 74/74/74 77/77/77

f 78/78/78 79/79/79 80/80/80

f 79/79/79 78/78/78 81/81/81

f 82/82/82 83/83/83 84/84/84

f 82/82/82 84/84/84 85/85/85

f 86/86/86 87/87/87 88/88/88

f 88/88/88 87/87/87 89/89/89

f 90/90/90 91/91/91 92/92/92

f 91/91/91 90/90/90 93/93/93

f 94/94/94 95/95/95 93/93/93

f 95/95/95 94/94/94 96/96/96

f 97/97/97 98/98/98 99/99/99

f 98/98/98 97/97/97 100/100/100

f 101/101/101 102/102/102 103/103/103

f 103/103/103 102/102/102 104/104/104

f 105/105/105 106/106/106 107/107/107

f 106/106/106 108/108/108 107/107/107

f 109/109/109 110/110/110 111/111/111

f 111/111/111 110/110/110 112/112/112

f 113/113/113 114/114/114 115/115/115

f 114/114/114 113/113/113 116/116/116

f 117/117/117 118/118/118 119/119/119

f 118/118/118 117/117/117 120/120/120

f 121/121/121 122/122/122 123/123/123

f 122/122/122 121/121/121 124/124/124

f 125/125/125 126/126/126 127/127/127

f 125/125/125 128/128/128 126/126/126

f 128/128/128 129/129/129 130/130/130

f 129/129/129 128/128/128 131/131/131

f 132/132/132 133/133/133 134/134/134

f 133/133/133 132/132/132 135/135/135

f 136/136/136 137/137/137 138/138/138

f 136/136/136 139/139/139 137/137/137

f 139/139/139 140/140/140 141/141/141

f 140/140/140 139/139/139 142/142/142

f 140/140/140 143/143/143 144/144/144

f 143/143/143 140/140/140 145/145/145

f 146/146/146 147/147/147 148/148/148

f 146/146/146 148/148/148 149/149/149

f 150/150/150 151/151/151 152/152/152

f 151/151/151 150/150/150 153/153/153

f 154/154/154 155/155/155 156/156/156

f 155/155/155 157/157/157 156/156/156

