# UnrealEd OBJ exporter (_Internal)



v 10.052307 -0.180084 15.287842

v 12.787415 2.554993 15.287842

v 10.052307 2.554992 18.022949

v 10.052307 2.554993 -18.023010

v 12.787415 2.554993 -15.287903

v 10.052307 -0.180084 -15.287903

v 10.052307 25.626579 20.972900

v 12.787415 26.421129 18.237854

v 10.052307 29.265133 18.391357

v 12.787415 30.864052 6.007629

v 10.052307 29.265133 18.391357

v 10.052307 33.599098 6.007690

v 12.787415 30.864052 6.007629

v 10.052307 33.599144 -6.007690

v 12.787415 30.864098 -6.007690

v 12.787415 24.466980 -0.000000

v 12.787415 30.864052 6.007629

v 12.787415 22.161480 -18.284851

v 12.787415 20.110443 -15.342041

v 12.787415 20.110413 15.342041

v 12.787415 22.161457 18.284790

v 10.052307 29.265141 -18.391357

v 12.787415 26.421095 -18.237854

v 10.052307 25.626595 -20.972961

v 10.052307 29.265141 -18.391357

v 12.787415 30.864098 -6.007690

v 10.052307 33.599144 -6.007690

v -10.364746 33.584011 -5.990112

v -9.252747 29.253830 -18.337585

v -9.285828 19.566296 -17.970215

v -9.020935 25.618586 -20.911621

v -9.252747 29.253830 -18.337585

v -9.020935 21.652277 -20.911621

v -12.522522 19.566307 17.970276

v -12.555664 29.253860 18.337585

v -11.443665 33.583961 5.990112

v -12.787415 25.618603 20.911560

v -12.787415 21.652233 20.911560

v -12.555664 29.253860 18.337585

v 12.787415 20.110443 -15.342041

v 12.787415 2.554993 15.287842

v 12.787415 2.554993 -15.287903

v 12.787415 20.110413 15.342041

v 10.052307 19.568844 18.022949

v 12.787415 2.554993 15.287842

v 10.052307 2.554992 18.022949

v 10.052307 19.568851 -18.022949

v 12.787415 2.554993 -15.287903

v 10.052307 2.554993 -18.023010

v 12.787415 20.110443 -15.342041

v 10.052307 -0.180084 15.287842

v 10.052307 -0.180084 -15.287903

v 12.787415 2.554993 15.287842

v 12.787415 2.554993 -15.287903

v 12.787415 22.161457 18.284790

v 10.052307 19.568844 18.022949

v 12.787415 20.110413 15.342041

v 10.052307 21.656670 20.972900

v 12.787415 22.161457 18.284790

v 10.052307 25.626579 20.972900

v 10.052307 21.656670 20.972900

v 12.787415 26.421129 18.237854

v 12.787415 22.161457 18.284790

v 12.787415 30.864052 6.007629

v 12.787415 24.466980 -0.000000

v 12.787415 22.161480 -18.284851

v 12.787415 30.864098 -6.007690

v 12.787415 26.421095 -18.237854

v 12.787415 22.161480 -18.284851

v 10.052307 25.626595 -20.972961

v 10.052307 21.656685 -20.972900

v 12.787415 22.161480 -18.284851

v 10.052307 19.568851 -18.022949

v 10.052307 21.656685 -20.972900

v 12.787415 20.110443 -15.342041

v -11.443665 33.583961 5.990112

v -9.531433 -0.164948 -15.243164

v -12.276917 -0.164948 15.243164

v -10.364746 33.584011 -5.990112

v -9.285828 19.566296 -17.970215

v -9.531433 -0.164948 -15.243164

v -10.364746 33.584011 -5.990112

v -9.285828 2.567688 -17.970276

v -12.276917 -0.164948 15.243164

v -12.522522 19.566307 17.970276

v -11.443665 33.583961 5.990112

v -12.522522 2.567688 17.970276

v 10.052307 -0.180084 -15.287903

v -9.285828 2.567688 -17.970276

v 10.052307 2.554993 -18.023010

v -9.531433 -0.164948 -15.243164

v 10.052307 -0.180084 15.287842

v -12.276917 -0.164948 15.243164

v 10.052307 2.554992 18.022949

v 10.052307 -0.180084 15.287842

v -12.522522 2.567688 17.970276

v 10.052307 19.568844 18.022949

v -12.522522 19.566307 17.970276

v 10.052307 21.656670 20.972900

v -12.787415 21.652233 20.911560

v -12.787415 25.618603 20.911560

v 10.052307 25.626579 20.972900

v -12.555664 29.253860 18.337585

v 10.052307 29.265133 18.391357

v -11.443665 33.583961 5.990112

v 10.052307 33.599098 6.007690

v -10.364746 33.584011 -5.990112

v 10.052307 33.599144 -6.007690

v 10.052307 33.599144 -6.007690

v -9.252747 29.253830 -18.337585

v 10.052307 29.265141 -18.391357

v -9.020935 25.618586 -20.911621

v 10.052307 25.626595 -20.972961

v 10.052307 21.656685 -20.972900

v -9.020935 21.652277 -20.911621

v 10.052307 19.568851 -18.022949

v -9.285828 19.566296 -17.970215

v -9.285828 2.567688 -17.970276

v 10.052307 2.554993 -18.023010



vt 0.344727 0.436035

vt 0.345947 0.436035

vt 0.345703 0.437012

vt 0.345703 0.425781

vt 0.345947 0.426758

vt 0.344727 0.426758

vt 0.353027 0.437988

vt 0.353271 0.437012

vt 0.354248 0.437012

vt 0.354492 0.433105

vt 0.354248 0.437012

vt 0.355713 0.433594

vt 0.354492 0.433105

vt 0.355713 0.429688

vt 0.354492 0.429688

vt 0.352539 0.431641

vt 0.354492 0.433105

vt 0.351807 0.425781

vt 0.351318 0.426758

vt 0.351318 0.436035

vt 0.351807 0.437012

vt 0.354248 0.425781

vt 0.353271 0.425781

vt 0.353027 0.424805

vt 0.354248 0.425781

vt 0.354492 0.429688

vt 0.355713 0.429688

vt 0.354248 0.488770

vt 0.355713 0.485352

vt 0.358643 0.484863

vt 0.356689 0.484375

vt 0.355713 0.485352

vt 0.357910 0.484375

vt 0.358643 0.496582

vt 0.355713 0.496094

vt 0.354248 0.492676

vt 0.356689 0.497070

vt 0.357910 0.497070

vt 0.355713 0.496094

vt 0.351318 0.426758

vt 0.345947 0.436035

vt 0.345947 0.426758

vt 0.351318 0.436035

vt 0.350830 0.437500

vt 0.345947 0.436035

vt 0.345703 0.437012

vt 0.350830 0.425293

vt 0.345947 0.426758

vt 0.345703 0.425781

vt 0.351318 0.426758

vt 0.344727 0.436035

vt 0.344727 0.426758

vt 0.345947 0.436035

vt 0.345947 0.426758

vt 0.351807 0.437012

vt 0.350830 0.437500

vt 0.351318 0.436035

vt 0.351807 0.437988

vt 0.351807 0.437012

vt 0.353027 0.437988

vt 0.351807 0.437988

vt 0.353271 0.437012

vt 0.351807 0.437012

vt 0.354492 0.433105

vt 0.352539 0.431641

vt 0.351807 0.425781

vt 0.354492 0.429688

vt 0.353271 0.425781

vt 0.351807 0.425781

vt 0.353027 0.424805

vt 0.351807 0.424805

vt 0.351807 0.425781

vt 0.350830 0.425293

vt 0.351807 0.424805

vt 0.351318 0.426758

vt 0.354248 0.492676

vt 0.364502 0.485840

vt 0.364502 0.495117

vt 0.354248 0.488770

vt 0.358643 0.484863

vt 0.364502 0.485840

vt 0.354248 0.488770

vt 0.363770 0.485352

vt 0.364502 0.495117

vt 0.358643 0.496582

vt 0.354248 0.492676

vt 0.363770 0.496094

vt 0.446777 0.296387

vt 0.440918 0.295410

vt 0.446777 0.295410

vt 0.440918 0.296387

vt 0.446777 0.305664

vt 0.439941 0.305664

vt 0.446777 0.307129

vt 0.446777 0.305664

vt 0.439941 0.307129

vt 0.446777 0.312012

vt 0.439941 0.312012

vt 0.446777 0.312988

vt 0.439941 0.312988

vt 0.439941 0.314453

vt 0.446777 0.314453

vt 0.439941 0.315918

vt 0.446777 0.315918

vt 0.440186 0.319824

vt 0.446777 0.319824

vt 0.440674 0.323242

vt 0.446777 0.323242

vt 0.446777 0.323242

vt 0.440918 0.327637

vt 0.446777 0.327637

vt 0.440918 0.328613

vt 0.446777 0.328613

vt 0.446777 0.330078

vt 0.440918 0.330078

vt 0.446777 0.331055

vt 0.440918 0.331055

vt 0.440918 0.336426

vt 0.446777 0.336426



vn 0.333333 -0.882353 0.341177

vn 0.874510 -0.349020 0.341177

vn 0.333333 -0.349020 0.874510

vn 0.333333 -0.349020 -0.882353

vn 0.874510 -0.349020 -0.349020

vn 0.333333 -0.882353 -0.349020

vn 0.333333 0.254902 0.898039

vn 0.858824 0.286275 0.403922

vn 0.325490 0.764706 0.545098

vn 0.905882 0.403922 0.074510

vn 0.325490 0.764706 0.545098

vn 0.364706 0.913726 0.145098

vn 0.905882 0.403922 0.074510

vn 0.364706 0.913726 -0.152941

vn 0.905882 0.403922 -0.082353

vn 1.000000 -0.003922 -0.003922

vn 0.905882 0.403922 0.074510

vn 0.866667 -0.262745 -0.419608

vn 0.952941 -0.121569 -0.254902

vn 0.952941 -0.121569 0.247059

vn 0.866667 -0.262745 0.411765

vn 0.325490 0.764706 -0.552941

vn 0.858824 0.286275 -0.411765

vn 0.333333 0.254902 -0.905882

vn 0.325490 0.764706 -0.552941

vn 0.905882 0.403922 -0.082353

vn 0.364706 0.913726 -0.152941

vn -1.000000 -0.003922 -0.090196

vn -1.000000 -0.003922 -0.090196

vn -1.000000 -0.003922 -0.090196

vn -1.000000 -0.003922 -0.090196

vn -1.000000 -0.003922 -0.090196

vn -1.000000 -0.003922 -0.090196

vn -1.000000 -0.003922 -0.090196

vn -1.000000 -0.003922 -0.090196

vn -1.000000 -0.003922 -0.090196

vn -1.000000 -0.003922 -0.090196

vn -1.000000 -0.003922 -0.090196

vn -1.000000 -0.003922 -0.090196

vn 0.952941 -0.121569 -0.254902

vn 0.874510 -0.349020 0.341177

vn 0.874510 -0.349020 -0.349020

vn 0.952941 -0.121569 0.247059

vn 0.403922 -0.458824 0.788235

vn 0.874510 -0.349020 0.341177

vn 0.333333 -0.349020 0.874510

vn 0.403922 -0.458824 -0.796078

vn 0.874510 -0.349020 -0.349020

vn 0.333333 -0.349020 -0.882353

vn 0.952941 -0.121569 -0.254902

vn 0.333333 -0.882353 0.341177

vn 0.333333 -0.882353 -0.349020

vn 0.874510 -0.349020 0.341177

vn 0.874510 -0.349020 -0.349020

vn 0.866667 -0.262745 0.411765

vn 0.403922 -0.458824 0.788235

vn 0.952941 -0.121569 0.247059

vn 0.341177 -0.419608 0.835294

vn 0.866667 -0.262745 0.411765

vn 0.333333 0.254902 0.898039

vn 0.341177 -0.419608 0.835294

vn 0.858824 0.286275 0.403922

vn 0.866667 -0.262745 0.411765

vn 0.905882 0.403922 0.074510

vn 1.000000 -0.003922 -0.003922

vn 0.866667 -0.262745 -0.419608

vn 0.905882 0.403922 -0.082353

vn 0.858824 0.286275 -0.411765

vn 0.866667 -0.262745 -0.419608

vn 0.333333 0.254902 -0.905882

vn 0.341177 -0.419608 -0.843137

vn 0.866667 -0.262745 -0.419608

vn 0.403922 -0.458824 -0.796078

vn 0.341177 -0.419608 -0.843137

vn 0.952941 -0.121569 -0.254902

vn -1.000000 -0.003922 -0.090196

vn -1.000000 -0.003922 -0.090196

vn -1.000000 -0.003922 -0.090196

vn -1.000000 -0.003922 -0.090196

vn -1.000000 -0.003922 -0.090196

vn -1.000000 -0.003922 -0.090196

vn -1.000000 -0.003922 -0.090196

vn -1.000000 -0.003922 -0.090196

vn -1.000000 -0.003922 -0.090196

vn -1.000000 -0.003922 -0.090196

vn -1.000000 -0.003922 -0.090196

vn -1.000000 -0.003922 -0.090196

vn 0.333333 -0.882353 -0.349020

vn -0.003922 -0.396078 -0.921569

vn 0.333333 -0.349020 -0.882353

vn -0.003922 -0.937255 -0.364706

vn 0.333333 -0.882353 0.341177

vn -0.003922 -0.921569 0.396078

vn 0.333333 -0.349020 0.874510

vn 0.333333 -0.882353 0.341177

vn -0.003922 -0.380392 0.921569

vn 0.403922 -0.458824 0.788235

vn -0.003922 -0.474510 0.882353

vn 0.341177 -0.419608 0.835294

vn -0.003922 -0.450980 0.890196

vn -0.003922 0.294118 0.952941

vn 0.333333 0.254902 0.898039

vn -0.003922 0.788235 0.607843

vn 0.325490 0.764706 0.545098

vn -0.003922 0.976471 0.176471

vn 0.364706 0.913726 0.145098

vn -0.003922 0.984314 -0.160784

vn 0.364706 0.913726 -0.152941

vn 0.364706 0.913726 -0.152941

vn -0.003922 0.803922 -0.592157

vn 0.325490 0.764706 -0.552941

vn -0.003922 0.301961 -0.952941

vn 0.333333 0.254902 -0.905882

vn 0.341177 -0.419608 -0.843137

vn -0.003922 -0.474510 -0.890196

vn 0.403922 -0.458824 -0.796078

vn -0.003922 -0.450980 -0.898039

vn -0.003922 -0.396078 -0.921569

vn 0.333333 -0.349020 -0.882353

f 1/1/1 2/2/2 3/3/3

f 4/4/4 5/5/5 6/6/6

f 7/7/7 8/8/8 9/9/9

f 8/8/8 10/10/10 11/11/11

f 11/11/11 10/10/10 12/12/12

f 13/13/13 14/14/14 12/12/12

f 14/14/14 13/13/13 15/15/15

f 16/16/16 15/15/15 17/17/17

f 18/18/18 16/16/16 19/19/19

f 16/16/16 20/20/20 19/19/19

f 20/20/20 16/16/16 21/21/21

f 22/22/22 23/23/23 24/24/24

f 25/25/25 26/26/26 23/23/23

f 26/26/26 25/25/25 27/27/27

f 28/28/28 29/29/29 30/30/30

f 31/31/31 30/30/30 32/32/32

f 30/30/30 31/31/31 33/33/33

f 34/34/34 35/35/35 36/36/36

f 37/37/37 34/34/34 38/38/38

f 39/39/39 34/34/34 37/37/37

f 40/40/40 41/41/41 42/42/42

f 41/41/41 40/40/40 43/43/43

f 44/44/44 45/45/45 43/43/43

f 45/45/45 44/44/44 46/46/46

f 47/47/47 48/48/48 49/49/49

f 48/48/48 47/47/47 50/50/50

f 51/51/51 52/52/52 53/53/53

f 53/53/53 52/52/52 54/54/54

f 55/55/55 56/56/56 57/57/57

f 55/55/55 58/58/58 56/56/56

f 59/59/59 60/60/60 61/61/61

f 60/60/60 59/59/59 62/62/62

f 63/63/63 64/64/64 62/62/62

f 64/64/64 63/63/63 65/65/65

f 66/66/66 67/67/67 65/65/65

f 67/67/67 66/66/66 68/68/68

f 69/69/69 70/70/70 68/68/68

f 71/71/71 70/70/70 69/69/69

f 72/72/72 73/73/73 74/74/74

f 73/73/73 72/72/72 75/75/75

f 76/76/76 77/77/77 78/78/78

f 77/77/77 76/76/76 79/79/79

f 80/80/80 81/81/81 82/82/82

f 81/81/81 80/80/80 83/83/83

f 84/84/84 85/85/85 86/86/86

f 85/85/85 84/84/84 87/87/87

f 88/88/88 89/89/89 90/90/90

f 88/88/88 91/91/91 89/89/89

f 92/92/92 91/91/91 88/88/88

f 92/92/92 93/93/93 91/91/91

f 94/94/94 93/93/93 95/95/95

f 93/93/93 94/94/94 96/96/96

f 97/97/97 96/96/96 94/94/94

f 97/97/97 98/98/98 96/96/96

f 99/99/99 98/98/98 97/97/97

f 98/98/98 99/99/99 100/100/100

f 99/99/99 101/101/101 100/100/100

f 101/101/101 99/99/99 102/102/102

f 102/102/102 103/103/103 101/101/101

f 103/103/103 102/102/102 104/104/104

f 104/104/104 105/105/105 103/103/103

f 105/105/105 104/104/104 106/106/106

f 105/105/105 106/106/106 107/107/107

f 106/106/106 108/108/108 107/107/107

f 107/107/107 109/109/109 110/110/110

f 109/109/109 111/111/111 110/110/110

f 111/111/111 112/112/112 110/110/110

f 112/112/112 111/111/111 113/113/113

f 114/114/114 112/112/112 113/113/113

f 114/114/114 115/115/115 112/112/112

f 116/116/116 115/115/115 114/114/114

f 116/116/116 117/117/117 115/115/115

f 116/116/116 118/118/118 117/117/117

f 118/118/118 116/116/116 119/119/119

