# UnrealEd OBJ exporter (_Internal)



v -2.579620 -0.116593 16.260132

v -11.327515 -0.116594 16.592529

v -15.237610 -0.116595 5.420044

v -8.044861 -0.116593 18.921570

v -4.463257 -0.116593 18.921570

v -11.327515 -0.116594 16.592529

v -15.237610 -0.116595 -5.420166

v -11.327515 -0.116594 -16.592529

v -2.579620 -0.116593 -16.260132

v -8.044861 -0.116593 -18.921631

v -11.327515 -0.116594 -16.592529

v -4.463257 -0.116593 -18.921631

v 15.237640 -0.116590 13.792603

v 15.237640 7.110088 -13.792542

v 15.237640 7.110097 13.792603

v 15.237640 -0.116590 -13.792603

v -15.237610 -0.116595 5.420044

v -15.237671 7.110090 5.420044

v -15.237671 7.110094 -5.420105

v -15.237610 -0.116595 -5.420166

v -4.463257 -0.116593 18.921570

v -2.579651 7.110088 16.260193

v -4.463287 7.110091 18.921570

v -2.579620 -0.116593 16.260132

v -2.579620 -0.116593 -16.260132

v -4.463287 7.110094 -18.921631

v -2.579651 7.110096 -16.260132

v -4.463257 -0.116593 -18.921631

v -15.237610 -0.116595 -5.420166

v -15.237671 7.110094 -5.420105

v -11.327545 7.110090 -16.592468

v -11.327515 -0.116594 -16.592529

v -11.327545 7.110094 16.592529

v -15.237671 7.110090 5.420044

v -11.327515 -0.116594 16.592529

v -15.237610 -0.116595 5.420044

v -4.463287 7.110091 18.921570

v -8.044861 -0.116593 18.921570

v -4.463257 -0.116593 18.921570

v -8.044922 7.110091 18.921570

v 12.770081 7.110088 16.260193

v -2.579620 -0.116593 16.260132

v 12.770081 -0.116590 16.260132

v -2.579651 7.110088 16.260193

v -4.463287 7.110094 -18.921631

v -4.463257 -0.116593 -18.921631

v -8.044861 -0.116593 -18.921631

v -8.044922 7.110094 -18.921631

v -2.579620 -0.116593 -16.260132

v 12.770081 7.110096 -16.260132

v 12.770081 -0.116590 -16.260132

v -2.579651 7.110096 -16.260132

v 15.237640 -0.116590 -13.792603

v 12.770081 7.110096 -16.260132

v 15.237640 7.110088 -13.792542

v 12.770081 -0.116590 -16.260132

v 12.770081 -0.116590 16.260132

v 15.237640 7.110097 13.792603

v 12.770081 7.110088 16.260193

v 15.237640 -0.116590 13.792603

v -8.044922 7.110091 18.921570

v -11.327515 -0.116594 16.592529

v -8.044861 -0.116593 18.921570

v -11.327545 7.110094 16.592529

v -11.327515 -0.116594 -16.592529

v -8.044922 7.110094 -18.921631

v -8.044861 -0.116593 -18.921631

v -11.327545 7.110090 -16.592468

v -15.237610 -0.116595 5.420044

v 15.237640 -0.116590 -13.792603

v 15.237640 -0.116590 13.792603

v -15.237610 -0.116595 -5.420166

v -2.579620 -0.116593 -16.260132

v 15.237640 -0.116590 -13.792603

v -15.237610 -0.116595 -5.420166

v 12.770081 -0.116590 -16.260132

v 15.237640 -0.116590 13.792603

v -2.579620 -0.116593 16.260132

v -15.237610 -0.116595 5.420044

v 12.770081 -0.116590 16.260132

v -2.579651 7.110088 16.260193

v -8.044922 7.110091 18.921570

v -4.463287 7.110091 18.921570

v -11.327545 7.110094 16.592529

v -15.237671 7.110090 5.420044

v 15.237640 7.110097 13.792603

v 12.770081 7.110088 16.260193

v 15.237640 7.110088 -13.792542

v -15.237671 7.110094 -5.420105

v -2.579651 7.110096 -16.260132

v 12.770081 7.110096 -16.260132

v -11.327545 7.110090 -16.592468

v -8.044922 7.110094 -18.921631

v -4.463287 7.110094 -18.921631



vt 0.358643 0.496582

vt 0.355713 0.496094

vt 0.354248 0.492676

vt 0.356689 0.497070

vt 0.357910 0.497070

vt 0.355713 0.496094

vt 0.354248 0.488770

vt 0.355713 0.485352

vt 0.358643 0.484863

vt 0.356689 0.484375

vt 0.355713 0.485352

vt 0.357910 0.484375

vt 0.364502 0.495117

vt 0.366455 0.485352

vt 0.366455 0.496094

vt 0.364502 0.485840

vt 0.354248 0.492676

vt 0.352051 0.493164

vt 0.352051 0.488281

vt 0.354248 0.488770

vt 0.357910 0.497070

vt 0.359131 0.499023

vt 0.357422 0.499512

vt 0.358643 0.496582

vt 0.358643 0.484863

vt 0.357422 0.481934

vt 0.359131 0.481934

vt 0.357910 0.484375

vt 0.354248 0.488770

vt 0.352051 0.488281

vt 0.353760 0.483887

vt 0.355713 0.485352

vt 0.353760 0.497559

vt 0.352051 0.493164

vt 0.355713 0.496094

vt 0.354248 0.492676

vt 0.357422 0.499512

vt 0.356689 0.497070

vt 0.357910 0.497070

vt 0.355469 0.499023

vt 0.364990 0.497559

vt 0.358643 0.496582

vt 0.363770 0.496094

vt 0.359131 0.499023

vt 0.357422 0.481934

vt 0.357910 0.484375

vt 0.356689 0.484375

vt 0.355469 0.482422

vt 0.358643 0.484863

vt 0.364990 0.483398

vt 0.363770 0.485352

vt 0.359131 0.481934

vt 0.364502 0.485840

vt 0.364990 0.483398

vt 0.366455 0.485352

vt 0.363770 0.485352

vt 0.363770 0.496094

vt 0.366455 0.496094

vt 0.364990 0.497559

vt 0.364502 0.495117

vt 0.355469 0.499023

vt 0.355713 0.496094

vt 0.356689 0.497070

vt 0.353760 0.497559

vt 0.355713 0.485352

vt 0.355469 0.482422

vt 0.356689 0.484375

vt 0.353760 0.483887

vt 0.354248 0.492676

vt 0.364502 0.485840

vt 0.364502 0.495117

vt 0.354248 0.488770

vt 0.358643 0.484863

vt 0.364502 0.485840

vt 0.354248 0.488770

vt 0.363770 0.485352

vt 0.364502 0.495117

vt 0.358643 0.496582

vt 0.354248 0.492676

vt 0.363770 0.496094

vt 0.287354 0.497559

vt 0.289063 0.498535

vt 0.287842 0.498535

vt 0.290283 0.497559

vt 0.291504 0.493652

vt 0.281250 0.496582

vt 0.282227 0.497559

vt 0.281250 0.487305

vt 0.291504 0.490234

vt 0.287354 0.486328

vt 0.282227 0.486328

vt 0.290283 0.486328

vt 0.289063 0.485352

vt 0.287842 0.485352



vn -0.003922 -1.000000 -0.003922

vn -0.003922 -1.000000 -0.003922

vn -0.003922 -1.000000 -0.003922

vn -0.003922 -1.000000 -0.003922

vn -0.003922 -1.000000 -0.003922

vn -0.003922 -1.000000 -0.003922

vn -0.003922 -1.000000 -0.003922

vn -0.003922 -1.000000 -0.003922

vn -0.003922 -1.000000 -0.003922

vn -0.003922 -1.000000 -0.003922

vn -0.003922 -1.000000 -0.003922

vn -0.003922 -1.000000 -0.003922

vn 0.921569 -0.003922 0.380392

vn 0.921569 -0.003922 -0.388235

vn 0.921569 -0.003922 0.380392

vn 0.921569 -0.003922 -0.388235

vn -0.992157 -0.003922 0.160784

vn -0.992157 -0.003922 0.160784

vn -0.992157 -0.003922 -0.168627

vn -0.992157 -0.003922 -0.168627

vn 0.458824 -0.003922 0.882353

vn 0.458824 -0.003922 0.882353

vn 0.458824 -0.003922 0.882353

vn 0.458824 -0.003922 0.882353

vn 0.458824 -0.003922 -0.890196

vn 0.458824 -0.003922 -0.890196

vn 0.458824 -0.003922 -0.890196

vn 0.458824 -0.003922 -0.890196

vn -0.992157 -0.003922 -0.168627

vn -0.992157 -0.003922 -0.168627

vn -0.803922 -0.003922 -0.607843

vn -0.803922 -0.003922 -0.607843

vn -0.803922 -0.003922 0.600000

vn -0.992157 -0.003922 0.160784

vn -0.803922 -0.003922 0.600000

vn -0.992157 -0.003922 0.160784

vn 0.458824 -0.003922 0.882353

vn -0.309804 -0.003922 0.945098

vn 0.458824 -0.003922 0.882353

vn -0.309804 -0.003922 0.945098

vn 0.380392 -0.003922 0.921569

vn 0.458824 -0.003922 0.882353

vn 0.380392 -0.003922 0.921569

vn 0.458824 -0.003922 0.882353

vn 0.458824 -0.003922 -0.890196

vn 0.458824 -0.003922 -0.890196

vn -0.309804 -0.003922 -0.952941

vn -0.309804 -0.003922 -0.952941

vn 0.458824 -0.003922 -0.890196

vn 0.380392 -0.003922 -0.929412

vn 0.380392 -0.003922 -0.929412

vn 0.458824 -0.003922 -0.890196

vn 0.921569 -0.003922 -0.388235

vn 0.380392 -0.003922 -0.929412

vn 0.921569 -0.003922 -0.388235

vn 0.380392 -0.003922 -0.929412

vn 0.380392 -0.003922 0.921569

vn 0.921569 -0.003922 0.380392

vn 0.380392 -0.003922 0.921569

vn 0.921569 -0.003922 0.380392

vn -0.309804 -0.003922 0.945098

vn -0.803922 -0.003922 0.600000

vn -0.309804 -0.003922 0.945098

vn -0.803922 -0.003922 0.600000

vn -0.803922 -0.003922 -0.607843

vn -0.309804 -0.003922 -0.952941

vn -0.309804 -0.003922 -0.952941

vn -0.803922 -0.003922 -0.607843

vn -0.003922 -1.000000 -0.003922

vn -0.003922 -1.000000 -0.003922

vn -0.003922 -1.000000 -0.003922

vn -0.003922 -1.000000 -0.003922

vn -0.003922 -1.000000 -0.003922

vn -0.003922 -1.000000 -0.003922

vn -0.003922 -1.000000 -0.003922

vn -0.003922 -1.000000 -0.003922

vn -0.003922 -1.000000 -0.003922

vn -0.003922 -1.000000 -0.003922

vn -0.003922 -1.000000 -0.003922

vn -0.003922 -1.000000 -0.003922

vn -0.003922 1.000000 -0.003922

vn -0.003922 1.000000 -0.003922

vn -0.003922 1.000000 -0.003922

vn -0.003922 1.000000 -0.003922

vn -0.003922 1.000000 -0.003922

vn -0.003922 1.000000 -0.003922

vn -0.003922 1.000000 -0.003922

vn -0.003922 1.000000 -0.003922

vn -0.003922 1.000000 -0.003922

vn -0.003922 1.000000 -0.003922

vn -0.003922 1.000000 -0.003922

vn -0.003922 1.000000 -0.003922

vn -0.003922 1.000000 -0.003922

vn -0.003922 1.000000 -0.003922

f 1/1/1 2/2/2 3/3/3

f 4/4/4 1/1/1 5/5/5

f 6/6/6 1/1/1 4/4/4

f 7/7/7 8/8/8 9/9/9

f 10/10/10 9/9/9 11/11/11

f 9/9/9 10/10/10 12/12/12

f 13/13/13 14/14/14 15/15/15

f 14/14/14 13/13/13 16/16/16

f 17/17/17 18/18/18 19/19/19

f 17/17/17 19/19/19 20/20/20

f 21/21/21 22/22/22 23/23/23

f 22/22/22 21/21/21 24/24/24

f 25/25/25 26/26/26 27/27/27

f 26/26/26 25/25/25 28/28/28

f 29/29/29 30/30/30 31/31/31

f 29/29/29 31/31/31 32/32/32

f 33/33/33 34/34/34 35/35/35

f 35/35/35 34/34/34 36/36/36

f 37/37/37 38/38/38 39/39/39

f 38/38/38 37/37/37 40/40/40

f 41/41/41 42/42/42 43/43/43

f 42/42/42 41/41/41 44/44/44

f 45/45/45 46/46/46 47/47/47

f 47/47/47 48/48/48 45/45/45

f 49/49/49 50/50/50 51/51/51

f 50/50/50 49/49/49 52/52/52

f 53/53/53 54/54/54 55/55/55

f 54/54/54 53/53/53 56/56/56

f 57/57/57 58/58/58 59/59/59

f 58/58/58 57/57/57 60/60/60

f 61/61/61 62/62/62 63/63/63

f 62/62/62 61/61/61 64/64/64

f 65/65/65 66/66/66 67/67/67

f 66/66/66 65/65/65 68/68/68

f 69/69/69 70/70/70 71/71/71

f 70/70/70 69/69/69 72/72/72

f 73/73/73 74/74/74 75/75/75

f 74/74/74 73/73/73 76/76/76

f 77/77/77 78/78/78 79/79/79

f 78/78/78 77/77/77 80/80/80

f 81/81/81 82/82/82 83/83/83

f 82/82/82 81/81/81 84/84/84

f 85/85/85 84/84/84 81/81/81

f 86/86/86 81/81/81 87/87/87

f 81/81/81 86/86/86 85/85/85

f 85/85/85 86/86/86 88/88/88

f 85/85/85 88/88/88 89/89/89

f 89/89/89 88/88/88 90/90/90

f 90/90/90 88/88/88 91/91/91

f 90/90/90 92/92/92 89/89/89

f 92/92/92 90/90/90 93/93/93

f 93/93/93 90/90/90 94/94/94

