# UnrealEd OBJ exporter (_Internal)



v 7.634094 0.078859 13.394348

v -2.205383 0.078857 17.342712

v -5.710205 0.078856 13.394348

v 7.634094 0.078859 13.394348

v -5.710205 0.078856 13.394348

v -7.634094 0.078856 6.885010

v -5.710205 0.078856 -14.139648

v -2.205383 0.078857 -17.615112

v 7.634094 0.078859 -14.139709

v -7.634094 0.078856 -8.243835

v -5.710205 0.078856 -14.139648

v 7.634094 0.078859 -14.139709

v 7.634094 0.078859 13.394348

v 7.634094 4.241666 -13.954468

v 7.634094 4.241670 13.423706

v 7.634094 0.078859 -14.139709

v -5.710205 0.078856 13.394348

v -5.710205 4.241671 13.423706

v -7.634094 4.241667 6.866943

v -7.634094 0.078856 6.885010

v -7.634094 4.241666 -8.140991

v -7.634094 0.078856 6.885010

v -7.634094 4.241667 6.866943

v -7.634094 0.078856 -8.243835

v -7.634094 4.241666 -8.140991

v -5.710205 4.241668 -13.954529

v -7.634094 0.078856 -8.243835

v -5.710205 0.078856 -14.139648

v 5.620178 0.078858 17.342712

v 7.634094 4.241670 13.423706

v 5.620178 4.241668 17.446960

v 7.634094 0.078859 13.394348

v 2.022217 4.241666 18.801270

v 5.620178 0.078858 17.342712

v 5.620178 4.241668 17.446960

v 2.022217 0.078857 18.653870

v -2.205383 4.241668 17.446960

v -5.710205 4.241671 13.423706

v -2.205383 0.078857 17.342712

v -5.710205 0.078856 13.394348

v 2.022217 4.241666 18.801270

v -2.205383 0.078857 17.342712

v 2.022217 0.078857 18.653870

v -2.205383 4.241668 17.446960

v 7.634094 0.078859 -14.139709

v 5.620178 4.241666 -17.360291

v 7.634094 4.241666 -13.954468

v 5.620178 0.078858 -17.615173

v 2.022217 0.078857 -18.801331

v 5.620178 4.241666 -17.360291

v 5.620178 0.078858 -17.615173

v 2.022217 4.241670 -18.511719

v -5.710205 0.078856 -14.139648

v -2.205383 4.241666 -17.360291

v -2.205383 0.078857 -17.615112

v -5.710205 4.241668 -13.954529

v 2.022217 0.078857 -18.801331

v -2.205383 4.241666 -17.360291

v 2.022217 4.241670 -18.511719

v -2.205383 0.078857 -17.615112

v -7.634094 0.078856 6.885010

v 7.634094 0.078859 -14.139709

v 7.634094 0.078859 13.394348

v -7.634094 0.078856 -8.243835

v 2.022217 0.078857 -18.801331

v 7.634094 0.078859 -14.139709

v -2.205383 0.078857 -17.615112

v 5.620178 0.078858 -17.615173

v 2.022217 0.078857 18.653870

v 7.634094 0.078859 13.394348

v 5.620178 0.078858 17.342712

v -2.205383 0.078857 17.342712

v 7.634094 4.241670 13.423706

v 2.022217 4.241666 18.801270

v 5.620178 4.241668 17.446960

v -2.205383 4.241668 17.446960

v -5.710205 4.241671 13.423706

v -7.634094 4.241667 6.866943

v 7.634094 4.241666 -13.954468

v -7.634094 4.241666 -8.140991

v -5.710205 4.241668 -13.954529

v -2.205383 4.241666 -17.360291

v 2.022217 4.241670 -18.511719

v 5.620178 4.241666 -17.360291



vt 0.411865 0.431152

vt 0.413330 0.435059

vt 0.411865 0.436523

vt 0.411865 0.431152

vt 0.411865 0.436523

vt 0.408936 0.437500

vt 0.399658 0.436523

vt 0.398193 0.435059

vt 0.399658 0.431152

vt 0.402344 0.437500

vt 0.399658 0.436523

vt 0.399658 0.431152

vt 0.411865 0.431152

vt 0.399170 0.429688

vt 0.412354 0.429688

vt 0.399658 0.431152

vt 0.411865 0.436523

vt 0.412842 0.437988

vt 0.409180 0.439453

vt 0.408936 0.437500

vt 0.401855 0.439453

vt 0.408936 0.437500

vt 0.409180 0.439453

vt 0.402344 0.437500

vt 0.401855 0.439453

vt 0.398926 0.437988

vt 0.402344 0.437500

vt 0.399658 0.436523

vt 0.413330 0.432129

vt 0.412354 0.429688

vt 0.414795 0.431152

vt 0.411865 0.431152

vt 0.415771 0.433105

vt 0.413330 0.432129

vt 0.414795 0.431152

vt 0.413818 0.433594

vt 0.415039 0.436035

vt 0.412842 0.437988

vt 0.413330 0.435059

vt 0.411865 0.436523

vt 0.415771 0.433105

vt 0.413330 0.435059

vt 0.413818 0.433594

vt 0.415039 0.436035

vt 0.399658 0.431152

vt 0.397217 0.431152

vt 0.399170 0.429688

vt 0.398438 0.432129

vt 0.397949 0.433594

vt 0.397217 0.431152

vt 0.398438 0.432129

vt 0.396240 0.433105

vt 0.399658 0.436523

vt 0.396729 0.436035

vt 0.398193 0.435059

vt 0.398926 0.437988

vt 0.397949 0.433594

vt 0.396729 0.436035

vt 0.396240 0.433105

vt 0.398193 0.435059

vt 0.408936 0.437500

vt 0.399658 0.431152

vt 0.411865 0.431152

vt 0.402344 0.437500

vt 0.397949 0.433594

vt 0.399658 0.431152

vt 0.398193 0.435059

vt 0.398438 0.432129

vt 0.413818 0.433594

vt 0.411865 0.431152

vt 0.413330 0.432129

vt 0.413330 0.435059

vt 0.412354 0.429688

vt 0.415039 0.426758

vt 0.414307 0.428711

vt 0.414307 0.424805

vt 0.412354 0.422852

vt 0.409180 0.422363

vt 0.399170 0.429688

vt 0.401855 0.422363

vt 0.399170 0.423340

vt 0.397461 0.424805

vt 0.396973 0.426758

vt 0.397461 0.428711



vn -0.003922 -1.000000 -0.003922

vn -0.003922 -1.000000 -0.003922

vn -0.003922 -1.000000 -0.003922

vn -0.003922 -1.000000 -0.003922

vn -0.003922 -1.000000 -0.003922

vn -0.003922 -1.000000 -0.003922

vn -0.003922 -1.000000 -0.003922

vn -0.003922 -1.000000 -0.003922

vn -0.003922 -1.000000 -0.003922

vn -0.003922 -1.000000 -0.003922

vn -0.003922 -1.000000 -0.003922

vn -0.003922 -1.000000 -0.003922

vn 0.968628 -0.003922 0.223529

vn 0.960784 0.011765 -0.254902

vn 0.968628 -0.003922 0.231373

vn 0.960784 0.011765 -0.270588

vn -0.882353 -0.011765 0.474510

vn -0.882353 -0.011765 0.482353

vn -0.992157 -0.003922 0.137255

vn -0.992157 -0.003922 0.137255

vn -0.992157 0.003922 -0.160784

vn -0.992157 -0.003922 0.137255

vn -0.992157 -0.003922 0.137255

vn -0.992157 0.003922 -0.160784

vn -0.992157 0.003922 -0.160784

vn -0.858824 0.019608 -0.529412

vn -0.992157 0.003922 -0.160784

vn -0.850980 0.019608 -0.537255

vn 0.662745 -0.019608 0.741177

vn 0.968628 -0.003922 0.231373

vn 0.662745 -0.019608 0.741177

vn 0.968628 -0.003922 0.223529

vn 0.019608 -0.035294 0.992157

vn 0.662745 -0.019608 0.741177

vn 0.662745 -0.019608 0.741177

vn 0.019608 -0.035294 0.992157

vn -0.545098 -0.027451 0.835294

vn -0.882353 -0.011765 0.482353

vn -0.552941 -0.027451 0.835294

vn -0.882353 -0.011765 0.474510

vn 0.019608 -0.035294 0.992157

vn -0.552941 -0.027451 0.835294

vn 0.019608 -0.035294 0.992157

vn -0.545098 -0.027451 0.835294

vn 0.960784 0.011765 -0.270588

vn 0.631373 0.043137 -0.780392

vn 0.960784 0.011765 -0.254902

vn 0.615686 0.043137 -0.788235

vn 0.019608 0.058824 -1.000000

vn 0.631373 0.043137 -0.780392

vn 0.615686 0.043137 -0.788235

vn 0.019608 0.058824 -1.000000

vn -0.850980 0.019608 -0.537255

vn -0.505882 0.050980 -0.866667

vn -0.498039 0.050980 -0.874510

vn -0.858824 0.019608 -0.529412

vn 0.019608 0.058824 -1.000000

vn -0.505882 0.050980 -0.866667

vn 0.019608 0.058824 -1.000000

vn -0.498039 0.050980 -0.874510

vn -0.003922 -1.000000 -0.003922

vn -0.003922 -1.000000 -0.003922

vn -0.003922 -1.000000 -0.003922

vn -0.003922 -1.000000 -0.003922

vn -0.003922 -1.000000 -0.003922

vn -0.003922 -1.000000 -0.003922

vn -0.003922 -1.000000 -0.003922

vn -0.003922 -1.000000 -0.003922

vn -0.003922 -1.000000 -0.003922

vn -0.003922 -1.000000 -0.003922

vn -0.003922 -1.000000 -0.003922

vn -0.003922 -1.000000 -0.003922

vn -0.003922 1.000000 -0.003922

vn -0.003922 1.000000 -0.003922

vn -0.003922 1.000000 -0.003922

vn -0.003922 1.000000 -0.003922

vn -0.003922 1.000000 -0.003922

vn -0.003922 1.000000 -0.003922

vn -0.003922 1.000000 -0.003922

vn -0.003922 1.000000 -0.003922

vn -0.003922 1.000000 -0.003922

vn -0.003922 1.000000 -0.003922

vn -0.003922 1.000000 -0.003922

vn -0.003922 1.000000 -0.003922

f 1/1/1 2/2/2 3/3/3

f 4/4/4 5/5/5 6/6/6

f 7/7/7 8/8/8 9/9/9

f 10/10/10 11/11/11 12/12/12

f 13/13/13 14/14/14 15/15/15

f 14/14/14 13/13/13 16/16/16

f 17/17/17 18/18/18 19/19/19

f 17/17/17 19/19/19 20/20/20

f 21/21/21 22/22/22 23/23/23

f 22/22/22 21/21/21 24/24/24

f 25/25/25 26/26/26 27/27/27

f 27/27/27 26/26/26 28/28/28

f 29/29/29 30/30/30 31/31/31

f 30/30/30 29/29/29 32/32/32

f 33/33/33 34/34/34 35/35/35

f 34/34/34 33/33/33 36/36/36

f 37/37/37 38/38/38 39/39/39

f 39/39/39 38/38/38 40/40/40

f 41/41/41 42/42/42 43/43/43

f 42/42/42 41/41/41 44/44/44

f 45/45/45 46/46/46 47/47/47

f 46/46/46 45/45/45 48/48/48

f 49/49/49 50/50/50 51/51/51

f 50/50/50 49/49/49 52/52/52

f 53/53/53 54/54/54 55/55/55

f 54/54/54 53/53/53 56/56/56

f 57/57/57 58/58/58 59/59/59

f 58/58/58 57/57/57 60/60/60

f 61/61/61 62/62/62 63/63/63

f 62/62/62 61/61/61 64/64/64

f 65/65/65 66/66/66 67/67/67

f 66/66/66 65/65/65 68/68/68

f 69/69/69 70/70/70 71/71/71

f 72/72/72 70/70/70 69/69/69

f 73/73/73 74/74/74 75/75/75

f 74/74/74 73/73/73 76/76/76

f 77/77/77 76/76/76 73/73/73

f 78/78/78 77/77/77 73/73/73

f 78/78/78 73/73/73 79/79/79

f 78/78/78 79/79/79 80/80/80

f 79/79/79 81/81/81 80/80/80

f 79/79/79 82/82/82 81/81/81

f 82/82/82 79/79/79 83/83/83

f 83/83/83 79/79/79 84/84/84

