# UnrealEd OBJ exporter (_Internal)



v -1.360535 1.360521 -52.051453

v 0.000000 -0.000013 -80.491089

v -1.360535 -1.360535 -52.051575

v 0.000000 -0.000013 -80.491089

v 1.360535 -1.360535 -52.051575

v -1.360535 -1.360516 80.490906

v -1.360535 1.360521 -52.051453

v -1.360535 1.360537 80.491028

v -1.360535 -1.360516 80.490906

v -1.360535 -1.360535 -52.051575

v 1.360535 -1.360516 80.490906

v 0.000000 -0.000013 -80.491089

v 1.360535 1.360521 -52.051453

v 1.360535 -1.360516 80.490906

v 1.360535 -1.360535 -52.051575

v 1.360535 1.360537 80.491028

v 0.000000 -0.000013 -80.491089

v -1.360535 1.360521 -52.051453

v -1.360535 1.360537 80.491028

v 1.360535 1.360537 80.491028

v 1.360535 1.360521 -52.051453

v 1.360535 1.360537 80.491028

v -1.360535 1.360537 80.491028

v 1.360535 -1.360516 80.490906

v -1.360535 -1.360516 80.490906

v -2.172424 -7.742958 57.263794

v 2.172424 7.742989 57.263733

v -6.641296 4.535072 57.263794

v 6.641296 -4.535049 57.263794

v -2.172424 -7.742963 42.633911

v 2.172424 7.742984 42.633789

v 6.641296 -4.535054 42.633850

v -6.641296 4.535068 42.633850

v -8.511963 -3.969184 38.843201

v 8.511963 3.969201 38.843201

v 3.969238 -8.511947 38.843201

v -3.969238 8.511964 38.843201

v -2.597473 7.136665 34.363281

v -2.597473 7.136646 17.610229

v -7.136658 -2.597523 34.363220

v -7.136658 -2.597520 17.610168

v 2.597473 -7.136635 34.363281

v 7.136658 2.597533 17.610168

v 7.136658 2.597530 34.363220

v 2.597473 -7.136640 17.610107

v -7.136658 -2.597520 17.610168

v 2.597473 -7.136635 34.363281

v -7.136658 -2.597523 34.363220

v 2.597473 -7.136640 17.610107

v 6.641113 -6.641082 34.885925

v -6.641113 -6.641082 34.885925

v -6.641113 6.641084 34.885925

v 6.641113 6.641084 34.885925

v -3.242371 -6.821281 13.732056

v 6.868408 -3.141258 13.731995

v -6.868408 3.141266 13.732056

v 3.242371 6.821281 13.732056

v -6.868408 3.141255 -0.897888

v 6.868408 -3.141262 -0.897888

v -3.242371 -6.821286 -0.897888

v 3.242371 6.821293 -0.897949

v 6.553040 -9.358667 14.373596

v -9.358704 -6.553002 14.373596

v -6.553040 9.358696 14.373596

v 9.358704 6.553031 14.373596

v -7.693359 5.386978 -4.070251

v 7.693359 -5.386978 -4.070251

v -5.386963 -7.693406 -4.070251

v 5.386963 7.693406 -4.070251

v 7.299316 -0.000001 -6.784302

v -7.299316 -0.000001 -6.784302

v 0.000000 -7.299339 -6.784302

v 0.000000 7.299324 -6.784363

v 7.299316 -0.000004 -24.259033

v -7.299316 -0.000004 -24.259033

v 0.000000 7.299330 -24.259094

v 0.000000 -7.299349 -24.259094

v -7.194641 -6.037003 -26.651306

v 7.194641 6.037003 -26.651306

v 6.037048 -7.194626 -26.651245

v -6.037048 7.194611 -26.651367

v 8.322632 0.102565 -28.294861

v 8.322632 0.102563 -42.924805

v 2.942871 7.785622 -28.294861

v 2.942871 7.785633 -42.924805

v -8.322632 -0.102574 -28.294800

v -8.322632 -0.102576 -42.924805

v -2.942871 -7.785637 -28.294800

v -2.942871 -7.785641 -42.924805

v -6.868408 3.141266 13.732056

v -6.868408 3.141255 -0.897888

v -3.242371 -6.821281 13.732056

v -3.242371 -6.821286 -0.897888

v 6.868408 -3.141258 13.731995

v 6.868408 -3.141262 -0.897888

v 3.242371 6.821281 13.732056

v 3.242371 6.821293 -0.897949

v -6.868408 3.141255 -0.897888

v -6.868408 3.141266 13.732056

v -6.641296 4.535068 42.633850

v 2.172424 7.742989 57.263733

v 2.172424 7.742984 42.633789

v -6.641296 4.535072 57.263794

v -2.172424 -7.742963 42.633911

v -2.172424 -7.742958 57.263794

v 6.641296 -4.535049 57.263794

v 6.641296 -4.535054 42.633850

v 2.172424 7.742989 57.263733

v 2.172424 7.742984 42.633789

v 2.597473 -7.136635 34.363281

v -2.597473 7.136665 34.363281

v -7.136658 -2.597523 34.363220

v 7.136658 2.597530 34.363220

v -2.597473 7.136646 17.610229

v 7.136658 2.597533 17.610168

v 2.597473 -7.136640 17.610107

v -7.136658 -2.597520 17.610168

v -2.942871 -7.785637 -28.294800

v 2.942871 7.785622 -28.294861

v -8.322632 -0.102574 -28.294800

v 8.322632 0.102565 -28.294861

v -2.942871 -7.785641 -42.924805

v 8.322632 0.102563 -42.924805

v 2.942871 7.785633 -42.924805

v -8.322632 -0.102576 -42.924805

v 2.942871 7.785622 -28.294861

v -8.322632 -0.102574 -28.294800

v 7.299316 -0.000001 -6.784302

v 7.299316 -0.000004 -24.259033

v 0.000000 7.299324 -6.784363

v 0.000000 7.299330 -24.259094

v -7.299316 -0.000004 -24.259033

v -7.299316 -0.000001 -6.784302

v 0.000000 -7.299339 -6.784302

v 0.000000 -7.299349 -24.259094

v 7.299316 -0.000004 -24.259033

v 7.299316 -0.000001 -6.784302



vt 0.498779 0.475586

vt 0.495117 0.495117

vt 0.496826 0.475586

vt 0.495117 0.495117

vt 0.495117 0.475586

vt 0.496826 0.384766

vt 0.498779 0.475586

vt 0.498779 0.384766

vt 0.496826 0.384766

vt 0.496826 0.475586

vt 0.495117 0.384766

vt 0.495117 0.495117

vt 0.493164 0.475586

vt 0.495117 0.384766

vt 0.495117 0.475586

vt 0.493164 0.384766

vt 0.495117 0.495117

vt 0.491211 0.475586

vt 0.491211 0.384766

vt 0.493164 0.384766

vt 0.493164 0.475586

vt 0.495117 0.382813

vt 0.496826 0.382813

vt 0.495117 0.384766

vt 0.496826 0.384766

vt 0.314209 0.344238

vt 0.307617 0.334961

vt 0.314209 0.334961

vt 0.307617 0.344238

vt 0.323975 0.344238

vt 0.330566 0.334961

vt 0.330566 0.344238

vt 0.323975 0.334961

vt 0.484131 0.284668

vt 0.474609 0.294434

vt 0.474609 0.285156

vt 0.484131 0.294434

vt 0.348145 0.336426

vt 0.348145 0.348145

vt 0.340820 0.336426

vt 0.340820 0.348145

vt 0.362793 0.336426

vt 0.355469 0.348145

vt 0.355469 0.336426

vt 0.362793 0.348145

vt 0.340820 0.348145

vt 0.333496 0.336426

vt 0.340820 0.336426

vt 0.333496 0.348145

vt 0.262939 0.463379

vt 0.252441 0.463379

vt 0.252686 0.453125

vt 0.262695 0.453125

vt 0.329590 0.367188

vt 0.329590 0.374512

vt 0.322266 0.367188

vt 0.322266 0.374512

vt 0.346924 0.367188

vt 0.339600 0.374512

vt 0.339600 0.367188

vt 0.346924 0.374512

vt 0.330078 0.422363

vt 0.341553 0.422363

vt 0.341553 0.433594

vt 0.330322 0.433594

vt 0.252197 0.487305

vt 0.261719 0.497070

vt 0.252197 0.497070

vt 0.261719 0.487305

vt 0.379883 0.381836

vt 0.372803 0.374512

vt 0.379883 0.374512

vt 0.372803 0.381836

vt 0.353760 0.381836

vt 0.360840 0.374512

vt 0.360840 0.381836

vt 0.353760 0.374512

vt 0.484375 0.261719

vt 0.474854 0.251953

vt 0.484375 0.251953

vt 0.474854 0.261230

vt 0.305908 0.376953

vt 0.305908 0.367188

vt 0.312256 0.376953

vt 0.312256 0.367188

vt 0.290039 0.376953

vt 0.290039 0.367188

vt 0.296387 0.376953

vt 0.296387 0.367188

vt 0.329590 0.359863

vt 0.339600 0.359863

vt 0.329590 0.367188

vt 0.339600 0.367188

vt 0.329590 0.374512

vt 0.339600 0.374512

vt 0.329590 0.381348

vt 0.339600 0.381348

vt 0.339600 0.388672

vt 0.329590 0.388672

vt 0.323975 0.334961

vt 0.314209 0.328613

vt 0.323975 0.328613

vt 0.314209 0.334961

vt 0.323975 0.344238

vt 0.314209 0.344238

vt 0.314209 0.350586

vt 0.323975 0.350586

vt 0.314209 0.359375

vt 0.323975 0.359375

vt 0.355469 0.329102

vt 0.348145 0.336426

vt 0.348145 0.329102

vt 0.355469 0.336426

vt 0.348145 0.348145

vt 0.355469 0.348145

vt 0.355469 0.355469

vt 0.348145 0.355469

vt 0.296387 0.376953

vt 0.305908 0.383301

vt 0.296387 0.383301

vt 0.305908 0.376953

vt 0.296387 0.367188

vt 0.305908 0.367188

vt 0.305908 0.360840

vt 0.296387 0.360840

vt 0.305908 0.350586

vt 0.296387 0.350586

vt 0.372803 0.388672

vt 0.360840 0.388672

vt 0.372803 0.381836

vt 0.360840 0.381836

vt 0.360840 0.374512

vt 0.372803 0.374512

vt 0.372803 0.367676

vt 0.360840 0.367676

vt 0.360840 0.360352

vt 0.372803 0.360352



vn -0.709804 0.701961 -0.035294

vn -0.003922 -0.003922 -1.000000

vn -0.709804 -0.709804 -0.035294

vn -0.003922 -0.003922 -1.000000

vn 0.701961 -0.709804 -0.035294

vn -0.709804 -0.709804 -0.003922

vn -0.709804 0.701961 -0.035294

vn -0.709804 0.701961 -0.003922

vn -0.709804 -0.709804 -0.003922

vn -0.709804 -0.709804 -0.035294

vn 0.701961 -0.709804 -0.003922

vn -0.003922 -0.003922 -1.000000

vn 0.701961 0.701961 -0.035294

vn 0.701961 -0.709804 -0.003922

vn 0.701961 -0.709804 -0.035294

vn 0.701961 0.701961 -0.003922

vn -0.003922 -0.003922 -1.000000

vn -0.709804 0.701961 -0.035294

vn -0.709804 0.701961 -0.003922

vn 0.701961 0.701961 -0.003922

vn 0.701961 0.701961 -0.035294

vn -0.003922 -0.003922 1.000000

vn -0.003922 -0.003922 1.000000

vn -0.003922 -0.003922 1.000000

vn -0.003922 -0.003922 1.000000

vn -0.349020 -0.741176 0.576471

vn 0.341177 0.733333 0.576471

vn -0.741176 0.341177 0.576471

vn 0.733333 -0.349020 0.576471

vn -0.349020 -0.741176 -0.584314

vn 0.341177 0.733333 -0.584314

vn 0.733333 -0.349020 -0.584314

vn -0.741176 0.341177 -0.584314

vn -0.003922 -0.003922 -1.000000

vn -0.003922 -0.003922 -1.000000

vn -0.003922 -0.003922 -1.000000

vn -0.003922 -0.003922 -1.000000

vn -0.286274 0.764706 0.576471

vn -0.286274 0.764706 -0.584314

vn -0.772549 -0.286274 0.576471

vn -0.772549 -0.286274 -0.584314

vn 0.278431 -0.772549 0.576471

vn 0.764706 0.278431 -0.584314

vn 0.764706 0.278431 0.576471

vn 0.278431 -0.772549 -0.584314

vn -0.772549 -0.286274 -0.584314

vn 0.278431 -0.772549 0.576471

vn -0.772549 -0.286274 0.576471

vn 0.278431 -0.772549 -0.584314

vn -0.003922 -0.003922 -1.000000

vn -0.003922 -0.003922 -1.000000

vn -0.003922 -0.003922 -1.000000

vn -0.003922 -0.003922 -1.000000

vn -0.349020 -0.741176 0.576471

vn 0.733333 -0.349020 0.576471

vn -0.741176 0.341177 0.576471

vn 0.341177 0.733333 0.576471

vn -0.741176 0.341177 -0.584314

vn 0.733333 -0.349020 -0.584314

vn -0.349020 -0.741176 -0.584314

vn 0.341177 0.733333 -0.584314

vn -0.003922 -0.003922 -1.000000

vn -0.003922 -0.003922 -1.000000

vn -0.003922 -0.003922 -1.000000

vn -0.003922 -0.003922 -1.000000

vn -0.003922 -0.003922 -1.000000

vn -0.003922 -0.003922 -1.000000

vn -0.003922 -0.003922 -1.000000

vn -0.003922 -0.003922 -1.000000

vn 0.811765 -0.003922 0.576471

vn -0.819608 -0.003922 0.576471

vn -0.003922 -0.819608 0.576471

vn -0.003922 0.811765 0.576471

vn 0.811765 -0.003922 -0.584314

vn -0.819608 -0.003922 -0.584314

vn -0.003922 0.811765 -0.584314

vn -0.003922 -0.819608 -0.584314

vn -0.003922 -0.003922 -1.000000

vn -0.003922 -0.003922 -1.000000

vn -0.003922 -0.003922 -1.000000

vn -0.003922 -0.003922 -1.000000

vn 0.803922 -0.145098 0.576471

vn 0.803922 -0.145098 -0.584314

vn 0.137255 0.803922 0.576471

vn 0.137255 0.803922 -0.584314

vn -0.811765 0.137255 0.576471

vn -0.811765 0.137255 -0.584314

vn -0.145098 -0.811765 0.576471

vn -0.145098 -0.811765 -0.584314

vn -0.741176 0.341177 0.576471

vn -0.741176 0.341177 -0.584314

vn -0.349020 -0.741176 0.576471

vn -0.349020 -0.741176 -0.584314

vn 0.733333 -0.349020 0.576471

vn 0.733333 -0.349020 -0.584314

vn 0.341177 0.733333 0.576471

vn 0.341177 0.733333 -0.584314

vn -0.741176 0.341177 -0.584314

vn -0.741176 0.341177 0.576471

vn -0.741176 0.341177 -0.584314

vn 0.341177 0.733333 0.576471

vn 0.341177 0.733333 -0.584314

vn -0.741176 0.341177 0.576471

vn -0.349020 -0.741176 -0.584314

vn -0.349020 -0.741176 0.576471

vn 0.733333 -0.349020 0.576471

vn 0.733333 -0.349020 -0.584314

vn 0.341177 0.733333 0.576471

vn 0.341177 0.733333 -0.584314

vn 0.278431 -0.772549 0.576471

vn -0.286274 0.764706 0.576471

vn -0.772549 -0.286274 0.576471

vn 0.764706 0.278431 0.576471

vn -0.286274 0.764706 -0.584314

vn 0.764706 0.278431 -0.584314

vn 0.278431 -0.772549 -0.584314

vn -0.772549 -0.286274 -0.584314

vn -0.145098 -0.811765 0.576471

vn 0.137255 0.803922 0.576471

vn -0.811765 0.137255 0.576471

vn 0.803922 -0.145098 0.576471

vn -0.145098 -0.811765 -0.584314

vn 0.803922 -0.145098 -0.584314

vn 0.137255 0.803922 -0.584314

vn -0.811765 0.137255 -0.584314

vn 0.137255 0.803922 0.576471

vn -0.811765 0.137255 0.576471

vn 0.811765 -0.003922 0.576471

vn 0.811765 -0.003922 -0.584314

vn -0.003922 0.811765 0.576471

vn -0.003922 0.811765 -0.584314

vn -0.819608 -0.003922 -0.584314

vn -0.819608 -0.003922 0.576471

vn -0.003922 -0.819608 0.576471

vn -0.003922 -0.819608 -0.584314

vn 0.811765 -0.003922 -0.584314

vn 0.811765 -0.003922 0.576471

f 1/1/1 2/2/2 3/3/3

f 3/3/3 4/4/4 5/5/5

f 6/6/6 7/7/7 3/3/3

f 7/7/7 6/6/6 8/8/8

f 9/9/9 10/10/10 5/5/5

f 5/5/5 11/11/11 9/9/9

f 5/5/5 12/12/12 13/13/13

f 14/14/14 15/15/15 13/13/13

f 13/13/13 16/16/16 14/14/14

f 13/13/13 17/17/17 18/18/18

f 18/18/18 19/19/19 20/20/20

f 20/20/20 21/21/21 18/18/18

f 22/22/22 23/23/23 24/24/24

f 23/23/23 25/25/25 24/24/24

f 26/26/26 27/27/27 28/28/28

f 27/27/27 26/26/26 29/29/29

f 30/30/30 31/31/31 32/32/32

f 31/31/31 30/30/30 33/33/33

f 34/34/34 35/35/35 36/36/36

f 35/35/35 34/34/34 37/37/37

f 38/38/38 39/39/39 40/40/40

f 40/40/40 39/39/39 41/41/41

f 42/42/42 43/43/43 44/44/44

f 43/43/43 42/42/42 45/45/45

f 46/46/46 47/47/47 48/48/48

f 47/47/47 46/46/46 49/49/49

f 50/50/50 51/51/51 52/52/52

f 50/50/50 52/52/52 53/53/53

f 54/54/54 55/55/55 56/56/56

f 56/56/56 55/55/55 57/57/57

f 58/58/58 59/59/59 60/60/60

f 59/59/59 58/58/58 61/61/61

f 62/62/62 63/63/63 64/64/64

f 64/64/64 65/65/65 62/62/62

f 66/66/66 67/67/67 68/68/68

f 67/67/67 66/66/66 69/69/69

f 70/70/70 71/71/71 72/72/72

f 71/71/71 70/70/70 73/73/73

f 74/74/74 75/75/75 76/76/76

f 75/75/75 74/74/74 77/77/77

f 78/78/78 79/79/79 80/80/80

f 79/79/79 78/78/78 81/81/81

f 82/82/82 83/83/83 84/84/84

f 84/84/84 83/83/83 85/85/85

f 86/86/86 87/87/87 88/88/88

f 88/88/88 87/87/87 89/89/89

f 90/90/90 91/91/91 92/92/92

f 92/92/92 91/91/91 93/93/93

f 92/92/92 93/93/93 94/94/94

f 94/94/94 93/93/93 95/95/95

f 95/95/95 96/96/96 94/94/94

f 96/96/96 95/95/95 97/97/97

f 98/98/98 96/96/96 97/97/97

f 96/96/96 98/98/98 99/99/99

f 100/100/100 101/101/101 102/102/102

f 101/101/101 100/100/100 103/103/103

f 104/104/104 103/103/103 100/100/100

f 103/103/103 104/104/104 105/105/105

f 105/105/105 104/104/104 106/106/106

f 106/106/106 104/104/104 107/107/107

f 106/106/106 107/107/107 108/108/108

f 108/108/108 107/107/107 109/109/109

f 110/110/110 111/111/111 112/112/112

f 111/111/111 110/110/110 113/113/113

f 113/113/113 114/114/114 111/111/111

f 114/114/114 113/113/113 115/115/115

f 116/116/116 114/114/114 115/115/115

f 114/114/114 116/116/116 117/117/117

f 118/118/118 119/119/119 120/120/120

f 119/119/119 118/118/118 121/121/121

f 118/118/118 122/122/122 121/121/121

f 121/121/121 122/122/122 123/123/123

f 122/122/122 124/124/124 123/123/123

f 124/124/124 122/122/122 125/125/125

f 125/125/125 126/126/126 124/124/124

f 126/126/126 125/125/125 127/127/127

f 128/128/128 129/129/129 130/130/130

f 130/130/130 129/129/129 131/131/131

f 132/132/132 130/130/130 131/131/131

f 130/130/130 132/132/132 133/133/133

f 133/133/133 132/132/132 134/134/134

f 134/134/134 132/132/132 135/135/135

f 136/136/136 134/134/134 135/135/135

f 134/134/134 136/136/136 137/137/137

