# UnrealEd OBJ exporter (_Internal)



v 3.191040 -0.000008 -47.819214

v 1.024506 -3.853817 -46.509216

v -1.312592 -0.000008 -48.869873

v -5.699341 -0.000008 -47.406128

v -3.476746 3.853802 -47.509460

v -1.312592 -0.000008 -48.869873

v -3.476746 3.853802 -47.509460

v 0.968445 3.853802 -47.716003

v -1.312592 -0.000008 -48.869873

v 0.968445 3.853802 -47.716003

v 3.191040 -0.000008 -47.819214

v -1.312592 -0.000008 -48.869873

v 3.476776 -3.853806 6.262146

v 5.699371 0.000001 6.158875

v 1.311859 0.000001 7.607056

v 5.699371 0.000001 6.158875

v 3.476776 3.853813 6.262146

v 1.311859 0.000001 7.607056

v 3.476776 3.853813 6.262146

v -0.968414 3.853815 6.468689

v 1.311859 0.000001 7.607056

v -0.968414 3.853815 6.468689

v -3.191010 0.000001 6.572021

v 1.311859 0.000001 7.607056

v 1.024506 -3.853817 -46.509216

v -3.420685 -3.853813 -46.302673

v -1.312592 -0.000008 -48.869873

v -3.420685 -3.853813 -46.302673

v -5.699341 -0.000008 -47.406128

v -1.436066 2.379974 -52.051514

v -0.075562 1.019442 -80.491089

v -1.436066 -0.341081 -52.051453

v -0.075562 1.019442 -80.491089

v 1.284943 -0.341081 -52.051453

v -1.436066 -0.341059 80.490906

v -1.436066 2.379974 -52.051514

v -1.436066 2.379995 80.490967

v -1.436066 -0.341059 80.490906

v -1.436066 -0.341081 -52.051453

v 1.284943 -0.341059 80.490906

v -0.075562 1.019442 -80.491089

v 1.284943 2.379974 -52.051514

v 1.284943 -0.341059 80.490906

v 1.284943 -0.341081 -52.051453

v 1.284943 2.379995 80.490967

v -0.075562 1.019442 -80.491089

v -1.436066 2.379974 -52.051514

v -1.436066 2.379995 80.490967

v 1.284943 2.379995 80.490967

v 1.284943 2.379974 -52.051514

v 1.284943 2.379995 80.490967

v -1.436066 2.379995 80.490967

v 1.284943 -0.341059 80.490906

v -1.436066 -0.341059 80.490906

v 1.672638 4.832867 -44.739807

v -1.672607 4.832877 3.492493

v 3.901917 4.832880 3.233459

v -3.901886 4.832867 -44.480774

v -1.672607 4.832877 3.492493

v -6.689148 -0.000008 -44.351196

v -4.459869 0.000001 3.622009

v -1.672607 -4.832871 3.492554

v -3.901886 -4.832882 -44.480652

v 1.672638 -4.832882 -44.739685

v 3.901917 -4.832869 3.233521

v 6.689148 0.000000 3.103943

v 4.459869 -0.000008 -44.869263

v 6.689148 0.000000 3.103943

v 1.672638 4.832867 -44.739807

v 3.901917 4.832880 3.233459

v 1.024506 -3.853817 -46.509216

v 4.459869 -0.000008 -44.869263

v 1.672638 -4.832882 -44.739685

v 3.191040 -0.000008 -47.819214

v 3.476776 -3.853806 6.262146

v 6.689148 0.000000 3.103943

v 5.699371 0.000001 6.158875

v 3.901917 -4.832869 3.233521

v -3.420685 -3.853813 -46.302673

v 1.024506 -3.853817 -46.509216

v -3.901886 -4.832882 -44.480652

v 1.672638 -4.832882 -44.739685

v -0.968414 -3.853804 6.468689

v 3.901917 -4.832869 3.233521

v 3.476776 -3.853806 6.262146

v -1.672607 -4.832871 3.492554

v -5.699341 -0.000008 -47.406128

v -3.420685 -3.853813 -46.302673

v -6.689148 -0.000008 -44.351196

v -3.901886 -4.832882 -44.480652

v -4.459869 0.000001 3.622009

v -0.968414 -3.853804 6.468689

v -3.191010 0.000001 6.572021

v -1.672607 -4.832871 3.492554

v -6.689148 -0.000008 -44.351196

v -3.476746 3.853802 -47.509460

v -5.699341 -0.000008 -47.406128

v -3.901886 4.832867 -44.480774

v -0.968414 3.853815 6.468689

v -4.459869 0.000001 3.622009

v -3.191010 0.000001 6.572021

v -1.672607 4.832877 3.492493

v 0.968445 3.853802 -47.716003

v -3.901886 4.832867 -44.480774

v 1.672638 4.832867 -44.739807

v -3.476746 3.853802 -47.509460

v 3.901917 4.832880 3.233459

v -0.968414 3.853815 6.468689

v 3.476776 3.853813 6.262146

v -1.672607 4.832877 3.492493

v 1.672638 4.832867 -44.739807

v 4.459869 -0.000008 -44.869263

v 0.968445 3.853802 -47.716003

v 3.191040 -0.000008 -47.819214

v 6.689148 0.000000 3.103943

v 3.476776 3.853813 6.262146

v 5.699371 0.000001 6.158875

v 3.901917 4.832880 3.233459

v -3.191010 0.000001 6.572021

v -0.968414 -3.853804 6.468689

v 1.311859 0.000001 7.607056

v 3.476776 -3.853806 6.262146



vt 0.391602 0.488281

vt 0.392822 0.489746

vt 0.390381 0.491699

vt 0.392334 0.493652

vt 0.391602 0.495117

vt 0.390381 0.491699

vt 0.391602 0.495117

vt 0.389893 0.496094

vt 0.390381 0.491699

vt 0.389893 0.487305

vt 0.391602 0.488281

vt 0.390381 0.491699

vt 0.422363 0.490234

vt 0.423340 0.488770

vt 0.424561 0.491699

vt 0.423340 0.488770

vt 0.425049 0.487305

vt 0.424561 0.491699

vt 0.424805 0.496582

vt 0.423340 0.495117

vt 0.424561 0.491699

vt 0.423340 0.495117

vt 0.422363 0.493652

vt 0.424561 0.491699

vt 0.392822 0.489746

vt 0.393066 0.491699

vt 0.390381 0.491699

vt 0.393066 0.491699

vt 0.392334 0.493652

vt 0.498779 0.475586

vt 0.495117 0.495117

vt 0.496826 0.475586

vt 0.495117 0.495117

vt 0.495117 0.475586

vt 0.496826 0.384766

vt 0.498779 0.475586

vt 0.498779 0.384766

vt 0.496826 0.384766

vt 0.496826 0.475586

vt 0.495117 0.384766

vt 0.495117 0.495117

vt 0.493164 0.475586

vt 0.495117 0.384766

vt 0.495117 0.475586

vt 0.493164 0.384766

vt 0.495117 0.495117

vt 0.491211 0.475586

vt 0.491211 0.384766

vt 0.493164 0.384766

vt 0.493164 0.475586

vt 0.495117 0.382813

vt 0.496826 0.382813

vt 0.495117 0.384766

vt 0.496826 0.384766

vt 0.392334 0.499023

vt 0.421387 0.496582

vt 0.422363 0.499023

vt 0.393311 0.496582

vt 0.421387 0.496582

vt 0.393555 0.494141

vt 0.421143 0.494141

vt 0.420898 0.491699

vt 0.393799 0.491699

vt 0.393555 0.489746

vt 0.421143 0.489746

vt 0.421631 0.487305

vt 0.393311 0.487305

vt 0.421631 0.487305

vt 0.392578 0.484863

vt 0.422363 0.484863

vt 0.392822 0.489746

vt 0.393311 0.487305

vt 0.393555 0.489746

vt 0.391602 0.488281

vt 0.422363 0.490234

vt 0.421631 0.487305

vt 0.423340 0.488770

vt 0.421143 0.489746

vt 0.393066 0.491699

vt 0.392822 0.489746

vt 0.393799 0.491699

vt 0.393555 0.489746

vt 0.422119 0.491699

vt 0.421143 0.489746

vt 0.422363 0.490234

vt 0.420898 0.491699

vt 0.392334 0.493652

vt 0.393066 0.491699

vt 0.393555 0.494141

vt 0.393799 0.491699

vt 0.421143 0.494141

vt 0.422119 0.491699

vt 0.422363 0.493652

vt 0.420898 0.491699

vt 0.393555 0.494141

vt 0.391602 0.495117

vt 0.392334 0.493652

vt 0.393311 0.496582

vt 0.423340 0.495117

vt 0.421143 0.494141

vt 0.422363 0.493652

vt 0.421387 0.496582

vt 0.389893 0.496094

vt 0.393311 0.496582

vt 0.392334 0.499023

vt 0.391602 0.495117

vt 0.422363 0.499023

vt 0.423340 0.495117

vt 0.424805 0.496582

vt 0.421387 0.496582

vt 0.392578 0.484863

vt 0.393311 0.487305

vt 0.389893 0.487305

vt 0.391602 0.488281

vt 0.421631 0.487305

vt 0.425049 0.487305

vt 0.423340 0.488770

vt 0.422363 0.484863

vt 0.422363 0.493652

vt 0.422119 0.491699

vt 0.424561 0.491699

vt 0.422363 0.490234



vn 0.670588 -0.058823 -0.741176

vn 0.309804 -0.686275 -0.662745

vn -0.050980 -0.129412 -0.992157

vn -0.749020 -0.058823 -0.670588

vn -0.403922 0.639216 -0.654902

vn -0.050980 -0.129412 -0.992157

vn -0.403922 0.639216 -0.654902

vn 0.333333 0.639216 -0.694118

vn -0.050980 -0.129412 -0.992157

vn 0.333333 0.639216 -0.694118

vn 0.670588 -0.058823 -0.741176

vn -0.050980 -0.129412 -0.992157

vn 0.396078 -0.647059 0.647059

vn 0.764706 -0.003922 0.631373

vn 0.043137 -0.003922 0.992157

vn 0.764706 -0.003922 0.631373

vn 0.396078 0.639216 0.647059

vn 0.043137 -0.003922 0.992157

vn 0.396078 0.639216 0.647059

vn -0.341176 0.639216 0.686275

vn 0.043137 -0.003922 0.992157

vn -0.341176 0.639216 0.686275

vn -0.717647 -0.003922 0.701961

vn 0.043137 -0.003922 0.992157

vn 0.309804 -0.686275 -0.662745

vn -0.380392 -0.686275 -0.631373

vn -0.050980 -0.129412 -0.992157

vn -0.380392 -0.686275 -0.631373

vn -0.749020 -0.058823 -0.670588

vn -0.709804 0.701961 -0.035294

vn -0.003922 -0.003922 -1.000000

vn -0.709804 -0.709804 -0.035294

vn -0.003922 -0.003922 -1.000000

vn 0.701961 -0.709804 -0.035294

vn -0.709804 -0.709804 -0.003922

vn -0.709804 0.701961 -0.035294

vn -0.709804 0.701961 -0.003922

vn -0.709804 -0.709804 -0.003922

vn -0.709804 -0.709804 -0.035294

vn 0.701961 -0.709804 -0.003922

vn -0.003922 -0.003922 -1.000000

vn 0.701961 0.701961 -0.035294

vn 0.701961 -0.709804 -0.003922

vn 0.701961 -0.709804 -0.035294

vn 0.701961 0.701961 -0.003922

vn -0.003922 -0.003922 -1.000000

vn -0.709804 0.701961 -0.035294

vn -0.709804 0.701961 -0.003922

vn 0.701961 0.701961 -0.003922

vn 0.701961 0.701961 -0.035294

vn -0.003922 -0.003922 1.000000

vn -0.003922 -0.003922 1.000000

vn -0.003922 -0.003922 1.000000

vn -0.003922 -0.003922 1.000000

vn 0.482353 0.850981 -0.200000

vn -0.490196 0.850981 0.192157

vn 0.498039 0.850981 0.145098

vn -0.505882 0.850981 -0.152941

vn -0.490196 0.850981 0.192157

vn -0.992157 -0.011765 -0.145098

vn -0.984314 -0.003922 0.207843

vn -0.490196 -0.858824 0.192157

vn -0.498039 -0.850980 -0.207843

vn 0.466667 -0.850980 -0.254902

vn 0.498039 -0.858824 0.145098

vn 0.992157 -0.003922 0.121569

vn 0.968628 -0.011765 -0.239216

vn 0.992157 -0.003922 0.121569

vn 0.482353 0.850981 -0.200000

vn 0.498039 0.850981 0.145098

vn 0.309804 -0.686275 -0.662745

vn 0.968628 -0.011765 -0.239216

vn 0.466667 -0.850980 -0.254902

vn 0.670588 -0.058823 -0.741176

vn 0.396078 -0.647059 0.647059

vn 0.992157 -0.003922 0.121569

vn 0.764706 -0.003922 0.631373

vn 0.498039 -0.858824 0.145098

vn -0.380392 -0.686275 -0.631373

vn 0.309804 -0.686275 -0.662745

vn -0.498039 -0.850980 -0.207843

vn 0.466667 -0.850980 -0.254902

vn -0.341176 -0.647059 0.686275

vn 0.498039 -0.858824 0.145098

vn 0.396078 -0.647059 0.647059

vn -0.490196 -0.858824 0.192157

vn -0.749020 -0.058823 -0.670588

vn -0.380392 -0.686275 -0.631373

vn -0.992157 -0.011765 -0.145098

vn -0.498039 -0.850980 -0.207843

vn -0.984314 -0.003922 0.207843

vn -0.341176 -0.647059 0.686275

vn -0.717647 -0.003922 0.701961

vn -0.490196 -0.858824 0.192157

vn -0.992157 -0.011765 -0.145098

vn -0.403922 0.639216 -0.654902

vn -0.749020 -0.058823 -0.670588

vn -0.505882 0.850981 -0.152941

vn -0.341176 0.639216 0.686275

vn -0.984314 -0.003922 0.207843

vn -0.717647 -0.003922 0.701961

vn -0.490196 0.850981 0.192157

vn 0.333333 0.639216 -0.694118

vn -0.505882 0.850981 -0.152941

vn 0.482353 0.850981 -0.200000

vn -0.403922 0.639216 -0.654902

vn 0.498039 0.850981 0.145098

vn -0.341176 0.639216 0.686275

vn 0.396078 0.639216 0.647059

vn -0.490196 0.850981 0.192157

vn 0.482353 0.850981 -0.200000

vn 0.968628 -0.011765 -0.239216

vn 0.333333 0.639216 -0.694118

vn 0.670588 -0.058823 -0.741176

vn 0.992157 -0.003922 0.121569

vn 0.396078 0.639216 0.647059

vn 0.764706 -0.003922 0.631373

vn 0.498039 0.850981 0.145098

vn -0.717647 -0.003922 0.701961

vn -0.341176 -0.647059 0.686275

vn 0.043137 -0.003922 0.992157

vn 0.396078 -0.647059 0.647059

f 1/1/1 2/2/2 3/3/3

f 4/4/4 5/5/5 6/6/6

f 7/7/7 8/8/8 9/9/9

f 10/10/10 11/11/11 12/12/12

f 13/13/13 14/14/14 15/15/15

f 16/16/16 17/17/17 18/18/18

f 19/19/19 20/20/20 21/21/21

f 22/22/22 23/23/23 24/24/24

f 25/25/25 26/26/26 27/27/27

f 28/28/28 29/29/29 27/27/27

f 30/30/30 31/31/31 32/32/32

f 32/32/32 33/33/33 34/34/34

f 35/35/35 36/36/36 32/32/32

f 36/36/36 35/35/35 37/37/37

f 38/38/38 39/39/39 34/34/34

f 34/34/34 40/40/40 38/38/38

f 34/34/34 41/41/41 42/42/42

f 43/43/43 44/44/44 42/42/42

f 42/42/42 45/45/45 43/43/43

f 42/42/42 46/46/46 47/47/47

f 47/47/47 48/48/48 49/49/49

f 49/49/49 50/50/50 47/47/47

f 51/51/51 52/52/52 53/53/53

f 52/52/52 54/54/54 53/53/53

f 55/55/55 56/56/56 57/57/57

f 56/56/56 55/55/55 58/58/58

f 59/59/59 58/58/58 60/60/60

f 60/60/60 61/61/61 59/59/59

f 60/60/60 62/62/62 61/61/61

f 62/62/62 60/60/60 63/63/63

f 62/62/62 63/63/63 64/64/64

f 64/64/64 65/65/65 62/62/62

f 64/64/64 66/66/66 65/65/65

f 66/66/66 64/64/64 67/67/67

f 68/68/68 67/67/67 69/69/69

f 69/69/69 70/70/70 68/68/68

f 71/71/71 72/72/72 73/73/73

f 72/72/72 71/71/71 74/74/74

f 75/75/75 76/76/76 77/77/77

f 76/76/76 75/75/75 78/78/78

f 79/79/79 80/80/80 81/81/81

f 82/82/82 81/81/81 80/80/80

f 83/83/83 84/84/84 85/85/85

f 84/84/84 83/83/83 86/86/86

f 87/87/87 88/88/88 89/89/89

f 90/90/90 89/89/89 88/88/88

f 91/91/91 92/92/92 93/93/93

f 92/92/92 91/91/91 94/94/94

f 95/95/95 96/96/96 97/97/97

f 96/96/96 95/95/95 98/98/98

f 99/99/99 100/100/100 101/101/101

f 100/100/100 99/99/99 102/102/102

f 103/103/103 104/104/104 105/105/105

f 104/104/104 103/103/103 106/106/106

f 107/107/107 108/108/108 109/109/109

f 108/108/108 107/107/107 110/110/110

f 111/111/111 112/112/112 113/113/113

f 112/112/112 114/114/114 113/113/113

f 115/115/115 116/116/116 117/117/117

f 116/116/116 115/115/115 118/118/118

f 119/119/119 120/120/120 121/121/121

f 120/120/120 122/122/122 121/121/121

