# UnrealEd OBJ exporter (_Internal)



v 6.882813 -18.947018 11.921509

v 13.765869 -18.947018 -0.000000

v 22.273560 -7.237116 -0.000000

v 0.000000 -23.419802 -0.000000

v 11.136719 -7.237116 19.289551

v 22.273560 7.237116 -0.000000

v -6.882813 -18.947018 11.921509

v -13.765869 -18.947018 -0.000000

v -22.273560 -7.237116 -0.000000

v -11.136719 -7.237116 19.289551

v 11.136719 7.237116 19.289551

v -11.136719 7.237116 19.289551

v -22.273560 7.237116 -0.000000

v 6.882813 18.947018 11.921509

v 13.765869 18.947018 -0.000000

v 0.000000 23.419802 -0.000000

v -6.882813 18.947018 11.921509

v -13.581055 18.947016 0.092529

v 22.273560 -7.237116 -0.000000

v 13.765869 -18.947018 -0.000000

v 6.882813 -18.947018 -11.921631

v 0.000000 -23.419802 -0.000000

v 11.136719 -7.237116 -19.289551

v 22.273560 7.237116 -0.000000

v -6.882813 -18.947018 -11.921631

v -13.765869 -18.947018 -0.000000

v -22.273560 -7.237116 -0.000000

v -11.136719 -7.237116 -19.289551

v 11.136719 7.237116 -19.289551

v -11.136719 7.237116 -19.289551

v -22.273560 7.237116 -0.000000

v 6.882813 18.947018 -11.921631

v 13.765869 18.947018 -0.000000

v 0.000000 23.419802 -0.000000

v -6.882813 18.947018 -11.921631

v -13.581055 18.947016 0.092529



vt 0.473145 0.021484

vt 0.480225 0.013184

vt 0.494873 0.027832

vt 0.460449 0.008789

vt 0.475586 0.030762

vt 0.494873 0.042480

vt 0.446045 0.021484

vt 0.441406 0.011230

vt 0.425537 0.027344

vt 0.441895 0.030762

vt 0.475586 0.039551

vt 0.441650 0.039551

vt 0.425293 0.041992

vt 0.473633 0.048828

vt 0.481445 0.056152

vt 0.459473 0.060547

vt 0.445068 0.048828

vt 0.437500 0.056152

vt 0.425293 0.027344

vt 0.441406 0.011230

vt 0.446289 0.021484

vt 0.460205 0.008789

vt 0.443604 0.030762

vt 0.425293 0.041504

vt 0.473389 0.021484

vt 0.480225 0.013184

vt 0.494873 0.027832

vt 0.477539 0.030762

vt 0.443848 0.039551

vt 0.477539 0.039551

vt 0.494873 0.042480

vt 0.445801 0.048828

vt 0.437744 0.056152

vt 0.459717 0.060547

vt 0.474365 0.048828

vt 0.481445 0.056152



vn 0.364706 -0.678431 0.639216

vn 0.733333 -0.678431 -0.003922

vn 0.968628 -0.247059 -0.003922

vn -0.003922 -1.000000 -0.003922

vn 0.482353 -0.247059 0.835294

vn 0.968628 0.239216 -0.003922

vn -0.372549 -0.678431 0.639216

vn -0.741176 -0.678431 -0.003922

vn -0.976471 -0.247059 -0.003922

vn -0.490196 -0.247059 0.835294

vn 0.482353 0.239216 0.835294

vn -0.490196 0.239216 0.835294

vn -0.976471 0.239216 -0.003922

vn 0.364706 0.670588 0.639216

vn 0.733333 0.670588 -0.003922

vn -0.003922 0.992157 -0.003922

vn -0.372549 0.670588 0.639216

vn -0.741176 0.670588 -0.003922

vn 0.968628 -0.247059 -0.003922

vn 0.733333 -0.678431 -0.003922

vn 0.364706 -0.678431 -0.647059

vn -0.003922 -1.000000 -0.003922

vn 0.482353 -0.247059 -0.843137

vn 0.968628 0.239216 -0.003922

vn -0.372549 -0.678431 -0.647059

vn -0.741176 -0.678431 -0.003922

vn -0.976471 -0.247059 -0.003922

vn -0.490196 -0.247059 -0.843137

vn 0.482353 0.239216 -0.843137

vn -0.490196 0.239216 -0.843137

vn -0.976471 0.239216 -0.003922

vn 0.364706 0.670588 -0.647059

vn 0.733333 0.670588 -0.003922

vn -0.003922 0.992157 -0.003922

vn -0.372549 0.670588 -0.639216

vn -0.741176 0.670588 -0.003922

f 1/1/1 2/2/2 3/3/3

f 2/2/2 1/1/1 4/4/4

f 5/5/5 1/1/1 3/3/3

f 5/5/5 3/3/3 6/6/6

f 1/1/1 7/7/7 4/4/4

f 5/5/5 7/7/7 1/1/1

f 7/7/7 8/8/8 4/4/4

f 7/7/7 9/9/9 8/8/8

f 5/5/5 10/10/10 7/7/7

f 9/9/9 7/7/7 10/10/10

f 11/11/11 5/5/5 6/6/6

f 11/11/11 10/10/10 5/5/5

f 12/12/12 9/9/9 10/10/10

f 11/11/11 12/12/12 10/10/10

f 9/9/9 12/12/12 13/13/13

f 6/6/6 14/14/14 11/11/11

f 12/12/12 11/11/11 14/14/14

f 14/14/14 6/6/6 15/15/15

f 14/14/14 15/15/15 16/16/16

f 17/17/17 13/13/13 12/12/12

f 12/12/12 14/14/14 17/17/17

f 17/17/17 14/14/14 16/16/16

f 13/13/13 17/17/17 18/18/18

f 18/18/18 17/17/17 16/16/16

f 19/19/19 20/20/20 21/21/21

f 20/20/20 22/22/22 21/21/21

f 19/19/19 21/21/21 23/23/23

f 24/24/24 19/19/19 23/23/23

f 21/21/21 22/22/22 25/25/25

f 25/25/25 23/23/23 21/21/21

f 25/25/25 22/22/22 26/26/26

f 27/27/27 25/25/25 26/26/26

f 25/25/25 28/28/28 23/23/23

f 25/25/25 27/27/27 28/28/28

f 24/24/24 23/23/23 29/29/29

f 23/23/23 28/28/28 29/29/29

f 27/27/27 30/30/30 28/28/28

f 28/28/28 30/30/30 29/29/29

f 31/31/31 30/30/30 27/27/27

f 32/32/32 24/24/24 29/29/29

f 29/29/29 30/30/30 32/32/32

f 24/24/24 32/32/32 33/33/33

f 32/32/32 34/34/34 33/33/33

f 30/30/30 31/31/31 35/35/35

f 30/30/30 35/35/35 32/32/32

f 35/35/35 34/34/34 32/32/32

f 36/36/36 35/35/35 31/31/31

f 36/36/36 34/34/34 35/35/35

