# UnrealEd OBJ exporter (_Internal)



v -13.765869 -18.947018 -0.000000

v 13.765869 -18.947018 -0.000000

v 0.000000 -23.419802 -0.000000

v 0.000000 23.419802 -0.000000

v 13.765869 18.947018 -0.000000

v -13.581055 18.947016 0.092529

v 22.273560 7.237116 -0.000000

v -22.273560 -7.237116 -0.000000

v -22.273560 7.237116 -0.000000

v 22.273560 -7.237116 -0.000000

v -13.765869 -18.947018 -0.000000

v -22.273560 -7.237116 -0.000000

v 13.765869 -18.947018 -0.000000

v 22.273560 7.237116 -0.000000

v -13.581055 18.947016 0.092529

v 13.765869 18.947018 -0.000000

v -22.273560 7.237116 -0.000000

v 6.882813 -18.947018 11.921631

v 13.765869 -18.947018 -0.000000

v 22.273560 -7.237116 -0.000000

v 0.000000 -23.419802 -0.000000

v 11.136719 -7.237116 19.289551

v 22.273560 7.237116 -0.000000

v -6.882813 -18.947018 11.921631

v -13.765869 -18.947018 -0.000000

v -22.273560 -7.237116 -0.000000

v -11.136719 -7.237116 19.289551

v 11.136719 7.237116 19.289551

v -11.136719 7.237116 19.289551

v -22.273560 7.237116 -0.000000

v 6.882813 18.947018 11.921631

v 13.765869 18.947018 -0.000000

v 0.000000 23.419802 -0.000000

v -6.882813 18.947018 11.921631

v -13.581055 18.947016 0.092529



vt 0.363525 0.009766

vt 0.339355 0.007813

vt 0.351318 0.006348

vt 0.350830 0.048828

vt 0.337158 0.045410

vt 0.364258 0.045410

vt 0.329590 0.033691

vt 0.372559 0.021973

vt 0.372559 0.034180

vt 0.329590 0.021484

vt 0.363525 0.009766

vt 0.372559 0.021973

vt 0.339355 0.007813

vt 0.329590 0.033691

vt 0.364258 0.045410

vt 0.337158 0.045410

vt 0.372559 0.034180

vt 0.473145 0.021484

vt 0.480225 0.013184

vt 0.494873 0.027832

vt 0.460449 0.008789

vt 0.475586 0.030762

vt 0.494873 0.042480

vt 0.446045 0.021484

vt 0.441406 0.011230

vt 0.425537 0.027344

vt 0.441895 0.030762

vt 0.475586 0.039551

vt 0.441650 0.039551

vt 0.425293 0.041992

vt 0.473633 0.048828

vt 0.481445 0.056152

vt 0.459473 0.060547

vt 0.445068 0.048828

vt 0.437500 0.056152



vn -0.003922 -0.003922 -1.000000

vn -0.003922 -0.003922 -1.000000

vn -0.003922 -0.003922 -1.000000

vn -0.003922 -0.011765 -1.000000

vn -0.003922 -0.011765 -1.000000

vn -0.003922 -0.011765 -1.000000

vn -0.003922 -0.003922 -1.000000

vn -0.003922 -0.003922 -1.000000

vn -0.003922 -0.003922 -1.000000

vn -0.003922 -0.003922 -1.000000

vn -0.003922 -0.003922 -1.000000

vn -0.003922 -0.003922 -1.000000

vn -0.003922 -0.003922 -1.000000

vn -0.003922 0.003922 -1.000000

vn -0.003922 0.003922 -1.000000

vn -0.003922 0.003922 -1.000000

vn -0.003922 0.003922 -1.000000

vn 0.364706 -0.678431 0.639216

vn 0.678432 -0.623529 0.388235

vn 0.843137 -0.215686 0.482353

vn -0.003922 -0.976471 0.239216

vn 0.482353 -0.247059 0.835294

vn 0.843137 0.207843 0.482353

vn -0.372549 -0.678431 0.639216

vn -0.686275 -0.623529 0.388235

vn -0.850980 -0.215686 0.482353

vn -0.490196 -0.247059 0.835294

vn 0.482353 0.239216 0.835294

vn -0.490196 0.239216 0.835294

vn -0.850980 0.207843 0.482353

vn 0.364706 0.670588 0.639216

vn 0.678432 0.615686 0.388235

vn -0.003922 0.968628 0.239216

vn -0.372549 0.670588 0.639216

vn -0.686275 0.615686 0.388235

f 1/1/1 2/2/2 3/3/3

f 4/4/4 5/5/5 6/6/6

f 7/7/7 8/8/8 9/9/9

f 8/8/8 7/7/7 10/10/10

f 10/10/10 11/11/11 12/12/12

f 11/11/11 10/10/10 13/13/13

f 14/14/14 15/15/15 16/16/16

f 15/15/15 14/14/14 17/17/17

f 18/18/18 19/19/19 20/20/20

f 19/19/19 18/18/18 21/21/21

f 22/22/22 18/18/18 20/20/20

f 22/22/22 20/20/20 23/23/23

f 18/18/18 24/24/24 21/21/21

f 22/22/22 24/24/24 18/18/18

f 24/24/24 25/25/25 21/21/21

f 24/24/24 26/26/26 25/25/25

f 22/22/22 27/27/27 24/24/24

f 26/26/26 24/24/24 27/27/27

f 28/28/28 22/22/22 23/23/23

f 28/28/28 27/27/27 22/22/22

f 29/29/29 26/26/26 27/27/27

f 28/28/28 29/29/29 27/27/27

f 26/26/26 29/29/29 30/30/30

f 23/23/23 31/31/31 28/28/28

f 29/29/29 28/28/28 31/31/31

f 31/31/31 23/23/23 32/32/32

f 31/31/31 32/32/32 33/33/33

f 34/34/34 30/30/30 29/29/29

f 29/29/29 31/31/31 34/34/34

f 34/34/34 31/31/31 33/33/33

f 30/30/30 34/34/34 35/35/35

f 35/35/35 34/34/34 33/33/33

