# UnrealEd OBJ exporter (_Internal)



v -1.871338 -3.382465 -26.989746

v -3.583374 1.077874 -27.017578

v 2.899170 -3.132423 -26.912109

v 4.135498 1.482459 -26.891846

v 0.129150 4.084568 -26.957153

v 0.115601 5.077167 -23.626709

v -3.583374 1.077874 -27.017578

v 5.126709 1.822505 -23.545166

v 2.899170 -3.132423 -26.912109

v -4.527832 1.316474 -23.702393

v -1.871338 -3.382465 -26.989746

v -2.386597 -4.262409 -23.667480

v -0.461304 0.000020 28.321045

v 3.580200 -3.949670 -23.570313

v -2.386597 -4.262409 -23.667480

v -1.871338 -3.382465 -26.989746



vt 0.446289 0.096191

vt 0.443848 0.094238

vt 0.448730 0.094238

vt 0.447998 0.091797

vt 0.444580 0.091309

vt 0.444824 0.089844

vt 0.440918 0.091309

vt 0.447998 0.089844

vt 0.451904 0.091309

vt 0.441162 0.089355

vt 0.437744 0.090820

vt 0.437500 0.088379

vt 0.446533 0.062500

vt 0.451660 0.089355

vt 0.455322 0.088867

vt 0.455078 0.090820



vn -0.443137 -0.686275 -0.584314

vn -0.631373 0.168628 -0.764706

vn 0.411765 -0.513725 -0.756863

vn 0.552941 0.207843 -0.803922

vn -0.027451 0.584314 -0.811765

vn -0.058823 0.992157 0.050980

vn -0.631373 0.168628 -0.764706

vn 0.929412 0.356863 0.066667

vn 0.411765 -0.513725 -0.756863

vn -0.968627 0.254902 0.043137

vn -0.443137 -0.686275 -0.584314

vn -0.545098 -0.843137 0.043137

vn -0.019608 -0.003922 0.992157

vn 0.623530 -0.780392 0.066667

vn -0.545098 -0.843137 0.043137

vn -0.443137 -0.686275 -0.584314

f 1/1/1 2/2/2 3/3/3

f 2/2/2 4/4/4 3/3/3

f 4/4/4 2/2/2 5/5/5

f 6/6/6 4/4/4 5/5/5

f 7/7/7 6/6/6 5/5/5

f 8/8/8 4/4/4 6/6/6

f 8/8/8 9/9/9 4/4/4

f 6/6/6 7/7/7 10/10/10

f 11/11/11 10/10/10 7/7/7

f 10/10/10 11/11/11 12/12/12

f 13/13/13 10/10/10 12/12/12

f 13/13/13 6/6/6 10/10/10

f 13/13/13 8/8/8 6/6/6

f 13/13/13 14/14/14 8/8/8

f 9/9/9 8/8/8 14/14/14

f 15/15/15 14/14/14 13/13/13

f 15/15/15 9/9/9 14/14/14

f 9/9/9 15/15/15 16/16/16

