# UnrealEd OBJ exporter (_Internal)



v -6.240601 -3.382468 -29.022705

v -7.952759 1.077868 -29.022705

v -1.469482 -3.132408 -29.022705

v -4.239746 4.084571 -29.022705

v -0.232910 1.482461 -29.022705

v -4.199097 5.077176 -25.651611

v -7.952759 1.077868 -29.022705

v 0.812622 1.822508 -25.651550

v -1.469482 -3.132408 -29.022705

v -8.843262 1.316472 -25.651611

v -6.240601 -3.382468 -29.022705

v -6.701660 -4.262408 -25.651550

v -2.389526 -1.677525 17.165466

v -0.273193 0.031794 17.369812

v -1.364746 -0.515819 30.174500

v 0.071045 -2.542739 17.086853

v -2.389526 -1.677525 17.165466

v -0.734009 -3.949663 -25.651611

v -6.701660 -4.262408 -25.651550

v -6.240601 -3.382468 -29.022705

v 6.482422 -3.382468 -21.990601

v 4.770264 1.077868 -21.990601

v 11.253540 -3.132408 -21.990601

v 12.489990 1.482461 -21.990601

v 8.483154 4.084571 -21.990601

v 8.523804 5.077176 -19.195801

v 4.770264 1.077868 -21.990601

v 13.535645 1.822508 -19.195740

v 11.253540 -3.132408 -21.990601

v 3.879761 1.316472 -19.195801

v 6.482422 -3.382468 -21.990601

v 6.021362 -4.262408 -19.195740

v 8.792847 0.000015 24.403015

v 11.989014 -3.949663 -19.195801

v 6.021362 -4.262408 -19.195740

v 6.482422 -3.382468 -21.990601

v 23.976685 -3.382465 -18.722961

v 22.280640 1.077874 -18.957581

v 28.702759 -3.132423 -18.069092

v 29.927612 1.482459 -17.899658

v 25.958496 4.084568 -18.448792

v 25.542358 5.077167 -15.144409

v 22.280640 1.077874 -18.957581

v 30.506836 1.822505 -14.457581

v 28.702759 -3.132423 -18.069092

v 20.942139 1.316474 -15.780884

v 23.976685 -3.382465 -18.722961

v 23.063599 -4.262409 -15.487366

v 18.689575 0.000020 36.352661

v 28.974854 -3.949670 -14.669556

v 23.063599 -4.262409 -15.487366

v 23.976685 -3.382465 -18.722961

v -16.438110 -3.382468 -22.975098

v -18.106934 1.077868 -23.357117

v -11.787109 -3.132408 -21.910767

v -10.581787 1.482461 -21.634827

v -14.487671 4.084571 -22.528748

v -15.200073 5.077176 -19.233459

v -18.106934 1.077868 -23.357117

v -10.314697 1.822508 -18.115417

v -11.787109 -3.132408 -21.910767

v -19.727173 1.316472 -20.269531

v -16.438110 -3.382468 -22.975098

v -17.639648 -4.262408 -19.791748

v -25.717651 -0.512650 21.927795

v -23.700317 1.196683 22.599060

v -26.669922 0.000015 32.090515

v -23.301636 -1.377878 22.400085

v -25.717651 -0.512650 21.927795

v -17.639648 -4.262408 -19.791748

v -16.438110 -3.382468 -22.975098

v -11.822388 -3.949663 -18.460449



vt 0.446289 0.096191

vt 0.443848 0.094238

vt 0.448730 0.094238

vt 0.444580 0.091309

vt 0.447998 0.091797

vt 0.444824 0.089844

vt 0.440918 0.091309

vt 0.447998 0.089844

vt 0.451904 0.091309

vt 0.441162 0.089355

vt 0.437744 0.090820

vt 0.437500 0.088379

vt 0.445068 0.067871

vt 0.446533 0.067871

vt 0.446533 0.062500

vt 0.447754 0.067871

vt 0.448242 0.067871

vt 0.451660 0.089355

vt 0.455322 0.088867

vt 0.455078 0.090820

vt 0.446289 0.096191

vt 0.443848 0.094238

vt 0.448730 0.094238

vt 0.447998 0.091797

vt 0.444580 0.091309

vt 0.444824 0.089844

vt 0.440918 0.091309

vt 0.447998 0.089844

vt 0.451904 0.091309

vt 0.441162 0.089355

vt 0.437744 0.090820

vt 0.437500 0.088379

vt 0.446533 0.062500

vt 0.451660 0.089355

vt 0.455322 0.088867

vt 0.455078 0.090820

vt 0.446289 0.096191

vt 0.443848 0.094238

vt 0.448730 0.094238

vt 0.447998 0.091797

vt 0.444580 0.091309

vt 0.444824 0.089844

vt 0.440918 0.091309

vt 0.447998 0.089844

vt 0.451904 0.091309

vt 0.441162 0.089355

vt 0.437744 0.090820

vt 0.437500 0.088379

vt 0.446533 0.062500

vt 0.451660 0.089355

vt 0.455322 0.088867

vt 0.455078 0.090820

vt 0.446289 0.096191

vt 0.443848 0.094238

vt 0.448730 0.094238

vt 0.447998 0.091797

vt 0.444580 0.091309

vt 0.444824 0.089844

vt 0.440918 0.091309

vt 0.447998 0.089844

vt 0.451904 0.091309

vt 0.441162 0.089355

vt 0.437744 0.090820

vt 0.437500 0.088379

vt 0.445068 0.067871

vt 0.446533 0.067871

vt 0.446533 0.062500

vt 0.447754 0.067871

vt 0.448242 0.067871

vt 0.455322 0.088867

vt 0.455078 0.090820

vt 0.451660 0.089355



vn -0.458824 -0.686275 -0.576471

vn -0.647059 0.168628 -0.749020

vn 0.403922 -0.513725 -0.756863

vn -0.043137 0.592157 -0.803922

vn 0.545098 0.207843 -0.811765

vn -0.200000 0.968628 0.090196

vn -0.647059 0.168628 -0.749020

vn 0.945098 0.317647 -0.011765

vn 0.403922 -0.513725 -0.756863

vn -0.921569 0.372549 0.121569

vn -0.458824 -0.686275 -0.576471

vn -0.521569 -0.858824 0.050980

vn -0.952941 -0.207843 0.239216

vn 0.443137 0.874510 0.176471

vn -0.247059 0.168628 0.952941

vn 0.647059 -0.764706 0.035294

vn -0.952941 -0.207843 0.239216

vn 0.615686 -0.788235 0.003922

vn -0.521569 -0.858824 0.050980

vn -0.458824 -0.686275 -0.576471

vn -0.427451 -0.647059 -0.639216

vn -0.584314 0.152941 -0.803922

vn 0.364706 -0.466667 -0.811765

vn 0.482353 0.184314 -0.858824

vn -0.035294 0.521569 -0.850980

vn -0.050980 0.992157 0.066667

vn -0.584314 0.152941 -0.803922

vn 0.929412 0.349020 0.066667

vn 0.364706 -0.466667 -0.811765

vn -0.968627 0.254902 0.066667

vn -0.427451 -0.647059 -0.639216

vn -0.545098 -0.843137 0.066667

vn -0.003922 -0.003922 1.000000

vn 0.623530 -0.780392 0.066667

vn -0.545098 -0.843137 0.066667

vn -0.427451 -0.647059 -0.639216

vn -0.372549 -0.686275 -0.639216

vn -0.537255 0.168628 -0.835294

vn 0.505883 -0.513725 -0.701961

vn 0.647059 0.207843 -0.733333

vn 0.066667 0.584314 -0.803922

vn -0.066667 0.992157 0.050980

vn -0.537255 0.168628 -0.835294

vn 0.913726 0.356863 0.176471

vn 0.505883 -0.513725 -0.701961

vn -0.968627 0.254902 -0.074510

vn -0.372549 -0.686275 -0.639216

vn -0.552941 -0.843137 -0.019608

vn -0.137255 -0.003922 0.984314

vn 0.607843 -0.780392 0.137255

vn -0.552941 -0.843137 -0.019608

vn -0.372549 -0.686275 -0.639216

vn -0.317647 -0.686275 -0.662745

vn -0.466667 0.168628 -0.874510

vn 0.560784 -0.513725 -0.647059

vn 0.709804 0.207843 -0.670588

vn 0.137255 0.592157 -0.796078

vn -0.192157 0.976471 0.011765

vn -0.466667 0.168628 -0.874510

vn 0.913726 0.301961 0.247059

vn 0.560784 -0.513725 -0.647059

vn -0.913725 0.372549 -0.152941

vn -0.317647 -0.686275 -0.662745

vn -0.498039 -0.866667 -0.066667

vn -0.992157 -0.176471 -0.027451

vn 0.349020 0.890196 0.278431

vn -0.380392 0.098039 0.921569

vn 0.600000 -0.764706 0.239216

vn -0.992157 -0.176471 -0.027451

vn -0.498039 -0.866667 -0.066667

vn -0.317647 -0.686275 -0.662745

vn 0.592157 -0.780392 0.192157

f 1/1/1 2/2/2 3/3/3

f 4/4/4 3/3/3 2/2/2

f 3/3/3 4/4/4 5/5/5

f 6/6/6 5/5/5 4/4/4

f 7/7/7 6/6/6 4/4/4

f 8/8/8 5/5/5 6/6/6

f 8/8/8 9/9/9 5/5/5

f 6/6/6 7/7/7 10/10/10

f 11/11/11 10/10/10 7/7/7

f 10/10/10 11/11/11 12/12/12

f 13/13/13 10/10/10 12/12/12

f 13/13/13 6/6/6 10/10/10

f 14/14/14 6/6/6 13/13/13

f 14/14/14 8/8/8 6/6/6

f 14/14/14 13/13/13 15/15/15

f 16/16/16 14/14/14 15/15/15

f 16/16/16 8/8/8 14/14/14

f 17/17/17 16/16/16 15/15/15

f 8/8/8 16/16/16 18/18/18

f 17/17/17 18/18/18 16/16/16

f 9/9/9 8/8/8 18/18/18

f 18/18/18 17/17/17 19/19/19

f 19/19/19 9/9/9 18/18/18

f 9/9/9 19/19/19 20/20/20

f 21/21/21 22/22/22 23/23/23

f 22/22/22 24/24/24 23/23/23

f 24/24/24 22/22/22 25/25/25

f 26/26/26 24/24/24 25/25/25

f 27/27/27 26/26/26 25/25/25

f 28/28/28 24/24/24 26/26/26

f 28/28/28 29/29/29 24/24/24

f 26/26/26 27/27/27 30/30/30

f 31/31/31 30/30/30 27/27/27

f 30/30/30 31/31/31 32/32/32

f 33/33/33 30/30/30 32/32/32

f 33/33/33 26/26/26 30/30/30

f 33/33/33 28/28/28 26/26/26

f 33/33/33 34/34/34 28/28/28

f 29/29/29 28/28/28 34/34/34

f 35/35/35 34/34/34 33/33/33

f 35/35/35 29/29/29 34/34/34

f 29/29/29 35/35/35 36/36/36

f 37/37/37 38/38/38 39/39/39

f 38/38/38 40/40/40 39/39/39

f 40/40/40 38/38/38 41/41/41

f 42/42/42 40/40/40 41/41/41

f 43/43/43 42/42/42 41/41/41

f 44/44/44 40/40/40 42/42/42

f 44/44/44 45/45/45 40/40/40

f 42/42/42 43/43/43 46/46/46

f 47/47/47 46/46/46 43/43/43

f 46/46/46 47/47/47 48/48/48

f 49/49/49 46/46/46 48/48/48

f 49/49/49 42/42/42 46/46/46

f 49/49/49 44/44/44 42/42/42

f 49/49/49 50/50/50 44/44/44

f 45/45/45 44/44/44 50/50/50

f 51/51/51 50/50/50 49/49/49

f 51/51/51 45/45/45 50/50/50

f 45/45/45 51/51/51 52/52/52

f 53/53/53 54/54/54 55/55/55

f 54/54/54 56/56/56 55/55/55

f 56/56/56 54/54/54 57/57/57

f 58/58/58 56/56/56 57/57/57

f 59/59/59 58/58/58 57/57/57

f 58/58/58 60/60/60 56/56/56

f 60/60/60 61/61/61 56/56/56

f 58/58/58 59/59/59 62/62/62

f 63/63/63 62/62/62 59/59/59

f 62/62/62 63/63/63 64/64/64

f 65/65/65 62/62/62 64/64/64

f 65/65/65 58/58/58 62/62/62

f 66/66/66 58/58/58 65/65/65

f 66/66/66 60/60/60 58/58/58

f 66/66/66 65/65/65 67/67/67

f 68/68/68 66/66/66 67/67/67

f 68/68/68 60/60/60 66/66/66

f 69/69/69 68/68/68 67/67/67

f 70/70/70 68/68/68 69/69/69

f 61/61/61 70/70/70 71/71/71

f 60/60/60 68/68/68 72/72/72

f 61/61/61 60/60/60 72/72/72

f 68/68/68 70/70/70 72/72/72

f 70/70/70 61/61/61 72/72/72

