# UnrealEd OBJ exporter (_Internal)



v -1.582275 -3.382465 -27.384766

v -3.287964 1.077874 -27.533203

v 3.170898 -3.132423 -26.971436

v 4.402832 1.482459 -26.864258

v 0.411011 4.084568 -27.211426

v 0.159424 5.077167 -23.849487

v -3.287964 1.077874 -27.533203

v 5.152344 1.822505 -23.415161

v 3.170898 -3.132423 -26.971436

v -4.467163 1.316474 -24.251831

v -1.582275 -3.382465 -27.384766

v -2.333740 -4.262409 -24.066284

v -1.747925 -1.677529 18.963379

v 0.342773 0.031798 19.350342

v -1.854248 -0.515809 32.012207

v 0.710205 -2.542752 19.098145

v -1.747925 -1.677529 18.963379

v 3.611450 -3.949670 -23.549194

v -2.333740 -4.262409 -24.066284

v -1.582275 -3.382465 -27.384766



vt 0.446289 0.096191

vt 0.443848 0.094238

vt 0.448730 0.094238

vt 0.447998 0.091797

vt 0.444580 0.091309

vt 0.444824 0.089844

vt 0.440918 0.091309

vt 0.447998 0.089844

vt 0.451904 0.091309

vt 0.441162 0.089355

vt 0.437744 0.090820

vt 0.437500 0.088379

vt 0.445068 0.067871

vt 0.446533 0.067871

vt 0.446533 0.062500

vt 0.447754 0.067871

vt 0.448242 0.067871

vt 0.451660 0.089355

vt 0.455322 0.088867

vt 0.455078 0.090820



vn -0.403922 -0.686275 -0.607843

vn -0.584314 0.168628 -0.803922

vn 0.466667 -0.513725 -0.717647

vn 0.615686 0.207843 -0.756863

vn 0.027451 0.592157 -0.803922

vn -0.207843 0.968628 0.074510

vn -0.584314 0.168628 -0.803922

vn 0.937255 0.317647 0.074510

vn 0.466667 -0.513725 -0.717647

vn -0.929412 0.372549 0.035294

vn -0.403922 -0.686275 -0.607843

vn -0.521569 -0.858824 0.003922

vn -0.968627 -0.207843 0.152941

vn 0.427451 0.874510 0.215686

vn -0.325490 0.168628 0.929412

vn 0.639216 -0.764706 0.098039

vn -0.968627 -0.207843 0.152941

vn 0.607843 -0.788235 0.050980

vn -0.521569 -0.858824 0.003922

vn -0.403922 -0.686275 -0.607843

f 1/1/1 2/2/2 3/3/3

f 2/2/2 4/4/4 3/3/3

f 4/4/4 2/2/2 5/5/5

f 6/6/6 4/4/4 5/5/5

f 7/7/7 6/6/6 5/5/5

f 8/8/8 4/4/4 6/6/6

f 8/8/8 9/9/9 4/4/4

f 6/6/6 7/7/7 10/10/10

f 11/11/11 10/10/10 7/7/7

f 10/10/10 11/11/11 12/12/12

f 13/13/13 10/10/10 12/12/12

f 13/13/13 6/6/6 10/10/10

f 14/14/14 6/6/6 13/13/13

f 14/14/14 8/8/8 6/6/6

f 14/14/14 13/13/13 15/15/15

f 16/16/16 14/14/14 15/15/15

f 16/16/16 8/8/8 14/14/14

f 17/17/17 16/16/16 15/15/15

f 8/8/8 16/16/16 18/18/18

f 17/17/17 18/18/18 16/16/16

f 9/9/9 8/8/8 18/18/18

f 18/18/18 17/17/17 19/19/19

f 19/19/19 9/9/9 18/18/18

f 9/9/9 19/19/19 20/20/20

