# UnrealEd OBJ exporter (_Internal)



v -28.102966 22.444702 -0.000061

v -24.466400 20.410217 -17.775879

v -30.242126 20.410217 -0.000061

v -22.735779 22.444691 -16.518555

v -22.735779 -0.063137 -16.518555

v -28.102966 -0.063137 -0.000061

v -24.466400 1.971340 -17.775818

v -30.242126 1.971339 -0.000000

v -9.345337 20.410221 -28.761963

v -22.735779 22.444691 -16.518555

v -8.684296 22.444693 -26.727478

v -24.466400 20.410217 -17.775879

v -22.735779 -0.063137 -16.518555

v -9.345337 1.971345 -28.762024

v -8.684296 -0.063133 -26.727478

v -24.466400 1.971340 -17.775818

v -9.345337 20.410221 -28.761963

v 8.684296 22.444691 -26.727539

v 9.345337 20.410221 -28.762024

v -8.684296 22.444693 -26.727478

v -9.345337 1.971345 -28.762024

v 8.684296 -0.063133 -26.727478

v -8.684296 -0.063133 -26.727478

v 9.345337 1.971343 -28.761963

v 22.735779 22.444689 -16.518555

v 9.345337 20.410221 -28.762024

v 8.684296 22.444691 -26.727539

v 24.466461 20.410217 -17.775879

v 9.345337 1.971343 -28.761963

v 22.735779 -0.063129 -16.518494

v 8.684296 -0.063133 -26.727478

v 24.466461 1.971347 -17.775879

v 22.735779 22.444689 -16.518555

v 28.102966 22.444700 0.000061

v 24.466461 20.410217 -17.775879

v 30.242126 20.410215 -0.000000

v 28.102966 -0.063129 -0.000000

v 24.466461 1.971347 -17.775879

v 30.242126 1.971346 -0.000000

v 22.735779 -0.063129 -16.518494

v 24.466431 20.410215 17.775879

v 28.102966 22.444700 0.000061

v 22.735779 22.444714 16.518555

v 30.242126 20.410215 -0.000000

v 22.735779 -0.063129 16.518494

v 30.242126 1.971346 -0.000000

v 24.466431 1.971349 17.775940

v 28.102966 -0.063129 -0.000000

v 22.735779 22.444714 16.518555

v 9.345337 20.410212 28.761963

v 24.466431 20.410215 17.775879

v 8.684296 22.444712 26.727539

v 24.466431 1.971349 17.775940

v 8.684296 -0.063133 26.727478

v 22.735779 -0.063129 16.518494

v 9.345337 1.971343 28.761963

v 9.345337 20.410212 28.761963

v -8.684296 22.444710 26.727478

v -9.345337 20.410212 28.761963

v 8.684296 22.444712 26.727539

v -8.684296 -0.063133 26.727478

v 8.684296 -0.063133 26.727478

v -9.345337 1.971343 28.761963

v 9.345337 1.971343 28.761963

v -24.466461 20.410217 17.775879

v -9.345337 20.410212 28.761963

v -22.735779 22.444715 16.518494

v -8.684296 22.444710 26.727478

v -8.684296 -0.063133 26.727478

v -24.466461 1.971341 17.775940

v -22.735779 -0.063137 16.518494

v -9.345337 1.971343 28.761963

v -28.102966 22.444702 -0.000061

v -24.466461 20.410217 17.775879

v -22.735779 22.444715 16.518494

v -30.242126 20.410217 -0.000061

v -24.466461 1.971341 17.775940

v -30.242126 1.971339 -0.000000

v -22.735779 -0.063137 16.518494

v -28.102966 -0.063137 -0.000061

v 30.242126 1.971346 -0.000000

v 24.466431 20.410215 17.775879

v 24.466431 1.971349 17.775940

v 30.242126 20.410215 -0.000000

v 24.466461 1.971347 -17.775879

v 24.466461 20.410217 -17.775879

v 9.345337 20.410221 -28.762024

v 9.345337 1.971343 -28.761963

v -9.345337 1.971345 -28.762024

v -9.345337 20.410221 -28.761963

v -24.466400 20.410217 -17.775879

v -24.466400 1.971340 -17.775818

v -30.242126 20.410217 -0.000061

v -30.242126 1.971339 -0.000000

v -24.466461 20.410217 17.775879

v -24.466461 1.971341 17.775940

v -9.345337 20.410212 28.761963

v -9.345337 1.971343 28.761963

v 9.345337 20.410212 28.761963

v 9.345337 1.971343 28.761963

v 24.466431 1.971349 17.775940

v 24.466431 20.410215 17.775879

v -22.735779 22.444715 16.518494

v 0.000000 22.444702 -0.000000

v -28.102966 22.444702 -0.000061

v -8.684296 22.444710 26.727478

v -22.735779 22.444691 -16.518555

v 8.684296 22.444712 26.727539

v -8.684296 22.444693 -26.727478

v 22.735779 22.444714 16.518555

v 8.684296 22.444691 -26.727539

v 28.102966 22.444700 0.000061

v 22.735779 22.444689 -16.518555

v -8.684296 -0.063133 -26.727478

v 8.684296 -0.063133 -26.727478

v 0.000000 -0.063133 -0.000000

v -22.735779 -0.063137 -16.518555

v 22.735779 -0.063129 -16.518494

v -28.102966 -0.063137 -0.000061

v 28.102966 -0.063129 -0.000000

v -22.735779 -0.063137 16.518494

v 22.735779 -0.063129 16.518494

v -8.684296 -0.063133 26.727478

v 8.684296 -0.063133 26.727478



vt 0.384521 0.272461

vt 0.387207 0.284668

vt 0.382568 0.272461

vt 0.388672 0.283691

vt 0.412842 0.478027

vt 0.419922 0.468262

vt 0.414063 0.479492

vt 0.421631 0.468750

vt 0.397949 0.291992

vt 0.388672 0.283691

vt 0.398682 0.290527

vt 0.387207 0.284668

vt 0.412842 0.478027

vt 0.401611 0.483398

vt 0.401611 0.481445

vt 0.414063 0.479492

vt 0.397949 0.291992

vt 0.410400 0.290039

vt 0.411133 0.291504

vt 0.398682 0.290527

vt 0.401611 0.483398

vt 0.390137 0.478027

vt 0.401611 0.481445

vt 0.389160 0.479492

vt 0.419922 0.282715

vt 0.411133 0.291504

vt 0.410400 0.290039

vt 0.421631 0.283691

vt 0.389160 0.479492

vt 0.383301 0.468262

vt 0.390137 0.478027

vt 0.381348 0.468750

vt 0.419922 0.282715

vt 0.423096 0.270996

vt 0.421631 0.283691

vt 0.425049 0.270996

vt 0.383301 0.456543

vt 0.381348 0.468750

vt 0.381348 0.455566

vt 0.383301 0.468262

vt 0.420654 0.258789

vt 0.423096 0.270996

vt 0.418945 0.259766

vt 0.425049 0.270996

vt 0.390137 0.446777

vt 0.381348 0.455566

vt 0.388916 0.445313

vt 0.383301 0.456543

vt 0.418945 0.259766

vt 0.409668 0.251465

vt 0.420654 0.258789

vt 0.409180 0.253418

vt 0.388916 0.445313

vt 0.401611 0.442871

vt 0.390137 0.446777

vt 0.401367 0.440918

vt 0.409668 0.251465

vt 0.397217 0.253906

vt 0.396484 0.251953

vt 0.409180 0.253418

vt 0.412842 0.446777

vt 0.401611 0.442871

vt 0.414063 0.445313

vt 0.401367 0.440918

vt 0.386230 0.259766

vt 0.396484 0.251953

vt 0.387939 0.261230

vt 0.397217 0.253906

vt 0.412842 0.446777

vt 0.421631 0.455566

vt 0.419922 0.456543

vt 0.414063 0.445313

vt 0.384521 0.272461

vt 0.386230 0.259766

vt 0.387939 0.261230

vt 0.382568 0.272461

vt 0.421631 0.455566

vt 0.421631 0.468750

vt 0.419922 0.456543

vt 0.419922 0.468262

vt 0.486572 0.366699

vt 0.499023 0.379395

vt 0.486572 0.379395

vt 0.499023 0.366699

vt 0.486572 0.354004

vt 0.499023 0.354004

vt 0.499023 0.341309

vt 0.486572 0.341309

vt 0.486572 0.328125

vt 0.499023 0.328125

vt 0.499023 0.315430

vt 0.486572 0.315430

vt 0.499023 0.302734

vt 0.486572 0.302734

vt 0.499023 0.290039

vt 0.486572 0.290039

vt 0.499023 0.277344

vt 0.486572 0.277344

vt 0.499023 0.264648

vt 0.486572 0.264648

vt 0.486572 0.251465

vt 0.499023 0.251465

vt 0.387939 0.261230

vt 0.403809 0.271973

vt 0.384521 0.272461

vt 0.397217 0.253906

vt 0.388672 0.283691

vt 0.409180 0.253418

vt 0.398682 0.290527

vt 0.418945 0.259766

vt 0.410400 0.290039

vt 0.423096 0.270996

vt 0.419922 0.282715

vt 0.401611 0.481445

vt 0.390137 0.478027

vt 0.401611 0.462402

vt 0.412842 0.478027

vt 0.383301 0.468262

vt 0.419922 0.468262

vt 0.383301 0.456543

vt 0.419922 0.456543

vt 0.390137 0.446777

vt 0.412842 0.446777

vt 0.401611 0.442871



vn -0.435294 0.898039 -0.003922

vn -0.756863 0.364706 -0.552941

vn -0.937255 0.364706 -0.003922

vn -0.349020 0.898039 -0.254902

vn -0.349020 -0.905882 -0.254902

vn -0.435294 -0.905882 -0.003922

vn -0.756863 -0.372549 -0.552941

vn -0.937255 -0.372549 -0.003922

vn -0.294118 0.364706 -0.890196

vn -0.349020 0.898039 -0.254902

vn -0.137255 0.898039 -0.411765

vn -0.756863 0.364706 -0.552941

vn -0.349020 -0.905882 -0.254902

vn -0.294118 -0.372549 -0.890196

vn -0.137255 -0.905882 -0.411765

vn -0.756863 -0.372549 -0.552941

vn -0.294118 0.364706 -0.890196

vn 0.129412 0.898039 -0.411765

vn 0.286275 0.364706 -0.890196

vn -0.137255 0.898039 -0.411765

vn -0.294118 -0.372549 -0.890196

vn 0.129412 -0.905882 -0.411765

vn -0.137255 -0.905882 -0.411765

vn 0.286275 -0.372549 -0.890196

vn 0.341177 0.898039 -0.254902

vn 0.286275 0.364706 -0.890196

vn 0.129412 0.898039 -0.411765

vn 0.749020 0.364706 -0.552941

vn 0.286275 -0.372549 -0.890196

vn 0.341177 -0.905882 -0.254902

vn 0.129412 -0.905882 -0.411765

vn 0.749020 -0.372549 -0.552941

vn 0.341177 0.898039 -0.254902

vn 0.427451 0.898039 -0.003922

vn 0.749020 0.364706 -0.552941

vn 0.929412 0.364706 -0.003922

vn 0.427451 -0.905882 -0.003922

vn 0.749020 -0.372549 -0.552941

vn 0.929412 -0.372549 -0.003922

vn 0.341177 -0.905882 -0.254902

vn 0.749020 0.364706 0.545098

vn 0.427451 0.898039 -0.003922

vn 0.341177 0.898039 0.247059

vn 0.929412 0.364706 -0.003922

vn 0.341177 -0.905882 0.247059

vn 0.929412 -0.372549 -0.003922

vn 0.749020 -0.372549 0.545098

vn 0.427451 -0.905882 -0.003922

vn 0.341177 0.898039 0.247059

vn 0.286275 0.364706 0.882353

vn 0.749020 0.364706 0.545098

vn 0.129412 0.898039 0.403922

vn 0.749020 -0.372549 0.545098

vn 0.129412 -0.905882 0.403922

vn 0.341177 -0.905882 0.247059

vn 0.286275 -0.372549 0.882353

vn 0.286275 0.364706 0.882353

vn -0.137255 0.898039 0.403922

vn -0.294118 0.364706 0.882353

vn 0.129412 0.898039 0.403922

vn -0.137255 -0.905882 0.403922

vn 0.129412 -0.905882 0.403922

vn -0.294118 -0.372549 0.882353

vn 0.286275 -0.372549 0.882353

vn -0.756863 0.364706 0.545098

vn -0.294118 0.364706 0.882353

vn -0.349020 0.898039 0.247059

vn -0.137255 0.898039 0.403922

vn -0.137255 -0.905882 0.403922

vn -0.756863 -0.372549 0.545098

vn -0.349020 -0.905882 0.247059

vn -0.294118 -0.372549 0.882353

vn -0.435294 0.898039 -0.003922

vn -0.756863 0.364706 0.545098

vn -0.349020 0.898039 0.247059

vn -0.937255 0.364706 -0.003922

vn -0.756863 -0.372549 0.545098

vn -0.937255 -0.372549 -0.003922

vn -0.349020 -0.905882 0.247059

vn -0.435294 -0.905882 -0.003922

vn 0.929412 -0.372549 -0.003922

vn 0.749020 0.364706 0.545098

vn 0.749020 -0.372549 0.545098

vn 0.929412 0.364706 -0.003922

vn 0.749020 -0.372549 -0.552941

vn 0.749020 0.364706 -0.552941

vn 0.286275 0.364706 -0.890196

vn 0.286275 -0.372549 -0.890196

vn -0.294118 -0.372549 -0.890196

vn -0.294118 0.364706 -0.890196

vn -0.756863 0.364706 -0.552941

vn -0.756863 -0.372549 -0.552941

vn -0.937255 0.364706 -0.003922

vn -0.937255 -0.372549 -0.003922

vn -0.756863 0.364706 0.545098

vn -0.756863 -0.372549 0.545098

vn -0.294118 0.364706 0.882353

vn -0.294118 -0.372549 0.882353

vn 0.286275 0.364706 0.882353

vn 0.286275 -0.372549 0.882353

vn 0.749020 -0.372549 0.545098

vn 0.749020 0.364706 0.545098

vn -0.349020 0.898039 0.247059

vn -0.003922 1.000000 -0.003922

vn -0.435294 0.898039 -0.003922

vn -0.137255 0.898039 0.403922

vn -0.349020 0.898039 -0.254902

vn 0.129412 0.898039 0.403922

vn -0.137255 0.898039 -0.411765

vn 0.341177 0.898039 0.247059

vn 0.129412 0.898039 -0.411765

vn 0.427451 0.898039 -0.003922

vn 0.341177 0.898039 -0.254902

vn -0.137255 -0.905882 -0.411765

vn 0.129412 -0.905882 -0.411765

vn -0.003922 -1.000000 -0.003922

vn -0.349020 -0.905882 -0.254902

vn 0.341177 -0.905882 -0.254902

vn -0.435294 -0.905882 -0.003922

vn 0.427451 -0.905882 -0.003922

vn -0.349020 -0.905882 0.247059

vn 0.341177 -0.905882 0.247059

vn -0.137255 -0.905882 0.403922

vn 0.129412 -0.905882 0.403922

f 1/1/1 2/2/2 3/3/3

f 2/2/2 1/1/1 4/4/4

f 5/5/5 6/6/6 7/7/7

f 8/8/8 7/7/7 6/6/6

f 9/9/9 10/10/10 11/11/11

f 10/10/10 9/9/9 12/12/12

f 13/13/13 14/14/14 15/15/15

f 16/16/16 14/14/14 13/13/13

f 17/17/17 18/18/18 19/19/19

f 18/18/18 17/17/17 20/20/20

f 21/21/21 22/22/22 23/23/23

f 22/22/22 21/21/21 24/24/24

f 25/25/25 26/26/26 27/27/27

f 28/28/28 26/26/26 25/25/25

f 29/29/29 30/30/30 31/31/31

f 30/30/30 29/29/29 32/32/32

f 33/33/33 34/34/34 35/35/35

f 36/36/36 35/35/35 34/34/34

f 37/37/37 38/38/38 39/39/39

f 38/38/38 37/37/37 40/40/40

f 41/41/41 42/42/42 43/43/43

f 42/42/42 41/41/41 44/44/44

f 45/45/45 46/46/46 47/47/47

f 46/46/46 45/45/45 48/48/48

f 49/49/49 50/50/50 51/51/51

f 50/50/50 49/49/49 52/52/52

f 53/53/53 54/54/54 55/55/55

f 54/54/54 53/53/53 56/56/56

f 57/57/57 58/58/58 59/59/59

f 58/58/58 57/57/57 60/60/60

f 61/61/61 62/62/62 63/63/63

f 64/64/64 63/63/63 62/62/62

f 65/65/65 66/66/66 67/67/67

f 67/67/67 66/66/66 68/68/68

f 69/69/69 70/70/70 71/71/71

f 70/70/70 69/69/69 72/72/72

f 73/73/73 74/74/74 75/75/75

f 74/74/74 73/73/73 76/76/76

f 77/77/77 78/78/78 79/79/79

f 79/79/79 78/78/78 80/80/80

f 81/81/81 82/82/82 83/83/83

f 82/82/82 81/81/81 84/84/84

f 85/85/85 84/84/84 81/81/81

f 84/84/84 85/85/85 86/86/86

f 85/85/85 87/87/87 86/86/86

f 85/85/85 88/88/88 87/87/87

f 89/89/89 87/87/87 88/88/88

f 87/87/87 89/89/89 90/90/90

f 89/89/89 91/91/91 90/90/90

f 89/89/89 92/92/92 91/91/91

f 93/93/93 91/91/91 92/92/92

f 94/94/94 93/93/93 92/92/92

f 95/95/95 93/93/93 94/94/94

f 96/96/96 95/95/95 94/94/94

f 95/95/95 96/96/96 97/97/97

f 97/97/97 96/96/96 98/98/98

f 97/97/97 98/98/98 99/99/99

f 99/99/99 98/98/98 100/100/100

f 101/101/101 99/99/99 100/100/100

f 99/99/99 101/101/101 102/102/102

f 103/103/103 104/104/104 105/105/105

f 103/103/103 106/106/106 104/104/104

f 104/104/104 107/107/107 105/105/105

f 106/106/106 108/108/108 104/104/104

f 104/104/104 109/109/109 107/107/107

f 108/108/108 110/110/110 104/104/104

f 104/104/104 111/111/111 109/109/109

f 110/110/110 112/112/112 104/104/104

f 113/113/113 111/111/111 104/104/104

f 112/112/112 113/113/113 104/104/104

f 114/114/114 115/115/115 116/116/116

f 117/117/117 114/114/114 116/116/116

f 115/115/115 118/118/118 116/116/116

f 116/116/116 119/119/119 117/117/117

f 118/118/118 120/120/120 116/116/116

f 116/116/116 121/121/121 119/119/119

f 120/120/120 122/122/122 116/116/116

f 116/116/116 123/123/123 121/121/121

f 122/122/122 124/124/124 116/116/116

f 124/124/124 123/123/123 116/116/116

