# UnrealEd OBJ exporter (_Internal)



v 8.684265 0.116495 12.346497

v -8.684265 0.116495 12.346497

v 0.000000 0.116495 -14.380920

v -9.345337 2.150972 14.380981

v 9.345337 2.150972 14.380981

v 9.345337 20.589872 14.380981

v -9.345337 20.589872 14.380981

v -8.684265 22.624310 12.346497

v 8.684265 22.624310 12.346497

v 0.000000 22.624300 -14.381042

v 8.684265 22.624310 12.346497

v 0.000000 0.116495 -14.380920

v 0.000000 22.624300 -14.381042

v 8.684265 0.116495 12.346497

v 9.345337 2.150972 14.380981

v 9.345337 20.589872 14.380981

v -8.684265 22.624310 12.346497

v 0.000000 22.624300 -14.381042

v 0.000000 0.116495 -14.380920

v -8.684265 0.116495 12.346497

v -9.345337 2.150972 14.380981

v -9.345337 20.589872 14.380981



vt 0.438965 0.402832

vt 0.438965 0.414551

vt 0.420654 0.408691

vt 0.440918 0.415039

vt 0.440918 0.402344

vt 0.453613 0.402344

vt 0.453613 0.415039

vt 0.455566 0.414551

vt 0.455566 0.402832

vt 0.473877 0.408203

vt 0.454834 0.400879

vt 0.439453 0.381836

vt 0.454834 0.381348

vt 0.439453 0.400879

vt 0.440918 0.402344

vt 0.453613 0.402344

vt 0.455078 0.416504

vt 0.455078 0.435547

vt 0.439697 0.435547

vt 0.439697 0.416504

vt 0.440918 0.415039

vt 0.453613 0.415039



vn -0.003922 -0.898039 0.443137

vn -0.003922 -0.898039 0.443137

vn -0.003922 -1.000000 -0.003922

vn -0.003922 -0.356863 0.929412

vn -0.003922 -0.356863 0.929412

vn -0.003922 0.349020 0.929412

vn -0.003922 0.349020 0.929412

vn -0.003922 0.890196 0.443137

vn -0.003922 0.890196 0.443137

vn -0.003922 1.000000 -0.003922

vn 0.945098 -0.003922 -0.309804

vn 0.945098 -0.003922 -0.309804

vn 0.945098 -0.003922 -0.309804

vn 0.945098 -0.003922 -0.309804

vn 0.945098 -0.003922 -0.309804

vn 0.945098 -0.003922 -0.309804

vn -0.952941 -0.003922 -0.309804

vn -0.952941 -0.003922 -0.309804

vn -0.952941 -0.003922 -0.309804

vn -0.952941 -0.003922 -0.309804

vn -0.952941 -0.003922 -0.309804

vn -0.952941 -0.003922 -0.309804

f 1/1/1 2/2/2 3/3/3

f 2/2/2 1/1/1 4/4/4

f 5/5/5 4/4/4 1/1/1

f 6/6/6 4/4/4 5/5/5

f 6/6/6 7/7/7 4/4/4

f 7/7/7 6/6/6 8/8/8

f 9/9/9 8/8/8 6/6/6

f 8/8/8 9/9/9 10/10/10

f 11/11/11 12/12/12 13/13/13

f 12/12/12 11/11/11 14/14/14

f 11/11/11 15/15/15 14/14/14

f 15/15/15 11/11/11 16/16/16

f 17/17/17 18/18/18 19/19/19

f 20/20/20 17/17/17 19/19/19

f 21/21/21 17/17/17 20/20/20

f 17/17/17 21/21/21 22/22/22

