# UnrealEd OBJ exporter (_Internal)



v 17.250305 8.065125 -0.000000

v 17.250305 0.970524 -0.000000

v 13.955811 8.065119 -10.139465

v 13.955811 0.970524 -10.139465

v 5.330627 0.970524 -16.406128

v 13.955811 8.065119 -10.139465

v 13.955811 0.970524 -10.139465

v 5.330627 8.065123 -16.406067

v -5.330627 0.970524 -16.406128

v -5.330627 8.065123 -16.406067

v 5.330627 0.970524 -16.406128

v 5.330627 8.065123 -16.406067

v -13.955811 0.970524 -10.139465

v -13.955811 8.065119 -10.139465

v -5.330627 0.970524 -16.406128

v -5.330627 8.065123 -16.406067

v -17.250305 0.970524 -0.000000

v -13.955811 8.065119 -10.139465

v -13.955811 0.970524 -10.139465

v -17.250305 8.065125 -0.000000

v -13.955811 0.970524 10.139465

v -17.250305 8.065125 -0.000000

v -17.250305 0.970524 -0.000000

v -13.955811 8.065130 10.139526

v -5.330627 8.065126 16.406067

v -13.955811 8.065130 10.139526

v -13.955811 0.970524 10.139465

v -5.330627 0.970524 16.406067

v 5.330627 8.065126 16.406067

v -5.330627 8.065126 16.406067

v -5.330627 0.970524 16.406067

v 5.330627 0.970524 16.406067

v 5.330627 8.065126 16.406067

v 13.955872 0.970524 10.139465

v 13.955872 8.065132 10.139526

v 5.330627 0.970524 16.406067

v 13.955872 8.065132 10.139526

v 13.955872 0.970524 10.139465

v 17.250305 8.065125 -0.000000

v 17.250305 0.970524 -0.000000

v 16.180725 -0.046719 -0.000000

v 13.955811 0.970524 -10.139465

v 17.250305 0.970524 -0.000000

v 13.090515 -0.046719 -9.510803

v 13.090515 9.082370 -9.510864

v 16.180725 9.082367 -0.000000

v 13.955811 8.065119 -10.139465

v 17.250305 8.065125 -0.000000

v 5.330627 0.970524 -16.406128

v 13.955811 0.970524 -10.139465

v 5.000183 -0.046719 -15.388855

v 13.090515 -0.046719 -9.510803

v 5.000183 9.082374 -15.388855

v 13.955811 8.065119 -10.139465

v 5.330627 8.065123 -16.406067

v 13.090515 9.082370 -9.510864

v 5.330627 0.970524 -16.406128

v -5.000183 -0.046719 -15.388855

v -5.330627 0.970524 -16.406128

v 5.000183 -0.046719 -15.388855

v -5.000183 9.082374 -15.388855

v 5.000183 9.082374 -15.388855

v -5.330627 8.065123 -16.406067

v 5.330627 8.065123 -16.406067

v -5.000183 -0.046719 -15.388855

v -13.955811 0.970524 -10.139465

v -5.330627 0.970524 -16.406128

v -13.090515 -0.046719 -9.510864

v -5.330627 8.065123 -16.406067

v -13.090515 9.082369 -9.510925

v -5.000183 9.082374 -15.388855

v -13.955811 8.065119 -10.139465

v -13.090515 -0.046719 -9.510864

v -16.180786 -0.046719 -0.000000

v -13.955811 0.970524 -10.139465

v -17.250305 0.970524 -0.000000

v -16.180786 9.082367 -0.000000

v -13.955811 8.065119 -10.139465

v -17.250305 8.065125 -0.000000

v -13.090515 9.082369 -9.510925

v -13.955811 0.970524 10.139465

v -16.180786 -0.046719 -0.000000

v -13.090515 -0.046719 9.510803

v -17.250305 0.970524 -0.000000

v -13.090515 9.082364 9.510742

v -17.250305 8.065125 -0.000000

v -13.955811 8.065130 10.139526

v -16.180786 9.082367 -0.000000

v -5.000183 -0.046719 15.388855

v -13.955811 0.970524 10.139465

v -13.090515 -0.046719 9.510803

v -5.330627 0.970524 16.406067

v -13.955811 8.065130 10.139526

v -5.000183 9.082360 15.388733

v -13.090515 9.082364 9.510742

v -5.330627 8.065126 16.406067

v -5.000183 -0.046719 15.388855

v 5.000183 -0.046719 15.388855

v -5.330627 0.970524 16.406067

v 5.330627 0.970524 16.406067

v 5.000183 9.082360 15.388733

v -5.000183 9.082360 15.388733

v 5.330627 8.065126 16.406067

v -5.330627 8.065126 16.406067

v 13.955872 0.970524 10.139465

v 5.330627 0.970524 16.406067

v 13.090515 -0.046719 9.510864

v 5.000183 -0.046719 15.388855

v 5.000183 9.082360 15.388733

v 13.955872 8.065132 10.139526

v 13.090515 9.082365 9.510803

v 5.330627 8.065126 16.406067

v 16.180725 -0.046719 -0.000000

v 13.955872 0.970524 10.139465

v 13.090515 -0.046719 9.510864

v 17.250305 0.970524 -0.000000

v 13.955872 8.065132 10.139526

v 17.250305 8.065125 -0.000000

v 13.090515 9.082365 9.510803

v 16.180725 9.082367 -0.000000

v -13.090515 9.082369 -9.510925

v -16.180786 9.082367 -0.000000

v -13.090515 9.082364 9.510742

v -5.000183 9.082374 -15.388855

v -5.000183 9.082360 15.388733

v 5.000183 9.082374 -15.388855

v 5.000183 9.082360 15.388733

v 13.090515 9.082370 -9.510864

v 13.090515 9.082365 9.510803

v 16.180725 9.082367 -0.000000

v 13.090515 -0.046719 9.510864

v 13.090515 -0.046719 -9.510803

v 16.180725 -0.046719 -0.000000

v 5.000183 -0.046719 15.388855

v 5.000183 -0.046719 -15.388855

v -5.000183 -0.046719 -15.388855

v -5.000183 -0.046719 15.388855

v -13.090515 -0.046719 9.510803

v -13.090515 -0.046719 -9.510864

v -16.180786 -0.046719 -0.000000



vt 0.480225 0.440918

vt 0.483154 0.444824

vt 0.473145 0.443359

vt 0.473145 0.448242

vt 0.463135 0.444824

vt 0.473145 0.443359

vt 0.473145 0.448242

vt 0.466064 0.440918

vt 0.457031 0.436523

vt 0.461426 0.435059

vt 0.463135 0.444824

vt 0.466064 0.440918

vt 0.457031 0.425781

vt 0.461670 0.427246

vt 0.457031 0.436523

vt 0.461426 0.435059

vt 0.463379 0.417480

vt 0.461670 0.427246

vt 0.457031 0.425781

vt 0.466064 0.421387

vt 0.473145 0.414063

vt 0.466064 0.421387

vt 0.463379 0.417480

vt 0.473145 0.418945

vt 0.480469 0.421387

vt 0.473145 0.418945

vt 0.473145 0.414063

vt 0.483154 0.417480

vt 0.484863 0.427246

vt 0.480469 0.421387

vt 0.483154 0.417480

vt 0.489258 0.425781

vt 0.484863 0.427246

vt 0.489258 0.436523

vt 0.484863 0.435059

vt 0.489258 0.425781

vt 0.484863 0.435059

vt 0.489258 0.436523

vt 0.480225 0.440918

vt 0.483154 0.444824

vt 0.416748 0.427246

vt 0.419678 0.433105

vt 0.416016 0.427246

vt 0.420410 0.432129

vt 0.473145 0.442871

vt 0.479980 0.440430

vt 0.473145 0.443359

vt 0.480225 0.440918

vt 0.426025 0.435059

vt 0.419678 0.433105

vt 0.426025 0.434082

vt 0.420410 0.432129

vt 0.466309 0.440430

vt 0.473145 0.443359

vt 0.466064 0.440918

vt 0.473145 0.442871

vt 0.426025 0.435059

vt 0.431885 0.432129

vt 0.432617 0.433105

vt 0.426025 0.434082

vt 0.462158 0.434570

vt 0.466309 0.440430

vt 0.461426 0.435059

vt 0.466064 0.440918

vt 0.431885 0.432129

vt 0.436523 0.427734

vt 0.432617 0.433105

vt 0.435791 0.427246

vt 0.461426 0.435059

vt 0.462158 0.427246

vt 0.462158 0.434570

vt 0.461670 0.427246

vt 0.435791 0.427246

vt 0.435791 0.421387

vt 0.436523 0.427734

vt 0.436523 0.420898

vt 0.466309 0.421875

vt 0.461670 0.427246

vt 0.466064 0.421387

vt 0.462158 0.427246

vt 0.432861 0.415527

vt 0.435791 0.421387

vt 0.432129 0.416504

vt 0.436523 0.420898

vt 0.473145 0.419434

vt 0.466064 0.421387

vt 0.473145 0.418945

vt 0.466309 0.421875

vt 0.426514 0.414063

vt 0.432861 0.415527

vt 0.432129 0.416504

vt 0.426514 0.413574

vt 0.473145 0.418945

vt 0.479980 0.421875

vt 0.473145 0.419434

vt 0.480469 0.421387

vt 0.426514 0.414063

vt 0.420654 0.416016

vt 0.426514 0.413574

vt 0.420166 0.415527

vt 0.484375 0.427734

vt 0.479980 0.421875

vt 0.484863 0.427246

vt 0.480469 0.421387

vt 0.416016 0.420898

vt 0.420166 0.415527

vt 0.416992 0.420898

vt 0.420654 0.416016

vt 0.484375 0.427734

vt 0.484863 0.435059

vt 0.484375 0.434570

vt 0.484863 0.427246

vt 0.416748 0.427246

vt 0.416016 0.420898

vt 0.416992 0.420898

vt 0.416016 0.427246

vt 0.484863 0.435059

vt 0.480225 0.440918

vt 0.484375 0.434570

vt 0.479980 0.440430

vt 0.462158 0.427246

vt 0.466309 0.421875

vt 0.473145 0.419434

vt 0.462158 0.434570

vt 0.479980 0.421875

vt 0.466309 0.440430

vt 0.484375 0.427734

vt 0.473145 0.442871

vt 0.484375 0.434570

vt 0.479980 0.440430

vt 0.416992 0.420898

vt 0.420410 0.432129

vt 0.416748 0.427246

vt 0.420654 0.416016

vt 0.426025 0.434082

vt 0.431885 0.432129

vt 0.426514 0.414063

vt 0.432129 0.416504

vt 0.435791 0.427246

vt 0.435791 0.421387



vn 0.929412 0.364706 -0.003922

vn 0.929412 -0.372549 -0.003922

vn 0.749020 0.364706 -0.552941

vn 0.749020 -0.372549 -0.552941

vn 0.286275 -0.372549 -0.890196

vn 0.749020 0.364706 -0.552941

vn 0.749020 -0.372549 -0.552941

vn 0.286275 0.364706 -0.890196

vn -0.294118 -0.372549 -0.890196

vn -0.294118 0.364706 -0.890196

vn 0.286275 -0.372549 -0.890196

vn 0.286275 0.364706 -0.890196

vn -0.756863 -0.372549 -0.552941

vn -0.756863 0.364706 -0.552941

vn -0.294118 -0.372549 -0.890196

vn -0.294118 0.364706 -0.890196

vn -0.937255 -0.372549 -0.003922

vn -0.756863 0.364706 -0.552941

vn -0.756863 -0.372549 -0.552941

vn -0.937255 0.364706 -0.003922

vn -0.756863 -0.372549 0.545098

vn -0.937255 0.364706 -0.003922

vn -0.937255 -0.372549 -0.003922

vn -0.756863 0.364706 0.545098

vn -0.294118 0.364706 0.882353

vn -0.756863 0.364706 0.545098

vn -0.756863 -0.372549 0.545098

vn -0.294118 -0.372549 0.882353

vn 0.286275 0.364706 0.882353

vn -0.294118 0.364706 0.882353

vn -0.294118 -0.372549 0.882353

vn 0.286275 -0.372549 0.882353

vn 0.286275 0.364706 0.882353

vn 0.749020 -0.372549 0.545098

vn 0.749020 0.364706 0.545098

vn 0.286275 -0.372549 0.882353

vn 0.749020 0.364706 0.545098

vn 0.749020 -0.372549 0.545098

vn 0.929412 0.364706 -0.003922

vn 0.929412 -0.372549 -0.003922

vn 0.427451 -0.905882 -0.003922

vn 0.749020 -0.372549 -0.552941

vn 0.929412 -0.372549 -0.003922

vn 0.341177 -0.905882 -0.254902

vn 0.341177 0.898039 -0.254902

vn 0.427451 0.898039 -0.003922

vn 0.749020 0.364706 -0.552941

vn 0.929412 0.364706 -0.003922

vn 0.286275 -0.372549 -0.890196

vn 0.749020 -0.372549 -0.552941

vn 0.129412 -0.905882 -0.411765

vn 0.341177 -0.905882 -0.254902

vn 0.129412 0.898039 -0.411765

vn 0.749020 0.364706 -0.552941

vn 0.286275 0.364706 -0.890196

vn 0.341177 0.898039 -0.254902

vn 0.286275 -0.372549 -0.890196

vn -0.137255 -0.905882 -0.411765

vn -0.294118 -0.372549 -0.890196

vn 0.129412 -0.905882 -0.411765

vn -0.137255 0.898039 -0.411765

vn 0.129412 0.898039 -0.411765

vn -0.294118 0.364706 -0.890196

vn 0.286275 0.364706 -0.890196

vn -0.137255 -0.905882 -0.411765

vn -0.756863 -0.372549 -0.552941

vn -0.294118 -0.372549 -0.890196

vn -0.349020 -0.905882 -0.254902

vn -0.294118 0.364706 -0.890196

vn -0.349020 0.898039 -0.254902

vn -0.137255 0.898039 -0.411765

vn -0.756863 0.364706 -0.552941

vn -0.349020 -0.905882 -0.254902

vn -0.435294 -0.905882 -0.003922

vn -0.756863 -0.372549 -0.552941

vn -0.937255 -0.372549 -0.003922

vn -0.435294 0.898039 -0.003922

vn -0.756863 0.364706 -0.552941

vn -0.937255 0.364706 -0.003922

vn -0.349020 0.898039 -0.254902

vn -0.756863 -0.372549 0.545098

vn -0.435294 -0.905882 -0.003922

vn -0.349020 -0.905882 0.247059

vn -0.937255 -0.372549 -0.003922

vn -0.349020 0.898039 0.247059

vn -0.937255 0.364706 -0.003922

vn -0.756863 0.364706 0.545098

vn -0.435294 0.898039 -0.003922

vn -0.137255 -0.905882 0.403922

vn -0.756863 -0.372549 0.545098

vn -0.349020 -0.905882 0.247059

vn -0.294118 -0.372549 0.882353

vn -0.756863 0.364706 0.545098

vn -0.137255 0.898039 0.403922

vn -0.349020 0.898039 0.247059

vn -0.294118 0.364706 0.882353

vn -0.137255 -0.905882 0.403922

vn 0.129412 -0.905882 0.403922

vn -0.294118 -0.372549 0.882353

vn 0.286275 -0.372549 0.882353

vn 0.129412 0.898039 0.403922

vn -0.137255 0.898039 0.403922

vn 0.286275 0.364706 0.882353

vn -0.294118 0.364706 0.882353

vn 0.749020 -0.372549 0.545098

vn 0.286275 -0.372549 0.882353

vn 0.341177 -0.905882 0.247059

vn 0.129412 -0.905882 0.403922

vn 0.129412 0.898039 0.403922

vn 0.749020 0.364706 0.545098

vn 0.341177 0.898039 0.247059

vn 0.286275 0.364706 0.882353

vn 0.427451 -0.905882 -0.003922

vn 0.749020 -0.372549 0.545098

vn 0.341177 -0.905882 0.247059

vn 0.929412 -0.372549 -0.003922

vn 0.749020 0.364706 0.545098

vn 0.929412 0.364706 -0.003922

vn 0.341177 0.898039 0.247059

vn 0.427451 0.898039 -0.003922

vn -0.349020 0.898039 -0.254902

vn -0.435294 0.898039 -0.003922

vn -0.349020 0.898039 0.247059

vn -0.137255 0.898039 -0.411765

vn -0.137255 0.898039 0.403922

vn 0.129412 0.898039 -0.411765

vn 0.129412 0.898039 0.403922

vn 0.341177 0.898039 -0.254902

vn 0.341177 0.898039 0.247059

vn 0.427451 0.898039 -0.003922

vn 0.341177 -0.905882 0.247059

vn 0.341177 -0.905882 -0.254902

vn 0.427451 -0.905882 -0.003922

vn 0.129412 -0.905882 0.403922

vn 0.129412 -0.905882 -0.411765

vn -0.137255 -0.905882 -0.411765

vn -0.137255 -0.905882 0.403922

vn -0.349020 -0.905882 0.247059

vn -0.349020 -0.905882 -0.254902

vn -0.435294 -0.905882 -0.003922

f 1/1/1 2/2/2 3/3/3

f 2/2/2 4/4/4 3/3/3

f 5/5/5 6/6/6 7/7/7

f 6/6/6 5/5/5 8/8/8

f 9/9/9 10/10/10 11/11/11

f 11/11/11 10/10/10 12/12/12

f 13/13/13 14/14/14 15/15/15

f 15/15/15 14/14/14 16/16/16

f 17/17/17 18/18/18 19/19/19

f 18/18/18 17/17/17 20/20/20

f 21/21/21 22/22/22 23/23/23

f 22/22/22 21/21/21 24/24/24

f 25/25/25 26/26/26 27/27/27

f 25/25/25 27/27/27 28/28/28

f 29/29/29 30/30/30 31/31/31

f 29/29/29 31/31/31 32/32/32

f 33/33/33 34/34/34 35/35/35

f 34/34/34 33/33/33 36/36/36

f 37/37/37 38/38/38 39/39/39

f 38/38/38 40/40/40 39/39/39

f 41/41/41 42/42/42 43/43/43

f 42/42/42 41/41/41 44/44/44

f 45/45/45 46/46/46 47/47/47

f 48/48/48 47/47/47 46/46/46

f 49/49/49 50/50/50 51/51/51

f 50/50/50 52/52/52 51/51/51

f 53/53/53 54/54/54 55/55/55

f 54/54/54 53/53/53 56/56/56

f 57/57/57 58/58/58 59/59/59

f 58/58/58 57/57/57 60/60/60

f 61/61/61 62/62/62 63/63/63

f 64/64/64 63/63/63 62/62/62

f 65/65/65 66/66/66 67/67/67

f 66/66/66 65/65/65 68/68/68

f 69/69/69 70/70/70 71/71/71

f 70/70/70 69/69/69 72/72/72

f 73/73/73 74/74/74 75/75/75

f 76/76/76 75/75/75 74/74/74

f 77/77/77 78/78/78 79/79/79

f 78/78/78 77/77/77 80/80/80

f 81/81/81 82/82/82 83/83/83

f 82/82/82 81/81/81 84/84/84

f 85/85/85 86/86/86 87/87/87

f 86/86/86 85/85/85 88/88/88

f 89/89/89 90/90/90 91/91/91

f 90/90/90 89/89/89 92/92/92

f 93/93/93 94/94/94 95/95/95

f 94/94/94 93/93/93 96/96/96

f 97/97/97 98/98/98 99/99/99

f 100/100/100 99/99/99 98/98/98

f 101/101/101 102/102/102 103/103/103

f 104/104/104 103/103/103 102/102/102

f 105/105/105 106/106/106 107/107/107

f 107/107/107 106/106/106 108/108/108

f 109/109/109 110/110/110 111/111/111

f 110/110/110 109/109/109 112/112/112

f 113/113/113 114/114/114 115/115/115

f 114/114/114 113/113/113 116/116/116

f 117/117/117 118/118/118 119/119/119

f 119/119/119 118/118/118 120/120/120

f 121/121/121 122/122/122 123/123/123

f 123/123/123 124/124/124 121/121/121

f 125/125/125 124/124/124 123/123/123

f 125/125/125 126/126/126 124/124/124

f 127/127/127 126/126/126 125/125/125

f 127/127/127 128/128/128 126/126/126

f 129/129/129 128/128/128 127/127/127

f 130/130/130 128/128/128 129/129/129

f 131/131/131 132/132/132 133/133/133

f 134/134/134 132/132/132 131/131/131

f 132/132/132 134/134/134 135/135/135

f 134/134/134 136/136/136 135/135/135

f 137/137/137 136/136/136 134/134/134

f 138/138/138 136/136/136 137/137/137

f 136/136/136 138/138/138 139/139/139

f 138/138/138 140/140/140 139/139/139

