# UnrealEd OBJ exporter (_Internal)



v 6.501343 -1.763050 -43.933792

v 4.295166 -1.763049 -24.859894

v -4.295166 -1.763049 -24.859894

v -4.295166 -1.763049 -24.859894

v -6.501343 -1.763050 -43.933792

v 6.501343 -1.763050 -43.933792

v -6.501343 1.763050 -43.933853

v -4.295166 1.763049 -24.859955

v 4.295166 1.763049 -24.859955

v 4.295166 1.763049 -24.859955

v 6.501343 1.763050 -43.933853

v -6.501343 1.763050 -43.933853

v 5.861694 1.763049 -15.019104

v -5.861694 1.763049 -15.019104

v -5.861694 -1.763049 -15.019104

v 5.861694 1.763049 -15.019104

v -5.861694 -1.763049 -15.019104

v 5.861694 -1.763049 -15.019104

v 4.295166 1.763049 -24.859955

v 6.501343 -1.763050 -43.933792

v 6.501343 1.763050 -43.933853

v 6.501343 -1.763050 -43.933792

v 4.295166 1.763049 -24.859955

v 4.295166 -1.763049 -24.859894

v -1.851929 -1.763050 -54.848297

v -1.851929 1.763050 -54.848343

v 1.851929 -1.763050 -54.848297

v 1.851929 -1.763050 -54.848297

v -1.851929 1.763050 -54.848343

v 1.851929 1.763050 -54.848343

v -4.295166 1.763049 -24.859955

v -6.501343 -1.763050 -43.933792

v -4.295166 -1.763049 -24.859894

v -6.501343 -1.763050 -43.933792

v -4.295166 1.763049 -24.859955

v -6.501343 1.763050 -43.933853

v 6.501343 -1.763050 -43.933792

v -6.501343 -1.763050 -43.933792

v 5.573669 -1.763050 -51.552277

v -6.501343 -1.763050 -43.933792

v -5.573669 -1.763050 -51.552277

v 5.573669 -1.763050 -51.552277

v -5.861694 -1.763049 -15.019104

v 4.295166 -1.763049 -24.859894

v 5.861694 -1.763049 -15.019104

v 4.295166 -1.763049 -24.859894

v -5.861694 -1.763049 -15.019104

v -4.295166 -1.763049 -24.859894

v -6.501343 1.763050 -43.933853

v 6.501343 1.763050 -43.933853

v -5.573669 1.763050 -51.552338

v 6.501343 1.763050 -43.933853

v 5.573669 1.763050 -51.552338

v -5.573669 1.763050 -51.552338

v 5.861694 1.763049 -15.019104

v -4.295166 1.763049 -24.859955

v -5.861694 1.763049 -15.019104

v -4.295166 1.763049 -24.859955

v 5.861694 1.763049 -15.019104

v 4.295166 1.763049 -24.859955

v 6.501343 1.763050 -43.933853

v 5.573669 -1.763050 -51.552277

v 5.573669 1.763050 -51.552338

v 5.573669 -1.763050 -51.552277

v 6.501343 1.763050 -43.933853

v 6.501343 -1.763050 -43.933792

v 5.861694 1.763049 -15.019104

v 4.295166 -1.763049 -24.859894

v 4.295166 1.763049 -24.859955

v 4.295166 -1.763049 -24.859894

v 5.861694 1.763049 -15.019104

v 5.861694 -1.763049 -15.019104

v -5.861694 1.763049 -15.019104

v -4.295166 -1.763049 -24.859894

v -5.861694 -1.763049 -15.019104

v -4.295166 -1.763049 -24.859894

v -5.861694 1.763049 -15.019104

v -4.295166 1.763049 -24.859955

v -5.573669 -1.763050 -51.552277

v -6.501343 -1.763050 -43.933792

v -6.501343 1.763050 -43.933853

v -6.501343 1.763050 -43.933853

v -5.573669 1.763050 -51.552338

v -5.573669 -1.763050 -51.552277

v 1.851929 -1.763050 -54.848297

v 1.851929 1.763050 -54.848343

v 5.573669 -1.763050 -51.552277

v 5.573669 -1.763050 -51.552277

v 1.851929 1.763050 -54.848343

v 5.573669 1.763050 -51.552338

v -5.573669 -1.763050 -51.552277

v -5.573669 1.763050 -51.552338

v -1.851929 -1.763050 -54.848297

v -1.851929 -1.763050 -54.848297

v -5.573669 1.763050 -51.552338

v -1.851929 1.763050 -54.848343

v -1.851929 1.763050 -54.848343

v 5.573669 1.763050 -51.552338

v 1.851929 1.763050 -54.848343

v -5.573669 1.763050 -51.552338

v 5.573669 1.763050 -51.552338

v -1.851929 1.763050 -54.848343

v 1.851929 -1.763050 -54.848297

v -5.573669 -1.763050 -51.552277

v -1.851929 -1.763050 -54.848297

v 5.573669 -1.763050 -51.552277

v -5.573669 -1.763050 -51.552277

v 1.851929 -1.763050 -54.848297

v 27.949646 1.763050 54.848297

v -27.949646 1.763050 54.848297

v -27.949646 -1.763050 54.848343

v 27.949646 1.763050 54.848297

v -27.949646 -1.763050 54.848343

v 27.949646 -1.763050 54.848343

v 27.949646 -1.763049 -16.282410

v -27.949646 -1.763049 -16.282410

v -27.949646 1.763049 -16.282410

v 27.949646 -1.763049 -16.282410

v -27.949646 1.763049 -16.282410

v 27.949646 1.763049 -16.282410

v 27.949646 -1.763050 54.848343

v -27.949646 -1.763050 54.848343

v 27.949646 -1.763049 -16.282410

v -27.949646 -1.763049 -16.282410

v 27.949646 1.763050 54.848297

v 27.949646 1.763049 -16.282410

v -27.949646 1.763050 54.848297

v -27.949646 1.763049 -16.282410

v 27.949646 1.763050 54.848297

v 27.949646 -1.763049 -16.282410

v 27.949646 1.763049 -16.282410

v 27.949646 -1.763050 54.848343

v -27.949646 1.763050 54.848297

v -27.949646 -1.763049 -16.282410

v -27.949646 -1.763050 54.848343

v -27.949646 1.763049 -16.282410



vt 0.589355 0.467285

vt 0.579590 0.464844

vt 0.579590 0.460449

vt 0.579590 0.460449

vt 0.589355 0.460938

vt 0.589355 0.467285

vt 0.589355 0.459473

vt 0.579590 0.458496

vt 0.579590 0.454102

vt 0.579590 0.454102

vt 0.589355 0.453125

vt 0.589355 0.459473

vt 0.575195 0.453613

vt 0.575195 0.458984

vt 0.574219 0.459961

vt 0.575195 0.453613

vt 0.574219 0.459961

vt 0.574219 0.453125

vt 0.579590 0.454102

vt 0.589844 0.451172

vt 0.589355 0.453125

vt 0.589844 0.451172

vt 0.579590 0.454102

vt 0.579590 0.452148

vt 0.595703 0.458008

vt 0.594238 0.457520

vt 0.595703 0.455566

vt 0.595703 0.455566

vt 0.594238 0.457520

vt 0.594238 0.455566

vt 0.579590 0.458496

vt 0.589355 0.460938

vt 0.579590 0.460449

vt 0.589355 0.460938

vt 0.579590 0.458496

vt 0.589355 0.459473

vt 0.589355 0.467285

vt 0.589355 0.460938

vt 0.593262 0.466309

vt 0.589355 0.460938

vt 0.593262 0.460938

vt 0.593262 0.466309

vt 0.574219 0.459961

vt 0.579590 0.464844

vt 0.574219 0.465820

vt 0.579590 0.464844

vt 0.574219 0.459961

vt 0.579590 0.460449

vt 0.589355 0.459473

vt 0.589355 0.453125

vt 0.592773 0.458984

vt 0.589355 0.453125

vt 0.592773 0.453613

vt 0.592773 0.458984

vt 0.575195 0.453613

vt 0.579590 0.458496

vt 0.575195 0.458984

vt 0.579590 0.458496

vt 0.575195 0.453613

vt 0.579590 0.454102

vt 0.589355 0.453125

vt 0.593750 0.452637

vt 0.592773 0.453613

vt 0.593750 0.452637

vt 0.589355 0.453125

vt 0.589844 0.451172

vt 0.575195 0.453613

vt 0.579590 0.452148

vt 0.579590 0.454102

vt 0.579590 0.452148

vt 0.575195 0.453613

vt 0.574219 0.453125

vt 0.575195 0.458984

vt 0.579590 0.460449

vt 0.574219 0.459961

vt 0.579590 0.460449

vt 0.575195 0.458984

vt 0.579590 0.458496

vt 0.593262 0.460938

vt 0.589355 0.460938

vt 0.589355 0.459473

vt 0.589355 0.459473

vt 0.592773 0.458984

vt 0.593262 0.460938

vt 0.595703 0.455566

vt 0.594238 0.455566

vt 0.593750 0.452637

vt 0.593750 0.452637

vt 0.594238 0.455566

vt 0.592773 0.453613

vt 0.593262 0.460938

vt 0.592773 0.458984

vt 0.595703 0.458008

vt 0.595703 0.458008

vt 0.592773 0.458984

vt 0.594238 0.457520

vt 0.594238 0.457520

vt 0.592773 0.453613

vt 0.594238 0.455566

vt 0.592773 0.458984

vt 0.592773 0.453613

vt 0.594238 0.457520

vt 0.595215 0.464355

vt 0.593262 0.460938

vt 0.595215 0.462891

vt 0.593262 0.466309

vt 0.593262 0.460938

vt 0.595215 0.464355

vt 0.744629 0.276367

vt 0.744629 0.252930

vt 0.745605 0.252441

vt 0.744629 0.276367

vt 0.745605 0.252441

vt 0.745605 0.276855

vt 0.714355 0.276855

vt 0.714355 0.252441

vt 0.714844 0.252930

vt 0.714355 0.276855

vt 0.714844 0.252930

vt 0.714844 0.276367

vt 0.745605 0.276855

vt 0.745605 0.301758

vt 0.714355 0.276855

vt 0.714355 0.301758

vt 0.744629 0.276367

vt 0.714844 0.276367

vt 0.744629 0.252930

vt 0.714844 0.252930

vt 0.744629 0.276367

vt 0.714355 0.276855

vt 0.714844 0.276367

vt 0.745605 0.276855

vt 0.744629 0.252930

vt 0.714355 0.252441

vt 0.745605 0.252441

vt 0.714844 0.252930



vn -0.003922 -1.000000 -0.003922

vn -0.003922 -1.000000 -0.003922

vn -0.003922 -1.000000 -0.003922

vn -0.003922 -1.000000 -0.003922

vn -0.003922 -1.000000 -0.003922

vn -0.003922 -1.000000 -0.003922

vn -0.003922 1.000000 -0.003922

vn -0.003922 1.000000 -0.003922

vn -0.003922 1.000000 -0.003922

vn -0.003922 1.000000 -0.003922

vn -0.003922 1.000000 -0.003922

vn -0.003922 1.000000 -0.003922

vn -0.003922 -0.003922 1.000000

vn -0.003922 -0.003922 1.000000

vn -0.003922 -0.003922 1.000000

vn -0.003922 -0.003922 1.000000

vn -0.003922 -0.003922 1.000000

vn -0.003922 -0.003922 1.000000

vn 0.992157 -0.003922 -0.027451

vn 0.992157 -0.003922 -0.003922

vn 0.992157 -0.003922 -0.003922

vn 0.992157 -0.003922 -0.003922

vn 0.992157 -0.003922 -0.027451

vn 0.992157 -0.003922 -0.027451

vn -0.003922 -0.003922 -1.000000

vn -0.003922 -0.003922 -1.000000

vn -0.003922 -0.003922 -1.000000

vn -0.003922 -0.003922 -1.000000

vn -0.003922 -0.003922 -1.000000

vn -0.003922 -0.003922 -1.000000

vn -1.000000 -0.003922 -0.027451

vn -1.000000 -0.003922 -0.003922

vn -1.000000 -0.003922 -0.027451

vn -1.000000 -0.003922 -0.003922

vn -1.000000 -0.003922 -0.027451

vn -1.000000 -0.003922 -0.003922

vn -0.003922 -1.000000 -0.003922

vn -0.003922 -1.000000 -0.003922

vn -0.003922 -1.000000 -0.003922

vn -0.003922 -1.000000 -0.003922

vn -0.003922 -1.000000 -0.003922

vn -0.003922 -1.000000 -0.003922

vn -0.003922 -1.000000 -0.003922

vn -0.003922 -1.000000 -0.003922

vn -0.003922 -1.000000 -0.003922

vn -0.003922 -1.000000 -0.003922

vn -0.003922 -1.000000 -0.003922

vn -0.003922 -1.000000 -0.003922

vn -0.003922 1.000000 -0.003922

vn -0.003922 1.000000 -0.003922

vn -0.003922 1.000000 -0.003922

vn -0.003922 1.000000 -0.003922

vn -0.003922 1.000000 -0.003922

vn -0.003922 1.000000 -0.003922

vn -0.003922 1.000000 -0.003922

vn -0.003922 1.000000 -0.003922

vn -0.003922 1.000000 -0.003922

vn -0.003922 1.000000 -0.003922

vn -0.003922 1.000000 -0.003922

vn -0.003922 1.000000 -0.003922

vn 0.992157 -0.003922 -0.003922

vn 0.992157 -0.003922 -0.121569

vn 0.992157 -0.003922 -0.121569

vn 0.992157 -0.003922 -0.121569

vn 0.992157 -0.003922 -0.003922

vn 0.992157 -0.003922 -0.003922

vn 0.984314 -0.003922 -0.160784

vn 0.992157 -0.003922 -0.027451

vn 0.992157 -0.003922 -0.027451

vn 0.992157 -0.003922 -0.027451

vn 0.984314 -0.003922 -0.160784

vn 0.984314 -0.003922 -0.160784

vn -0.992157 -0.003922 -0.160784

vn -1.000000 -0.003922 -0.027451

vn -0.992157 -0.003922 -0.160784

vn -1.000000 -0.003922 -0.027451

vn -0.992157 -0.003922 -0.160784

vn -1.000000 -0.003922 -0.027451

vn -1.000000 -0.003922 -0.121569

vn -1.000000 -0.003922 -0.003922

vn -1.000000 -0.003922 -0.003922

vn -1.000000 -0.003922 -0.003922

vn -1.000000 -0.003922 -0.121569

vn -1.000000 -0.003922 -0.121569

vn 0.662745 -0.003922 -0.749020

vn 0.662745 -0.003922 -0.749020

vn 0.662745 -0.003922 -0.749020

vn 0.662745 -0.003922 -0.749020

vn 0.662745 -0.003922 -0.749020

vn 0.662745 -0.003922 -0.749020

vn -0.670588 -0.003922 -0.749020

vn -0.670588 -0.003922 -0.749020

vn -0.670588 -0.003922 -0.749020

vn -0.670588 -0.003922 -0.749020

vn -0.670588 -0.003922 -0.749020

vn -0.670588 -0.003922 -0.749020

vn -0.003922 1.000000 -0.003922

vn -0.003922 1.000000 -0.003922

vn -0.003922 1.000000 -0.003922

vn -0.003922 1.000000 -0.003922

vn -0.003922 1.000000 -0.003922

vn -0.003922 1.000000 -0.003922

vn -0.003922 -1.000000 -0.003922

vn -0.003922 -1.000000 -0.003922

vn -0.003922 -1.000000 -0.003922

vn -0.003922 -1.000000 -0.003922

vn -0.003922 -1.000000 -0.003922

vn -0.003922 -1.000000 -0.003922

vn -0.003922 -0.003922 1.000000

vn -0.003922 -0.003922 1.000000

vn -0.003922 -0.003922 1.000000

vn -0.003922 -0.003922 1.000000

vn -0.003922 -0.003922 1.000000

vn -0.003922 -0.003922 1.000000

vn -0.003922 -0.003922 -1.000000

vn -0.003922 -0.003922 -1.000000

vn -0.003922 -0.003922 -1.000000

vn -0.003922 -0.003922 -1.000000

vn -0.003922 -0.003922 -1.000000

vn -0.003922 -0.003922 -1.000000

vn -0.003922 -1.000000 -0.003922

vn -0.003922 -1.000000 -0.003922

vn -0.003922 -1.000000 -0.003922

vn -0.003922 -1.000000 -0.003922

vn -0.003922 1.000000 -0.003922

vn -0.003922 1.000000 -0.003922

vn -0.003922 1.000000 -0.003922

vn -0.003922 1.000000 -0.003922

vn 1.000000 -0.003922 -0.003922

vn 1.000000 -0.003922 -0.003922

vn 1.000000 -0.003922 -0.003922

vn 1.000000 -0.003922 -0.003922

vn -1.000000 -0.003922 -0.003922

vn -1.000000 -0.003922 -0.003922

vn -1.000000 -0.003922 -0.003922

vn -1.000000 -0.003922 -0.003922

f 1/1/1 2/2/2 3/3/3

f 4/4/4 5/5/5 6/6/6

f 7/7/7 8/8/8 9/9/9

f 10/10/10 11/11/11 12/12/12

f 13/13/13 14/14/14 15/15/15

f 16/16/16 17/17/17 18/18/18

f 19/19/19 20/20/20 21/21/21

f 22/22/22 23/23/23 24/24/24

f 25/25/25 26/26/26 27/27/27

f 28/28/28 29/29/29 30/30/30

f 31/31/31 32/32/32 33/33/33

f 34/34/34 35/35/35 36/36/36

f 37/37/37 38/38/38 39/39/39

f 40/40/40 41/41/41 42/42/42

f 43/43/43 44/44/44 45/45/45

f 46/46/46 47/47/47 48/48/48

f 49/49/49 50/50/50 51/51/51

f 52/52/52 53/53/53 54/54/54

f 55/55/55 56/56/56 57/57/57

f 58/58/58 59/59/59 60/60/60

f 61/61/61 62/62/62 63/63/63

f 64/64/64 65/65/65 66/66/66

f 67/67/67 68/68/68 69/69/69

f 70/70/70 71/71/71 72/72/72

f 73/73/73 74/74/74 75/75/75

f 76/76/76 77/77/77 78/78/78

f 79/79/79 80/80/80 81/81/81

f 82/82/82 83/83/83 84/84/84

f 85/85/85 86/86/86 87/87/87

f 88/88/88 89/89/89 90/90/90

f 91/91/91 92/92/92 93/93/93

f 94/94/94 95/95/95 96/96/96

f 97/97/97 98/98/98 99/99/99

f 100/100/100 101/101/101 102/102/102

f 103/103/103 104/104/104 105/105/105

f 106/106/106 107/107/107 108/108/108

f 109/109/109 110/110/110 111/111/111

f 112/112/112 113/113/113 114/114/114

f 115/115/115 116/116/116 117/117/117

f 118/118/118 119/119/119 120/120/120

f 121/121/121 122/122/122 123/123/123

f 122/122/122 124/124/124 123/123/123

f 125/125/125 126/126/126 127/127/127

f 127/127/127 126/126/126 128/128/128

f 129/129/129 130/130/130 131/131/131

f 130/130/130 129/129/129 132/132/132

f 133/133/133 134/134/134 135/135/135

f 134/134/134 133/133/133 136/136/136

