# UnrealEd OBJ exporter (_Internal)



v 5.401184 0.958590 10.086761

v 5.401184 -0.958348 10.086792

v 2.668213 0.000106 -2.711548

v 5.401184 -0.958348 10.086792

v 3.663696 -0.958348 9.276672

v 2.668213 0.000106 -2.711548

v 3.663696 -0.958348 9.276672

v 3.663696 0.958590 9.276642

v 2.668213 0.000106 -2.711548

v 3.663696 0.958590 9.276642

v 5.401184 0.958590 10.086761

v 2.668213 0.000106 -2.711548

v -5.401184 -0.958348 10.086792

v -5.401184 0.958590 10.086761

v -2.668335 0.000106 -2.711548

v -5.401184 0.958590 10.086761

v -3.663879 0.958590 9.276642

v -2.668335 0.000106 -2.711548

v -3.663879 -0.958348 9.276672

v -5.401184 -0.958348 10.086792

v -2.668335 0.000106 -2.711548

v -3.663879 0.958590 9.276642

v -3.663879 -0.958348 9.276672

v -2.668335 0.000106 -2.711548

v 0.785095 -0.958348 15.605042

v 0.785095 0.958591 15.605011

v -3.663879 0.958590 9.276642

v 1.586365 1.586493 62.020813

v -1.586365 1.586493 62.020813

v -1.586365 -1.586279 62.020813

v 1.586365 -1.586279 62.020813

v 1.586365 -1.586279 47.362000

v -1.586365 -1.586279 47.362000

v 1.586365 1.586493 47.362091

v -1.586365 1.586493 47.362091

v 0.785095 -0.958348 16.704559

v 5.401184 -0.958348 10.086792

v 0.785095 0.958591 16.704529

v 5.401184 0.958590 10.086761

v 3.663696 -0.958348 9.276672

v 0.785095 -0.958348 16.704559

v -0.785156 -0.958348 15.605042

v 5.401184 -0.958348 10.086792

v -0.785156 0.958591 15.605011

v 3.663696 -0.958348 9.276672

v -0.785156 -0.958348 15.605042

v 3.663696 0.958590 9.276642

v 0.785095 0.958591 16.704529

v 3.663696 0.958590 9.276642

v -0.785156 0.958591 15.605011

v 5.401184 0.958590 10.086761

v -0.785156 0.958591 16.704529

v -5.401184 -0.958348 10.086792

v -0.785156 -0.958348 16.704559

v -5.401184 0.958590 10.086761

v -3.663879 0.958590 9.276642

v -0.785156 0.958591 16.704529

v 0.785095 0.958591 15.605011

v -5.401184 0.958590 10.086761

v -0.785156 -0.958348 16.704559

v -3.663879 -0.958348 9.276672

v 0.785095 -0.958348 15.605042

v -5.401184 -0.958348 10.086792

v 1.586365 1.586493 62.020813

v 1.586365 1.586493 47.362091

v -1.586365 1.586493 62.020813

v -1.586365 1.586493 47.362091

v -1.586365 -1.586279 62.020813

v -1.586365 -1.586279 47.362000

v 1.586365 -1.586279 62.020813

v 1.586365 -1.586279 47.362000

v 1.586365 1.586493 47.362091

v 1.586365 1.586493 62.020813

v 0.958374 0.958591 48.060730

v 0.958374 0.958591 15.187286

v -0.958618 0.958591 48.060730

v -0.958618 0.958591 15.187286

v -0.958618 -0.958349 48.060669

v -0.958618 -0.958348 15.187317

v 0.958374 -0.958349 48.060669

v 0.958374 -0.958348 15.187317

v 0.958374 0.958591 15.187286

v 0.958374 0.958591 48.060730



vt 0.687988 0.440430

vt 0.687988 0.438965

vt 0.696289 0.437500

vt 0.687988 0.438965

vt 0.687988 0.437988

vt 0.696289 0.437500

vt 0.687988 0.437988

vt 0.687988 0.436523

vt 0.696289 0.437500

vt 0.687988 0.436523

vt 0.687988 0.435059

vt 0.696289 0.437500

vt 0.745117 0.443359

vt 0.746094 0.443359

vt 0.743652 0.450684

vt 0.741699 0.443359

vt 0.743164 0.443359

vt 0.743652 0.450684

vt 0.744141 0.443359

vt 0.745117 0.443359

vt 0.743652 0.450684

vt 0.743164 0.443359

vt 0.744141 0.443359

vt 0.743652 0.450684

vt 0.744141 0.438965

vt 0.743164 0.438965

vt 0.743164 0.443359

vt 0.748047 0.454102

vt 0.748047 0.457031

vt 0.747070 0.456055

vt 0.747070 0.454590

vt 0.738770 0.454590

vt 0.738770 0.456055

vt 0.738281 0.454102

vt 0.738281 0.457031

vt 0.682617 0.438965

vt 0.687988 0.438965

vt 0.682617 0.440430

vt 0.687988 0.440430

vt 0.687988 0.437988

vt 0.682617 0.438965

vt 0.682617 0.437500

vt 0.687988 0.438965

vt 0.682617 0.436523

vt 0.687988 0.437988

vt 0.682617 0.437500

vt 0.687988 0.436523

vt 0.682617 0.435059

vt 0.687988 0.436523

vt 0.682617 0.436523

vt 0.687988 0.435059

vt 0.746582 0.438965

vt 0.745117 0.443359

vt 0.745117 0.438965

vt 0.746094 0.443359

vt 0.743164 0.443359

vt 0.742188 0.438965

vt 0.743164 0.438965

vt 0.741699 0.443359

vt 0.745117 0.438965

vt 0.744141 0.443359

vt 0.744141 0.438965

vt 0.745117 0.443359

vt 0.748047 0.458984

vt 0.738281 0.458984

vt 0.748047 0.457031

vt 0.738281 0.457031

vt 0.747070 0.456055

vt 0.738770 0.456055

vt 0.747070 0.454590

vt 0.738770 0.454590

vt 0.738281 0.454102

vt 0.748047 0.454102

vt 0.746582 0.435547

vt 0.730957 0.435547

vt 0.746582 0.434570

vt 0.730957 0.434570

vt 0.746582 0.433594

vt 0.730957 0.433594

vt 0.746582 0.432617

vt 0.730957 0.432617

vt 0.730957 0.432129

vt 0.746582 0.432129



vn 0.756863 0.631373 0.137255

vn 0.756863 -0.639216 0.137255

vn -0.152941 -0.003922 -0.992157

vn 0.756863 -0.639216 0.137255

vn -0.568627 -0.803922 -0.200000

vn -0.152941 -0.003922 -0.992157

vn -0.568627 -0.803922 -0.200000

vn -0.568627 0.796079 -0.200000

vn -0.152941 -0.003922 -0.992157

vn -0.568627 0.796079 -0.200000

vn 0.756863 0.631373 0.137255

vn -0.152941 -0.003922 -0.992157

vn -0.764706 -0.639216 0.137255

vn -0.764706 0.631373 0.137255

vn 0.145098 -0.003922 -0.992157

vn -0.764706 0.631373 0.137255

vn 0.560784 0.796079 -0.200000

vn 0.145098 -0.003922 -0.992157

vn 0.560784 -0.803922 -0.200000

vn -0.764706 -0.639216 0.137255

vn 0.145098 -0.003922 -0.992157

vn 0.560784 0.796079 -0.200000

vn 0.560784 -0.803922 -0.200000

vn 0.145098 -0.003922 -0.992157

vn 0.576471 -0.709804 -0.411765

vn 0.576471 0.701961 -0.411765

vn 0.560784 0.796079 -0.200000

vn -0.003922 -0.003922 1.000000

vn -0.003922 -0.003922 1.000000

vn -0.003922 -0.003922 1.000000

vn -0.003922 -0.003922 1.000000

vn -0.003922 -0.003922 -1.000000

vn -0.003922 -0.003922 -1.000000

vn -0.003922 -0.003922 -1.000000

vn -0.003922 -0.003922 -1.000000

vn 0.576471 -0.709804 0.403922

vn 0.756863 -0.639216 0.137255

vn 0.576471 0.701961 0.403922

vn 0.756863 0.631373 0.137255

vn -0.568627 -0.803922 -0.200000

vn 0.576471 -0.709804 0.403922

vn -0.584314 -0.709804 -0.411765

vn 0.756863 -0.639216 0.137255

vn -0.584314 0.701961 -0.411765

vn -0.568627 -0.803922 -0.200000

vn -0.584314 -0.709804 -0.411765

vn -0.568627 0.796079 -0.200000

vn 0.576471 0.701961 0.403922

vn -0.568627 0.796079 -0.200000

vn -0.584314 0.701961 -0.411765

vn 0.756863 0.631373 0.137255

vn -0.584314 0.701961 0.403922

vn -0.764706 -0.639216 0.137255

vn -0.584314 -0.709804 0.403922

vn -0.764706 0.631373 0.137255

vn 0.560784 0.796079 -0.200000

vn -0.584314 0.701961 0.403922

vn 0.576471 0.701961 -0.411765

vn -0.764706 0.631373 0.137255

vn -0.584314 -0.709804 0.403922

vn 0.560784 -0.803922 -0.200000

vn 0.576471 -0.709804 -0.411765

vn -0.764706 -0.639216 0.137255

vn 0.701961 0.701961 -0.003922

vn 0.701961 0.701961 -0.003922

vn -0.709804 0.701961 -0.003922

vn -0.709804 0.701961 -0.003922

vn -0.709804 -0.709804 -0.003922

vn -0.709804 -0.709804 -0.003922

vn 0.701961 -0.709804 -0.003922

vn 0.701961 -0.709804 -0.003922

vn 0.701961 0.701961 -0.003922

vn 0.701961 0.701961 -0.003922

vn 0.701961 0.701961 -0.003922

vn 0.701961 0.701961 -0.003922

vn -0.709804 0.701961 -0.003922

vn -0.709804 0.701961 -0.003922

vn -0.709804 -0.709804 -0.003922

vn -0.709804 -0.709804 -0.003922

vn 0.701961 -0.709804 -0.003922

vn 0.701961 -0.709804 -0.003922

vn 0.701961 0.701961 -0.003922

vn 0.701961 0.701961 -0.003922

f 1/1/1 2/2/2 3/3/3

f 4/4/4 5/5/5 6/6/6

f 7/7/7 8/8/8 9/9/9

f 10/10/10 11/11/11 12/12/12

f 13/13/13 14/14/14 15/15/15

f 16/16/16 17/17/17 18/18/18

f 19/19/19 20/20/20 21/21/21

f 22/22/22 23/23/23 24/24/24

f 25/25/25 23/23/23 26/26/26

f 26/26/26 23/23/23 27/27/27

f 28/28/28 29/29/29 30/30/30

f 28/28/28 30/30/30 31/31/31

f 32/32/32 33/33/33 34/34/34

f 33/33/33 35/35/35 34/34/34

f 36/36/36 37/37/37 38/38/38

f 38/38/38 37/37/37 39/39/39

f 40/40/40 41/41/41 42/42/42

f 41/41/41 40/40/40 43/43/43

f 44/44/44 45/45/45 46/46/46

f 45/45/45 44/44/44 47/47/47

f 48/48/48 49/49/49 50/50/50

f 49/49/49 48/48/48 51/51/51

f 52/52/52 53/53/53 54/54/54

f 53/53/53 52/52/52 55/55/55

f 56/56/56 57/57/57 58/58/58

f 57/57/57 56/56/56 59/59/59

f 60/60/60 61/61/61 62/62/62

f 61/61/61 60/60/60 63/63/63

f 64/64/64 65/65/65 66/66/66

f 66/66/66 65/65/65 67/67/67

f 66/66/66 67/67/67 68/68/68

f 68/68/68 67/67/67 69/69/69

f 68/68/68 69/69/69 70/70/70

f 70/70/70 69/69/69 71/71/71

f 72/72/72 70/70/70 71/71/71

f 70/70/70 72/72/72 73/73/73

f 74/74/74 75/75/75 76/76/76

f 76/76/76 75/75/75 77/77/77

f 76/76/76 77/77/77 78/78/78

f 78/78/78 77/77/77 79/79/79

f 78/78/78 79/79/79 80/80/80

f 80/80/80 79/79/79 81/81/81

f 82/82/82 80/80/80 81/81/81

f 80/80/80 82/82/82 83/83/83

