# UnrealEd OBJ exporter (_Internal)



v 23.687561 20.131817 -40.704567

v 47.375122 20.131817 0.323337

v 50.077881 16.284903 0.323337

v 25.038940 16.284903 -43.045357

v 25.038940 16.284903 -43.045357

v -25.038940 16.284903 -43.045357

v -23.687561 20.131817 -40.704567

v 23.687561 20.131817 -40.704567

v -50.077881 16.284903 0.323337

v -23.687561 20.131817 -40.704567

v -25.038940 16.284903 -43.045357

v -47.375122 20.131817 0.323337

v -23.687561 20.131813 41.351646

v -50.077881 16.284903 0.323337

v -25.038940 16.284901 43.692261

v -47.375122 20.131817 0.323337

v -25.038940 16.284901 43.692261

v 25.038940 16.284901 43.692261

v 23.687561 20.131813 41.351646

v -23.687561 20.131813 41.351646

v 23.687561 20.131813 41.351646

v 50.077881 16.284903 0.323337

v 47.375122 20.131817 0.323337

v 25.038940 16.284901 43.692261

v 50.077881 16.284903 0.323337

v 19.243958 -0.234995 -33.008015

v 25.038940 16.284903 -43.045357

v 38.487915 -0.234995 0.323338

v 19.243958 -0.234995 33.655033

v 50.077881 16.284903 0.323337

v 25.038940 16.284901 43.692261

v 38.487915 -0.234995 0.323338

v -25.038940 16.284901 43.692261

v 19.243958 -0.234995 33.655033

v 25.038940 16.284901 43.692261

v -19.244019 -0.234995 33.655033

v -19.244019 -0.234995 33.655033

v -50.077881 16.284903 0.323337

v -38.487915 -0.234995 0.323338

v -25.038940 16.284901 43.692261

v -19.244019 -0.234995 -33.008015

v -38.487915 -0.234995 0.323338

v -50.077881 16.284903 0.323337

v -25.038940 16.284903 -43.045357

v -25.038940 16.284903 -43.045357

v 25.038940 16.284903 -43.045357

v 19.243958 -0.234995 -33.008015

v -19.244019 -0.234995 -33.008015

v 19.243958 3.611917 -33.008041

v 38.487915 3.611917 0.323337

v 47.375122 20.131817 0.323337

v 23.687561 20.131817 -40.704567

v -23.687561 20.131817 -40.704567

v 19.243958 3.611917 -33.008041

v 23.687561 20.131817 -40.704567

v -19.244019 3.611917 -33.008041

v -47.375122 20.131817 0.323337

v -19.244019 3.611917 -33.008041

v -23.687561 20.131817 -40.704567

v -38.487915 3.611917 0.323337

v -19.244019 3.611916 33.655006

v -47.375122 20.131817 0.323337

v -23.687561 20.131813 41.351646

v -38.487915 3.611917 0.323337

v -23.687561 20.131813 41.351646

v 23.687561 20.131813 41.351646

v 19.243958 3.611916 33.655006

v -19.244019 3.611916 33.655006

v 19.243958 3.611916 33.655006

v 47.375122 20.131817 0.323337

v 38.487915 3.611917 0.323337

v 23.687561 20.131813 41.351646

v 4.866333 26.328400 -97.501961

v -4.866333 26.328400 -97.501953

v -4.603638 30.822187 -97.790710

v 4.603638 30.822187 -97.790710

v -4.866333 16.284903 -43.045357

v -4.866333 21.877617 -57.691963

v 4.866333 16.284903 -43.045357

v 4.866333 21.877617 -57.692314

v -4.603638 20.131817 -40.704567

v -4.603638 26.293125 -56.808311

v -4.866333 16.284903 -43.045357

v -4.866333 21.877617 -57.691963

v 4.866333 16.284903 -43.045357

v 4.603638 26.293125 -56.808311

v 4.603638 20.131817 -40.704567

v 4.866333 21.877617 -57.692314

v -4.866333 21.877617 -57.691963

v -4.866333 25.858301 -77.535500

v 4.866333 21.877617 -57.692314

v 4.866333 25.858301 -77.535500

v -4.603638 26.293125 -56.808311

v -4.866333 25.858301 -77.535500

v -4.866333 21.877617 -57.691963

v -4.603638 30.333984 -77.039749

v -4.603638 26.293125 -56.808311

v 4.603638 30.333984 -77.039749

v -4.603638 30.333984 -77.039749

v 4.603638 26.293125 -56.808311

v -4.603638 20.131817 -40.704567

v 4.603638 20.131817 -40.704567

v -4.603638 26.293125 -56.808311

v 4.866333 25.858301 -77.535500

v 4.603638 26.293125 -56.808311

v 4.866333 21.877617 -57.692314

v 4.603638 30.333984 -77.039749

v -4.866333 26.328400 -97.501953

v 4.866333 25.858301 -77.535500

v -4.866333 25.858301 -77.535500

v 4.866333 26.328400 -97.501961

v -4.603638 30.333984 -77.039749

v -4.866333 26.328400 -97.501953

v -4.866333 25.858301 -77.535500

v -4.603638 30.822187 -97.790710

v 4.603638 30.822187 -97.790710

v -4.603638 30.333984 -77.039749

v 4.603638 30.333984 -77.039749

v -4.603638 30.822187 -97.790710

v 4.866333 26.328400 -97.501961

v 4.603638 30.333984 -77.039749

v 4.866333 25.858301 -77.535500

v 4.603638 30.822187 -97.790710

v -38.487915 -0.234995 0.323338

v 19.243958 -0.234995 33.655033

v -19.244019 -0.234995 33.655033

v 38.487915 -0.234995 0.323338

v 19.243958 -0.234995 -33.008015

v -19.244019 -0.234995 -33.008015

v -38.487915 3.611917 0.323337

v 19.243958 3.611917 -33.008041

v -19.244019 3.611917 -33.008041

v 38.487915 3.611917 0.323337

v 19.243958 3.611916 33.655006

v -19.244019 3.611916 33.655006



vt 0.538574 0.337891

vt 0.514648 0.337891

vt 0.513672 0.336426

vt 0.539551 0.336914

vt 0.539551 0.336914

vt 0.552246 0.358887

vt 0.550781 0.358887

vt 0.538574 0.337891

vt 0.539063 0.381348

vt 0.550781 0.358887

vt 0.552246 0.358887

vt 0.538574 0.379883

vt 0.514160 0.379883

vt 0.539063 0.381348

vt 0.513672 0.380859

vt 0.538574 0.379883

vt 0.513672 0.380859

vt 0.500977 0.358887

vt 0.502441 0.358887

vt 0.514160 0.379883

vt 0.502441 0.358887

vt 0.513672 0.336426

vt 0.514648 0.337891

vt 0.500977 0.358887

vt 0.625977 0.400391

vt 0.624023 0.411621

vt 0.619629 0.411621

vt 0.628418 0.404297

vt 0.636719 0.404297

vt 0.625977 0.400391

vt 0.639160 0.400391

vt 0.628418 0.404297

vt 0.645508 0.411621

vt 0.636719 0.404297

vt 0.639160 0.400391

vt 0.641113 0.411621

vt 0.641113 0.411621

vt 0.639160 0.423340

vt 0.636719 0.419434

vt 0.645508 0.411621

vt 0.628418 0.419434

vt 0.636719 0.419434

vt 0.639160 0.423340

vt 0.625977 0.423340

vt 0.625977 0.423340

vt 0.619629 0.411621

vt 0.624023 0.411621

vt 0.628418 0.419434

vt 0.535156 0.344238

vt 0.518066 0.344238

vt 0.514648 0.337891

vt 0.538574 0.337891

vt 0.550781 0.358887

vt 0.535156 0.344238

vt 0.538574 0.337891

vt 0.543457 0.358887

vt 0.538574 0.379883

vt 0.543457 0.358887

vt 0.550781 0.358887

vt 0.534668 0.373535

vt 0.517578 0.373535

vt 0.538574 0.379883

vt 0.514160 0.379883

vt 0.534668 0.373535

vt 0.514160 0.379883

vt 0.502441 0.358887

vt 0.509277 0.358887

vt 0.517578 0.373535

vt 0.509277 0.358887

vt 0.514648 0.337891

vt 0.518066 0.344238

vt 0.502441 0.358887

vt 0.579102 0.486328

vt 0.579102 0.492188

vt 0.578125 0.490723

vt 0.578125 0.486816

vt 0.551270 0.493652

vt 0.559082 0.493164

vt 0.551758 0.498047

vt 0.559082 0.498047

vt 0.550781 0.491211

vt 0.559082 0.491211

vt 0.551270 0.493652

vt 0.559082 0.493164

vt 0.551270 0.484375

vt 0.559082 0.486816

vt 0.550781 0.486816

vt 0.559082 0.484375

vt 0.559082 0.493164

vt 0.568848 0.493164

vt 0.559082 0.498047

vt 0.569336 0.497559

vt 0.559082 0.491211

vt 0.568848 0.493164

vt 0.559082 0.493164

vt 0.568848 0.491211

vt 0.559082 0.491211

vt 0.568848 0.486816

vt 0.568848 0.491211

vt 0.559082 0.486816

vt 0.550781 0.491211

vt 0.550781 0.486816

vt 0.559082 0.491211

vt 0.568848 0.484375

vt 0.559082 0.486816

vt 0.559082 0.484375

vt 0.568848 0.486816

vt 0.579102 0.492188

vt 0.569336 0.497559

vt 0.568848 0.493164

vt 0.579102 0.496582

vt 0.568848 0.491211

vt 0.579102 0.492188

vt 0.568848 0.493164

vt 0.578125 0.490723

vt 0.578125 0.486816

vt 0.568848 0.491211

vt 0.568848 0.486816

vt 0.578125 0.490723

vt 0.579102 0.486328

vt 0.568848 0.486816

vt 0.568848 0.484375

vt 0.578125 0.486816

vt 0.636719 0.419434

vt 0.636719 0.404297

vt 0.641113 0.411621

vt 0.628418 0.404297

vt 0.624023 0.411621

vt 0.628418 0.419434

vt 0.534668 0.373535

vt 0.535156 0.344238

vt 0.543457 0.358887

vt 0.518066 0.344238

vt 0.509277 0.358887

vt 0.517578 0.373535



vn 0.403922 0.568628 -0.709804

vn 0.811765 0.568628 -0.003922

vn 0.811765 0.568628 -0.003922

vn 0.403922 0.568628 -0.709804

vn 0.403922 0.568628 -0.709804

vn -0.411765 0.568628 -0.709804

vn -0.411765 0.568628 -0.709804

vn 0.403922 0.568628 -0.709804

vn -0.819608 0.568628 -0.003922

vn -0.411765 0.568628 -0.709804

vn -0.411765 0.568628 -0.709804

vn -0.819608 0.568628 -0.003922

vn -0.411765 0.568628 0.701961

vn -0.819608 0.568628 -0.003922

vn -0.411765 0.568628 0.701961

vn -0.819608 0.568628 -0.003922

vn -0.411765 0.568628 0.701961

vn 0.403922 0.568628 0.701961

vn 0.403922 0.568628 0.701961

vn -0.411765 0.568628 0.701961

vn 0.403922 0.568628 0.701961

vn 0.811765 0.568628 -0.003922

vn 0.811765 0.568628 -0.003922

vn 0.403922 0.568628 0.701961

vn 0.811765 -0.576471 -0.003922

vn 0.403922 -0.576471 -0.709804

vn 0.403922 -0.576471 -0.709804

vn 0.811765 -0.576471 -0.003922

vn 0.403922 -0.576471 0.701961

vn 0.811765 -0.576471 -0.003922

vn 0.403922 -0.576471 0.701961

vn 0.811765 -0.576471 -0.003922

vn -0.411765 -0.576471 0.701961

vn 0.403922 -0.576471 0.701961

vn 0.403922 -0.576471 0.701961

vn -0.411765 -0.576471 0.701961

vn -0.411765 -0.576471 0.701961

vn -0.819608 -0.576471 -0.003922

vn -0.819608 -0.576471 -0.003922

vn -0.411765 -0.576471 0.701961

vn -0.411765 -0.576471 -0.709804

vn -0.819608 -0.576471 -0.003922

vn -0.819608 -0.576471 -0.003922

vn -0.411765 -0.576471 -0.709804

vn -0.411765 -0.576471 -0.709804

vn 0.403922 -0.576471 -0.709804

vn 0.403922 -0.576471 -0.709804

vn -0.411765 -0.576471 -0.709804

vn -0.443137 0.466667 0.756863

vn -0.882353 0.466667 -0.003922

vn -0.882353 0.466667 -0.003922

vn -0.443137 0.466667 0.756863

vn 0.435294 0.466667 0.756863

vn -0.443137 0.466667 0.756863

vn -0.443137 0.466667 0.756863

vn 0.435294 0.466667 0.756863

vn 0.874510 0.466667 -0.003922

vn 0.435294 0.466667 0.756863

vn 0.435294 0.466667 0.756863

vn 0.874510 0.466667 -0.003922

vn 0.435294 0.466667 -0.764706

vn 0.874510 0.466667 -0.003922

vn 0.435294 0.466667 -0.764706

vn 0.874510 0.466667 -0.003922

vn 0.435294 0.466667 -0.764706

vn -0.443137 0.466667 -0.764706

vn -0.443137 0.466667 -0.764706

vn 0.435294 0.466667 -0.764706

vn -0.443137 0.466667 -0.764706

vn -0.882353 0.466667 -0.003922

vn -0.882353 0.466667 -0.003922

vn -0.443137 0.466667 -0.764706

vn -0.003922 -0.066667 -1.000000

vn -0.003922 -0.066667 -1.000000

vn -0.003922 -0.066667 -1.000000

vn -0.003922 -0.066667 -1.000000

vn -0.003922 -0.937255 -0.356863

vn -0.003922 -0.960784 -0.278431

vn -0.003922 -0.937255 -0.356863

vn -0.003922 -0.960784 -0.278431

vn -1.000000 0.050980 0.019608

vn -1.000000 0.050980 0.011765

vn -1.000000 0.050980 0.019608

vn -1.000000 0.050980 0.011765

vn 0.992157 0.050980 0.019608

vn 0.992157 0.050980 0.011765

vn 0.992157 0.050980 0.019608

vn 0.992157 0.050980 0.011765

vn -0.003922 -0.960784 -0.278431

vn -0.003922 -0.984314 -0.200000

vn -0.003922 -0.960784 -0.278431

vn -0.003922 -0.984314 -0.200000

vn -1.000000 0.050980 0.011765

vn -1.000000 0.050980 0.003922

vn -1.000000 0.050980 0.011765

vn -1.000000 0.050980 0.003922

vn -0.003922 0.952941 0.270588

vn -0.003922 0.976471 0.192157

vn -0.003922 0.976471 0.192157

vn -0.003922 0.952941 0.270588

vn -0.003922 0.929412 0.356863

vn -0.003922 0.929412 0.356863

vn -0.003922 0.952941 0.270588

vn 0.992157 0.050980 0.003922

vn 0.992157 0.050980 0.011765

vn 0.992157 0.050980 0.011765

vn 0.992157 0.050980 0.003922

vn -0.003922 -1.000000 -0.027451

vn -0.003922 -1.000000 -0.027451

vn -0.003922 -1.000000 -0.027451

vn -0.003922 -1.000000 -0.027451

vn -1.000000 0.050980 0.003922

vn -1.000000 0.050980 -0.003922

vn -1.000000 0.050980 0.003922

vn -1.000000 0.050980 -0.003922

vn -0.003922 0.992157 0.019608

vn -0.003922 0.992157 0.019608

vn -0.003922 0.992157 0.019608

vn -0.003922 0.992157 0.019608

vn 0.992157 0.050980 -0.003922

vn 0.992157 0.050980 0.003922

vn 0.992157 0.050980 0.003922

vn 0.992157 0.050980 -0.003922

vn -0.003922 -1.000000 -0.003922

vn -0.003922 -1.000000 -0.003922

vn -0.003922 -1.000000 -0.003922

vn -0.003922 -1.000000 -0.003922

vn -0.003922 -1.000000 -0.003922

vn -0.003922 -1.000000 -0.003922

vn -0.003922 1.000000 -0.003922

vn -0.003922 1.000000 -0.003922

vn -0.003922 1.000000 -0.003922

vn -0.003922 1.000000 -0.003922

vn -0.003922 1.000000 -0.003922

vn -0.003922 1.000000 -0.003922

f 1/1/1 2/2/2 3/3/3

f 3/3/3 4/4/4 1/1/1

f 5/5/5 6/6/6 7/7/7

f 5/5/5 7/7/7 8/8/8

f 9/9/9 10/10/10 11/11/11

f 10/10/10 9/9/9 12/12/12

f 13/13/13 14/14/14 15/15/15

f 14/14/14 13/13/13 16/16/16

f 17/17/17 18/18/18 19/19/19

f 17/17/17 19/19/19 20/20/20

f 21/21/21 22/22/22 23/23/23

f 22/22/22 21/21/21 24/24/24

f 25/25/25 26/26/26 27/27/27

f 26/26/26 25/25/25 28/28/28

f 29/29/29 30/30/30 31/31/31

f 30/30/30 29/29/29 32/32/32

f 33/33/33 34/34/34 35/35/35

f 34/34/34 33/33/33 36/36/36

f 37/37/37 38/38/38 39/39/39

f 38/38/38 37/37/37 40/40/40

f 41/41/41 42/42/42 43/43/43

f 43/43/43 44/44/44 41/41/41

f 45/45/45 46/46/46 47/47/47

f 45/45/45 47/47/47 48/48/48

f 49/49/49 50/50/50 51/51/51

f 51/51/51 52/52/52 49/49/49

f 53/53/53 54/54/54 55/55/55

f 54/54/54 53/53/53 56/56/56

f 57/57/57 58/58/58 59/59/59

f 58/58/58 57/57/57 60/60/60

f 61/61/61 62/62/62 63/63/63

f 62/62/62 61/61/61 64/64/64

f 65/65/65 66/66/66 67/67/67

f 65/65/65 67/67/67 68/68/68

f 69/69/69 70/70/70 71/71/71

f 70/70/70 69/69/69 72/72/72

f 73/73/73 74/74/74 75/75/75

f 73/73/73 75/75/75 76/76/76

f 77/77/77 78/78/78 79/79/79

f 79/79/79 78/78/78 80/80/80

f 81/81/81 82/82/82 83/83/83

f 83/83/83 82/82/82 84/84/84

f 85/85/85 86/86/86 87/87/87

f 86/86/86 85/85/85 88/88/88

f 89/89/89 90/90/90 91/91/91

f 91/91/91 90/90/90 92/92/92

f 93/93/93 94/94/94 95/95/95

f 94/94/94 93/93/93 96/96/96

f 97/97/97 98/98/98 99/99/99

f 100/100/100 98/98/98 97/97/97

f 100/100/100 101/101/101 102/102/102

f 101/101/101 100/100/100 103/103/103

f 104/104/104 105/105/105 106/106/106

f 105/105/105 104/104/104 107/107/107

f 108/108/108 109/109/109 110/110/110

f 109/109/109 108/108/108 111/111/111

f 112/112/112 113/113/113 114/114/114

f 113/113/113 112/112/112 115/115/115

f 116/116/116 117/117/117 118/118/118

f 117/117/117 116/116/116 119/119/119

f 120/120/120 121/121/121 122/122/122

f 121/121/121 120/120/120 123/123/123

f 124/124/124 125/125/125 126/126/126

f 125/125/125 124/124/124 127/127/127

f 124/124/124 128/128/128 127/127/127

f 128/128/128 124/124/124 129/129/129

f 130/130/130 131/131/131 132/132/132

f 130/130/130 133/133/133 131/131/131

f 133/133/133 130/130/130 134/134/134

f 134/134/134 130/130/130 135/135/135

