# UnrealEd OBJ exporter (_Internal)



v 0.037781 -73.190216 16.589085

v 4.247803 -67.175568 20.904896

v -4.116028 -67.175568 20.893471

v -0.037720 -73.190216 5.018013

v -4.247742 -67.175621 0.702085

v 4.116089 -67.175621 0.713526

v 5.785583 -73.190216 10.765747

v 10.101379 -67.175568 6.555695

v 10.089966 -67.175568 14.919571

v 10.089966 -67.175568 14.919571

v 0.037781 -73.190216 16.589085

v 4.247803 -67.175568 20.904896

v -5.785553 -73.190269 10.841244

v -10.101379 -67.175568 15.051205

v -10.089844 -67.175621 6.687414

v -0.037720 -73.190216 5.018013

v -10.089844 -67.175621 6.687414

v -4.247742 -67.175621 0.702085

v 0.000000 -74.933266 10.803461

v 5.785583 -73.190216 10.765747

v 0.037781 -73.190216 16.589085

v -5.785553 -73.190269 10.841244

v -0.037720 -73.190216 5.018013

v -5.785553 -73.190269 10.841244

v 0.037781 -73.190216 16.589085

v -0.037720 -73.190216 5.018013

v 5.785583 -73.190216 10.765747

v -5.785553 -73.190269 10.841244

v -4.116028 -67.175568 20.893471

v -10.101379 -67.175568 15.051205

v -4.116028 -59.444359 20.893473

v -10.101379 -59.444237 15.051205

v 4.116089 -67.175621 0.713526

v 5.785583 -73.190216 10.765747

v 10.101379 -67.175568 6.555695

v 4.116089 -59.444298 0.713520

v 10.101379 -67.175568 6.555695

v 10.101379 -59.444237 6.555695

v -4.116028 -59.444359 20.893473

v 4.247803 -67.175568 20.904896

v 4.247803 -59.444237 20.904896

v -4.116028 -67.175568 20.893471

v 4.247803 -59.444237 20.904896

v 4.247803 -67.175568 20.904896

v 10.089966 -59.444359 14.919577

v 10.089966 -67.175568 14.919571

v 10.089966 -59.444359 14.919577

v 10.101379 -67.175568 6.555695

v 10.101379 -59.444237 6.555695

v 10.089966 -67.175568 14.919571

v -4.247742 -59.444298 0.702085

v 4.116089 -67.175621 0.713526

v -4.247742 -67.175621 0.702085

v 4.116089 -59.444298 0.713520

v -10.089844 -67.175621 6.687414

v -4.247742 -59.444298 0.702085

v -4.247742 -67.175621 0.702085

v -10.089844 -59.444298 6.687420

v -10.101379 -67.175568 15.051205

v -10.089844 -59.444298 6.687420

v -10.089844 -67.175621 6.687414

v -10.101379 -59.444237 15.051205

v 3.302063 -38.561485 5.570642

v 3.302063 -18.049688 3.644593

v 3.302063 -16.573799 5.570640

v 3.302063 -39.299416 3.644590

v -3.301971 -38.561424 5.570637

v -3.301971 -16.573799 5.570640

v -3.301971 -18.049688 3.644593

v -3.301971 -39.299416 3.644590

v 3.302063 5.413857 3.514259

v 3.302063 5.413857 -6.027631

v -3.301971 5.413857 3.514259

v -3.301971 5.413857 -6.027631

v 3.302063 3.200017 -3.949230

v 3.302063 5.413857 3.514259

v 3.302063 3.200017 1.588315

v 3.302063 5.413857 -6.027631

v -3.301971 3.200017 1.588315

v -3.301971 3.200017 -3.949230

v 3.302063 3.200017 1.588315

v 3.302063 3.200017 -3.949230

v -3.301971 5.413857 3.514259

v -3.301971 3.200017 -3.949230

v -3.301971 3.200017 1.588315

v -3.301971 5.413857 -6.027631

v -3.301971 -5.109207 -6.027623

v 3.302063 -5.109207 -6.027623

v -3.301971 -5.109207 -3.949230

v 3.302063 -5.109207 -3.949230

v 3.302063 -5.109207 -6.027623

v -3.301971 -5.109207 -6.027623

v -3.301971 5.413857 -6.027631

v 3.302063 5.413857 -6.027631

v 3.302063 -5.109207 -6.027623

v 3.302063 3.200017 -3.949230

v 3.302063 -5.109207 -3.949230

v 3.302063 5.413857 -6.027631

v -3.301971 3.200017 -3.949230

v -3.301971 -5.109207 -3.949230

v 3.302063 3.200017 -3.949230

v 3.302063 -5.109207 -3.949230

v -3.301971 5.413857 -6.027631

v -3.301971 -5.109207 -6.027623

v -3.301971 3.200017 -3.949230

v -3.301971 -5.109207 -3.949230

v 3.302063 -16.573799 5.570640

v 3.302063 3.200017 1.588315

v 3.302063 5.413857 3.514259

v 3.302063 -18.049688 3.644593

v 3.302063 -60.549084 3.514259

v 3.302063 -39.299416 3.644590

v 3.302063 -38.561485 5.570642

v 3.302063 -60.549141 1.588316

v -3.301971 3.200017 1.588315

v -3.301971 -16.573799 5.570640

v -3.301971 5.413857 3.514259

v -3.301971 -18.049688 3.644593

v -3.301971 -60.549084 3.514259

v -3.301971 -38.561424 5.570637

v -3.301971 -39.299416 3.644590

v -3.301971 -60.549141 1.588316

v 3.302063 -38.561485 5.570642

v -3.301971 -60.549084 3.514259

v 3.302063 -60.549084 3.514259

v -3.301971 -38.561424 5.570637

v 3.302063 -16.573799 5.570640

v -3.301971 -16.573799 5.570640

v -3.301971 5.413857 3.514259

v 3.302063 5.413857 3.514259

v -3.301971 -18.049688 3.644593

v -3.301971 3.200017 1.588315

v 3.302063 3.200017 1.588315

v 3.302063 -18.049688 3.644593

v -3.301971 -39.299416 3.644590

v 3.302063 -39.299416 3.644590

v -3.301971 -60.549141 1.588316

v 3.302063 -60.549141 1.588316

v 10.089966 -59.444359 14.919577

v -4.116028 -59.444359 20.893473

v 4.247803 -59.444237 20.904896

v -10.089844 -59.444298 6.687420

v -10.101379 -59.444237 15.051205

v 4.116089 -59.444298 0.713520

v -4.247742 -59.444298 0.702085

v 10.101379 -59.444237 6.555695



vt 0.619141 0.432617

vt 0.616699 0.432617

vt 0.619141 0.430176

vt 0.621582 0.435059

vt 0.624023 0.435547

vt 0.622070 0.437500

vt 0.619141 0.435059

vt 0.619141 0.437500

vt 0.617188 0.435547

vt 0.617188 0.435547

vt 0.619141 0.432617

vt 0.616699 0.432617

vt 0.621582 0.432617

vt 0.622070 0.430176

vt 0.624023 0.432617

vt 0.621582 0.435059

vt 0.624023 0.432617

vt 0.624023 0.435547

vt 0.620605 0.434082

vt 0.619141 0.435059

vt 0.619141 0.432617

vt 0.621582 0.432617

vt 0.621582 0.435059

vt 0.621582 0.432617

vt 0.619141 0.432617

vt 0.621582 0.435059

vt 0.619141 0.435059

vt 0.621582 0.432617

vt 0.619141 0.430176

vt 0.622070 0.430176

vt 0.618164 0.428223

vt 0.623047 0.428223

vt 0.622070 0.437500

vt 0.619141 0.435059

vt 0.619141 0.437500

vt 0.623047 0.439941

vt 0.619141 0.437500

vt 0.618164 0.439941

vt 0.618164 0.428223

vt 0.616699 0.432617

vt 0.614746 0.431641

vt 0.619141 0.430176

vt 0.614746 0.431641

vt 0.616699 0.432617

vt 0.614746 0.436523

vt 0.617188 0.435547

vt 0.614746 0.436523

vt 0.619141 0.437500

vt 0.618164 0.439941

vt 0.617188 0.435547

vt 0.626465 0.436523

vt 0.622070 0.437500

vt 0.624023 0.435547

vt 0.623047 0.439941

vt 0.624023 0.432617

vt 0.626465 0.436523

vt 0.624023 0.435547

vt 0.626465 0.431641

vt 0.622070 0.430176

vt 0.626465 0.431641

vt 0.624023 0.432617

vt 0.623047 0.428223

vt 0.602051 0.474609

vt 0.592773 0.475586

vt 0.592773 0.474609

vt 0.602051 0.475586

vt 0.602051 0.472168

vt 0.592773 0.472168

vt 0.592773 0.471680

vt 0.602051 0.471680

vt 0.583984 0.474609

vt 0.580566 0.474609

vt 0.583984 0.472168

vt 0.580566 0.472168

vt 0.580566 0.475586

vt 0.583984 0.474609

vt 0.583984 0.475586

vt 0.580566 0.474609

vt 0.583984 0.478516

vt 0.580566 0.478516

vt 0.583984 0.475586

vt 0.580566 0.475586

vt 0.583984 0.472168

vt 0.580566 0.471680

vt 0.583984 0.471680

vt 0.580566 0.472168

vt 0.577148 0.472168

vt 0.577148 0.474609

vt 0.576660 0.471680

vt 0.576660 0.475586

vt 0.577148 0.474609

vt 0.577148 0.472168

vt 0.580566 0.472168

vt 0.580566 0.474609

vt 0.577148 0.474609

vt 0.580566 0.475586

vt 0.576660 0.475586

vt 0.580566 0.474609

vt 0.580566 0.478516

vt 0.576660 0.478516

vt 0.580566 0.475586

vt 0.576660 0.475586

vt 0.580566 0.472168

vt 0.577148 0.472168

vt 0.580566 0.471680

vt 0.576660 0.471680

vt 0.592773 0.474609

vt 0.583984 0.475586

vt 0.583984 0.474609

vt 0.592773 0.475586

vt 0.610840 0.474609

vt 0.602051 0.475586

vt 0.602051 0.474609

vt 0.610840 0.475586

vt 0.583984 0.471680

vt 0.592773 0.472168

vt 0.583984 0.472168

vt 0.592773 0.471680

vt 0.610840 0.472168

vt 0.602051 0.472168

vt 0.602051 0.471680

vt 0.610840 0.471680

vt 0.602051 0.474609

vt 0.610840 0.472168

vt 0.610840 0.474609

vt 0.602051 0.472168

vt 0.592773 0.474609

vt 0.592773 0.472168

vt 0.583984 0.472168

vt 0.583984 0.474609

vt 0.592773 0.478516

vt 0.583984 0.478516

vt 0.583984 0.475586

vt 0.592773 0.475586

vt 0.602051 0.478516

vt 0.602051 0.475586

vt 0.610840 0.478516

vt 0.610840 0.475586

vt 0.599609 0.378418

vt 0.597656 0.373535

vt 0.599609 0.375488

vt 0.592773 0.375488

vt 0.594727 0.373535

vt 0.594727 0.379883

vt 0.592773 0.377930

vt 0.597656 0.380371



vn -0.003922 -0.835294 0.545098

vn 0.380392 -0.349020 0.858824

vn -0.372549 -0.349020 0.858824

vn -0.003922 -0.835294 -0.552941

vn -0.388235 -0.349020 -0.866667

vn 0.364706 -0.349020 -0.866667

vn 0.545098 -0.835294 -0.003922

vn 0.858824 -0.349020 -0.388235

vn 0.858824 -0.349020 0.364706

vn 0.858824 -0.349020 0.364706

vn -0.003922 -0.835294 0.545098

vn 0.380392 -0.349020 0.858824

vn -0.552941 -0.835294 -0.003922

vn -0.866667 -0.349020 0.380392

vn -0.866667 -0.349020 -0.372549

vn -0.003922 -0.835294 -0.552941

vn -0.866667 -0.349020 -0.372549

vn -0.388235 -0.349020 -0.866667

vn -0.003922 -1.000000 -0.003922

vn 0.545098 -0.835294 -0.003922

vn -0.003922 -0.835294 0.545098

vn -0.552941 -0.835294 -0.003922

vn -0.003922 -0.835294 -0.552941

vn -0.552941 -0.835294 -0.003922

vn -0.003922 -0.835294 0.545098

vn -0.003922 -0.835294 -0.552941

vn 0.545098 -0.835294 -0.003922

vn -0.552941 -0.835294 -0.003922

vn -0.372549 -0.349020 0.858824

vn -0.866667 -0.349020 0.380392

vn -0.380392 -0.003922 0.921569

vn -0.929412 -0.003922 0.380392

vn 0.364706 -0.349020 -0.866667

vn 0.545098 -0.835294 -0.003922

vn 0.858824 -0.349020 -0.388235

vn 0.372549 -0.003922 -0.929412

vn 0.858824 -0.349020 -0.388235

vn 0.921569 -0.003922 -0.388235

vn -0.380392 -0.003922 0.921569

vn 0.380392 -0.349020 0.858824

vn 0.380392 -0.003922 0.921569

vn -0.372549 -0.349020 0.858824

vn 0.380392 -0.003922 0.921569

vn 0.380392 -0.349020 0.858824

vn 0.921569 -0.003922 0.372549

vn 0.858824 -0.349020 0.364706

vn 0.921569 -0.003922 0.372549

vn 0.858824 -0.349020 -0.388235

vn 0.921569 -0.003922 -0.388235

vn 0.858824 -0.349020 0.364706

vn -0.388235 -0.003922 -0.929412

vn 0.364706 -0.349020 -0.866667

vn -0.388235 -0.349020 -0.866667

vn 0.372549 -0.003922 -0.929412

vn -0.866667 -0.349020 -0.372549

vn -0.388235 -0.003922 -0.929412

vn -0.388235 -0.349020 -0.866667

vn -0.929412 -0.003922 -0.380392

vn -0.866667 -0.349020 0.380392

vn -0.929412 -0.003922 -0.380392

vn -0.866667 -0.349020 -0.372549

vn -0.929412 -0.003922 0.380392

vn 1.000000 -0.003922 -0.003922

vn 1.000000 -0.003922 -0.003922

vn 1.000000 -0.003922 -0.003922

vn 1.000000 -0.003922 -0.003922

vn -1.000000 -0.003922 -0.003922

vn -1.000000 -0.003922 -0.003922

vn -1.000000 -0.003922 -0.003922

vn -1.000000 -0.003922 -0.003922

vn -0.003922 1.000000 -0.003922

vn -0.003922 1.000000 -0.003922

vn -0.003922 1.000000 -0.003922

vn -0.003922 1.000000 -0.003922

vn 1.000000 -0.003922 -0.003922

vn 1.000000 -0.003922 -0.003922

vn 1.000000 -0.003922 -0.003922

vn 1.000000 -0.003922 -0.003922

vn -0.003922 -1.000000 -0.003922

vn -0.003922 -1.000000 -0.003922

vn -0.003922 -1.000000 -0.003922

vn -0.003922 -1.000000 -0.003922

vn -1.000000 -0.003922 -0.003922

vn -1.000000 -0.003922 -0.003922

vn -1.000000 -0.003922 -0.003922

vn -1.000000 -0.003922 -0.003922

vn -0.003922 -1.000000 -0.003922

vn -0.003922 -1.000000 -0.003922

vn -0.003922 -1.000000 -0.003922

vn -0.003922 -1.000000 -0.003922

vn -0.003922 -0.003922 -1.000000

vn -0.003922 -0.003922 -1.000000

vn -0.003922 -0.003922 -1.000000

vn -0.003922 -0.003922 -1.000000

vn 1.000000 -0.003922 -0.003922

vn 1.000000 -0.003922 -0.003922

vn 1.000000 -0.003922 -0.003922

vn 1.000000 -0.003922 -0.003922

vn -0.003922 -0.003922 1.000000

vn -0.003922 -0.003922 1.000000

vn -0.003922 -0.003922 1.000000

vn -0.003922 -0.003922 1.000000

vn -1.000000 -0.003922 -0.003922

vn -1.000000 -0.003922 -0.003922

vn -1.000000 -0.003922 -0.003922

vn -1.000000 -0.003922 -0.003922

vn 1.000000 -0.003922 -0.003922

vn 1.000000 -0.003922 -0.003922

vn 1.000000 -0.003922 -0.003922

vn 1.000000 -0.003922 -0.003922

vn 1.000000 -0.003922 -0.003922

vn 1.000000 -0.003922 -0.003922

vn 1.000000 -0.003922 -0.003922

vn 1.000000 -0.003922 -0.003922

vn -1.000000 -0.003922 -0.003922

vn -1.000000 -0.003922 -0.003922

vn -1.000000 -0.003922 -0.003922

vn -1.000000 -0.003922 -0.003922

vn -1.000000 -0.003922 -0.003922

vn -1.000000 -0.003922 -0.003922

vn -1.000000 -0.003922 -0.003922

vn -1.000000 -0.003922 -0.003922

vn -0.003922 -0.050980 0.992157

vn -0.003922 -0.098039 0.992157

vn -0.003922 -0.098039 0.992157

vn -0.003922 -0.050980 0.992157

vn -0.003922 0.043137 0.992157

vn -0.003922 0.043137 0.992157

vn -0.003922 0.090196 0.992157

vn -0.003922 0.090196 0.992157

vn -0.003922 -0.050980 -1.000000

vn -0.003922 -0.098039 -1.000000

vn -0.003922 -0.098039 -1.000000

vn -0.003922 -0.050980 -1.000000

vn -0.003922 0.043137 -1.000000

vn -0.003922 0.043137 -1.000000

vn -0.003922 0.090196 -1.000000

vn -0.003922 0.090196 -1.000000

vn -0.003922 1.000000 -0.003922

vn -0.003922 1.000000 -0.003922

vn -0.003922 1.000000 -0.003922

vn -0.003922 1.000000 -0.003922

vn -0.003922 1.000000 -0.003922

vn -0.003922 1.000000 -0.003922

vn -0.003922 1.000000 -0.003922

vn -0.003922 1.000000 -0.003922

f 1/1/1 2/2/2 3/3/3

f 4/4/4 5/5/5 6/6/6

f 7/7/7 8/8/8 9/9/9

f 10/10/10 11/11/11 7/7/7

f 11/11/11 10/10/10 12/12/12

f 13/13/13 14/14/14 15/15/15

f 16/16/16 13/13/13 17/17/17

f 17/17/17 18/18/18 16/16/16

f 19/19/19 20/20/20 21/21/21

f 22/22/22 23/23/23 19/19/19

f 24/24/24 19/19/19 25/25/25

f 19/19/19 26/26/26 27/27/27

f 28/28/28 25/25/25 29/29/29

f 28/28/28 29/29/29 30/30/30

f 31/31/31 30/30/30 29/29/29

f 31/31/31 32/32/32 30/30/30

f 33/33/33 34/34/34 26/26/26

f 34/34/34 33/33/33 35/35/35

f 33/33/33 36/36/36 37/37/37

f 37/37/37 36/36/36 38/38/38

f 39/39/39 40/40/40 41/41/41

f 40/40/40 39/39/39 42/42/42

f 43/43/43 44/44/44 45/45/45

f 44/44/44 46/46/46 45/45/45

f 47/47/47 48/48/48 49/49/49

f 48/48/48 47/47/47 50/50/50

f 51/51/51 52/52/52 53/53/53

f 52/52/52 51/51/51 54/54/54

f 55/55/55 56/56/56 57/57/57

f 56/56/56 55/55/55 58/58/58

f 59/59/59 60/60/60 61/61/61

f 60/60/60 59/59/59 62/62/62

f 63/63/63 64/64/64 65/65/65

f 64/64/64 63/63/63 66/66/66

f 67/67/67 68/68/68 69/69/69

f 67/67/67 69/69/69 70/70/70

f 71/71/71 72/72/72 73/73/73

f 73/73/73 72/72/72 74/74/74

f 75/75/75 76/76/76 77/77/77

f 78/78/78 76/76/76 75/75/75

f 79/79/79 80/80/80 81/81/81

f 81/81/81 80/80/80 82/82/82

f 83/83/83 84/84/84 85/85/85

f 84/84/84 83/83/83 86/86/86

f 87/87/87 88/88/88 89/89/89

f 90/90/90 89/89/89 88/88/88

f 91/91/91 92/92/92 93/93/93

f 91/91/91 93/93/93 94/94/94

f 95/95/95 96/96/96 97/97/97

f 96/96/96 95/95/95 98/98/98

f 99/99/99 100/100/100 101/101/101

f 101/101/101 100/100/100 102/102/102

f 103/103/103 104/104/104 105/105/105

f 106/106/106 105/105/105 104/104/104

f 107/107/107 108/108/108 109/109/109

f 108/108/108 107/107/107 110/110/110

f 111/111/111 112/112/112 113/113/113

f 112/112/112 111/111/111 114/114/114

f 115/115/115 116/116/116 117/117/117

f 116/116/116 115/115/115 118/118/118

f 119/119/119 120/120/120 121/121/121

f 119/119/119 121/121/121 122/122/122

f 123/123/123 124/124/124 125/125/125

f 124/124/124 123/123/123 126/126/126

f 127/127/127 126/126/126 123/123/123

f 126/126/126 127/127/127 128/128/128

f 127/127/127 129/129/129 128/128/128

f 129/129/129 127/127/127 130/130/130

f 131/131/131 132/132/132 133/133/133

f 133/133/133 134/134/134 131/131/131

f 135/135/135 131/131/131 134/134/134

f 134/134/134 136/136/136 135/135/135

f 136/136/136 137/137/137 135/135/135

f 137/137/137 136/136/136 138/138/138

f 139/139/139 140/140/140 141/141/141

f 140/140/140 142/142/142 143/143/143

f 139/139/139 142/142/142 140/140/140

f 142/142/142 139/139/139 144/144/144

f 142/142/142 144/144/144 145/145/145

f 144/144/144 139/139/139 146/146/146

