# UnrealEd OBJ exporter (_Internal)



v -20.470764 11.161047 36.024902

v 0.000000 0.000000 -0.000000

v 20.470764 11.161047 36.024902

v -20.470764 11.161047 -36.024952

v 20.470764 11.161047 -36.024952

v -32.136414 14.349962 32.136353

v -20.470764 14.349962 36.024872

v 0.000000 3.188913 -0.000000

v 32.136353 14.349960 -32.136421

v 20.470764 14.349960 -36.024994

v 36.024902 14.349960 -20.470810

v 32.136353 14.349960 -32.136421

v 0.000000 3.188913 -0.000000

v -36.024902 14.349962 20.470726

v -32.136414 14.349962 32.136353

v -32.136414 11.161047 32.136398

v -36.024902 11.161047 20.470749

v 0.000000 0.000000 -0.000000

v 32.136353 11.161047 -32.136383

v 36.024902 11.161047 -20.470779

v -32.136414 11.161047 -32.136383

v -20.470764 11.161047 -36.024952

v 0.000000 0.000000 -0.000000

v 32.136353 11.161047 32.136398

v 20.470764 11.161047 36.024902

v 0.000000 0.000000 -0.000000

v 36.024902 11.161047 20.470749

v 32.136353 11.161047 32.136398

v -36.024902 11.161047 -20.470779

v -32.136414 11.161047 -32.136383

v 0.000000 0.000000 -0.000000

v 36.024902 11.161047 -20.470779

v 36.024902 11.161047 20.470749

v -36.024902 11.161047 20.470749

v -36.024902 11.161047 -20.470779

v 20.470764 11.161047 -36.024952

v 32.136353 11.161047 -32.136383

v 0.000000 0.000000 -0.000000

v -20.470764 11.161047 36.024902

v -32.136414 11.161047 32.136398

v 20.470764 14.349962 36.024872

v -20.470764 14.349962 36.024872

v -20.470764 11.161047 36.024902

v 20.470764 11.161047 36.024902

v 36.024902 14.349962 20.470726

v 36.024902 11.161047 -20.470779

v 36.024902 14.349960 -20.470810

v 36.024902 11.161047 20.470749

v -20.470764 14.349960 -36.024994

v 20.470764 11.161047 -36.024952

v -20.470764 11.161047 -36.024952

v 20.470764 14.349960 -36.024994

v -36.024902 14.349962 20.470726

v -36.024902 11.161047 -20.470779

v -36.024902 11.161047 20.470749

v -36.024902 14.349960 -20.470810

v 32.136353 14.349962 32.136353

v 20.470764 14.349962 36.024872

v 20.470764 11.161047 36.024902

v 32.136353 11.161047 32.136398

v -20.470764 14.349962 36.024872

v -32.136414 14.349962 32.136353

v -32.136414 11.161047 32.136398

v -20.470764 11.161047 36.024902

v 36.024902 14.349960 -20.470810

v 32.136353 11.161047 -32.136383

v 32.136353 14.349960 -32.136421

v 36.024902 11.161047 -20.470779

v -20.470764 11.161047 -36.024952

v -32.136414 11.161047 -32.136383

v -32.136414 14.349960 -32.136421

v -20.470764 14.349960 -36.024994

v 32.136353 14.349962 32.136353

v 36.024902 11.161047 20.470749

v 36.024902 14.349962 20.470726

v 32.136353 11.161047 32.136398

v -36.024902 11.161047 20.470749

v -32.136414 11.161047 32.136398

v -32.136414 14.349962 32.136353

v -36.024902 14.349962 20.470726

v 32.136353 11.161047 -32.136383

v 20.470764 11.161047 -36.024952

v 20.470764 14.349960 -36.024994

v 32.136353 14.349960 -32.136421

v -36.024902 14.349960 -20.470810

v -32.136414 11.161047 -32.136383

v -36.024902 11.161047 -20.470779

v -32.136414 14.349960 -32.136421

v 0.000000 3.188913 -0.000000

v -20.470764 14.349960 -36.024994

v -32.136414 14.349960 -32.136421

v 20.470764 14.349962 36.024872

v 32.136353 14.349962 32.136353

v 0.000000 3.188913 -0.000000

v -36.024902 14.349960 -20.470810

v 36.024902 14.349962 20.470726

v -36.024902 14.349962 20.470726

v -36.024902 14.349960 -20.470810

v -20.470764 14.349962 36.024872

v 20.470764 14.349962 36.024872

v 36.024902 14.349962 20.470726

v 36.024902 14.349960 -20.470810

v 20.470764 14.349960 -36.024994

v -20.470764 14.349960 -36.024994



vt 0.731445 0.373047

vt 0.735352 0.366211

vt 0.739258 0.373047

vt 0.731445 0.359375

vt 0.738770 0.359375

vt 0.595703 0.340820

vt 0.600586 0.338867

vt 0.609375 0.354492

vt 0.623047 0.368164

vt 0.618164 0.370117

vt 0.625000 0.363281

vt 0.623047 0.368164

vt 0.609375 0.354492

vt 0.593750 0.345703

vt 0.595703 0.340820

vt 0.729492 0.372070

vt 0.728516 0.370117

vt 0.735352 0.366211

vt 0.741211 0.360352

vt 0.742188 0.362305

vt 0.729492 0.360352

vt 0.731445 0.359375

vt 0.735352 0.366211

vt 0.741211 0.372070

vt 0.739258 0.373047

vt 0.735352 0.366211

vt 0.742188 0.369629

vt 0.741211 0.372070

vt 0.728516 0.362305

vt 0.729492 0.360352

vt 0.735352 0.366211

vt 0.742188 0.362305

vt 0.742188 0.369629

vt 0.728516 0.370117

vt 0.728516 0.362305

vt 0.738770 0.359375

vt 0.741211 0.360352

vt 0.735352 0.366211

vt 0.731445 0.373047

vt 0.729492 0.372070

vt 0.618164 0.338867

vt 0.600586 0.338867

vt 0.600586 0.337891

vt 0.618164 0.337891

vt 0.625000 0.345703

vt 0.625977 0.363281

vt 0.625000 0.363281

vt 0.625977 0.345703

vt 0.600586 0.369629

vt 0.618164 0.371094

vt 0.600586 0.371094

vt 0.618164 0.370117

vt 0.593750 0.345703

vt 0.592773 0.363281

vt 0.592773 0.345215

vt 0.593750 0.362793

vt 0.623047 0.340820

vt 0.618164 0.338867

vt 0.618164 0.337891

vt 0.624023 0.340332

vt 0.600586 0.338867

vt 0.595703 0.340820

vt 0.595215 0.339844

vt 0.600586 0.337891

vt 0.625000 0.363281

vt 0.623535 0.368652

vt 0.623047 0.368164

vt 0.625977 0.363281

vt 0.600586 0.371094

vt 0.595215 0.368652

vt 0.595703 0.368164

vt 0.600586 0.369629

vt 0.623047 0.340820

vt 0.625977 0.345703

vt 0.625000 0.345703

vt 0.624023 0.340332

vt 0.592773 0.345215

vt 0.595215 0.339844

vt 0.595703 0.340820

vt 0.593750 0.345703

vt 0.623535 0.368652

vt 0.618164 0.371094

vt 0.618164 0.370117

vt 0.623047 0.368164

vt 0.593750 0.362793

vt 0.595215 0.368652

vt 0.592773 0.363281

vt 0.595703 0.368164

vt 0.609375 0.354492

vt 0.600586 0.369629

vt 0.595703 0.368164

vt 0.618164 0.338867

vt 0.623047 0.340820

vt 0.609375 0.354492

vt 0.593750 0.362793

vt 0.625000 0.345703

vt 0.593750 0.345703

vt 0.593750 0.362793

vt 0.600586 0.338867

vt 0.618164 0.338867

vt 0.625000 0.345703

vt 0.625000 0.363281

vt 0.618164 0.370117

vt 0.600586 0.369629



vn -0.058823 -0.968627 0.262745

vn -0.003922 -1.000000 -0.003922

vn 0.050980 -0.968627 0.262745

vn -0.058823 -0.968627 -0.270588

vn 0.050980 -0.968627 -0.270588

vn 0.168628 0.968628 -0.176471

vn 0.050980 0.960784 -0.270588

vn -0.003922 1.000000 -0.003922

vn -0.176471 0.968628 0.168628

vn -0.058823 0.960784 0.262745

vn -0.270588 0.960784 0.050980

vn -0.176471 0.968628 0.168628

vn -0.003922 1.000000 -0.003922

vn 0.262745 0.960784 -0.058823

vn 0.168628 0.968628 -0.176471

vn -0.176471 -0.976471 0.168628

vn -0.270588 -0.968627 0.050980

vn -0.003922 -1.000000 -0.003922

vn 0.168628 -0.976471 -0.176471

vn 0.262745 -0.968627 -0.058823

vn -0.176471 -0.976471 -0.176471

vn -0.058823 -0.968627 -0.270588

vn -0.003922 -1.000000 -0.003922

vn 0.168628 -0.976471 0.168628

vn 0.050980 -0.968627 0.262745

vn -0.003922 -1.000000 -0.003922

vn 0.262745 -0.968627 0.050980

vn 0.168628 -0.976471 0.168628

vn -0.270588 -0.968627 -0.058823

vn -0.176471 -0.976471 -0.176471

vn -0.003922 -1.000000 -0.003922

vn 0.262745 -0.968627 -0.058823

vn 0.262745 -0.968627 0.050980

vn -0.270588 -0.968627 0.050980

vn -0.270588 -0.968627 -0.058823

vn 0.050980 -0.968627 -0.270588

vn 0.168628 -0.976471 -0.176471

vn -0.003922 -1.000000 -0.003922

vn -0.058823 -0.968627 0.262745

vn -0.176471 -0.976471 0.168628

vn -0.003922 -0.003922 1.000000

vn -0.003922 -0.003922 1.000000

vn -0.003922 -0.003922 1.000000

vn -0.003922 -0.003922 1.000000

vn 1.000000 -0.003922 -0.003922

vn 1.000000 -0.003922 -0.003922

vn 1.000000 -0.003922 -0.003922

vn 1.000000 -0.003922 -0.003922

vn -0.003922 -0.003922 -1.000000

vn -0.003922 -0.003922 -1.000000

vn -0.003922 -0.003922 -1.000000

vn -0.003922 -0.003922 -1.000000

vn -1.000000 -0.003922 -0.003922

vn -1.000000 -0.003922 -0.003922

vn -1.000000 -0.003922 -0.003922

vn -1.000000 -0.003922 -0.003922

vn 0.309804 -0.003922 0.945098

vn 0.309804 -0.003922 0.945098

vn 0.309804 -0.003922 0.945098

vn 0.309804 -0.003922 0.945098

vn -0.317647 -0.003922 0.945098

vn -0.317647 -0.003922 0.945098

vn -0.317647 -0.003922 0.945098

vn -0.317647 -0.003922 0.945098

vn 0.945098 -0.003922 -0.317647

vn 0.945098 -0.003922 -0.317647

vn 0.945098 -0.003922 -0.317647

vn 0.945098 -0.003922 -0.317647

vn -0.317647 -0.003922 -0.952941

vn -0.317647 -0.003922 -0.952941

vn -0.317647 -0.003922 -0.952941

vn -0.317647 -0.003922 -0.952941

vn 0.945098 -0.003922 0.309804

vn 0.945098 -0.003922 0.309804

vn 0.945098 -0.003922 0.309804

vn 0.945098 -0.003922 0.309804

vn -0.952941 -0.003922 0.309804

vn -0.952941 -0.003922 0.309804

vn -0.952941 -0.003922 0.309804

vn -0.952941 -0.003922 0.309804

vn 0.309804 -0.003922 -0.952941

vn 0.309804 -0.003922 -0.952941

vn 0.309804 -0.003922 -0.952941

vn 0.309804 -0.003922 -0.952941

vn -0.952941 -0.003922 -0.317647

vn -0.952941 -0.003922 -0.317647

vn -0.952941 -0.003922 -0.317647

vn -0.952941 -0.003922 -0.317647

vn -0.003922 1.000000 -0.003922

vn 0.050980 0.960784 0.262745

vn 0.168628 0.968628 0.168628

vn -0.058823 0.960784 -0.270588

vn -0.176471 0.968628 -0.176471

vn -0.003922 1.000000 -0.003922

vn 0.262745 0.960784 0.050980

vn -0.270588 0.960784 -0.058823

vn 0.262745 0.960784 -0.058823

vn 0.262745 0.960784 0.050980

vn 0.050980 0.960784 -0.270588

vn -0.058823 0.960784 -0.270588

vn -0.270588 0.960784 -0.058823

vn -0.270588 0.960784 0.050980

vn -0.058823 0.960784 0.262745

vn 0.050980 0.960784 0.262745

f 1/1/1 2/2/2 3/3/3

f 4/4/4 5/5/5 2/2/2

f 6/6/6 7/7/7 8/8/8

f 8/8/8 9/9/9 10/10/10

f 11/11/11 12/12/12 13/13/13

f 14/14/14 15/15/15 13/13/13

f 16/16/16 17/17/17 18/18/18

f 18/18/18 19/19/19 20/20/20

f 21/21/21 22/22/22 23/23/23

f 23/23/23 24/24/24 25/25/25

f 26/26/26 27/27/27 28/28/28

f 29/29/29 30/30/30 26/26/26

f 31/31/31 32/32/32 33/33/33

f 34/34/34 35/35/35 31/31/31

f 36/36/36 37/37/37 38/38/38

f 39/39/39 40/40/40 38/38/38

f 41/41/41 42/42/42 43/43/43

f 41/41/41 43/43/43 44/44/44

f 45/45/45 46/46/46 47/47/47

f 46/46/46 45/45/45 48/48/48

f 49/49/49 50/50/50 51/51/51

f 50/50/50 49/49/49 52/52/52

f 53/53/53 54/54/54 55/55/55

f 54/54/54 53/53/53 56/56/56

f 57/57/57 58/58/58 59/59/59

f 57/57/57 59/59/59 60/60/60

f 61/61/61 62/62/62 63/63/63

f 61/61/61 63/63/63 64/64/64

f 65/65/65 66/66/66 67/67/67

f 66/66/66 65/65/65 68/68/68

f 69/69/69 70/70/70 71/71/71

f 69/69/69 71/71/71 72/72/72

f 73/73/73 74/74/74 75/75/75

f 74/74/74 73/73/73 76/76/76

f 77/77/77 78/78/78 79/79/79

f 79/79/79 80/80/80 77/77/77

f 81/81/81 82/82/82 83/83/83

f 81/81/81 83/83/83 84/84/84

f 85/85/85 86/86/86 87/87/87

f 86/86/86 85/85/85 88/88/88

f 89/89/89 90/90/90 91/91/91

f 92/92/92 93/93/93 89/89/89

f 94/94/94 91/91/91 95/95/95

f 93/93/93 96/96/96 94/94/94

f 97/97/97 94/94/94 98/98/98

f 99/99/99 100/100/100 94/94/94

f 101/101/101 102/102/102 94/94/94

f 94/94/94 103/103/103 104/104/104

