# UnrealEd OBJ exporter (_Internal)



v -4.424316 -154.150421 7.266785

v -10.742188 -142.286209 6.326508

v -5.865234 -155.359161 7.266754

v -5.865234 -155.359009 5.386276

v -10.742188 -142.286209 6.326508

v -4.424316 -154.150269 5.386215

v -4.424316 -154.150269 5.386215

v -10.742188 -142.286209 6.326508

v -4.424316 -154.150421 7.266785

v 7.573242 -160.319809 8.206970

v -4.424316 -154.150269 5.386215

v 7.573242 -160.319748 4.445984

v -5.865234 -155.359161 7.266754

v -10.742188 -142.286209 6.326508

v -5.865234 -155.359009 5.386276

v 4.691895 -162.737228 4.446045

v 4.691895 -162.737289 8.207031

v -5.865234 -155.359009 5.386276

v 2.126465 -8.887371 10.634857

v 10.742676 -50.140041 10.634857

v 10.742676 -8.887371 10.634857

v 2.126465 -50.140041 10.634857

v 10.742676 -8.887371 10.634857

v 10.742676 -50.140041 10.634857

v 10.742676 -50.140030 2.018112

v 10.742676 -8.887361 2.018112

v 10.742676 -8.887361 2.018112

v 10.742676 -50.140030 2.018112

v 2.126465 -50.140030 2.018112

v 2.126465 -8.887361 2.018112

v 2.126465 -8.887371 10.634857

v 2.126465 -50.140030 2.018112

v 2.126465 -50.140041 10.634857

v 2.126465 -8.887361 2.018112

v 3.404297 12.832759 9.356354

v 9.464355 -8.887364 9.356354

v 9.464355 12.832759 9.356354

v 3.404297 -8.887364 9.356354

v 9.464355 9.254204 3.296646

v 9.464355 -8.887364 9.356354

v 9.464355 -8.887367 3.296646

v 9.464355 12.832759 9.356354

v 9.464355 9.254204 3.296646

v 9.464355 12.832760 -7.157471

v 9.464355 9.254206 -3.672348

v 9.464355 9.254204 3.296646

v 9.464355 -8.887367 3.296646

v 3.404297 -8.887367 3.296646

v 3.404297 9.254204 3.296646

v 3.404297 -8.887364 9.356354

v 3.404297 9.254204 3.296646

v 3.404297 -8.887367 3.296646

v 3.404297 12.832759 9.356354

v 3.404297 12.832760 -7.157471

v 3.404297 9.254204 3.296646

v 3.404297 9.254206 -3.672348

v 2.126465 -8.887371 10.634857

v 10.742676 -8.887371 10.634857

v 9.464355 -8.887364 9.356354

v 3.404297 -8.887364 9.356354

v 2.126465 -8.887371 10.634857

v 3.404297 -8.887367 3.296646

v 2.126465 -8.887361 2.018112

v 3.404297 -8.887364 9.356354

v 9.464355 -8.887367 3.296646

v 2.126465 -8.887361 2.018112

v 3.404297 -8.887367 3.296646

v 10.742676 -8.887361 2.018112

v 10.742676 -8.887371 10.634857

v 9.464355 -8.887367 3.296646

v 9.464355 -8.887364 9.356354

v 10.742676 -8.887361 2.018112

v 2.126465 -50.140041 10.634857

v 9.464355 -50.139988 9.356354

v 10.742676 -50.140041 10.634857

v 3.404297 -50.139988 9.356354

v 10.742676 -50.140041 10.634857

v 9.464355 -50.139961 3.296677

v 10.742676 -50.140030 2.018112

v 9.464355 -50.139988 9.356354

v 9.464355 -50.139961 3.296677

v 3.404297 -50.139961 3.296677

v 2.126465 -50.140030 2.018112

v 10.742676 -50.140030 2.018112

v 2.126465 -50.140041 10.634857

v 3.404297 -50.139961 3.296677

v 3.404297 -50.139988 9.356354

v 2.126465 -50.140030 2.018112

v 9.464355 12.832759 9.356354

v 9.464355 12.832760 -7.157471

v 3.404297 12.832759 9.356354

v 3.404297 12.832760 -7.157471

v 3.404297 9.254204 3.296646

v 3.404297 9.254206 -3.672348

v 9.464355 9.254204 3.296646

v 9.464355 9.254206 -3.672348

v 3.404297 -6.570271 -7.157455

v 9.464355 -6.570271 -7.157455

v 3.404297 -6.570272 -3.672348

v 9.464355 -6.570272 -3.672348

v 3.404297 -6.570271 -7.157455

v 3.404297 12.832760 -7.157471

v 9.464355 -6.570271 -7.157455

v 9.464355 12.832760 -7.157471

v 9.464355 -6.570271 -7.157455

v 9.464355 9.254206 -3.672348

v 9.464355 -6.570272 -3.672348

v 9.464355 12.832760 -7.157471

v 3.404297 9.254206 -3.672348

v 3.404297 -6.570272 -3.672348

v 9.464355 9.254206 -3.672348

v 9.464355 -6.570272 -3.672348

v 3.404297 12.832760 -7.157471

v 3.404297 -6.570271 -7.157455

v 3.404297 9.254206 -3.672348

v 3.404297 -6.570272 -3.672348

v 7.573242 -160.319809 8.206970

v -4.424316 -154.150421 7.266785

v 4.691895 -162.737289 8.207031

v -5.865234 -155.359161 7.266754

v -4.424316 -154.150269 5.386215

v 4.691895 -162.737228 4.446045

v -5.865234 -155.359009 5.386276

v 7.573242 -160.319748 4.445984

v 3.404297 -162.422333 9.356323

v 6.434570 -192.042557 6.326477

v 9.464355 -162.422333 9.356323

v 3.404297 -50.139988 9.356354

v 9.464355 -50.139988 9.356354

v 9.464355 -162.422333 9.356323

v 6.434570 -192.042557 6.326477

v 9.464355 -162.422302 3.296677

v 9.464355 -50.139988 9.356354

v 9.464355 -50.139961 3.296677

v 9.464355 -162.422302 3.296677

v 6.434570 -192.042557 6.326477

v 3.404297 -162.422302 3.296677

v 9.464355 -50.139961 3.296677

v 3.404297 -50.139961 3.296677

v 3.404297 -162.422302 3.296677

v 3.404297 -50.139988 9.356354

v 3.404297 -50.139961 3.296677

v 3.404297 -162.422333 9.356323

v 6.434570 -192.042557 6.326477



vt 0.401123 0.101563

vt 0.402100 0.104492

vt 0.400635 0.102051

vt 0.401855 0.101563

vt 0.402100 0.104492

vt 0.401367 0.101563

vt 0.401367 0.101563

vt 0.402100 0.104492

vt 0.401123 0.101563

vt 0.399902 0.099121

vt 0.401367 0.101563

vt 0.400635 0.098633

vt 0.402344 0.101563

vt 0.402100 0.104492

vt 0.401855 0.101563

vt 0.401367 0.098633

vt 0.402344 0.098633

vt 0.401855 0.101563

vt 0.267090 0.077637

vt 0.269043 0.067871

vt 0.269043 0.077637

vt 0.267090 0.067871

vt 0.269043 0.077637

vt 0.269043 0.067871

vt 0.270752 0.067871

vt 0.270752 0.077637

vt 0.270752 0.077637

vt 0.270752 0.067871

vt 0.272705 0.067871

vt 0.272705 0.077637

vt 0.267090 0.077637

vt 0.265381 0.067871

vt 0.267090 0.067871

vt 0.265381 0.077637

vt 0.407471 0.103516

vt 0.408936 0.099121

vt 0.408691 0.103516

vt 0.407227 0.099121

vt 0.409668 0.104004

vt 0.408936 0.099121

vt 0.410400 0.099609

vt 0.408691 0.103516

vt 0.409668 0.104004

vt 0.408691 0.106934

vt 0.409668 0.106934

vt 0.410400 0.142090

vt 0.410400 0.146484

vt 0.409180 0.146484

vt 0.409180 0.142090

vt 0.407227 0.099121

vt 0.406494 0.104004

vt 0.405762 0.099609

vt 0.407471 0.103516

vt 0.407471 0.106934

vt 0.406494 0.104004

vt 0.406738 0.106934

vt 0.267090 0.077637

vt 0.269043 0.077637

vt 0.269043 0.078125

vt 0.267090 0.078125

vt 0.267090 0.077637

vt 0.265381 0.078125

vt 0.265381 0.077637

vt 0.267090 0.078125

vt 0.270752 0.078125

vt 0.272705 0.077637

vt 0.272705 0.078125

vt 0.270752 0.077637

vt 0.269043 0.077637

vt 0.270752 0.078125

vt 0.269043 0.078125

vt 0.270752 0.077637

vt 0.267090 0.067871

vt 0.269043 0.067871

vt 0.269043 0.067871

vt 0.267090 0.067871

vt 0.269043 0.067871

vt 0.270752 0.067871

vt 0.270752 0.067871

vt 0.269043 0.067871

vt 0.270752 0.067871

vt 0.272705 0.067871

vt 0.272705 0.067871

vt 0.270752 0.067871

vt 0.267090 0.067871

vt 0.265381 0.067871

vt 0.267090 0.067871

vt 0.265381 0.067871

vt 0.408691 0.103516

vt 0.408691 0.106934

vt 0.407471 0.103516

vt 0.407471 0.106934

vt 0.409180 0.142090

vt 0.409180 0.140625

vt 0.410400 0.142090

vt 0.410400 0.140625

vt 0.409180 0.136230

vt 0.410400 0.136230

vt 0.409180 0.137207

vt 0.410400 0.137207

vt 0.407471 0.110840

vt 0.407471 0.106934

vt 0.408936 0.110840

vt 0.408691 0.106934

vt 0.408936 0.110840

vt 0.409668 0.106934

vt 0.409668 0.110840

vt 0.408691 0.106934

vt 0.409180 0.140625

vt 0.409180 0.137207

vt 0.410400 0.140625

vt 0.410400 0.137207

vt 0.407471 0.106934

vt 0.407471 0.110840

vt 0.406738 0.106934

vt 0.406494 0.110840

vt 0.399902 0.099121

vt 0.401123 0.101563

vt 0.399170 0.099609

vt 0.400635 0.102051

vt 0.401367 0.101563

vt 0.401367 0.098633

vt 0.401855 0.101563

vt 0.400635 0.098633

vt 0.299072 0.099609

vt 0.299072 0.094238

vt 0.300049 0.099609

vt 0.299072 0.121094

vt 0.300049 0.121094

vt 0.296631 0.099609

vt 0.297607 0.094238

vt 0.297607 0.099609

vt 0.296631 0.121094

vt 0.297607 0.121094

vt 0.297607 0.099609

vt 0.297607 0.094238

vt 0.298340 0.099609

vt 0.297607 0.121094

vt 0.298340 0.121094

vt 0.298340 0.099609

vt 0.299072 0.121094

vt 0.298340 0.121094

vt 0.299072 0.099609

vt 0.299072 0.094238



vn -0.050980 0.050980 0.992157

vn -0.050980 0.050980 0.992157

vn -0.050980 0.050980 0.992157

vn -0.050980 0.050980 -1.000000

vn -0.050980 0.050980 -1.000000

vn -0.050980 0.050980 -1.000000

vn 0.686275 0.717647 -0.003922

vn 0.882353 0.466667 -0.003922

vn 0.686275 0.717647 -0.003922

vn 0.450980 0.882353 -0.003922

vn 0.686275 0.717647 -0.003922

vn 0.450980 0.882353 -0.003922

vn -0.788235 -0.623529 -0.003922

vn -0.937255 -0.356863 -0.003922

vn -0.788235 -0.623529 -0.003922

vn -0.576471 -0.827451 -0.003922

vn -0.576471 -0.827451 -0.003922

vn -0.788235 -0.623529 -0.003922

vn -0.003922 -0.003922 1.000000

vn -0.003922 -0.003922 1.000000

vn -0.003922 -0.003922 1.000000

vn -0.003922 -0.003922 1.000000

vn 1.000000 -0.003922 -0.003922

vn 1.000000 -0.003922 -0.003922

vn 1.000000 -0.003922 -0.003922

vn 1.000000 -0.003922 -0.003922

vn -0.003922 -0.003922 -1.000000

vn -0.003922 -0.003922 -1.000000

vn -0.003922 -0.003922 -1.000000

vn -0.003922 -0.003922 -1.000000

vn -1.000000 -0.003922 -0.003922

vn -1.000000 -0.003922 -0.003922

vn -1.000000 -0.003922 -0.003922

vn -1.000000 -0.003922 -0.003922

vn -0.003922 -0.003922 1.000000

vn -0.003922 -0.003922 1.000000

vn -0.003922 -0.003922 1.000000

vn -0.003922 -0.003922 1.000000

vn 1.000000 -0.003922 -0.003922

vn 1.000000 -0.003922 -0.003922

vn 1.000000 -0.003922 -0.003922

vn 1.000000 -0.003922 -0.003922

vn 1.000000 -0.003922 -0.003922

vn 1.000000 -0.003922 -0.003922

vn 1.000000 -0.003922 -0.003922

vn -0.003922 -0.003922 -1.000000

vn -0.003922 -0.003922 -1.000000

vn -0.003922 -0.003922 -1.000000

vn -0.003922 -0.003922 -1.000000

vn -1.000000 -0.003922 -0.003922

vn -1.000000 -0.003922 -0.003922

vn -1.000000 -0.003922 -0.003922

vn -1.000000 -0.003922 -0.003922

vn -1.000000 -0.003922 -0.003922

vn -1.000000 -0.003922 -0.003922

vn -1.000000 -0.003922 -0.003922

vn -0.003922 1.000000 -0.003922

vn -0.003922 1.000000 -0.003922

vn -0.003922 1.000000 -0.003922

vn -0.003922 1.000000 -0.003922

vn -0.003922 1.000000 -0.003922

vn -0.003922 1.000000 -0.003922

vn -0.003922 1.000000 -0.003922

vn -0.003922 1.000000 -0.003922

vn -0.003922 1.000000 -0.003922

vn -0.003922 1.000000 -0.003922

vn -0.003922 1.000000 -0.003922

vn -0.003922 1.000000 -0.003922

vn -0.003922 1.000000 -0.003922

vn -0.003922 1.000000 -0.003922

vn -0.003922 1.000000 -0.003922

vn -0.003922 1.000000 -0.003922

vn -0.003922 -1.000000 -0.003922

vn -0.003922 -1.000000 -0.003922

vn -0.003922 -1.000000 -0.003922

vn -0.003922 -1.000000 -0.003922

vn -0.003922 -1.000000 -0.003922

vn -0.003922 -1.000000 -0.003922

vn -0.003922 -1.000000 -0.003922

vn -0.003922 -1.000000 -0.003922

vn -0.003922 -1.000000 -0.003922

vn -0.003922 -1.000000 -0.003922

vn -0.003922 -1.000000 -0.003922

vn -0.003922 -1.000000 -0.003922

vn -0.003922 -1.000000 -0.003922

vn -0.003922 -1.000000 -0.003922

vn -0.003922 -1.000000 -0.003922

vn -0.003922 -1.000000 -0.003922

vn -0.003922 1.000000 -0.003922

vn -0.003922 1.000000 -0.003922

vn -0.003922 1.000000 -0.003922

vn -0.003922 1.000000 -0.003922

vn -0.003922 -1.000000 -0.003922

vn -0.003922 -1.000000 -0.003922

vn -0.003922 -1.000000 -0.003922

vn -0.003922 -1.000000 -0.003922

vn -0.003922 -1.000000 -0.003922

vn -0.003922 -1.000000 -0.003922

vn -0.003922 -1.000000 -0.003922

vn -0.003922 -1.000000 -0.003922

vn -0.003922 -0.003922 -1.000000

vn -0.003922 -0.003922 -1.000000

vn -0.003922 -0.003922 -1.000000

vn -0.003922 -0.003922 -1.000000

vn 1.000000 -0.003922 -0.003922

vn 1.000000 -0.003922 -0.003922

vn 1.000000 -0.003922 -0.003922

vn 1.000000 -0.003922 -0.003922

vn -0.003922 -0.003922 1.000000

vn -0.003922 -0.003922 1.000000

vn -0.003922 -0.003922 1.000000

vn -0.003922 -0.003922 1.000000

vn -1.000000 -0.003922 -0.003922

vn -1.000000 -0.003922 -0.003922

vn -1.000000 -0.003922 -0.003922

vn -1.000000 -0.003922 -0.003922

vn -0.050980 0.050980 0.992157

vn -0.050980 0.050980 0.992157

vn -0.050980 0.050980 0.992157

vn -0.050980 0.050980 0.992157

vn -0.050980 0.050980 -1.000000

vn -0.050980 0.050980 -1.000000

vn -0.050980 0.050980 -1.000000

vn -0.050980 0.050980 -1.000000

vn -0.003922 -0.050980 0.992157

vn -0.003922 -0.105882 0.992157

vn -0.003922 -0.050980 0.992157

vn -0.003922 -0.003922 1.000000

vn -0.003922 -0.003922 1.000000

vn 0.992157 -0.050980 -0.003922

vn 0.992157 -0.105882 -0.003922

vn 0.992157 -0.050980 -0.003922

vn 1.000000 -0.003922 -0.003922

vn 1.000000 -0.003922 -0.003922

vn -0.003922 -0.050980 -1.000000

vn -0.003922 -0.105882 -1.000000

vn -0.003922 -0.050980 -1.000000

vn -0.003922 -0.003922 -1.000000

vn -0.003922 -0.003922 -1.000000

vn -1.000000 -0.050980 -0.003922

vn -1.000000 -0.003922 -0.003922

vn -1.000000 -0.003922 -0.003922

vn -1.000000 -0.050980 -0.003922

vn -1.000000 -0.105882 -0.003922

f 1/1/1 2/2/2 3/3/3

f 4/4/4 5/5/5 6/6/6

f 7/7/7 8/8/8 9/9/9

f 9/9/9 10/10/10 11/11/11

f 12/12/12 11/11/11 10/10/10

f 13/13/13 14/14/14 15/15/15

f 13/13/13 16/16/16 17/17/17

f 16/16/16 13/13/13 18/18/18

f 19/19/19 20/20/20 21/21/21

f 20/20/20 19/19/19 22/22/22

f 23/23/23 24/24/24 25/25/25

f 23/23/23 25/25/25 26/26/26

f 27/27/27 28/28/28 29/29/29

f 29/29/29 30/30/30 27/27/27

f 31/31/31 32/32/32 33/33/33

f 32/32/32 31/31/31 34/34/34

f 35/35/35 36/36/36 37/37/37

f 36/36/36 35/35/35 38/38/38

f 39/39/39 40/40/40 41/41/41

f 40/40/40 39/39/39 42/42/42

f 43/43/43 44/44/44 42/42/42

f 44/44/44 43/43/43 45/45/45

f 46/46/46 47/47/47 48/48/48

f 48/48/48 49/49/49 46/46/46

f 50/50/50 51/51/51 52/52/52

f 50/50/50 53/53/53 51/51/51

f 53/53/53 54/54/54 55/55/55

f 55/55/55 54/54/54 56/56/56

f 57/57/57 58/58/58 59/59/59

f 57/57/57 59/59/59 60/60/60

f 61/61/61 62/62/62 63/63/63

f 62/62/62 61/61/61 64/64/64

f 65/65/65 66/66/66 67/67/67

f 66/66/66 65/65/65 68/68/68

f 69/69/69 70/70/70 71/71/71

f 69/69/69 72/72/72 70/70/70

f 73/73/73 74/74/74 75/75/75

f 74/74/74 73/73/73 76/76/76

f 77/77/77 78/78/78 79/79/79

f 78/78/78 77/77/77 80/80/80

f 81/81/81 82/82/82 83/83/83

f 81/81/81 83/83/83 84/84/84

f 85/85/85 86/86/86 87/87/87

f 85/85/85 88/88/88 86/86/86

f 89/89/89 90/90/90 91/91/91

f 91/91/91 90/90/90 92/92/92

f 93/93/93 94/94/94 95/95/95

f 95/95/95 94/94/94 96/96/96

f 97/97/97 98/98/98 99/99/99

f 100/100/100 99/99/99 98/98/98

f 101/101/101 102/102/102 103/103/103

f 103/103/103 102/102/102 104/104/104

f 105/105/105 106/106/106 107/107/107

f 106/106/106 105/105/105 108/108/108

f 109/109/109 110/110/110 111/111/111

f 111/111/111 110/110/110 112/112/112

f 113/113/113 114/114/114 115/115/115

f 116/116/116 115/115/115 114/114/114

f 117/117/117 118/118/118 119/119/119

f 120/120/120 119/119/119 118/118/118

f 121/121/121 122/122/122 123/123/123

f 122/122/122 121/121/121 124/124/124

f 125/125/125 126/126/126 127/127/127

f 128/128/128 125/125/125 127/127/127

f 127/127/127 129/129/129 128/128/128

f 130/130/130 131/131/131 132/132/132

f 132/132/132 133/133/133 130/130/130

f 133/133/133 132/132/132 134/134/134

f 135/135/135 136/136/136 137/137/137

f 137/137/137 138/138/138 135/135/135

f 138/138/138 137/137/137 139/139/139

f 140/140/140 141/141/141 142/142/142

f 141/141/141 140/140/140 143/143/143

f 140/140/140 144/144/144 143/143/143

