# UnrealEd OBJ exporter (_Internal)



v 48.037964 47.434921 -0.000000

v 33.967773 47.434921 -33.968056

v 30.393799 47.434921 -30.393661

v 42.983154 47.434921 -0.000000

v 33.967773 47.434921 -33.968056

v 0.000000 47.434921 -42.983231

v 30.393799 47.434921 -30.393661

v 0.000000 47.434921 -48.038002

v 0.000000 47.434921 -42.983231

v -33.967773 47.434921 -33.968056

v -30.393799 47.434921 -30.393661

v 0.000000 47.434921 -48.038002

v -48.037964 47.434921 -0.000000

v -30.393799 47.434921 -30.393661

v -33.967773 47.434921 -33.968056

v -42.983154 47.434921 -0.000000

v -48.037964 47.434921 -0.000000

v -33.968018 47.434921 33.968056

v -30.393799 47.434921 30.393780

v -42.983154 47.434921 -0.000000

v 0.000000 47.434921 42.983173

v -30.393799 47.434921 30.393780

v -33.968018 47.434921 33.968056

v 0.000000 47.434921 48.037941

v 33.968018 47.434921 33.968056

v 0.000000 47.434921 42.983173

v 0.000000 47.434921 48.037941

v 30.393799 47.434921 30.393780

v 48.037964 47.434921 -0.000000

v 30.393799 47.434921 30.393780

v 33.968018 47.434921 33.968056

v 42.983154 47.434921 -0.000000

v 42.983154 26.019493 -0.000000

v 42.983154 47.434921 -0.000000

v 30.393799 26.019493 -30.393650

v 30.393799 47.434921 -30.393661

v 0.000000 26.019493 -42.983158

v 30.393799 47.434921 -30.393661

v 0.000000 47.434921 -42.983231

v 30.393799 26.019493 -30.393650

v -30.393799 26.019493 -30.393650

v 0.000000 47.434921 -42.983231

v -30.393799 47.434921 -30.393661

v 0.000000 26.019493 -42.983158

v -42.983154 47.434921 -0.000000

v -30.393799 26.019493 -30.393650

v -30.393799 47.434921 -30.393661

v -42.983154 26.019493 -0.000000

v -30.393799 26.019493 30.393738

v -42.983154 47.434921 -0.000000

v -30.393799 47.434921 30.393780

v -42.983154 26.019493 -0.000000

v 0.000000 26.019493 42.983246

v -30.393799 26.019493 30.393738

v -30.393799 47.434921 30.393780

v 0.000000 47.434921 42.983173

v 30.393799 26.019493 30.393738

v 0.000000 26.019493 42.983246

v 0.000000 47.434921 42.983173

v 30.393799 47.434921 30.393780

v 30.393799 26.019493 30.393738

v 42.983154 47.434921 -0.000000

v 42.983154 26.019493 -0.000000

v 30.393799 47.434921 30.393780

v 17.404419 33.191017 -54.917198

v -17.404419 33.191017 -54.917198

v -17.404419 33.191017 -61.291023

v 17.404419 33.191017 -61.291023

v -17.404419 39.371719 -54.917233

v 17.404419 39.371719 -54.917233

v 17.404419 39.371719 -61.291065

v -17.404419 39.371719 -61.291065

v 17.404419 39.371719 -54.917233

v -17.404419 39.371719 -54.917233

v -17.404419 33.191017 -54.917198

v 17.404419 33.191017 -54.917198

v 17.404419 39.371719 -54.917233

v 17.404419 33.191017 -61.291023

v 17.404419 39.371719 -61.291065

v 17.404419 33.191017 -54.917198

v -17.404419 39.371719 -61.291065

v 17.404419 33.191017 -61.291023

v -17.404419 33.191017 -61.291023

v 17.404419 39.371719 -61.291065

v -17.404419 39.371719 -54.917233

v -17.404419 33.191017 -61.291023

v -17.404419 33.191017 -54.917198

v -17.404419 39.371719 -61.291065

v 17.404419 25.480253 -37.373680

v 11.228516 25.480253 -37.373680

v 11.228516 19.299551 -37.373695

v 17.404419 19.299551 -37.373695

v -17.404419 19.299551 -37.373695

v -11.228516 25.480253 -37.373680

v -17.404419 25.480253 -37.373680

v -11.228516 19.299551 -37.373695

v 11.228516 19.299551 -37.373695

v 11.228516 33.191017 -54.917198

v 17.404419 19.299551 -37.373695

v 17.404419 33.191017 -54.917198

v 17.404419 39.371719 -54.917233

v 17.404419 25.480253 -37.373680

v 17.404419 33.191017 -54.917198

v 17.404419 19.299551 -37.373695

v 17.404419 25.480253 -37.373680

v 17.404419 39.371719 -54.917233

v 11.228516 25.480253 -37.373680

v 11.228516 39.371719 -54.917233

v 11.228516 25.480253 -37.373680

v 11.228516 33.191017 -54.917198

v 11.228516 19.299551 -37.373695

v 11.228516 39.371719 -54.917233

v -11.228516 25.480253 -37.373680

v -11.228516 39.371719 -54.917233

v -17.404419 25.480253 -37.373680

v -17.404419 39.371719 -54.917233

v -17.404419 25.480253 -37.373680

v -17.404419 33.191017 -54.917198

v -17.404419 19.299551 -37.373695

v -17.404419 39.371719 -54.917233

v -17.404419 19.299551 -37.373695

v -17.404419 33.191017 -54.917198

v -11.228516 19.299551 -37.373695

v -11.228516 33.191017 -54.917198

v -11.228516 39.371719 -54.917233

v -11.228516 25.480253 -37.373680

v -11.228516 33.191017 -54.917198

v -11.228516 19.299551 -37.373695

v 17.404419 33.191017 61.291084

v -17.404419 33.191017 61.291084

v -17.404419 33.191017 54.917259

v 17.404419 33.191017 54.917259

v -17.404419 39.371719 61.291042

v 17.404419 39.371719 61.291042

v 17.404419 39.371719 54.917217

v -17.404419 39.371719 54.917217

v -17.404419 39.371719 54.917217

v 17.404419 33.191017 54.917259

v -17.404419 33.191017 54.917259

v 17.404419 39.371719 54.917217

v -17.404419 39.371719 61.291042

v -17.404419 33.191017 54.917259

v -17.404419 33.191017 61.291084

v -17.404419 39.371719 54.917217

v 17.404419 39.371719 61.291042

v -17.404419 39.371719 61.291042

v -17.404419 33.191017 61.291084

v 17.404419 33.191017 61.291084

v 17.404419 39.371719 61.291042

v 17.404419 33.191017 54.917259

v 17.404419 39.371719 54.917217

v 17.404419 33.191017 61.291084

v -17.404419 19.299549 37.373650

v -17.404419 25.480251 37.373665

v -11.228516 19.299549 37.373650

v -11.228516 25.480251 37.373665

v 17.404419 19.299549 37.373650

v 11.228516 19.299549 37.373650

v 11.228516 25.480251 37.373665

v 17.404419 25.480251 37.373665

v -17.404419 19.299549 37.373650

v -11.228516 33.191017 54.917259

v -17.404419 33.191017 54.917259

v -11.228516 19.299549 37.373650

v -17.404419 39.371719 54.917217

v -17.404419 25.480251 37.373665

v -17.404419 33.191017 54.917259

v -17.404419 19.299549 37.373650

v -11.228516 39.371719 54.917217

v -11.228516 25.480251 37.373665

v -17.404419 39.371719 54.917217

v -17.404419 25.480251 37.373665

v -11.228516 33.191017 54.917259

v -11.228516 25.480251 37.373665

v -11.228516 39.371719 54.917217

v -11.228516 19.299549 37.373650

v 17.404419 39.371719 54.917217

v 17.404419 25.480251 37.373665

v 11.228516 39.371719 54.917217

v 11.228516 25.480251 37.373665

v 17.404419 33.191017 54.917259

v 17.404419 25.480251 37.373665

v 17.404419 39.371719 54.917217

v 17.404419 19.299549 37.373650

v 11.228516 19.299549 37.373650

v 17.404419 33.191017 54.917259

v 11.228516 33.191017 54.917259

v 17.404419 19.299549 37.373650

v 11.228516 39.371719 54.917217

v 11.228516 25.480251 37.373665

v 11.228516 33.191017 54.917259

v 11.228516 19.299549 37.373650

v 48.037964 47.434921 -0.000000

v 33.967773 -0.086111 -33.968056

v 33.967773 47.434921 -33.968056

v 48.037964 -0.086111 0.000000

v 33.968018 -0.086111 33.968002

v 33.968018 47.434921 33.968056

v 0.000000 -0.086109 48.038002

v 0.000000 47.434921 48.037941

v -33.968018 47.434921 33.968056

v -33.968018 -0.086111 33.968002

v -48.037964 47.434921 -0.000000

v -48.037964 -0.086111 0.000000

v -33.967773 -0.086111 -33.968056

v -33.967773 47.434921 -33.968056

v 0.000000 -0.086109 -48.037941

v 0.000000 47.434921 -48.038002

v 33.967773 47.434921 -33.968056

v 33.967773 -0.086111 -33.968056

v 33.967773 -0.086111 -33.968056

v -33.967773 -0.086111 -33.968056

v 0.000000 -0.086109 -48.037941

v 0.000000 -0.086109 48.038002

v 48.037964 -0.086111 0.000000

v 33.968018 -0.086111 33.968002

v -48.037964 -0.086111 0.000000

v -33.968018 -0.086111 33.968002

v 0.000000 26.019493 -42.983158

v 42.983154 26.019493 -0.000000

v 30.393799 26.019493 -30.393650

v -42.983154 26.019493 -0.000000

v -30.393799 26.019493 -30.393650

v 0.000000 26.019493 42.983246

v -30.393799 26.019493 30.393738

v 30.393799 26.019493 30.393738



vt 0.693848 0.314941

vt 0.708496 0.314941

vt 0.708496 0.316895

vt 0.693848 0.316895

vt 0.587891 0.314941

vt 0.602539 0.316895

vt 0.587891 0.316895

vt 0.602539 0.314941

vt 0.602539 0.316895

vt 0.617676 0.314941

vt 0.617676 0.316895

vt 0.602539 0.314941

vt 0.632813 0.314941

vt 0.617676 0.316895

vt 0.617676 0.314941

vt 0.632813 0.316895

vt 0.632813 0.314941

vt 0.648438 0.314941

vt 0.648438 0.316895

vt 0.632813 0.316895

vt 0.663574 0.316895

vt 0.648438 0.316895

vt 0.648438 0.314941

vt 0.663574 0.314941

vt 0.678711 0.314941

vt 0.663574 0.316895

vt 0.663574 0.314941

vt 0.678711 0.316895

vt 0.693848 0.314941

vt 0.678711 0.316895

vt 0.678711 0.314941

vt 0.693848 0.316895

vt 0.520508 0.423340

vt 0.517090 0.430664

vt 0.510742 0.414063

vt 0.503418 0.416992

vt 0.510742 0.400391

vt 0.503418 0.416992

vt 0.502930 0.396973

vt 0.510742 0.414063

vt 0.520020 0.390625

vt 0.502930 0.396973

vt 0.517090 0.383301

vt 0.510742 0.400391

vt 0.536621 0.383301

vt 0.520020 0.390625

vt 0.517090 0.383301

vt 0.533691 0.390625

vt 0.543457 0.399902

vt 0.536621 0.383301

vt 0.550781 0.396973

vt 0.533691 0.390625

vt 0.543457 0.413574

vt 0.543457 0.399902

vt 0.550781 0.396973

vt 0.550781 0.416504

vt 0.533691 0.423340

vt 0.543457 0.413574

vt 0.550781 0.416504

vt 0.537109 0.430664

vt 0.533691 0.423340

vt 0.517090 0.430664

vt 0.520508 0.423340

vt 0.537109 0.430664

vt 0.521973 0.481934

vt 0.502441 0.481934

vt 0.502441 0.478516

vt 0.521973 0.478516

vt 0.503906 0.483398

vt 0.520508 0.483398

vt 0.520508 0.485840

vt 0.503906 0.485840

vt 0.520508 0.483398

vt 0.503906 0.483398

vt 0.502441 0.481934

vt 0.521973 0.481934

vt 0.520508 0.483398

vt 0.521973 0.486816

vt 0.520508 0.485840

vt 0.521973 0.481934

vt 0.503906 0.485840

vt 0.521973 0.486816

vt 0.502441 0.486816

vt 0.520508 0.485840

vt 0.503906 0.483398

vt 0.502441 0.486816

vt 0.502441 0.481934

vt 0.503906 0.485840

vt 0.723145 0.479004

vt 0.723145 0.481445

vt 0.720703 0.482422

vt 0.720703 0.478027

vt 0.604004 0.466797

vt 0.606934 0.462891

vt 0.606934 0.465820

vt 0.604004 0.461914

vt 0.720703 0.475586

vt 0.730957 0.474609

vt 0.720703 0.478027

vt 0.730957 0.477539

vt 0.732910 0.479492

vt 0.723145 0.479004

vt 0.730957 0.477539

vt 0.720703 0.478027

vt 0.723145 0.479004

vt 0.732910 0.479492

vt 0.723145 0.481445

vt 0.732910 0.481934

vt 0.723145 0.481445

vt 0.730957 0.483887

vt 0.720703 0.482422

vt 0.732910 0.481934

vt 0.606934 0.462891

vt 0.618164 0.463379

vt 0.606934 0.465820

vt 0.618164 0.466309

vt 0.606934 0.465820

vt 0.615723 0.468750

vt 0.604004 0.466797

vt 0.618164 0.466309

vt 0.604004 0.458496

vt 0.615723 0.457520

vt 0.604004 0.461914

vt 0.616211 0.460938

vt 0.618164 0.463379

vt 0.606934 0.462891

vt 0.616211 0.460938

vt 0.604004 0.461914

vt 0.693359 0.492676

vt 0.674316 0.492676

vt 0.674316 0.488770

vt 0.693359 0.488770

vt 0.675293 0.493652

vt 0.692383 0.493652

vt 0.692383 0.496094

vt 0.675293 0.496094

vt 0.675293 0.496094

vt 0.693359 0.497559

vt 0.674316 0.497559

vt 0.692383 0.496094

vt 0.675293 0.493652

vt 0.674316 0.497559

vt 0.674316 0.492676

vt 0.675293 0.496094

vt 0.692383 0.493652

vt 0.675293 0.493652

vt 0.674316 0.492676

vt 0.693359 0.492676

vt 0.692383 0.493652

vt 0.693359 0.497559

vt 0.692383 0.496094

vt 0.693359 0.492676

vt 0.644043 0.462402

vt 0.645996 0.463379

vt 0.644043 0.466309

vt 0.645996 0.465820

vt 0.624023 0.466797

vt 0.624023 0.462891

vt 0.626465 0.463867

vt 0.626465 0.465820

vt 0.644043 0.462402

vt 0.653809 0.458984

vt 0.654297 0.461426

vt 0.643555 0.459473

vt 0.656250 0.463867

vt 0.645996 0.463379

vt 0.654297 0.461426

vt 0.644043 0.462402

vt 0.655762 0.466309

vt 0.645996 0.465820

vt 0.656250 0.463867

vt 0.645996 0.463379

vt 0.653809 0.468262

vt 0.645996 0.465820

vt 0.655762 0.466309

vt 0.644043 0.466309

vt 0.636230 0.466309

vt 0.626465 0.465820

vt 0.636230 0.463867

vt 0.626465 0.463867

vt 0.634277 0.468262

vt 0.626465 0.465820

vt 0.636230 0.466309

vt 0.624023 0.466797

vt 0.624023 0.462891

vt 0.634277 0.458984

vt 0.634277 0.461914

vt 0.624023 0.459961

vt 0.636230 0.463867

vt 0.626465 0.463867

vt 0.634277 0.461914

vt 0.624023 0.462891

vt 0.693848 0.314941

vt 0.708496 0.294922

vt 0.708496 0.314941

vt 0.693848 0.294922

vt 0.678711 0.294922

vt 0.678711 0.314941

vt 0.663574 0.294922

vt 0.663574 0.314941

vt 0.648438 0.314941

vt 0.648438 0.294922

vt 0.632813 0.314941

vt 0.632813 0.294922

vt 0.617676 0.294922

vt 0.617676 0.314941

vt 0.602539 0.294922

vt 0.602539 0.314941

vt 0.587891 0.314941

vt 0.587891 0.294922

vt 0.743652 0.386230

vt 0.739746 0.375488

vt 0.743652 0.379883

vt 0.729004 0.386230

vt 0.739258 0.390625

vt 0.733398 0.390625

vt 0.733398 0.375488

vt 0.729004 0.379883

vt 0.510742 0.400391

vt 0.520508 0.423340

vt 0.510742 0.414063

vt 0.533691 0.390625

vt 0.520020 0.390625

vt 0.543457 0.413574

vt 0.543457 0.399902

vt 0.533691 0.423340



vn -0.003922 1.000000 -0.003922

vn -0.003922 1.000000 -0.003922

vn -0.003922 1.000000 -0.003922

vn -0.003922 1.000000 -0.003922

vn -0.003922 1.000000 -0.003922

vn -0.003922 1.000000 -0.003922

vn -0.003922 1.000000 -0.003922

vn -0.003922 1.000000 -0.003922

vn -0.003922 1.000000 -0.003922

vn -0.003922 1.000000 -0.003922

vn -0.003922 1.000000 -0.003922

vn -0.003922 1.000000 -0.003922

vn -0.003922 1.000000 -0.003922

vn -0.003922 1.000000 -0.003922

vn -0.003922 1.000000 -0.003922

vn -0.003922 1.000000 -0.003922

vn -0.003922 1.000000 -0.003922

vn -0.003922 1.000000 -0.003922

vn -0.003922 1.000000 -0.003922

vn -0.003922 1.000000 -0.003922

vn -0.003922 1.000000 -0.003922

vn -0.003922 1.000000 -0.003922

vn -0.003922 1.000000 -0.003922

vn -0.003922 1.000000 -0.003922

vn -0.003922 1.000000 -0.003922

vn -0.003922 1.000000 -0.003922

vn -0.003922 1.000000 -0.003922

vn -0.003922 1.000000 -0.003922

vn -0.003922 1.000000 -0.003922

vn -0.003922 1.000000 -0.003922

vn -0.003922 1.000000 -0.003922

vn -0.003922 1.000000 -0.003922

vn -1.000000 -0.003922 -0.003922

vn -1.000000 -0.003922 -0.003922

vn -0.709804 -0.003922 0.701961

vn -0.709804 -0.003922 0.701961

vn -0.003922 -0.003922 1.000000

vn -0.709804 -0.003922 0.701961

vn -0.003922 -0.003922 1.000000

vn -0.709804 -0.003922 0.701961

vn 0.701961 -0.003922 0.701961

vn -0.003922 -0.003922 1.000000

vn 0.701961 -0.003922 0.701961

vn -0.003922 -0.003922 1.000000

vn 1.000000 -0.003922 -0.003922

vn 0.701961 -0.003922 0.701961

vn 0.701961 -0.003922 0.701961

vn 1.000000 -0.003922 -0.003922

vn 0.701961 -0.003922 -0.709804

vn 1.000000 -0.003922 -0.003922

vn 0.701961 -0.003922 -0.709804

vn 1.000000 -0.003922 -0.003922

vn -0.003922 -0.003922 -1.000000

vn 0.701961 -0.003922 -0.709804

vn 0.701961 -0.003922 -0.709804

vn -0.003922 -0.003922 -1.000000

vn -0.709804 -0.003922 -0.709804

vn -0.003922 -0.003922 -1.000000

vn -0.003922 -0.003922 -1.000000

vn -0.709804 -0.003922 -0.709804

vn -0.709804 -0.003922 -0.709804

vn -1.000000 -0.003922 -0.003922

vn -1.000000 -0.003922 -0.003922

vn -0.709804 -0.003922 -0.709804

vn -0.003922 -1.000000 -0.003922

vn -0.003922 -1.000000 -0.003922

vn -0.003922 -1.000000 -0.003922

vn -0.003922 -1.000000 -0.003922

vn -0.003922 1.000000 -0.003922

vn -0.003922 1.000000 -0.003922

vn -0.003922 1.000000 -0.003922

vn -0.003922 1.000000 -0.003922

vn -0.003922 -0.003922 1.000000

vn -0.003922 -0.003922 1.000000

vn -0.003922 -0.003922 1.000000

vn -0.003922 -0.003922 1.000000

vn 1.000000 -0.003922 -0.003922

vn 1.000000 -0.003922 -0.003922

vn 1.000000 -0.003922 -0.003922

vn 1.000000 -0.003922 -0.003922

vn -0.003922 -0.003922 -1.000000

vn -0.003922 -0.003922 -1.000000

vn -0.003922 -0.003922 -1.000000

vn -0.003922 -0.003922 -1.000000

vn -1.000000 -0.003922 -0.003922

vn -1.000000 -0.003922 -0.003922

vn -1.000000 -0.003922 -0.003922

vn -1.000000 -0.003922 -0.003922

vn -0.003922 -0.003922 1.000000

vn -0.003922 -0.003922 1.000000

vn -0.003922 -0.003922 1.000000

vn -0.003922 -0.003922 1.000000

vn -0.003922 -0.003922 1.000000

vn -0.003922 -0.003922 1.000000

vn -0.003922 -0.003922 1.000000

vn -0.003922 -0.003922 1.000000

vn -0.003922 -0.788235 -0.623529

vn -0.003922 -0.788235 -0.623529

vn -0.003922 -0.788235 -0.623529

vn -0.003922 -0.788235 -0.623529

vn 1.000000 -0.003922 -0.003922

vn 1.000000 -0.003922 -0.003922

vn 1.000000 -0.003922 -0.003922

vn 1.000000 -0.003922 -0.003922

vn -0.003922 0.780392 0.615686

vn -0.003922 0.780392 0.615686

vn -0.003922 0.780392 0.615686

vn -0.003922 0.780392 0.615686

vn -1.000000 -0.003922 -0.003922

vn -1.000000 -0.003922 -0.003922

vn -1.000000 -0.003922 -0.003922

vn -1.000000 -0.003922 -0.003922

vn -0.003922 0.780392 0.615686

vn -0.003922 0.780392 0.615686

vn -0.003922 0.780392 0.615686

vn -0.003922 0.780392 0.615686

vn -1.000000 -0.003922 -0.003922

vn -1.000000 -0.003922 -0.003922

vn -1.000000 -0.003922 -0.003922

vn -1.000000 -0.003922 -0.003922

vn -0.003922 -0.788235 -0.623529

vn -0.003922 -0.788235 -0.623529

vn -0.003922 -0.788235 -0.623529

vn -0.003922 -0.788235 -0.623529

vn 1.000000 -0.003922 -0.003922

vn 1.000000 -0.003922 -0.003922

vn 1.000000 -0.003922 -0.003922

vn 1.000000 -0.003922 -0.003922

vn -0.003922 -1.000000 -0.003922

vn -0.003922 -1.000000 -0.003922

vn -0.003922 -1.000000 -0.003922

vn -0.003922 -1.000000 -0.003922

vn -0.003922 1.000000 -0.003922

vn -0.003922 1.000000 -0.003922

vn -0.003922 1.000000 -0.003922

vn -0.003922 1.000000 -0.003922

vn -0.003922 -0.003922 -1.000000

vn -0.003922 -0.003922 -1.000000

vn -0.003922 -0.003922 -1.000000

vn -0.003922 -0.003922 -1.000000

vn -1.000000 -0.003922 -0.003922

vn -1.000000 -0.003922 -0.003922

vn -1.000000 -0.003922 -0.003922

vn -1.000000 -0.003922 -0.003922

vn -0.003922 -0.003922 1.000000

vn -0.003922 -0.003922 1.000000

vn -0.003922 -0.003922 1.000000

vn -0.003922 -0.003922 1.000000

vn 1.000000 -0.003922 -0.003922

vn 1.000000 -0.003922 -0.003922

vn 1.000000 -0.003922 -0.003922

vn 1.000000 -0.003922 -0.003922

vn -0.003922 -0.003922 -1.000000

vn -0.003922 -0.003922 -1.000000

vn -0.003922 -0.003922 -1.000000

vn -0.003922 -0.003922 -1.000000

vn -0.003922 -0.003922 -1.000000

vn -0.003922 -0.003922 -1.000000

vn -0.003922 -0.003922 -1.000000

vn -0.003922 -0.003922 -1.000000

vn -0.003922 -0.788235 0.615686

vn -0.003922 -0.788235 0.615686

vn -0.003922 -0.788235 0.615686

vn -0.003922 -0.788235 0.615686

vn -1.000000 -0.003922 -0.003922

vn -1.000000 -0.003922 -0.003922

vn -1.000000 -0.003922 -0.003922

vn -1.000000 -0.003922 -0.003922

vn -0.003922 0.780392 -0.623529

vn -0.003922 0.780392 -0.623529

vn -0.003922 0.780392 -0.623529

vn -0.003922 0.780392 -0.623529

vn 1.000000 -0.003922 -0.003922

vn 1.000000 -0.003922 -0.003922

vn 1.000000 -0.003922 -0.003922

vn 1.000000 -0.003922 -0.003922

vn -0.003922 0.780392 -0.623529

vn -0.003922 0.780392 -0.623529

vn -0.003922 0.780392 -0.623529

vn -0.003922 0.780392 -0.623529

vn 1.000000 -0.003922 -0.003922

vn 1.000000 -0.003922 -0.003922

vn 1.000000 -0.003922 -0.003922

vn 1.000000 -0.003922 -0.003922

vn -0.003922 -0.788235 0.615686

vn -0.003922 -0.788235 0.615686

vn -0.003922 -0.788235 0.615686

vn -0.003922 -0.788235 0.615686

vn -1.000000 -0.003922 -0.003922

vn -1.000000 -0.003922 -0.003922

vn -1.000000 -0.003922 -0.003922

vn -1.000000 -0.003922 -0.003922

vn 1.000000 -0.003922 -0.003922

vn 0.701961 -0.003922 -0.709804

vn 0.701961 -0.003922 -0.709804

vn 1.000000 -0.003922 -0.003922

vn 0.701961 -0.003922 0.701961

vn 0.701961 -0.003922 0.701961

vn -0.003922 -0.003922 1.000000

vn -0.003922 -0.003922 1.000000

vn -0.709804 -0.003922 0.701961

vn -0.709804 -0.003922 0.701961

vn -1.000000 -0.003922 -0.003922

vn -1.000000 -0.003922 -0.003922

vn -0.709804 -0.003922 -0.709804

vn -0.709804 -0.003922 -0.709804

vn -0.003922 -0.003922 -1.000000

vn -0.003922 -0.003922 -1.000000

vn 0.701961 -0.003922 -0.709804

vn 0.701961 -0.003922 -0.709804

vn -0.003922 -1.000000 -0.003922

vn -0.003922 -1.000000 -0.003922

vn -0.003922 -1.000000 -0.003922

vn -0.003922 -1.000000 -0.003922

vn -0.003922 -1.000000 -0.003922

vn -0.003922 -1.000000 -0.003922

vn -0.003922 -1.000000 -0.003922

vn -0.003922 -1.000000 -0.003922

vn -0.003922 1.000000 -0.003922

vn -0.003922 1.000000 -0.003922

vn -0.003922 1.000000 -0.003922

vn -0.003922 1.000000 -0.003922

vn -0.003922 1.000000 -0.003922

vn -0.003922 1.000000 -0.003922

vn -0.003922 1.000000 -0.003922

vn -0.003922 1.000000 -0.003922

f 1/1/1 2/2/2 3/3/3

f 1/1/1 3/3/3 4/4/4

f 5/5/5 6/6/6 7/7/7

f 6/6/6 5/5/5 8/8/8

f 9/9/9 10/10/10 11/11/11

f 10/10/10 9/9/9 12/12/12

f 13/13/13 14/14/14 15/15/15

f 14/14/14 13/13/13 16/16/16

f 17/17/17 18/18/18 19/19/19

f 17/17/17 19/19/19 20/20/20

f 21/21/21 22/22/22 23/23/23

f 23/23/23 24/24/24 21/21/21

f 25/25/25 26/26/26 27/27/27

f 26/26/26 25/25/25 28/28/28

f 29/29/29 30/30/30 31/31/31

f 30/30/30 29/29/29 32/32/32

f 33/33/33 34/34/34 35/35/35

f 34/34/34 36/36/36 35/35/35

f 37/37/37 38/38/38 39/39/39

f 38/38/38 37/37/37 40/40/40

f 41/41/41 42/42/42 43/43/43

f 42/42/42 41/41/41 44/44/44

f 45/45/45 46/46/46 47/47/47

f 46/46/46 45/45/45 48/48/48

f 49/49/49 50/50/50 51/51/51

f 50/50/50 49/49/49 52/52/52

f 53/53/53 54/54/54 55/55/55

f 53/53/53 55/55/55 56/56/56

f 57/57/57 58/58/58 59/59/59

f 57/57/57 59/59/59 60/60/60

f 61/61/61 62/62/62 63/63/63

f 62/62/62 61/61/61 64/64/64

f 65/65/65 66/66/66 67/67/67

f 65/65/65 67/67/67 68/68/68

f 69/69/69 70/70/70 71/71/71

f 69/69/69 71/71/71 72/72/72

f 73/73/73 74/74/74 75/75/75

f 73/73/73 75/75/75 76/76/76

f 77/77/77 78/78/78 79/79/79

f 78/78/78 77/77/77 80/80/80

f 81/81/81 82/82/82 83/83/83

f 82/82/82 81/81/81 84/84/84

f 85/85/85 86/86/86 87/87/87

f 86/86/86 85/85/85 88/88/88

f 89/89/89 90/90/90 91/91/91

f 89/89/89 91/91/91 92/92/92

f 93/93/93 94/94/94 95/95/95

f 94/94/94 93/93/93 96/96/96

f 97/97/97 98/98/98 99/99/99

f 99/99/99 98/98/98 100/100/100

f 101/101/101 102/102/102 103/103/103

f 104/104/104 103/103/103 102/102/102

f 105/105/105 106/106/106 107/107/107

f 107/107/107 106/106/106 108/108/108

f 109/109/109 110/110/110 111/111/111

f 110/110/110 109/109/109 112/112/112

f 113/113/113 114/114/114 115/115/115

f 115/115/115 114/114/114 116/116/116

f 117/117/117 118/118/118 119/119/119

f 118/118/118 117/117/117 120/120/120

f 121/121/121 122/122/122 123/123/123

f 123/123/123 122/122/122 124/124/124

f 125/125/125 126/126/126 127/127/127

f 128/128/128 127/127/127 126/126/126

f 129/129/129 130/130/130 131/131/131

f 129/129/129 131/131/131 132/132/132

f 133/133/133 134/134/134 135/135/135

f 133/133/133 135/135/135 136/136/136

f 137/137/137 138/138/138 139/139/139

f 138/138/138 137/137/137 140/140/140

f 141/141/141 142/142/142 143/143/143

f 142/142/142 141/141/141 144/144/144

f 145/145/145 146/146/146 147/147/147

f 145/145/145 147/147/147 148/148/148

f 149/149/149 150/150/150 151/151/151

f 150/150/150 149/149/149 152/152/152

f 153/153/153 154/154/154 155/155/155

f 155/155/155 154/154/154 156/156/156

f 157/157/157 158/158/158 159/159/159

f 157/157/157 159/159/159 160/160/160

f 161/161/161 162/162/162 163/163/163

f 162/162/162 161/161/161 164/164/164

f 165/165/165 166/166/166 167/167/167

f 167/167/167 166/166/166 168/168/168

f 169/169/169 170/170/170 171/171/171

f 171/171/171 170/170/170 172/172/172

f 173/173/173 174/174/174 175/175/175

f 174/174/174 173/173/173 176/176/176

f 177/177/177 178/178/178 179/179/179

f 179/179/179 178/178/178 180/180/180

f 181/181/181 182/182/182 183/183/183

f 182/182/182 181/181/181 184/184/184

f 185/185/185 186/186/186 187/187/187

f 186/186/186 185/185/185 188/188/188

f 189/189/189 190/190/190 191/191/191

f 191/191/191 190/190/190 192/192/192

f 193/193/193 194/194/194 195/195/195

f 194/194/194 193/193/193 196/196/196

f 197/197/197 196/196/196 193/193/193

f 198/198/198 197/197/197 193/193/193

f 198/198/198 199/199/199 197/197/197

f 198/198/198 200/200/200 199/199/199

f 201/201/201 199/199/199 200/200/200

f 199/199/199 201/201/201 202/202/202

f 203/203/203 202/202/202 201/201/201

f 202/202/202 203/203/203 204/204/204

f 203/203/203 205/205/205 204/204/204

f 205/205/205 203/203/203 206/206/206

f 205/205/205 206/206/206 207/207/207

f 207/207/207 206/206/206 208/208/208

f 209/209/209 207/207/207 208/208/208

f 207/207/207 209/209/209 210/210/210

f 211/211/211 212/212/212 213/213/213

f 211/211/211 214/214/214 212/212/212

f 215/215/215 214/214/214 211/211/211

f 214/214/214 215/215/215 216/216/216

f 212/212/212 214/214/214 217/217/217

f 217/217/217 214/214/214 218/218/218

f 219/219/219 220/220/220 221/221/221

f 222/222/222 219/219/219 223/223/223

f 222/222/222 220/220/220 219/219/219

f 222/222/222 224/224/224 220/220/220

f 224/224/224 222/222/222 225/225/225

f 220/220/220 224/224/224 226/226/226

