# UnrealEd OBJ exporter (_Internal)



v 33.968018 92.424141 -33.967880

v 42.983215 92.424141 -0.000000

v 48.037964 92.424141 -0.000000

v 30.393738 92.424141 -30.393776

v 30.393738 92.424141 -30.393776

v 0.000000 92.424141 -48.037941

v 0.000000 92.424141 -42.983177

v 33.968018 92.424141 -33.967880

v -30.393738 92.424141 -30.393776

v 0.000000 92.424141 -42.983177

v 0.000000 92.424141 -48.037941

v -33.968018 92.424141 -33.967880

v -42.983215 92.424141 -0.000000

v -33.968018 92.424141 -33.967880

v -48.037964 92.424141 -0.000000

v -30.393738 92.424141 -30.393776

v -48.037964 92.424141 -0.000000

v -33.968018 92.424026 33.968056

v -30.393738 92.424141 30.393780

v -42.983215 92.424141 -0.000000

v -30.393738 92.424141 30.393780

v 0.000000 92.424141 48.037998

v 0.000000 92.424141 42.983231

v -33.968018 92.424026 33.968056

v 30.393738 92.424141 30.393780

v 0.000000 92.424141 48.037998

v 33.968018 92.424026 33.968056

v 0.000000 92.424141 42.983231

v 48.037964 92.424141 -0.000000

v 30.393738 92.424141 30.393780

v 33.968018 92.424026 33.968056

v 42.983215 92.424141 -0.000000

v 30.393738 78.607971 -30.393764

v 42.983215 78.607964 -0.000000

v 42.983215 92.424141 -0.000000

v 30.393738 92.424141 -30.393776

v 30.393738 92.424141 -30.393776

v 0.000000 92.424141 -42.983177

v 0.000000 78.607971 -42.983223

v 30.393738 78.607971 -30.393764

v 0.000000 92.424141 -42.983177

v -30.393738 92.424141 -30.393776

v -30.393738 78.607971 -30.393764

v 0.000000 78.607971 -42.983223

v -42.983215 92.424141 -0.000000

v -30.393738 78.607971 -30.393764

v -30.393738 92.424141 -30.393776

v -42.983215 78.607964 -0.000000

v -30.393738 78.607964 30.393736

v -42.983215 92.424141 -0.000000

v -30.393738 92.424141 30.393780

v -42.983215 78.607964 -0.000000

v 0.000000 78.607964 42.983189

v -30.393738 78.607964 30.393736

v -30.393738 92.424141 30.393780

v 0.000000 92.424141 42.983231

v 30.393738 78.607964 30.393736

v 0.000000 78.607964 42.983189

v 0.000000 92.424141 42.983231

v 30.393738 92.424141 30.393780

v 30.393738 78.607964 30.393736

v 42.983215 92.424141 -0.000000

v 42.983215 78.607964 -0.000000

v 30.393738 92.424141 30.393780

v 17.404297 76.625626 -54.917248

v -17.404297 76.625626 -54.917248

v -17.404297 76.625626 -61.291073

v 17.404297 76.625626 -61.291073

v -17.404297 82.806213 -54.917282

v 17.404297 82.806213 -54.917282

v 17.404297 82.806213 -61.290993

v -17.404297 82.806213 -61.290993

v 17.404297 82.806213 -54.917282

v -17.404297 82.806213 -54.917282

v -17.404297 76.625626 -54.917248

v 17.404297 76.625626 -54.917248

v 17.404297 82.806213 -54.917282

v 17.404297 76.625626 -54.917248

v 17.404297 82.806213 -61.290993

v 17.404297 76.625626 -61.291073

v 17.404297 76.625626 -61.291073

v -17.404297 76.625626 -61.291073

v -17.404297 82.806213 -61.290993

v 17.404297 82.806213 -61.290993

v -17.404297 76.625626 -54.917248

v -17.404297 82.806213 -61.290993

v -17.404297 76.625626 -61.291073

v -17.404297 82.806213 -54.917282

v 17.404297 68.914917 -37.373672

v 11.228455 68.914917 -37.373672

v 11.228455 62.734219 -37.373642

v 17.404297 62.734219 -37.373642

v -17.404297 68.914917 -37.373672

v -17.404297 62.734219 -37.373642

v -11.228455 68.914917 -37.373672

v -11.228455 62.734219 -37.373642

v 11.228455 62.734219 -37.373642

v 11.228455 76.625626 -54.917362

v 17.404297 62.734219 -37.373642

v 17.404297 76.625626 -54.917362

v 17.404297 82.806328 -54.917404

v 17.404297 68.914917 -37.373672

v 17.404297 76.625626 -54.917362

v 17.404297 62.734219 -37.373642

v 17.404297 68.914917 -37.373672

v 17.404297 82.806328 -54.917404

v 11.228455 68.914917 -37.373672

v 11.228455 82.806328 -54.917404

v 11.228455 68.914917 -37.373672

v 11.228455 76.625626 -54.917362

v 11.228455 62.734219 -37.373642

v 11.228455 82.806328 -54.917404

v -11.228455 68.914917 -37.373672

v -11.228455 82.806328 -54.917404

v -17.404297 68.914917 -37.373672

v -17.404297 82.806328 -54.917404

v -17.404297 68.914917 -37.373672

v -17.404297 76.625626 -54.917362

v -17.404297 62.734219 -37.373642

v -17.404297 82.806328 -54.917404

v -17.404297 62.734219 -37.373642

v -17.404297 76.625626 -54.917362

v -11.228455 62.734219 -37.373642

v -11.228455 76.625626 -54.917362

v -11.228455 82.806328 -54.917404

v -11.228455 68.914917 -37.373672

v -11.228455 76.625626 -54.917362

v -11.228455 62.734219 -37.373642

v 17.404297 76.625626 61.291031

v -17.404297 76.625626 61.291031

v -17.404297 76.625626 54.917320

v 17.404297 76.625626 54.917320

v -17.404297 82.806206 61.290997

v 17.404297 82.806206 61.290997

v 17.404297 82.806328 54.917404

v -17.404297 82.806328 54.917404

v -17.404297 82.806328 54.917404

v 17.404297 76.625626 54.917320

v -17.404297 76.625626 54.917320

v 17.404297 82.806328 54.917404

v -17.404297 82.806206 61.290997

v -17.404297 76.625626 54.917320

v -17.404297 76.625626 61.291031

v -17.404297 82.806328 54.917404

v 17.404297 82.806206 61.290997

v -17.404297 82.806206 61.290997

v -17.404297 76.625626 61.291031

v 17.404297 76.625626 61.291031

v 17.404297 82.806206 61.290997

v 17.404297 76.625626 54.917320

v 17.404297 82.806328 54.917404

v 17.404297 76.625626 61.291031

v -17.404297 68.914917 37.373848

v -11.228455 62.734222 37.373878

v -17.404297 62.734222 37.373878

v -11.228455 68.914917 37.373848

v 17.404297 62.734222 37.373878

v 11.228455 62.734222 37.373878

v 11.228455 68.914917 37.373848

v 17.404297 68.914917 37.373848

v -17.404297 76.625626 54.917206

v -17.404297 62.734222 37.373878

v -11.228455 76.625626 54.917206

v -11.228455 62.734222 37.373878

v -17.404297 82.806206 54.917286

v -17.404297 68.914917 37.373848

v -17.404297 76.625626 54.917206

v -17.404297 62.734222 37.373878

v -11.228455 82.806206 54.917286

v -11.228455 68.914917 37.373848

v -17.404297 82.806206 54.917286

v -17.404297 68.914917 37.373848

v -11.228455 76.625626 54.917206

v -11.228455 68.914917 37.373848

v -11.228455 82.806206 54.917286

v -11.228455 62.734222 37.373878

v 17.404297 82.806206 54.917286

v 17.404297 68.914917 37.373848

v 11.228455 82.806206 54.917286

v 11.228455 68.914917 37.373848

v 17.404297 76.625626 54.917206

v 17.404297 68.914917 37.373848

v 17.404297 82.806206 54.917286

v 17.404297 62.734222 37.373878

v 11.228455 76.625626 54.917206

v 11.228455 62.734222 37.373878

v 17.404297 76.625626 54.917206

v 17.404297 62.734222 37.373878

v 11.228455 82.806206 54.917286

v 11.228455 68.914917 37.373848

v 11.228455 76.625626 54.917206

v 11.228455 62.734222 37.373878

v 48.037964 92.424141 -0.000000

v 33.968018 -0.041086 -33.967880

v 33.968018 92.424141 -33.967880

v 48.037964 -0.041087 0.000000

v 33.968018 92.424026 33.968056

v 33.968018 -0.041086 33.968002

v 0.000000 -0.041084 48.037941

v 0.000000 92.424141 48.037998

v -33.968018 92.424026 33.968056

v -33.968018 -0.041086 33.968002

v -48.037964 -0.041087 0.000000

v -48.037964 92.424141 -0.000000

v -33.968018 -0.041086 -33.967880

v -33.968018 92.424141 -33.967880

v 0.000000 -0.041084 -48.037994

v 0.000000 92.424141 -48.037941

v 33.968018 92.424141 -33.967880

v 33.968018 -0.041086 -33.967880

v 33.968018 -0.041086 -33.967880

v -33.968018 -0.041086 -33.967880

v 0.000000 -0.041084 -48.037994

v 0.000000 -0.041084 48.037941

v -48.037964 -0.041087 0.000000

v -33.968018 -0.041086 33.968002

v 48.037964 -0.041087 0.000000

v 33.968018 -0.041086 33.968002

v 0.000000 78.607971 -42.983223

v 42.983215 78.607964 -0.000000

v 30.393738 78.607971 -30.393764

v 0.000000 78.607964 42.983189

v 30.393738 78.607964 30.393736

v -42.983215 78.607964 -0.000000

v -30.393738 78.607964 30.393736

v -30.393738 78.607971 -30.393764



vt 0.708496 0.290039

vt 0.693359 0.291992

vt 0.693359 0.290039

vt 0.708496 0.291992

vt 0.587402 0.291992

vt 0.602539 0.290039

vt 0.602539 0.291992

vt 0.587402 0.290039

vt 0.617676 0.291992

vt 0.602539 0.291992

vt 0.602539 0.290039

vt 0.617676 0.290039

vt 0.632813 0.291992

vt 0.617676 0.290039

vt 0.632813 0.290039

vt 0.617676 0.291992

vt 0.632813 0.290039

vt 0.647949 0.290039

vt 0.647949 0.291992

vt 0.632813 0.291992

vt 0.647949 0.291992

vt 0.663086 0.290039

vt 0.663086 0.291992

vt 0.647949 0.290039

vt 0.678223 0.291992

vt 0.663086 0.290039

vt 0.678223 0.290039

vt 0.663086 0.291992

vt 0.693359 0.290039

vt 0.678223 0.291992

vt 0.678223 0.290039

vt 0.693359 0.291992

vt 0.591309 0.400879

vt 0.591309 0.387207

vt 0.596191 0.385254

vt 0.595703 0.402832

vt 0.595703 0.402832

vt 0.583008 0.415527

vt 0.581055 0.410645

vt 0.591309 0.400879

vt 0.583008 0.415527

vt 0.565430 0.415527

vt 0.567383 0.410645

vt 0.581055 0.410645

vt 0.552734 0.402832

vt 0.567383 0.410645

vt 0.565430 0.415527

vt 0.557617 0.400879

vt 0.557617 0.386719

vt 0.552734 0.402832

vt 0.552734 0.384766

vt 0.557617 0.400879

vt 0.567383 0.376953

vt 0.557617 0.386719

vt 0.552734 0.384766

vt 0.565430 0.372070

vt 0.581543 0.376953

vt 0.567383 0.376953

vt 0.565430 0.372070

vt 0.583496 0.372559

vt 0.581543 0.376953

vt 0.596191 0.385254

vt 0.591309 0.387207

vt 0.583496 0.372559

vt 0.720215 0.492676

vt 0.700684 0.492676

vt 0.700684 0.489258

vt 0.720215 0.489258

vt 0.702148 0.493652

vt 0.718750 0.493652

vt 0.718750 0.496094

vt 0.702148 0.496094

vt 0.718750 0.493652

vt 0.702148 0.493652

vt 0.700684 0.492676

vt 0.720215 0.492676

vt 0.718750 0.493652

vt 0.720215 0.492676

vt 0.718750 0.496094

vt 0.720215 0.497559

vt 0.720215 0.497559

vt 0.700684 0.497559

vt 0.702148 0.496094

vt 0.718750 0.496094

vt 0.700684 0.492676

vt 0.702148 0.496094

vt 0.700684 0.497559

vt 0.702148 0.493652

vt 0.664551 0.462402

vt 0.664551 0.464844

vt 0.662109 0.465820

vt 0.662109 0.461426

vt 0.710938 0.453613

vt 0.708496 0.454590

vt 0.710938 0.451172

vt 0.708496 0.450195

vt 0.662109 0.458984

vt 0.672363 0.458008

vt 0.662109 0.461426

vt 0.672363 0.460938

vt 0.674316 0.462891

vt 0.664551 0.462402

vt 0.672363 0.460938

vt 0.662109 0.461426

vt 0.664551 0.462402

vt 0.674316 0.462891

vt 0.664551 0.464844

vt 0.674316 0.465332

vt 0.664551 0.464844

vt 0.672363 0.467285

vt 0.662109 0.465820

vt 0.674316 0.465332

vt 0.710938 0.451172

vt 0.722656 0.451660

vt 0.710938 0.453613

vt 0.722656 0.454590

vt 0.710938 0.453613

vt 0.720215 0.456543

vt 0.708496 0.454590

vt 0.722656 0.454590

vt 0.708008 0.446777

vt 0.720215 0.445801

vt 0.708496 0.450195

vt 0.720215 0.449219

vt 0.722656 0.451660

vt 0.710938 0.451172

vt 0.720215 0.449219

vt 0.708496 0.450195

vt 0.746582 0.492188

vt 0.727539 0.492188

vt 0.727539 0.488770

vt 0.746582 0.488770

vt 0.729004 0.493652

vt 0.745605 0.493652

vt 0.745605 0.496094

vt 0.729004 0.496094

vt 0.729004 0.496094

vt 0.746582 0.497070

vt 0.727539 0.497070

vt 0.745605 0.496094

vt 0.729004 0.493652

vt 0.727539 0.497070

vt 0.727539 0.492188

vt 0.729004 0.496094

vt 0.745605 0.493652

vt 0.729004 0.493652

vt 0.727539 0.492188

vt 0.746582 0.492188

vt 0.745605 0.493652

vt 0.746582 0.497070

vt 0.745605 0.496094

vt 0.746582 0.492188

vt 0.631348 0.449219

vt 0.628418 0.453125

vt 0.628906 0.447754

vt 0.631348 0.451660

vt 0.682617 0.465332

vt 0.682617 0.461426

vt 0.685059 0.462402

vt 0.685059 0.464844

vt 0.641602 0.446777

vt 0.628906 0.447754

vt 0.641113 0.443359

vt 0.628418 0.444336

vt 0.644043 0.449219

vt 0.631348 0.449219

vt 0.641602 0.446777

vt 0.628906 0.447754

vt 0.644043 0.452637

vt 0.631348 0.451660

vt 0.644043 0.449219

vt 0.631348 0.449219

vt 0.641113 0.455078

vt 0.631348 0.451660

vt 0.644043 0.452637

vt 0.628418 0.453125

vt 0.694824 0.465332

vt 0.685059 0.464844

vt 0.694824 0.462891

vt 0.685059 0.462402

vt 0.692871 0.467285

vt 0.685059 0.464844

vt 0.694824 0.465332

vt 0.682617 0.465332

vt 0.692871 0.460449

vt 0.682617 0.461426

vt 0.692871 0.458008

vt 0.682617 0.458496

vt 0.694824 0.462891

vt 0.685059 0.462402

vt 0.692871 0.460449

vt 0.682617 0.461426

vt 0.693359 0.290039

vt 0.708496 0.251465

vt 0.708496 0.290039

vt 0.693359 0.251465

vt 0.678223 0.290039

vt 0.678223 0.251465

vt 0.663086 0.251465

vt 0.663086 0.290039

vt 0.647949 0.290039

vt 0.647949 0.251465

vt 0.632813 0.251465

vt 0.632813 0.290039

vt 0.617676 0.251465

vt 0.617676 0.290039

vt 0.602539 0.251465

vt 0.602539 0.290039

vt 0.587402 0.290039

vt 0.587402 0.251465

vt 0.671387 0.404785

vt 0.680176 0.408691

vt 0.674805 0.408691

vt 0.680176 0.395996

vt 0.684082 0.404785

vt 0.684082 0.399902

vt 0.671387 0.399414

vt 0.675293 0.395996

vt 0.581055 0.410645

vt 0.591309 0.387207

vt 0.591309 0.400879

vt 0.567383 0.376953

vt 0.581543 0.376953

vt 0.557617 0.400879

vt 0.557617 0.386719

vt 0.567383 0.410645



vn -0.003922 1.000000 -0.003922

vn -0.003922 1.000000 -0.003922

vn -0.003922 1.000000 -0.003922

vn -0.003922 1.000000 -0.003922

vn -0.003922 1.000000 -0.003922

vn -0.003922 1.000000 -0.003922

vn -0.003922 1.000000 -0.003922

vn -0.003922 1.000000 -0.003922

vn -0.003922 1.000000 -0.003922

vn -0.003922 1.000000 -0.003922

vn -0.003922 1.000000 -0.003922

vn -0.003922 1.000000 -0.003922

vn -0.003922 1.000000 -0.003922

vn -0.003922 1.000000 -0.003922

vn -0.003922 1.000000 -0.003922

vn -0.003922 1.000000 -0.003922

vn -0.003922 1.000000 -0.003922

vn -0.003922 1.000000 -0.003922

vn -0.003922 1.000000 -0.003922

vn -0.003922 1.000000 -0.003922

vn -0.003922 1.000000 -0.003922

vn -0.003922 1.000000 -0.003922

vn -0.003922 1.000000 -0.003922

vn -0.003922 1.000000 -0.003922

vn -0.003922 1.000000 -0.003922

vn -0.003922 1.000000 -0.003922

vn -0.003922 1.000000 -0.003922

vn -0.003922 1.000000 -0.003922

vn -0.003922 1.000000 -0.003922

vn -0.003922 1.000000 -0.003922

vn -0.003922 1.000000 -0.003922

vn -0.003922 1.000000 -0.003922

vn -0.709804 -0.003922 0.701961

vn -1.000000 -0.003922 -0.003922

vn -1.000000 -0.003922 -0.003922

vn -0.709804 -0.003922 0.701961

vn -0.709804 -0.003922 0.701961

vn -0.003922 -0.003922 1.000000

vn -0.003922 -0.003922 1.000000

vn -0.709804 -0.003922 0.701961

vn -0.003922 -0.003922 1.000000

vn 0.701961 -0.003922 0.701961

vn 0.701961 -0.003922 0.701961

vn -0.003922 -0.003922 1.000000

vn 1.000000 -0.003922 -0.003922

vn 0.701961 -0.003922 0.701961

vn 0.701961 -0.003922 0.701961

vn 1.000000 -0.003922 -0.003922

vn 0.701961 -0.003922 -0.709804

vn 1.000000 -0.003922 -0.003922

vn 0.701961 -0.003922 -0.709804

vn 1.000000 -0.003922 -0.003922

vn -0.003922 -0.003922 -1.000000

vn 0.701961 -0.003922 -0.709804

vn 0.701961 -0.003922 -0.709804

vn -0.003922 -0.003922 -1.000000

vn -0.709804 -0.003922 -0.709804

vn -0.003922 -0.003922 -1.000000

vn -0.003922 -0.003922 -1.000000

vn -0.709804 -0.003922 -0.709804

vn -0.709804 -0.003922 -0.709804

vn -1.000000 -0.003922 -0.003922

vn -1.000000 -0.003922 -0.003922

vn -0.709804 -0.003922 -0.709804

vn -0.003922 -1.000000 -0.003922

vn -0.003922 -1.000000 -0.003922

vn -0.003922 -1.000000 -0.003922

vn -0.003922 -1.000000 -0.003922

vn -0.003922 1.000000 -0.003922

vn -0.003922 1.000000 -0.003922

vn -0.003922 1.000000 -0.003922

vn -0.003922 1.000000 -0.003922

vn -0.003922 -0.003922 1.000000

vn -0.003922 -0.003922 1.000000

vn -0.003922 -0.003922 1.000000

vn -0.003922 -0.003922 1.000000

vn 1.000000 -0.003922 -0.003922

vn 1.000000 -0.003922 -0.003922

vn 1.000000 -0.003922 -0.003922

vn 1.000000 -0.003922 -0.003922

vn -0.003922 -0.003922 -1.000000

vn -0.003922 -0.003922 -1.000000

vn -0.003922 -0.003922 -1.000000

vn -0.003922 -0.003922 -1.000000

vn -1.000000 -0.003922 -0.003922

vn -1.000000 -0.003922 -0.003922

vn -1.000000 -0.003922 -0.003922

vn -1.000000 -0.003922 -0.003922

vn -0.003922 -0.003922 1.000000

vn -0.003922 -0.003922 1.000000

vn -0.003922 -0.003922 1.000000

vn -0.003922 -0.003922 1.000000

vn -0.003922 -0.003922 1.000000

vn -0.003922 -0.003922 1.000000

vn -0.003922 -0.003922 1.000000

vn -0.003922 -0.003922 1.000000

vn -0.003922 -0.788235 -0.623529

vn -0.003922 -0.788235 -0.623529

vn -0.003922 -0.788235 -0.623529

vn -0.003922 -0.788235 -0.623529

vn 1.000000 -0.003922 -0.003922

vn 1.000000 -0.003922 -0.003922

vn 1.000000 -0.003922 -0.003922

vn 1.000000 -0.003922 -0.003922

vn -0.003922 0.780392 0.615686

vn -0.003922 0.780392 0.615686

vn -0.003922 0.780392 0.615686

vn -0.003922 0.780392 0.615686

vn -1.000000 -0.003922 -0.003922

vn -1.000000 -0.003922 -0.003922

vn -1.000000 -0.003922 -0.003922

vn -1.000000 -0.003922 -0.003922

vn -0.003922 0.780392 0.615686

vn -0.003922 0.780392 0.615686

vn -0.003922 0.780392 0.615686

vn -0.003922 0.780392 0.615686

vn -1.000000 -0.003922 -0.003922

vn -1.000000 -0.003922 -0.003922

vn -1.000000 -0.003922 -0.003922

vn -1.000000 -0.003922 -0.003922

vn -0.003922 -0.788235 -0.623529

vn -0.003922 -0.788235 -0.623529

vn -0.003922 -0.788235 -0.623529

vn -0.003922 -0.788235 -0.623529

vn 1.000000 -0.003922 -0.003922

vn 1.000000 -0.003922 -0.003922

vn 1.000000 -0.003922 -0.003922

vn 1.000000 -0.003922 -0.003922

vn -0.003922 -1.000000 -0.003922

vn -0.003922 -1.000000 -0.003922

vn -0.003922 -1.000000 -0.003922

vn -0.003922 -1.000000 -0.003922

vn -0.003922 1.000000 -0.003922

vn -0.003922 1.000000 -0.003922

vn -0.003922 1.000000 -0.003922

vn -0.003922 1.000000 -0.003922

vn -0.003922 -0.003922 -1.000000

vn -0.003922 -0.003922 -1.000000

vn -0.003922 -0.003922 -1.000000

vn -0.003922 -0.003922 -1.000000

vn -1.000000 -0.003922 -0.003922

vn -1.000000 -0.003922 -0.003922

vn -1.000000 -0.003922 -0.003922

vn -1.000000 -0.003922 -0.003922

vn -0.003922 -0.003922 1.000000

vn -0.003922 -0.003922 1.000000

vn -0.003922 -0.003922 1.000000

vn -0.003922 -0.003922 1.000000

vn 1.000000 -0.003922 -0.003922

vn 1.000000 -0.003922 -0.003922

vn 1.000000 -0.003922 -0.003922

vn 1.000000 -0.003922 -0.003922

vn -0.003922 -0.003922 -1.000000

vn -0.003922 -0.003922 -1.000000

vn -0.003922 -0.003922 -1.000000

vn -0.003922 -0.003922 -1.000000

vn -0.003922 -0.003922 -1.000000

vn -0.003922 -0.003922 -1.000000

vn -0.003922 -0.003922 -1.000000

vn -0.003922 -0.003922 -1.000000

vn -0.003922 -0.788235 0.615686

vn -0.003922 -0.788235 0.615686

vn -0.003922 -0.788235 0.615686

vn -0.003922 -0.788235 0.615686

vn -1.000000 -0.003922 -0.003922

vn -1.000000 -0.003922 -0.003922

vn -1.000000 -0.003922 -0.003922

vn -1.000000 -0.003922 -0.003922

vn -0.003922 0.780392 -0.623529

vn -0.003922 0.780392 -0.623529

vn -0.003922 0.780392 -0.623529

vn -0.003922 0.780392 -0.623529

vn 1.000000 -0.003922 -0.003922

vn 1.000000 -0.003922 -0.003922

vn 1.000000 -0.003922 -0.003922

vn 1.000000 -0.003922 -0.003922

vn -0.003922 0.780392 -0.623529

vn -0.003922 0.780392 -0.623529

vn -0.003922 0.780392 -0.623529

vn -0.003922 0.780392 -0.623529

vn 1.000000 -0.003922 -0.003922

vn 1.000000 -0.003922 -0.003922

vn 1.000000 -0.003922 -0.003922

vn 1.000000 -0.003922 -0.003922

vn -0.003922 -0.788235 0.615686

vn -0.003922 -0.788235 0.615686

vn -0.003922 -0.788235 0.615686

vn -0.003922 -0.788235 0.615686

vn -1.000000 -0.003922 -0.003922

vn -1.000000 -0.003922 -0.003922

vn -1.000000 -0.003922 -0.003922

vn -1.000000 -0.003922 -0.003922

vn 1.000000 -0.003922 -0.003922

vn 0.701961 -0.003922 -0.709804

vn 0.701961 -0.003922 -0.709804

vn 1.000000 -0.003922 -0.003922

vn 0.701961 -0.003922 0.701961

vn 0.701961 -0.003922 0.701961

vn -0.003922 -0.003922 1.000000

vn -0.003922 -0.003922 1.000000

vn -0.709804 -0.003922 0.701961

vn -0.709804 -0.003922 0.701961

vn -1.000000 -0.003922 -0.003922

vn -1.000000 -0.003922 -0.003922

vn -0.709804 -0.003922 -0.709804

vn -0.709804 -0.003922 -0.709804

vn -0.003922 -0.003922 -1.000000

vn -0.003922 -0.003922 -1.000000

vn 0.701961 -0.003922 -0.709804

vn 0.701961 -0.003922 -0.709804

vn -0.003922 -1.000000 -0.003922

vn -0.003922 -1.000000 -0.003922

vn -0.003922 -1.000000 -0.003922

vn -0.003922 -1.000000 -0.003922

vn -0.003922 -1.000000 -0.003922

vn -0.003922 -1.000000 -0.003922

vn -0.003922 -1.000000 -0.003922

vn -0.003922 -1.000000 -0.003922

vn -0.003922 1.000000 -0.003922

vn -0.003922 1.000000 -0.003922

vn -0.003922 1.000000 -0.003922

vn -0.003922 1.000000 -0.003922

vn -0.003922 1.000000 -0.003922

vn -0.003922 1.000000 -0.003922

vn -0.003922 1.000000 -0.003922

vn -0.003922 1.000000 -0.003922

f 1/1/1 2/2/2 3/3/3

f 2/2/2 1/1/1 4/4/4

f 5/5/5 6/6/6 7/7/7

f 6/6/6 5/5/5 8/8/8

f 9/9/9 10/10/10 11/11/11

f 11/11/11 12/12/12 9/9/9

f 13/13/13 14/14/14 15/15/15

f 14/14/14 13/13/13 16/16/16

f 17/17/17 18/18/18 19/19/19

f 17/17/17 19/19/19 20/20/20

f 21/21/21 22/22/22 23/23/23

f 22/22/22 21/21/21 24/24/24

f 25/25/25 26/26/26 27/27/27

f 26/26/26 25/25/25 28/28/28

f 29/29/29 30/30/30 31/31/31

f 30/30/30 29/29/29 32/32/32

f 33/33/33 34/34/34 35/35/35

f 35/35/35 36/36/36 33/33/33

f 37/37/37 38/38/38 39/39/39

f 37/37/37 39/39/39 40/40/40

f 41/41/41 42/42/42 43/43/43

f 41/41/41 43/43/43 44/44/44

f 45/45/45 46/46/46 47/47/47

f 46/46/46 45/45/45 48/48/48

f 49/49/49 50/50/50 51/51/51

f 50/50/50 49/49/49 52/52/52

f 53/53/53 54/54/54 55/55/55

f 53/53/53 55/55/55 56/56/56

f 57/57/57 58/58/58 59/59/59

f 57/57/57 59/59/59 60/60/60

f 61/61/61 62/62/62 63/63/63

f 62/62/62 61/61/61 64/64/64

f 65/65/65 66/66/66 67/67/67

f 65/65/65 67/67/67 68/68/68

f 69/69/69 70/70/70 71/71/71

f 69/69/69 71/71/71 72/72/72

f 73/73/73 74/74/74 75/75/75

f 73/73/73 75/75/75 76/76/76

f 77/77/77 78/78/78 79/79/79

f 78/78/78 80/80/80 79/79/79

f 81/81/81 82/82/82 83/83/83

f 81/81/81 83/83/83 84/84/84

f 85/85/85 86/86/86 87/87/87

f 86/86/86 85/85/85 88/88/88

f 89/89/89 90/90/90 91/91/91

f 89/89/89 91/91/91 92/92/92

f 93/93/93 94/94/94 95/95/95

f 95/95/95 94/94/94 96/96/96

f 97/97/97 98/98/98 99/99/99

f 99/99/99 98/98/98 100/100/100

f 101/101/101 102/102/102 103/103/103

f 104/104/104 103/103/103 102/102/102

f 105/105/105 106/106/106 107/107/107

f 107/107/107 106/106/106 108/108/108

f 109/109/109 110/110/110 111/111/111

f 110/110/110 109/109/109 112/112/112

f 113/113/113 114/114/114 115/115/115

f 115/115/115 114/114/114 116/116/116

f 117/117/117 118/118/118 119/119/119

f 118/118/118 117/117/117 120/120/120

f 121/121/121 122/122/122 123/123/123

f 123/123/123 122/122/122 124/124/124

f 125/125/125 126/126/126 127/127/127

f 128/128/128 127/127/127 126/126/126

f 129/129/129 130/130/130 131/131/131

f 129/129/129 131/131/131 132/132/132

f 133/133/133 134/134/134 135/135/135

f 133/133/133 135/135/135 136/136/136

f 137/137/137 138/138/138 139/139/139

f 138/138/138 137/137/137 140/140/140

f 141/141/141 142/142/142 143/143/143

f 142/142/142 141/141/141 144/144/144

f 145/145/145 146/146/146 147/147/147

f 145/145/145 147/147/147 148/148/148

f 149/149/149 150/150/150 151/151/151

f 150/150/150 149/149/149 152/152/152

f 153/153/153 154/154/154 155/155/155

f 154/154/154 153/153/153 156/156/156

f 157/157/157 158/158/158 159/159/159

f 157/157/157 159/159/159 160/160/160

f 161/161/161 162/162/162 163/163/163

f 163/163/163 162/162/162 164/164/164

f 165/165/165 166/166/166 167/167/167

f 167/167/167 166/166/166 168/168/168

f 169/169/169 170/170/170 171/171/171

f 171/171/171 170/170/170 172/172/172

f 173/173/173 174/174/174 175/175/175

f 174/174/174 173/173/173 176/176/176

f 177/177/177 178/178/178 179/179/179

f 179/179/179 178/178/178 180/180/180

f 181/181/181 182/182/182 183/183/183

f 182/182/182 181/181/181 184/184/184

f 185/185/185 186/186/186 187/187/187

f 187/187/187 186/186/186 188/188/188

f 189/189/189 190/190/190 191/191/191

f 191/191/191 190/190/190 192/192/192

f 193/193/193 194/194/194 195/195/195

f 194/194/194 193/193/193 196/196/196

f 197/197/197 196/196/196 193/193/193

f 196/196/196 197/197/197 198/198/198

f 197/197/197 199/199/199 198/198/198

f 200/200/200 199/199/199 197/197/197

f 201/201/201 199/199/199 200/200/200

f 199/199/199 201/201/201 202/202/202

f 201/201/201 203/203/203 202/202/202

f 203/203/203 201/201/201 204/204/204

f 204/204/204 205/205/205 203/203/203

f 205/205/205 204/204/204 206/206/206

f 205/205/205 206/206/206 207/207/207

f 207/207/207 206/206/206 208/208/208

f 209/209/209 207/207/207 208/208/208

f 207/207/207 209/209/209 210/210/210

f 211/211/211 212/212/212 213/213/213

f 212/212/212 211/211/211 214/214/214

f 212/212/212 214/214/214 215/215/215

f 215/215/215 214/214/214 216/216/216

f 217/217/217 214/214/214 211/211/211

f 214/214/214 217/217/217 218/218/218

f 219/219/219 220/220/220 221/221/221

f 220/220/220 222/222/222 223/223/223

f 219/219/219 222/222/222 220/220/220

f 222/222/222 219/219/219 224/224/224

f 222/222/222 224/224/224 225/225/225

f 224/224/224 219/219/219 226/226/226

