# UnrealEd OBJ exporter (_Internal)



v 1.746338 -2.482339 21.132813

v 1.746338 -2.482336 38.794922

v -3.218201 -2.482336 38.794922

v -3.218201 -2.482339 21.132813

v 1.746338 2.482330 38.794922

v 1.746338 2.482331 21.132813

v -3.218201 2.482330 38.794922

v -3.218201 2.482331 21.132813

v 1.746338 2.482330 38.794922

v -3.218201 2.482330 38.794922

v -3.218201 -2.482336 38.794922

v 1.746338 -2.482336 38.794922

v 1.746338 2.482331 21.132813

v 1.746338 2.482330 38.794922

v 1.746338 -2.482336 38.794922

v 1.746338 -2.482339 21.132813

v -3.218201 -2.482336 38.794922

v -3.218201 2.482331 21.132813

v -3.218201 -2.482339 21.132813

v -3.218201 2.482330 38.794922

v 1.746338 -2.482336 -38.794922

v 1.746338 -2.482331 -21.132813

v -3.218201 -2.482331 -21.132813

v -3.218201 -2.482336 -38.794922

v 1.746338 2.482335 -21.132813

v 1.746338 2.482336 -38.794922

v -3.218201 2.482335 -21.132813

v -3.218201 2.482336 -38.794922

v 1.746338 2.482336 -38.794922

v 1.746338 2.482335 -21.132813

v 1.746338 -2.482331 -21.132813

v 1.746338 -2.482336 -38.794922

v -3.218201 -2.482336 -38.794922

v -3.218201 2.482336 -38.794922

v 1.746338 -2.482336 -38.794922

v 1.746338 2.482336 -38.794922

v -3.218201 -2.482331 -21.132813

v -3.218201 2.482336 -38.794922

v -3.218201 -2.482336 -38.794922

v -3.218201 2.482335 -21.132813

v -6.970581 -4.529773 24.748779

v -6.970581 -4.529773 -25.024689

v 1.645508 -7.329317 24.748779

v 1.645508 -7.329315 -25.024689

v 6.970581 -0.000002 24.748749

v 6.970581 0.000002 -25.024689

v 1.645508 7.329315 24.748749

v 1.645508 7.329317 -25.024689

v -6.970581 4.529766 24.748749

v -6.970581 4.529766 -25.024689

v -6.970581 -4.529773 -25.024689

v -6.970581 -4.529773 24.748779

v -6.970581 4.529766 -25.024689

v 1.645508 -7.329315 -25.024689

v -6.970581 -4.529773 -25.024689

v 6.970581 0.000002 -25.024689

v 1.645508 7.329317 -25.024689

v -6.970581 4.529766 24.748749

v 6.970581 -0.000002 24.748749

v 1.645508 7.329315 24.748749

v -6.970581 -4.529773 24.748779

v 1.645508 -7.329317 24.748779



vt 0.729492 0.443848

vt 0.730469 0.452148

vt 0.728027 0.452637

vt 0.727051 0.444336

vt 0.731445 0.451172

vt 0.731934 0.443848

vt 0.733398 0.451172

vt 0.734375 0.443848

vt 0.731445 0.451172

vt 0.733398 0.451172

vt 0.733887 0.452637

vt 0.730469 0.452148

vt 0.731934 0.443848

vt 0.731445 0.451172

vt 0.730469 0.452148

vt 0.729492 0.443848

vt 0.733887 0.452637

vt 0.734375 0.443848

vt 0.736328 0.444336

vt 0.733398 0.451172

vt 0.599609 0.456055

vt 0.598145 0.445801

vt 0.601074 0.445313

vt 0.602539 0.456055

vt 0.606934 0.445313

vt 0.605469 0.454590

vt 0.604004 0.444824

vt 0.603516 0.454590

vt 0.605469 0.454590

vt 0.606934 0.445313

vt 0.609863 0.445801

vt 0.606934 0.456055

vt 0.602539 0.456055

vt 0.603516 0.454590

vt 0.606934 0.456055

vt 0.605469 0.454590

vt 0.601074 0.445313

vt 0.603516 0.454590

vt 0.602539 0.456055

vt 0.604004 0.444824

vt 0.743652 0.338379

vt 0.722656 0.338379

vt 0.743652 0.334473

vt 0.722656 0.334961

vt 0.743652 0.331055

vt 0.722656 0.331055

vt 0.743164 0.327148

vt 0.722656 0.327148

vt 0.743164 0.323242

vt 0.722656 0.323242

vt 0.722656 0.319824

vt 0.743164 0.319824

vt 0.547363 0.345215

vt 0.555176 0.339844

vt 0.553223 0.345215

vt 0.550293 0.336426

vt 0.545898 0.339844

vt 0.544922 0.378418

vt 0.546875 0.385742

vt 0.543457 0.382813

vt 0.549316 0.378418

vt 0.550781 0.382813



vn 0.701961 -0.709804 -0.003922

vn 0.576471 -0.584314 0.576471

vn -0.584314 -0.584314 0.576471

vn -0.709804 -0.709804 -0.003922

vn 0.576471 0.576471 0.576471

vn 0.701961 0.701961 -0.003922

vn -0.584314 0.576471 0.576471

vn -0.709804 0.701961 -0.003922

vn 0.576471 0.576471 0.576471

vn -0.584314 0.576471 0.576471

vn -0.584314 -0.584314 0.576471

vn 0.576471 -0.584314 0.576471

vn 0.701961 0.701961 -0.003922

vn 0.576471 0.576471 0.576471

vn 0.576471 -0.584314 0.576471

vn 0.701961 -0.709804 -0.003922

vn -0.584314 -0.584314 0.576471

vn -0.709804 0.701961 -0.003922

vn -0.709804 -0.709804 -0.003922

vn -0.584314 0.576471 0.576471

vn 0.576471 -0.584314 -0.584314

vn 0.701961 -0.709804 -0.003922

vn -0.709804 -0.709804 -0.003922

vn -0.584314 -0.584314 -0.584314

vn 0.701961 0.701961 -0.003922

vn 0.576471 0.576471 -0.584314

vn -0.709804 0.701961 -0.003922

vn -0.584314 0.576471 -0.584314

vn 0.576471 0.576471 -0.584314

vn 0.701961 0.701961 -0.003922

vn 0.701961 -0.709804 -0.003922

vn 0.576471 -0.584314 -0.584314

vn -0.584314 -0.584314 -0.584314

vn -0.584314 0.576471 -0.584314

vn 0.576471 -0.584314 -0.584314

vn 0.576471 0.576471 -0.584314

vn -0.709804 -0.709804 -0.003922

vn -0.584314 0.576471 -0.584314

vn -0.584314 -0.584314 -0.584314

vn -0.709804 0.701961 -0.003922

vn -0.811765 -0.592157 -0.003922

vn -0.811765 -0.592157 -0.003922

vn 0.301961 -0.952941 -0.003922

vn 0.301961 -0.952941 -0.003922

vn 1.000000 -0.003922 -0.003922

vn 1.000000 -0.003922 -0.003922

vn 0.301961 0.945098 -0.003922

vn 0.301961 0.945098 -0.003922

vn -0.811765 0.584314 -0.003922

vn -0.811765 0.584314 -0.003922

vn -0.811765 -0.592157 -0.003922

vn -0.811765 -0.592157 -0.003922

vn -0.003922 -0.003922 -1.000000

vn -0.003922 -0.003922 -1.000000

vn -0.003922 -0.003922 -1.000000

vn -0.003922 -0.003922 -1.000000

vn -0.003922 -0.003922 -1.000000

vn -0.003922 -0.003922 1.000000

vn -0.003922 -0.003922 1.000000

vn -0.003922 -0.003922 1.000000

vn -0.003922 -0.003922 1.000000

vn -0.003922 -0.003922 1.000000

f 1/1/1 2/2/2 3/3/3

f 3/3/3 4/4/4 1/1/1

f 5/5/5 6/6/6 7/7/7

f 7/7/7 6/6/6 8/8/8

f 9/9/9 10/10/10 11/11/11

f 9/9/9 11/11/11 12/12/12

f 13/13/13 14/14/14 15/15/15

f 15/15/15 16/16/16 13/13/13

f 17/17/17 18/18/18 19/19/19

f 18/18/18 17/17/17 20/20/20

f 21/21/21 22/22/22 23/23/23

f 23/23/23 24/24/24 21/21/21

f 25/25/25 26/26/26 27/27/27

f 27/27/27 26/26/26 28/28/28

f 29/29/29 30/30/30 31/31/31

f 31/31/31 32/32/32 29/29/29

f 33/33/33 34/34/34 35/35/35

f 35/35/35 34/34/34 36/36/36

f 37/37/37 38/38/38 39/39/39

f 38/38/38 37/37/37 40/40/40

f 41/41/41 42/42/42 43/43/43

f 43/43/43 42/42/42 44/44/44

f 43/43/43 44/44/44 45/45/45

f 45/45/45 44/44/44 46/46/46

f 45/45/45 46/46/46 47/47/47

f 47/47/47 46/46/46 48/48/48

f 47/47/47 48/48/48 49/49/49

f 49/49/49 48/48/48 50/50/50

f 51/51/51 49/49/49 50/50/50

f 49/49/49 51/51/51 52/52/52

f 53/53/53 54/54/54 55/55/55

f 53/53/53 56/56/56 54/54/54

f 56/56/56 53/53/53 57/57/57

f 58/58/58 59/59/59 60/60/60

f 59/59/59 58/58/58 61/61/61

f 59/59/59 61/61/61 62/62/62

