# UnrealEd OBJ exporter (_Internal)



v 5.334747 6.764236 -26.051971

v 2.713257 2.064760 -24.886871

v 0.000000 6.764238 -27.265961

v 2.713257 2.064760 -24.886871

v -2.713226 2.064760 -24.886871

v 0.000000 6.764238 -27.265961

v -2.713226 2.064760 -24.886871

v -5.334717 6.764233 -26.051971

v 0.000000 6.764238 -27.265961

v -5.334717 6.764233 -26.051971

v -2.667389 11.384247 -26.052002

v 0.000000 6.764238 -27.265961

v -2.667389 11.384247 -26.052002

v 2.667389 11.384245 -26.051941

v 0.000000 6.764238 -27.265961

v 2.667389 11.384245 -26.051941

v 5.334747 6.764236 -26.051971

v 0.000000 6.764238 -27.265961

v 2.666779 2.145275 26.067078

v 5.333527 6.764244 26.067017

v 0.000000 6.764234 27.265930

v 5.333527 6.764244 26.067017

v 2.666779 11.383202 26.067017

v 0.000000 6.764234 27.265930

v 2.666779 11.383202 26.067017

v -2.666748 11.383202 26.067017

v 0.000000 6.764234 27.265930

v -2.666748 11.383202 26.067017

v -5.333496 6.764244 26.067017

v 0.000000 6.764234 27.265930

v -5.333496 6.764244 26.067017

v -2.666748 2.145275 26.067078

v 0.000000 6.764234 27.265930

v -2.666748 2.145275 26.067078

v 2.666779 2.145275 26.067078

v 0.000000 6.764234 27.265930

v 3.945282 -0.069170 -7.712616

v 3.945068 -0.068774 7.727692

v -3.945038 -0.068778 7.727692

v -3.945251 -0.069166 -7.712616

v -3.945251 13.597624 -7.712646

v -3.945038 13.597251 7.727692

v 3.945068 13.597251 7.727692

v 3.945282 13.597624 -7.712646

v 3.945068 13.597251 7.727692

v 7.890533 6.764235 -7.712616

v 3.945282 13.597624 -7.712646

v 7.890106 6.764244 7.727722

v 2.713257 2.064760 -24.886871

v 6.966583 6.764242 -23.152924

v 3.483307 0.730996 -23.153015

v 5.334747 6.764236 -26.051971

v 2.666779 2.145275 26.067078

v 6.965240 6.764237 23.168030

v 5.333527 6.764244 26.067017

v 3.482635 0.732173 23.168030

v 2.713257 2.064760 -24.886871

v -3.483276 0.730996 -23.153015

v -2.713226 2.064760 -24.886871

v 3.483307 0.730996 -23.153015

v 3.482635 0.732173 23.168030

v -2.666748 2.145275 26.067078

v -3.482605 0.732173 23.168030

v 2.666779 2.145275 26.067078

v -5.334717 6.764233 -26.051971

v -2.713226 2.064760 -24.886871

v -6.966553 6.764240 -23.152985

v -3.483276 0.730996 -23.153015

v -6.965210 6.764237 23.168030

v -2.666748 2.145275 26.067078

v -5.333496 6.764244 26.067017

v -3.482605 0.732173 23.168030

v -2.667389 11.384247 -26.052002

v -6.966553 6.764240 -23.152985

v -3.483276 12.797491 -23.152985

v -5.334717 6.764233 -26.051971

v -2.666748 11.383202 26.067017

v -6.965210 6.764237 23.168030

v -5.333496 6.764244 26.067017

v -3.482605 12.796310 23.168030

v 2.667389 11.384245 -26.051941

v -3.483276 12.797491 -23.152985

v 3.483307 12.797491 -23.152985

v -2.667389 11.384247 -26.052002

v -3.482605 12.796310 23.168030

v 2.666779 11.383202 26.067017

v 3.482635 12.796310 23.168030

v -2.666748 11.383202 26.067017

v 3.483307 12.797491 -23.152985

v 6.966583 6.764242 -23.152924

v 2.667389 11.384245 -26.051941

v 5.334747 6.764236 -26.051971

v 6.965240 6.764237 23.168030

v 2.666779 11.383202 26.067017

v 5.333527 6.764244 26.067017

v 3.482635 12.796310 23.168030

v 7.890533 6.764235 -7.712616

v 3.483307 0.730996 -23.153015

v 6.966583 6.764242 -23.152924

v 3.945282 -0.069170 -7.712616

v 3.482635 0.732173 23.168030

v 7.890106 6.764244 7.727722

v 6.965240 6.764237 23.168030

v 3.945068 -0.068774 7.727692

v 3.483307 0.730996 -23.153015

v 3.945282 -0.069170 -7.712616

v -3.945251 -0.069166 -7.712616

v -3.483276 0.730996 -23.153015

v -3.482605 0.732173 23.168030

v -7.890045 6.764244 7.727722

v -3.945038 -0.068778 7.727692

v -6.965210 6.764237 23.168030

v -7.890533 6.764233 -7.712616

v -3.483276 12.797491 -23.152985

v -6.966553 6.764240 -23.152985

v -3.945251 13.597624 -7.712646

v -3.483276 12.797491 -23.152985

v -3.945251 13.597624 -7.712646

v 3.945282 13.597624 -7.712646

v 3.483307 12.797491 -23.152985

v 3.482635 12.796310 23.168030

v -3.945038 13.597251 7.727692

v -3.482605 12.796310 23.168030

v 3.945068 13.597251 7.727692

v 3.483307 12.797491 -23.152985

v 3.945282 13.597624 -7.712646

v 7.890533 6.764235 -7.712616

v 6.966583 6.764242 -23.152924

v 3.482635 12.796310 23.168030

v 7.890106 6.764244 7.727722

v 3.945068 13.597251 7.727692

v 6.965240 6.764237 23.168030

v -3.945038 -0.068778 7.727692

v -7.890533 6.764233 -7.712616

v -3.945251 -0.069166 -7.712616

v -7.890045 6.764244 7.727722

v -3.482605 12.796310 23.168030

v -3.945038 13.597251 7.727692

v -6.965210 6.764237 23.168030

v 3.945068 -0.068774 7.727692

v -3.482605 0.732173 23.168030

v 3.482635 0.732173 23.168030

v 7.890533 6.764235 -7.712616

v 7.890106 6.764244 7.727722

v 3.945282 -0.069170 -7.712616

v -7.890533 6.764233 -7.712616

v -7.890045 6.764244 7.727722

v -3.945038 13.597251 7.727692

v -3.945251 13.597624 -7.712646

v -6.966553 6.764240 -23.152985

v -3.483276 0.730996 -23.153015

v -3.945251 -0.069166 -7.712616



vt 0.401855 0.389648

vt 0.404297 0.387695

vt 0.407227 0.391602

vt 0.404297 0.387695

vt 0.407471 0.387207

vt 0.407227 0.391602

vt 0.407471 0.387207

vt 0.410400 0.388672

vt 0.407227 0.391602

vt 0.410400 0.388672

vt 0.412842 0.389648

vt 0.407227 0.391602

vt 0.412842 0.389648

vt 0.414551 0.392578

vt 0.407227 0.391602

vt 0.400146 0.392578

vt 0.401855 0.389648

vt 0.407227 0.391602

vt 0.404541 0.349121

vt 0.402100 0.347656

vt 0.407471 0.345703

vt 0.402100 0.347656

vt 0.400391 0.345215

vt 0.407471 0.345703

vt 0.414795 0.345215

vt 0.412842 0.347656

vt 0.407471 0.345703

vt 0.412842 0.347656

vt 0.410400 0.349121

vt 0.407471 0.345703

vt 0.410400 0.349121

vt 0.407471 0.349609

vt 0.407471 0.345703

vt 0.407471 0.349609

vt 0.404541 0.349121

vt 0.407471 0.345703

vt 0.403809 0.375000

vt 0.403809 0.362793

vt 0.407471 0.362793

vt 0.407471 0.375000

vt 0.414551 0.375000

vt 0.414551 0.362793

vt 0.418701 0.362305

vt 0.418701 0.375488

vt 0.396240 0.361816

vt 0.400146 0.375000

vt 0.396240 0.375488

vt 0.400146 0.362305

vt 0.404297 0.387695

vt 0.400146 0.387207

vt 0.403809 0.386719

vt 0.401855 0.389648

vt 0.404541 0.349121

vt 0.400146 0.350098

vt 0.402100 0.347656

vt 0.403809 0.350586

vt 0.404297 0.387695

vt 0.407471 0.386719

vt 0.407471 0.387207

vt 0.403809 0.386719

vt 0.403809 0.350586

vt 0.407471 0.349609

vt 0.407471 0.351074

vt 0.404541 0.349121

vt 0.410400 0.388672

vt 0.407471 0.387207

vt 0.411133 0.386719

vt 0.407471 0.386719

vt 0.411133 0.351074

vt 0.407471 0.349609

vt 0.410400 0.349121

vt 0.407471 0.351074

vt 0.412842 0.389648

vt 0.411133 0.386719

vt 0.414551 0.387207

vt 0.410400 0.388672

vt 0.412842 0.347656

vt 0.411133 0.351074

vt 0.410400 0.349121

vt 0.414551 0.350098

vt 0.414551 0.392578

vt 0.414551 0.387207

vt 0.418457 0.388672

vt 0.412842 0.389648

vt 0.414551 0.350098

vt 0.414795 0.345215

vt 0.418701 0.348633

vt 0.412842 0.347656

vt 0.396240 0.388672

vt 0.400146 0.387207

vt 0.400146 0.392578

vt 0.401855 0.389648

vt 0.400146 0.350098

vt 0.400391 0.345215

vt 0.402100 0.347656

vt 0.396240 0.348633

vt 0.400146 0.375000

vt 0.403809 0.386719

vt 0.400146 0.387207

vt 0.403809 0.375000

vt 0.403809 0.350586

vt 0.400146 0.362305

vt 0.400146 0.350098

vt 0.403809 0.362793

vt 0.403809 0.386719

vt 0.403809 0.375000

vt 0.407471 0.375000

vt 0.407471 0.386719

vt 0.407471 0.351074

vt 0.411133 0.362793

vt 0.407471 0.362793

vt 0.411133 0.351074

vt 0.411133 0.375000

vt 0.414551 0.387207

vt 0.411133 0.386719

vt 0.414551 0.375000

vt 0.414551 0.387207

vt 0.414551 0.375000

vt 0.418701 0.375488

vt 0.418457 0.388672

vt 0.418701 0.348633

vt 0.414551 0.362793

vt 0.414551 0.350098

vt 0.418701 0.362305

vt 0.396240 0.388672

vt 0.396240 0.375488

vt 0.400146 0.375000

vt 0.400146 0.387207

vt 0.396240 0.348633

vt 0.400146 0.362305

vt 0.396240 0.361816

vt 0.400146 0.350098

vt 0.407471 0.362793

vt 0.411133 0.375000

vt 0.407471 0.375000

vt 0.411133 0.362793

vt 0.414551 0.350098

vt 0.414551 0.362793

vt 0.411133 0.351074

vt 0.403809 0.362793

vt 0.407471 0.351074

vt 0.403809 0.350586

vt 0.400146 0.375000

vt 0.400146 0.362305

vt 0.403809 0.375000

vt 0.411133 0.375000

vt 0.411133 0.362793

vt 0.414551 0.362793

vt 0.414551 0.375000

vt 0.411133 0.386719

vt 0.407471 0.386719

vt 0.407471 0.375000



vn 0.631373 -0.043137 -0.772549

vn 0.301961 -0.600000 -0.741176

vn -0.003922 -0.113725 -1.000000

vn 0.301961 -0.600000 -0.741176

vn -0.309804 -0.600000 -0.741176

vn -0.003922 -0.113725 -1.000000

vn -0.309804 -0.600000 -0.741176

vn -0.639216 -0.043137 -0.772549

vn -0.003922 -0.113725 -1.000000

vn -0.639216 -0.043137 -0.772549

vn -0.341176 0.576471 -0.749020

vn -0.003922 -0.113725 -1.000000

vn -0.341176 0.576471 -0.749020

vn 0.333333 0.576471 -0.749020

vn -0.003922 -0.113725 -1.000000

vn 0.333333 0.576471 -0.749020

vn 0.631373 -0.043137 -0.772549

vn -0.003922 -0.113725 -1.000000

vn 0.333333 -0.584314 0.741177

vn 0.662745 -0.003922 0.741177

vn -0.003922 -0.003922 1.000000

vn 0.662745 -0.003922 0.741177

vn 0.333333 0.576471 0.741177

vn -0.003922 -0.003922 1.000000

vn 0.333333 0.576471 0.741177

vn -0.341176 0.576471 0.741177

vn -0.003922 -0.003922 1.000000

vn -0.341176 0.576471 0.741177

vn -0.670588 -0.003922 0.741177

vn -0.003922 -0.003922 1.000000

vn -0.670588 -0.003922 0.741177

vn -0.341176 -0.584314 0.741177

vn -0.003922 -0.003922 1.000000

vn -0.341176 -0.584314 0.741177

vn 0.333333 -0.584314 0.741177

vn -0.003922 -0.003922 1.000000

vn 0.498039 -0.866667 -0.035294

vn 0.498039 -0.866667 0.027451

vn -0.505882 -0.866667 0.027451

vn -0.505882 -0.866667 -0.035294

vn -0.505882 0.858824 -0.035294

vn -0.505882 0.858824 0.027451

vn 0.498039 0.858824 0.027451

vn 0.498039 0.858824 -0.035294

vn 0.498039 0.858824 0.027451

vn 0.992157 -0.003922 -0.035294

vn 0.498039 0.858824 -0.035294

vn 0.992157 -0.003922 0.027451

vn 0.301961 -0.600000 -0.741176

vn 0.952941 -0.011765 -0.286274

vn 0.466667 -0.827451 -0.325490

vn 0.631373 -0.043137 -0.772549

vn 0.333333 -0.584314 0.741177

vn 0.960784 -0.003922 0.262745

vn 0.662745 -0.003922 0.741177

vn 0.474510 -0.835294 0.262745

vn 0.301961 -0.600000 -0.741176

vn -0.474510 -0.827451 -0.325490

vn -0.309804 -0.600000 -0.741176

vn 0.466667 -0.827451 -0.325490

vn 0.474510 -0.835294 0.262745

vn -0.341176 -0.584314 0.741177

vn -0.482353 -0.835294 0.262745

vn 0.333333 -0.584314 0.741177

vn -0.639216 -0.043137 -0.772549

vn -0.309804 -0.600000 -0.741176

vn -0.960784 -0.011765 -0.286274

vn -0.474510 -0.827451 -0.325490

vn -0.968627 -0.003922 0.262745

vn -0.341176 -0.584314 0.741177

vn -0.670588 -0.003922 0.741177

vn -0.482353 -0.835294 0.262745

vn -0.341176 0.576471 -0.749020

vn -0.960784 -0.011765 -0.286274

vn -0.482353 0.827451 -0.270588

vn -0.639216 -0.043137 -0.772549

vn -0.341176 0.576471 0.741177

vn -0.968627 -0.003922 0.262745

vn -0.670588 -0.003922 0.741177

vn -0.482353 0.827451 0.262745

vn 0.333333 0.576471 -0.749020

vn -0.482353 0.827451 -0.270588

vn 0.474510 0.827451 -0.270588

vn -0.341176 0.576471 -0.749020

vn -0.482353 0.827451 0.262745

vn 0.333333 0.576471 0.741177

vn 0.474510 0.827451 0.262745

vn -0.341176 0.576471 0.741177

vn 0.474510 0.827451 -0.270588

vn 0.952941 -0.011765 -0.286274

vn 0.333333 0.576471 -0.749020

vn 0.631373 -0.043137 -0.772549

vn 0.960784 -0.003922 0.262745

vn 0.333333 0.576471 0.741177

vn 0.662745 -0.003922 0.741177

vn 0.474510 0.827451 0.262745

vn 0.992157 -0.003922 -0.035294

vn 0.466667 -0.827451 -0.325490

vn 0.952941 -0.011765 -0.286274

vn 0.498039 -0.866667 -0.035294

vn 0.474510 -0.835294 0.262745

vn 0.992157 -0.003922 0.027451

vn 0.960784 -0.003922 0.262745

vn 0.498039 -0.866667 0.027451

vn 0.466667 -0.827451 -0.325490

vn 0.498039 -0.866667 -0.035294

vn -0.505882 -0.866667 -0.035294

vn -0.474510 -0.827451 -0.325490

vn -0.482353 -0.835294 0.262745

vn -1.000000 -0.003922 0.027451

vn -0.505882 -0.866667 0.027451

vn -0.968627 -0.003922 0.262745

vn -1.000000 -0.003922 -0.035294

vn -0.482353 0.827451 -0.270588

vn -0.960784 -0.011765 -0.286274

vn -0.505882 0.858824 -0.035294

vn -0.482353 0.827451 -0.270588

vn -0.505882 0.858824 -0.035294

vn 0.498039 0.858824 -0.035294

vn 0.474510 0.827451 -0.270588

vn 0.474510 0.827451 0.262745

vn -0.505882 0.858824 0.027451

vn -0.482353 0.827451 0.262745

vn 0.498039 0.858824 0.027451

vn 0.474510 0.827451 -0.270588

vn 0.498039 0.858824 -0.035294

vn 0.992157 -0.003922 -0.035294

vn 0.952941 -0.011765 -0.286274

vn 0.474510 0.827451 0.262745

vn 0.992157 -0.003922 0.027451

vn 0.498039 0.858824 0.027451

vn 0.960784 -0.003922 0.262745

vn -0.505882 -0.866667 0.027451

vn -1.000000 -0.003922 -0.035294

vn -0.505882 -0.866667 -0.035294

vn -1.000000 -0.003922 0.027451

vn -0.482353 0.827451 0.262745

vn -0.505882 0.858824 0.027451

vn -0.968627 -0.003922 0.262745

vn 0.498039 -0.866667 0.027451

vn -0.482353 -0.835294 0.262745

vn 0.474510 -0.835294 0.262745

vn 0.992157 -0.003922 -0.035294

vn 0.992157 -0.003922 0.027451

vn 0.498039 -0.866667 -0.035294

vn -1.000000 -0.003922 -0.035294

vn -1.000000 -0.003922 0.027451

vn -0.505882 0.858824 0.027451

vn -0.505882 0.858824 -0.035294

vn -0.960784 -0.011765 -0.286274

vn -0.474510 -0.827451 -0.325490

vn -0.505882 -0.866667 -0.035294

f 1/1/1 2/2/2 3/3/3

f 4/4/4 5/5/5 6/6/6

f 7/7/7 8/8/8 9/9/9

f 10/10/10 11/11/11 12/12/12

f 13/13/13 14/14/14 15/15/15

f 16/16/16 17/17/17 18/18/18

f 19/19/19 20/20/20 21/21/21

f 22/22/22 23/23/23 24/24/24

f 25/25/25 26/26/26 27/27/27

f 28/28/28 29/29/29 30/30/30

f 31/31/31 32/32/32 33/33/33

f 34/34/34 35/35/35 36/36/36

f 37/37/37 38/38/38 39/39/39

f 39/39/39 40/40/40 37/37/37

f 41/41/41 42/42/42 43/43/43

f 43/43/43 44/44/44 41/41/41

f 45/45/45 46/46/46 47/47/47

f 46/46/46 45/45/45 48/48/48

f 49/49/49 50/50/50 51/51/51

f 50/50/50 49/49/49 52/52/52

f 53/53/53 54/54/54 55/55/55

f 54/54/54 53/53/53 56/56/56

f 57/57/57 58/58/58 59/59/59

f 60/60/60 58/58/58 57/57/57

f 61/61/61 62/62/62 63/63/63

f 62/62/62 61/61/61 64/64/64

f 65/65/65 66/66/66 67/67/67

f 68/68/68 67/67/67 66/66/66

f 69/69/69 70/70/70 71/71/71

f 70/70/70 69/69/69 72/72/72

f 73/73/73 74/74/74 75/75/75

f 74/74/74 73/73/73 76/76/76

f 77/77/77 78/78/78 79/79/79

f 78/78/78 77/77/77 80/80/80

f 81/81/81 82/82/82 83/83/83

f 82/82/82 81/81/81 84/84/84

f 85/85/85 86/86/86 87/87/87

f 86/86/86 85/85/85 88/88/88

f 89/89/89 90/90/90 91/91/91

f 90/90/90 92/92/92 91/91/91

f 93/93/93 94/94/94 95/95/95

f 94/94/94 93/93/93 96/96/96

f 97/97/97 98/98/98 99/99/99

f 98/98/98 97/97/97 100/100/100

f 101/101/101 102/102/102 103/103/103

f 102/102/102 101/101/101 104/104/104

f 105/105/105 106/106/106 107/107/107

f 107/107/107 108/108/108 105/105/105

f 109/109/109 110/110/110 111/111/111

f 110/110/110 109/109/109 112/112/112

f 113/113/113 114/114/114 115/115/115

f 114/114/114 113/113/113 116/116/116

f 117/117/117 118/118/118 119/119/119

f 119/119/119 120/120/120 117/117/117

f 121/121/121 122/122/122 123/123/123

f 122/122/122 121/121/121 124/124/124

f 125/125/125 126/126/126 127/127/127

f 127/127/127 128/128/128 125/125/125

f 129/129/129 130/130/130 131/131/131

f 130/130/130 129/129/129 132/132/132

f 133/133/133 134/134/134 135/135/135

f 134/134/134 133/133/133 136/136/136

f 136/136/136 137/137/137 138/138/138

f 137/137/137 136/136/136 139/139/139

f 140/140/140 141/141/141 133/133/133

f 141/141/141 140/140/140 142/142/142

f 143/143/143 144/144/144 140/140/140

f 140/140/140 145/145/145 143/143/143

f 146/146/146 147/147/147 148/148/148

f 148/148/148 149/149/149 146/146/146

f 146/146/146 150/150/150 151/151/151

f 151/151/151 152/152/152 146/146/146

