# UnrealEd OBJ exporter (_Internal)



v 3.395905 5.488784 -26.687744

v 0.961700 0.955428 -25.158295

v -1.959595 5.488786 -27.171814

v 0.961700 0.955428 -25.158295

v -4.227814 0.955430 -24.472260

v -1.959595 5.488786 -27.171814

v -4.227814 0.955430 -24.472260

v -6.974487 5.488792 -25.252014

v -1.959595 5.488786 -27.171814

v -6.974487 5.488792 -25.252014

v -4.381866 10.022149 -25.610931

v -1.959595 5.488786 -27.171814

v -4.381866 10.022149 -25.610931

v 0.803345 10.022153 -26.328827

v -1.959595 5.488786 -27.171814

v 0.803345 10.022153 -26.328827

v 3.395905 5.488784 -26.687744

v -1.959595 5.488786 -27.171814

v 0.801239 0.955437 26.343933

v 3.393799 5.488801 26.703125

v -1.959625 5.488799 27.171814

v 3.393799 5.488801 26.703125

v 0.801239 10.022148 26.343933

v -1.959625 5.488799 27.171814

v 0.801239 10.022148 26.343933

v -4.383942 10.022149 25.625671

v -1.959625 5.488799 27.171814

v -4.383942 10.022149 25.625671

v -6.976471 5.488801 25.266479

v -1.959625 5.488799 27.171814

v -6.976471 5.488801 25.266479

v -4.383942 0.955438 25.625610

v -1.959625 5.488799 27.171814

v -4.383942 0.955438 25.625610

v 0.801239 0.955437 26.343933

v -1.959625 5.488799 27.171814

v 6.402069 5.488791 -7.977783

v 6.401398 5.488795 7.993378

v 3.121887 -0.196272 7.859467

v 3.122498 -0.196275 -7.844116

v 3.122498 -0.196275 -7.844116

v 3.121887 -0.196272 7.859467

v -3.437195 -0.196272 7.591614

v -3.436615 -0.196275 -7.576843

v -3.436615 -0.196275 -7.576843

v -3.437195 -0.196272 7.591614

v -6.716736 5.488793 7.457703

v -6.716156 5.488777 -7.443207

v -6.716736 5.488793 7.457703

v -3.436615 11.173847 -7.576904

v -6.716156 5.488777 -7.443207

v -3.437195 11.173867 7.591644

v -3.437195 11.173867 7.591644

v 3.122498 11.173868 -7.844177

v -3.436615 11.173847 -7.576904

v 3.121887 11.173868 7.859436

v 3.121887 11.173868 7.859436

v 6.402069 5.488791 -7.977783

v 3.122498 11.173868 -7.844177

v 6.401398 5.488795 7.993378

v 0.961700 0.955428 -25.158295

v 5.101837 5.488779 -23.895935

v 1.844086 -0.196278 -23.495667

v 3.395905 5.488784 -26.687744

v 0.801239 0.955437 26.343933

v 5.099945 5.488802 23.911438

v 3.393799 5.488801 26.703125

v 1.842194 -0.196270 23.510864

v -4.227814 0.955430 -24.472260

v 1.844086 -0.196278 -23.495667

v -4.671448 -0.196278 -22.695007

v 0.961700 0.955428 -25.158295

v 1.842194 -0.196270 23.510864

v -4.383942 0.955438 25.625610

v -4.673248 -0.196270 22.709717

v 0.801239 0.955437 26.343933

v -6.974487 5.488792 -25.252014

v -4.227814 0.955430 -24.472260

v -7.929230 5.488787 -22.294739

v -4.671448 -0.196278 -22.695007

v -7.931000 5.488794 22.309082

v -4.383942 0.955438 25.625610

v -6.976471 5.488801 25.266479

v -4.673248 -0.196270 22.709717

v -4.381866 10.022149 -25.610931

v -7.929230 5.488787 -22.294739

v -4.671448 11.173874 -22.695007

v -6.974487 5.488792 -25.252014

v -4.383942 10.022149 25.625671

v -7.931000 5.488794 22.309082

v -6.976471 5.488801 25.266479

v -4.673248 11.173866 22.709717

v 0.803345 10.022153 -26.328827

v -4.381866 10.022149 -25.610931

v 1.844086 11.173870 -23.495667

v -4.671448 11.173874 -22.695007

v -4.383942 10.022149 25.625671

v 1.842194 11.173862 23.510864

v -4.673248 11.173866 22.709717

v 0.801239 10.022148 26.343933

v 3.395905 5.488784 -26.687744

v 0.803345 10.022153 -26.328827

v 5.101837 5.488779 -23.895935

v 1.844086 11.173870 -23.495667

v 5.099945 5.488802 23.911438

v 0.801239 10.022148 26.343933

v 3.393799 5.488801 26.703125

v 1.842194 11.173862 23.510864

v 6.402069 5.488791 -7.977783

v 1.844086 -0.196278 -23.495667

v 5.101837 5.488779 -23.895935

v 3.122498 -0.196275 -7.844116

v 1.842194 -0.196270 23.510864

v 6.401398 5.488795 7.993378

v 5.099945 5.488802 23.911438

v 3.121887 -0.196272 7.859467

v 3.122498 -0.196275 -7.844116

v -4.671448 -0.196278 -22.695007

v 1.844086 -0.196278 -23.495667

v -3.436615 -0.196275 -7.576843

v -4.673248 -0.196270 22.709717

v 3.121887 -0.196272 7.859467

v 1.842194 -0.196270 23.510864

v -3.437195 -0.196272 7.591614

v -7.931000 5.488794 22.309082

v -4.673248 -0.196270 22.709717

v -6.716736 5.488793 7.457703

v -7.931000 5.488794 22.309082

v -3.437195 11.173867 7.591644

v -4.673248 11.173866 22.709717

v -3.436615 -0.196275 -7.576843

v -7.929230 5.488787 -22.294739

v -4.671448 -0.196278 -22.695007

v -6.716156 5.488777 -7.443207

v -7.929230 5.488787 -22.294739

v -6.716156 5.488777 -7.443207

v -3.436615 11.173847 -7.576904

v -4.671448 11.173874 -22.695007

v -4.671448 11.173874 -22.695007

v -3.436615 11.173847 -7.576904

v 3.122498 11.173868 -7.844177

v 1.844086 11.173870 -23.495667

v 1.842194 11.173862 23.510864

v -3.437195 11.173867 7.591644

v -4.673248 11.173866 22.709717

v 3.121887 11.173868 7.859436

v 1.844086 11.173870 -23.495667

v 3.122498 11.173868 -7.844177

v 6.402069 5.488791 -7.977783

v 5.101837 5.488779 -23.895935

v 1.842194 11.173862 23.510864

v 6.401398 5.488795 7.993378

v 3.121887 11.173868 7.859436

v 5.099945 5.488802 23.911438



vt 0.401855 0.389648

vt 0.404297 0.387695

vt 0.407227 0.391602

vt 0.404297 0.387695

vt 0.407471 0.387207

vt 0.407227 0.391602

vt 0.407471 0.387207

vt 0.410400 0.388672

vt 0.407227 0.391602

vt 0.410400 0.388672

vt 0.412842 0.389648

vt 0.407227 0.391602

vt 0.412842 0.389648

vt 0.414551 0.392578

vt 0.407227 0.391602

vt 0.400146 0.392578

vt 0.401855 0.389648

vt 0.407227 0.391602

vt 0.404541 0.349121

vt 0.402100 0.347656

vt 0.407471 0.345703

vt 0.402100 0.347656

vt 0.400391 0.345215

vt 0.407471 0.345703

vt 0.414795 0.345215

vt 0.412842 0.347656

vt 0.407471 0.345703

vt 0.412842 0.347656

vt 0.410400 0.349121

vt 0.407471 0.345703

vt 0.410400 0.349121

vt 0.407471 0.349609

vt 0.407471 0.345703

vt 0.407471 0.349609

vt 0.404541 0.349121

vt 0.407471 0.345703

vt 0.400146 0.375000

vt 0.400146 0.362305

vt 0.403809 0.362793

vt 0.403809 0.375000

vt 0.403809 0.375000

vt 0.403809 0.362793

vt 0.407471 0.362793

vt 0.407471 0.375000

vt 0.407471 0.375000

vt 0.407471 0.362793

vt 0.411133 0.362793

vt 0.411133 0.375000

vt 0.411133 0.362793

vt 0.414551 0.375000

vt 0.411133 0.375000

vt 0.414551 0.362793

vt 0.414551 0.362793

vt 0.418701 0.375488

vt 0.414551 0.375000

vt 0.418701 0.362305

vt 0.396240 0.361816

vt 0.400146 0.375000

vt 0.396240 0.375488

vt 0.400146 0.362305

vt 0.404297 0.387695

vt 0.400146 0.387207

vt 0.403809 0.386719

vt 0.401855 0.389648

vt 0.404541 0.349121

vt 0.400146 0.350098

vt 0.402100 0.347656

vt 0.403809 0.350586

vt 0.407471 0.387207

vt 0.403809 0.386719

vt 0.407471 0.386719

vt 0.404297 0.387695

vt 0.403809 0.350586

vt 0.407471 0.349609

vt 0.407471 0.351074

vt 0.404541 0.349121

vt 0.410400 0.388672

vt 0.407471 0.387207

vt 0.411133 0.386719

vt 0.407471 0.386719

vt 0.411133 0.351074

vt 0.407471 0.349609

vt 0.410400 0.349121

vt 0.407471 0.351074

vt 0.412842 0.389648

vt 0.411133 0.386719

vt 0.414551 0.387207

vt 0.410400 0.388672

vt 0.412842 0.347656

vt 0.411133 0.351074

vt 0.410400 0.349121

vt 0.414551 0.350098

vt 0.414551 0.392578

vt 0.412842 0.389648

vt 0.418457 0.388672

vt 0.414551 0.387207

vt 0.412842 0.347656

vt 0.418701 0.348633

vt 0.414551 0.350098

vt 0.414795 0.345215

vt 0.401855 0.389648

vt 0.400146 0.392578

vt 0.400146 0.387207

vt 0.396240 0.388672

vt 0.400146 0.350098

vt 0.400391 0.345215

vt 0.402100 0.347656

vt 0.396240 0.348633

vt 0.400146 0.375000

vt 0.403809 0.386719

vt 0.400146 0.387207

vt 0.403809 0.375000

vt 0.403809 0.350586

vt 0.400146 0.362305

vt 0.400146 0.350098

vt 0.403809 0.362793

vt 0.403809 0.375000

vt 0.407471 0.386719

vt 0.403809 0.386719

vt 0.407471 0.375000

vt 0.407471 0.351074

vt 0.403809 0.362793

vt 0.403809 0.350586

vt 0.407471 0.362793

vt 0.411133 0.351074

vt 0.407471 0.351074

vt 0.411133 0.362793

vt 0.411133 0.351074

vt 0.414551 0.362793

vt 0.414551 0.350098

vt 0.407471 0.375000

vt 0.411133 0.386719

vt 0.407471 0.386719

vt 0.411133 0.375000

vt 0.411133 0.386719

vt 0.411133 0.375000

vt 0.414551 0.375000

vt 0.414551 0.387207

vt 0.414551 0.387207

vt 0.414551 0.375000

vt 0.418701 0.375488

vt 0.418457 0.388672

vt 0.418701 0.348633

vt 0.414551 0.362793

vt 0.414551 0.350098

vt 0.418701 0.362305

vt 0.396240 0.388672

vt 0.396240 0.375488

vt 0.400146 0.375000

vt 0.400146 0.387207

vt 0.396240 0.348633

vt 0.400146 0.362305

vt 0.396240 0.361816

vt 0.400146 0.350098



vn 0.568628 -0.050980 -0.827451

vn 0.231373 -0.639216 -0.741176

vn -0.137255 -0.113725 -0.992157

vn 0.231373 -0.639216 -0.741176

vn -0.411765 -0.631373 -0.662745

vn -0.137255 -0.113725 -0.992157

vn -0.411765 -0.631373 -0.662745

vn -0.764706 -0.050980 -0.654902

vn -0.137255 -0.113725 -0.992157

vn -0.764706 -0.050980 -0.654902

vn -0.443137 0.607843 -0.662745

vn -0.137255 -0.113725 -0.992157

vn -0.443137 0.607843 -0.662745

vn 0.254902 0.607843 -0.749020

vn -0.137255 -0.113725 -0.992157

vn 0.254902 0.607843 -0.749020

vn 0.568628 -0.050980 -0.827451

vn -0.137255 -0.113725 -0.992157

vn 0.254902 -0.615686 0.749020

vn 0.600000 -0.003922 0.788235

vn -0.145098 -0.003922 0.984314

vn 0.600000 -0.003922 0.788235

vn 0.254902 0.607843 0.749020

vn -0.145098 -0.003922 0.984314

vn 0.254902 0.607843 0.749020

vn -0.443137 0.607843 0.654902

vn -0.145098 -0.003922 0.984314

vn -0.443137 0.607843 0.654902

vn -0.796078 -0.003922 0.607843

vn -0.145098 -0.003922 0.984314

vn -0.796078 -0.003922 0.607843

vn -0.443137 -0.615686 0.654902

vn -0.145098 -0.003922 0.984314

vn -0.443137 -0.615686 0.654902

vn 0.254902 -0.615686 0.749020

vn -0.145098 -0.003922 0.984314

vn 0.992157 -0.003922 -0.043137

vn 0.992157 -0.003922 0.035294

vn 0.505883 -0.866667 0.019608

vn 0.505883 -0.866667 -0.027451

vn 0.505883 -0.866667 -0.027451

vn 0.505883 -0.866667 0.019608

vn -0.490196 -0.874510 -0.027451

vn -0.490196 -0.874510 0.019608

vn -0.490196 -0.874510 0.019608

vn -0.490196 -0.874510 -0.027451

vn -1.000000 -0.003922 -0.043137

vn -1.000000 -0.003922 0.035294

vn -1.000000 -0.003922 -0.043137

vn -0.490196 0.866667 0.019608

vn -1.000000 -0.003922 0.035294

vn -0.490196 0.866667 -0.027451

vn -0.490196 0.866667 -0.027451

vn 0.505883 0.858824 -0.027451

vn -0.490196 0.866667 0.019608

vn 0.505883 0.858824 0.019608

vn 0.505883 0.858824 0.019608

vn 0.992157 -0.003922 -0.043137

vn 0.505883 0.858824 -0.027451

vn 0.992157 -0.003922 0.035294

vn 0.231373 -0.639216 -0.741176

vn 0.945098 -0.011765 -0.325490

vn 0.450980 -0.843137 -0.309804

vn 0.568628 -0.050980 -0.827451

vn 0.254902 -0.615686 0.749020

vn 0.952941 -0.003922 0.294118

vn 0.600000 -0.003922 0.788235

vn 0.466667 -0.850980 0.247059

vn -0.411765 -0.631373 -0.662745

vn 0.450980 -0.843137 -0.309804

vn -0.505882 -0.843137 -0.215686

vn 0.231373 -0.639216 -0.741176

vn 0.466667 -0.850980 0.247059

vn -0.443137 -0.615686 0.654902

vn -0.505882 -0.850980 0.145098

vn 0.254902 -0.615686 0.749020

vn -0.764706 -0.050980 -0.654902

vn -0.411765 -0.631373 -0.662745

vn -1.000000 -0.011765 -0.129412

vn -0.505882 -0.843137 -0.215686

vn -1.000000 -0.003922 0.098039

vn -0.443137 -0.615686 0.654902

vn -0.796078 -0.003922 0.607843

vn -0.505882 -0.850980 0.145098

vn -0.443137 0.607843 -0.662745

vn -1.000000 -0.011765 -0.129412

vn -0.505882 0.843137 -0.152941

vn -0.764706 -0.050980 -0.654902

vn -0.443137 0.607843 0.654902

vn -1.000000 -0.003922 0.098039

vn -0.796078 -0.003922 0.607843

vn -0.505882 0.843137 0.145098

vn 0.254902 0.607843 -0.749020

vn -0.443137 0.607843 -0.662745

vn 0.466667 0.843137 -0.254902

vn -0.505882 0.843137 -0.152941

vn -0.443137 0.607843 0.654902

vn 0.466667 0.843137 0.247059

vn -0.505882 0.843137 0.145098

vn 0.254902 0.607843 0.749020

vn 0.568628 -0.050980 -0.827451

vn 0.254902 0.607843 -0.749020

vn 0.945098 -0.011765 -0.325490

vn 0.466667 0.843137 -0.254902

vn 0.952941 -0.003922 0.294118

vn 0.254902 0.607843 0.749020

vn 0.600000 -0.003922 0.788235

vn 0.466667 0.843137 0.247059

vn 0.992157 -0.003922 -0.043137

vn 0.450980 -0.843137 -0.309804

vn 0.945098 -0.011765 -0.325490

vn 0.505883 -0.866667 -0.027451

vn 0.466667 -0.850980 0.247059

vn 0.992157 -0.003922 0.035294

vn 0.952941 -0.003922 0.294118

vn 0.505883 -0.866667 0.019608

vn 0.505883 -0.866667 -0.027451

vn -0.505882 -0.843137 -0.215686

vn 0.450980 -0.843137 -0.309804

vn -0.490196 -0.874510 0.019608

vn -0.505882 -0.850980 0.145098

vn 0.505883 -0.866667 0.019608

vn 0.466667 -0.850980 0.247059

vn -0.490196 -0.874510 -0.027451

vn -1.000000 -0.003922 0.098039

vn -0.505882 -0.850980 0.145098

vn -1.000000 -0.003922 -0.043137

vn -1.000000 -0.003922 0.098039

vn -0.490196 0.866667 -0.027451

vn -0.505882 0.843137 0.145098

vn -0.490196 -0.874510 0.019608

vn -1.000000 -0.011765 -0.129412

vn -0.505882 -0.843137 -0.215686

vn -1.000000 -0.003922 0.035294

vn -1.000000 -0.011765 -0.129412

vn -1.000000 -0.003922 0.035294

vn -0.490196 0.866667 0.019608

vn -0.505882 0.843137 -0.152941

vn -0.505882 0.843137 -0.152941

vn -0.490196 0.866667 0.019608

vn 0.505883 0.858824 -0.027451

vn 0.466667 0.843137 -0.254902

vn 0.466667 0.843137 0.247059

vn -0.490196 0.866667 -0.027451

vn -0.505882 0.843137 0.145098

vn 0.505883 0.858824 0.019608

vn 0.466667 0.843137 -0.254902

vn 0.505883 0.858824 -0.027451

vn 0.992157 -0.003922 -0.043137

vn 0.945098 -0.011765 -0.325490

vn 0.466667 0.843137 0.247059

vn 0.992157 -0.003922 0.035294

vn 0.505883 0.858824 0.019608

vn 0.952941 -0.003922 0.294118

f 1/1/1 2/2/2 3/3/3

f 4/4/4 5/5/5 6/6/6

f 7/7/7 8/8/8 9/9/9

f 10/10/10 11/11/11 12/12/12

f 13/13/13 14/14/14 15/15/15

f 16/16/16 17/17/17 18/18/18

f 19/19/19 20/20/20 21/21/21

f 22/22/22 23/23/23 24/24/24

f 25/25/25 26/26/26 27/27/27

f 28/28/28 29/29/29 30/30/30

f 31/31/31 32/32/32 33/33/33

f 34/34/34 35/35/35 36/36/36

f 37/37/37 38/38/38 39/39/39

f 39/39/39 40/40/40 37/37/37

f 41/41/41 42/42/42 43/43/43

f 43/43/43 44/44/44 41/41/41

f 45/45/45 46/46/46 47/47/47

f 47/47/47 48/48/48 45/45/45

f 49/49/49 50/50/50 51/51/51

f 50/50/50 49/49/49 52/52/52

f 53/53/53 54/54/54 55/55/55

f 54/54/54 53/53/53 56/56/56

f 57/57/57 58/58/58 59/59/59

f 58/58/58 57/57/57 60/60/60

f 61/61/61 62/62/62 63/63/63

f 62/62/62 61/61/61 64/64/64

f 65/65/65 66/66/66 67/67/67

f 66/66/66 65/65/65 68/68/68

f 69/69/69 70/70/70 71/71/71

f 70/70/70 69/69/69 72/72/72

f 73/73/73 74/74/74 75/75/75

f 74/74/74 73/73/73 76/76/76

f 77/77/77 78/78/78 79/79/79

f 80/80/80 79/79/79 78/78/78

f 81/81/81 82/82/82 83/83/83

f 82/82/82 81/81/81 84/84/84

f 85/85/85 86/86/86 87/87/87

f 86/86/86 85/85/85 88/88/88

f 89/89/89 90/90/90 91/91/91

f 90/90/90 89/89/89 92/92/92

f 93/93/93 94/94/94 95/95/95

f 96/96/96 95/95/95 94/94/94

f 97/97/97 98/98/98 99/99/99

f 98/98/98 97/97/97 100/100/100

f 101/101/101 102/102/102 103/103/103

f 104/104/104 103/103/103 102/102/102

f 105/105/105 106/106/106 107/107/107

f 106/106/106 105/105/105 108/108/108

f 109/109/109 110/110/110 111/111/111

f 110/110/110 109/109/109 112/112/112

f 113/113/113 114/114/114 115/115/115

f 114/114/114 113/113/113 116/116/116

f 117/117/117 118/118/118 119/119/119

f 118/118/118 117/117/117 120/120/120

f 121/121/121 122/122/122 123/123/123

f 122/122/122 121/121/121 124/124/124

f 125/125/125 124/124/124 126/126/126

f 124/124/124 125/125/125 127/127/127

f 128/128/128 129/129/129 127/127/127

f 129/129/129 128/128/128 130/130/130

f 131/131/131 132/132/132 133/133/133

f 132/132/132 131/131/131 134/134/134

f 135/135/135 136/136/136 137/137/137

f 137/137/137 138/138/138 135/135/135

f 139/139/139 140/140/140 141/141/141

f 141/141/141 142/142/142 139/139/139

f 143/143/143 144/144/144 145/145/145

f 144/144/144 143/143/143 146/146/146

f 147/147/147 148/148/148 149/149/149

f 149/149/149 150/150/150 147/147/147

f 151/151/151 152/152/152 153/153/153

f 152/152/152 151/151/151 154/154/154

