# UnrealEd OBJ exporter (_Internal)



v 0.801239 0.949219 26.343994

v 3.393799 5.482575 26.703125

v -1.959625 5.482573 27.171814

v 3.393799 5.482575 26.703125

v 0.801239 10.015938 26.343933

v -1.959625 5.482573 27.171814

v 0.801239 10.015938 26.343933

v -4.383942 10.015924 25.625671

v -1.959625 5.482573 27.171814

v -4.383942 10.015924 25.625671

v -6.976471 5.482575 25.266479

v -1.959625 5.482573 27.171814

v -6.976471 5.482575 25.266479

v -4.383942 0.949220 25.625610

v -1.959625 5.482573 27.171814

v -4.383942 0.949220 25.625610

v 0.801239 0.949219 26.343994

v -1.959625 5.482573 27.171814

v 3.121887 -0.202490 7.859467

v 3.084869 -0.202493 -7.830414

v 6.364868 5.482573 -7.952576

v 6.401398 5.482569 7.993347

v 1.842194 -0.202488 23.510864

v 3.121887 -0.202490 7.859467

v 5.099945 5.482576 23.911438

v -3.437195 -0.202490 7.591644

v -3.475067 -0.202493 -7.586090

v 3.084869 -0.202493 -7.830414

v 3.121887 -0.202490 7.859467

v 1.842194 -0.202488 23.510864

v -3.437195 -0.202490 7.591644

v -4.673248 -0.202488 22.709717

v -7.931000 5.482568 22.309082

v -4.673248 -0.202488 22.709717

v -6.716736 5.482568 7.457733

v -3.475067 -0.202493 -7.586090

v -6.716736 5.482568 7.457733

v -6.755035 5.482569 -7.463959

v -7.931000 5.482568 22.309082

v -3.437195 11.167642 7.591614

v -4.673248 11.167641 22.709717

v -6.716736 5.482568 7.457733

v -3.475067 11.167618 -7.586151

v -6.755035 5.482569 -7.463959

v -3.437195 11.167642 7.591614

v -3.437195 11.167642 7.591614

v 3.084869 11.167625 -7.830444

v -3.475067 11.167618 -7.586151

v 3.121887 11.167643 7.859436

v 3.121887 11.167643 7.859436

v 6.364868 5.482573 -7.952576

v 3.084869 11.167625 -7.830444

v 6.401398 5.482569 7.993347

v 0.801239 0.949219 26.343994

v 5.099945 5.482576 23.911438

v 3.393799 5.482575 26.703125

v 1.842194 -0.202488 23.510864

v 1.842194 -0.202488 23.510864

v -4.383942 0.949220 25.625610

v -4.673248 -0.202488 22.709717

v 0.801239 0.949219 26.343994

v -7.931000 5.482568 22.309082

v -4.383942 0.949220 25.625610

v -6.976471 5.482575 25.266479

v -4.673248 -0.202488 22.709717

v -4.383942 10.015924 25.625671

v -7.931000 5.482568 22.309082

v -6.976471 5.482575 25.266479

v -4.673248 11.167641 22.709717

v -4.383942 10.015924 25.625671

v 1.842194 11.167637 23.510864

v -4.673248 11.167641 22.709717

v 0.801239 10.015938 26.343933

v 5.099945 5.482576 23.911438

v 0.801239 10.015938 26.343933

v 3.393799 5.482575 26.703125

v 1.842194 11.167637 23.510864

v 1.842194 11.167637 23.510864

v -3.437195 11.167642 7.591614

v -4.673248 11.167641 22.709717

v 3.121887 11.167643 7.859436

v 1.842194 11.167637 23.510864

v 6.401398 5.482569 7.993347

v 3.121887 11.167643 7.859436

v 5.099945 5.482576 23.911438

v -6.755035 5.482569 -7.463959

v 3.084869 -0.202493 -7.830414

v -3.475067 -0.202493 -7.586090

v 6.364868 5.482573 -7.952576

v 3.084869 11.167625 -7.830444

v -3.475067 11.167618 -7.586151



vt 0.404541 0.349121

vt 0.402100 0.347656

vt 0.407471 0.345703

vt 0.402100 0.347656

vt 0.400391 0.345215

vt 0.407471 0.345703

vt 0.414795 0.345215

vt 0.412842 0.347656

vt 0.407471 0.345703

vt 0.412842 0.347656

vt 0.410400 0.349121

vt 0.407471 0.345703

vt 0.410400 0.349121

vt 0.407471 0.349609

vt 0.407471 0.345703

vt 0.407471 0.349609

vt 0.404541 0.349121

vt 0.407471 0.345703

vt 0.403809 0.362793

vt 0.403809 0.375000

vt 0.400146 0.375000

vt 0.400146 0.362305

vt 0.403809 0.350586

vt 0.403809 0.362793

vt 0.400146 0.350098

vt 0.407471 0.362793

vt 0.407471 0.375000

vt 0.403809 0.375000

vt 0.403809 0.362793

vt 0.403809 0.350586

vt 0.407471 0.362793

vt 0.407471 0.351074

vt 0.411133 0.351074

vt 0.407471 0.351074

vt 0.411133 0.362793

vt 0.407471 0.375000

vt 0.411133 0.362793

vt 0.411133 0.375000

vt 0.411133 0.351074

vt 0.414551 0.362793

vt 0.414551 0.350098

vt 0.411133 0.362793

vt 0.414551 0.375000

vt 0.411133 0.375000

vt 0.414551 0.362793

vt 0.414551 0.362793

vt 0.418701 0.375488

vt 0.414551 0.375000

vt 0.418701 0.362305

vt 0.396240 0.361816

vt 0.400146 0.375000

vt 0.396240 0.375488

vt 0.400146 0.362305

vt 0.404541 0.349121

vt 0.400146 0.350098

vt 0.402100 0.347656

vt 0.403809 0.350586

vt 0.403809 0.350586

vt 0.407471 0.349609

vt 0.407471 0.351074

vt 0.404541 0.349121

vt 0.411133 0.351074

vt 0.407471 0.349609

vt 0.410400 0.349121

vt 0.407471 0.351074

vt 0.412842 0.347656

vt 0.411133 0.351074

vt 0.410400 0.349121

vt 0.414551 0.350098

vt 0.412842 0.347656

vt 0.418701 0.348633

vt 0.414551 0.350098

vt 0.414795 0.345215

vt 0.400146 0.350098

vt 0.400391 0.345215

vt 0.402100 0.347656

vt 0.396240 0.348633

vt 0.418701 0.348633

vt 0.414551 0.362793

vt 0.414551 0.350098

vt 0.418701 0.362305

vt 0.396240 0.348633

vt 0.400146 0.362305

vt 0.396240 0.361816

vt 0.400146 0.350098

vt 0.350342 0.420410

vt 0.354248 0.413574

vt 0.354248 0.418457

vt 0.350342 0.411133

vt 0.346191 0.413574

vt 0.346191 0.418457



vn 0.254902 -0.615686 0.749020

vn 0.600000 -0.003922 0.788235

vn -0.145098 -0.003922 0.984314

vn 0.600000 -0.003922 0.788235

vn 0.254902 0.607843 0.749020

vn -0.145098 -0.003922 0.984314

vn 0.254902 0.607843 0.749020

vn -0.443137 0.607843 0.654902

vn -0.145098 -0.003922 0.984314

vn -0.443137 0.607843 0.654902

vn -0.796078 -0.003922 0.607843

vn -0.145098 -0.003922 0.984314

vn -0.796078 -0.003922 0.607843

vn -0.443137 -0.615686 0.654902

vn -0.145098 -0.003922 0.984314

vn -0.443137 -0.615686 0.654902

vn 0.254902 -0.615686 0.749020

vn -0.145098 -0.003922 0.984314

vn 0.505883 -0.866667 0.019608

vn 0.505883 -0.866667 -0.003922

vn 0.992157 -0.003922 -0.003922

vn 0.992157 -0.003922 0.035294

vn 0.466667 -0.850980 0.247059

vn 0.505883 -0.866667 0.019608

vn 0.952941 -0.003922 0.294118

vn -0.490196 -0.874510 -0.019608

vn -0.498039 -0.874510 -0.003922

vn 0.505883 -0.866667 -0.003922

vn 0.505883 -0.866667 0.019608

vn 0.466667 -0.850980 0.247059

vn -0.490196 -0.874510 -0.019608

vn -0.505882 -0.850980 0.145098

vn -1.000000 -0.003922 0.098039

vn -0.505882 -0.850980 0.145098

vn -1.000000 -0.003922 -0.043137

vn -0.498039 -0.874510 -0.003922

vn -1.000000 -0.003922 -0.043137

vn -1.000000 -0.003922 -0.003922

vn -1.000000 -0.003922 0.098039

vn -0.490196 0.866667 -0.019608

vn -0.505882 0.843137 0.145098

vn -1.000000 -0.003922 -0.043137

vn -0.498039 0.866667 -0.003922

vn -1.000000 -0.003922 -0.003922

vn -0.490196 0.866667 -0.019608

vn -0.490196 0.866667 -0.019608

vn 0.505883 0.858824 -0.003922

vn -0.498039 0.866667 -0.003922

vn 0.505883 0.858824 0.019608

vn 0.505883 0.858824 0.019608

vn 0.992157 -0.003922 -0.003922

vn 0.505883 0.858824 -0.003922

vn 0.992157 -0.003922 0.035294

vn 0.254902 -0.615686 0.749020

vn 0.952941 -0.003922 0.294118

vn 0.600000 -0.003922 0.788235

vn 0.466667 -0.850980 0.247059

vn 0.466667 -0.850980 0.247059

vn -0.443137 -0.615686 0.654902

vn -0.505882 -0.850980 0.145098

vn 0.254902 -0.615686 0.749020

vn -1.000000 -0.003922 0.098039

vn -0.443137 -0.615686 0.654902

vn -0.796078 -0.003922 0.607843

vn -0.505882 -0.850980 0.145098

vn -0.443137 0.607843 0.654902

vn -1.000000 -0.003922 0.098039

vn -0.796078 -0.003922 0.607843

vn -0.505882 0.843137 0.145098

vn -0.443137 0.607843 0.654902

vn 0.466667 0.843137 0.247059

vn -0.505882 0.843137 0.145098

vn 0.254902 0.607843 0.749020

vn 0.952941 -0.003922 0.294118

vn 0.254902 0.607843 0.749020

vn 0.600000 -0.003922 0.788235

vn 0.466667 0.843137 0.247059

vn 0.466667 0.843137 0.247059

vn -0.490196 0.866667 -0.019608

vn -0.505882 0.843137 0.145098

vn 0.505883 0.858824 0.019608

vn 0.466667 0.843137 0.247059

vn 0.992157 -0.003922 0.035294

vn 0.505883 0.858824 0.019608

vn 0.952941 -0.003922 0.294118

vn -0.043137 -0.003922 -1.000000

vn -0.043137 -0.003922 -1.000000

vn -0.043137 -0.003922 -1.000000

vn -0.043137 -0.003922 -1.000000

vn -0.043137 -0.003922 -1.000000

vn -0.043137 -0.003922 -1.000000

f 1/1/1 2/2/2 3/3/3

f 4/4/4 5/5/5 6/6/6

f 7/7/7 8/8/8 9/9/9

f 10/10/10 11/11/11 12/12/12

f 13/13/13 14/14/14 15/15/15

f 16/16/16 17/17/17 18/18/18

f 19/19/19 20/20/20 21/21/21

f 21/21/21 22/22/22 19/19/19

f 22/22/22 23/23/23 24/24/24

f 23/23/23 22/22/22 25/25/25

f 26/26/26 27/27/27 28/28/28

f 28/28/28 29/29/29 26/26/26

f 30/30/30 31/31/31 29/29/29

f 31/31/31 30/30/30 32/32/32

f 33/33/33 31/31/31 34/34/34

f 31/31/31 33/33/33 35/35/35

f 36/36/36 31/31/31 37/37/37

f 37/37/37 38/38/38 36/36/36

f 39/39/39 40/40/40 35/35/35

f 40/40/40 39/39/39 41/41/41

f 42/42/42 43/43/43 44/44/44

f 43/43/43 42/42/42 45/45/45

f 46/46/46 47/47/47 48/48/48

f 47/47/47 46/46/46 49/49/49

f 50/50/50 51/51/51 52/52/52

f 51/51/51 50/50/50 53/53/53

f 54/54/54 55/55/55 56/56/56

f 55/55/55 54/54/54 57/57/57

f 58/58/58 59/59/59 60/60/60

f 59/59/59 58/58/58 61/61/61

f 62/62/62 63/63/63 64/64/64

f 63/63/63 62/62/62 65/65/65

f 66/66/66 67/67/67 68/68/68

f 67/67/67 66/66/66 69/69/69

f 70/70/70 71/71/71 72/72/72

f 71/71/71 70/70/70 73/73/73

f 74/74/74 75/75/75 76/76/76

f 75/75/75 74/74/74 77/77/77

f 78/78/78 79/79/79 80/80/80

f 79/79/79 78/78/78 81/81/81

f 82/82/82 83/83/83 84/84/84

f 83/83/83 82/82/82 85/85/85

f 86/86/86 87/87/87 88/88/88

f 87/87/87 86/86/86 89/89/89

f 86/86/86 90/90/90 89/89/89

f 90/90/90 86/86/86 91/91/91

