# UnrealEd OBJ exporter (_Internal)



v 18.434082 -177.688034 5.502151

v 18.434082 -175.901169 9.415222

v 18.434082 -203.370621 19.591888

v -18.434326 -175.901169 9.415222

v -18.434326 -177.688034 5.502151

v -18.434326 -203.370621 19.591888

v -4.308594 -13.211946 10.442017

v 4.308594 -54.464634 10.442017

v 4.308594 -13.211946 10.442017

v -4.308594 -54.464634 10.442017

v 4.308594 -13.211946 10.442017

v 4.308594 -54.464634 10.442017

v 4.308594 -54.464622 1.825272

v 4.308594 -13.211936 1.825272

v 4.308594 -13.211936 1.825272

v 4.308594 -54.464622 1.825272

v -4.308594 -54.464622 1.825272

v -4.308594 -13.211936 1.825272

v -4.308594 -13.211946 10.442017

v -4.308594 -54.464622 1.825272

v -4.308594 -54.464634 10.442017

v -4.308594 -13.211936 1.825272

v -3.029785 8.508183 9.163483

v 3.029785 -13.211955 9.163513

v 3.029785 8.508183 9.163483

v -3.029785 -13.211955 9.163513

v 3.029785 -155.521835 9.163513

v 3.029785 -54.464581 9.163483

v -3.029785 -54.464581 9.163483

v -3.029785 -155.521835 9.163513

v 3.029785 4.929620 3.103806

v 3.029785 -13.211955 9.163513

v 3.029785 -13.211958 3.103806

v 3.029785 8.508183 9.163483

v 3.029785 4.929620 3.103806

v 3.029785 8.508184 -7.350281

v 3.029785 4.929623 -3.865189

v 3.029785 -54.464581 9.163483

v 3.029785 -155.521835 9.163513

v 3.029785 -155.521805 3.103821

v 3.029785 -54.464554 3.103836

v 3.029785 4.929620 3.103806

v 3.029785 -13.211958 3.103806

v -3.029785 -13.211958 3.103806

v -3.029785 4.929620 3.103806

v -3.029785 -13.211955 9.163513

v -3.029785 4.929620 3.103806

v -3.029785 -13.211958 3.103806

v -3.029785 8.508183 9.163483

v -3.029785 8.508184 -7.350281

v -3.029785 4.929620 3.103806

v -3.029785 4.929623 -3.865189

v -3.029785 -54.464581 9.163483

v -3.029785 -155.521805 3.103821

v -3.029785 -155.521835 9.163513

v -3.029785 -54.464554 3.103836

v -4.308594 -13.211946 10.442017

v 4.308594 -13.211946 10.442017

v 3.029785 -13.211955 9.163513

v -3.029785 -13.211955 9.163513

v -4.308594 -13.211946 10.442017

v -3.029785 -13.211958 3.103806

v -4.308594 -13.211936 1.825272

v -3.029785 -13.211955 9.163513

v -3.029785 -13.211958 3.103806

v 3.029785 -13.211958 3.103806

v 4.308594 -13.211936 1.825272

v -4.308594 -13.211936 1.825272

v 4.308594 -13.211946 10.442017

v 3.029785 -13.211958 3.103806

v 3.029785 -13.211955 9.163513

v 4.308594 -13.211936 1.825272

v 4.308594 -54.464634 10.442017

v -4.308594 -54.464634 10.442017

v -3.029785 -54.464581 9.163483

v 3.029785 -54.464581 9.163483

v 4.308594 -54.464634 10.442017

v 3.029785 -54.464554 3.103836

v 4.308594 -54.464622 1.825272

v 3.029785 -54.464581 9.163483

v -4.308594 -54.464622 1.825272

v 3.029785 -54.464554 3.103836

v -3.029785 -54.464554 3.103836

v 4.308594 -54.464622 1.825272

v -4.308594 -54.464634 10.442017

v -3.029785 -54.464554 3.103836

v -3.029785 -54.464581 9.163483

v -4.308594 -54.464622 1.825272

v 3.029785 8.508183 9.163483

v 3.029785 8.508184 -7.350281

v -3.029785 8.508183 9.163483

v -3.029785 8.508184 -7.350281

v -3.029785 4.929620 3.103806

v -3.029785 4.929623 -3.865189

v 3.029785 4.929620 3.103806

v 3.029785 4.929623 -3.865189

v -3.029785 -10.894876 -7.350296

v 3.029785 -10.894876 -7.350296

v -3.029785 -10.894878 -3.865189

v 3.029785 -10.894878 -3.865189

v -3.029785 -10.894876 -7.350296

v -3.029785 8.508184 -7.350281

v 3.029785 -10.894876 -7.350296

v 3.029785 8.508184 -7.350281

v 3.029785 -10.894876 -7.350296

v 3.029785 4.929623 -3.865189

v 3.029785 -10.894878 -3.865189

v 3.029785 8.508184 -7.350281

v -3.029785 -10.894878 -3.865189

v 3.029785 4.929623 -3.865189

v -3.029785 4.929623 -3.865189

v 3.029785 -10.894878 -3.865189

v -3.029785 8.508184 -7.350281

v -3.029785 -10.894876 -7.350296

v -3.029785 4.929623 -3.865189

v -3.029785 -10.894878 -3.865189

v -18.434326 -203.370621 19.591888

v 18.434082 -175.901169 9.415222

v -18.434326 -175.901169 9.415222

v 18.434082 -203.370621 19.591888

v -3.029785 -155.521835 9.163513

v 14.792969 -165.926910 5.827759

v 3.029785 -155.521835 9.163513

v -14.792969 -165.926910 5.827759

v 18.434082 -175.901169 9.415222

v 14.792969 -165.926910 5.827759

v -18.434326 -175.901169 9.415222

v 14.792969 -165.926910 5.827759

v 3.029785 -155.521805 3.103821

v 3.029785 -155.521835 9.163513

v 14.792969 -168.443832 0.315384

v -14.792969 -165.926910 5.827759

v -3.029785 -155.521835 9.163513

v -3.029785 -155.521805 3.103821

v -14.792969 -168.443832 0.315384

v 14.792969 -168.443832 0.315384

v 18.434082 -175.901169 9.415222

v 18.434082 -177.688034 5.502151

v 14.792969 -165.926910 5.827759

v -18.434326 -175.901169 9.415222

v -14.792969 -165.926910 5.827759

v -14.792969 -168.443832 0.315384

v -18.434326 -177.688034 5.502151

v 18.434082 -203.370621 19.591888

v -18.434326 -203.370621 19.591888

v -18.434326 -177.688034 5.502151

v 18.434082 -177.688034 5.502151

v -14.792969 -168.443832 0.315384

v 14.792969 -168.443832 0.315384

v 3.029785 -155.521805 3.103821

v -3.029785 -155.521805 3.103821

v 3.029785 -54.464554 3.103836

v -3.029785 -54.464554 3.103836



vt 0.480957 0.239746

vt 0.480957 0.240234

vt 0.476807 0.240234

vt 0.480957 0.245117

vt 0.480957 0.246094

vt 0.476807 0.245117

vt 0.267090 0.096680

vt 0.268799 0.086914

vt 0.268799 0.096680

vt 0.267090 0.086914

vt 0.268799 0.096680

vt 0.268799 0.086914

vt 0.270752 0.086914

vt 0.270752 0.096680

vt 0.270752 0.096680

vt 0.270752 0.086914

vt 0.272461 0.086914

vt 0.272461 0.096680

vt 0.267090 0.096680

vt 0.265137 0.086914

vt 0.267090 0.086914

vt 0.265137 0.096680

vt 0.463867 0.238281

vt 0.465332 0.233398

vt 0.465088 0.238281

vt 0.463623 0.233398

vt 0.484131 0.242188

vt 0.498535 0.242188

vt 0.498535 0.243164

vt 0.484131 0.243164

vt 0.466064 0.238281

vt 0.465332 0.233398

vt 0.466797 0.233887

vt 0.465088 0.238281

vt 0.466064 0.238281

vt 0.465088 0.241211

vt 0.465820 0.241211

vt 0.498535 0.242188

vt 0.484131 0.242188

vt 0.484375 0.241699

vt 0.498535 0.241211

vt 0.384766 0.166016

vt 0.384766 0.169922

vt 0.383301 0.169922

vt 0.383301 0.166016

vt 0.463623 0.233398

vt 0.462891 0.238281

vt 0.462158 0.233887

vt 0.463867 0.238281

vt 0.463623 0.241211

vt 0.462891 0.238281

vt 0.462891 0.241211

vt 0.498535 0.243164

vt 0.484375 0.244141

vt 0.484131 0.243164

vt 0.498535 0.244141

vt 0.267090 0.096680

vt 0.268799 0.096680

vt 0.268799 0.097168

vt 0.267090 0.097168

vt 0.267090 0.096680

vt 0.265137 0.097168

vt 0.265137 0.096680

vt 0.267090 0.097168

vt 0.272461 0.097168

vt 0.270752 0.097168

vt 0.270752 0.096680

vt 0.272461 0.096680

vt 0.268799 0.096680

vt 0.270752 0.097168

vt 0.268799 0.097168

vt 0.270752 0.096680

vt 0.268799 0.086914

vt 0.267090 0.086914

vt 0.267090 0.086426

vt 0.268799 0.086426

vt 0.268799 0.086914

vt 0.270752 0.086426

vt 0.270752 0.086914

vt 0.268799 0.086426

vt 0.272461 0.086914

vt 0.270752 0.086426

vt 0.272461 0.086426

vt 0.270752 0.086914

vt 0.267090 0.086914

vt 0.265137 0.086426

vt 0.267090 0.086426

vt 0.265137 0.086914

vt 0.465088 0.238281

vt 0.465088 0.241211

vt 0.463867 0.238281

vt 0.463623 0.241211

vt 0.383301 0.166016

vt 0.383301 0.164551

vt 0.384766 0.166016

vt 0.384766 0.164551

vt 0.383301 0.160156

vt 0.384766 0.160156

vt 0.383301 0.160645

vt 0.384766 0.160645

vt 0.463623 0.245117

vt 0.463623 0.241211

vt 0.465088 0.245117

vt 0.465088 0.241211

vt 0.465088 0.245117

vt 0.465820 0.241211

vt 0.466064 0.245117

vt 0.465088 0.241211

vt 0.383301 0.160645

vt 0.384766 0.164551

vt 0.383301 0.164551

vt 0.384766 0.160645

vt 0.463623 0.241211

vt 0.463623 0.245117

vt 0.462891 0.241211

vt 0.462646 0.245117

vt 0.476807 0.245117

vt 0.480957 0.240234

vt 0.480957 0.245117

vt 0.476807 0.240234

vt 0.484131 0.243164

vt 0.482422 0.240723

vt 0.484131 0.242188

vt 0.482422 0.244629

vt 0.480957 0.240234

vt 0.482422 0.240723

vt 0.480957 0.245117

vt 0.482422 0.240723

vt 0.484375 0.241699

vt 0.484131 0.242188

vt 0.482666 0.239746

vt 0.482422 0.244629

vt 0.484131 0.243164

vt 0.484375 0.244141

vt 0.482666 0.245605

vt 0.482666 0.239746

vt 0.480957 0.240234

vt 0.480957 0.239746

vt 0.482422 0.240723

vt 0.480957 0.245117

vt 0.482422 0.244629

vt 0.482666 0.245605

vt 0.480957 0.246094

vt 0.498535 0.244629

vt 0.498535 0.249512

vt 0.494385 0.249512

vt 0.494385 0.244629

vt 0.492920 0.249023

vt 0.492920 0.245117

vt 0.490967 0.246582

vt 0.490967 0.247559

vt 0.476563 0.246582

vt 0.476563 0.247559



vn 0.984314 0.152941 -0.074510

vn 0.984314 0.152941 -0.074510

vn 1.000000 -0.003922 -0.003922

vn -0.992157 0.152941 -0.074510

vn -0.992157 0.152941 -0.074510

vn -1.000000 -0.003922 -0.003922

vn -0.003922 -0.003922 1.000000

vn -0.003922 -0.003922 1.000000

vn -0.003922 -0.003922 1.000000

vn -0.003922 -0.003922 1.000000

vn 1.000000 -0.003922 -0.003922

vn 1.000000 -0.003922 -0.003922

vn 1.000000 -0.003922 -0.003922

vn 1.000000 -0.003922 -0.003922

vn -0.003922 -0.003922 -1.000000

vn -0.003922 -0.003922 -1.000000

vn -0.003922 -0.003922 -1.000000

vn -0.003922 -0.003922 -1.000000

vn -1.000000 -0.003922 -0.003922

vn -1.000000 -0.003922 -0.003922

vn -1.000000 -0.003922 -0.003922

vn -1.000000 -0.003922 -0.003922

vn -0.003922 -0.003922 1.000000

vn -0.003922 -0.003922 1.000000

vn -0.003922 -0.003922 1.000000

vn -0.003922 -0.003922 1.000000

vn -0.003922 -0.192157 0.976471

vn -0.003922 -0.003922 1.000000

vn -0.003922 -0.003922 1.000000

vn -0.003922 -0.192157 0.976471

vn 1.000000 -0.003922 -0.003922

vn 1.000000 -0.003922 -0.003922

vn 1.000000 -0.003922 -0.003922

vn 1.000000 -0.003922 -0.003922

vn 1.000000 -0.003922 -0.003922

vn 1.000000 -0.003922 -0.003922

vn 1.000000 -0.003922 -0.003922

vn 1.000000 -0.003922 -0.003922

vn 1.000000 -0.003922 -0.003922

vn 1.000000 -0.003922 -0.003922

vn 1.000000 -0.003922 -0.003922

vn -0.003922 -0.003922 -1.000000

vn -0.003922 -0.003922 -1.000000

vn -0.003922 -0.003922 -1.000000

vn -0.003922 -0.003922 -1.000000

vn -1.000000 -0.003922 -0.003922

vn -1.000000 -0.003922 -0.003922

vn -1.000000 -0.003922 -0.003922

vn -1.000000 -0.003922 -0.003922

vn -1.000000 -0.003922 -0.003922

vn -1.000000 -0.003922 -0.003922

vn -1.000000 -0.003922 -0.003922

vn -1.000000 -0.003922 -0.003922

vn -1.000000 -0.003922 -0.003922

vn -1.000000 -0.003922 -0.003922

vn -1.000000 -0.003922 -0.003922

vn -0.003922 1.000000 -0.003922

vn -0.003922 1.000000 -0.003922

vn -0.003922 1.000000 -0.003922

vn -0.003922 1.000000 -0.003922

vn -0.003922 1.000000 -0.003922

vn -0.003922 1.000000 -0.003922

vn -0.003922 1.000000 -0.003922

vn -0.003922 1.000000 -0.003922

vn -0.003922 1.000000 -0.003922

vn -0.003922 1.000000 -0.003922

vn -0.003922 1.000000 -0.003922

vn -0.003922 1.000000 -0.003922

vn -0.003922 1.000000 -0.003922

vn -0.003922 1.000000 -0.003922

vn -0.003922 1.000000 -0.003922

vn -0.003922 1.000000 -0.003922

vn -0.003922 -1.000000 -0.003922

vn -0.003922 -1.000000 -0.003922

vn -0.003922 -1.000000 -0.003922

vn -0.003922 -1.000000 -0.003922

vn -0.003922 -1.000000 -0.003922

vn -0.003922 -1.000000 -0.003922

vn -0.003922 -1.000000 -0.003922

vn -0.003922 -1.000000 -0.003922

vn -0.003922 -1.000000 -0.003922

vn -0.003922 -1.000000 -0.003922

vn -0.003922 -1.000000 -0.003922

vn -0.003922 -1.000000 -0.003922

vn -0.003922 -1.000000 -0.003922

vn -0.003922 -1.000000 -0.003922

vn -0.003922 -1.000000 -0.003922

vn -0.003922 -1.000000 -0.003922

vn -0.003922 1.000000 -0.003922

vn -0.003922 1.000000 -0.003922

vn -0.003922 1.000000 -0.003922

vn -0.003922 1.000000 -0.003922

vn -0.003922 -1.000000 -0.003922

vn -0.003922 -1.000000 -0.003922

vn -0.003922 -1.000000 -0.003922

vn -0.003922 -1.000000 -0.003922

vn -0.003922 -1.000000 -0.003922

vn -0.003922 -1.000000 -0.003922

vn -0.003922 -1.000000 -0.003922

vn -0.003922 -1.000000 -0.003922

vn -0.003922 -0.003922 -1.000000

vn -0.003922 -0.003922 -1.000000

vn -0.003922 -0.003922 -1.000000

vn -0.003922 -0.003922 -1.000000

vn 1.000000 -0.003922 -0.003922

vn 1.000000 -0.003922 -0.003922

vn 1.000000 -0.003922 -0.003922

vn 1.000000 -0.003922 -0.003922

vn -0.003922 -0.003922 1.000000

vn -0.003922 -0.003922 1.000000

vn -0.003922 -0.003922 1.000000

vn -0.003922 -0.003922 1.000000

vn -1.000000 -0.003922 -0.003922

vn -1.000000 -0.003922 -0.003922

vn -1.000000 -0.003922 -0.003922

vn -1.000000 -0.003922 -0.003922

vn -0.003922 0.341177 0.937255

vn -0.003922 0.341177 0.937255

vn -0.003922 0.341177 0.937255

vn -0.003922 0.341177 0.937255

vn -0.003922 -0.192157 0.976471

vn -0.003922 0.160784 0.984314

vn -0.003922 -0.192157 0.976471

vn -0.003922 0.160784 0.984314

vn -0.003922 0.341177 0.937255

vn -0.003922 0.160784 0.984314

vn -0.003922 0.341177 0.937255

vn 0.811765 0.552941 -0.152941

vn 0.670588 0.717647 -0.160784

vn 0.670588 0.717647 -0.160784

vn 0.850981 0.490196 -0.152941

vn -0.819608 0.552941 -0.152941

vn -0.678431 0.717647 -0.160784

vn -0.678431 0.717647 -0.160784

vn -0.858824 0.490196 -0.152941

vn 0.850981 0.490196 -0.152941

vn 0.984314 0.152941 -0.074510

vn 0.984314 0.152941 -0.074510

vn 0.811765 0.552941 -0.152941

vn -0.992157 0.152941 -0.074510

vn -0.819608 0.552941 -0.152941

vn -0.858824 0.490196 -0.152941

vn -0.992157 0.152941 -0.074510

vn -0.003922 -0.482353 -0.882353

vn -0.003922 -0.482353 -0.882353

vn -0.003922 -0.490196 -0.882353

vn -0.003922 -0.490196 -0.882353

vn -0.003922 -0.294118 -0.960784

vn -0.003922 -0.294118 -0.960784

vn -0.003922 0.121569 -0.992157

vn -0.003922 0.121569 -0.992157

vn -0.003922 -0.003922 -1.000000

vn -0.003922 -0.003922 -1.000000

f 1/1/1 2/2/2 3/3/3

f 4/4/4 5/5/5 6/6/6

f 7/7/7 8/8/8 9/9/9

f 8/8/8 7/7/7 10/10/10

f 11/11/11 12/12/12 13/13/13

f 11/11/11 13/13/13 14/14/14

f 15/15/15 16/16/16 17/17/17

f 17/17/17 18/18/18 15/15/15

f 19/19/19 20/20/20 21/21/21

f 20/20/20 19/19/19 22/22/22

f 23/23/23 24/24/24 25/25/25

f 24/24/24 23/23/23 26/26/26

f 27/27/27 28/28/28 29/29/29

f 29/29/29 30/30/30 27/27/27

f 31/31/31 32/32/32 33/33/33

f 32/32/32 31/31/31 34/34/34

f 35/35/35 36/36/36 34/34/34

f 36/36/36 35/35/35 37/37/37

f 38/38/38 39/39/39 40/40/40

f 38/38/38 40/40/40 41/41/41

f 42/42/42 43/43/43 44/44/44

f 44/44/44 45/45/45 42/42/42

f 46/46/46 47/47/47 48/48/48

f 47/47/47 46/46/46 49/49/49

f 49/49/49 50/50/50 51/51/51

f 51/51/51 50/50/50 52/52/52

f 53/53/53 54/54/54 55/55/55

f 54/54/54 53/53/53 56/56/56

f 57/57/57 58/58/58 59/59/59

f 57/57/57 59/59/59 60/60/60

f 61/61/61 62/62/62 63/63/63

f 62/62/62 61/61/61 64/64/64

f 65/65/65 66/66/66 67/67/67

f 65/65/65 67/67/67 68/68/68

f 69/69/69 70/70/70 71/71/71

f 69/69/69 72/72/72 70/70/70

f 73/73/73 74/74/74 75/75/75

f 73/73/73 75/75/75 76/76/76

f 77/77/77 78/78/78 79/79/79

f 78/78/78 77/77/77 80/80/80

f 81/81/81 82/82/82 83/83/83

f 82/82/82 81/81/81 84/84/84

f 85/85/85 86/86/86 87/87/87

f 85/85/85 88/88/88 86/86/86

f 89/89/89 90/90/90 91/91/91

f 91/91/91 90/90/90 92/92/92

f 93/93/93 94/94/94 95/95/95

f 95/95/95 94/94/94 96/96/96

f 97/97/97 98/98/98 99/99/99

f 100/100/100 99/99/99 98/98/98

f 101/101/101 102/102/102 103/103/103

f 103/103/103 102/102/102 104/104/104

f 105/105/105 106/106/106 107/107/107

f 106/106/106 105/105/105 108/108/108

f 109/109/109 110/110/110 111/111/111

f 110/110/110 109/109/109 112/112/112

f 113/113/113 114/114/114 115/115/115

f 116/116/116 115/115/115 114/114/114

f 117/117/117 118/118/118 119/119/119

f 118/118/118 117/117/117 120/120/120

f 121/121/121 122/122/122 123/123/123

f 124/124/124 122/122/122 121/121/121

f 124/124/124 125/125/125 126/126/126

f 127/127/127 125/125/125 124/124/124

f 128/128/128 129/129/129 130/130/130

f 129/129/129 128/128/128 131/131/131

f 132/132/132 133/133/133 134/134/134

f 132/132/132 134/134/134 135/135/135

f 136/136/136 137/137/137 138/138/138

f 137/137/137 136/136/136 139/139/139

f 140/140/140 141/141/141 142/142/142

f 142/142/142 143/143/143 140/140/140

f 144/144/144 145/145/145 146/146/146

f 144/144/144 146/146/146 147/147/147

f 148/148/148 147/147/147 146/146/146

f 147/147/147 148/148/148 149/149/149

f 149/149/149 148/148/148 150/150/150

f 150/150/150 148/148/148 151/151/151

f 151/151/151 152/152/152 150/150/150

f 152/152/152 151/151/151 153/153/153

