# UnrealEd OBJ exporter (_Internal)



v -2.327209 -0.138100 19.204315

v -2.327209 1.959539 19.204315

v -3.765991 -1.606797 13.191345

v 2.327332 1.959539 19.204315

v 3.766235 -1.606797 13.191345

v 5.941528 1.682225 14.215576

v -2.327209 1.959539 19.204315

v 2.327332 1.959539 19.204315

v 0.000122 0.553027 16.841736

v 5.941528 1.682225 14.215576

v 7.124268 1.682227 9.642700

v 0.000061 0.030360 8.446350

v 7.124268 1.682227 9.642700

v 5.059875 1.682227 3.701385

v 0.000061 0.030360 8.446350

v 0.000061 0.030360 8.446350

v 5.059875 1.682227 3.701385

v 0.000122 1.959540 0.644379

v 0.000061 0.030360 8.446350

v 0.000122 1.959540 0.644379

v -5.059692 1.682227 3.701385

v -5.059692 1.682227 3.701385

v -7.124146 1.682226 9.642700

v 0.000061 0.030360 8.446350

v -7.124146 1.682226 9.642700

v -5.941406 1.682225 14.215576

v 0.000061 0.030360 8.446350

v -3.170166 -1.806381 4.587433

v 0.000122 -1.163428 3.196915

v 3.170288 -1.806381 4.587433

v 2.327332 1.959539 19.204315

v 2.327332 -0.138100 19.204315

v 3.766235 -1.606797 13.191345

v -2.327209 1.959539 19.204315

v -5.941406 1.682225 14.215576

v -3.765991 -1.606797 13.191345

v 1.590088 1.959540 57.521637

v -1.590088 1.959540 57.521637

v -1.590088 -0.138100 57.521545

v 1.590088 -0.138100 57.521545

v -3.170166 -1.806381 4.587433

v 0.000122 1.959540 0.644379

v 0.000122 -1.163428 3.196915

v -5.059692 1.682227 3.701385

v 1.590088 1.959540 57.521637

v -2.327209 1.959539 19.204315

v -1.590088 1.959540 57.521637

v 2.327332 1.959539 19.204315

v 1.590088 -0.138100 57.521545

v 2.327332 1.959539 19.204315

v 1.590088 1.959540 57.521637

v 2.327332 -0.138100 19.204315

v 1.590088 -0.138100 57.521545

v -2.327209 -0.138100 19.204315

v 2.327332 -0.138100 19.204315

v -1.590088 -0.138100 57.521545

v -1.590088 1.959540 57.521637

v -2.327209 1.959539 19.204315

v -2.327209 -0.138100 19.204315

v -2.327209 -0.138100 19.204315

v -3.765991 -1.606797 13.191345

v 2.327332 -0.138100 19.204315

v 3.766235 -1.606797 13.191345

v -4.691101 -1.959261 9.615234

v -7.124146 1.682226 9.642700

v -3.170166 -1.806381 4.587433

v -5.059692 1.682227 3.701385

v 7.124268 1.682227 9.642700

v 3.170288 -1.806381 4.587433

v 5.059875 1.682227 3.701385

v 4.691162 -1.959261 9.615234

v -3.765991 -1.606797 13.191345

v -7.124146 1.682226 9.642700

v -4.691101 -1.959261 9.615234

v -5.941406 1.682225 14.215576

v 5.941528 1.682225 14.215576

v 3.766235 -1.606797 13.191345

v 7.124268 1.682227 9.642700

v 4.691162 -1.959261 9.615234

v 0.000122 1.959540 0.644379

v 3.170288 -1.806381 4.587433

v 0.000122 -1.163428 3.196915

v 5.059875 1.682227 3.701385

v 0.000122 0.553027 16.841736

v 5.941528 1.682225 14.215576

v 0.000061 0.030360 8.446350

v 2.327332 1.959539 19.204315

v 0.000122 0.553027 16.841736

v 0.000061 0.030360 8.446350

v -5.941406 1.682225 14.215576

v -2.327209 1.959539 19.204315

v -4.691101 -1.959261 9.615234

v 4.691162 -1.959261 9.615234

v -3.765991 -1.606797 13.191345

v 3.766235 -1.606797 13.191345

v 4.691162 -1.959261 9.615234

v -3.170166 -1.806381 4.587433

v 3.170288 -1.806381 4.587433

v -4.691101 -1.959261 9.615234



vt 0.713379 0.440430

vt 0.713379 0.440918

vt 0.710938 0.440918

vt 0.713379 0.437500

vt 0.710449 0.437988

vt 0.710938 0.436523

vt 0.705078 0.431152

vt 0.705078 0.429199

vt 0.706055 0.430176

vt 0.707031 0.428223

vt 0.708984 0.427734

vt 0.708984 0.430664

vt 0.708984 0.427734

vt 0.710938 0.428711

vt 0.708984 0.430664

vt 0.708984 0.430664

vt 0.710938 0.428711

vt 0.712402 0.431152

vt 0.708984 0.430664

vt 0.712402 0.431152

vt 0.710449 0.433105

vt 0.710449 0.433105

vt 0.708008 0.433594

vt 0.708984 0.430664

vt 0.708008 0.433594

vt 0.706543 0.432617

vt 0.708984 0.430664

vt 0.708008 0.440918

vt 0.706543 0.439941

vt 0.708008 0.438477

vt 0.713379 0.437500

vt 0.712891 0.438477

vt 0.710449 0.437988

vt 0.713379 0.440918

vt 0.711426 0.442383

vt 0.710938 0.440918

vt 0.690918 0.428223

vt 0.690918 0.429199

vt 0.689941 0.429199

vt 0.690430 0.427734

vt 0.708008 0.440918

vt 0.705078 0.439941

vt 0.706543 0.439941

vt 0.707520 0.442383

vt 0.690918 0.428223

vt 0.705078 0.431152

vt 0.690918 0.429199

vt 0.705078 0.429199

vt 0.727051 0.437500

vt 0.713379 0.437500

vt 0.727051 0.437012

vt 0.712891 0.438477

vt 0.727051 0.437500

vt 0.713379 0.440430

vt 0.712891 0.438477

vt 0.727051 0.438965

vt 0.727051 0.439453

vt 0.713379 0.440918

vt 0.713379 0.440430

vt 0.713379 0.440430

vt 0.710938 0.440918

vt 0.712891 0.438477

vt 0.710449 0.437988

vt 0.709473 0.441406

vt 0.709473 0.442871

vt 0.708008 0.440918

vt 0.707520 0.442383

vt 0.708984 0.436523

vt 0.708008 0.438477

vt 0.707031 0.437012

vt 0.709473 0.437988

vt 0.710938 0.440918

vt 0.709473 0.442871

vt 0.709473 0.441406

vt 0.711426 0.442383

vt 0.710938 0.436523

vt 0.710449 0.437988

vt 0.708984 0.436523

vt 0.709473 0.437988

vt 0.705078 0.439941

vt 0.708008 0.438477

vt 0.706543 0.439941

vt 0.707031 0.437012

vt 0.706055 0.430176

vt 0.707031 0.428223

vt 0.708984 0.430664

vt 0.705078 0.429199

vt 0.706055 0.430176

vt 0.708984 0.430664

vt 0.706543 0.432617

vt 0.705078 0.431152

vt 0.709473 0.441406

vt 0.709473 0.437988

vt 0.710938 0.440918

vt 0.710449 0.437988

vt 0.709473 0.437988

vt 0.708008 0.440918

vt 0.708008 0.438477

vt 0.709473 0.441406



vn -0.701961 -0.694118 0.176471

vn -0.976471 -0.121569 0.184314

vn -0.435294 -0.866667 0.270588

vn 0.968628 -0.121569 0.184314

vn 0.427451 -0.866667 0.270588

vn 0.725490 -0.584314 0.364706

vn 0.121569 0.952941 -0.262745

vn -0.129412 0.952941 -0.262745

vn -0.003922 0.945098 -0.317647

vn -0.450980 0.850981 -0.262745

vn -0.568627 0.819608 -0.011765

vn -0.270588 0.945098 -0.160784

vn -0.568627 0.819608 -0.011765

vn -0.450980 0.858824 0.231373

vn -0.341176 0.937255 -0.011765

vn -0.270588 0.952941 0.137255

vn -0.450980 0.858824 0.231373

vn -0.003922 0.898039 0.419608

vn 0.262745 0.952941 0.137255

vn -0.003922 0.898039 0.419608

vn 0.443137 0.858824 0.231373

vn 0.443137 0.858824 0.231373

vn 0.560784 0.819608 -0.011765

vn 0.262745 0.952941 0.137255

vn 0.560784 0.819608 -0.011765

vn 0.443137 0.850981 -0.262745

vn 0.333333 0.937255 -0.011765

vn -0.435294 -0.866667 -0.254902

vn -0.003922 -0.835294 -0.552941

vn 0.427451 -0.866667 -0.254902

vn 0.968628 -0.121569 0.184314

vn 0.694118 -0.694118 0.176471

vn 0.427451 -0.866667 0.270588

vn -0.976471 -0.121569 0.184314

vn -0.733333 -0.584314 0.364706

vn -0.435294 -0.866667 0.270588

vn -0.003922 -0.003922 1.000000

vn -0.003922 -0.003922 1.000000

vn -0.003922 -0.003922 1.000000

vn -0.003922 -0.003922 1.000000

vn -0.435294 -0.866667 -0.254902

vn -0.003922 -0.639216 -0.780392

vn -0.003922 -0.835294 -0.552941

vn -0.709804 -0.615686 -0.356863

vn -0.003922 1.000000 -0.003922

vn 0.121569 0.952941 -0.262745

vn -0.003922 1.000000 -0.003922

vn -0.129412 0.952941 -0.262745

vn 0.701961 -0.717647 0.011765

vn 0.968628 -0.121569 0.184314

vn 0.992157 -0.003922 0.011765

vn 0.694118 -0.694118 0.176471

vn 0.701961 -0.717647 0.011765

vn -0.701961 -0.694118 0.176471

vn 0.694118 -0.694118 0.176471

vn -0.709804 -0.717647 0.011765

vn -1.000000 -0.003922 0.011765

vn -0.976471 -0.121569 0.184314

vn -0.701961 -0.694118 0.176471

vn -0.701961 -0.694118 0.176471

vn -0.435294 -0.866667 0.270588

vn 0.694118 -0.694118 0.176471

vn 0.427451 -0.866667 0.270588

vn -0.513725 -0.866667 0.019608

vn -0.827451 -0.576471 0.011765

vn -0.435294 -0.866667 -0.254902

vn -0.709804 -0.615686 -0.356863

vn 0.819608 -0.576471 0.011765

vn 0.427451 -0.866667 -0.254902

vn 0.701961 -0.615686 -0.356863

vn 0.505883 -0.866667 0.019608

vn -0.435294 -0.866667 0.270588

vn -0.827451 -0.576471 0.011765

vn -0.513725 -0.866667 0.019608

vn -0.733333 -0.584314 0.364706

vn 0.725490 -0.584314 0.364706

vn 0.427451 -0.866667 0.270588

vn 0.819608 -0.576471 0.011765

vn 0.505883 -0.866667 0.019608

vn -0.003922 -0.639216 -0.780392

vn 0.427451 -0.866667 -0.254902

vn -0.003922 -0.835294 -0.552941

vn 0.701961 -0.615686 -0.356863

vn -0.003922 0.945098 -0.317647

vn -0.450980 0.850981 -0.262745

vn -0.270588 0.945098 -0.160784

vn -0.129412 0.952941 -0.262745

vn -0.003922 0.945098 -0.317647

vn 0.262745 0.945098 -0.160784

vn 0.443137 0.850981 -0.262745

vn 0.121569 0.952941 -0.262745

vn -0.513725 -0.866667 0.019608

vn 0.505883 -0.866667 0.019608

vn -0.435294 -0.866667 0.270588

vn 0.427451 -0.866667 0.270588

vn 0.505883 -0.866667 0.019608

vn -0.435294 -0.866667 -0.254902

vn 0.427451 -0.866667 -0.254902

vn -0.513725 -0.866667 0.019608

f 1/1/1 2/2/2 3/3/3

f 4/4/4 5/5/5 6/6/6

f 7/7/7 8/8/8 9/9/9

f 10/10/10 11/11/11 12/12/12

f 13/13/13 14/14/14 15/15/15

f 16/16/16 17/17/17 18/18/18

f 19/19/19 20/20/20 21/21/21

f 22/22/22 23/23/23 24/24/24

f 25/25/25 26/26/26 27/27/27

f 28/28/28 29/29/29 30/30/30

f 31/31/31 32/32/32 33/33/33

f 34/34/34 35/35/35 36/36/36

f 37/37/37 38/38/38 39/39/39

f 37/37/37 39/39/39 40/40/40

f 41/41/41 42/42/42 43/43/43

f 42/42/42 41/41/41 44/44/44

f 45/45/45 46/46/46 47/47/47

f 46/46/46 45/45/45 48/48/48

f 49/49/49 50/50/50 51/51/51

f 50/50/50 49/49/49 52/52/52

f 53/53/53 54/54/54 55/55/55

f 56/56/56 54/54/54 53/53/53

f 57/57/57 58/58/58 56/56/56

f 56/56/56 58/58/58 59/59/59

f 60/60/60 61/61/61 62/62/62

f 62/62/62 61/61/61 63/63/63

f 64/64/64 65/65/65 66/66/66

f 65/65/65 67/67/67 66/66/66

f 68/68/68 69/69/69 70/70/70

f 69/69/69 68/68/68 71/71/71

f 72/72/72 73/73/73 74/74/74

f 73/73/73 72/72/72 75/75/75

f 76/76/76 77/77/77 78/78/78

f 77/77/77 79/79/79 78/78/78

f 80/80/80 81/81/81 82/82/82

f 81/81/81 80/80/80 83/83/83

f 84/84/84 85/85/85 86/86/86

f 85/85/85 84/84/84 87/87/87

f 88/88/88 89/89/89 90/90/90

f 90/90/90 91/91/91 88/88/88

f 92/92/92 93/93/93 94/94/94

f 94/94/94 93/93/93 95/95/95

f 96/96/96 97/97/97 98/98/98

f 97/97/97 96/96/96 99/99/99

