# UnrealEd OBJ exporter (_Internal)



v -7.467529 3.906696 15.967407

v 1.730804 3.906696 19.959900

v 7.591705 3.906694 15.463257

v -0.388336 3.906683 -19.959961

v -14.938995 3.906683 -13.377625

v 3.869995 3.906683 -12.954712

v -10.800964 3.906691 9.891785

v -7.467529 3.906696 15.967407

v 11.070892 3.906682 -10.675171

v -10.800964 3.906691 9.891785

v 3.869995 3.906683 -12.954712

v 11.070892 3.906682 -10.675171

v -7.467529 3.906696 15.967407

v 7.591705 3.906694 15.463257

v 19.824829 3.906686 -9.005127

v 7.591705 3.906694 15.463257

v 23.626404 3.906684 -1.702148

v 19.824829 3.906686 -9.005127

v 23.569885 3.906690 8.909424

v -10.800964 3.906691 9.891785

v -19.158783 3.906696 7.877869

v -19.158783 0.223165 7.877808

v -10.800964 0.223166 9.891785

v -23.626404 0.223163 -5.306641

v -14.938995 3.906683 -13.377625

v -14.938995 0.223161 -13.377563

v -23.626404 3.906685 -5.306641

v -19.158783 0.223165 7.877808

v -23.626404 3.906685 -5.306641

v -23.626404 0.223163 -5.306641

v -19.158783 3.906696 7.877869

v 3.869995 3.906683 -12.954712

v -0.388336 0.223160 -19.959839

v -0.388336 3.906683 -19.959961

v 3.869995 0.223161 -12.954651

v -14.938995 0.223161 -13.377563

v -0.388336 3.906683 -19.959961

v -0.388336 0.223160 -19.959839

v -14.938995 3.906683 -13.377625

v 3.869995 0.223161 -12.954651

v 11.070892 3.906682 -10.675171

v 11.070892 0.223162 -10.675171

v 3.869995 3.906683 -12.954712

v 19.824829 0.223162 -9.005188

v 11.070892 0.223162 -10.675171

v 11.070892 3.906682 -10.675171

v 19.824829 3.906686 -9.005127

v -7.467529 3.906696 15.967407

v 1.730804 0.223167 19.959900

v 1.730804 3.906696 19.959900

v -7.467529 0.223166 15.967407

v 1.730804 3.906696 19.959900

v 1.730804 0.223167 19.959900

v 7.591705 3.906694 15.463257

v 7.591705 0.223166 15.463318

v 23.569885 0.223165 8.909363

v 23.626404 3.906684 -1.702148

v 23.569885 3.906690 8.909424

v 23.626404 0.223164 -1.702148

v 23.626404 0.223164 -1.702148

v 19.824829 3.906686 -9.005127

v 23.626404 3.906684 -1.702148

v 19.824829 0.223162 -9.005188

v 23.569885 3.906690 8.909424

v 7.591705 3.906694 15.463257

v 7.591705 0.223166 15.463318

v 23.569885 0.223165 8.909363

v -10.800964 3.906691 9.891785

v -23.626404 3.906685 -5.306641

v -19.158783 3.906696 7.877869

v -14.938995 3.906683 -13.377625

v -7.467529 0.223166 15.967407

v -7.467529 3.906696 15.967407

v -10.800964 0.223166 9.891785

v 3.869995 0.223161 -12.954651

v -14.938995 0.223161 -13.377563

v -0.388336 0.223160 -19.959839

v -10.800964 0.223166 9.891785

v -23.626404 0.223163 -5.306641

v -19.158783 0.223165 7.877808

v 11.070892 0.223162 -10.675171

v -7.467529 0.223166 15.967407

v 7.591705 0.223166 15.463318

v 1.730804 0.223167 19.959900

v 19.824829 0.223162 -9.005188

v 23.626404 0.223164 -1.702148

v 23.569885 0.223165 8.909363



vt 0.449219 0.476074

vt 0.450928 0.482422

vt 0.447754 0.486328

vt 0.424072 0.477051

vt 0.429688 0.468262

vt 0.427979 0.480957

vt 0.445801 0.473145

vt 0.449219 0.476074

vt 0.428955 0.486816

vt 0.445801 0.473145

vt 0.427979 0.480957

vt 0.428955 0.486816

vt 0.449219 0.476074

vt 0.447754 0.486328

vt 0.429688 0.492676

vt 0.447754 0.486328

vt 0.434326 0.495605

vt 0.429688 0.492676

vt 0.441162 0.496582

vt 0.445801 0.473145

vt 0.444336 0.467285

vt 0.445801 0.465332

vt 0.448242 0.471191

vt 0.435791 0.460938

vt 0.429688 0.468262

vt 0.427979 0.466309

vt 0.435791 0.463379

vt 0.445801 0.465332

vt 0.435791 0.463379

vt 0.435791 0.460938

vt 0.444336 0.467285

vt 0.427979 0.480957

vt 0.422119 0.477051

vt 0.424072 0.477051

vt 0.425293 0.482422

vt 0.427979 0.466309

vt 0.424072 0.477051

vt 0.422119 0.477051

vt 0.429688 0.468262

vt 0.425293 0.482422

vt 0.428955 0.486816

vt 0.426514 0.487305

vt 0.427979 0.480957

vt 0.427734 0.494141

vt 0.426514 0.487305

vt 0.428955 0.486816

vt 0.429688 0.492676

vt 0.449219 0.476074

vt 0.453125 0.482910

vt 0.450928 0.482422

vt 0.451416 0.475098

vt 0.450928 0.482422

vt 0.453125 0.482910

vt 0.447754 0.486328

vt 0.449951 0.487793

vt 0.442139 0.498535

vt 0.434326 0.495605

vt 0.441162 0.496582

vt 0.433350 0.498047

vt 0.433350 0.498047

vt 0.429688 0.492676

vt 0.434326 0.495605

vt 0.427734 0.494141

vt 0.441162 0.496582

vt 0.447754 0.486328

vt 0.449951 0.487793

vt 0.442139 0.498535

vt 0.445801 0.473145

vt 0.435791 0.463379

vt 0.444336 0.467285

vt 0.429688 0.468262

vt 0.451416 0.475098

vt 0.449219 0.476074

vt 0.448242 0.471191

vt 0.435059 0.439453

vt 0.423340 0.444824

vt 0.430176 0.436523

vt 0.433105 0.457520

vt 0.420654 0.452637

vt 0.427246 0.458984

vt 0.440186 0.438477

vt 0.437012 0.460449

vt 0.446045 0.455566

vt 0.443848 0.459961

vt 0.446045 0.437012

vt 0.450439 0.439941

vt 0.453613 0.446777



vn -0.521569 0.639216 0.560784

vn 0.090196 0.607843 0.780392

vn 0.333333 0.733333 0.584314

vn 0.239216 0.576471 -0.780392

vn -0.411765 0.670588 -0.623529

vn 0.372549 0.788235 -0.482353

vn -0.356863 0.803922 0.458824

vn -0.521569 0.639216 0.560784

vn 0.168628 0.717647 -0.678431

vn -0.356863 0.803922 0.458824

vn 0.372549 0.788235 -0.482353

vn 0.168628 0.717647 -0.678431

vn -0.521569 0.639216 0.560784

vn 0.333333 0.733333 0.584314

vn 0.466667 0.615686 -0.631373

vn 0.333333 0.733333 0.584314

vn 0.725490 0.654902 -0.184314

vn 0.466667 0.615686 -0.631373

vn 0.654902 0.600000 0.443137

vn -0.356863 0.803922 0.458824

vn -0.537255 0.607843 0.576471

vn -0.537255 -0.615686 0.576471

vn -0.356863 -0.811765 0.458824

vn -0.780392 -0.607843 -0.200000

vn -0.411765 0.670588 -0.623529

vn -0.411765 -0.678431 -0.623529

vn -0.780392 0.600000 -0.200000

vn -0.537255 -0.615686 0.576471

vn -0.780392 0.600000 -0.200000

vn -0.780392 -0.607843 -0.200000

vn -0.537255 0.607843 0.576471

vn 0.372549 0.788235 -0.482353

vn 0.239216 -0.584314 -0.780392

vn 0.239216 0.576471 -0.780392

vn 0.372549 -0.796078 -0.482353

vn -0.411765 -0.678431 -0.623529

vn 0.239216 0.576471 -0.780392

vn 0.239216 -0.584314 -0.780392

vn -0.411765 0.670588 -0.623529

vn 0.372549 -0.796078 -0.482353

vn 0.168628 0.717647 -0.678431

vn 0.168628 -0.725490 -0.678431

vn 0.372549 0.788235 -0.482353

vn 0.466667 -0.623529 -0.631373

vn 0.168628 -0.725490 -0.678431

vn 0.168628 0.717647 -0.678431

vn 0.466667 0.615686 -0.631373

vn -0.521569 0.639216 0.560784

vn 0.090196 -0.615686 0.780392

vn 0.090196 0.607843 0.780392

vn -0.521569 -0.647059 0.560784

vn 0.090196 0.607843 0.780392

vn 0.090196 -0.615686 0.780392

vn 0.333333 0.733333 0.584314

vn 0.333333 -0.741176 0.584314

vn 0.654902 -0.607843 0.443137

vn 0.725490 0.654902 -0.184314

vn 0.654902 0.600000 0.443137

vn 0.725490 -0.662745 -0.184314

vn 0.725490 -0.662745 -0.184314

vn 0.466667 0.615686 -0.631373

vn 0.725490 0.654902 -0.184314

vn 0.466667 -0.623529 -0.631373

vn 0.654902 0.600000 0.443137

vn 0.333333 0.733333 0.584314

vn 0.333333 -0.741176 0.584314

vn 0.654902 -0.607843 0.443137

vn -0.356863 0.803922 0.458824

vn -0.780392 0.600000 -0.200000

vn -0.537255 0.607843 0.576471

vn -0.411765 0.670588 -0.623529

vn -0.521569 -0.647059 0.560784

vn -0.521569 0.639216 0.560784

vn -0.356863 -0.811765 0.458824

vn 0.372549 -0.796078 -0.482353

vn -0.411765 -0.678431 -0.623529

vn 0.239216 -0.584314 -0.780392

vn -0.356863 -0.811765 0.458824

vn -0.780392 -0.607843 -0.200000

vn -0.537255 -0.615686 0.576471

vn 0.168628 -0.725490 -0.678431

vn -0.521569 -0.647059 0.560784

vn 0.333333 -0.741176 0.584314

vn 0.090196 -0.615686 0.780392

vn 0.466667 -0.623529 -0.631373

vn 0.725490 -0.662745 -0.184314

vn 0.654902 -0.607843 0.443137

f 1/1/1 2/2/2 3/3/3

f 4/4/4 5/5/5 6/6/6

f 6/6/6 5/5/5 7/7/7

f 8/8/8 9/9/9 10/10/10

f 10/10/10 9/9/9 11/11/11

f 12/12/12 13/13/13 14/14/14

f 14/14/14 15/15/15 12/12/12

f 16/16/16 17/17/17 18/18/18

f 17/17/17 16/16/16 19/19/19

f 20/20/20 21/21/21 22/22/22

f 20/20/20 22/22/22 23/23/23

f 24/24/24 25/25/25 26/26/26

f 25/25/25 24/24/24 27/27/27

f 28/28/28 29/29/29 30/30/30

f 29/29/29 28/28/28 31/31/31

f 32/32/32 33/33/33 34/34/34

f 33/33/33 32/32/32 35/35/35

f 36/36/36 37/37/37 38/38/38

f 37/37/37 36/36/36 39/39/39

f 40/40/40 41/41/41 42/42/42

f 41/41/41 40/40/40 43/43/43

f 44/44/44 45/45/45 46/46/46

f 44/44/44 46/46/46 47/47/47

f 48/48/48 49/49/49 50/50/50

f 49/49/49 48/48/48 51/51/51

f 52/52/52 53/53/53 54/54/54

f 54/54/54 53/53/53 55/55/55

f 56/56/56 57/57/57 58/58/58

f 57/57/57 56/56/56 59/59/59

f 60/60/60 61/61/61 62/62/62

f 61/61/61 60/60/60 63/63/63

f 64/64/64 65/65/65 66/66/66

f 64/64/64 66/66/66 67/67/67

f 68/68/68 69/69/69 70/70/70

f 69/69/69 68/68/68 71/71/71

f 68/68/68 72/72/72 73/73/73

f 72/72/72 68/68/68 74/74/74

f 75/75/75 76/76/76 77/77/77

f 76/76/76 75/75/75 78/78/78

f 78/78/78 79/79/79 76/76/76

f 79/79/79 78/78/78 80/80/80

f 81/81/81 78/78/78 75/75/75

f 81/81/81 82/82/82 78/78/78

f 82/82/82 81/81/81 83/83/83

f 83/83/83 84/84/84 82/82/82

f 85/85/85 83/83/83 81/81/81

f 86/86/86 83/83/83 85/85/85

f 83/83/83 86/86/86 87/87/87

