# UnrealEd OBJ exporter (_Internal)



v -23.357971 4.035861 4.186523

v -16.965149 4.035854 16.932434

v -5.809479 4.035854 18.585999

v -23.357971 4.035861 4.186523

v -5.809479 4.035854 18.585999

v 7.033173 4.035855 11.700317

v 11.133820 4.035860 -1.146179

v -4.951782 4.035852 -13.377991

v 3.234833 4.035858 -11.908752

v 11.133820 4.035860 -1.146179

v 11.382996 4.035854 -13.113831

v -14.406891 4.035856 -10.618958

v 7.033173 4.035855 11.700317

v -23.357971 4.035861 4.186523

v 11.382996 4.035854 -13.113831

v 23.357971 4.035854 -12.297119

v 20.636292 4.035852 -18.585999

v 11.133820 4.035860 -1.146179

v 3.234833 0.074162 -11.908691

v -4.951782 0.074161 -13.377991

v -4.951782 4.035852 -13.377991

v 3.234833 4.035858 -11.908752

v 7.033173 0.074165 11.700317

v 11.133820 4.035860 -1.146179

v 7.033173 4.035855 11.700317

v 11.133820 0.074163 -1.146301

v -23.357971 0.074164 4.186523

v -16.965149 0.074166 16.932434

v -16.965149 4.035854 16.932434

v -23.357971 4.035861 4.186523

v -16.965149 0.074166 16.932434

v -5.809479 4.035854 18.585999

v -16.965149 4.035854 16.932434

v -5.809479 0.074166 18.585938

v -5.809479 0.074166 18.585938

v 7.033173 4.035855 11.700317

v -5.809479 4.035854 18.585999

v 7.033173 0.074165 11.700317

v -23.357971 0.074164 4.186523

v -14.406891 4.035856 -10.618958

v -14.406891 0.074162 -10.619019

v -23.357971 4.035861 4.186523

v 23.357971 4.035854 -12.297119

v 11.133820 4.035860 -1.146179

v 11.133820 0.074163 -1.146301

v 23.357971 0.074162 -12.297119

v 23.357971 0.074162 -12.297119

v 20.636292 4.035852 -18.585999

v 23.357971 4.035854 -12.297119

v 20.636292 0.074161 -18.585999

v 11.382996 0.074161 -13.113770

v 20.636292 4.035852 -18.585999

v 20.636292 0.074161 -18.585999

v 11.382996 4.035854 -13.113831

v 3.234833 0.074162 -11.908691

v 11.382996 0.074161 -13.113770

v 3.234833 4.035858 -11.908752

v -14.406891 0.074162 -10.619019

v -4.951782 4.035852 -13.377991

v -4.951782 0.074161 -13.377991

v -14.406891 4.035856 -10.618958

v -5.809479 0.074166 18.585938

v -16.965149 0.074166 16.932434

v -23.357971 0.074164 4.186523

v 7.033173 0.074165 11.700317

v -14.406891 0.074162 -10.619019

v -4.951782 0.074161 -13.377991

v 11.133820 0.074163 -1.146301

v 3.234833 0.074162 -11.908691

v 11.382996 0.074161 -13.113770

v 23.357971 0.074162 -12.297119

v 20.636292 0.074161 -18.585999



vt 0.454834 0.451172

vt 0.464355 0.450684

vt 0.469971 0.455566

vt 0.454834 0.451172

vt 0.469971 0.455566

vt 0.471680 0.465820

vt 0.465820 0.473145

vt 0.452148 0.468262

vt 0.456055 0.472656

vt 0.465820 0.473145

vt 0.458740 0.478516

vt 0.449951 0.461914

vt 0.471680 0.465820

vt 0.454834 0.451172

vt 0.458740 0.478516

vt 0.463867 0.484863

vt 0.459961 0.485840

vt 0.465820 0.473145

vt 0.453613 0.474609

vt 0.449707 0.469727

vt 0.452148 0.468262

vt 0.456055 0.472656

vt 0.474121 0.465820

vt 0.465820 0.473145

vt 0.471680 0.465820

vt 0.468506 0.474609

vt 0.453369 0.449219

vt 0.465088 0.448242

vt 0.464355 0.450684

vt 0.454834 0.451172

vt 0.465088 0.448242

vt 0.469971 0.455566

vt 0.464355 0.450684

vt 0.472168 0.454590

vt 0.472168 0.454590

vt 0.471680 0.465820

vt 0.469971 0.455566

vt 0.474121 0.465820

vt 0.453369 0.449219

vt 0.449951 0.461914

vt 0.447510 0.461914

vt 0.454834 0.451172

vt 0.463867 0.484863

vt 0.465820 0.473145

vt 0.468506 0.474609

vt 0.465332 0.486328

vt 0.465332 0.486328

vt 0.459961 0.485840

vt 0.463867 0.484863

vt 0.458984 0.487305

vt 0.456055 0.479492

vt 0.459961 0.485840

vt 0.458984 0.487305

vt 0.458740 0.478516

vt 0.453613 0.474609

vt 0.456055 0.479492

vt 0.456055 0.472656

vt 0.447510 0.461914

vt 0.452148 0.468262

vt 0.449707 0.469727

vt 0.449951 0.461914

vt 0.489990 0.488281

vt 0.485596 0.494629

vt 0.476074 0.494629

vt 0.489746 0.478516

vt 0.469727 0.484375

vt 0.470703 0.478027

vt 0.483154 0.471680

vt 0.474121 0.473633

vt 0.475830 0.468262

vt 0.479980 0.460938

vt 0.475342 0.460938



vn -0.796078 0.607843 -0.035294

vn -0.466667 0.615686 0.631373

vn 0.129412 0.639216 0.749020

vn -0.796078 0.607843 -0.035294

vn 0.129412 0.639216 0.749020

vn 0.592157 0.631373 0.490196

vn 0.529412 0.764706 0.341177

vn -0.043137 0.654902 -0.756863

vn 0.003922 0.741177 -0.670588

vn 0.529412 0.764706 0.341177

vn -0.223529 0.749020 -0.623529

vn -0.474510 0.631373 -0.615686

vn 0.592157 0.631373 0.490196

vn -0.796078 0.607843 -0.035294

vn -0.223529 0.749020 -0.623529

vn 0.780392 0.592157 0.160784

vn 0.247059 0.568628 -0.788235

vn 0.529412 0.764706 0.341177

vn 0.003922 -0.749020 -0.670588

vn -0.043137 -0.662745 -0.756863

vn -0.043137 0.654902 -0.756863

vn 0.003922 0.741177 -0.670588

vn 0.592157 -0.639216 0.490196

vn 0.529412 0.764706 0.341177

vn 0.592157 0.631373 0.490196

vn 0.529412 -0.772549 0.341177

vn -0.796078 -0.615686 -0.035294

vn -0.466667 -0.623529 0.631373

vn -0.466667 0.615686 0.631373

vn -0.796078 0.607843 -0.035294

vn -0.466667 -0.623529 0.631373

vn 0.129412 0.639216 0.749020

vn -0.466667 0.615686 0.631373

vn 0.129412 -0.647059 0.749020

vn 0.129412 -0.647059 0.749020

vn 0.592157 0.631373 0.490196

vn 0.129412 0.639216 0.749020

vn 0.592157 -0.639216 0.490196

vn -0.796078 -0.615686 -0.035294

vn -0.474510 0.631373 -0.615686

vn -0.474510 -0.639216 -0.615686

vn -0.796078 0.607843 -0.035294

vn 0.780392 0.592157 0.160784

vn 0.529412 0.764706 0.341177

vn 0.529412 -0.772549 0.341177

vn 0.780392 -0.600000 0.160784

vn 0.780392 -0.600000 0.160784

vn 0.247059 0.568628 -0.788235

vn 0.780392 0.592157 0.160784

vn 0.247059 -0.576471 -0.788235

vn -0.223529 -0.756863 -0.623529

vn 0.247059 0.568628 -0.788235

vn 0.247059 -0.576471 -0.788235

vn -0.223529 0.749020 -0.623529

vn 0.003922 -0.749020 -0.670588

vn -0.223529 -0.756863 -0.623529

vn 0.003922 0.741177 -0.670588

vn -0.474510 -0.639216 -0.615686

vn -0.043137 0.654902 -0.756863

vn -0.043137 -0.662745 -0.756863

vn -0.474510 0.631373 -0.615686

vn 0.129412 -0.647059 0.749020

vn -0.466667 -0.623529 0.631373

vn -0.796078 -0.615686 -0.035294

vn 0.592157 -0.639216 0.490196

vn -0.474510 -0.639216 -0.615686

vn -0.043137 -0.662745 -0.756863

vn 0.529412 -0.772549 0.341177

vn 0.003922 -0.749020 -0.670588

vn -0.223529 -0.756863 -0.623529

vn 0.780392 -0.600000 0.160784

vn 0.247059 -0.576471 -0.788235

f 1/1/1 2/2/2 3/3/3

f 4/4/4 5/5/5 6/6/6

f 7/7/7 8/8/8 6/6/6

f 8/8/8 7/7/7 9/9/9

f 10/10/10 11/11/11 9/9/9

f 8/8/8 12/12/12 13/13/13

f 12/12/12 14/14/14 13/13/13

f 15/15/15 16/16/16 17/17/17

f 16/16/16 15/15/15 18/18/18

f 19/19/19 20/20/20 21/21/21

f 19/19/19 21/21/21 22/22/22

f 23/23/23 24/24/24 25/25/25

f 24/24/24 23/23/23 26/26/26

f 27/27/27 28/28/28 29/29/29

f 29/29/29 30/30/30 27/27/27

f 31/31/31 32/32/32 33/33/33

f 32/32/32 31/31/31 34/34/34

f 35/35/35 36/36/36 37/37/37

f 36/36/36 35/35/35 38/38/38

f 39/39/39 40/40/40 41/41/41

f 40/40/40 39/39/39 42/42/42

f 43/43/43 44/44/44 45/45/45

f 43/43/43 45/45/45 46/46/46

f 47/47/47 48/48/48 49/49/49

f 48/48/48 47/47/47 50/50/50

f 51/51/51 52/52/52 53/53/53

f 52/52/52 51/51/51 54/54/54

f 55/55/55 54/54/54 56/56/56

f 54/54/54 55/55/55 57/57/57

f 58/58/58 59/59/59 60/60/60

f 59/59/59 58/58/58 61/61/61

f 62/62/62 63/63/63 64/64/64

f 65/65/65 62/62/62 64/64/64

f 65/65/65 64/64/64 66/66/66

f 65/65/65 66/66/66 67/67/67

f 67/67/67 68/68/68 65/65/65

f 68/68/68 67/67/67 69/69/69

f 69/69/69 70/70/70 68/68/68

f 70/70/70 71/71/71 68/68/68

f 71/71/71 70/70/70 72/72/72

