# UnrealEd OBJ exporter (_Internal)



v 7.496338 -0.111697 -13.017281

v 11.744690 3.036043 -0.033249

v 14.992798 -0.111697 -0.033249

v 5.872253 3.036042 -10.204468

v 7.496338 -0.111697 -13.017281

v -7.496338 -0.111697 -13.017281

v -5.872253 3.036042 -10.204468

v 5.872253 3.036042 -10.204468

v -7.496338 -0.111697 -13.017281

v -14.992798 -0.111697 -0.033249

v -11.744690 3.036043 -0.033249

v -5.872253 3.036042 -10.204468

v -7.496338 -0.111697 12.950768

v -11.744690 3.036043 -0.033249

v -14.992798 -0.111697 -0.033249

v -5.872253 3.036043 10.137939

v -7.496338 -0.111697 12.950768

v 7.496338 -0.111697 12.950768

v 5.872253 3.036043 10.137939

v -5.872253 3.036043 10.137939

v 7.496338 -0.111697 12.950768

v 14.992798 -0.111697 -0.033249

v 11.744690 3.036043 -0.033249

v 5.872253 3.036043 10.137939

v 4.681396 28.158459 -8.141724

v 11.635010 28.158459 -0.033249

v 5.817505 28.158459 -10.109543

v 9.362793 28.158459 -0.033249

v 5.817505 28.158459 -10.109543

v -5.817505 28.158459 -10.109543

v -4.681396 28.158459 -8.141724

v 4.681396 28.158459 -8.141724

v -11.635010 28.158459 -0.033249

v -4.681396 28.158459 -8.141724

v -5.817505 28.158459 -10.109543

v -9.362793 28.158459 -0.033249

v -5.817505 28.158459 10.042824

v -9.362793 28.158459 -0.033249

v -11.635010 28.158459 -0.033249

v -4.681396 28.158459 8.075218

v -5.817505 28.158459 10.042824

v 5.817505 28.158459 10.042824

v 4.681396 28.158459 8.075218

v -4.681396 28.158459 8.075218

v 5.817505 28.158459 10.042824

v 11.635010 28.158459 -0.033249

v 9.362793 28.158459 -0.033249

v 4.681396 28.158459 8.075218

v 4.681396 28.158459 -8.141724

v 3.615723 5.751138 -6.295883

v 9.362793 28.158459 -0.033249

v 7.231445 5.751138 -0.033249

v -4.681396 28.158459 -8.141724

v -3.615723 5.751138 -6.295883

v 4.681396 28.158459 -8.141724

v 3.615723 5.751138 -6.295883

v -9.362793 28.158459 -0.033249

v -3.615723 5.751138 -6.295883

v -4.681396 28.158459 -8.141724

v -7.231445 5.751138 -0.033249

v -3.615723 5.751138 6.229385

v -9.362793 28.158459 -0.033249

v -4.681396 28.158459 8.075218

v -7.231445 5.751138 -0.033249

v -3.615723 5.751138 6.229385

v -4.681396 28.158459 8.075218

v 3.615723 5.751138 6.229385

v 4.681396 28.158459 8.075218

v 9.362793 28.158459 -0.033249

v 3.615723 5.751138 6.229385

v 4.681396 28.158459 8.075218

v 7.231445 5.751138 -0.033249

v 5.817505 28.158459 -10.109543

v 5.872253 3.036042 -10.204468

v -5.872253 3.036042 -10.204468

v -5.817505 28.158459 -10.109543

v -5.817505 28.158459 10.042824

v 5.872253 3.036043 10.137939

v 5.817505 28.158459 10.042824

v -5.872253 3.036043 10.137939

v 1.349182 23.256445 -8.816986

v 1.349182 23.256445 -16.619217

v -1.349182 23.256445 -8.816986

v -1.349182 23.256445 -16.619217

v -1.349182 23.256445 -8.816986

v -1.349182 20.861074 -14.271523

v -1.349182 20.861074 -8.816986

v -1.349182 23.256445 -16.619217

v -1.349182 20.861074 -8.816986

v -1.349182 20.861074 -14.271523

v 1.349182 20.861074 -8.816986

v 1.349182 20.861074 -14.271523

v 1.349182 20.861074 -8.816986

v 1.349182 20.861074 -14.271523

v 1.349182 23.256445 -8.816986

v 1.349182 23.256445 -16.619217

v -1.349182 7.634590 -9.609795

v -1.349182 7.634590 -16.619240

v 1.349182 7.634590 -9.609795

v 1.349182 7.634590 -16.619240

v 1.349182 7.634590 -9.609795

v 1.349182 10.029946 -14.271523

v 1.349182 10.029946 -9.609802

v 1.349182 7.634590 -16.619240

v -1.349182 10.029932 -9.609802

v 1.349182 10.029946 -9.609802

v 1.349182 10.029946 -14.271523

v -1.349182 10.029932 -14.271523

v -1.349182 7.634590 -9.609795

v -1.349182 10.029932 -14.271523

v -1.349182 7.634590 -16.619240

v -1.349182 10.029932 -9.609802

v -3.615723 5.751138 -6.295883

v 7.231445 5.751138 -0.033249

v 3.615723 5.751138 -6.295883

v -7.231445 5.751138 -0.033249

v 3.615723 5.751138 6.229385

v -3.615723 5.751138 6.229385

v 7.496338 -0.111697 12.950768

v 7.496338 -0.111697 -13.017281

v 14.992798 -0.111697 -0.033249

v -7.496338 -0.111697 -13.017281

v -7.496338 -0.111697 12.950768

v -14.992798 -0.111697 -0.033249

v 1.349182 7.634590 -16.619240

v 1.349182 20.861074 -14.271523

v 1.349182 10.029946 -14.271523

v 1.349182 23.256445 -16.619217

v -1.349182 7.634590 -16.619240

v -1.349182 23.256445 -16.619217

v -1.349182 20.861074 -14.271523

v -1.349182 10.029932 -14.271523

v 1.349182 10.029946 -14.271523

v 1.349182 20.861074 -14.271523

v 5.817505 28.158459 -10.109543

v 11.744690 3.036043 -0.033249

v 5.872253 3.036042 -10.204468

v 11.635010 28.158459 -0.033249

v 5.817505 28.158459 10.042824

v 5.872253 3.036043 10.137939

v -11.744690 3.036043 -0.033249

v -5.817505 28.158459 -10.109543

v -5.872253 3.036042 -10.204468

v -11.635010 28.158459 -0.033249

v -5.817505 28.158459 10.042824

v -5.872253 3.036043 10.137939



vt 0.524902 0.489258

vt 0.520996 0.490723

vt 0.520996 0.489258

vt 0.524902 0.490723

vt 0.500977 0.489258

vt 0.504883 0.489258

vt 0.504883 0.490723

vt 0.500977 0.490723

vt 0.504883 0.489258

vt 0.508789 0.489258

vt 0.508789 0.490723

vt 0.504883 0.490723

vt 0.512695 0.489258

vt 0.508789 0.490723

vt 0.508789 0.489258

vt 0.512695 0.490723

vt 0.512695 0.489258

vt 0.517090 0.489258

vt 0.517090 0.490723

vt 0.512695 0.490723

vt 0.517090 0.489258

vt 0.520996 0.489258

vt 0.520996 0.490723

vt 0.517090 0.490723

vt 0.524902 0.499023

vt 0.520996 0.498535

vt 0.524902 0.498535

vt 0.520996 0.499023

vt 0.500977 0.498535

vt 0.504883 0.498535

vt 0.504883 0.499023

vt 0.500977 0.499023

vt 0.508789 0.498535

vt 0.504883 0.499023

vt 0.504883 0.498535

vt 0.508789 0.499023

vt 0.512695 0.498535

vt 0.508789 0.499023

vt 0.508789 0.498535

vt 0.512695 0.499023

vt 0.512695 0.498535

vt 0.517090 0.498535

vt 0.517090 0.499023

vt 0.512695 0.499023

vt 0.517090 0.498535

vt 0.520996 0.498535

vt 0.520996 0.499023

vt 0.517090 0.499023

vt 0.667969 0.489258

vt 0.667969 0.496582

vt 0.665039 0.489258

vt 0.665039 0.496582

vt 0.654297 0.489258

vt 0.654297 0.496582

vt 0.651855 0.489258

vt 0.651855 0.496582

vt 0.657227 0.489258

vt 0.654297 0.496582

vt 0.654297 0.489258

vt 0.657227 0.496582

vt 0.659668 0.496582

vt 0.657227 0.489258

vt 0.659668 0.489258

vt 0.657227 0.496582

vt 0.659668 0.496582

vt 0.659668 0.489258

vt 0.662598 0.496582

vt 0.662598 0.489258

vt 0.665039 0.489258

vt 0.662598 0.496582

vt 0.662598 0.489258

vt 0.665039 0.496582

vt 0.500977 0.498535

vt 0.500977 0.490723

vt 0.504883 0.490723

vt 0.504883 0.498535

vt 0.512695 0.498535

vt 0.517090 0.490723

vt 0.517090 0.498535

vt 0.512695 0.490723

vt 0.680664 0.413086

vt 0.684570 0.412598

vt 0.681152 0.415039

vt 0.685059 0.414063

vt 0.681152 0.415039

vt 0.685547 0.415527

vt 0.682129 0.416504

vt 0.685059 0.414063

vt 0.682129 0.416504

vt 0.685547 0.415527

vt 0.682617 0.417969

vt 0.685547 0.416992

vt 0.681152 0.411133

vt 0.685059 0.411621

vt 0.680664 0.413086

vt 0.684570 0.412598

vt 0.696289 0.415039

vt 0.692871 0.414063

vt 0.696777 0.413086

vt 0.693359 0.412598

vt 0.696777 0.413086

vt 0.692871 0.411621

vt 0.696289 0.411133

vt 0.693359 0.412598

vt 0.695313 0.416504

vt 0.694824 0.417969

vt 0.691895 0.416992

vt 0.692383 0.415527

vt 0.696289 0.415039

vt 0.692383 0.415527

vt 0.692871 0.414063

vt 0.695313 0.416504

vt 0.540039 0.436035

vt 0.543457 0.434082

vt 0.542480 0.436035

vt 0.539063 0.434082

vt 0.542480 0.432129

vt 0.540039 0.432129

vt 0.588379 0.427246

vt 0.588379 0.418945

vt 0.590820 0.423340

vt 0.583496 0.418945

vt 0.583496 0.427246

vt 0.581055 0.423340

vt 0.693359 0.412598

vt 0.685059 0.411621

vt 0.692871 0.411621

vt 0.684570 0.412598

vt 0.692871 0.414063

vt 0.685059 0.414063

vt 0.685547 0.415527

vt 0.692383 0.415527

vt 0.691895 0.416992

vt 0.685547 0.416992

vt 0.524902 0.498535

vt 0.520996 0.490723

vt 0.524902 0.490723

vt 0.520996 0.498535

vt 0.517090 0.498535

vt 0.517090 0.490723

vt 0.508789 0.490723

vt 0.504883 0.498535

vt 0.504883 0.490723

vt 0.508789 0.498535

vt 0.512695 0.498535

vt 0.512695 0.490723



vn 0.341177 0.717647 -0.607843

vn 0.694118 0.717647 -0.003922

vn 0.694118 0.717647 -0.003922

vn 0.341177 0.717647 -0.607843

vn 0.341177 0.717647 -0.607843

vn -0.349020 0.717647 -0.607843

vn -0.349020 0.717647 -0.607843

vn 0.341177 0.717647 -0.607843

vn -0.349020 0.717647 -0.607843

vn -0.701961 0.717647 -0.003922

vn -0.701961 0.717647 -0.003922

vn -0.349020 0.717647 -0.607843

vn -0.349020 0.717647 0.600000

vn -0.701961 0.717647 -0.003922

vn -0.701961 0.717647 -0.003922

vn -0.349020 0.717647 0.600000

vn -0.349020 0.717647 0.600000

vn 0.341177 0.717647 0.600000

vn 0.341177 0.717647 0.600000

vn -0.349020 0.717647 0.600000

vn 0.341177 0.717647 0.600000

vn 0.694118 0.717647 -0.003922

vn 0.694118 0.717647 -0.003922

vn 0.341177 0.717647 0.600000

vn -0.003922 1.000000 -0.003922

vn -0.003922 1.000000 -0.003922

vn -0.003922 1.000000 -0.003922

vn -0.003922 1.000000 -0.003922

vn -0.003922 1.000000 -0.003922

vn -0.003922 1.000000 -0.003922

vn -0.003922 1.000000 -0.003922

vn -0.003922 1.000000 -0.003922

vn -0.003922 1.000000 -0.003922

vn -0.003922 1.000000 -0.003922

vn -0.003922 1.000000 -0.003922

vn -0.003922 1.000000 -0.003922

vn -0.003922 1.000000 -0.003922

vn -0.003922 1.000000 -0.003922

vn -0.003922 1.000000 -0.003922

vn -0.003922 1.000000 -0.003922

vn -0.003922 1.000000 -0.003922

vn -0.003922 1.000000 -0.003922

vn -0.003922 1.000000 -0.003922

vn -0.003922 1.000000 -0.003922

vn -0.003922 1.000000 -0.003922

vn -0.003922 1.000000 -0.003922

vn -0.003922 1.000000 -0.003922

vn -0.003922 1.000000 -0.003922

vn -0.498039 0.090196 0.858824

vn -0.498039 0.090196 0.858824

vn -1.000000 0.090196 -0.003922

vn -1.000000 0.090196 -0.003922

vn 0.490196 0.090196 0.858824

vn 0.490196 0.090196 0.858824

vn -0.498039 0.090196 0.858824

vn -0.498039 0.090196 0.858824

vn 0.992157 0.090196 -0.003922

vn 0.490196 0.090196 0.858824

vn 0.490196 0.090196 0.858824

vn 0.992157 0.090196 -0.003922

vn 0.490196 0.090196 -0.866667

vn 0.992157 0.090196 -0.003922

vn 0.490196 0.090196 -0.866667

vn 0.992157 0.090196 -0.003922

vn 0.490196 0.090196 -0.866667

vn 0.490196 0.090196 -0.866667

vn -0.498039 0.090196 -0.866667

vn -0.498039 0.090196 -0.866667

vn -1.000000 0.090196 -0.003922

vn -0.498039 0.090196 -0.866667

vn -0.498039 0.090196 -0.866667

vn -1.000000 0.090196 -0.003922

vn 0.498039 0.003922 -0.866667

vn 0.498039 0.003922 -0.866667

vn -0.505882 0.003922 -0.866667

vn -0.505882 0.003922 -0.866667

vn -0.505882 0.003922 0.858824

vn 0.498039 0.003922 0.858824

vn 0.498039 0.003922 0.858824

vn -0.505882 0.003922 0.858824

vn 0.701961 0.701961 -0.003922

vn 0.576471 0.576471 -0.584314

vn -0.709804 0.701961 -0.003922

vn -0.584314 0.576471 -0.584314

vn -0.709804 0.701961 -0.003922

vn -0.905882 -0.301961 0.294118

vn -0.709804 -0.709804 -0.003922

vn -0.584314 0.576471 -0.584314

vn -0.709804 -0.709804 -0.003922

vn -0.905882 -0.301961 0.294118

vn 0.701961 -0.709804 -0.003922

vn 0.898039 -0.301961 0.294118

vn 0.701961 -0.709804 -0.003922

vn 0.898039 -0.301961 0.294118

vn 0.701961 0.701961 -0.003922

vn 0.576471 0.576471 -0.584314

vn -0.709804 -0.709804 -0.003922

vn -0.584314 -0.584314 -0.584314

vn 0.701961 -0.709804 -0.003922

vn 0.576471 -0.584314 -0.584314

vn 0.701961 -0.709804 -0.003922

vn 0.898039 0.294118 0.294118

vn 0.701961 0.701961 -0.003922

vn 0.576471 -0.584314 -0.584314

vn -0.709804 0.701961 -0.003922

vn 0.701961 0.701961 -0.003922

vn 0.898039 0.294118 0.294118

vn -0.905882 0.294118 0.294118

vn -0.709804 -0.709804 -0.003922

vn -0.905882 0.294118 0.294118

vn -0.584314 -0.584314 -0.584314

vn -0.709804 0.701961 -0.003922

vn -0.003922 1.000000 -0.003922

vn -0.003922 1.000000 -0.003922

vn -0.003922 1.000000 -0.003922

vn -0.003922 1.000000 -0.003922

vn -0.003922 1.000000 -0.003922

vn -0.003922 1.000000 -0.003922

vn -0.003922 -1.000000 -0.003922

vn -0.003922 -1.000000 -0.003922

vn -0.003922 -1.000000 -0.003922

vn -0.003922 -1.000000 -0.003922

vn -0.003922 -1.000000 -0.003922

vn -0.003922 -1.000000 -0.003922

vn 0.576471 -0.584314 -0.584314

vn 0.898039 -0.301961 0.294118

vn 0.898039 0.294118 0.294118

vn 0.576471 0.576471 -0.584314

vn -0.584314 -0.584314 -0.584314

vn -0.584314 0.576471 -0.584314

vn -0.905882 -0.301961 0.294118

vn -0.905882 0.294118 0.294118

vn 0.898039 0.294118 0.294118

vn 0.898039 -0.301961 0.294118

vn 0.498039 0.003922 -0.866667

vn 0.992157 0.003922 -0.003922

vn 0.498039 0.003922 -0.866667

vn 0.992157 0.003922 -0.003922

vn 0.498039 0.003922 0.858824

vn 0.498039 0.003922 0.858824

vn -1.000000 0.003922 -0.003922

vn -0.505882 0.003922 -0.866667

vn -0.505882 0.003922 -0.866667

vn -1.000000 0.003922 -0.003922

vn -0.505882 0.003922 0.858824

vn -0.505882 0.003922 0.858824

f 1/1/1 2/2/2 3/3/3

f 2/2/2 1/1/1 4/4/4

f 5/5/5 6/6/6 7/7/7

f 5/5/5 7/7/7 8/8/8

f 9/9/9 10/10/10 11/11/11

f 9/9/9 11/11/11 12/12/12

f 13/13/13 14/14/14 15/15/15

f 14/14/14 13/13/13 16/16/16

f 17/17/17 18/18/18 19/19/19

f 17/17/17 19/19/19 20/20/20

f 21/21/21 22/22/22 23/23/23

f 21/21/21 23/23/23 24/24/24

f 25/25/25 26/26/26 27/27/27

f 26/26/26 25/25/25 28/28/28

f 29/29/29 30/30/30 31/31/31

f 29/29/29 31/31/31 32/32/32

f 33/33/33 34/34/34 35/35/35

f 34/34/34 33/33/33 36/36/36

f 37/37/37 38/38/38 39/39/39

f 38/38/38 37/37/37 40/40/40

f 41/41/41 42/42/42 43/43/43

f 41/41/41 43/43/43 44/44/44

f 45/45/45 46/46/46 47/47/47

f 45/45/45 47/47/47 48/48/48

f 49/49/49 50/50/50 51/51/51

f 52/52/52 51/51/51 50/50/50

f 53/53/53 54/54/54 55/55/55

f 55/55/55 54/54/54 56/56/56

f 57/57/57 58/58/58 59/59/59

f 58/58/58 57/57/57 60/60/60

f 61/61/61 62/62/62 63/63/63

f 62/62/62 61/61/61 64/64/64

f 65/65/65 66/66/66 67/67/67

f 67/67/67 66/66/66 68/68/68

f 69/69/69 70/70/70 71/71/71

f 70/70/70 69/69/69 72/72/72

f 73/73/73 74/74/74 75/75/75

f 75/75/75 76/76/76 73/73/73

f 77/77/77 78/78/78 79/79/79

f 78/78/78 77/77/77 80/80/80

f 81/81/81 82/82/82 83/83/83

f 83/83/83 82/82/82 84/84/84

f 85/85/85 86/86/86 87/87/87

f 86/86/86 85/85/85 88/88/88

f 89/89/89 90/90/90 91/91/91

f 91/91/91 90/90/90 92/92/92

f 93/93/93 94/94/94 95/95/95

f 95/95/95 94/94/94 96/96/96

f 97/97/97 98/98/98 99/99/99

f 99/99/99 98/98/98 100/100/100

f 101/101/101 102/102/102 103/103/103

f 102/102/102 101/101/101 104/104/104

f 105/105/105 106/106/106 107/107/107

f 105/105/105 107/107/107 108/108/108

f 109/109/109 110/110/110 111/111/111

f 109/109/109 112/112/112 110/110/110

f 113/113/113 114/114/114 115/115/115

f 116/116/116 114/114/114 113/113/113

f 114/114/114 116/116/116 117/117/117

f 117/117/117 116/116/116 118/118/118

f 119/119/119 120/120/120 121/121/121

f 120/120/120 119/119/119 122/122/122

f 122/122/122 119/119/119 123/123/123

f 122/122/122 123/123/123 124/124/124

f 125/125/125 126/126/126 127/127/127

f 125/125/125 128/128/128 126/126/126

f 128/128/128 125/125/125 129/129/129

f 129/129/129 130/130/130 128/128/128

f 129/129/129 131/131/131 130/130/130

f 131/131/131 129/129/129 132/132/132

f 133/133/133 131/131/131 132/132/132

f 131/131/131 133/133/133 134/134/134

f 135/135/135 136/136/136 137/137/137

f 136/136/136 135/135/135 138/138/138

f 139/139/139 136/136/136 138/138/138

f 139/139/139 140/140/140 136/136/136

f 141/141/141 142/142/142 143/143/143

f 141/141/141 144/144/144 142/142/142

f 141/141/141 145/145/145 144/144/144

f 145/145/145 141/141/141 146/146/146

