# UnrealEd OBJ exporter (_Internal)



v 0.000000 -4.236969 -6.277222

v 0.000000 -7.248270 -0.000000

v -6.277100 -4.236969 -0.000000

v 6.277100 -4.236969 -0.000000

v -7.431641 0.076272 -0.000000

v 7.431641 0.076272 -0.000000

v 0.000000 0.076272 -7.431641

v 0.000000 4.552660 -6.277222

v -6.277222 4.552660 -0.000000

v 6.277100 4.552660 -0.000000

v 0.000000 7.248270 -0.000000

v 0.000000 -4.236969 6.277222

v -6.277100 -4.236969 -0.000000

v 0.000000 -7.248270 -0.000000

v 6.277100 -4.236969 -0.000000

v -7.431641 0.076272 -0.000000

v 7.431641 0.076272 -0.000000

v 0.000000 0.076272 7.431641

v 0.000000 4.552660 6.277222

v -6.277222 4.552660 -0.000000

v 6.277100 4.552660 -0.000000

v 0.000000 7.248270 -0.000000



vt 0.370605 0.062988

vt 0.370605 0.066895

vt 0.378662 0.062500

vt 0.362549 0.062500

vt 0.380127 0.057617

vt 0.361328 0.057617

vt 0.370605 0.057129

vt 0.370605 0.051758

vt 0.378906 0.051758

vt 0.362549 0.051758

vt 0.370605 0.048340

vt 0.370605 0.062988

vt 0.378662 0.062500

vt 0.370605 0.066895

vt 0.362549 0.062500

vt 0.379883 0.057617

vt 0.361328 0.057617

vt 0.370605 0.057129

vt 0.370605 0.051758

vt 0.378906 0.051758

vt 0.362549 0.051758

vt 0.370605 0.048340



vn -0.003922 -0.466667 -0.890196

vn -0.003922 -1.000000 -0.003922

vn -0.890196 -0.466667 -0.003922

vn 0.882353 -0.466667 -0.003922

vn -1.000000 -0.003922 -0.003922

vn 0.992157 -0.003922 -0.003922

vn -0.003922 -0.003922 -1.000000

vn -0.003922 0.450980 -0.898039

vn -0.898039 0.450980 -0.003922

vn 0.890196 0.450980 -0.003922

vn -0.003922 1.000000 -0.003922

vn -0.003922 -0.466667 0.882353

vn -0.890196 -0.466667 -0.003922

vn -0.003922 -1.000000 -0.003922

vn 0.882353 -0.466667 -0.003922

vn -1.000000 -0.003922 -0.003922

vn 0.992157 -0.003922 -0.003922

vn -0.003922 -0.003922 0.992157

vn -0.003922 0.450980 0.890196

vn -0.898039 0.450980 -0.003922

vn 0.890196 0.450980 -0.003922

vn -0.003922 1.000000 -0.003922

f 1/1/1 2/2/2 3/3/3

f 4/4/4 2/2/2 1/1/1

f 5/5/5 1/1/1 3/3/3

f 6/6/6 4/4/4 1/1/1

f 1/1/1 5/5/5 7/7/7

f 6/6/6 1/1/1 7/7/7

f 5/5/5 8/8/8 7/7/7

f 6/6/6 7/7/7 8/8/8

f 8/8/8 5/5/5 9/9/9

f 10/10/10 6/6/6 8/8/8

f 9/9/9 11/11/11 8/8/8

f 8/8/8 11/11/11 10/10/10

f 12/12/12 13/13/13 14/14/14

f 15/15/15 12/12/12 14/14/14

f 12/12/12 16/16/16 13/13/13

f 12/12/12 15/15/15 17/17/17

f 16/16/16 12/12/12 18/18/18

f 18/18/18 12/12/12 17/17/17

f 19/19/19 16/16/16 18/18/18

f 17/17/17 19/19/19 18/18/18

f 16/16/16 19/19/19 20/20/20

f 19/19/19 17/17/17 21/21/21

f 20/20/20 19/19/19 22/22/22

f 19/19/19 21/21/21 22/22/22

