# UnrealEd OBJ exporter (_Internal)



v 48.619263 0.280064 76.735214

v -48.619247 0.280064 76.735214

v 48.619263 0.280064 -76.735168

v -48.619247 0.280064 -76.735168

v 48.619263 4.808094 76.735184

v -48.619247 4.808094 76.735184

v -48.619247 0.280064 76.735214

v 48.619263 0.280064 76.735214

v 48.619263 4.808094 76.735184

v 48.619263 0.280064 -76.735168

v 48.619263 4.808088 -76.735207

v 48.619263 0.280064 76.735214

v 48.619263 0.280064 -76.735168

v -48.619247 0.280064 -76.735168

v -48.619247 4.808088 -76.735207

v 48.619263 4.808088 -76.735207

v -48.619247 4.808094 76.735184

v -48.619247 0.280064 -76.735168

v -48.619247 0.280064 76.735214

v -48.619247 4.808088 -76.735207

v -48.619247 4.808094 76.735184

v 48.619263 4.808094 76.735184

v -48.619247 4.808088 -76.735207

v 48.619263 4.808088 -76.735207

v 43.802124 12.931408 -76.701797

v 43.802124 12.931408 76.704140

v 48.619263 12.931408 76.735191

v 48.619263 12.931408 -76.735199

v -48.619247 12.931408 76.735191

v -43.802124 12.931408 -76.701797

v -48.619247 12.931408 -76.735199

v -43.802124 12.931408 76.704140

v 48.619263 12.931408 -76.735199

v 48.619263 12.931408 76.735191

v 48.619263 4.808094 76.735184

v 48.619263 4.808088 -76.735207

v -48.619247 4.808094 76.735184

v -48.619247 12.931408 -76.735199

v -48.619247 4.808088 -76.735207

v -48.619247 12.931408 76.735191

v -43.802124 12.931408 -76.701797

v -43.802124 12.931408 76.704140

v -43.802124 4.808094 76.704124

v -43.802124 4.808088 -76.701813

v 43.802124 4.808094 76.704124

v 43.802124 12.931408 -76.701797

v 43.802124 4.808088 -76.701813

v 43.802124 12.931408 76.704140

v -48.619247 4.808088 -76.735207

v -43.802124 12.931408 -76.701797

v -43.802124 4.808088 -76.701813

v -48.619247 12.931408 -76.735199

v 48.619263 4.808088 -76.735207

v 43.802124 4.808088 -76.701813

v 48.619263 12.931408 -76.735199

v 43.802124 12.931408 -76.701797

v 48.619263 12.931408 76.735191

v 43.802124 12.931408 76.704140

v 48.619263 4.808094 76.735184

v 43.802124 4.808094 76.704124

v -48.619247 12.931408 76.735191

v -43.802124 4.808094 76.704124

v -43.802124 12.931408 76.704140

v -48.619247 4.808094 76.735184

v -23.105347 17.933262 76.735199

v 0.000000 19.615341 76.735237

v 0.000000 19.615341 71.918129

v -23.105347 17.933262 71.918091

v 23.105347 17.933262 -71.918091

v 0.000000 19.615341 -76.735153

v 0.000000 19.615341 -71.918045

v 23.105347 17.933262 -76.735199

v -23.105347 17.933262 76.735199

v 0.000000 13.040039 76.735184

v 0.000000 19.615341 76.735237

v -23.105347 10.954601 76.735252

v 0.000000 13.040039 -76.735207

v 23.105347 17.933262 -76.735199

v 23.105347 10.954615 -76.735138

v 0.000000 19.615341 -76.735153

v 0.000000 13.040039 71.918068

v 23.105347 17.933262 71.918091

v 23.105347 10.954601 71.918144

v 0.000000 19.615341 71.918129

v -23.105347 17.933262 -71.918091

v 0.000000 13.040039 -71.918106

v 0.000000 19.615341 -71.918045

v -23.105347 10.954615 -71.918022

v 43.589935 12.931408 76.735191

v 23.105347 17.933262 71.918091

v 23.105347 17.933262 76.735199

v 43.589935 12.931408 71.918091

v 23.105347 17.933262 76.735199

v 0.000000 19.615341 71.918129

v 0.000000 19.615341 76.735237

v 23.105347 17.933262 71.918091

v -43.600647 12.931408 76.735191

v -23.105347 17.933262 76.735199

v -23.105347 17.933262 71.918091

v -43.600647 12.931408 71.918091

v -43.600647 12.931408 -71.918091

v -23.105347 17.933262 -71.918091

v -23.105347 17.933262 -76.735199

v -43.600647 12.931408 -76.735199

v -23.105347 17.933262 -71.918091

v 0.000000 19.615341 -71.918045

v 0.000000 19.615341 -76.735153

v -23.105347 17.933262 -76.735199

v 43.589935 12.931408 -76.735199

v 23.105347 17.933262 -71.918091

v 43.589935 12.931408 -71.918091

v 23.105347 17.933262 -76.735199

v 43.589935 12.931408 76.735191

v 23.105347 17.933262 76.735199

v 23.105347 10.954601 76.735252

v 43.589935 4.808094 76.735184

v 23.105347 17.933262 76.735199

v 0.000000 19.615341 76.735237

v 0.000000 13.040039 76.735184

v 23.105347 10.954601 76.735252

v -43.600647 12.931408 76.735191

v -23.105347 10.954601 76.735252

v -23.105347 17.933262 76.735199

v -43.600647 4.808094 76.735184

v -23.105347 10.954615 -76.735138

v -43.600647 4.808088 -76.735207

v -43.600647 12.931408 -76.735199

v -23.105347 17.933262 -76.735199

v 0.000000 13.040039 -76.735207

v -23.105347 10.954615 -76.735138

v -23.105347 17.933262 -76.735199

v 0.000000 19.615341 -76.735153

v 23.105347 10.954615 -76.735138

v 43.589935 12.931408 -76.735199

v 43.589935 4.808088 -76.735207

v 23.105347 17.933262 -76.735199

v -23.105347 10.954601 71.918144

v -43.600647 4.808094 71.918068

v -43.600647 12.931408 71.918091

v -23.105347 17.933262 71.918091

v 0.000000 13.040039 71.918068

v -23.105347 10.954601 71.918144

v -23.105347 17.933262 71.918091

v 0.000000 19.615341 71.918129

v 23.105347 10.954601 71.918144

v 43.589935 12.931408 71.918091

v 43.589935 4.808094 71.918068

v 23.105347 17.933262 71.918091

v 43.589935 12.931408 -71.918091

v 23.105347 17.933262 -71.918091

v 23.105347 10.954615 -71.918022

v 43.589935 4.808094 -71.918098

v 23.105347 17.933262 -71.918091

v 0.000000 19.615341 -71.918045

v 0.000000 13.040039 -71.918106

v 23.105347 10.954615 -71.918022

v -43.600647 12.931408 -71.918091

v -23.105347 10.954615 -71.918022

v -23.105347 17.933262 -71.918091

v -43.600647 4.808094 -71.918098



vt 0.543457 0.250977

vt 0.584961 0.250977

vt 0.543457 0.317383

vt 0.584961 0.317383

vt 0.542480 0.251953

vt 0.501953 0.251953

vt 0.500977 0.250977

vt 0.543457 0.250977

vt 0.542480 0.251953

vt 0.543457 0.317383

vt 0.542480 0.316406

vt 0.543457 0.250977

vt 0.543457 0.317383

vt 0.500977 0.317383

vt 0.501953 0.316406

vt 0.542480 0.316406

vt 0.501953 0.251953

vt 0.500977 0.317383

vt 0.500977 0.250977

vt 0.501953 0.316406

vt 0.501953 0.251953

vt 0.542480 0.251953

vt 0.501953 0.316406

vt 0.542480 0.316406

vt 0.503418 0.322266

vt 0.597168 0.322266

vt 0.597168 0.323730

vt 0.503418 0.323730

vt 0.503418 0.332031

vt 0.597168 0.330566

vt 0.597168 0.332031

vt 0.503418 0.330566

vt 0.503418 0.323730

vt 0.597168 0.323730

vt 0.599121 0.325684

vt 0.501465 0.325684

vt 0.501465 0.333984

vt 0.597168 0.332031

vt 0.599609 0.333984

vt 0.503418 0.332031

vt 0.597168 0.330566

vt 0.503418 0.330566

vt 0.501465 0.328125

vt 0.599121 0.328125

vt 0.599121 0.319824

vt 0.503418 0.322266

vt 0.501465 0.319824

vt 0.597168 0.322266

vt 0.599609 0.333984

vt 0.597168 0.330566

vt 0.599121 0.328125

vt 0.597168 0.332031

vt 0.501465 0.325684

vt 0.501465 0.319824

vt 0.503418 0.323730

vt 0.503418 0.322266

vt 0.597168 0.323730

vt 0.597168 0.322266

vt 0.599121 0.325684

vt 0.599121 0.319824

vt 0.503418 0.332031

vt 0.501465 0.328125

vt 0.503418 0.330566

vt 0.501465 0.333984

vt 0.687988 0.333984

vt 0.697754 0.333984

vt 0.697754 0.335938

vt 0.687988 0.335938

vt 0.707031 0.322754

vt 0.697266 0.324707

vt 0.697266 0.322754

vt 0.707031 0.324707

vt 0.687988 0.333984

vt 0.697754 0.331055

vt 0.697754 0.333984

vt 0.687500 0.331055

vt 0.697266 0.327148

vt 0.707031 0.324707

vt 0.707031 0.327637

vt 0.697266 0.324707

vt 0.697754 0.338379

vt 0.707031 0.335938

vt 0.707520 0.338867

vt 0.697754 0.335938

vt 0.687988 0.322754

vt 0.697266 0.319824

vt 0.697266 0.322754

vt 0.687500 0.319824

vt 0.715820 0.333984

vt 0.707031 0.335938

vt 0.707031 0.333984

vt 0.715820 0.335938

vt 0.707031 0.333984

vt 0.697754 0.335938

vt 0.697754 0.333984

vt 0.707031 0.335938

vt 0.679199 0.333984

vt 0.687988 0.333984

vt 0.687988 0.335938

vt 0.679199 0.335938

vt 0.679199 0.322754

vt 0.687988 0.322754

vt 0.687988 0.324707

vt 0.679199 0.324707

vt 0.687988 0.322754

vt 0.697266 0.322754

vt 0.697266 0.324707

vt 0.687988 0.324707

vt 0.715332 0.324707

vt 0.707031 0.322754

vt 0.715332 0.322754

vt 0.707031 0.324707

vt 0.715820 0.333984

vt 0.707031 0.333984

vt 0.707520 0.331055

vt 0.716797 0.330566

vt 0.707031 0.333984

vt 0.697754 0.333984

vt 0.697754 0.331055

vt 0.707520 0.331055

vt 0.679199 0.333984

vt 0.687500 0.331055

vt 0.687988 0.333984

vt 0.678711 0.330566

vt 0.687500 0.327637

vt 0.678223 0.328125

vt 0.679199 0.324707

vt 0.687988 0.324707

vt 0.697266 0.327148

vt 0.687500 0.327637

vt 0.687988 0.324707

vt 0.697266 0.324707

vt 0.707031 0.327637

vt 0.715332 0.324707

vt 0.716309 0.328125

vt 0.707031 0.324707

vt 0.687500 0.338867

vt 0.678711 0.339355

vt 0.679199 0.335938

vt 0.687988 0.335938

vt 0.697754 0.338379

vt 0.687500 0.338867

vt 0.687988 0.335938

vt 0.697754 0.335938

vt 0.707520 0.338867

vt 0.715820 0.335938

vt 0.716797 0.339355

vt 0.707031 0.335938

vt 0.715332 0.322754

vt 0.707031 0.322754

vt 0.707031 0.319824

vt 0.716309 0.319336

vt 0.707031 0.322754

vt 0.697266 0.322754

vt 0.697266 0.319824

vt 0.707031 0.319824

vt 0.679199 0.322754

vt 0.687500 0.319824

vt 0.687988 0.322754

vt 0.678223 0.319336



vn -0.003922 -1.000000 -0.003922

vn -0.003922 -1.000000 -0.003922

vn -0.003922 -1.000000 -0.003922

vn -0.003922 -1.000000 -0.003922

vn -0.003922 -0.003922 1.000000

vn -0.003922 -0.003922 1.000000

vn -0.003922 -0.003922 1.000000

vn -0.003922 -0.003922 1.000000

vn 1.000000 -0.003922 -0.003922

vn 1.000000 -0.003922 -0.003922

vn 1.000000 -0.003922 -0.003922

vn 1.000000 -0.003922 -0.003922

vn -0.003922 -0.003922 -1.000000

vn -0.003922 -0.003922 -1.000000

vn -0.003922 -0.003922 -1.000000

vn -0.003922 -0.003922 -1.000000

vn -1.000000 -0.003922 -0.003922

vn -1.000000 -0.003922 -0.003922

vn -1.000000 -0.003922 -0.003922

vn -1.000000 -0.003922 -0.003922

vn -0.003922 1.000000 -0.003922

vn -0.003922 1.000000 -0.003922

vn -0.003922 1.000000 -0.003922

vn -0.003922 1.000000 -0.003922

vn -0.003922 1.000000 -0.003922

vn -0.003922 1.000000 -0.003922

vn -0.003922 1.000000 -0.003922

vn -0.003922 1.000000 -0.003922

vn -0.003922 1.000000 -0.003922

vn -0.003922 1.000000 -0.003922

vn -0.003922 1.000000 -0.003922

vn -0.003922 1.000000 -0.003922

vn 1.000000 -0.003922 -0.003922

vn 1.000000 -0.003922 -0.003922

vn 1.000000 -0.003922 -0.003922

vn 1.000000 -0.003922 -0.003922

vn -1.000000 -0.003922 -0.003922

vn -1.000000 -0.003922 -0.003922

vn -1.000000 -0.003922 -0.003922

vn -1.000000 -0.003922 -0.003922

vn 1.000000 -0.003922 -0.003922

vn 1.000000 -0.003922 -0.003922

vn 1.000000 -0.003922 -0.003922

vn 1.000000 -0.003922 -0.003922

vn -1.000000 -0.003922 -0.003922

vn -1.000000 -0.003922 -0.003922

vn -1.000000 -0.003922 -0.003922

vn -1.000000 -0.003922 -0.003922

vn 0.003922 -0.003922 -1.000000

vn 0.003922 -0.003922 -1.000000

vn 0.003922 -0.003922 -1.000000

vn 0.003922 -0.003922 -1.000000

vn -0.011765 -0.003922 -1.000000

vn -0.011765 -0.003922 -1.000000

vn -0.011765 -0.003922 -1.000000

vn -0.011765 -0.003922 -1.000000

vn -0.011765 -0.003922 0.992157

vn -0.011765 -0.003922 0.992157

vn -0.011765 -0.003922 0.992157

vn -0.011765 -0.003922 0.992157

vn 0.003922 -0.003922 0.992157

vn 0.003922 -0.003922 0.992157

vn 0.003922 -0.003922 0.992157

vn 0.003922 -0.003922 0.992157

vn -0.160784 0.984314 -0.003922

vn -0.003922 1.000000 -0.003922

vn -0.003922 1.000000 -0.003922

vn -0.160784 0.984314 -0.003922

vn 0.152941 0.984314 -0.003922

vn -0.003922 1.000000 -0.003922

vn -0.003922 1.000000 -0.003922

vn 0.152941 0.984314 -0.003922

vn -0.003922 -0.003922 1.000000

vn -0.003922 -0.003922 1.000000

vn -0.003922 -0.003922 1.000000

vn -0.003922 -0.003922 1.000000

vn -0.003922 -0.003922 -1.000000

vn -0.003922 -0.003922 -1.000000

vn -0.003922 -0.003922 -1.000000

vn -0.003922 -0.003922 -1.000000

vn -0.003922 -0.003922 -1.000000

vn -0.003922 -0.003922 -1.000000

vn -0.003922 -0.003922 -1.000000

vn -0.003922 -0.003922 -1.000000

vn -0.003922 -0.003922 1.000000

vn -0.003922 -0.003922 1.000000

vn -0.003922 -0.003922 1.000000

vn -0.003922 -0.003922 1.000000

vn 0.231373 0.968628 -0.003922

vn 0.152941 0.984314 -0.003922

vn 0.152941 0.984314 -0.003922

vn 0.231373 0.968628 -0.003922

vn 0.152941 0.984314 -0.003922

vn -0.003922 1.000000 -0.003922

vn -0.003922 1.000000 -0.003922

vn 0.152941 0.984314 -0.003922

vn -0.239216 0.968628 -0.003922

vn -0.160784 0.984314 -0.003922

vn -0.160784 0.984314 -0.003922

vn -0.239216 0.968628 -0.003922

vn -0.239216 0.968628 -0.003922

vn -0.160784 0.984314 -0.003922

vn -0.160784 0.984314 -0.003922

vn -0.239216 0.968628 -0.003922

vn -0.160784 0.984314 -0.003922

vn -0.003922 1.000000 -0.003922

vn -0.003922 1.000000 -0.003922

vn -0.160784 0.984314 -0.003922

vn 0.231373 0.968628 -0.003922

vn 0.152941 0.984314 -0.003922

vn 0.231373 0.968628 -0.003922

vn 0.152941 0.984314 -0.003922

vn -0.003922 -0.003922 1.000000

vn -0.003922 -0.003922 1.000000

vn -0.003922 -0.003922 1.000000

vn -0.003922 -0.003922 1.000000

vn -0.003922 -0.003922 1.000000

vn -0.003922 -0.003922 1.000000

vn -0.003922 -0.003922 1.000000

vn -0.003922 -0.003922 1.000000

vn -0.003922 -0.003922 1.000000

vn -0.003922 -0.003922 1.000000

vn -0.003922 -0.003922 1.000000

vn -0.003922 -0.003922 1.000000

vn -0.003922 -0.003922 -1.000000

vn -0.003922 -0.003922 -1.000000

vn -0.003922 -0.003922 -1.000000

vn -0.003922 -0.003922 -1.000000

vn -0.003922 -0.003922 -1.000000

vn -0.003922 -0.003922 -1.000000

vn -0.003922 -0.003922 -1.000000

vn -0.003922 -0.003922 -1.000000

vn -0.003922 -0.003922 -1.000000

vn -0.003922 -0.003922 -1.000000

vn -0.003922 -0.003922 -1.000000

vn -0.003922 -0.003922 -1.000000

vn -0.003922 -0.003922 -1.000000

vn -0.003922 -0.003922 -1.000000

vn -0.003922 -0.003922 -1.000000

vn -0.003922 -0.003922 -1.000000

vn -0.003922 -0.003922 -1.000000

vn -0.003922 -0.003922 -1.000000

vn -0.003922 -0.003922 -1.000000

vn -0.003922 -0.003922 -1.000000

vn -0.003922 -0.003922 -1.000000

vn -0.003922 -0.003922 -1.000000

vn -0.003922 -0.003922 -1.000000

vn -0.003922 -0.003922 -1.000000

vn -0.003922 -0.003922 1.000000

vn -0.003922 -0.003922 1.000000

vn -0.003922 -0.003922 1.000000

vn -0.003922 -0.003922 1.000000

vn -0.003922 -0.003922 1.000000

vn -0.003922 -0.003922 1.000000

vn -0.003922 -0.003922 1.000000

vn -0.003922 -0.003922 1.000000

vn -0.003922 -0.003922 1.000000

vn -0.003922 -0.003922 1.000000

vn -0.003922 -0.003922 1.000000

vn -0.003922 -0.003922 1.000000

f 1/1/1 2/2/2 3/3/3

f 2/2/2 4/4/4 3/3/3

f 5/5/5 6/6/6 7/7/7

f 5/5/5 7/7/7 8/8/8

f 9/9/9 10/10/10 11/11/11

f 10/10/10 9/9/9 12/12/12

f 13/13/13 14/14/14 15/15/15

f 13/13/13 15/15/15 16/16/16

f 17/17/17 18/18/18 19/19/19

f 18/18/18 17/17/17 20/20/20

f 21/21/21 22/22/22 23/23/23

f 22/22/22 24/24/24 23/23/23

f 25/25/25 26/26/26 27/27/27

f 27/27/27 28/28/28 25/25/25

f 29/29/29 30/30/30 31/31/31

f 30/30/30 29/29/29 32/32/32

f 33/33/33 34/34/34 35/35/35

f 35/35/35 36/36/36 33/33/33

f 37/37/37 38/38/38 39/39/39

f 38/38/38 37/37/37 40/40/40

f 41/41/41 42/42/42 43/43/43

f 43/43/43 44/44/44 41/41/41

f 45/45/45 46/46/46 47/47/47

f 46/46/46 45/45/45 48/48/48

f 49/49/49 50/50/50 51/51/51

f 50/50/50 49/49/49 52/52/52

f 53/53/53 54/54/54 55/55/55

f 54/54/54 56/56/56 55/55/55

f 57/57/57 58/58/58 59/59/59

f 58/58/58 60/60/60 59/59/59

f 61/61/61 62/62/62 63/63/63

f 62/62/62 61/61/61 64/64/64

f 65/65/65 66/66/66 67/67/67

f 65/65/65 67/67/67 68/68/68

f 69/69/69 70/70/70 71/71/71

f 70/70/70 69/69/69 72/72/72

f 73/73/73 74/74/74 75/75/75

f 74/74/74 73/73/73 76/76/76

f 77/77/77 78/78/78 79/79/79

f 78/78/78 77/77/77 80/80/80

f 81/81/81 82/82/82 83/83/83

f 82/82/82 81/81/81 84/84/84

f 85/85/85 86/86/86 87/87/87

f 86/86/86 85/85/85 88/88/88

f 89/89/89 90/90/90 91/91/91

f 90/90/90 89/89/89 92/92/92

f 93/93/93 94/94/94 95/95/95

f 94/94/94 93/93/93 96/96/96

f 97/97/97 98/98/98 99/99/99

f 97/97/97 99/99/99 100/100/100

f 101/101/101 102/102/102 103/103/103

f 101/101/101 103/103/103 104/104/104

f 105/105/105 106/106/106 107/107/107

f 105/105/105 107/107/107 108/108/108

f 109/109/109 110/110/110 111/111/111

f 110/110/110 109/109/109 112/112/112

f 113/113/113 114/114/114 115/115/115

f 113/113/113 115/115/115 116/116/116

f 117/117/117 118/118/118 119/119/119

f 117/117/117 119/119/119 120/120/120

f 121/121/121 122/122/122 123/123/123

f 122/122/122 121/121/121 124/124/124

f 125/125/125 126/126/126 127/127/127

f 125/125/125 127/127/127 128/128/128

f 129/129/129 130/130/130 131/131/131

f 129/129/129 131/131/131 132/132/132

f 133/133/133 134/134/134 135/135/135

f 134/134/134 133/133/133 136/136/136

f 137/137/137 138/138/138 139/139/139

f 137/137/137 139/139/139 140/140/140

f 141/141/141 142/142/142 143/143/143

f 141/141/141 143/143/143 144/144/144

f 145/145/145 146/146/146 147/147/147

f 146/146/146 145/145/145 148/148/148

f 149/149/149 150/150/150 151/151/151

f 149/149/149 151/151/151 152/152/152

f 153/153/153 154/154/154 155/155/155

f 153/153/153 155/155/155 156/156/156

f 157/157/157 158/158/158 159/159/159

f 158/158/158 157/157/157 160/160/160

