# UnrealEd OBJ exporter (_Internal)



v -2.976929 -5.197177 -36.631348

v -5.324585 0.919478 -36.656616

v 3.565186 -4.854283 -36.561157

v 5.260620 1.474303 -36.542969

v -0.233521 5.042688 -36.601929

v -0.252197 6.403882 -31.209229

v -5.324585 0.919478 -36.656616

v 6.619873 1.940623 -31.135376

v 3.565186 -4.854283 -36.561157

v -6.619873 1.246682 -31.277466

v -2.976929 -5.197177 -36.631348

v -3.683594 -6.403882 -31.245850

v -6.208008 0.769823 25.740723

v -3.700073 -5.767333 25.744873

v -2.752930 -4.010947 34.434082

v -4.433838 0.369193 34.434082

v -0.802490 -0.429662 36.656616

v -0.768433 5.179021 25.749756

v -0.788330 3.323887 34.434082

v 3.151123 0.768489 34.434082

v 5.110352 1.365226 25.759399

v 1.934937 -3.768194 34.434082

v -2.752930 -4.010947 34.434082

v -3.700073 -5.767333 25.744873

v 3.295166 -5.404301 25.756348

v -3.683594 -6.403882 -31.245850

v 4.499146 -5.975009 -31.158203

v -2.976929 -5.197177 -36.631348



vt 0.390625 0.001465

vt 0.393799 0.004395

vt 0.387695 0.004395

vt 0.388916 0.008789

vt 0.392578 0.008789

vt 0.392578 0.015625

vt 0.396240 0.009277

vt 0.388916 0.015625

vt 0.385498 0.009277

vt 0.395996 0.015625

vt 0.399414 0.009277

vt 0.399658 0.015625

vt 0.393555 0.089355

vt 0.396484 0.089355

vt 0.395996 0.101563

vt 0.393555 0.102051

vt 0.391113 0.105469

vt 0.391602 0.088867

vt 0.391846 0.102051

vt 0.390869 0.102051

vt 0.389893 0.088867

vt 0.389648 0.102051

vt 0.387451 0.102051

vt 0.385742 0.089355

vt 0.388184 0.088867

vt 0.381836 0.015625

vt 0.385498 0.015625

vt 0.382080 0.009277



vn -0.466667 -0.717647 -0.521569

vn -0.694118 0.184314 -0.709804

vn 0.450980 -0.552941 -0.701961

vn 0.607843 0.231373 -0.764706

vn -0.035294 0.647059 -0.764706

vn -0.058823 0.992157 -0.003922

vn -0.694118 0.184314 -0.709804

vn 0.929412 0.356863 0.003922

vn 0.450980 -0.552941 -0.701961

vn -0.968627 0.254902 -0.011765

vn -0.466667 -0.717647 -0.521569

vn -0.545098 -0.843137 -0.011765

vn -0.968627 0.254902 0.027451

vn -0.552941 -0.843137 0.027451

vn -0.521569 -0.803922 0.301961

vn -0.929412 0.247059 0.278431

vn -0.019608 0.011765 0.992157

vn -0.058823 0.992157 0.035294

vn -0.058823 0.952941 0.286275

vn 0.882353 0.341177 0.309804

vn 0.929412 0.356863 0.043137

vn 0.592157 -0.741176 0.317647

vn -0.521569 -0.803922 0.301961

vn -0.552941 -0.843137 0.027451

vn 0.623530 -0.780392 0.035294

vn -0.545098 -0.843137 -0.011765

vn 0.623530 -0.780392 -0.003922

vn -0.466667 -0.717647 -0.521569

f 1/1/1 2/2/2 3/3/3

f 2/2/2 4/4/4 3/3/3

f 4/4/4 2/2/2 5/5/5

f 6/6/6 4/4/4 5/5/5

f 7/7/7 6/6/6 5/5/5

f 8/8/8 4/4/4 6/6/6

f 8/8/8 9/9/9 4/4/4

f 6/6/6 7/7/7 10/10/10

f 11/11/11 10/10/10 7/7/7

f 10/10/10 11/11/11 12/12/12

f 12/12/12 13/13/13 10/10/10

f 13/13/13 6/6/6 10/10/10

f 13/13/13 12/12/12 14/14/14

f 15/15/15 13/13/13 14/14/14

f 16/16/16 13/13/13 15/15/15

f 17/17/17 16/16/16 15/15/15

f 18/18/18 6/6/6 13/13/13

f 16/16/16 18/18/18 13/13/13

f 17/17/17 19/19/19 16/16/16

f 19/19/19 18/18/18 16/16/16

f 17/17/17 20/20/20 19/19/19

f 20/20/20 18/18/18 19/19/19

f 21/21/21 6/6/6 18/18/18

f 18/18/18 20/20/20 21/21/21

f 6/6/6 21/21/21 8/8/8

f 17/17/17 22/22/22 20/20/20

f 22/22/22 21/21/21 20/20/20

f 23/23/23 22/22/22 17/17/17

f 22/22/22 23/23/23 24/24/24

f 21/21/21 22/22/22 25/25/25

f 24/24/24 25/25/25 22/22/22

f 25/25/25 8/8/8 21/21/21

f 24/24/24 26/26/26 25/25/25

f 8/8/8 25/25/25 27/27/27

f 25/25/25 26/26/26 27/27/27

f 9/9/9 8/8/8 27/27/27

f 26/26/26 9/9/9 27/27/27

f 9/9/9 26/26/26 28/28/28

