# UnrealEd OBJ exporter (_Internal)



v -39.106445 16.211746 -200.000000

v 42.533203 16.211746 200.000000

v -39.106445 16.211746 200.000000

v 42.533203 16.211746 -200.000000

v 42.533203 16.211746 200.000000

v 42.533203 16.211746 -200.000000

v 44.918091 24.066544 200.000000

v 44.918091 24.066544 -200.000000

v -50.000000 40.017349 -200.000000

v -50.000000 40.017349 200.000000

v 53.426758 40.017349 200.000000

v 53.426758 40.017349 -200.000000

v -41.490723 24.066544 200.000000

v -41.490723 24.066544 -200.000000

v -39.106445 16.211746 200.000000

v -39.106445 16.211746 -200.000000

v 53.426758 40.017349 -200.000000

v 53.426758 40.017349 200.000000

v 53.426758 33.989136 200.000000

v 53.426758 33.989136 -200.000000

v -50.000000 33.989136 -200.000000

v -50.000000 33.989136 200.000000

v -50.000000 40.017349 200.000000

v -50.000000 40.017349 -200.000000

v -44.933716 30.578522 -200.000000

v -44.933716 30.578522 200.000000

v -50.000000 33.989136 200.000000

v -50.000000 33.989136 -200.000000

v 53.426758 33.989136 -200.000000

v 53.426758 33.989136 200.000000

v 48.360840 30.578522 200.000000

v 48.360840 30.578522 -200.000000

v -41.490723 24.066544 -200.000000

v -41.490723 24.066544 200.000000

v -44.933716 30.578522 200.000000

v -44.933716 30.578522 -200.000000

v 48.360840 30.578522 -200.000000

v 48.360840 30.578522 200.000000

v 44.918091 24.066544 200.000000

v 44.918091 24.066544 -200.000000

v -50.000000 33.989136 -200.000000

v 53.426758 40.017349 -200.000000

v 53.426758 33.989136 -200.000000

v -50.000000 40.017349 -200.000000

v -50.000000 33.989136 -200.000000

v 53.426758 33.989136 -200.000000

v -44.933716 30.578522 -200.000000

v 48.360840 30.578522 -200.000000

v -41.490723 24.066544 -200.000000

v 44.918091 24.066544 -200.000000

v 42.533203 16.211746 -200.000000

v -39.106445 16.211746 -200.000000

v 42.533203 16.211746 200.000000

v -41.490723 24.066544 200.000000

v -39.106445 16.211746 200.000000

v 44.918091 24.066544 200.000000

v 48.360840 30.578522 200.000000

v -44.933716 30.578522 200.000000

v 53.426758 33.989136 200.000000

v -50.000000 33.989136 200.000000

v -50.000000 40.017349 200.000000

v 53.426758 40.017349 200.000000



vt 0.568359 0.557617

vt 0.516113 0.749512

vt 0.568359 0.749512

vt 0.516113 0.557617

vt 0.500977 0.749512

vt 0.500977 0.557617

vt 0.504883 0.749512

vt 0.504883 0.557617

vt 0.568359 0.557617

vt 0.568359 0.749512

vt 0.514160 0.749512

vt 0.514160 0.557617

vt 0.577637 0.749512

vt 0.577637 0.557617

vt 0.581543 0.749512

vt 0.581543 0.557617

vt 0.514160 0.557617

vt 0.514160 0.749512

vt 0.511230 0.749512

vt 0.511230 0.557617

vt 0.571289 0.557617

vt 0.571289 0.749512

vt 0.568359 0.749512

vt 0.568359 0.557617

vt 0.574219 0.557617

vt 0.574219 0.749512

vt 0.571289 0.749512

vt 0.571289 0.557617

vt 0.511230 0.557617

vt 0.511230 0.749512

vt 0.508301 0.749512

vt 0.508301 0.557617

vt 0.577637 0.557617

vt 0.577637 0.749512

vt 0.574219 0.749512

vt 0.574219 0.557617

vt 0.508301 0.557617

vt 0.508301 0.749512

vt 0.504883 0.749512

vt 0.504883 0.557617

vt 0.518555 0.636230

vt 0.515625 0.584229

vt 0.518555 0.584473

vt 0.515625 0.636230

vt 0.518555 0.636230

vt 0.518555 0.584473

vt 0.520508 0.633789

vt 0.520508 0.586914

vt 0.523926 0.632080

vt 0.523926 0.588623

vt 0.527832 0.589844

vt 0.527832 0.630859

vt 0.555664 0.691406

vt 0.560059 0.734131

vt 0.555664 0.733154

vt 0.560059 0.690186

vt 0.562988 0.688477

vt 0.562988 0.736084

vt 0.564941 0.685791

vt 0.564941 0.738525

vt 0.567871 0.738525

vt 0.567871 0.685791



vn -0.003922 -1.000000 -0.003922

vn -0.003922 -1.000000 -0.003922

vn -0.003922 -1.000000 -0.003922

vn -0.003922 -1.000000 -0.003922

vn 0.952941 -0.294118 -0.003922

vn 0.952941 -0.294118 -0.003922

vn 0.952941 -0.294118 -0.003922

vn 0.952941 -0.294118 -0.003922

vn -0.003922 1.000000 -0.003922

vn -0.003922 1.000000 -0.003922

vn -0.003922 1.000000 -0.003922

vn -0.003922 1.000000 -0.003922

vn -0.960784 -0.294118 -0.003922

vn -0.960784 -0.294118 -0.003922

vn -0.960784 -0.294118 -0.003922

vn -0.960784 -0.294118 -0.003922

vn 1.000000 -0.003922 -0.003922

vn 1.000000 -0.003922 -0.003922

vn 1.000000 -0.003922 -0.003922

vn 1.000000 -0.003922 -0.003922

vn -1.000000 -0.003922 -0.003922

vn -1.000000 -0.003922 -0.003922

vn -1.000000 -0.003922 -0.003922

vn -1.000000 -0.003922 -0.003922

vn -0.560784 -0.835294 -0.003922

vn -0.560784 -0.835294 -0.003922

vn -0.560784 -0.835294 -0.003922

vn -0.560784 -0.835294 -0.003922

vn 0.552941 -0.835294 -0.003922

vn 0.552941 -0.835294 -0.003922

vn 0.552941 -0.835294 -0.003922

vn 0.552941 -0.835294 -0.003922

vn -0.890196 -0.474510 -0.003922

vn -0.890196 -0.474510 -0.003922

vn -0.890196 -0.474510 -0.003922

vn -0.890196 -0.474510 -0.003922

vn 0.882353 -0.474510 -0.003922

vn 0.882353 -0.474510 -0.003922

vn 0.882353 -0.474510 -0.003922

vn 0.882353 -0.474510 -0.003922

vn -0.003922 -0.003922 -1.000000

vn -0.003922 -0.003922 -1.000000

vn -0.003922 -0.003922 -1.000000

vn -0.003922 -0.003922 -1.000000

vn -0.003922 -0.003922 -1.000000

vn -0.003922 -0.003922 -1.000000

vn -0.003922 -0.003922 -1.000000

vn -0.003922 -0.003922 -1.000000

vn -0.003922 -0.003922 -1.000000

vn -0.003922 -0.003922 -1.000000

vn -0.003922 -0.003922 -1.000000

vn -0.003922 -0.003922 -1.000000

vn -0.003922 -0.003922 1.000000

vn -0.003922 -0.003922 1.000000

vn -0.003922 -0.003922 1.000000

vn -0.003922 -0.003922 1.000000

vn -0.003922 -0.003922 1.000000

vn -0.003922 -0.003922 1.000000

vn -0.003922 -0.003922 1.000000

vn -0.003922 -0.003922 1.000000

vn -0.003922 -0.003922 1.000000

vn -0.003922 -0.003922 1.000000

f 1/1/1 2/2/2 3/3/3

f 2/2/2 1/1/1 4/4/4

f 5/5/5 6/6/6 7/7/7

f 7/7/7 6/6/6 8/8/8

f 9/9/9 10/10/10 11/11/11

f 11/11/11 12/12/12 9/9/9

f 13/13/13 14/14/14 15/15/15

f 15/15/15 14/14/14 16/16/16

f 17/17/17 18/18/18 19/19/19

f 19/19/19 20/20/20 17/17/17

f 21/21/21 22/22/22 23/23/23

f 23/23/23 24/24/24 21/21/21

f 25/25/25 26/26/26 27/27/27

f 27/27/27 28/28/28 25/25/25

f 29/29/29 30/30/30 31/31/31

f 31/31/31 32/32/32 29/29/29

f 33/33/33 34/34/34 35/35/35

f 35/35/35 36/36/36 33/33/33

f 37/37/37 38/38/38 39/39/39

f 39/39/39 40/40/40 37/37/37

f 41/41/41 42/42/42 43/43/43

f 42/42/42 41/41/41 44/44/44

f 45/45/45 46/46/46 47/47/47

f 47/47/47 46/46/46 48/48/48

f 48/48/48 49/49/49 47/47/47

f 49/49/49 48/48/48 50/50/50

f 51/51/51 49/49/49 50/50/50

f 49/49/49 51/51/51 52/52/52

f 53/53/53 54/54/54 55/55/55

f 54/54/54 53/53/53 56/56/56

f 57/57/57 54/54/54 56/56/56

f 54/54/54 57/57/57 58/58/58

f 59/59/59 58/58/58 57/57/57

f 58/58/58 59/59/59 60/60/60

f 59/59/59 61/61/61 60/60/60

f 61/61/61 59/59/59 62/62/62

