# UnrealEd OBJ exporter (_Internal)



v -7.056458 372.164490 -155.620361

v -7.056458 342.157410 -124.394287

v -7.056458 371.826263 -67.943726

v 6.988647 380.954437 -163.765259

v 6.988647 380.954437 -198.430664

v -7.056458 380.954437 -163.765259

v -7.056458 380.954437 -198.430664

v 6.988647 391.043579 5.391602

v 6.988647 390.761719 -21.727539

v -7.056458 391.043579 5.391602

v -7.056458 390.761719 -21.727539

v -7.056458 380.954437 -198.430664

v 6.988647 367.983429 -198.430664

v -7.056458 367.983429 -198.430664

v 6.988647 380.954437 -198.430664

v -7.056458 367.983429 -174.072998

v -7.056458 367.983429 -198.430664

v 6.988647 367.983429 -174.072998

v 6.988647 367.983429 -198.430664

v 6.988647 380.954437 -198.430664

v 6.988647 380.954437 -163.765259

v 6.988647 367.983429 -174.072998

v 6.988647 367.983429 -198.430664

v 8.431274 382.280060 -175.383301

v -6.987183 380.918091 -172.736206

v 6.987183 380.918091 -172.736206

v -8.431274 382.280060 -175.383301

v -8.431274 366.641724 -175.383301

v 8.431274 366.641724 -175.383301

v 6.987183 368.003601 -172.736206

v -6.987183 368.003601 -172.736206

v 8.431274 366.641724 -175.383301

v 6.987183 380.918091 -172.736206

v 6.987183 368.003601 -172.736206

v 8.431274 382.280060 -175.383301

v -8.431274 366.641724 -175.383301

v -6.987183 380.918091 -172.736206

v -8.431274 382.280060 -175.383301

v -6.987183 368.003601 -172.736206

v -8.431274 382.280060 -175.383301

v 8.431274 382.280060 -175.383301

v 8.431274 382.280060 -178.857544

v -8.431274 382.280060 -178.857544

v -8.431274 382.280060 -175.383301

v -8.431274 366.641724 -178.857544

v -8.431274 366.641724 -175.383301

v -8.431274 382.280060 -178.857544

v 8.431274 366.641724 -175.383301

v -8.431274 366.641724 -175.383301

v -8.431274 366.641724 -178.857544

v 8.431274 366.641724 -178.857544

v 8.431274 366.641724 -178.857544

v 8.431274 382.280060 -175.383301

v 8.431274 366.641724 -175.383301

v 8.431274 382.280060 -178.857544

v -8.431274 382.280060 -178.857544

v 8.431274 382.280060 -178.857544

v 6.987183 380.918091 -181.231934

v -6.987183 380.918091 -181.231934

v -8.431274 366.641724 -178.857544

v -6.987183 380.918091 -181.231934

v -6.987183 368.003601 -181.231934

v -8.431274 382.280060 -178.857544

v 8.431274 366.641724 -178.857544

v -8.431274 366.641724 -178.857544

v -6.987183 368.003601 -181.231934

v 6.987183 368.003601 -181.231934

v 8.431274 366.641724 -178.857544

v 6.987183 380.918091 -181.231934

v 8.431274 382.280060 -178.857544

v 6.987183 368.003601 -181.231934

v 6.988647 335.904724 -97.116943

v 6.988647 371.826263 -67.943726

v 6.988647 327.741516 -81.300171

v 6.988647 373.973145 -53.006592

v 6.988647 310.280457 -65.976563

v 6.988647 376.876770 -38.898804

v 6.988647 295.144897 -58.893921

v 6.988647 383.897522 -26.234497

v 6.988647 391.043579 5.391602

v 6.988647 390.761719 -21.727539

v 6.988647 276.834320 -53.684570

v 6.988647 253.750198 -57.401001

v 6.988647 241.468628 -56.247192

v 6.988647 244.866791 -65.369507

v 6.988647 231.447281 -49.929810

v 6.988647 206.573929 -31.846436

v 6.988647 218.001114 -44.089844

v 6.988647 197.637192 -16.202637

v 6.988647 192.071411 5.391602

v 6.988647 342.157410 -124.394287

v -7.056458 343.172119 -163.435181

v 6.988647 343.172119 -163.435181

v -7.056458 342.157410 -124.394287

v 6.988647 335.904724 -97.116943

v -7.056458 335.904724 -97.116943

v 6.988647 327.741516 -81.300171

v -7.056458 327.741516 -81.300171

v 6.988647 310.280457 -65.976563

v -7.056458 310.280457 -65.976563

v 6.988647 295.144897 -58.893921

v -7.056458 295.144897 -58.893921

v 6.988647 276.834320 -53.684570

v -7.056458 276.834320 -53.684570

v 6.988647 253.750198 -57.401001

v -7.056458 253.750198 -57.401001

v 6.988647 244.866791 -65.369507

v -7.056458 244.866791 -65.369507

v -7.056458 375.554321 -161.568970

v 6.988647 380.954437 -163.765259

v -7.056458 380.954437 -163.765259

v 6.988647 375.554321 -161.568970

v -7.056458 372.164490 -155.620361

v 6.988647 372.164490 -155.620361

v 6.988647 371.826263 -67.943726

v -7.056458 371.826263 -67.943726

v -7.056458 373.973145 -53.006592

v 6.988647 373.973145 -53.006592

v -7.056458 376.876770 -38.898804

v 6.988647 376.876770 -38.898804

v -7.056458 383.897522 -26.234497

v 6.988647 383.897522 -26.234497

v -7.056458 390.761719 -21.727539

v 6.988647 390.761719 -21.727539

v -7.056458 197.637192 -16.202637

v 6.988647 192.071411 5.391602

v -7.056458 192.071411 5.391602

v 6.988647 197.637192 -16.202637

v -7.056458 206.573929 -31.846436

v 6.988647 206.573929 -31.846436

v -7.056458 218.001114 -44.089844

v 6.988647 218.001114 -44.089844

v -7.056458 231.447281 -49.929810

v 6.988647 231.447281 -49.929810

v -7.056458 241.468628 -56.247192

v 6.988647 241.468628 -56.247192

v -7.056458 244.866791 -65.369507

v 6.988647 244.866791 -65.369507

v -7.056458 354.490997 -163.030151

v 6.988647 343.172119 -163.435181

v -7.056458 343.172119 -163.435181

v 6.988647 354.490997 -163.030151

v -7.056458 361.932465 -165.933716

v 6.988647 361.932465 -165.933716

v -7.056458 367.983429 -174.072998

v 6.988647 367.983429 -174.072998

v 6.988647 367.983429 -174.072998

v 6.988647 375.554321 -161.568970

v 6.988647 361.932465 -165.933716

v 6.988647 380.954437 -163.765259

v 6.988647 372.164490 -155.620361

v 6.988647 361.932465 -165.933716

v 6.988647 354.490997 -163.030151

v 6.988647 342.157410 -124.394287

v 6.988647 343.172119 -163.435181

v 6.988647 371.826263 -67.943726

v 6.988647 335.904724 -97.116943

v -7.056458 372.164490 -155.620361

v -7.056458 361.932465 -165.933716

v -7.056458 354.490997 -163.030151

v -7.056458 375.554321 -161.568970

v -7.056458 354.490997 -163.030151

v -7.056458 342.157410 -124.394287

v -7.056458 343.172119 -163.435181

v -7.056458 371.826263 -67.943726

v -7.056458 335.904724 -97.116943

v -7.056458 327.741516 -81.300171

v -7.056458 373.973145 -53.006592

v -7.056458 310.280457 -65.976563

v -7.056458 376.876770 -38.898804

v -7.056458 295.144897 -58.893921

v -7.056458 383.897522 -26.234497

v -7.056458 391.043579 5.391602

v -7.056458 390.761719 -21.727539

v -7.056458 276.834320 -53.684570

v -7.056458 253.750198 -57.401001

v -7.056458 241.468628 -56.247192

v -7.056458 244.866791 -65.369507

v -7.056458 231.447281 -49.929810

v -7.056458 206.573929 -31.846436

v -7.056458 218.001114 -44.089844

v -7.056458 197.637192 -16.202637

v -7.056458 192.071411 5.391602

v -7.056458 367.983429 -174.072998

v -7.056458 375.554321 -161.568970

v -7.056458 380.954437 -163.765259

v -7.056458 361.932465 -165.933716

v -7.056458 380.954437 -198.430664

v -7.056458 367.983429 -198.430664

v -7.056458 380.954437 -163.765259



vt 0.866211 0.570313

vt 0.851563 0.585449

vt 0.824707 0.570313

vt 0.866211 0.672119

vt 0.866211 0.686768

vt 0.859375 0.672119

vt 0.859375 0.686768

vt 0.866211 0.585938

vt 0.866211 0.598877

vt 0.859375 0.585938

vt 0.859375 0.598877

vt 0.850098 0.642090

vt 0.842773 0.635498

vt 0.850098 0.635498

vt 0.842773 0.642090

vt 0.850098 0.625977

vt 0.850098 0.635498

vt 0.842773 0.625977

vt 0.842773 0.635498

vt 0.845215 0.594727

vt 0.845215 0.609619

vt 0.838867 0.604736

vt 0.838379 0.594727

vt 0.678711 0.680420

vt 0.667969 0.678711

vt 0.677734 0.678467

vt 0.666992 0.680664

vt 0.701172 0.680420

vt 0.689453 0.680420

vt 0.690430 0.678467

vt 0.700195 0.678467

vt 0.689453 0.680420

vt 0.679688 0.678467

vt 0.688477 0.678467

vt 0.678711 0.680420

vt 0.701172 0.680420

vt 0.710938 0.678223

vt 0.711914 0.680420

vt 0.702148 0.678467

vt 0.666992 0.680664

vt 0.678711 0.680420

vt 0.678711 0.682861

vt 0.666992 0.682861

vt 0.711914 0.680420

vt 0.701172 0.682617

vt 0.701172 0.680420

vt 0.711914 0.682617

vt 0.689453 0.680420

vt 0.701172 0.680420

vt 0.701172 0.682617

vt 0.689453 0.682617

vt 0.689453 0.682617

vt 0.678711 0.680420

vt 0.689453 0.680420

vt 0.678711 0.682861

vt 0.666992 0.682861

vt 0.678711 0.682861

vt 0.677734 0.684570

vt 0.667969 0.684570

vt 0.701172 0.682617

vt 0.710938 0.684326

vt 0.702148 0.684570

vt 0.711914 0.682617

vt 0.689453 0.682617

vt 0.701172 0.682617

vt 0.700195 0.684326

vt 0.690430 0.684570

vt 0.689453 0.682617

vt 0.679688 0.684570

vt 0.678711 0.682861

vt 0.688477 0.684570

vt 0.822266 0.641602

vt 0.840332 0.655518

vt 0.818359 0.649170

vt 0.841309 0.662842

vt 0.809570 0.656494

vt 0.842773 0.669434

vt 0.801758 0.659668

vt 0.846680 0.675537

vt 0.850098 0.690674

vt 0.850098 0.677734

vt 0.792480 0.662109

vt 0.781250 0.660400

vt 0.774902 0.660889

vt 0.776367 0.656494

vt 0.769531 0.663818

vt 0.757324 0.672363

vt 0.763184 0.666504

vt 0.752441 0.679688

vt 0.750000 0.690186

vt 0.858398 0.604248

vt 0.851074 0.585449

vt 0.858398 0.585449

vt 0.851074 0.604248

vt 0.858398 0.617432

vt 0.851074 0.617432

vt 0.858398 0.626221

vt 0.851074 0.626221

vt 0.858398 0.637451

vt 0.851074 0.637451

vt 0.858398 0.645996

vt 0.851074 0.645996

vt 0.858398 0.655518

vt 0.851074 0.655518

vt 0.858398 0.667236

vt 0.851074 0.667236

vt 0.858398 0.673096

vt 0.851074 0.673096

vt 0.859375 0.669189

vt 0.866211 0.672119

vt 0.859375 0.672119

vt 0.866211 0.669189

vt 0.859375 0.665771

vt 0.866211 0.665771

vt 0.866211 0.624023

vt 0.859375 0.624023

vt 0.859375 0.616943

vt 0.866211 0.616943

vt 0.859375 0.609863

vt 0.866211 0.609863

vt 0.859375 0.603027

vt 0.866211 0.603027

vt 0.859375 0.598877

vt 0.866211 0.598877

vt 0.851074 0.708008

vt 0.858398 0.718506

vt 0.851074 0.718506

vt 0.858398 0.708008

vt 0.851074 0.699219

vt 0.858398 0.699219

vt 0.851074 0.690918

vt 0.858398 0.690918

vt 0.851074 0.683594

vt 0.858398 0.683594

vt 0.851074 0.677734

vt 0.858398 0.677734

vt 0.851074 0.673096

vt 0.858398 0.673096

vt 0.850098 0.616943

vt 0.842773 0.611328

vt 0.850098 0.611328

vt 0.842773 0.616943

vt 0.850098 0.620850

vt 0.842773 0.620850

vt 0.850098 0.625977

vt 0.842773 0.625977

vt 0.838867 0.604736

vt 0.842773 0.610596

vt 0.835449 0.608643

vt 0.845215 0.609619

vt 0.840820 0.613525

vt 0.835449 0.608643

vt 0.832031 0.610107

vt 0.825684 0.628418

vt 0.826172 0.609863

vt 0.840332 0.655518

vt 0.822266 0.641602

vt 0.866211 0.570313

vt 0.871582 0.575439

vt 0.870117 0.579102

vt 0.869141 0.568604

vt 0.870117 0.579102

vt 0.851563 0.585449

vt 0.870117 0.584961

vt 0.824707 0.570313

vt 0.838379 0.588379

vt 0.831055 0.592529

vt 0.817383 0.569336

vt 0.823730 0.601318

vt 0.810547 0.567871

vt 0.820313 0.609131

vt 0.804688 0.564453

vt 0.789551 0.560791

vt 0.802734 0.560791

vt 0.817871 0.618164

vt 0.819824 0.629883

vt 0.819336 0.635986

vt 0.823242 0.634277

vt 0.815918 0.641113

vt 0.807617 0.653809

vt 0.813477 0.647949

vt 0.800293 0.658203

vt 0.789551 0.661133

vt 0.875488 0.572266

vt 0.869141 0.568604

vt 0.870605 0.565674

vt 0.871582 0.575439

vt 0.885254 0.565918

vt 0.884766 0.572510

vt 0.870605 0.565674



vn -1.000000 -0.003922 -0.003922

vn -1.000000 -0.003922 -0.003922

vn -1.000000 -0.003922 -0.003922

vn -0.003922 1.000000 -0.003922

vn -0.003922 1.000000 -0.003922

vn -0.003922 1.000000 -0.003922

vn -0.003922 1.000000 -0.003922

vn -0.003922 0.992157 -0.011765

vn -0.003922 0.992157 -0.011765

vn -0.003922 0.992157 -0.011765

vn -0.003922 0.992157 -0.011765

vn -0.003922 -0.003922 -1.000000

vn -0.003922 -0.003922 -1.000000

vn -0.003922 -0.003922 -1.000000

vn -0.003922 -0.003922 -1.000000

vn -0.003922 -1.000000 -0.003922

vn -0.003922 -1.000000 -0.003922

vn -0.003922 -1.000000 -0.003922

vn -0.003922 -1.000000 -0.003922

vn 1.000000 -0.003922 -0.003922

vn 1.000000 -0.003922 -0.003922

vn 1.000000 -0.003922 -0.003922

vn 1.000000 -0.003922 -0.003922

vn -0.003922 0.882353 0.450980

vn -0.003922 0.882353 0.450980

vn -0.003922 0.882353 0.450980

vn -0.003922 0.882353 0.450980

vn -0.003922 -0.890196 0.450980

vn -0.003922 -0.890196 0.450980

vn -0.003922 -0.890196 0.450980

vn -0.003922 -0.890196 0.450980

vn 0.874510 -0.003922 0.474510

vn 0.874510 -0.003922 0.474510

vn 0.874510 -0.003922 0.474510

vn 0.874510 -0.003922 0.474510

vn -0.882353 -0.003922 0.474510

vn -0.882353 -0.003922 0.474510

vn -0.882353 -0.003922 0.474510

vn -0.882353 -0.003922 0.474510

vn -0.003922 1.000000 -0.003922

vn -0.003922 1.000000 -0.003922

vn -0.003922 1.000000 -0.003922

vn -0.003922 1.000000 -0.003922

vn -1.000000 -0.003922 -0.003922

vn -1.000000 -0.003922 -0.003922

vn -1.000000 -0.003922 -0.003922

vn -1.000000 -0.003922 -0.003922

vn -0.003922 -1.000000 -0.003922

vn -0.003922 -1.000000 -0.003922

vn -0.003922 -1.000000 -0.003922

vn -0.003922 -1.000000 -0.003922

vn 1.000000 -0.003922 -0.003922

vn 1.000000 -0.003922 -0.003922

vn 1.000000 -0.003922 -0.003922

vn 1.000000 -0.003922 -0.003922

vn -0.003922 0.866667 -0.498039

vn -0.003922 0.866667 -0.498039

vn -0.003922 0.866667 -0.498039

vn -0.003922 0.866667 -0.498039

vn -0.858824 -0.003922 -0.521569

vn -0.858824 -0.003922 -0.521569

vn -0.858824 -0.003922 -0.521569

vn -0.858824 -0.003922 -0.521569

vn -0.003922 -0.874510 -0.498039

vn -0.003922 -0.874510 -0.498039

vn -0.003922 -0.874510 -0.498039

vn -0.003922 -0.874510 -0.498039

vn 0.850981 -0.003922 -0.521569

vn 0.850981 -0.003922 -0.521569

vn 0.850981 -0.003922 -0.521569

vn 0.850981 -0.003922 -0.521569

vn 1.000000 -0.003922 -0.003922

vn 1.000000 -0.003922 -0.003922

vn 1.000000 -0.003922 -0.003922

vn 1.000000 -0.003922 -0.003922

vn 1.000000 -0.003922 -0.003922

vn 1.000000 -0.003922 -0.003922

vn 1.000000 -0.003922 -0.003922

vn 1.000000 -0.003922 -0.003922

vn 1.000000 -0.003922 -0.003922

vn 1.000000 -0.003922 -0.003922

vn 1.000000 -0.003922 -0.003922

vn 1.000000 -0.003922 -0.003922

vn 1.000000 -0.003922 -0.003922

vn 1.000000 -0.003922 -0.003922

vn 1.000000 -0.003922 -0.003922

vn 1.000000 -0.003922 -0.003922

vn 1.000000 -0.003922 -0.003922

vn 1.000000 -0.003922 -0.003922

vn 1.000000 -0.003922 -0.003922

vn -0.003922 -1.000000 -0.113725

vn -0.003922 -1.000000 -0.027451

vn -0.003922 -1.000000 -0.027451

vn -0.003922 -1.000000 -0.113725

vn -0.003922 -0.952941 -0.317647

vn -0.003922 -0.952941 -0.317647

vn -0.003922 -0.772549 -0.639216

vn -0.003922 -0.772549 -0.639216

vn -0.003922 -0.568627 -0.827451

vn -0.003922 -0.568627 -0.827451

vn -0.003922 -0.349020 -0.945098

vn -0.003922 -0.349020 -0.945098

vn -0.003922 -0.043137 -1.000000

vn -0.003922 -0.043137 -1.000000

vn -0.003922 0.341177 -0.945098

vn -0.003922 0.341177 -0.945098

vn -0.003922 0.662745 -0.749020

vn -0.003922 0.662745 -0.749020

vn -0.003922 0.678432 0.733333

vn -0.003922 0.372549 0.921569

vn -0.003922 0.372549 0.921569

vn -0.003922 0.678432 0.733333

vn -0.003922 0.992157 0.035294

vn -0.003922 0.992157 0.035294

vn -0.003922 0.992157 -0.019608

vn -0.003922 0.992157 -0.019608

vn -0.003922 0.984314 -0.176471

vn -0.003922 0.984314 -0.176471

vn -0.003922 0.937255 -0.349020

vn -0.003922 0.937255 -0.349020

vn -0.003922 0.772549 -0.631373

vn -0.003922 0.772549 -0.631373

vn -0.003922 0.545098 -0.843137

vn -0.003922 0.545098 -0.843137

vn -0.003922 -0.937255 -0.364706

vn -0.003922 -0.968627 -0.254902

vn -0.003922 -0.968627 -0.254902

vn -0.003922 -0.937255 -0.364706

vn -0.003922 -0.811765 -0.592157

vn -0.003922 -0.811765 -0.592157

vn -0.003922 -0.592157 -0.811765

vn -0.003922 -0.592157 -0.811765

vn -0.003922 -0.466667 -0.890196

vn -0.003922 -0.466667 -0.890196

vn -0.003922 -0.756863 -0.662745

vn -0.003922 -0.756863 -0.662745

vn -0.003922 -0.937255 -0.356863

vn -0.003922 -0.937255 -0.356863

vn -0.003922 -0.137255 -0.992157

vn -0.003922 0.035294 -1.000000

vn -0.003922 0.035294 -1.000000

vn -0.003922 -0.137255 -0.992157

vn -0.003922 -0.639216 -0.780392

vn -0.003922 -0.639216 -0.780392

vn -0.003922 -0.803922 -0.600000

vn -0.003922 -0.803922 -0.600000

vn 1.000000 -0.003922 -0.003922

vn 1.000000 -0.003922 -0.003922

vn 1.000000 -0.003922 -0.003922

vn 1.000000 -0.003922 -0.003922

vn 1.000000 -0.003922 -0.003922

vn 1.000000 -0.003922 -0.003922

vn 1.000000 -0.003922 -0.003922

vn 1.000000 -0.003922 -0.003922

vn 1.000000 -0.003922 -0.003922

vn 1.000000 -0.003922 -0.003922

vn 1.000000 -0.003922 -0.003922

vn -1.000000 -0.003922 -0.003922

vn -1.000000 -0.003922 -0.003922

vn -1.000000 -0.003922 -0.003922

vn -1.000000 -0.003922 -0.003922

vn -1.000000 -0.003922 -0.003922

vn -1.000000 -0.003922 -0.003922

vn -1.000000 -0.003922 -0.003922

vn -1.000000 -0.003922 -0.003922

vn -1.000000 -0.003922 -0.003922

vn -1.000000 -0.003922 -0.003922

vn -1.000000 -0.003922 -0.003922

vn -1.000000 -0.003922 -0.003922

vn -1.000000 -0.003922 -0.003922

vn -1.000000 -0.003922 -0.003922

vn -1.000000 -0.003922 -0.003922

vn -1.000000 -0.003922 -0.003922

vn -1.000000 -0.003922 -0.003922

vn -1.000000 -0.003922 -0.003922

vn -1.000000 -0.003922 -0.003922

vn -1.000000 -0.003922 -0.003922

vn -1.000000 -0.003922 -0.003922

vn -1.000000 -0.003922 -0.003922

vn -1.000000 -0.003922 -0.003922

vn -1.000000 -0.003922 -0.003922

vn -1.000000 -0.003922 -0.003922

vn -1.000000 -0.003922 -0.003922

vn -1.000000 -0.003922 -0.003922

vn -1.000000 -0.003922 -0.003922

vn -1.000000 -0.003922 -0.003922

vn -1.000000 -0.003922 -0.003922

vn -1.000000 -0.003922 -0.003922

vn -1.000000 -0.003922 -0.003922

vn -1.000000 -0.003922 -0.003922

f 1/1/1 2/2/2 3/3/3

f 4/4/4 5/5/5 6/6/6

f 6/6/6 5/5/5 7/7/7

f 8/8/8 9/9/9 10/10/10

f 10/10/10 9/9/9 11/11/11

f 12/12/12 13/13/13 14/14/14

f 13/13/13 12/12/12 15/15/15

f 16/16/16 17/17/17 18/18/18

f 18/18/18 17/17/17 19/19/19

f 20/20/20 21/21/21 22/22/22

f 22/22/22 23/23/23 20/20/20

f 24/24/24 25/25/25 26/26/26

f 25/25/25 24/24/24 27/27/27

f 28/28/28 29/29/29 30/30/30

f 28/28/28 30/30/30 31/31/31

f 32/32/32 33/33/33 34/34/34

f 33/33/33 32/32/32 35/35/35

f 36/36/36 37/37/37 38/38/38

f 37/37/37 36/36/36 39/39/39

f 40/40/40 41/41/41 42/42/42

f 40/40/40 42/42/42 43/43/43

f 44/44/44 45/45/45 46/46/46

f 45/45/45 44/44/44 47/47/47

f 48/48/48 49/49/49 50/50/50

f 48/48/48 50/50/50 51/51/51

f 52/52/52 53/53/53 54/54/54

f 53/53/53 52/52/52 55/55/55

f 56/56/56 57/57/57 58/58/58

f 56/56/56 58/58/58 59/59/59

f 60/60/60 61/61/61 62/62/62

f 61/61/61 60/60/60 63/63/63

f 64/64/64 65/65/65 66/66/66

f 64/64/64 66/66/66 67/67/67

f 68/68/68 69/69/69 70/70/70

f 69/69/69 68/68/68 71/71/71

f 72/72/72 73/73/73 74/74/74

f 74/74/74 73/73/73 75/75/75

f 74/74/74 75/75/75 76/76/76

f 76/76/76 75/75/75 77/77/77

f 76/76/76 77/77/77 78/78/78

f 79/79/79 78/78/78 77/77/77

f 80/80/80 78/78/78 79/79/79

f 79/79/79 81/81/81 80/80/80

f 78/78/78 80/80/80 82/82/82

f 80/80/80 83/83/83 82/82/82

f 84/84/84 85/85/85 83/83/83

f 83/83/83 86/86/86 84/84/84

f 86/86/86 83/83/83 80/80/80

f 86/86/86 87/87/87 88/88/88

f 87/87/87 86/86/86 80/80/80

f 80/80/80 89/89/89 87/87/87

f 80/80/80 90/90/90 89/89/89

f 91/91/91 92/92/92 93/93/93

f 94/94/94 92/92/92 91/91/91

f 95/95/95 94/94/94 91/91/91

f 96/96/96 94/94/94 95/95/95

f 97/97/97 96/96/96 95/95/95

f 98/98/98 96/96/96 97/97/97

f 99/99/99 98/98/98 97/97/97

f 100/100/100 98/98/98 99/99/99

f 101/101/101 100/100/100 99/99/99

f 102/102/102 100/100/100 101/101/101

f 103/103/103 102/102/102 101/101/101

f 104/104/104 102/102/102 103/103/103

f 105/105/105 104/104/104 103/103/103

f 104/104/104 105/105/105 106/106/106

f 107/107/107 106/106/106 105/105/105

f 106/106/106 107/107/107 108/108/108

f 109/109/109 110/110/110 111/111/111

f 110/110/110 109/109/109 112/112/112

f 113/113/113 112/112/112 109/109/109

f 113/113/113 114/114/114 112/112/112

f 113/113/113 115/115/115 114/114/114

f 115/115/115 113/113/113 116/116/116

f 117/117/117 115/115/115 116/116/116

f 117/117/117 118/118/118 115/115/115

f 119/119/119 118/118/118 117/117/117

f 119/119/119 120/120/120 118/118/118

f 121/121/121 120/120/120 119/119/119

f 121/121/121 122/122/122 120/120/120

f 122/122/122 121/121/121 123/123/123

f 122/122/122 123/123/123 124/124/124

f 125/125/125 126/126/126 127/127/127

f 126/126/126 125/125/125 128/128/128

f 125/125/125 129/129/129 128/128/128

f 128/128/128 129/129/129 130/130/130

f 129/129/129 131/131/131 130/130/130

f 130/130/130 131/131/131 132/132/132

f 131/131/131 133/133/133 132/132/132

f 132/132/132 133/133/133 134/134/134

f 133/133/133 135/135/135 134/134/134

f 134/134/134 135/135/135 136/136/136

f 137/137/137 136/136/136 135/135/135

f 136/136/136 137/137/137 138/138/138

f 139/139/139 140/140/140 141/141/141

f 140/140/140 139/139/139 142/142/142

f 142/142/142 139/139/139 143/143/143

f 142/142/142 143/143/143 144/144/144

f 143/143/143 145/145/145 144/144/144

f 144/144/144 145/145/145 146/146/146

f 147/147/147 148/148/148 149/149/149

f 148/148/148 147/147/147 150/150/150

f 151/151/151 152/152/152 148/148/148

f 152/152/152 151/151/151 153/153/153

f 154/154/154 153/153/153 151/151/151

f 153/153/153 154/154/154 155/155/155

f 151/151/151 156/156/156 154/154/154

f 156/156/156 157/157/157 154/154/154

f 158/158/158 159/159/159 160/160/160

f 159/159/159 158/158/158 161/161/161

f 162/162/162 163/163/163 158/158/158

f 163/163/163 162/162/162 164/164/164

f 165/165/165 163/163/163 166/166/166

f 167/167/167 165/165/165 166/166/166

f 167/167/167 168/168/168 165/165/165

f 169/169/169 168/168/168 167/167/167

f 169/169/169 170/170/170 168/168/168

f 171/171/171 170/170/170 169/169/169

f 171/171/171 172/172/172 170/170/170

f 171/171/171 173/173/173 172/172/172

f 172/172/172 173/173/173 174/174/174

f 173/173/173 171/171/171 175/175/175

f 173/173/173 175/175/175 176/176/176

f 177/177/177 176/176/176 178/178/178

f 179/179/179 176/176/176 177/177/177

f 176/176/176 179/179/179 173/173/173

f 180/180/180 179/179/179 181/181/181

f 179/179/179 180/180/180 173/173/173

f 173/173/173 180/180/180 182/182/182

f 173/173/173 182/182/182 183/183/183

f 184/184/184 185/185/185 186/186/186

f 185/185/185 184/184/184 187/187/187

f 184/184/184 188/188/188 189/189/189

f 190/190/190 188/188/188 184/184/184

