# UnrealEd OBJ exporter (_Internal)



v 10.893555 16.211746 -100.000000

v 92.533203 16.211746 100.000000

v 10.893555 16.211746 100.000000

v 92.533203 16.211746 -100.000000

v 92.533203 16.211746 100.000000

v 92.533203 16.211746 -100.000000

v 94.918091 24.066544 100.000000

v 94.918091 24.066544 -100.000000

v 0.000000 40.017349 -100.000000

v 0.000000 40.017349 100.000000

v 103.426758 40.017349 100.000000

v 103.426758 40.017349 -100.000000

v 8.509277 24.066544 100.000000

v 8.509277 24.066544 -100.000000

v 10.893555 16.211746 100.000000

v 10.893555 16.211746 -100.000000

v 103.426758 40.017349 -100.000000

v 103.426758 40.017349 100.000000

v 103.426758 33.989136 100.000000

v 103.426758 33.989136 -100.000000

v 0.000000 33.989136 -100.000000

v 0.000000 33.989136 100.000000

v 0.000000 40.017349 100.000000

v 0.000000 40.017349 -100.000000

v 5.066284 30.578522 -100.000000

v 5.066284 30.578522 100.000000

v 0.000000 33.989136 100.000000

v 0.000000 33.989136 -100.000000

v 103.426758 33.989136 -100.000000

v 103.426758 33.989136 100.000000

v 98.360840 30.578522 100.000000

v 98.360840 30.578522 -100.000000

v 8.509277 24.066544 -100.000000

v 8.509277 24.066544 100.000000

v 5.066284 30.578522 100.000000

v 5.066284 30.578522 -100.000000

v 98.360840 30.578522 -100.000000

v 98.360840 30.578522 100.000000

v 94.918091 24.066544 100.000000

v 94.918091 24.066544 -100.000000

v 0.000000 33.989136 -100.000000

v 103.426758 40.017349 -100.000000

v 103.426758 33.989136 -100.000000

v 0.000000 40.017349 -100.000000

v 0.000000 33.989136 -100.000000

v 103.426758 33.989136 -100.000000

v 5.066284 30.578522 -100.000000

v 98.360840 30.578522 -100.000000

v 8.509277 24.066544 -100.000000

v 94.918091 24.066544 -100.000000

v 92.533203 16.211746 -100.000000

v 10.893555 16.211746 -100.000000

v 92.533203 16.211746 100.000000

v 8.509277 24.066544 100.000000

v 10.893555 16.211746 100.000000

v 94.918091 24.066544 100.000000

v 98.360840 30.578522 100.000000

v 5.066284 30.578522 100.000000

v 103.426758 33.989136 100.000000

v 0.000000 33.989136 100.000000

v 0.000000 40.017349 100.000000

v 103.426758 40.017349 100.000000



vt 0.568359 0.557617

vt 0.516113 0.749512

vt 0.568359 0.749512

vt 0.516113 0.557617

vt 0.500977 0.677734

vt 0.500977 0.573975

vt 0.504883 0.677734

vt 0.504883 0.573975

vt 0.568359 0.573975

vt 0.568359 0.677734

vt 0.514160 0.677734

vt 0.514160 0.573975

vt 0.577637 0.677734

vt 0.577637 0.573975

vt 0.581543 0.677734

vt 0.581543 0.573975

vt 0.514160 0.573975

vt 0.514160 0.677734

vt 0.511230 0.677734

vt 0.511230 0.573975

vt 0.571289 0.573975

vt 0.571289 0.677734

vt 0.568359 0.677734

vt 0.568359 0.573975

vt 0.574219 0.573975

vt 0.574219 0.677734

vt 0.571289 0.677734

vt 0.571289 0.573975

vt 0.511230 0.573975

vt 0.511230 0.677734

vt 0.508301 0.677734

vt 0.508301 0.573975

vt 0.577637 0.573975

vt 0.577637 0.677734

vt 0.574219 0.677734

vt 0.574219 0.573975

vt 0.508301 0.573975

vt 0.508301 0.677734

vt 0.504883 0.677734

vt 0.504883 0.573975

vt 0.532715 0.649902

vt 0.537598 0.729980

vt 0.532715 0.729980

vt 0.537598 0.649902

vt 0.532715 0.649902

vt 0.532715 0.729980

vt 0.530273 0.653809

vt 0.530273 0.726074

vt 0.525391 0.656494

vt 0.525391 0.723389

vt 0.519043 0.721436

vt 0.519043 0.658447

vt 0.537598 0.640869

vt 0.531250 0.575928

vt 0.537598 0.577637

vt 0.531250 0.642578

vt 0.526367 0.645264

vt 0.526367 0.573242

vt 0.523926 0.649170

vt 0.523926 0.569336

vt 0.519043 0.569336

vt 0.519043 0.649170



vn -0.003922 -1.000000 -0.003922

vn -0.003922 -1.000000 -0.003922

vn -0.003922 -1.000000 -0.003922

vn -0.003922 -1.000000 -0.003922

vn 0.952941 -0.294118 -0.003922

vn 0.952941 -0.294118 -0.003922

vn 0.952941 -0.294118 -0.003922

vn 0.952941 -0.294118 -0.003922

vn -0.003922 1.000000 -0.003922

vn -0.003922 1.000000 -0.003922

vn -0.003922 1.000000 -0.003922

vn -0.003922 1.000000 -0.003922

vn -0.960784 -0.294118 -0.003922

vn -0.960784 -0.294118 -0.003922

vn -0.960784 -0.294118 -0.003922

vn -0.960784 -0.294118 -0.003922

vn 1.000000 -0.003922 -0.003922

vn 1.000000 -0.003922 -0.003922

vn 1.000000 -0.003922 -0.003922

vn 1.000000 -0.003922 -0.003922

vn -1.000000 -0.003922 -0.003922

vn -1.000000 -0.003922 -0.003922

vn -1.000000 -0.003922 -0.003922

vn -1.000000 -0.003922 -0.003922

vn -0.560784 -0.835294 -0.003922

vn -0.560784 -0.835294 -0.003922

vn -0.560784 -0.835294 -0.003922

vn -0.560784 -0.835294 -0.003922

vn 0.552941 -0.835294 -0.003922

vn 0.552941 -0.835294 -0.003922

vn 0.552941 -0.835294 -0.003922

vn 0.552941 -0.835294 -0.003922

vn -0.890196 -0.474510 -0.003922

vn -0.890196 -0.474510 -0.003922

vn -0.890196 -0.474510 -0.003922

vn -0.890196 -0.474510 -0.003922

vn 0.882353 -0.474510 -0.003922

vn 0.882353 -0.474510 -0.003922

vn 0.882353 -0.474510 -0.003922

vn 0.882353 -0.474510 -0.003922

vn -0.003922 -0.003922 -1.000000

vn -0.003922 -0.003922 -1.000000

vn -0.003922 -0.003922 -1.000000

vn -0.003922 -0.003922 -1.000000

vn -0.003922 -0.003922 -1.000000

vn -0.003922 -0.003922 -1.000000

vn -0.003922 -0.003922 -1.000000

vn -0.003922 -0.003922 -1.000000

vn -0.003922 -0.003922 -1.000000

vn -0.003922 -0.003922 -1.000000

vn -0.003922 -0.003922 -1.000000

vn -0.003922 -0.003922 -1.000000

vn -0.003922 -0.003922 1.000000

vn -0.003922 -0.003922 1.000000

vn -0.003922 -0.003922 1.000000

vn -0.003922 -0.003922 1.000000

vn -0.003922 -0.003922 1.000000

vn -0.003922 -0.003922 1.000000

vn -0.003922 -0.003922 1.000000

vn -0.003922 -0.003922 1.000000

vn -0.003922 -0.003922 1.000000

vn -0.003922 -0.003922 1.000000

f 1/1/1 2/2/2 3/3/3

f 2/2/2 1/1/1 4/4/4

f 5/5/5 6/6/6 7/7/7

f 7/7/7 6/6/6 8/8/8

f 9/9/9 10/10/10 11/11/11

f 11/11/11 12/12/12 9/9/9

f 13/13/13 14/14/14 15/15/15

f 15/15/15 14/14/14 16/16/16

f 17/17/17 18/18/18 19/19/19

f 19/19/19 20/20/20 17/17/17

f 21/21/21 22/22/22 23/23/23

f 23/23/23 24/24/24 21/21/21

f 25/25/25 26/26/26 27/27/27

f 27/27/27 28/28/28 25/25/25

f 29/29/29 30/30/30 31/31/31

f 31/31/31 32/32/32 29/29/29

f 33/33/33 34/34/34 35/35/35

f 35/35/35 36/36/36 33/33/33

f 37/37/37 38/38/38 39/39/39

f 39/39/39 40/40/40 37/37/37

f 41/41/41 42/42/42 43/43/43

f 42/42/42 41/41/41 44/44/44

f 45/45/45 46/46/46 47/47/47

f 47/47/47 46/46/46 48/48/48

f 48/48/48 49/49/49 47/47/47

f 49/49/49 48/48/48 50/50/50

f 51/51/51 49/49/49 50/50/50

f 49/49/49 51/51/51 52/52/52

f 53/53/53 54/54/54 55/55/55

f 54/54/54 53/53/53 56/56/56

f 57/57/57 54/54/54 56/56/56

f 54/54/54 57/57/57 58/58/58

f 59/59/59 58/58/58 57/57/57

f 58/58/58 59/59/59 60/60/60

f 59/59/59 61/61/61 60/60/60

f 61/61/61 59/59/59 62/62/62

