# UnrealEd OBJ exporter (_Internal)



v -2.008057 381.176910 -5.224182

v -0.091553 377.254425 0.131592

v 1.790039 374.113708 -2.047119

v -2.201660 381.176910 -1.633484

v -2.008057 381.176910 -5.224182

v -0.091553 385.100891 0.131592

v 1.790039 388.240112 -2.047119

v 5.588257 381.176910 1.129639

v -0.091553 385.100891 0.131592

v 1.790039 388.240112 -2.047119

v 2.018433 381.176910 1.896545

v -0.091553 377.254425 0.131592

v 2.018433 381.176910 1.896545

v 5.588257 381.176910 1.129639

v 1.790039 374.113708 -2.047119

v 1.790039 374.113708 -2.047119

v -5.577759 381.176910 -4.457520

v -2.008057 381.176910 -5.224182

v -0.091553 370.974487 0.131592

v -5.577759 381.176910 -4.457520

v -0.117310 393.409637 0.168457

v 1.790039 388.240112 -2.047119

v -2.008057 381.176910 -5.224182

v 5.394531 381.176910 4.720459

v 1.790039 388.240112 -2.047119

v -0.117310 393.409637 0.168457

v 5.588257 381.176910 1.129639

v 5.394531 381.176910 4.720459

v -0.091553 370.974487 0.131592

v 1.790039 374.113708 -2.047119

v 5.588257 381.176910 1.129639

v -1.973267 374.113708 2.310364

v -5.771362 381.176910 -0.866760

v -5.577759 381.176910 -4.457520

v -0.091553 370.974487 0.131592

v -1.973267 388.240112 2.310364

v -5.577759 381.176910 -4.457520

v -5.771362 381.176910 -0.866760

v -0.117310 393.409637 0.168457

v 5.394531 381.176910 4.720459

v -0.117310 393.409637 0.168457

v -1.973267 388.240112 2.310364

v 1.824707 381.176910 5.487122

v 5.394531 381.176910 4.720459

v -1.973267 374.113708 2.310364

v -0.091553 370.974487 0.131592

v 1.824707 381.176910 5.487122

v -5.771362 381.176910 -0.866760

v -1.973267 374.113708 2.310364

v -0.091553 377.254425 0.131592

v -2.201660 381.176910 -1.633484

v -5.771362 381.176910 -0.866760

v -0.091553 385.100891 0.131592

v -1.973267 388.240112 2.310364

v -2.201660 381.176910 -1.633484

v -0.091553 385.100891 0.131592

v 1.824707 381.176910 5.487122

v -1.973267 388.240112 2.310364

v 2.018433 381.176910 1.896545

v -0.091553 377.254425 0.131592

v 1.824707 381.176910 5.487122

v -1.973267 374.113708 2.310364

v 3.890015 378.323517 -3.942139

v -9.700317 372.952423 -9.601013

v -4.346558 378.323517 -4.045349

v 9.540405 372.952423 -9.508301

v -17.620972 368.015686 -17.733093

v -9.700317 372.952423 -9.601013

v 17.766113 368.015686 -17.620911

v -12.721558 319.177917 -12.765808

v 12.874390 319.177917 -12.761719

v 8.365112 314.291077 -8.252441

v -8.243774 314.291077 -8.346191

v 8.365112 314.291077 -8.252441

v -8.748169 311.098053 -8.850891

v 8.869751 311.098053 -8.757019

v 0.000000 304.482178 -0.008728

v -3.638062 385.626923 -3.638000

v 9.219849 394.201569 -9.186768

v 3.671021 385.626923 -3.637939

v -9.187012 394.201569 -9.186829

v -7.665405 397.812866 -7.665466

v 9.219849 394.201569 -9.186768

v 7.698364 397.812866 -7.665344

v -7.665405 397.812866 -7.665466

v -7.665405 412.935486 -7.665466

v 7.698364 412.935486 -7.665344

v -9.263794 416.234833 -9.263855

v 9.296875 416.234833 -9.263855

v 2.091187 429.796936 -2.058044

v -2.069336 429.796936 -2.058105

v -4.346558 378.323517 -4.045349

v -9.805664 372.952423 9.644470

v -4.444214 378.323517 4.238953

v -9.700317 372.952423 -9.601013

v -17.620972 368.015686 -17.733093

v -17.766113 368.015686 17.620911

v -9.805664 372.952423 9.644470

v -17.620972 368.015686 -17.733093

v -12.874390 319.177917 12.744324

v -12.784790 319.177917 -12.945374

v -8.243774 314.291077 -8.346191

v -8.365234 314.291077 8.235046

v -8.869751 311.098053 8.739563

v -8.748169 311.098053 -8.850891

v 0.000000 304.482178 -0.008728

v -9.805664 372.952423 9.644470

v 3.942017 378.323517 4.251892

v -4.444214 378.323517 4.238953

v 9.496704 372.952423 9.699951

v -17.766113 368.015686 17.620911

v 17.621094 368.015686 17.733093

v -12.874390 319.177917 12.744324

v 12.752930 319.177917 12.838135

v 8.243774 314.291077 8.328857

v -8.365234 314.291077 8.235046

v 8.748169 311.098053 8.833496

v -8.869751 311.098053 8.739563

v 0.000000 304.482178 -0.008728

v -4.444214 378.323517 4.238953

v 3.890015 378.323517 -3.942139

v -4.346558 378.323517 -4.045349

v 3.942017 378.323517 4.251892

v 9.540405 372.952423 -9.508301

v 9.496704 372.952423 9.699951

v 17.621094 368.015686 17.733093

v 17.766113 368.015686 -17.620911

v 12.752930 319.177917 12.838135

v 12.874390 319.177917 -12.761719

v 8.365112 314.291077 -8.252441

v 8.243774 314.291077 8.328857

v 8.869751 311.098053 -8.757019

v 8.748169 311.098053 8.833496

v 0.000000 304.482178 -0.008728

v 2.058228 429.796936 2.058167

v -2.069336 429.796936 -2.058105

v -2.091187 429.796936 2.058167

v 2.091187 429.796936 -2.058044

v 9.263794 416.234833 9.263855

v 2.091187 429.796936 -2.058044

v 9.296875 416.234833 -9.263855

v 7.698364 412.935486 -7.665344

v 7.665405 412.935486 7.665466

v 7.665405 397.812866 7.665466

v 7.698364 397.812866 -7.665344

v 9.219849 394.201569 -9.186768

v 9.187012 394.201569 9.187012

v 3.638062 385.626923 3.638123

v 3.671021 385.626923 -3.637939

v -9.219849 394.201569 9.186829

v -3.638062 385.626923 -3.638000

v -3.671021 385.626923 3.638000

v -9.187012 394.201569 -9.186829

v -7.698364 397.812866 7.665344

v -7.665405 397.812866 -7.665466

v -7.698364 412.935486 7.665344

v -7.665405 412.935486 -7.665466

v -9.354370 416.234833 9.206299

v -9.263794 416.234833 -9.263855

v -2.069336 429.796936 -2.058105

v -2.091187 429.796936 2.058167

v 3.638062 385.626923 3.638123

v -9.219849 394.201569 9.186829

v -3.671021 385.626923 3.638000

v 9.187012 394.201569 9.187012

v 7.665405 397.812866 7.665466

v -7.698364 397.812866 7.665344

v 7.665405 412.935486 7.665466

v -7.698364 412.935486 7.665344

v -9.239258 416.234833 9.321350

v 9.263794 416.234833 9.263855

v 2.058228 429.796936 2.058167

v -2.091187 429.796936 2.058167



vt 0.787598 0.620361

vt 0.785645 0.619385

vt 0.785156 0.618164

vt 0.786621 0.620605

vt 0.787598 0.620361

vt 0.785645 0.621826

vt 0.785645 0.623047

vt 0.783203 0.620850

vt 0.785645 0.621826

vt 0.785645 0.623047

vt 0.784668 0.620605

vt 0.785645 0.619385

vt 0.784668 0.620605

vt 0.783203 0.620850

vt 0.785156 0.618164

vt 0.785156 0.618164

vt 0.789551 0.620361

vt 0.787598 0.620361

vt 0.785156 0.616211

vt 0.789551 0.620361

vt 0.785645 0.625000

vt 0.785645 0.623047

vt 0.787598 0.620361

vt 0.781738 0.620850

vt 0.785645 0.623047

vt 0.785645 0.625000

vt 0.783203 0.620850

vt 0.781738 0.620850

vt 0.785156 0.616211

vt 0.785156 0.618164

vt 0.783203 0.620850

vt 0.785156 0.618164

vt 0.783203 0.620850

vt 0.781738 0.620850

vt 0.785156 0.616211

vt 0.785645 0.623047

vt 0.781738 0.620850

vt 0.783203 0.620850

vt 0.785645 0.625000

vt 0.789551 0.620361

vt 0.785645 0.625000

vt 0.785645 0.623047

vt 0.787598 0.620361

vt 0.789551 0.620361

vt 0.785156 0.618164

vt 0.785156 0.616211

vt 0.787598 0.620361

vt 0.783203 0.620850

vt 0.785156 0.618164

vt 0.785645 0.619385

vt 0.784668 0.620605

vt 0.783203 0.620850

vt 0.785645 0.621826

vt 0.785645 0.623047

vt 0.784668 0.620605

vt 0.785645 0.621826

vt 0.787598 0.620361

vt 0.785645 0.623047

vt 0.786621 0.620605

vt 0.785645 0.619385

vt 0.787598 0.620361

vt 0.785156 0.618164

vt 0.777344 0.621582

vt 0.783203 0.618164

vt 0.780273 0.621338

vt 0.774902 0.618164

vt 0.785156 0.615234

vt 0.783203 0.618164

vt 0.772461 0.615234

vt 0.784668 0.599365

vt 0.773438 0.599365

vt 0.775391 0.596680

vt 0.782715 0.596680

vt 0.775391 0.596680

vt 0.782715 0.595459

vt 0.774902 0.595459

vt 0.778809 0.591064

vt 0.784668 0.598389

vt 0.789063 0.594727

vt 0.787109 0.598389

vt 0.782715 0.594727

vt 0.783203 0.593262

vt 0.789063 0.594727

vt 0.788574 0.593262

vt 0.783203 0.593262

vt 0.783203 0.587646

vt 0.788574 0.587646

vt 0.782715 0.586426

vt 0.789063 0.586426

vt 0.786621 0.580811

vt 0.785156 0.580811

vt 0.777344 0.621582

vt 0.783203 0.618164

vt 0.780273 0.621338

vt 0.774902 0.618164

vt 0.772461 0.615234

vt 0.785156 0.615234

vt 0.783203 0.618164

vt 0.772461 0.615234

vt 0.784668 0.599365

vt 0.773438 0.599365

vt 0.775391 0.596680

vt 0.782715 0.596680

vt 0.782715 0.595459

vt 0.774902 0.595459

vt 0.778809 0.591064

vt 0.774902 0.618164

vt 0.780273 0.621338

vt 0.777344 0.621582

vt 0.783203 0.618164

vt 0.772461 0.615234

vt 0.785156 0.615234

vt 0.773438 0.599365

vt 0.784668 0.599365

vt 0.782715 0.596680

vt 0.775391 0.596680

vt 0.782715 0.595459

vt 0.774902 0.595459

vt 0.778809 0.591064

vt 0.777344 0.624512

vt 0.780273 0.621338

vt 0.780273 0.624512

vt 0.777344 0.621582

vt 0.783203 0.618164

vt 0.774902 0.618164

vt 0.772461 0.615234

vt 0.785156 0.615234

vt 0.773438 0.599365

vt 0.784668 0.599365

vt 0.782715 0.596680

vt 0.775391 0.596680

vt 0.782715 0.595459

vt 0.774902 0.595459

vt 0.778809 0.591064

vt 0.786621 0.580811

vt 0.785156 0.579346

vt 0.786621 0.579346

vt 0.785156 0.580811

vt 0.789063 0.586426

vt 0.785156 0.580811

vt 0.782715 0.586426

vt 0.783203 0.587646

vt 0.788574 0.587646

vt 0.788574 0.593262

vt 0.783203 0.593262

vt 0.782715 0.594727

vt 0.789063 0.594727

vt 0.787109 0.598389

vt 0.784668 0.598389

vt 0.782715 0.594727

vt 0.787109 0.598389

vt 0.784668 0.598389

vt 0.789063 0.594727

vt 0.783203 0.593262

vt 0.788574 0.593262

vt 0.783203 0.587646

vt 0.788574 0.587646

vt 0.782715 0.586426

vt 0.789063 0.586426

vt 0.786621 0.580811

vt 0.785156 0.580811

vt 0.784668 0.598389

vt 0.789063 0.594727

vt 0.787109 0.598389

vt 0.782715 0.594727

vt 0.783203 0.593262

vt 0.788574 0.593262

vt 0.783203 0.587646

vt 0.788574 0.587646

vt 0.789063 0.586426

vt 0.782715 0.586426

vt 0.785156 0.580811

vt 0.786621 0.580811



vn 0.200000 -0.003922 -0.984314

vn 0.474510 0.670588 -0.568627

vn 0.560784 -0.474510 -0.678431

vn 0.992157 -0.003922 0.050980

vn 0.200000 -0.003922 -0.984314

vn 0.474510 -0.678431 -0.568627

vn 0.584314 0.388235 -0.709804

vn 0.929412 -0.003922 -0.364706

vn 0.474510 -0.678431 -0.568627

vn 0.584314 0.388235 -0.709804

vn -0.215686 -0.003922 -0.984314

vn 0.474510 0.670588 -0.568627

vn -0.215686 -0.003922 -0.984314

vn 0.929412 -0.003922 -0.364706

vn 0.560784 -0.474510 -0.678431

vn 0.560784 -0.474510 -0.678431

vn -0.160784 0.011765 -0.992157

vn 0.200000 -0.003922 -0.984314

vn 0.466667 -0.678431 -0.576471

vn -0.160784 0.011765 -0.992157

vn 0.521569 0.552941 -0.647059

vn 0.584314 0.388235 -0.709804

vn 0.200000 -0.003922 -0.984314

vn 0.992157 0.003922 -0.011765

vn 0.584314 0.388235 -0.709804

vn 0.521569 0.552941 -0.647059

vn 0.929412 -0.003922 -0.364706

vn 0.992157 0.003922 -0.011765

vn 0.466667 -0.678431 -0.576471

vn 0.560784 -0.474510 -0.678431

vn 0.929412 -0.003922 -0.364706

vn -0.568627 -0.474510 0.670588

vn -0.937255 -0.003922 0.364706

vn -1.000000 0.003922 0.003922

vn -0.474510 -0.678431 0.568628

vn -0.600000 0.380392 0.701961

vn -1.000000 0.003922 0.003922

vn -0.937255 -0.003922 0.364706

vn -0.537255 0.545098 0.639216

vn 0.145098 0.003922 0.984314

vn -0.537255 0.545098 0.639216

vn -0.600000 0.380392 0.701961

vn -0.207843 -0.003922 0.976471

vn 0.145098 0.003922 0.984314

vn -0.568627 -0.474510 0.670588

vn -0.474510 -0.678431 0.568628

vn -0.207843 -0.003922 0.976471

vn -0.937255 -0.003922 0.364706

vn -0.568627 -0.474510 0.670588

vn -0.482353 0.670588 0.560784

vn 0.207843 -0.003922 0.976471

vn -0.937255 -0.003922 0.364706

vn -0.482353 -0.678431 0.560784

vn -0.600000 0.380392 0.701961

vn 0.207843 -0.003922 0.976471

vn -0.482353 -0.678431 0.560784

vn -0.207843 -0.003922 0.976471

vn -0.600000 0.380392 0.701961

vn -1.000000 -0.003922 -0.058823

vn -0.482353 0.670588 0.560784

vn -0.207843 -0.003922 0.976471

vn -0.568627 -0.474510 0.670588

vn 0.003922 0.717647 -0.701961

vn -0.003922 0.835294 -0.552941

vn 0.003922 0.717647 -0.701961

vn -0.003922 0.835294 -0.552941

vn -0.003922 -0.011765 -1.000000

vn -0.003922 0.835294 -0.552941

vn -0.003922 -0.019608 -1.000000

vn -0.003922 -0.137255 -0.992157

vn -0.003922 -0.137255 -0.992157

vn -0.003922 -0.513725 -0.866667

vn -0.003922 -0.513725 -0.866667

vn -0.003922 -0.513725 -0.866667

vn 0.003922 -0.411765 -0.921569

vn 0.003922 -0.403922 -0.921569

vn -0.003922 -0.803922 -0.607843

vn -0.003922 -0.545098 -0.843137

vn -0.003922 -0.239216 -0.976471

vn -0.003922 -0.545098 -0.843137

vn -0.003922 -0.239216 -0.976471

vn -0.003922 0.098039 -1.000000

vn -0.003922 -0.239216 -0.976471

vn -0.003922 0.098039 -1.000000

vn -0.003922 0.098039 -1.000000

vn -0.003922 -0.113725 -1.000000

vn -0.003922 -0.113725 -1.000000

vn -0.003922 0.247059 -0.976471

vn -0.003922 0.247059 -0.976471

vn -0.003922 0.466667 -0.890196

vn -0.003922 0.466667 -0.890196

vn -0.709804 0.701961 -0.011765

vn -0.560784 0.827451 -0.003922

vn -0.709804 0.701961 -0.011765

vn -0.560784 0.827451 -0.003922

vn -1.000000 -0.019608 -0.003922

vn -1.000000 -0.019608 -0.003922

vn -0.560784 0.827451 -0.003922

vn -1.000000 -0.019608 -0.003922

vn -0.992157 -0.137255 -0.003922

vn -0.992157 -0.137255 -0.003922

vn -0.858824 -0.521569 -0.011765

vn -0.858824 -0.521569 -0.011765

vn -0.921569 -0.411765 -0.011765

vn -0.921569 -0.411765 -0.011765

vn -0.607843 -0.803922 -0.011765

vn -0.003922 0.827451 0.552941

vn -0.003922 0.709804 0.701961

vn -0.003922 0.709804 0.701961

vn -0.003922 0.827451 0.545098

vn -0.003922 -0.019608 0.992157

vn -0.003922 -0.019608 0.992157

vn -0.003922 -0.137255 0.984314

vn -0.003922 -0.137255 0.984314

vn -0.011765 -0.521569 0.850981

vn -0.011765 -0.521569 0.850981

vn -0.011765 -0.411765 0.913726

vn -0.011765 -0.403922 0.913726

vn -0.003922 -0.803922 0.600000

vn -0.003922 1.000000 -0.003922

vn 0.498039 0.858824 -0.003922

vn -0.003922 1.000000 -0.003922

vn 0.498039 0.858824 -0.003922

vn 0.537255 0.835294 -0.003922

vn 0.537255 0.835294 -0.003922

vn 0.992157 -0.011765 0.003922

vn 0.992157 -0.011765 0.003922

vn 0.984314 -0.137255 0.003922

vn 0.984314 -0.137255 0.003922

vn 0.850981 -0.521569 0.003922

vn 0.850981 -0.521569 0.003922

vn 0.913726 -0.411765 0.003922

vn 0.913726 -0.411765 0.003922

vn 0.600000 -0.803922 0.003922

vn 0.843137 0.521569 -0.003922

vn -0.003922 1.000000 -0.003922

vn -0.003922 1.000000 -0.003922

vn 0.843137 0.521569 -0.003922

vn 0.968628 0.247059 -0.003922

vn 0.843137 0.521569 -0.003922

vn 0.968628 0.247059 -0.003922

vn 0.992157 -0.113725 -0.003922

vn 0.992157 -0.113725 -0.003922

vn 0.992157 0.098039 -0.003922

vn 0.992157 0.098039 -0.003922

vn 0.968628 -0.239216 -0.003922

vn 0.968628 -0.239216 -0.003922

vn 0.835294 -0.545098 -0.003922

vn 0.835294 -0.545098 -0.003922

vn -0.976471 -0.239216 -0.003922

vn -0.843137 -0.545098 -0.003922

vn -0.843137 -0.545098 -0.003922

vn -0.976471 -0.239216 -0.003922

vn -1.000000 0.098039 -0.003922

vn -1.000000 0.098039 -0.003922

vn -1.000000 -0.113725 -0.003922

vn -1.000000 -0.121569 -0.003922

vn -0.976471 0.239216 -0.011765

vn -0.976471 0.239216 -0.011765

vn -0.890196 0.466667 -0.011765

vn -0.890196 0.466667 -0.011765

vn -0.003922 -0.545098 0.835294

vn -0.003922 -0.239216 0.968628

vn -0.003922 -0.545098 0.835294

vn -0.003922 -0.239216 0.968628

vn -0.003922 0.098039 0.992157

vn -0.003922 0.098039 0.992157

vn -0.003922 -0.121569 0.992157

vn -0.003922 -0.113725 0.992157

vn -0.003922 0.239216 0.968628

vn -0.003922 0.239216 0.968628

vn -0.003922 0.466667 0.874510

vn -0.003922 0.466667 0.874510

f 1/1/1 2/2/2 3/3/3

f 2/2/2 1/1/1 4/4/4

f 5/5/5 6/6/6 4/4/4

f 5/5/5 7/7/7 6/6/6

f 8/8/8 9/9/9 10/10/10

f 9/9/9 8/8/8 11/11/11

f 12/12/12 13/13/13 14/14/14

f 12/12/12 14/14/14 15/15/15

f 16/16/16 17/17/17 18/18/18

f 17/17/17 16/16/16 19/19/19

f 20/20/20 21/21/21 22/22/22

f 20/20/20 22/22/22 23/23/23

f 24/24/24 25/25/25 26/26/26

f 25/25/25 24/24/24 27/27/27

f 28/28/28 29/29/29 30/30/30

f 28/28/28 30/30/30 31/31/31

f 32/32/32 33/33/33 34/34/34

f 34/34/34 35/35/35 32/32/32

f 36/36/36 37/37/37 38/38/38

f 37/37/37 36/36/36 39/39/39

f 40/40/40 41/41/41 42/42/42

f 40/40/40 42/42/42 43/43/43

f 44/44/44 45/45/45 46/46/46

f 45/45/45 44/44/44 47/47/47

f 48/48/48 49/49/49 50/50/50

f 48/48/48 50/50/50 51/51/51

f 52/52/52 53/53/53 54/54/54

f 53/53/53 52/52/52 55/55/55

f 56/56/56 57/57/57 58/58/58

f 57/57/57 56/56/56 59/59/59

f 60/60/60 61/61/61 59/59/59

f 61/61/61 60/60/60 62/62/62

f 63/63/63 64/64/64 65/65/65

f 64/64/64 63/63/63 66/66/66

f 66/66/66 67/67/67 68/68/68

f 67/67/67 66/66/66 69/69/69

f 70/70/70 67/67/67 69/69/69

f 71/71/71 70/70/70 69/69/69

f 72/72/72 70/70/70 71/71/71

f 70/70/70 72/72/72 73/73/73

f 73/73/73 74/74/74 75/75/75

f 76/76/76 75/75/75 74/74/74

f 77/77/77 75/75/75 76/76/76

f 78/78/78 79/79/79 80/80/80

f 79/79/79 78/78/78 81/81/81

f 82/82/82 83/83/83 81/81/81

f 83/83/83 82/82/82 84/84/84

f 85/85/85 86/86/86 84/84/84

f 84/84/84 86/86/86 87/87/87

f 88/88/88 87/87/87 86/86/86

f 87/87/87 88/88/88 89/89/89

f 88/88/88 90/90/90 89/89/89

f 90/90/90 88/88/88 91/91/91

f 92/92/92 93/93/93 94/94/94

f 95/95/95 93/93/93 92/92/92

f 96/96/96 97/97/97 95/95/95

f 95/95/95 97/97/97 98/98/98

f 97/97/97 99/99/99 100/100/100

f 100/100/100 99/99/99 101/101/101

f 102/102/102 100/100/100 101/101/101

f 100/100/100 102/102/102 103/103/103

f 102/102/102 104/104/104 103/103/103

f 104/104/104 102/102/102 105/105/105

f 106/106/106 104/104/104 105/105/105

f 107/107/107 108/108/108 109/109/109

f 108/108/108 107/107/107 110/110/110

f 111/111/111 110/110/110 107/107/107

f 110/110/110 111/111/111 112/112/112

f 113/113/113 112/112/112 111/111/111

f 112/112/112 113/113/113 114/114/114

f 114/114/114 113/113/113 115/115/115

f 115/115/115 113/113/113 116/116/116

f 116/116/116 117/117/117 115/115/115

f 117/117/117 116/116/116 118/118/118

f 119/119/119 117/117/117 118/118/118

f 120/120/120 121/121/121 122/122/122

f 121/121/121 120/120/120 123/123/123

f 123/123/123 124/124/124 121/121/121

f 124/124/124 123/123/123 125/125/125

f 126/126/126 124/124/124 125/125/125

f 124/124/124 126/126/126 127/127/127

f 128/128/128 127/127/127 126/126/126

f 127/127/127 128/128/128 129/129/129

f 128/128/128 130/130/130 129/129/129

f 130/130/130 128/128/128 131/131/131

f 131/131/131 132/132/132 130/130/130

f 133/133/133 132/132/132 131/131/131

f 134/134/134 132/132/132 133/133/133

f 135/135/135 136/136/136 137/137/137

f 136/136/136 135/135/135 138/138/138

f 135/135/135 139/139/139 140/140/140

f 139/139/139 141/141/141 140/140/140

f 139/139/139 142/142/142 141/141/141

f 143/143/143 142/142/142 139/139/139

f 143/143/143 144/144/144 142/142/142

f 144/144/144 145/145/145 142/142/142

f 144/144/144 146/146/146 145/145/145

f 147/147/147 146/146/146 144/144/144

f 147/147/147 148/148/148 146/146/146

f 146/146/146 148/148/148 149/149/149

f 150/150/150 151/151/151 152/152/152

f 150/150/150 153/153/153 151/151/151

f 154/154/154 153/153/153 150/150/150

f 153/153/153 154/154/154 155/155/155

f 156/156/156 155/155/155 154/154/154

f 155/155/155 156/156/156 157/157/157

f 158/158/158 157/157/157 156/156/156

f 157/157/157 158/158/158 159/159/159

f 158/158/158 160/160/160 159/159/159

f 160/160/160 158/158/158 161/161/161

f 162/162/162 163/163/163 164/164/164

f 163/163/163 162/162/162 165/165/165

f 166/166/166 163/163/163 165/165/165

f 163/163/163 166/166/166 167/167/167

f 168/168/168 167/167/167 166/166/166

f 168/168/168 169/169/169 167/167/167

f 168/168/168 170/170/170 169/169/169

f 171/171/171 170/170/170 168/168/168

f 170/170/170 171/171/171 172/172/172

f 170/170/170 172/172/172 173/173/173

